ISO-10303-21;
HEADER;
FILE_DESCRIPTION (( 'STEP AP214' ),
    '1' );
FILE_NAME ('acrylic_panel_cfd_2.STEP',
    '2026-05-12T04:15:12',
    ( '' ),
    ( '' ),
    'SwSTEP 2.0',
    'SolidWorks 2025',
    '' );
FILE_SCHEMA (( 'AUTOMOTIVE_DESIGN' ));
ENDSEC;

DATA;
#1 = DIRECTION ( 'NONE',  ( -0.000000000000000000, -0.000000000000000000, -1.000000000000000000 ) ) ;
#2 = SURFACE_STYLE_FILL_AREA ( #136 ) ;
#3 = FILL_AREA_STYLE_COLOUR ( '', #13 ) ;
#4 = CARTESIAN_POINT ( 'NONE',  ( 36.00000000000000711, -1.469576158976824144E-15, 0.1250000000000000000 ) ) ;
#5 = EDGE_CURVE ( 'NONE', #143, #96, #87, .T. ) ;
#6 = VERTEX_POINT ( 'NONE', #125 ) ;
#7 = CARTESIAN_POINT ( 'NONE',  ( 0.000000000000000000, 4.250000000000000000, 0.1250000000000000000 ) ) ;
#8 = ORIENTED_EDGE ( 'NONE', *, *, #5, .F. ) ;
#9 = EDGE_CURVE ( 'NONE', #143, #6, #55, .T. ) ;
#10 = CARTESIAN_POINT ( 'NONE',  ( -12.00000000000000178, -1.469576158976823750E-15, 0.1250000000000000000 ) ) ;
#11 = PRODUCT_DEFINITION ( 'UNKNOWN', '', #124, #196 ) ;
#12 = AXIS2_PLACEMENT_3D ( 'NONE', #22, #164, #104 ) ;
#13 = COLOUR_RGB ( '',0.7921568627450980005, 0.8196078431372548767, 0.9333333333333333481 ) ;
#14 = CARTESIAN_POINT ( 'NONE',  ( -12.00000000000000178, -1.469576158976823750E-15, 0.000000000000000000 ) ) ;
#15 = CARTESIAN_POINT ( 'NONE',  ( 33.33290627906092141, 3.523957429459646296, 0.1250000000000000000 ) ) ;
#16 =( GEOMETRIC_REPRESENTATION_CONTEXT ( 3 ) GLOBAL_UNCERTAINTY_ASSIGNED_CONTEXT ( ( #167 ) ) GLOBAL_UNIT_ASSIGNED_CONTEXT ( ( #90, #150, #75 ) ) REPRESENTATION_CONTEXT ( 'NONE', 'WORKASPACE' ) );
#17 =( LENGTH_UNIT ( ) NAMED_UNIT ( * ) SI_UNIT ( $, .METRE. ) );
#18 = CARTESIAN_POINT ( 'NONE',  ( 0.000000000000000000, 0.000000000000000000, 0.000000000000000000 ) ) ;
#19 = LINE ( 'NONE', #18, #29 ) ;
#20 = CARTESIAN_POINT ( 'NONE',  ( -5.000000000000000000, 4.250000000000000000, 0.1250000000000000000 ) ) ;
#21 = ADVANCED_FACE ( 'NONE', ( #41 ), #156, .F. ) ;
#22 = CARTESIAN_POINT ( 'NONE',  ( 32.91645313953046070, 2.824478714729822926, 0.1250000000000000000 ) ) ;
#23 = CARTESIAN_POINT ( 'NONE',  ( 32.91645313953046070, 2.824478714729822926, 0.000000000000000000 ) ) ;
#24 = ORIENTED_EDGE ( 'NONE', *, *, #43, .T. ) ;
#25 = CARTESIAN_POINT ( 'NONE',  ( 0.000000000000000000, 0.000000000000000000, 0.1250000000000000000 ) ) ;
#26 = ADVANCED_BREP_SHAPE_REPRESENTATION ( 'acrylic_panel_cfd_2', ( #155, #195 ), #57 ) ;
#27 = B_SPLINE_SURFACE_WITH_KNOTS ( 'NONE', 2, 1, ( 
 ( #20, #184 ),
 ( #103, #36 ),
 ( #48, #35 ) ),
 .UNSPECIFIED., .F., .F., .F.,
 ( 3, 3 ),
 ( 2, 2 ),
 ( 0.000000000000000000, 1.000000000000000000 ),
 ( 0.000000000000000000, 1.000000000000000000 ),
 .UNSPECIFIED. ) ;
#28 = ORIENTED_EDGE ( 'NONE', *, *, #144, .T. ) ;
#29 = VECTOR ( 'NONE', #122, 39.37007874015748143 ) ;
#30 = CARTESIAN_POINT ( 'NONE',  ( 36.00000000000000711, -1.469576158976824144E-15, 0.1250000000000000000 ) ) ;
#31 = APPLICATION_PROTOCOL_DEFINITION ( 'draft international standard', 'automotive_design', 1998, #197 ) ;
#32 = DIRECTION ( 'NONE',  ( 1.092739197465705287E-16, -1.000000000000000000, 0.000000000000000000 ) ) ;
#33 = PRODUCT_RELATED_PRODUCT_CATEGORY ( 'part', '', ( #126 ) ) ;
#34 = VECTOR ( 'NONE', #101, 39.37007874015748143 ) ;
#35 = CARTESIAN_POINT ( 'NONE',  ( -12.00000000000000178, -1.469576158976824144E-15, 0.000000000000000000 ) ) ;
#36 = CARTESIAN_POINT ( 'NONE',  ( -9.332906279060916077, 3.523957429459651181, 0.000000000000000000 ) ) ;
#37 = CARTESIAN_POINT ( 'NONE',  ( -12.00000000000000178, -1.469576158976823750E-15, 0.1250000000000000000 ) ) ;
#38 = CARTESIAN_POINT ( 'NONE',  ( 28.99999999999996447, 4.250000000000121680, 0.000000000000000000 ) ) ;
#39 =( CONVERSION_BASED_UNIT ( 'INCH', #54 ) LENGTH_UNIT ( ) NAMED_UNIT ( #168 ) );
#40 = EDGE_CURVE ( 'NONE', #97, #96, #78, .T. ) ;
#41 = FACE_OUTER_BOUND ( 'NONE', #107, .T. ) ;
#42 = AXIS2_PLACEMENT_3D ( 'NONE', #7, #32, #91 ) ;
#43 = EDGE_CURVE ( 'NONE', #146, #97, #89, .T. ) ;
#44 = DIRECTION ( 'NONE',  ( -0.000000000000000000, -0.000000000000000000, -1.000000000000000000 ) ) ;
#45 = EDGE_LOOP ( 'NONE', ( #165, #158, #152, #173 ) ) ;
#46 = DIRECTION ( 'NONE',  ( -1.000000000000000000, -1.092739197465705287E-16, 0.000000000000000000 ) ) ;
#47 = CARTESIAN_POINT ( 'NONE',  ( 0.000000000000000000, 0.000000000000000000, 0.000000000000000000 ) ) ;
#48 = CARTESIAN_POINT ( 'NONE',  ( -12.00000000000000178, -1.469576158976824144E-15, 0.1250000000000000000 ) ) ;
#49 = CARTESIAN_POINT ( 'NONE',  ( 36.00000000000000711, -1.469576158976824144E-15, 0.000000000000000000 ) ) ;
#50 = EDGE_LOOP ( 'NONE', ( #179, #8, #94, #102 ) ) ;
#51 = CARTESIAN_POINT ( 'NONE',  ( 33.33290627906092141, 3.523957429459646296, 0.1250000000000000000 ) ) ;
#52 = SURFACE_STYLE_USAGE ( .BOTH. , #65 ) ;
#53 = STYLED_ITEM ( 'NONE', ( #79 ), #155 ) ;
#54 = LENGTH_MEASURE_WITH_UNIT ( LENGTH_MEASURE( 0.02539999999999999897 ), #189 );
#55 = LINE ( 'NONE', #109, #95 ) ;
#56 = CARTESIAN_POINT ( 'NONE',  ( 28.99999999999996447, 4.250000000000121680, 0.000000000000000000 ) ) ;
#57 =( GEOMETRIC_REPRESENTATION_CONTEXT ( 3 ) GLOBAL_UNCERTAINTY_ASSIGNED_CONTEXT ( ( #67 ) ) GLOBAL_UNIT_ASSIGNED_CONTEXT ( ( #39, #181, #115 ) ) REPRESENTATION_CONTEXT ( 'NONE', 'WORKASPACE' ) );
#58 = ORIENTED_EDGE ( 'NONE', *, *, #147, .T. ) ;
#59 = DIRECTION ( 'NONE',  ( 0.000000000000000000, 0.000000000000000000, 1.000000000000000000 ) ) ;
#60 = B_SPLINE_CURVE_WITH_KNOTS ( 'NONE', 2,
 ( #151, #145, #37 ),
 .UNSPECIFIED., .F., .F.,
 ( 3, 3 ),
 ( 0.000000000000000000, 1.000000000000000000 ),
 .UNSPECIFIED. ) ;
#61 = DIRECTION ( 'NONE',  ( 1.000000000000000000, 0.000000000000000000, 0.000000000000000000 ) ) ;
#62 = AXIS2_PLACEMENT_3D ( 'NONE', #23, #157, #108 ) ;
#63 = CARTESIAN_POINT ( 'NONE',  ( -5.000000000000000000, 4.250000000000000000, 0.1250000000000000000 ) ) ;
#64 = ORIENTED_EDGE ( 'NONE', *, *, #192, .F. ) ;
#65 = SURFACE_SIDE_STYLE ('',( #2 ) ) ;
#66 = DIRECTION ( 'NONE',  ( -0.000000000000000000, -0.000000000000000000, -1.000000000000000000 ) ) ;
#67 = UNCERTAINTY_MEASURE_WITH_UNIT (LENGTH_MEASURE( 1.000000000000000082E-05 ), #39, 'distance_accuracy_value', 'NONE');
#68 = PLANE ( 'NONE',  #42 ) ;
#69 = ORIENTED_EDGE ( 'NONE', *, *, #144, .F. ) ;
#70 = EDGE_CURVE ( 'NONE', #6, #128, #111, .T. ) ;
#71 = CARTESIAN_POINT ( 'NONE',  ( -5.000000000000000000, 4.250000000000000000, 0.1250000000000000000 ) ) ;
#72 = ORIENTED_EDGE ( 'NONE', *, *, #70, .T. ) ;
#73 = ADVANCED_FACE ( 'NONE', ( #117 ), #100, .F. ) ;
#74 = PRESENTATION_LAYER_ASSIGNMENT (  '', '', ( #53 ) ) ;
#75 =( NAMED_UNIT ( * ) SI_UNIT ( $, .STERADIAN. ) SOLID_ANGLE_UNIT ( ) );
#76 = PRODUCT_DEFINITION_SHAPE ( 'NONE', 'NONE',  #11 ) ;
#77 = LINE ( 'NONE', #4, #34 ) ;
#78 = B_SPLINE_CURVE_WITH_KNOTS ( 'NONE', 2,
 ( #80, #170, #14 ),
 .UNSPECIFIED., .F., .F.,
 ( 3, 3 ),
 ( 0.000000000000000000, 1.000000000000000000 ),
 .UNSPECIFIED. ) ;
#79 = PRESENTATION_STYLE_ASSIGNMENT (( #52 ) ) ;
#80 = CARTESIAN_POINT ( 'NONE',  ( -5.000000000000000000, 4.250000000000000000, 0.000000000000000000 ) ) ;
#81 = CARTESIAN_POINT ( 'NONE',  ( -12.00000000000000178, -1.469576158976823750E-15, 0.000000000000000000 ) ) ;
#82 = EDGE_LOOP ( 'NONE', ( #24, #98, #64, #112 ) ) ;
#83 = CARTESIAN_POINT ( 'NONE',  ( 36.00000000000000711, -1.469576158976824144E-15, 0.1250000000000000000 ) ) ;
#84 = CARTESIAN_POINT ( 'NONE',  ( 36.00000000000000711, -1.469576158976824144E-15, 0.000000000000000000 ) ) ;
#85 = PLANE ( 'NONE',  #62 ) ;
#86 = EDGE_CURVE ( 'NONE', #191, #97, #183, .T. ) ;
#87 = LINE ( 'NONE', #10, #154 ) ;
#88 = SHAPE_DEFINITION_REPRESENTATION ( #76, #26 ) ;
#89 = LINE ( 'NONE', #114, #99 ) ;
#90 =( CONVERSION_BASED_UNIT ( 'INCH', #186 ) LENGTH_UNIT ( ) NAMED_UNIT ( #133 ) );
#91 = DIRECTION ( 'NONE',  ( 1.000000000000000000, 1.092739197465705287E-16, 0.000000000000000000 ) ) ;
#92 = ORIENTED_EDGE ( 'NONE', *, *, #192, .T. ) ;
#93 = CARTESIAN_POINT ( 'NONE',  ( 28.99999999999996447, 4.250000000000121680, 0.1250000000000000000 ) ) ;
#94 = ORIENTED_EDGE ( 'NONE', *, *, #147, .F. ) ;
#95 = VECTOR ( 'NONE', #174, 39.37007874015748143 ) ;
#96 = VERTEX_POINT ( 'NONE', #81 ) ;
#97 = VERTEX_POINT ( 'NONE', #171 ) ;
#98 = ORIENTED_EDGE ( 'NONE', *, *, #86, .F. ) ;
#99 = VECTOR ( 'NONE', #46, 39.37007874015748143 ) ;
#100 = PLANE ( 'NONE',  #12 ) ;
#101 = DIRECTION ( 'NONE',  ( -0.000000000000000000, -0.000000000000000000, -1.000000000000000000 ) ) ;
#102 = ORIENTED_EDGE ( 'NONE', *, *, #86, .T. ) ;
#103 = CARTESIAN_POINT ( 'NONE',  ( -9.332906279060916077, 3.523957429459651181, 0.1250000000000000000 ) ) ;
#104 = DIRECTION ( 'NONE',  ( -1.000000000000000000, 0.000000000000000000, -0.000000000000000000 ) ) ;
#105 = ADVANCED_FACE ( 'NONE', ( #132 ), #27, .F. ) ;
#106 = DIRECTION ( 'NONE',  ( -1.224646799147353207E-16, 1.000000000000000000, 0.000000000000000000 ) ) ;
#107 = EDGE_LOOP ( 'NONE', ( #121, #69, #118, #180 ) ) ;
#108 = DIRECTION ( 'NONE',  ( -1.000000000000000000, 0.000000000000000000, -0.000000000000000000 ) ) ;
#109 = CARTESIAN_POINT ( 'NONE',  ( 0.000000000000000000, 0.000000000000000000, 0.1250000000000000000 ) ) ;
#110 = LINE ( 'NONE', #142, #129 ) ;
#111 = B_SPLINE_CURVE_WITH_KNOTS ( 'NONE', 2,
 ( #30, #15, #131 ),
 .UNSPECIFIED., .F., .F.,
 ( 3, 3 ),
 ( 0.000000000000000000, 1.000000000000000000 ),
 .UNSPECIFIED. ) ;
#112 = ORIENTED_EDGE ( 'NONE', *, *, #141, .T. ) ;
#113 = ADVANCED_FACE ( 'NONE', ( #185 ), #188, .F. ) ;
#114 = CARTESIAN_POINT ( 'NONE',  ( 0.000000000000000000, 4.250000000000000000, 0.000000000000000000 ) ) ;
#115 =( NAMED_UNIT ( * ) SI_UNIT ( $, .STERADIAN. ) SOLID_ANGLE_UNIT ( ) );
#116 = DIRECTION ( 'NONE',  ( -1.000000000000000000, -1.224646799147353207E-16, 0.000000000000000000 ) ) ;
#117 = FACE_OUTER_BOUND ( 'NONE', #123, .T. ) ;
#118 = ORIENTED_EDGE ( 'NONE', *, *, #9, .F. ) ;
#119 = CARTESIAN_POINT ( 'NONE',  ( -12.00000000000000178, -1.469576158976823750E-15, 0.1250000000000000000 ) ) ;
#120 = ADVANCED_FACE ( 'NONE', ( #148 ), #68, .F. ) ;
#121 = ORIENTED_EDGE ( 'NONE', *, *, #153, .T. ) ;
#122 = DIRECTION ( 'NONE',  ( 1.000000000000000000, 1.224646799147353207E-16, -0.000000000000000000 ) ) ;
#123 = EDGE_LOOP ( 'NONE', ( #139, #72, #92, #58 ) ) ;
#124 = PRODUCT_DEFINITION_FORMATION_WITH_SPECIFIED_SOURCE ( 'ANY', '', #126, .NOT_KNOWN. ) ;
#125 = CARTESIAN_POINT ( 'NONE',  ( 36.00000000000000711, -1.469576158976824144E-15, 0.1250000000000000000 ) ) ;
#126 = PRODUCT ( 'acrylic_panel_cfd_2', 'acrylic_panel_cfd_2', '', ( #161 ) ) ;
#127 = VECTOR ( 'NONE', #1, 39.37007874015748143 ) ;
#128 = VERTEX_POINT ( 'NONE', #93 ) ;
#129 = VECTOR ( 'NONE', #175, 39.37007874015748143 ) ;
#130 = ORIENTED_EDGE ( 'NONE', *, *, #70, .F. ) ;
#131 = CARTESIAN_POINT ( 'NONE',  ( 28.99999999999996447, 4.250000000000121680, 0.1250000000000000000 ) ) ;
#132 = FACE_OUTER_BOUND ( 'NONE', #50, .T. ) ;
#133 = DIMENSIONAL_EXPONENTS ( 1.000000000000000000, 0.000000000000000000, 0.000000000000000000, 0.000000000000000000, 0.000000000000000000, 0.000000000000000000, 0.000000000000000000 ) ;
#134 = CARTESIAN_POINT ( 'NONE',  ( 36.00000000000000711, -1.469576158976824144E-15, 0.000000000000000000 ) ) ;
#135 = LINE ( 'NONE', #187, #182 ) ;
#136 = FILL_AREA_STYLE ('',( #3 ) ) ;
#137 = CARTESIAN_POINT ( 'NONE',  ( 33.33290627906092141, 3.523957429459646296, 0.000000000000000000 ) ) ;
#138 = B_SPLINE_CURVE_WITH_KNOTS ( 'NONE', 2,
 ( #134, #177, #56 ),
 .UNSPECIFIED., .F., .F.,
 ( 3, 3 ),
 ( 0.000000000000000000, 1.000000000000000000 ),
 .UNSPECIFIED. ) ;
#139 = ORIENTED_EDGE ( 'NONE', *, *, #9, .T. ) ;
#140 = ORIENTED_EDGE ( 'NONE', *, *, #141, .F. ) ;
#141 = EDGE_CURVE ( 'NONE', #128, #146, #135, .T. ) ;
#142 = CARTESIAN_POINT ( 'NONE',  ( 24.00000000000000355, 4.250000000000000000, 0.1250000000000000000 ) ) ;
#143 = VERTEX_POINT ( 'NONE', #119 ) ;
#144 = EDGE_CURVE ( 'NONE', #6, #193, #77, .T. ) ;
#145 = CARTESIAN_POINT ( 'NONE',  ( -9.332906279060916077, 3.523957429459651181, 0.1250000000000000000 ) ) ;
#146 = VERTEX_POINT ( 'NONE', #38 ) ;
#147 = EDGE_CURVE ( 'NONE', #191, #143, #60, .T. ) ;
#148 = FACE_OUTER_BOUND ( 'NONE', #82, .T. ) ;
#149 = AXIS2_PLACEMENT_3D ( 'NONE', #25, #106, #116 ) ;
#150 =( NAMED_UNIT ( * ) PLANE_ANGLE_UNIT ( ) SI_UNIT ( $, .RADIAN. ) );
#151 = CARTESIAN_POINT ( 'NONE',  ( -5.000000000000000000, 4.250000000000000000, 0.1250000000000000000 ) ) ;
#152 = ORIENTED_EDGE ( 'NONE', *, *, #40, .F. ) ;
#153 = EDGE_CURVE ( 'NONE', #96, #193, #19, .T. ) ;
#154 = VECTOR ( 'NONE', #44, 39.37007874015748143 ) ;
#155 = MANIFOLD_SOLID_BREP ( 'Boss-Extrude1', #194 ) ;
#156 = PLANE ( 'NONE',  #149 ) ;
#157 = DIRECTION ( 'NONE',  ( 0.000000000000000000, 0.000000000000000000, -1.000000000000000000 ) ) ;
#158 = ORIENTED_EDGE ( 'NONE', *, *, #153, .F. ) ;
#159 = ORIENTED_EDGE ( 'NONE', *, *, #162, .T. ) ;
#160 = MECHANICAL_DESIGN_GEOMETRIC_PRESENTATION_REPRESENTATION (  '', ( #53 ), #16 ) ;
#161 = PRODUCT_CONTEXT ( 'NONE', #190, 'mechanical' ) ;
#162 = EDGE_CURVE ( 'NONE', #193, #146, #138, .T. ) ;
#163 = APPLICATION_PROTOCOL_DEFINITION ( 'draft international standard', 'automotive_design', 1998, #190 ) ;
#164 = DIRECTION ( 'NONE',  ( 0.000000000000000000, 0.000000000000000000, -1.000000000000000000 ) ) ;
#165 = ORIENTED_EDGE ( 'NONE', *, *, #162, .F. ) ;
#166 = CARTESIAN_POINT ( 'NONE',  ( 29.00000000000000355, 4.250000000000000000, 0.000000000000000000 ) ) ;
#167 = UNCERTAINTY_MEASURE_WITH_UNIT (LENGTH_MEASURE( 1.000000000000000082E-05 ), #90, 'distance_accuracy_value', 'NONE');
#168 = DIMENSIONAL_EXPONENTS ( 1.000000000000000000, 0.000000000000000000, 0.000000000000000000, 0.000000000000000000, 0.000000000000000000, 0.000000000000000000, 0.000000000000000000 ) ;
#169 = CARTESIAN_POINT ( 'NONE',  ( 29.00000000000000355, 4.250000000000000000, 0.1250000000000000000 ) ) ;
#170 = CARTESIAN_POINT ( 'NONE',  ( -9.332906279060916077, 3.523957429459651181, 0.000000000000000000 ) ) ;
#171 = CARTESIAN_POINT ( 'NONE',  ( -5.000000000000000000, 4.250000000000000000, 0.000000000000000000 ) ) ;
#172 = FACE_OUTER_BOUND ( 'NONE', #45, .T. ) ;
#173 = ORIENTED_EDGE ( 'NONE', *, *, #43, .F. ) ;
#174 = DIRECTION ( 'NONE',  ( 1.000000000000000000, 0.000000000000000000, 0.000000000000000000 ) ) ;
#175 = DIRECTION ( 'NONE',  ( -1.000000000000000000, -2.436808410348541684E-14, -0.000000000000000000 ) ) ;
#176 = ADVANCED_FACE ( 'NONE', ( #172 ), #85, .T. ) ;
#177 = CARTESIAN_POINT ( 'NONE',  ( 33.33290627906092141, 3.523957429459646296, 0.000000000000000000 ) ) ;
#178 = EDGE_LOOP ( 'NONE', ( #159, #140, #130, #28 ) ) ;
#179 = ORIENTED_EDGE ( 'NONE', *, *, #40, .T. ) ;
#180 = ORIENTED_EDGE ( 'NONE', *, *, #5, .T. ) ;
#181 =( NAMED_UNIT ( * ) PLANE_ANGLE_UNIT ( ) SI_UNIT ( $, .RADIAN. ) );
#182 = VECTOR ( 'NONE', #66, 39.37007874015748143 ) ;
#183 = LINE ( 'NONE', #63, #127 ) ;
#184 = CARTESIAN_POINT ( 'NONE',  ( -5.000000000000000000, 4.250000000000000000, 0.000000000000000000 ) ) ;
#185 = FACE_OUTER_BOUND ( 'NONE', #178, .T. ) ;
#186 = LENGTH_MEASURE_WITH_UNIT ( LENGTH_MEASURE( 0.02539999999999999897 ), #17 );
#187 = CARTESIAN_POINT ( 'NONE',  ( 28.99999999999996447, 4.250000000000121680, 0.1250000000000000000 ) ) ;
#188 = B_SPLINE_SURFACE_WITH_KNOTS ( 'NONE', 2, 1, ( 
 ( #83, #49 ),
 ( #51, #137 ),
 ( #169, #166 ) ),
 .UNSPECIFIED., .F., .F., .F.,
 ( 3, 3 ),
 ( 2, 2 ),
 ( 0.000000000000000000, 1.000000000000000000 ),
 ( 0.000000000000000000, 1.000000000000000000 ),
 .UNSPECIFIED. ) ;
#189 =( LENGTH_UNIT ( ) NAMED_UNIT ( * ) SI_UNIT ( $, .METRE. ) );
#190 = APPLICATION_CONTEXT ( 'automotive_design' ) ;
#191 = VERTEX_POINT ( 'NONE', #71 ) ;
#192 = EDGE_CURVE ( 'NONE', #128, #191, #110, .T. ) ;
#193 = VERTEX_POINT ( 'NONE', #84 ) ;
#194 = CLOSED_SHELL ( 'NONE', ( #113, #120, #105, #21, #73, #176 ) ) ;
#195 = AXIS2_PLACEMENT_3D ( 'NONE', #47, #59, #61 ) ;
#196 = PRODUCT_DEFINITION_CONTEXT ( 'detailed design', #197, 'design' ) ;
#197 = APPLICATION_CONTEXT ( 'automotive_design' ) ;
ENDSEC;
END-ISO-10303-21;
