ISO-10303-21;
HEADER;
FILE_DESCRIPTION (( 'STEP AP214' ),
    '1' );
FILE_NAME ('bearing_rod_adaptor.STEP',
    '2026-06-07T22:24:39',
    ( '' ),
    ( '' ),
    'SwSTEP 2.0',
    'SolidWorks 2025',
    '' );
FILE_SCHEMA (( 'AUTOMOTIVE_DESIGN' ));
ENDSEC;

DATA;
#1 = DIRECTION ( 'NONE',  ( 0.000000000000000000, 1.000000000000000000, 0.000000000000000000 ) ) ;
#2 = DIRECTION ( 'NONE',  ( 0.000000000000000000, 0.000000000000000000, 1.000000000000000000 ) ) ;
#3 = ORIENTED_EDGE ( 'NONE', *, *, #132, .F. ) ;
#4 = DIRECTION ( 'NONE',  ( 0.000000000000000000, 0.000000000000000000, 1.000000000000000000 ) ) ;
#5 = ADVANCED_FACE ( 'NONE', ( #9 ), #54, .T. ) ;
#6 = AXIS2_PLACEMENT_3D ( 'NONE', #183, #4, #63 ) ;
#7 = ORIENTED_EDGE ( 'NONE', *, *, #152, .T. ) ;
#8 = ORIENTED_EDGE ( 'NONE', *, *, #188, .F. ) ;
#9 = FACE_OUTER_BOUND ( 'NONE', #83, .T. ) ;
#10 = ADVANCED_FACE ( 'NONE', ( #119, #120 ), #130, .T. ) ;
#11 = SURFACE_STYLE_FILL_AREA ( #74 ) ;
#12 =( NAMED_UNIT ( * ) SI_UNIT ( $, .STERADIAN. ) SOLID_ANGLE_UNIT ( ) );
#13 = CIRCLE ( 'NONE', #62, 3.225000000000000533 ) ;
#14 = PRODUCT_DEFINITION_CONTEXT ( 'detailed design', #16, 'design' ) ;
#15 =( NAMED_UNIT ( * ) PLANE_ANGLE_UNIT ( ) SI_UNIT ( $, .RADIAN. ) );
#16 = APPLICATION_CONTEXT ( 'automotive_design' ) ;
#17 = CARTESIAN_POINT ( 'NONE',  ( 0.000000000000000000, 7.000000000000000000, 0.000000000000000000 ) ) ;
#18 = CARTESIAN_POINT ( 'NONE',  ( 0.000000000000000000, 0.000000000000000000, -3.899999999999999911 ) ) ;
#19 = EDGE_CURVE ( 'NONE', #26, #126, #13, .T. ) ;
#20 = FACE_BOUND ( 'NONE', #68, .T. ) ;
#21 =( GEOMETRIC_REPRESENTATION_CONTEXT ( 3 ) GLOBAL_UNCERTAINTY_ASSIGNED_CONTEXT ( ( #46 ) ) GLOBAL_UNIT_ASSIGNED_CONTEXT ( ( #170, #64, #138 ) ) REPRESENTATION_CONTEXT ( 'NONE', 'WORKASPACE' ) );
#22 = CARTESIAN_POINT ( 'NONE',  ( 0.000000000000000000, 0.000000000000000000, 0.000000000000000000 ) ) ;
#23 = EDGE_LOOP ( 'NONE', ( #40, #8 ) ) ;
#24 = DIRECTION ( 'NONE',  ( 0.000000000000000000, 1.000000000000000000, 0.000000000000000000 ) ) ;
#25 = ORIENTED_EDGE ( 'NONE', *, *, #152, .F. ) ;
#26 = VERTEX_POINT ( 'NONE', #86 ) ;
#27 = ORIENTED_EDGE ( 'NONE', *, *, #132, .T. ) ;
#28 = DIRECTION ( 'NONE',  ( 0.000000000000000000, -0.000000000000000000, 1.000000000000000000 ) ) ;
#29 = AXIS2_PLACEMENT_3D ( 'NONE', #43, #101, #28 ) ;
#30 = CARTESIAN_POINT ( 'NONE',  ( 3.949485927250214839E-16, 0.000000000000000000, 3.225000000000000533 ) ) ;
#31 = AXIS2_PLACEMENT_3D ( 'NONE', #199, #1, #108 ) ;
#32 = DIRECTION ( 'NONE',  ( 0.000000000000000000, 0.000000000000000000, 1.000000000000000000 ) ) ;
#33 = PRESENTATION_LAYER_ASSIGNMENT (  '', '', ( #136 ) ) ;
#34 = PRESENTATION_STYLE_ASSIGNMENT (( #97 ) ) ;
#35 = APPLICATION_PROTOCOL_DEFINITION ( 'draft international standard', 'automotive_design', 1998, #16 ) ;
#36 = APPLICATION_CONTEXT ( 'automotive_design' ) ;
#37 = CIRCLE ( 'NONE', #53, 3.225000000000000533 ) ;
#38 = SHAPE_DEFINITION_REPRESENTATION ( #99, #162 ) ;
#39 = DIRECTION ( 'NONE',  ( -0.000000000000000000, -1.000000000000000000, -0.000000000000000000 ) ) ;
#40 = ORIENTED_EDGE ( 'NONE', *, *, #197, .F. ) ;
#41 = VERTEX_POINT ( 'NONE', #18 ) ;
#42 = ORIENTED_EDGE ( 'NONE', *, *, #188, .T. ) ;
#43 = CARTESIAN_POINT ( 'NONE',  ( 0.000000000000000000, 7.000000000000000000, 0.000000000000000000 ) ) ;
#44 = PRODUCT_DEFINITION_FORMATION_WITH_SPECIFIED_SOURCE ( 'ANY', '', #51, .NOT_KNOWN. ) ;
#45 = DIRECTION ( 'NONE',  ( 0.000000000000000000, 1.000000000000000000, 0.000000000000000000 ) ) ;
#46 = UNCERTAINTY_MEASURE_WITH_UNIT (LENGTH_MEASURE( 1.000000000000000082E-05 ), #170, 'distance_accuracy_value', 'NONE');
#47 = CARTESIAN_POINT ( 'NONE',  ( 4.776122516674677286E-16, 7.000000000000000000, 3.899999999999999911 ) ) ;
#48 = DIRECTION ( 'NONE',  ( 0.000000000000000000, 1.000000000000000000, 0.000000000000000000 ) ) ;
#49 = DIRECTION ( 'NONE',  ( -0.000000000000000000, -1.000000000000000000, -0.000000000000000000 ) ) ;
#50 = CARTESIAN_POINT ( 'NONE',  ( 0.000000000000000000, 7.000000000000000000, 0.000000000000000000 ) ) ;
#51 = PRODUCT ( 'bearing_rod_adaptor', 'bearing_rod_adaptor', '', ( #89 ) ) ;
#52 = EDGE_CURVE ( 'NONE', #78, #94, #167, .T. ) ;
#53 = AXIS2_PLACEMENT_3D ( 'NONE', #17, #179, #158 ) ;
#54 = CYLINDRICAL_SURFACE ( 'NONE', #117, 3.899999999999999911 ) ;
#55 = ORIENTED_EDGE ( 'NONE', *, *, #59, .T. ) ;
#56 = AXIS2_PLACEMENT_3D ( 'NONE', #22, #24, #92 ) ;
#57 = DIRECTION ( 'NONE',  ( 0.000000000000000000, 0.000000000000000000, -1.000000000000000000 ) ) ;
#58 = ORIENTED_EDGE ( 'NONE', *, *, #197, .T. ) ;
#59 = EDGE_CURVE ( 'NONE', #112, #113, #85, .T. ) ;
#60 = DIRECTION ( 'NONE',  ( -0.000000000000000000, -1.000000000000000000, -0.000000000000000000 ) ) ;
#61 = CARTESIAN_POINT ( 'NONE',  ( 0.000000000000000000, 7.000000000000000000, 0.000000000000000000 ) ) ;
#62 = AXIS2_PLACEMENT_3D ( 'NONE', #87, #48, #95 ) ;
#63 = DIRECTION ( 'NONE',  ( 1.000000000000000000, 0.000000000000000000, 0.000000000000000000 ) ) ;
#64 =( NAMED_UNIT ( * ) PLANE_ANGLE_UNIT ( ) SI_UNIT ( $, .RADIAN. ) );
#65 = ORIENTED_EDGE ( 'NONE', *, *, #59, .F. ) ;
#66 = ADVANCED_FACE ( 'NONE', ( #143 ), #146, .T. ) ;
#67 = ORIENTED_EDGE ( 'NONE', *, *, #19, .F. ) ;
#68 = EDGE_LOOP ( 'NONE', ( #82, #7 ) ) ;
#69 = ORIENTED_EDGE ( 'NONE', *, *, #115, .F. ) ;
#70 = CARTESIAN_POINT ( 'NONE',  ( 0.000000000000000000, 7.000000000000000000, 0.000000000000000000 ) ) ;
#71 = UNCERTAINTY_MEASURE_WITH_UNIT (LENGTH_MEASURE( 1.000000000000000082E-05 ), #189, 'distance_accuracy_value', 'NONE');
#72 = LINE ( 'NONE', #166, #134 ) ;
#73 = MECHANICAL_DESIGN_GEOMETRIC_PRESENTATION_REPRESENTATION (  '', ( #136 ), #198 ) ;
#74 = FILL_AREA_STYLE ('',( #142 ) ) ;
#75 = FACE_OUTER_BOUND ( 'NONE', #140, .T. ) ;
#76 = EDGE_CURVE ( 'NONE', #113, #112, #37, .T. ) ;
#77 = PLANE ( 'NONE',  #31 ) ;
#78 = VERTEX_POINT ( 'NONE', #118 ) ;
#79 = EDGE_LOOP ( 'NONE', ( #69, #55, #27, #25 ) ) ;
#80 = CARTESIAN_POINT ( 'NONE',  ( 4.776122516674677286E-16, 7.000000000000000000, 3.899999999999999911 ) ) ;
#81 = ADVANCED_FACE ( 'NONE', ( #75 ), #178, .F. ) ;
#82 = ORIENTED_EDGE ( 'NONE', *, *, #19, .T. ) ;
#83 = EDGE_LOOP ( 'NONE', ( #123, #139, #173, #58 ) ) ;
#84 = CARTESIAN_POINT ( 'NONE',  ( 0.000000000000000000, 7.000000000000000000, 0.000000000000000000 ) ) ;
#85 = CIRCLE ( 'NONE', #171, 3.225000000000000533 ) ;
#86 = CARTESIAN_POINT ( 'NONE',  ( 0.000000000000000000, 0.000000000000000000, -3.225000000000000533 ) ) ;
#87 = CARTESIAN_POINT ( 'NONE',  ( 0.000000000000000000, 0.000000000000000000, 0.000000000000000000 ) ) ;
#88 = CIRCLE ( 'NONE', #56, 3.899999999999999911 ) ;
#89 = PRODUCT_CONTEXT ( 'NONE', #36, 'mechanical' ) ;
#90 = CARTESIAN_POINT ( 'NONE',  ( 0.000000000000000000, 7.000000000000000000, 0.000000000000000000 ) ) ;
#91 = ORIENTED_EDGE ( 'NONE', *, *, #177, .F. ) ;
#92 = DIRECTION ( 'NONE',  ( 0.000000000000000000, 0.000000000000000000, 1.000000000000000000 ) ) ;
#93 = ORIENTED_EDGE ( 'NONE', *, *, #165, .F. ) ;
#94 = VERTEX_POINT ( 'NONE', #47 ) ;
#95 = DIRECTION ( 'NONE',  ( 0.000000000000000000, 0.000000000000000000, 1.000000000000000000 ) ) ;
#96 = CIRCLE ( 'NONE', #151, 3.225000000000000533 ) ;
#97 = SURFACE_STYLE_USAGE ( .BOTH. , #196 ) ;
#98 = MANIFOLD_SOLID_BREP ( 'Boss-Extrude1', #193 ) ;
#99 = PRODUCT_DEFINITION_SHAPE ( 'NONE', 'NONE',  #111 ) ;
#100 = DIRECTION ( 'NONE',  ( 0.000000000000000000, 0.000000000000000000, 1.000000000000000000 ) ) ;
#101 = DIRECTION ( 'NONE',  ( 0.000000000000000000, 1.000000000000000000, 0.000000000000000000 ) ) ;
#102 = DIRECTION ( 'NONE',  ( 0.000000000000000000, 0.000000000000000000, -1.000000000000000000 ) ) ;
#103 = DIRECTION ( 'NONE',  ( 0.000000000000000000, 1.000000000000000000, 0.000000000000000000 ) ) ;
#104 = DIRECTION ( 'NONE',  ( 0.000000000000000000, 0.000000000000000000, 1.000000000000000000 ) ) ;
#105 = COLOUR_RGB ( '',0.7921568627450980005, 0.8196078431372548767, 0.9333333333333333481 ) ;
#106 = FACE_OUTER_BOUND ( 'NONE', #79, .T. ) ;
#107 = ORIENTED_EDGE ( 'NONE', *, *, #165, .T. ) ;
#108 = DIRECTION ( 'NONE',  ( 0.000000000000000000, -0.000000000000000000, 1.000000000000000000 ) ) ;
#109 = ORIENTED_EDGE ( 'NONE', *, *, #192, .T. ) ;
#110 = AXIS2_PLACEMENT_3D ( 'NONE', #154, #172, #2 ) ;
#111 = PRODUCT_DEFINITION ( 'UNKNOWN', '', #44, #14 ) ;
#112 = VERTEX_POINT ( 'NONE', #180 ) ;
#113 = VERTEX_POINT ( 'NONE', #114 ) ;
#114 = CARTESIAN_POINT ( 'NONE',  ( 0.000000000000000000, 7.000000000000000000, -3.225000000000000533 ) ) ;
#115 = EDGE_CURVE ( 'NONE', #112, #126, #72, .T. ) ;
#116 = CARTESIAN_POINT ( 'NONE',  ( 0.000000000000000000, 0.000000000000000000, 0.000000000000000000 ) ) ;
#117 = AXIS2_PLACEMENT_3D ( 'NONE', #127, #187, #57 ) ;
#118 = CARTESIAN_POINT ( 'NONE',  ( 0.000000000000000000, 7.000000000000000000, -3.899999999999999911 ) ) ;
#119 = FACE_OUTER_BOUND ( 'NONE', #157, .T. ) ;
#120 = FACE_BOUND ( 'NONE', #155, .T. ) ;
#121 = LINE ( 'NONE', #168, #128 ) ;
#122 = LINE ( 'NONE', #80, #191 ) ;
#123 = ORIENTED_EDGE ( 'NONE', *, *, #192, .F. ) ;
#124 = FACE_OUTER_BOUND ( 'NONE', #23, .T. ) ;
#125 = ORIENTED_EDGE ( 'NONE', *, *, #76, .T. ) ;
#126 = VERTEX_POINT ( 'NONE', #30 ) ;
#127 = CARTESIAN_POINT ( 'NONE',  ( 0.000000000000000000, 7.000000000000000000, 0.000000000000000000 ) ) ;
#128 = VECTOR ( 'NONE', #39, 1000.000000000000000 ) ;
#129 = ORIENTED_EDGE ( 'NONE', *, *, #76, .F. ) ;
#130 = PLANE ( 'NONE',  #29 ) ;
#131 = LINE ( 'NONE', #190, #147 ) ;
#132 = EDGE_CURVE ( 'NONE', #113, #26, #131, .T. ) ;
#133 = DIRECTION ( 'NONE',  ( 0.000000000000000000, 0.000000000000000000, 1.000000000000000000 ) ) ;
#134 = VECTOR ( 'NONE', #160, 1000.000000000000000 ) ;
#135 = DIRECTION ( 'NONE',  ( -0.000000000000000000, -1.000000000000000000, -0.000000000000000000 ) ) ;
#136 = STYLED_ITEM ( 'NONE', ( #34 ), #98 ) ;
#137 = DIRECTION ( 'NONE',  ( 0.000000000000000000, 0.000000000000000000, -1.000000000000000000 ) ) ;
#138 =( NAMED_UNIT ( * ) SI_UNIT ( $, .STERADIAN. ) SOLID_ANGLE_UNIT ( ) );
#139 = ORIENTED_EDGE ( 'NONE', *, *, #52, .F. ) ;
#140 = EDGE_LOOP ( 'NONE', ( #125, #185, #67, #3 ) ) ;
#141 = AXIS2_PLACEMENT_3D ( 'NONE', #90, #103, #104 ) ;
#142 = FILL_AREA_STYLE_COLOUR ( '', #105 ) ;
#143 = FACE_OUTER_BOUND ( 'NONE', #186, .T. ) ;
#144 = AXIS2_PLACEMENT_3D ( 'NONE', #70, #145, #195 ) ;
#145 = DIRECTION ( 'NONE',  ( -0.000000000000000000, -1.000000000000000000, -0.000000000000000000 ) ) ;
#146 = CYLINDRICAL_SURFACE ( 'NONE', #144, 3.899999999999999911 ) ;
#147 = VECTOR ( 'NONE', #60, 1000.000000000000000 ) ;
#148 = PRODUCT_RELATED_PRODUCT_CATEGORY ( 'part', '', ( #51 ) ) ;
#149 = DIRECTION ( 'NONE',  ( 0.000000000000000000, 1.000000000000000000, 0.000000000000000000 ) ) ;
#150 = CYLINDRICAL_SURFACE ( 'NONE', #181, 3.225000000000000533 ) ;
#151 = AXIS2_PLACEMENT_3D ( 'NONE', #116, #45, #100 ) ;
#152 = EDGE_CURVE ( 'NONE', #126, #26, #96, .T. ) ;
#153 = ORIENTED_EDGE ( 'NONE', *, *, #52, .T. ) ;
#154 = CARTESIAN_POINT ( 'NONE',  ( 0.000000000000000000, 0.000000000000000000, 0.000000000000000000 ) ) ;
#155 = EDGE_LOOP ( 'NONE', ( #129, #65 ) ) ;
#156 = VERTEX_POINT ( 'NONE', #163 ) ;
#157 = EDGE_LOOP ( 'NONE', ( #153, #107 ) ) ;
#158 = DIRECTION ( 'NONE',  ( 0.000000000000000000, 0.000000000000000000, 1.000000000000000000 ) ) ;
#159 = CIRCLE ( 'NONE', #110, 3.899999999999999911 ) ;
#160 = DIRECTION ( 'NONE',  ( -0.000000000000000000, -1.000000000000000000, -0.000000000000000000 ) ) ;
#161 = AXIS2_PLACEMENT_3D ( 'NONE', #61, #176, #133 ) ;
#162 = ADVANCED_BREP_SHAPE_REPRESENTATION ( 'bearing_rod_adaptor', ( #98, #6 ), #21 ) ;
#163 = CARTESIAN_POINT ( 'NONE',  ( 4.776122516674677286E-16, 0.000000000000000000, 3.899999999999999911 ) ) ;
#164 = CARTESIAN_POINT ( 'NONE',  ( 0.000000000000000000, 7.000000000000000000, 0.000000000000000000 ) ) ;
#165 = EDGE_CURVE ( 'NONE', #94, #78, #174, .T. ) ;
#166 = CARTESIAN_POINT ( 'NONE',  ( 3.949485927250214839E-16, 7.000000000000000000, 3.225000000000000533 ) ) ;
#167 = CIRCLE ( 'NONE', #161, 3.899999999999999911 ) ;
#168 = CARTESIAN_POINT ( 'NONE',  ( 0.000000000000000000, 7.000000000000000000, -3.899999999999999911 ) ) ;
#169 = APPLICATION_PROTOCOL_DEFINITION ( 'draft international standard', 'automotive_design', 1998, #36 ) ;
#170 =( LENGTH_UNIT ( ) NAMED_UNIT ( * ) SI_UNIT ( .MILLI., .METRE. ) );
#171 = AXIS2_PLACEMENT_3D ( 'NONE', #164, #149, #32 ) ;
#172 = DIRECTION ( 'NONE',  ( 0.000000000000000000, 1.000000000000000000, 0.000000000000000000 ) ) ;
#173 = ORIENTED_EDGE ( 'NONE', *, *, #177, .T. ) ;
#174 = CIRCLE ( 'NONE', #141, 3.899999999999999911 ) ;
#175 = ADVANCED_FACE ( 'NONE', ( #106 ), #150, .F. ) ;
#176 = DIRECTION ( 'NONE',  ( 0.000000000000000000, 1.000000000000000000, 0.000000000000000000 ) ) ;
#177 = EDGE_CURVE ( 'NONE', #78, #41, #121, .T. ) ;
#178 = CYLINDRICAL_SURFACE ( 'NONE', #184, 3.225000000000000533 ) ;
#179 = DIRECTION ( 'NONE',  ( 0.000000000000000000, 1.000000000000000000, 0.000000000000000000 ) ) ;
#180 = CARTESIAN_POINT ( 'NONE',  ( 3.949485927250214839E-16, 7.000000000000000000, 3.225000000000000533 ) ) ;
#181 = AXIS2_PLACEMENT_3D ( 'NONE', #50, #182, #137 ) ;
#182 = DIRECTION ( 'NONE',  ( -0.000000000000000000, -1.000000000000000000, -0.000000000000000000 ) ) ;
#183 = CARTESIAN_POINT ( 'NONE',  ( 0.000000000000000000, 0.000000000000000000, 0.000000000000000000 ) ) ;
#184 = AXIS2_PLACEMENT_3D ( 'NONE', #84, #135, #102 ) ;
#185 = ORIENTED_EDGE ( 'NONE', *, *, #115, .T. ) ;
#186 = EDGE_LOOP ( 'NONE', ( #93, #109, #42, #91 ) ) ;
#187 = DIRECTION ( 'NONE',  ( -0.000000000000000000, -1.000000000000000000, -0.000000000000000000 ) ) ;
#188 = EDGE_CURVE ( 'NONE', #156, #41, #159, .T. ) ;
#189 =( LENGTH_UNIT ( ) NAMED_UNIT ( * ) SI_UNIT ( .MILLI., .METRE. ) );
#190 = CARTESIAN_POINT ( 'NONE',  ( 0.000000000000000000, 7.000000000000000000, -3.225000000000000533 ) ) ;
#191 = VECTOR ( 'NONE', #49, 1000.000000000000000 ) ;
#192 = EDGE_CURVE ( 'NONE', #94, #156, #122, .T. ) ;
#193 = CLOSED_SHELL ( 'NONE', ( #81, #66, #10, #194, #5, #175 ) ) ;
#194 = ADVANCED_FACE ( 'NONE', ( #124, #20 ), #77, .F. ) ;
#195 = DIRECTION ( 'NONE',  ( 0.000000000000000000, 0.000000000000000000, -1.000000000000000000 ) ) ;
#196 = SURFACE_SIDE_STYLE ('',( #11 ) ) ;
#197 = EDGE_CURVE ( 'NONE', #41, #156, #88, .T. ) ;
#198 =( GEOMETRIC_REPRESENTATION_CONTEXT ( 3 ) GLOBAL_UNCERTAINTY_ASSIGNED_CONTEXT ( ( #71 ) ) GLOBAL_UNIT_ASSIGNED_CONTEXT ( ( #189, #15, #12 ) ) REPRESENTATION_CONTEXT ( 'NONE', 'WORKASPACE' ) );
#199 = CARTESIAN_POINT ( 'NONE',  ( 0.000000000000000000, 0.000000000000000000, 0.000000000000000000 ) ) ;
ENDSEC;
END-ISO-10303-21;
