ISO-10303-21;
HEADER;
FILE_DESCRIPTION (( 'STEP AP214' ),
    '1' );
FILE_NAME ('final_housing.STEP',
    '2026-05-22T08:31:51',
    ( '' ),
    ( '' ),
    'SwSTEP 2.0',
    'SolidWorks 2025',
    '' );
FILE_SCHEMA (( 'AUTOMOTIVE_DESIGN' ));
ENDSEC;

DATA;
#1 = CIRCLE ( 'NONE', #737, 0.06643700787401581043 ) ;
#2 = DIRECTION ( 'NONE',  ( 1.000000000000000000, -0.000000000000000000, -0.000000000000000000 ) ) ;
#3 = ORIENTED_EDGE ( 'NONE', *, *, #477, .F. ) ;
#4 = CARTESIAN_POINT ( 'NONE',  ( 6.424999999999998934, -0.2500000000000000000, -1.550000000000000933 ) ) ;
#5 = EDGE_CURVE ( 'NONE', #113, #950, #636, .T. ) ;
#6 = FACE_OUTER_BOUND ( 'NONE', #830, .T. ) ;
#7 = EDGE_CURVE ( 'NONE', #353, #298, #471, .T. ) ;
#8 = EDGE_LOOP ( 'NONE', ( #492, #3, #374, #1015 ) ) ;
#9 = DIRECTION ( 'NONE',  ( 0.000000000000000000, 0.000000000000000000, -1.000000000000000000 ) ) ;
#10 = CARTESIAN_POINT ( 'NONE',  ( -4.173228346456692606, 0.000000000000000000, 0.1732283464566924114 ) ) ;
#11 = VERTEX_POINT ( 'NONE', #80 ) ;
#12 = FILL_AREA_STYLE ('',( #606 ) ) ;
#13 = CARTESIAN_POINT ( 'NONE',  ( -5.825000000000000178, 0.000000000000000000, 1.399999999999999911 ) ) ;
#14 = VERTEX_POINT ( 'NONE', #729 ) ;
#15 = CARTESIAN_POINT ( 'NONE',  ( -4.173228346456692606, 0.000000000000000000, -0.2952755905511806889 ) ) ;
#16 = VERTEX_POINT ( 'NONE', #1041 ) ;
#17 =( NAMED_UNIT ( * ) SI_UNIT ( $, .STERADIAN. ) SOLID_ANGLE_UNIT ( ) );
#18 = EDGE_CURVE ( 'NONE', #341, #1036, #124, .T. ) ;
#19 = DIRECTION ( 'NONE',  ( 0.000000000000000000, -1.000000000000000000, 0.000000000000000000 ) ) ;
#20 = EDGE_CURVE ( 'NONE', #272, #1054, #313, .T. ) ;
#21 = FACE_OUTER_BOUND ( 'NONE', #130, .T. ) ;
#22 = VECTOR ( 'NONE', #91, 39.37007874015748143 ) ;
#23 = ORIENTED_EDGE ( 'NONE', *, *, #282, .F. ) ;
#24 = DIRECTION ( 'NONE',  ( 0.000000000000000000, 0.000000000000000000, -1.000000000000000000 ) ) ;
#25 = LINE ( 'NONE', #1007, #810 ) ;
#26 = EDGE_LOOP ( 'NONE', ( #335, #454, #657, #610, #608, #594, #1018, #101 ) ) ;
#27 = DIRECTION ( 'NONE',  ( 1.000000000000000000, 0.000000000000000000, -1.275571047625337126E-16 ) ) ;
#28 = ORIENTED_EDGE ( 'NONE', *, *, #397, .F. ) ;
#29 = PRESENTATION_STYLE_ASSIGNMENT (( #523 ) ) ;
#30 = CARTESIAN_POINT ( 'NONE',  ( -5.924999999999999822, 1.741099999999999870, 1.000000000000000000 ) ) ;
#31 = ORIENTED_EDGE ( 'NONE', *, *, #297, .F. ) ;
#32 = ORIENTED_EDGE ( 'NONE', *, *, #933, .T. ) ;
#33 =( CONVERSION_BASED_UNIT ( 'INCH', #755 ) LENGTH_UNIT ( ) NAMED_UNIT ( #1046 ) );
#34 = AXIS2_PLACEMENT_3D ( 'NONE', #672, #832, #909 ) ;
#35 = DIRECTION ( 'NONE',  ( 0.000000000000000000, 0.000000000000000000, -1.000000000000000000 ) ) ;
#36 = VERTEX_POINT ( 'NONE', #260 ) ;
#37 = VECTOR ( 'NONE', #426, 39.37007874015748143 ) ;
#38 = CARTESIAN_POINT ( 'NONE',  ( 6.424999999999998934, 1.741099999999999870, 1.000000000000000000 ) ) ;
#39 = EDGE_LOOP ( 'NONE', ( #920, #853, #1022, #615 ) ) ;
#40 = CARTESIAN_POINT ( 'NONE',  ( -5.825000000000000178, 2.000000000000000000, -1.399999999999997025 ) ) ;
#41 = AXIS2_PLACEMENT_3D ( 'NONE', #617, #229, #147 ) ;
#42 = EDGE_CURVE ( 'NONE', #256, #1009, #881, .T. ) ;
#43 = CYLINDRICAL_SURFACE ( 'NONE', #334, 0.1220472440944882775 ) ;
#44 = ORIENTED_EDGE ( 'NONE', *, *, #299, .F. ) ;
#45 = EDGE_CURVE ( 'NONE', #764, #145, #176, .T. ) ;
#46 = EDGE_CURVE ( 'NONE', #1052, #903, #682, .T. ) ;
#47 = ORIENTED_EDGE ( 'NONE', *, *, #613, .F. ) ;
#48 = CARTESIAN_POINT ( 'NONE',  ( 6.424999999999998934, 1.741099999999999870, -1.000000000000000000 ) ) ;
#49 = FACE_BOUND ( 'NONE', #743, .T. ) ;
#50 = EDGE_LOOP ( 'NONE', ( #836, #518, #423, #696 ) ) ;
#51 = CARTESIAN_POINT ( 'NONE',  ( 6.424999999999998934, -0.2500000000000000000, 1.750000000000001110 ) ) ;
#52 = LINE ( 'NONE', #285, #840 ) ;
#53 = ORIENTED_EDGE ( 'NONE', *, *, #700, .T. ) ;
#54 = FACE_OUTER_BOUND ( 'NONE', #692, .T. ) ;
#55 = CYLINDRICAL_SURFACE ( 'NONE', #652, 0.1000000000000000194 ) ;
#56 = DIRECTION ( 'NONE',  ( -0.000000000000000000, 1.000000000000000000, -0.000000000000000000 ) ) ;
#57 = AXIS2_PLACEMENT_3D ( 'NONE', #13, #510, #514 ) ;
#58 = EDGE_CURVE ( 'NONE', #689, #531, #656, .T. ) ;
#59 = ORIENTED_EDGE ( 'NONE', *, *, #58, .T. ) ;
#60 = DIRECTION ( 'NONE',  ( 0.000000000000000000, 0.000000000000000000, 1.000000000000000000 ) ) ;
#61 = DIRECTION ( 'NONE',  ( 0.000000000000000000, 1.000000000000000000, 0.000000000000000000 ) ) ;
#62 = CARTESIAN_POINT ( 'NONE',  ( 6.112912235157842211, 1.741099999999999870, -1.066437007874015741 ) ) ;
#63 = VERTEX_POINT ( 'NONE', #753 ) ;
#64 = CARTESIAN_POINT ( 'NONE',  ( 6.112912235157842211, 1.741099999999999870, -1.000000000000000000 ) ) ;
#65 = CARTESIAN_POINT ( 'NONE',  ( -5.924999999999999822, 2.000000000000000000, -1.399999999999997025 ) ) ;
#66 = EDGE_CURVE ( 'NONE', #988, #890, #253, .T. ) ;
#67 = CARTESIAN_POINT ( 'NONE',  ( -5.825000000000000178, 2.000000000000000000, -1.399999999999997025 ) ) ;
#68 = DIRECTION ( 'NONE',  ( -1.000000000000000000, -0.000000000000000000, -0.000000000000000000 ) ) ;
#69 = DIMENSIONAL_EXPONENTS ( 1.000000000000000000, 0.000000000000000000, 0.000000000000000000, 0.000000000000000000, 0.000000000000000000, 0.000000000000000000, 0.000000000000000000 ) ;
#70 = AXIS2_PLACEMENT_3D ( 'NONE', #461, #780, #378 ) ;
#71 = AXIS2_PLACEMENT_3D ( 'NONE', #191, #264, #524 ) ;
#72 = VERTEX_POINT ( 'NONE', #167 ) ;
#73 = EDGE_CURVE ( 'NONE', #16, #63, #181, .T. ) ;
#74 = DIRECTION ( 'NONE',  ( 0.000000000000000000, 0.000000000000000000, -1.000000000000000000 ) ) ;
#75 = COLOUR_RGB ( '',0.7921568627450980005, 0.8196078431372548767, 0.9333333333333333481 ) ;
#76 = PRODUCT_DEFINITION ( 'UNKNOWN', '', #569, #894 ) ;
#77 = ORIENTED_EDGE ( 'NONE', *, *, #177, .T. ) ;
#78 = CARTESIAN_POINT ( 'NONE',  ( 5.924999999999999822, 1.741099999999999870, 1.000000000000000000 ) ) ;
#79 = LINE ( 'NONE', #727, #190 ) ;
#80 = CARTESIAN_POINT ( 'NONE',  ( -5.924999999999999822, 0.000000000000000000, 1.399999999999999911 ) ) ;
#81 = CARTESIAN_POINT ( 'NONE',  ( -6.424999999999998934, 1.741099999999999870, 1.000000000000000000 ) ) ;
#82 = VERTEX_POINT ( 'NONE', #434 ) ;
#83 = VECTOR ( 'NONE', #9, 39.37007874015748143 ) ;
#84 = VECTOR ( 'NONE', #679, 39.37007874015748143 ) ;
#85 = EDGE_CURVE ( 'NONE', #950, #536, #441, .T. ) ;
#86 = DIRECTION ( 'NONE',  ( 0.000000000000000000, -1.000000000000000000, 0.000000000000000000 ) ) ;
#87 = CARTESIAN_POINT ( 'NONE',  ( 0.000000000000000000, -0.2500000000000000000, 0.000000000000000000 ) ) ;
#88 = AXIS2_PLACEMENT_3D ( 'NONE', #996, #1012, #763 ) ;
#89 = EDGE_CURVE ( 'NONE', #133, #890, #837, .T. ) ;
#90 = ORIENTED_EDGE ( 'NONE', *, *, #896, .T. ) ;
#91 = DIRECTION ( 'NONE',  ( 0.000000000000000000, 0.000000000000000000, -1.000000000000000000 ) ) ;
#92 = ORIENTED_EDGE ( 'NONE', *, *, #42, .F. ) ;
#93 = CARTESIAN_POINT ( 'NONE',  ( -4.173228346456692606, 2.000000000000000000, 0.1732283464566924114 ) ) ;
#94 = ORIENTED_EDGE ( 'NONE', *, *, #299, .T. ) ;
#95 = CARTESIAN_POINT ( 'NONE',  ( 5.924999999999999822, 2.000000000000000000, 1.499999999999998446 ) ) ;
#96 = CARTESIAN_POINT ( 'NONE',  ( 6.424999999999998934, 2.000000000000000000, -1.550000000000000933 ) ) ;
#97 = ORIENTED_EDGE ( 'NONE', *, *, #202, .F. ) ;
#98 = DIRECTION ( 'NONE',  ( 0.000000000000000000, 0.000000000000000000, -1.000000000000000000 ) ) ;
#99 = FACE_OUTER_BOUND ( 'NONE', #513, .T. ) ;
#100 = ADVANCED_FACE ( 'NONE', ( #597 ), #340, .F. ) ;
#101 = ORIENTED_EDGE ( 'NONE', *, *, #404, .T. ) ;
#102 = CARTESIAN_POINT ( 'NONE',  ( -6.424999999999998934, 2.000000000000000000, 1.750000000000002665 ) ) ;
#103 = EDGE_CURVE ( 'NONE', #981, #1028, #258, .T. ) ;
#104 = ORIENTED_EDGE ( 'NONE', *, *, #1048, .F. ) ;
#105 = CARTESIAN_POINT ( 'NONE',  ( 5.924999999999999822, 2.000000000000000000, 1.499999999999998446 ) ) ;
#106 = VECTOR ( 'NONE', #548, 39.37007874015748143 ) ;
#107 = EDGE_LOOP ( 'NONE', ( #92, #632, #128, #165 ) ) ;
#108 = CARTESIAN_POINT ( 'NONE',  ( 6.424999999999998934, 1.741099999999999870, -1.066437007874015741 ) ) ;
#109 = ORIENTED_EDGE ( 'NONE', *, *, #450, .F. ) ;
#110 = CARTESIAN_POINT ( 'NONE',  ( -4.173228346456692606, 0.000000000000000000, 0.2952755905511806889 ) ) ;
#111 = DIRECTION ( 'NONE',  ( 0.000000000000000000, 0.000000000000000000, -1.000000000000000000 ) ) ;
#112 = AXIS2_PLACEMENT_3D ( 'NONE', #994, #662, #24 ) ;
#113 = VERTEX_POINT ( 'NONE', #918 ) ;
#114 = DIRECTION ( 'NONE',  ( -1.000000000000000000, 0.000000000000000000, 0.000000000000000000 ) ) ;
#115 = EDGE_LOOP ( 'NONE', ( #97, #766, #302, #704 ) ) ;
#116 = SHAPE_DEFINITION_REPRESENTATION ( #207, #735 ) ;
#117 = ORIENTED_EDGE ( 'NONE', *, *, #251, .F. ) ;
#118 = FACE_BOUND ( 'NONE', #673, .T. ) ;
#119 = FACE_OUTER_BOUND ( 'NONE', #754, .T. ) ;
#120 = ORIENTED_EDGE ( 'NONE', *, *, #177, .F. ) ;
#121 = CARTESIAN_POINT ( 'NONE',  ( 0.000000000000000000, 0.000000000000000000, 0.000000000000000000 ) ) ;
#122 = VERTEX_POINT ( 'NONE', #512 ) ;
#123 = CYLINDRICAL_SURFACE ( 'NONE', #34, 0.06643700787401581043 ) ;
#124 = CIRCLE ( 'NONE', #554, 0.1000000000000000194 ) ;
#125 = ADVANCED_FACE ( 'NONE', ( #21 ), #506, .T. ) ;
#126 = VECTOR ( 'NONE', #965, 39.37007874015748143 ) ;
#127 = DIRECTION ( 'NONE',  ( 0.000000000000000000, 0.000000000000000000, -1.000000000000000000 ) ) ;
#128 = ORIENTED_EDGE ( 'NONE', *, *, #899, .T. ) ;
#129 = VECTOR ( 'NONE', #640, 39.37007874015748143 ) ;
#130 = EDGE_LOOP ( 'NONE', ( #458, #567, #399, #759 ) ) ;
#131 = DIRECTION ( 'NONE',  ( 0.000000000000000000, -1.000000000000000000, 0.000000000000000000 ) ) ;
#132 = DIRECTION ( 'NONE',  ( 0.000000000000000000, -0.000000000000000000, -1.000000000000000000 ) ) ;
#133 = VERTEX_POINT ( 'NONE', #831 ) ;
#134 = DIRECTION ( 'NONE',  ( -0.000000000000000000, 1.000000000000000000, -0.000000000000000000 ) ) ;
#135 = ORIENTED_EDGE ( 'NONE', *, *, #478, .F. ) ;
#136 = CARTESIAN_POINT ( 'NONE',  ( 5.737087764842157434, 1.741099999999999870, -1.000000000000000000 ) ) ;
#137 = CYLINDRICAL_SURFACE ( 'NONE', #195, 0.06643700787401581043 ) ;
#138 = EDGE_CURVE ( 'NONE', #1009, #685, #929, .T. ) ;
#139 = CARTESIAN_POINT ( 'NONE',  ( -5.924999999999999822, 0.000000000000000000, 1.499999999999999778 ) ) ;
#140 = VERTEX_POINT ( 'NONE', #422 ) ;
#141 = CARTESIAN_POINT ( 'NONE',  ( -5.825000000000000178, 2.000000000000000000, 1.499999999999999778 ) ) ;
#142 = CARTESIAN_POINT ( 'NONE',  ( -4.173228346456692606, -0.2500000000000000000, -0.1732283464566923836 ) ) ;
#143 = DIRECTION ( 'NONE',  ( 0.000000000000000000, 0.000000000000000000, -1.000000000000000000 ) ) ;
#144 = AXIS2_PLACEMENT_3D ( 'NONE', #927, #351, #1017 ) ;
#145 = VERTEX_POINT ( 'NONE', #187 ) ;
#146 = CYLINDRICAL_SURFACE ( 'NONE', #329, 0.1000000000000000194 ) ;
#147 = DIRECTION ( 'NONE',  ( 0.000000000000000000, 0.000000000000000000, -1.000000000000000000 ) ) ;
#148 = AXIS2_PLACEMENT_3D ( 'NONE', #301, #1042, #634 ) ;
#149 = DIRECTION ( 'NONE',  ( 0.000000000000000000, 0.000000000000000000, -1.000000000000000000 ) ) ;
#150 = ORIENTED_EDGE ( 'NONE', *, *, #46, .F. ) ;
#151 = LINE ( 'NONE', #485, #544 ) ;
#152 = CARTESIAN_POINT ( 'NONE',  ( -6.424999999999998934, 1.741099999999999870, -1.066437007874015741 ) ) ;
#153 = ORIENTED_EDGE ( 'NONE', *, *, #806, .T. ) ;
#154 = EDGE_CURVE ( 'NONE', #298, #353, #362, .T. ) ;
#155 = DIRECTION ( 'NONE',  ( -1.152678478339351656E-16, 0.000000000000000000, -1.000000000000000000 ) ) ;
#156 = FACE_OUTER_BOUND ( 'NONE', #827, .T. ) ;
#157 = AXIS2_PLACEMENT_3D ( 'NONE', #95, #114, #424 ) ;
#158 = ORIENTED_EDGE ( 'NONE', *, *, #18, .F. ) ;
#159 = UNCERTAINTY_MEASURE_WITH_UNIT (LENGTH_MEASURE( 1.000000000000000082E-05 ), #33, 'distance_accuracy_value', 'NONE');
#160 = PLANE ( 'NONE',  #480 ) ;
#161 = CIRCLE ( 'NONE', #112, 0.06643700787401581043 ) ;
#162 = DIRECTION ( 'NONE',  ( 0.000000000000000000, 0.000000000000000000, 1.000000000000000000 ) ) ;
#163 = EDGE_CURVE ( 'NONE', #113, #627, #667, .T. ) ;
#164 = CARTESIAN_POINT ( 'NONE',  ( 6.225000000000000533, 2.000000000000000000, 1.750000000000001110 ) ) ;
#165 = ORIENTED_EDGE ( 'NONE', *, *, #138, .F. ) ;
#166 = DIRECTION ( 'NONE',  ( 0.000000000000000000, 0.000000000000000000, 1.000000000000000000 ) ) ;
#167 = CARTESIAN_POINT ( 'NONE',  ( 6.424999999999998934, 1.741099999999999870, 1.066437007874015741 ) ) ;
#168 = CARTESIAN_POINT ( 'NONE',  ( 6.424999999999998934, 1.741099999999999870, 0.9335629921259841479 ) ) ;
#169 = AXIS2_PLACEMENT_3D ( 'NONE', #687, #680, #448 ) ;
#170 = ORIENTED_EDGE ( 'NONE', *, *, #804, .F. ) ;
#171 = FACE_OUTER_BOUND ( 'NONE', #596, .T. ) ;
#172 = LINE ( 'NONE', #805, #330 ) ;
#173 = ORIENTED_EDGE ( 'NONE', *, *, #817, .F. ) ;
#174 = EDGE_CURVE ( 'NONE', #1054, #180, #951, .T. ) ;
#175 = VECTOR ( 'NONE', #566, 39.37007874015748143 ) ;
#176 = LINE ( 'NONE', #105, #83 ) ;
#177 = EDGE_CURVE ( 'NONE', #809, #1024, #521, .T. ) ;
#178 = ORIENTED_EDGE ( 'NONE', *, *, #487, .T. ) ;
#179 = DIRECTION ( 'NONE',  ( 0.000000000000000000, 0.000000000000000000, -1.000000000000000000 ) ) ;
#180 = VERTEX_POINT ( 'NONE', #592 ) ;
#181 = LINE ( 'NONE', #164, #1011 ) ;
#182 = ORIENTED_EDGE ( 'NONE', *, *, #702, .F. ) ;
#183 = EDGE_CURVE ( 'NONE', #741, #791, #519, .T. ) ;
#184 = CARTESIAN_POINT ( 'NONE',  ( -6.424999999999998934, 2.000000000000000000, -1.549999999999998268 ) ) ;
#185 = ORIENTED_EDGE ( 'NONE', *, *, #404, .F. ) ;
#186 = CIRCLE ( 'NONE', #328, 0.1000000000000000194 ) ;
#187 = CARTESIAN_POINT ( 'NONE',  ( 5.924999999999999822, 2.000000000000000000, -1.399999999999997469 ) ) ;
#188 = ORIENTED_EDGE ( 'NONE', *, *, #1051, .T. ) ;
#189 = FACE_BOUND ( 'NONE', #227, .T. ) ;
#190 = VECTOR ( 'NONE', #419, 39.37007874015748143 ) ;
#191 = CARTESIAN_POINT ( 'NONE',  ( -6.224999999999999645, 2.000000000000000000, -1.549999999999999378 ) ) ;
#192 = ORIENTED_EDGE ( 'NONE', *, *, #871, .T. ) ;
#193 = FACE_OUTER_BOUND ( 'NONE', #1013, .T. ) ;
#194 = PLANE ( 'NONE',  #364 ) ;
#195 = AXIS2_PLACEMENT_3D ( 'NONE', #966, #622, #1026 ) ;
#196 = ORIENTED_EDGE ( 'NONE', *, *, #238, .F. ) ;
#197 = CARTESIAN_POINT ( 'NONE',  ( -6.424999999999998934, 1.741099999999999870, 1.066437007874015741 ) ) ;
#198 = DIRECTION ( 'NONE',  ( -1.000000000000000000, -0.000000000000000000, -0.000000000000000000 ) ) ;
#199 = EDGE_LOOP ( 'NONE', ( #384, #723 ) ) ;
#200 = EDGE_CURVE ( 'NONE', #82, #893, #186, .T. ) ;
#201 = DIRECTION ( 'NONE',  ( 1.000000000000000000, 0.000000000000000000, 0.000000000000000000 ) ) ;
#202 = EDGE_CURVE ( 'NONE', #893, #981, #1034, .T. ) ;
#203 = VERTEX_POINT ( 'NONE', #152 ) ;
#204 = DIRECTION ( 'NONE',  ( -0.000000000000000000, 1.000000000000000000, -0.000000000000000000 ) ) ;
#205 = DIRECTION ( 'NONE',  ( 0.000000000000000000, 0.000000000000000000, -1.000000000000000000 ) ) ;
#206 = ORIENTED_EDGE ( 'NONE', *, *, #284, .T. ) ;
#207 = PRODUCT_DEFINITION_SHAPE ( 'NONE', 'NONE',  #76 ) ;
#208 = VERTEX_POINT ( 'NONE', #381 ) ;
#209 = DIRECTION ( 'NONE',  ( 1.000000000000000000, 0.000000000000000000, 0.000000000000000000 ) ) ;
#210 = VECTOR ( 'NONE', #2, 39.37007874015748143 ) ;
#211 = AXIS2_PLACEMENT_3D ( 'NONE', #921, #1010, #529 ) ;
#212 = DIRECTION ( 'NONE',  ( -1.000000000000000000, -0.000000000000000000, 1.152678478339351656E-16 ) ) ;
#213 = ORIENTED_EDGE ( 'NONE', *, *, #917, .T. ) ;
#214 = AXIS2_PLACEMENT_3D ( 'NONE', #432, #517, #670 ) ;
#215 = ADVANCED_FACE ( 'NONE', ( #604 ), #237, .T. ) ;
#216 = EDGE_LOOP ( 'NONE', ( #618, #937, #196, #964 ) ) ;
#217 = CIRCLE ( 'NONE', #286, 0.1000000000000000194 ) ;
#218 = DIRECTION ( 'NONE',  ( -0.000000000000000000, 1.000000000000000000, -0.000000000000000000 ) ) ;
#219 = EDGE_CURVE ( 'NONE', #845, #11, #936, .T. ) ;
#220 = PLANE ( 'NONE',  #233 ) ;
#221 = DIRECTION ( 'NONE',  ( 0.000000000000000000, 0.000000000000000000, 1.000000000000000000 ) ) ;
#222 = CARTESIAN_POINT ( 'NONE',  ( 5.825000000000000178, 0.000000000000000000, 1.499999999999998446 ) ) ;
#223 = VERTEX_POINT ( 'NONE', #714 ) ;
#224 = PLANE ( 'NONE',  #882 ) ;
#225 = DIRECTION ( 'NONE',  ( -1.000000000000000000, -0.000000000000000000, -0.000000000000000000 ) ) ;
#226 = CARTESIAN_POINT ( 'NONE',  ( -5.924999999999999822, 0.000000000000000000, -1.499999999999997113 ) ) ;
#227 = EDGE_LOOP ( 'NONE', ( #414, #53 ) ) ;
#228 = CARTESIAN_POINT ( 'NONE',  ( -5.924999999999999822, 2.000000000000000000, 1.499999999999999778 ) ) ;
#229 = DIRECTION ( 'NONE',  ( 0.000000000000000000, -1.000000000000000000, 0.000000000000000000 ) ) ;
#230 = VECTOR ( 'NONE', #742, 39.37007874015748143 ) ;
#231 = AXIS2_PLACEMENT_3D ( 'NONE', #48, #209, #775 ) ;
#232 = DIRECTION ( 'NONE',  ( -1.000000000000000000, -0.000000000000000000, -0.000000000000000000 ) ) ;
#233 = AXIS2_PLACEMENT_3D ( 'NONE', #311, #698, #132 ) ;
#234 = CARTESIAN_POINT ( 'NONE',  ( 5.825000000000000178, 0.000000000000000000, 1.499999999999998446 ) ) ;
#235 = PLANE ( 'NONE',  #609 ) ;
#236 = AXIS2_PLACEMENT_3D ( 'NONE', #653, #242, #643 ) ;
#237 = CYLINDRICAL_SURFACE ( 'NONE', #412, 0.2000000000000000389 ) ;
#238 = EDGE_CURVE ( 'NONE', #1028, #11, #398, .T. ) ;
#239 = EDGE_CURVE ( 'NONE', #522, #203, #794, .T. ) ;
#240 = ORIENTED_EDGE ( 'NONE', *, *, #896, .F. ) ;
#241 = UNCERTAINTY_MEASURE_WITH_UNIT (LENGTH_MEASURE( 1.000000000000000082E-05 ), #876, 'distance_accuracy_value', 'NONE');
#242 = DIRECTION ( 'NONE',  ( -1.000000000000000000, 0.000000000000000000, -0.000000000000000000 ) ) ;
#243 = APPLICATION_CONTEXT ( 'automotive_design' ) ;
#244 = ORIENTED_EDGE ( 'NONE', *, *, #18, .T. ) ;
#245 = DIRECTION ( 'NONE',  ( -1.000000000000000000, -0.000000000000000000, 1.275571047625337126E-16 ) ) ;
#246 = AXIS2_PLACEMENT_3D ( 'NONE', #944, #204, #534 ) ;
#247 = VECTOR ( 'NONE', #288, 39.37007874015748143 ) ;
#248 = AXIS2_PLACEMENT_3D ( 'NONE', #758, #289, #749 ) ;
#249 = ORIENTED_EDGE ( 'NONE', *, *, #284, .F. ) ;
#250 = CYLINDRICAL_SURFACE ( 'NONE', #252, 0.1220472440944882775 ) ;
#251 = EDGE_CURVE ( 'NONE', #16, #741, #892, .T. ) ;
#252 = AXIS2_PLACEMENT_3D ( 'NONE', #573, #418, #497 ) ;
#253 = LINE ( 'NONE', #821, #230 ) ;
#254 = CARTESIAN_POINT ( 'NONE',  ( -5.825000000000000178, 2.000000000000000000, 1.399999999999999911 ) ) ;
#255 = CARTESIAN_POINT ( 'NONE',  ( -5.924999999999999822, 1.741099999999999870, 1.000000000000000000 ) ) ;
#256 = VERTEX_POINT ( 'NONE', #875 ) ;
#257 = ADVANCED_FACE ( 'NONE', ( #676 ), #483, .T. ) ;
#258 = CIRCLE ( 'NONE', #822, 0.1000000000000000194 ) ;
#259 = VECTOR ( 'NONE', #960, 39.37007874015748143 ) ;
#260 = CARTESIAN_POINT ( 'NONE',  ( 5.825000000000000178, 2.000000000000000000, -1.499999999999998446 ) ) ;
#261 = VECTOR ( 'NONE', #245, 39.37007874015748143 ) ;
#262 = VERTEX_POINT ( 'NONE', #962 ) ;
#263 = DIRECTION ( 'NONE',  ( -0.000000000000000000, -1.000000000000000000, -0.000000000000000000 ) ) ;
#264 = DIRECTION ( 'NONE',  ( -0.000000000000000000, 1.000000000000000000, -0.000000000000000000 ) ) ;
#265 = EDGE_CURVE ( 'NONE', #256, #717, #711, .T. ) ;
#266 = DIRECTION ( 'NONE',  ( 0.000000000000000000, 0.000000000000000000, -1.000000000000000000 ) ) ;
#267 = EDGE_LOOP ( 'NONE', ( #32, #319, #734, #213 ) ) ;
#268 = LINE ( 'NONE', #436, #84 ) ;
#269 = LINE ( 'NONE', #274, #348 ) ;
#270 = VECTOR ( 'NONE', #232, 39.37007874015748143 ) ;
#271 = DIRECTION ( 'NONE',  ( 0.000000000000000000, -1.000000000000000000, 0.000000000000000000 ) ) ;
#272 = VERTEX_POINT ( 'NONE', #1040 ) ;
#273 = CARTESIAN_POINT ( 'NONE',  ( 5.924999999999999822, 1.741099999999999870, 0.9335629921259841479 ) ) ;
#274 = CARTESIAN_POINT ( 'NONE',  ( 6.112912235157842211, 1.741099999999999870, -0.9335629921259841479 ) ) ;
#275 = ORIENTED_EDGE ( 'NONE', *, *, #579, .T. ) ;
#276 = VECTOR ( 'NONE', #476, 39.37007874015748143 ) ;
#277 = VECTOR ( 'NONE', #263, 39.37007874015748143 ) ;
#278 = ORIENTED_EDGE ( 'NONE', *, *, #498, .F. ) ;
#279 = SURFACE_SIDE_STYLE ('',( #342 ) ) ;
#280 = AXIS2_PLACEMENT_3D ( 'NONE', #530, #19, #841 ) ;
#281 = FACE_BOUND ( 'NONE', #545, .T. ) ;
#282 = EDGE_CURVE ( 'NONE', #63, #872, #415, .T. ) ;
#283 = ORIENTED_EDGE ( 'NONE', *, *, #953, .T. ) ;
#284 = EDGE_CURVE ( 'NONE', #783, #63, #312, .T. ) ;
#285 = CARTESIAN_POINT ( 'NONE',  ( -6.224999999999999645, 2.000000000000000000, 1.750000000000002665 ) ) ;
#286 = AXIS2_PLACEMENT_3D ( 'NONE', #719, #811, #179 ) ;
#287 = ORIENTED_EDGE ( 'NONE', *, *, #917, .F. ) ;
#288 = DIRECTION ( 'NONE',  ( -0.000000000000000000, -1.000000000000000000, -0.000000000000000000 ) ) ;
#289 = DIRECTION ( 'NONE',  ( -0.000000000000000000, 1.000000000000000000, -0.000000000000000000 ) ) ;
#290 = ORIENTED_EDGE ( 'NONE', *, *, #578, .F. ) ;
#291 = DIRECTION ( 'NONE',  ( 0.000000000000000000, -0.000000000000000000, -1.000000000000000000 ) ) ;
#292 = ORIENTED_EDGE ( 'NONE', *, *, #889, .T. ) ;
#293 = CARTESIAN_POINT ( 'NONE',  ( -6.424999999999998934, 2.000000000000000000, 1.550000000000002487 ) ) ;
#294 = DIRECTION ( 'NONE',  ( 1.000000000000000000, -0.000000000000000000, -0.000000000000000000 ) ) ;
#295 = EDGE_LOOP ( 'NONE', ( #598, #349, #304, #946 ) ) ;
#296 = ADVANCED_FACE ( 'NONE', ( #193 ), #968, .F. ) ;
#297 = EDGE_CURVE ( 'NONE', #1028, #341, #851, .T. ) ;
#298 = VERTEX_POINT ( 'NONE', #465 ) ;
#299 = EDGE_CURVE ( 'NONE', #14, #866, #520, .T. ) ;
#300 = CARTESIAN_POINT ( 'NONE',  ( 0.000000000000000000, 2.000000000000000000, 0.000000000000000000 ) ) ;
#301 = CARTESIAN_POINT ( 'NONE',  ( 6.224999999999999645, -0.2500000000000000555, 1.550000000000000933 ) ) ;
#302 = ORIENTED_EDGE ( 'NONE', *, *, #591, .T. ) ;
#303 = DIRECTION ( 'NONE',  ( 0.000000000000000000, -1.000000000000000000, 0.000000000000000000 ) ) ;
#304 = ORIENTED_EDGE ( 'NONE', *, *, #722, .F. ) ;
#305 = CIRCLE ( 'NONE', #572, 0.06643700787401581043 ) ;
#306 = CARTESIAN_POINT ( 'NONE',  ( 6.424999999999998934, 2.000000000000000000, 1.550000000000000933 ) ) ;
#307 = CARTESIAN_POINT ( 'NONE',  ( 5.825000000000000178, 2.000000000000000000, 1.399999999999998357 ) ) ;
#308 = DIRECTION ( 'NONE',  ( -1.000000000000000000, 0.000000000000000000, 1.275571047625337126E-16 ) ) ;
#309 = ORIENTED_EDGE ( 'NONE', *, *, #45, .T. ) ;
#310 = CARTESIAN_POINT ( 'NONE',  ( 6.112912235157842211, 1.741099999999999870, 1.066437007874015741 ) ) ;
#311 = CARTESIAN_POINT ( 'NONE',  ( 0.000000000000000000, 0.000000000000000000, 0.000000000000000000 ) ) ;
#312 = LINE ( 'NONE', #635, #718 ) ;
#313 = LINE ( 'NONE', #234, #910 ) ;
#314 = DIRECTION ( 'NONE',  ( -1.000000000000000000, 0.000000000000000000, 0.000000000000000000 ) ) ;
#315 = AXIS2_PLACEMENT_3D ( 'NONE', #496, #971, #818 ) ;
#316 = DIRECTION ( 'NONE',  ( 0.000000000000000000, 0.000000000000000000, -1.000000000000000000 ) ) ;
#317 = CIRCLE ( 'NONE', #914, 0.06643700787401581043 ) ;
#318 = EDGE_CURVE ( 'NONE', #872, #531, #740, .T. ) ;
#319 = ORIENTED_EDGE ( 'NONE', *, *, #20, .T. ) ;
#320 = CARTESIAN_POINT ( 'NONE',  ( 6.424999999999998934, 2.000000000000000000, 1.750000000000001110 ) ) ;
#321 = CARTESIAN_POINT ( 'NONE',  ( 5.924999999999999822, 0.000000000000000000, 1.499999999999998446 ) ) ;
#322 = ORIENTED_EDGE ( 'NONE', *, *, #765, .T. ) ;
#323 = VECTOR ( 'NONE', #706, 39.37007874015748143 ) ;
#324 = FACE_OUTER_BOUND ( 'NONE', #443, .T. ) ;
#325 = EDGE_CURVE ( 'NONE', #133, #122, #333, .T. ) ;
#326 = VERTEX_POINT ( 'NONE', #570 ) ;
#327 = LINE ( 'NONE', #408, #707 ) ;
#328 = AXIS2_PLACEMENT_3D ( 'NONE', #624, #56, #149 ) ;
#329 = AXIS2_PLACEMENT_3D ( 'NONE', #40, #798, #366 ) ;
#330 = VECTOR ( 'NONE', #721, 39.37007874015748143 ) ;
#331 = DIRECTION ( 'NONE',  ( -0.000000000000000000, 1.000000000000000000, -0.000000000000000000 ) ) ;
#332 = DIRECTION ( 'NONE',  ( -1.000000000000000000, 0.000000000000000000, 1.152678478339351656E-16 ) ) ;
#333 = LINE ( 'NONE', #812, #261 ) ;
#334 = AXIS2_PLACEMENT_3D ( 'NONE', #373, #694, #726 ) ;
#335 = ORIENTED_EDGE ( 'NONE', *, *, #1038, .T. ) ;
#336 = DIRECTION ( 'NONE',  ( 0.000000000000000000, -1.000000000000000000, 0.000000000000000000 ) ) ;
#337 = ORIENTED_EDGE ( 'NONE', *, *, #702, .T. ) ;
#338 = CARTESIAN_POINT ( 'NONE',  ( 5.924999999999999822, 2.000000000000000000, 1.399999999999998357 ) ) ;
#339 = CARTESIAN_POINT ( 'NONE',  ( 6.112912235157842211, 1.741099999999999870, -1.000000000000000000 ) ) ;
#340 = CYLINDRICAL_SURFACE ( 'NONE', #451, 0.1000000000000000194 ) ;
#341 = VERTEX_POINT ( 'NONE', #655 ) ;
#342 = SURFACE_STYLE_FILL_AREA ( #12 ) ;
#343 = CARTESIAN_POINT ( 'NONE',  ( 6.424999999999998934, 1.741099999999999870, 1.000000000000000000 ) ) ;
#344 = EDGE_LOOP ( 'NONE', ( #708, #725, #77, #907 ) ) ;
#345 = ADVANCED_FACE ( 'NONE', ( #156 ), #985, .F. ) ;
#346 = AXIS2_PLACEMENT_3D ( 'NONE', #110, #271, #416 ) ;
#347 = DIRECTION ( 'NONE',  ( 0.000000000000000000, -1.000000000000000000, 0.000000000000000000 ) ) ;
#348 = VECTOR ( 'NONE', #198, 39.37007874015748143 ) ;
#349 = ORIENTED_EDGE ( 'NONE', *, *, #427, .T. ) ;
#350 = CARTESIAN_POINT ( 'NONE',  ( -5.924999999999999822, 2.000000000000000000, 1.399999999999999911 ) ) ;
#351 = DIRECTION ( 'NONE',  ( 1.000000000000000000, -0.000000000000000000, 0.000000000000000000 ) ) ;
#352 = DIRECTION ( 'NONE',  ( 0.000000000000000000, 0.000000000000000000, -1.000000000000000000 ) ) ;
#353 = VERTEX_POINT ( 'NONE', #409 ) ;
#354 = FACE_OUTER_BOUND ( 'NONE', #842, .T. ) ;
#355 = CARTESIAN_POINT ( 'NONE',  ( -6.424999999999998934, -0.2500000000000000000, 1.750000000000002665 ) ) ;
#356 = CARTESIAN_POINT ( 'NONE',  ( -5.924999999999999822, 0.000000000000000000, 1.399999999999999911 ) ) ;
#357 = ADVANCED_FACE ( 'NONE', ( #906 ), #502, .F. ) ;
#358 = ORIENTED_EDGE ( 'NONE', *, *, #251, .T. ) ;
#359 = FACE_OUTER_BOUND ( 'NONE', #712, .T. ) ;
#360 = DIRECTION ( 'NONE',  ( -1.000000000000000000, 0.000000000000000000, -0.000000000000000000 ) ) ;
#361 = ORIENTED_EDGE ( 'NONE', *, *, #871, .F. ) ;
#362 = CIRCLE ( 'NONE', #730, 0.1220472440944882775 ) ;
#363 = DIRECTION ( 'NONE',  ( 1.000000000000000000, 0.000000000000000000, -0.000000000000000000 ) ) ;
#364 = AXIS2_PLACEMENT_3D ( 'NONE', #87, #303, #291 ) ;
#365 = ORIENTED_EDGE ( 'NONE', *, *, #568, .T. ) ;
#366 = DIRECTION ( 'NONE',  ( 0.000000000000000000, 0.000000000000000000, 1.000000000000000000 ) ) ;
#367 = CARTESIAN_POINT ( 'NONE',  ( 5.825000000000000178, 2.000000000000000000, -1.499999999999998446 ) ) ;
#368 = ORIENTED_EDGE ( 'NONE', *, *, #7, .F. ) ;
#369 = APPLICATION_CONTEXT ( 'automotive_design' ) ;
#370 = DIRECTION ( 'NONE',  ( 0.000000000000000000, 0.000000000000000000, 1.000000000000000000 ) ) ;
#371 = EDGE_LOOP ( 'NONE', ( #747, #1019, #668, #774 ) ) ;
#372 = CARTESIAN_POINT ( 'NONE',  ( -6.224999999999999645, -0.2500000000000000000, -1.749999999999999334 ) ) ;
#373 = CARTESIAN_POINT ( 'NONE',  ( -4.173228346456692606, 2.000000000000000000, 0.2952755905511806889 ) ) ;
#374 = ORIENTED_EDGE ( 'NONE', *, *, #138, .T. ) ;
#375 = EDGE_CURVE ( 'NONE', #1036, #981, #79, .T. ) ;
#376 =( NAMED_UNIT ( * ) PLANE_ANGLE_UNIT ( ) SI_UNIT ( $, .RADIAN. ) );
#377 = ORIENTED_EDGE ( 'NONE', *, *, #450, .T. ) ;
#378 = DIRECTION ( 'NONE',  ( 0.000000000000000000, 0.000000000000000000, -1.000000000000000000 ) ) ;
#379 = PLANE ( 'NONE',  #420 ) ;
#380 = EDGE_LOOP ( 'NONE', ( #275, #777 ) ) ;
#381 = CARTESIAN_POINT ( 'NONE',  ( -5.825000000000000178, 2.000000000000000000, 1.499999999999999778 ) ) ;
#382 = ADVANCED_FACE ( 'NONE', ( #6 ), #583, .F. ) ;
#383 = VECTOR ( 'NONE', #499, 39.37007874015748143 ) ;
#384 = ORIENTED_EDGE ( 'NONE', *, *, #663, .F. ) ;
#385 = CARTESIAN_POINT ( 'NONE',  ( 5.825000000000000178, 0.000000000000000000, -1.499999999999998446 ) ) ;
#386 = AXIS2_PLACEMENT_3D ( 'NONE', #576, #724, #166 ) ;
#387 = CARTESIAN_POINT ( 'NONE',  ( -5.924999999999999822, 2.000000000000000000, -1.499999999999997113 ) ) ;
#388 = DIRECTION ( 'NONE',  ( 0.000000000000000000, -1.000000000000000000, 0.000000000000000000 ) ) ;
#389 = ORIENTED_EDGE ( 'NONE', *, *, #688, .T. ) ;
#390 = AXIS2_PLACEMENT_3D ( 'NONE', #102, #509, #762 ) ;
#391 = LINE ( 'NONE', #310, #126 ) ;
#392 = FACE_BOUND ( 'NONE', #661, .T. ) ;
#393 = DIRECTION ( 'NONE',  ( 0.000000000000000000, -1.000000000000000000, 0.000000000000000000 ) ) ;
#394 = EDGE_LOOP ( 'NONE', ( #508, #943, #877, #699 ) ) ;
#395 = EDGE_CURVE ( 'NONE', #823, #72, #172, .T. ) ;
#396 = CARTESIAN_POINT ( 'NONE',  ( -5.924999999999999822, 2.000000000000000000, 1.499999999999999778 ) ) ;
#397 = EDGE_CURVE ( 'NONE', #180, #82, #1050, .T. ) ;
#398 = LINE ( 'NONE', #553, #323 ) ;
#399 = ORIENTED_EDGE ( 'NONE', *, *, #1023, .F. ) ;
#400 = CARTESIAN_POINT ( 'NONE',  ( -6.224999999999999645, 2.000000000000000000, 1.750000000000002665 ) ) ;
#401 = VECTOR ( 'NONE', #336, 39.37007874015748143 ) ;
#402 = AXIS2_PLACEMENT_3D ( 'NONE', #867, #686, #611 ) ;
#403 = ORIENTED_EDGE ( 'NONE', *, *, #568, .F. ) ;
#404 = EDGE_CURVE ( 'NONE', #11, #262, #995, .T. ) ;
#405 = CARTESIAN_POINT ( 'NONE',  ( -4.173228346456692606, -0.2500000000000000000, -0.2952755905511806889 ) ) ;
#406 = EDGE_LOOP ( 'NONE', ( #1005, #287, #185, #549 ) ) ;
#407 = VECTOR ( 'NONE', #308, 39.37007874015748143 ) ;
#408 = CARTESIAN_POINT ( 'NONE',  ( 6.112912235157842211, 1.741099999999999870, 0.9335629921259841479 ) ) ;
#409 = CARTESIAN_POINT ( 'NONE',  ( -4.173228346456692606, 0.000000000000000000, -0.4173228346456689386 ) ) ;
#410 = EDGE_LOOP ( 'NONE', ( #770, #861 ) ) ;
#411 = DIRECTION ( 'NONE',  ( 1.000000000000000000, -0.000000000000000000, -0.000000000000000000 ) ) ;
#412 = AXIS2_PLACEMENT_3D ( 'NONE', #1043, #388, #562 ) ;
#413 = CIRCLE ( 'NONE', #1044, 0.1000000000000000194 ) ;
#414 = ORIENTED_EDGE ( 'NONE', *, *, #1053, .T. ) ;
#415 = CIRCLE ( 'NONE', #1014, 0.2000000000000000389 ) ;
#416 = DIRECTION ( 'NONE',  ( 0.000000000000000000, 0.000000000000000000, -1.000000000000000000 ) ) ;
#417 = ORIENTED_EDGE ( 'NONE', *, *, #688, .F. ) ;
#418 = DIRECTION ( 'NONE',  ( -0.000000000000000000, -1.000000000000000000, -0.000000000000000000 ) ) ;
#419 = DIRECTION ( 'NONE',  ( 0.000000000000000000, -1.000000000000000000, 0.000000000000000000 ) ) ;
#420 = AXIS2_PLACEMENT_3D ( 'NONE', #396, #457, #205 ) ;
#421 = ORIENTED_EDGE ( 'NONE', *, *, #183, .T. ) ;
#422 = CARTESIAN_POINT ( 'NONE',  ( -6.424999999999998934, -0.2500000000000000000, -1.549999999999998268 ) ) ;
#423 = ORIENTED_EDGE ( 'NONE', *, *, #919, .T. ) ;
#424 = DIRECTION ( 'NONE',  ( 0.000000000000000000, 0.000000000000000000, 1.000000000000000000 ) ) ;
#425 = ADVANCED_FACE ( 'NONE', ( #1001, #281, #119 ), #607, .F. ) ;
#426 = DIRECTION ( 'NONE',  ( -0.000000000000000000, 1.000000000000000000, -0.000000000000000000 ) ) ;
#427 = EDGE_CURVE ( 'NONE', #689, #223, #444, .T. ) ;
#428 = ORIENTED_EDGE ( 'NONE', *, *, #46, .T. ) ;
#429 = DIRECTION ( 'NONE',  ( 0.000000000000000000, 0.000000000000000000, 1.000000000000000000 ) ) ;
#430 = ORIENTED_EDGE ( 'NONE', *, *, #375, .F. ) ;
#431 =( NAMED_UNIT ( * ) PLANE_ANGLE_UNIT ( ) SI_UNIT ( $, .RADIAN. ) );
#432 = CARTESIAN_POINT ( 'NONE',  ( -4.173228346456692606, 0.000000000000000000, 0.2952755905511806889 ) ) ;
#433 = ORIENTED_EDGE ( 'NONE', *, *, #73, .F. ) ;
#434 = CARTESIAN_POINT ( 'NONE',  ( 5.924999999999999822, 0.000000000000000000, -1.399999999999997469 ) ) ;
#435 = ORIENTED_EDGE ( 'NONE', *, *, #986, .T. ) ;
#436 = CARTESIAN_POINT ( 'NONE',  ( 5.924999999999999822, 0.000000000000000000, -1.399999999999998357 ) ) ;
#437 = DIRECTION ( 'NONE',  ( 0.000000000000000000, 0.000000000000000000, -1.000000000000000000 ) ) ;
#438 = ORIENTED_EDGE ( 'NONE', *, *, #781, .T. ) ;
#439 = CIRCLE ( 'NONE', #625, 0.1000000000000000194 ) ;
#440 = EDGE_CURVE ( 'NONE', #893, #36, #932, .T. ) ;
#441 = LINE ( 'NONE', #760, #210 ) ;
#442 = FACE_BOUND ( 'NONE', #199, .T. ) ;
#443 = EDGE_LOOP ( 'NONE', ( #999, #745, #797, #438 ) ) ;
#444 = LINE ( 'NONE', #96, #37 ) ;
#445 = EDGE_LOOP ( 'NONE', ( #916, #403, #978, #435 ) ) ;
#446 = ORIENTED_EDGE ( 'NONE', *, *, #462, .F. ) ;
#447 = LINE ( 'NONE', #938, #277 ) ;
#448 = DIRECTION ( 'NONE',  ( 1.000000000000000000, 0.000000000000000000, -1.152678478339351656E-16 ) ) ;
#449 = VERTEX_POINT ( 'NONE', #184 ) ;
#450 = EDGE_CURVE ( 'NONE', #122, #449, #935, .T. ) ;
#451 = AXIS2_PLACEMENT_3D ( 'NONE', #515, #660, #429 ) ;
#452 = APPLICATION_PROTOCOL_DEFINITION ( 'draft international standard', 'automotive_design', 1998, #369 ) ;
#453 = AXIS2_PLACEMENT_3D ( 'NONE', #136, #467, #550 ) ;
#454 = ORIENTED_EDGE ( 'NONE', *, *, #174, .T. ) ;
#455 = LINE ( 'NONE', #228, #259 ) ;
#456 = CIRCLE ( 'NONE', #148, 0.2000000000000000389 ) ;
#457 = DIRECTION ( 'NONE',  ( 1.000000000000000000, -0.000000000000000000, 0.000000000000000000 ) ) ;
#458 = ORIENTED_EDGE ( 'NONE', *, *, #487, .F. ) ;
#459 = PRODUCT ( 'final_housing', 'final_housing', '', ( #852 ) ) ;
#460 = ORIENTED_EDGE ( 'NONE', *, *, #756, .T. ) ;
#461 = CARTESIAN_POINT ( 'NONE',  ( -4.173228346456692606, -0.2500000000000000000, 0.2952755905511806889 ) ) ;
#462 = EDGE_CURVE ( 'NONE', #72, #1024, #665, .T. ) ;
#463 = CARTESIAN_POINT ( 'NONE',  ( 6.424999999999998934, 1.741099999999999870, -0.9335629921259841479 ) ) ;
#464 = ORIENTED_EDGE ( 'NONE', *, *, #1023, .T. ) ;
#465 = CARTESIAN_POINT ( 'NONE',  ( -4.173228346456692606, 0.000000000000000000, -0.1732283464566923836 ) ) ;
#466 = ORIENTED_EDGE ( 'NONE', *, *, #45, .F. ) ;
#467 = DIRECTION ( 'NONE',  ( 1.000000000000000000, -0.000000000000000000, -0.000000000000000000 ) ) ;
#468 = CARTESIAN_POINT ( 'NONE',  ( -6.424999999999998934, 1.741099999999999870, -1.000000000000000000 ) ) ;
#469 = DIRECTION ( 'NONE',  ( -1.000000000000000000, -0.000000000000000000, 1.152678478339351656E-16 ) ) ;
#470 = LENGTH_MEASURE_WITH_UNIT ( LENGTH_MEASURE( 0.02539999999999999897 ), #527 );
#471 = CIRCLE ( 'NONE', #315, 0.1220472440944882775 ) ;
#472 = ORIENTED_EDGE ( 'NONE', *, *, #781, .F. ) ;
#473 = CARTESIAN_POINT ( 'NONE',  ( 5.924999999999999822, 2.000000000000000000, 1.399999999999998357 ) ) ;
#474 = AXIS2_PLACEMENT_3D ( 'NONE', #631, #393, #316 ) ;
#475 = FACE_OUTER_BOUND ( 'NONE', #371, .T. ) ;
#476 = DIRECTION ( 'NONE',  ( 0.000000000000000000, -1.000000000000000000, 0.000000000000000000 ) ) ;
#477 = EDGE_CURVE ( 'NONE', #1009, #256, #970, .T. ) ;
#478 = EDGE_CURVE ( 'NONE', #791, #140, #940, .T. ) ;
#479 = ORIENTED_EDGE ( 'NONE', *, *, #806, .F. ) ;
#480 = AXIS2_PLACEMENT_3D ( 'NONE', #1049, #155, #332 ) ;
#481 = FACE_OUTER_BOUND ( 'NONE', #954, .T. ) ;
#482 = DIRECTION ( 'NONE',  ( 0.000000000000000000, 0.000000000000000000, 1.000000000000000000 ) ) ;
#483 = CYLINDRICAL_SURFACE ( 'NONE', #474, 0.2000000000000000389 ) ;
#484 = DIRECTION ( 'NONE',  ( 0.000000000000000000, 0.000000000000000000, -1.000000000000000000 ) ) ;
#485 = CARTESIAN_POINT ( 'NONE',  ( -6.224999999999999645, 2.000000000000000000, -1.749999999999999334 ) ) ;
#486 = DIRECTION ( 'NONE',  ( -0.000000000000000000, 1.000000000000000000, -0.000000000000000000 ) ) ;
#487 = EDGE_CURVE ( 'NONE', #223, #133, #638, .T. ) ;
#488 = ORIENTED_EDGE ( 'NONE', *, *, #154, .T. ) ;
#489 = LINE ( 'NONE', #320, #22 ) ;
#490 = AXIS2_PLACEMENT_3D ( 'NONE', #789, #963, #857 ) ;
#491 = EDGE_CURVE ( 'NONE', #341, #845, #25, .T. ) ;
#492 = ORIENTED_EDGE ( 'NONE', *, *, #265, .F. ) ;
#493 =( GEOMETRIC_REPRESENTATION_CONTEXT ( 3 ) GLOBAL_UNCERTAINTY_ASSIGNED_CONTEXT ( ( #159 ) ) GLOBAL_UNIT_ASSIGNED_CONTEXT ( ( #33, #431, #17 ) ) REPRESENTATION_CONTEXT ( 'NONE', 'WORKASPACE' ) );
#494 = CARTESIAN_POINT ( 'NONE',  ( -4.173228346456692606, -0.2500000000000000000, 0.1732283464566924114 ) ) ;
#495 = DIRECTION ( 'NONE',  ( 1.000000000000000000, -0.000000000000000000, -0.000000000000000000 ) ) ;
#496 = CARTESIAN_POINT ( 'NONE',  ( -4.173228346456692606, 0.000000000000000000, -0.2952755905511806889 ) ) ;
#497 = DIRECTION ( 'NONE',  ( 0.000000000000000000, 0.000000000000000000, -1.000000000000000000 ) ) ;
#498 = EDGE_CURVE ( 'NONE', #833, #581, #269, .T. ) ;
#499 = DIRECTION ( 'NONE',  ( 1.000000000000000000, -0.000000000000000000, -0.000000000000000000 ) ) ;
#500 = ORIENTED_EDGE ( 'NONE', *, *, #103, .F. ) ;
#501 = CLOSED_SHELL ( 'NONE', ( #614, #593, #967, #296, #666, #538, #888, #564, #768, #425, #802, #864, #505, #629, #690, #563, #1027, #850, #752, #1004, #357, #969, #382, #125, #834, #257, #215, #654, #345, #100, #977 ) ) ;
#502 = CYLINDRICAL_SURFACE ( 'NONE', #863, 0.06643700787401581043 ) ;
#503 = AXIS2_PLACEMENT_3D ( 'NONE', #121, #370, #201 ) ;
#504 = CIRCLE ( 'NONE', #557, 0.06643700787401581043 ) ;
#505 = ADVANCED_FACE ( 'NONE', ( #855 ), #600, .T. ) ;
#506 = CYLINDRICAL_SURFACE ( 'NONE', #582, 0.2000000000000000389 ) ;
#507 = EDGE_CURVE ( 'NONE', #585, #941, #843, .T. ) ;
#508 = ORIENTED_EDGE ( 'NONE', *, *, #990, .F. ) ;
#509 = DIRECTION ( 'NONE',  ( -1.275571047625337126E-16, 0.000000000000000000, -1.000000000000000000 ) ) ;
#510 = DIRECTION ( 'NONE',  ( -0.000000000000000000, 1.000000000000000000, -0.000000000000000000 ) ) ;
#511 = VECTOR ( 'NONE', #212, 39.37007874015748143 ) ;
#512 = CARTESIAN_POINT ( 'NONE',  ( -6.224999999999999645, 2.000000000000000000, -1.749999999999999334 ) ) ;
#513 = EDGE_LOOP ( 'NONE', ( #912, #464, #59, #528, #358, #421, #605, #959 ) ) ;
#514 = DIRECTION ( 'NONE',  ( 0.000000000000000000, 0.000000000000000000, -1.000000000000000000 ) ) ;
#515 = CARTESIAN_POINT ( 'NONE',  ( -5.825000000000000178, 2.000000000000000000, 1.399999999999999911 ) ) ;
#516 = ORIENTED_EDGE ( 'NONE', *, *, #462, .T. ) ;
#517 = DIRECTION ( 'NONE',  ( 0.000000000000000000, -1.000000000000000000, 0.000000000000000000 ) ) ;
#518 = ORIENTED_EDGE ( 'NONE', *, *, #163, .T. ) ;
#519 = CIRCLE ( 'NONE', #647, 0.2000000000000000389 ) ;
#520 = CIRCLE ( 'NONE', #1045, 0.06643700787401581043 ) ;
#521 = LINE ( 'NONE', #844, #383 ) ;
#522 = VERTEX_POINT ( 'NONE', #595 ) ;
#523 = SURFACE_STYLE_USAGE ( .BOTH. , #279 ) ;
#524 = DIRECTION ( 'NONE',  ( 0.000000000000000000, 0.000000000000000000, -1.000000000000000000 ) ) ;
#525 = EDGE_LOOP ( 'NONE', ( #23, #433, #290, #856 ) ) ;
#526 = AXIS2_PLACEMENT_3D ( 'NONE', #705, #793, #127 ) ;
#527 =( LENGTH_UNIT ( ) NAMED_UNIT ( * ) SI_UNIT ( $, .METRE. ) );
#528 = ORIENTED_EDGE ( 'NONE', *, *, #578, .T. ) ;
#529 = DIRECTION ( 'NONE',  ( 0.000000000000000000, 0.000000000000000000, -1.000000000000000000 ) ) ;
#530 = CARTESIAN_POINT ( 'NONE',  ( -4.173228346456692606, -0.2500000000000000000, -0.2952755905511806889 ) ) ;
#531 = VERTEX_POINT ( 'NONE', #769 ) ;
#532 = CARTESIAN_POINT ( 'NONE',  ( -5.825000000000000178, 2.000000000000000000, -1.499999999999997113 ) ) ;
#533 = ORIENTED_EDGE ( 'NONE', *, *, #728, .F. ) ;
#534 = DIRECTION ( 'NONE',  ( 0.000000000000000000, 0.000000000000000000, -1.000000000000000000 ) ) ;
#535 = DIRECTION ( 'NONE',  ( 0.000000000000000000, 0.000000000000000000, -1.000000000000000000 ) ) ;
#536 = VERTEX_POINT ( 'NONE', #108 ) ;
#537 = AXIS2_PLACEMENT_3D ( 'NONE', #255, #587, #983 ) ;
#538 = ADVANCED_FACE ( 'NONE', ( #675 ), #848, .F. ) ;
#539 = ORIENTED_EDGE ( 'NONE', *, *, #868, .F. ) ;
#540 = LINE ( 'NONE', #884, #247 ) ;
#541 = VECTOR ( 'NONE', #945, 39.37007874015748143 ) ;
#542 = FACE_BOUND ( 'NONE', #555, .T. ) ;
#543 = ORIENTED_EDGE ( 'NONE', *, *, #579, .F. ) ;
#544 = VECTOR ( 'NONE', #803, 39.37007874015748143 ) ;
#545 = EDGE_LOOP ( 'NONE', ( #460, #94 ) ) ;
#546 = DIRECTION ( 'NONE',  ( 0.000000000000000000, 0.000000000000000000, -1.000000000000000000 ) ) ;
#547 = CARTESIAN_POINT ( 'NONE',  ( 6.424999999999998934, 2.000000000000000000, 1.750000000000001110 ) ) ;
#548 = DIRECTION ( 'NONE',  ( 1.000000000000000000, 0.000000000000000000, -1.152678478339351656E-16 ) ) ;
#549 = ORIENTED_EDGE ( 'NONE', *, *, #219, .F. ) ;
#550 = DIRECTION ( 'NONE',  ( 0.000000000000000000, 0.000000000000000000, -1.000000000000000000 ) ) ;
#551 = FACE_OUTER_BOUND ( 'NONE', #295, .T. ) ;
#552 = EDGE_CURVE ( 'NONE', #903, #1052, #504, .T. ) ;
#553 = CARTESIAN_POINT ( 'NONE',  ( -5.924999999999999822, 0.000000000000000000, 1.499999999999999778 ) ) ;
#554 = AXIS2_PLACEMENT_3D ( 'NONE', #67, #1058, #484 ) ;
#555 = EDGE_LOOP ( 'NONE', ( #588, #925 ) ) ;
#556 = CARTESIAN_POINT ( 'NONE',  ( 6.225000000000000533, -0.2500000000000000000, -1.750000000000001110 ) ) ;
#557 = AXIS2_PLACEMENT_3D ( 'NONE', #30, #360, #35 ) ;
#558 = FACE_OUTER_BOUND ( 'NONE', #26, .T. ) ;
#559 = CARTESIAN_POINT ( 'NONE',  ( 5.737087764842157434, 1.741099999999999870, 1.000000000000000000 ) ) ;
#560 = ORIENTED_EDGE ( 'NONE', *, *, #7, .T. ) ;
#561 = AXIS2_PLACEMENT_3D ( 'NONE', #961, #879, #713 ) ;
#562 = DIRECTION ( 'NONE',  ( 0.000000000000000000, 0.000000000000000000, -1.000000000000000000 ) ) ;
#563 = ADVANCED_FACE ( 'NONE', ( #542, #392, #558 ), #220, .F. ) ;
#564 = ADVANCED_FACE ( 'NONE', ( #885, #949, #551 ), #860, .F. ) ;
#565 = ORIENTED_EDGE ( 'NONE', *, *, #73, .T. ) ;
#566 = DIRECTION ( 'NONE',  ( -0.000000000000000000, -0.000000000000000000, 1.000000000000000000 ) ) ;
#567 = ORIENTED_EDGE ( 'NONE', *, *, #427, .F. ) ;
#568 = EDGE_CURVE ( 'NONE', #950, #113, #317, .T. ) ;
#569 = PRODUCT_DEFINITION_FORMATION_WITH_SPECIFIED_SOURCE ( 'ANY', '', #459, .NOT_KNOWN. ) ;
#570 = CARTESIAN_POINT ( 'NONE',  ( -6.424999999999998934, 2.000000000000000000, 1.550000000000002487 ) ) ;
#571 = CARTESIAN_POINT ( 'NONE',  ( 5.924999999999999822, 1.741099999999999870, -1.000000000000000000 ) ) ;
#572 = AXIS2_PLACEMENT_3D ( 'NONE', #468, #630, #535 ) ;
#573 = CARTESIAN_POINT ( 'NONE',  ( -4.173228346456692606, 2.000000000000000000, 0.2952755905511806889 ) ) ;
#574 = DIRECTION ( 'NONE',  ( 1.000000000000000000, -0.000000000000000000, -0.000000000000000000 ) ) ;
#575 = DIRECTION ( 'NONE',  ( 0.000000000000000000, 0.000000000000000000, -1.000000000000000000 ) ) ;
#576 = CARTESIAN_POINT ( 'NONE',  ( 5.825000000000000178, 2.000000000000000000, -1.399999999999998357 ) ) ;
#577 = ORIENTED_EDGE ( 'NONE', *, *, #720, .T. ) ;
#578 = EDGE_CURVE ( 'NONE', #531, #16, #456, .T. ) ;
#579 = EDGE_CURVE ( 'NONE', #581, #203, #757, .T. ) ;
#580 = DIRECTION ( 'NONE',  ( -0.000000000000000000, 1.000000000000000000, -0.000000000000000000 ) ) ;
#581 = VERTEX_POINT ( 'NONE', #710 ) ;
#582 = AXIS2_PLACEMENT_3D ( 'NONE', #924, #825, #352 ) ;
#583 = CYLINDRICAL_SURFACE ( 'NONE', #790, 0.06643700787401581043 ) ;
#584 = AXIS2_PLACEMENT_3D ( 'NONE', #633, #1031, #60 ) ;
#585 = VERTEX_POINT ( 'NONE', #142 ) ;
#586 = VECTOR ( 'NONE', #820, 39.37007874015748143 ) ;
#587 = DIRECTION ( 'NONE',  ( -1.000000000000000000, 0.000000000000000000, -0.000000000000000000 ) ) ;
#588 = ORIENTED_EDGE ( 'NONE', *, *, #477, .T. ) ;
#589 = CYLINDRICAL_SURFACE ( 'NONE', #211, 0.2000000000000000389 ) ;
#590 = ORIENTED_EDGE ( 'NONE', *, *, #804, .T. ) ;
#591 = EDGE_CURVE ( 'NONE', #36, #1036, #874, .T. ) ;
#592 = CARTESIAN_POINT ( 'NONE',  ( 5.924999999999999822, 0.000000000000000000, 1.399999999999998357 ) ) ;
#593 = ADVANCED_FACE ( 'NONE', ( #475 ), #137, .F. ) ;
#594 = ORIENTED_EDGE ( 'NONE', *, *, #103, .T. ) ;
#595 = CARTESIAN_POINT ( 'NONE',  ( -5.924999999999999822, 1.741099999999999870, -1.066437007874015741 ) ) ;
#596 = EDGE_LOOP ( 'NONE', ( #28, #192, #309, #153 ) ) ;
#597 = FACE_OUTER_BOUND ( 'NONE', #406, .T. ) ;
#598 = ORIENTED_EDGE ( 'NONE', *, *, #58, .F. ) ;
#599 = DIRECTION ( 'NONE',  ( -0.000000000000000000, -1.000000000000000000, -0.000000000000000000 ) ) ;
#600 = PLANE ( 'NONE',  #169 ) ;
#601 = ORIENTED_EDGE ( 'NONE', *, *, #498, .T. ) ;
#602 = VECTOR ( 'NONE', #697, 39.37007874015748143 ) ;
#603 = AXIS2_PLACEMENT_3D ( 'NONE', #559, #886, #800 ) ;
#604 = FACE_OUTER_BOUND ( 'NONE', #394, .T. ) ;
#605 = ORIENTED_EDGE ( 'NONE', *, *, #478, .T. ) ;
#606 = FILL_AREA_STYLE_COLOUR ( '', #75 ) ;
#607 = PLANE ( 'NONE',  #144 ) ;
#608 = ORIENTED_EDGE ( 'NONE', *, *, #202, .T. ) ;
#609 = AXIS2_PLACEMENT_3D ( 'NONE', #891, #979, #895 ) ;
#610 = ORIENTED_EDGE ( 'NONE', *, *, #200, .T. ) ;
#611 = DIRECTION ( 'NONE',  ( 0.000000000000000000, 0.000000000000000000, -1.000000000000000000 ) ) ;
#612 = ORIENTED_EDGE ( 'NONE', *, *, #239, .F. ) ;
#613 = EDGE_CURVE ( 'NONE', #140, #988, #1033, .T. ) ;
#614 = ADVANCED_FACE ( 'NONE', ( #1021 ), #1032, .F. ) ;
#615 = ORIENTED_EDGE ( 'NONE', *, *, #953, .F. ) ;
#616 = DIRECTION ( 'NONE',  ( 0.000000000000000000, 1.000000000000000000, -0.000000000000000000 ) ) ;
#617 = CARTESIAN_POINT ( 'NONE',  ( -6.224999999999999645, -0.2500000000000000555, -1.549999999999999378 ) ) ;
#618 = ORIENTED_EDGE ( 'NONE', *, *, #491, .T. ) ;
#619 = VECTOR ( 'NONE', #767, 39.37007874015748143 ) ;
#620 = ORIENTED_EDGE ( 'NONE', *, *, #395, .T. ) ;
#621 = FACE_OUTER_BOUND ( 'NONE', #50, .T. ) ;
#622 = DIRECTION ( 'NONE',  ( -1.000000000000000000, -0.000000000000000000, -0.000000000000000000 ) ) ;
#623 = EDGE_LOOP ( 'NONE', ( #681, #361, #646, #870 ) ) ;
#624 = CARTESIAN_POINT ( 'NONE',  ( 5.825000000000000178, 0.000000000000000000, -1.399999999999998357 ) ) ;
#625 = AXIS2_PLACEMENT_3D ( 'NONE', #254, #972, #575 ) ;
#626 = DIRECTION ( 'NONE',  ( 0.000000000000000000, 0.000000000000000000, 1.000000000000000000 ) ) ;
#627 = VERTEX_POINT ( 'NONE', #463 ) ;
#628 = LINE ( 'NONE', #293, #808 ) ;
#629 = ADVANCED_FACE ( 'NONE', ( #1039, #49, #799 ), #379, .T. ) ;
#630 = DIRECTION ( 'NONE',  ( 1.000000000000000000, -0.000000000000000000, -0.000000000000000000 ) ) ;
#631 = CARTESIAN_POINT ( 'NONE',  ( -6.224999999999999645, 2.000000000000000000, -1.549999999999999378 ) ) ;
#632 = ORIENTED_EDGE ( 'NONE', *, *, #265, .T. ) ;
#633 = CARTESIAN_POINT ( 'NONE',  ( 6.112912235157842211, 1.741099999999999870, 1.000000000000000000 ) ) ;
#634 = DIRECTION ( 'NONE',  ( 0.000000000000000000, 0.000000000000000000, -1.000000000000000000 ) ) ;
#635 = CARTESIAN_POINT ( 'NONE',  ( -6.424999999999998934, 2.000000000000000000, 1.750000000000002665 ) ) ;
#636 = CIRCLE ( 'NONE', #980, 0.06643700787401581043 ) ;
#637 = EDGE_LOOP ( 'NONE', ( #182, #761, #543, #278 ) ) ;
#638 = CIRCLE ( 'NONE', #248, 0.2000000000000000389 ) ;
#639 = FACE_OUTER_BOUND ( 'NONE', #107, .T. ) ;
#640 = DIRECTION ( 'NONE',  ( -0.000000000000000000, -1.000000000000000000, -0.000000000000000000 ) ) ;
#641 = ORIENTED_EDGE ( 'NONE', *, *, #491, .F. ) ;
#642 = CIRCLE ( 'NONE', #236, 0.06643700787401581043 ) ;
#643 = DIRECTION ( 'NONE',  ( 0.000000000000000000, 0.000000000000000000, -1.000000000000000000 ) ) ;
#644 = EDGE_CURVE ( 'NONE', #203, #581, #305, .T. ) ;
#645 = ORIENTED_EDGE ( 'NONE', *, *, #720, .F. ) ;
#646 = ORIENTED_EDGE ( 'NONE', *, *, #174, .F. ) ;
#647 = AXIS2_PLACEMENT_3D ( 'NONE', #651, #86, #143 ) ;
#648 = CIRCLE ( 'NONE', #1057, 0.06643700787401581043 ) ;
#649 = FACE_OUTER_BOUND ( 'NONE', #8, .T. ) ;
#650 = AXIS2_PLACEMENT_3D ( 'NONE', #343, #829, #835 ) ;
#651 = CARTESIAN_POINT ( 'NONE',  ( -6.224999999999999645, -0.2500000000000000555, 1.550000000000002487 ) ) ;
#652 = AXIS2_PLACEMENT_3D ( 'NONE', #307, #61, #776 ) ;
#653 = CARTESIAN_POINT ( 'NONE',  ( -5.924999999999999822, 1.741099999999999870, -1.000000000000000000 ) ) ;
#654 = ADVANCED_FACE ( 'NONE', ( #788 ), #55, .F. ) ;
#655 = CARTESIAN_POINT ( 'NONE',  ( -5.924999999999999822, 2.000000000000000000, -1.399999999999995914 ) ) ;
#656 = LINE ( 'NONE', #904, #862 ) ;
#657 = ORIENTED_EDGE ( 'NONE', *, *, #397, .T. ) ;
#658 = PLANE ( 'NONE',  #157 ) ;
#659 = DIRECTION ( 'NONE',  ( 0.000000000000000000, 0.000000000000000000, 1.000000000000000000 ) ) ;
#660 = DIRECTION ( 'NONE',  ( 0.000000000000000000, 1.000000000000000000, 0.000000000000000000 ) ) ;
#661 = EDGE_LOOP ( 'NONE', ( #560, #488 ) ) ;
#662 = DIRECTION ( 'NONE',  ( -1.000000000000000000, 0.000000000000000000, -0.000000000000000000 ) ) ;
#663 = EDGE_CURVE ( 'NONE', #685, #717, #795, .T. ) ;
#664 = DIRECTION ( 'NONE',  ( -0.000000000000000000, -0.000000000000000000, 1.000000000000000000 ) ) ;
#665 = CIRCLE ( 'NONE', #650, 0.06643700787401581043 ) ;
#666 = ADVANCED_FACE ( 'NONE', ( #639 ), #43, .F. ) ;
#667 = LINE ( 'NONE', #1002, #715 ) ;
#668 = ORIENTED_EDGE ( 'NONE', *, *, #756, .F. ) ;
#669 = PRESENTATION_LAYER_ASSIGNMENT (  '', '', ( #691 ) ) ;
#670 = DIRECTION ( 'NONE',  ( 0.000000000000000000, 0.000000000000000000, -1.000000000000000000 ) ) ;
#671 = DIRECTION ( 'NONE',  ( -0.000000000000000000, -1.000000000000000000, -0.000000000000000000 ) ) ;
#672 = CARTESIAN_POINT ( 'NONE',  ( 5.737087764842157434, 1.741099999999999870, 1.000000000000000000 ) ) ;
#673 = EDGE_LOOP ( 'NONE', ( #365, #928 ) ) ;
#674 = CYLINDRICAL_SURFACE ( 'NONE', #771, 0.1220472440944882775 ) ;
#675 = FACE_OUTER_BOUND ( 'NONE', #39, .T. ) ;
#676 = FACE_OUTER_BOUND ( 'NONE', #947, .T. ) ;
#677 = CARTESIAN_POINT ( 'NONE',  ( 6.225000000000000533, -0.2500000000000000555, -1.550000000000000933 ) ) ;
#678 = ORIENTED_EDGE ( 'NONE', *, *, #200, .F. ) ;
#679 = DIRECTION ( 'NONE',  ( 0.000000000000000000, -1.000000000000000000, 0.000000000000000000 ) ) ;
#680 = DIRECTION ( 'NONE',  ( 1.152678478339351656E-16, -0.000000000000000000, 1.000000000000000000 ) ) ;
#681 = ORIENTED_EDGE ( 'NONE', *, *, #784, .F. ) ;
#682 = CIRCLE ( 'NONE', #537, 0.06643700787401581043 ) ;
#683 = VECTOR ( 'NONE', #218, 39.37007874015748143 ) ;
#684 = VECTOR ( 'NONE', #437, 39.37007874015748143 ) ;
#685 = VERTEX_POINT ( 'NONE', #494 ) ;
#686 = DIRECTION ( 'NONE',  ( 1.000000000000000000, 0.000000000000000000, 0.000000000000000000 ) ) ;
#687 = CARTESIAN_POINT ( 'NONE',  ( -5.924999999999999822, 2.000000000000000000, -1.499999999999997113 ) ) ;
#688 = EDGE_CURVE ( 'NONE', #941, #585, #901, .T. ) ;
#689 = VERTEX_POINT ( 'NONE', #4 ) ;
#690 = ADVANCED_FACE ( 'NONE', ( #824 ), #160, .T. ) ;
#691 = STYLED_ITEM ( 'NONE', ( #29 ), #796 ) ;
#692 = EDGE_LOOP ( 'NONE', ( #533, #150, #1047, #44 ) ) ;
#693 = CARTESIAN_POINT ( 'NONE',  ( -5.825000000000000178, 0.000000000000000000, -1.499999999999997113 ) ) ;
#694 = DIRECTION ( 'NONE',  ( -0.000000000000000000, -1.000000000000000000, -0.000000000000000000 ) ) ;
#695 = EDGE_LOOP ( 'NONE', ( #158, #31, #500, #430 ) ) ;
#696 = ORIENTED_EDGE ( 'NONE', *, *, #85, .F. ) ;
#697 = DIRECTION ( 'NONE',  ( -0.000000000000000000, 1.000000000000000000, -0.000000000000000000 ) ) ;
#698 = DIRECTION ( 'NONE',  ( 0.000000000000000000, -1.000000000000000000, 0.000000000000000000 ) ) ;
#699 = ORIENTED_EDGE ( 'NONE', *, *, #1051, .F. ) ;
#700 = EDGE_CURVE ( 'NONE', #823, #809, #1, .T. ) ;
#701 = CIRCLE ( 'NONE', #402, 0.06643700787401581043 ) ;
#702 = EDGE_CURVE ( 'NONE', #522, #833, #642, .T. ) ;
#703 = VECTOR ( 'NONE', #74, 39.37007874015748143 ) ;
#704 = ORIENTED_EDGE ( 'NONE', *, *, #375, .T. ) ;
#705 = CARTESIAN_POINT ( 'NONE',  ( -6.424999999999998934, 1.741099999999999870, -1.000000000000000000 ) ) ;
#706 = DIRECTION ( 'NONE',  ( -0.000000000000000000, -0.000000000000000000, 1.000000000000000000 ) ) ;
#707 = VECTOR ( 'NONE', #68, 39.37007874015748143 ) ;
#708 = ORIENTED_EDGE ( 'NONE', *, *, #395, .F. ) ;
#709 = DIRECTION ( 'NONE',  ( 0.000000000000000000, -1.000000000000000000, 0.000000000000000000 ) ) ;
#710 = CARTESIAN_POINT ( 'NONE',  ( -6.424999999999998934, 1.741099999999999870, -0.9335629921259841479 ) ) ;
#711 = LINE ( 'NONE', #880, #129 ) ;
#712 = EDGE_LOOP ( 'NONE', ( #117, #565, #249, #188 ) ) ;
#713 = DIRECTION ( 'NONE',  ( 0.000000000000000000, 0.000000000000000000, -1.000000000000000000 ) ) ;
#714 = CARTESIAN_POINT ( 'NONE',  ( 6.424999999999998934, 2.000000000000000000, -1.549999999999999822 ) ) ;
#715 = VECTOR ( 'NONE', #574, 39.37007874015748143 ) ;
#716 = AXIS2_PLACEMENT_3D ( 'NONE', #677, #1003, #111 ) ;
#717 = VERTEX_POINT ( 'NONE', #815 ) ;
#718 = VECTOR ( 'NONE', #27, 39.37007874015748143 ) ;
#719 = CARTESIAN_POINT ( 'NONE',  ( 5.825000000000000178, 2.000000000000000000, 1.399999999999998357 ) ) ;
#720 = EDGE_CURVE ( 'NONE', #449, #326, #819, .T. ) ;
#721 = DIRECTION ( 'NONE',  ( 1.000000000000000000, -0.000000000000000000, -0.000000000000000000 ) ) ;
#722 = EDGE_CURVE ( 'NONE', #872, #223, #489, .T. ) ;
#723 = ORIENTED_EDGE ( 'NONE', *, *, #899, .F. ) ;
#724 = DIRECTION ( 'NONE',  ( 0.000000000000000000, 1.000000000000000000, 0.000000000000000000 ) ) ;
#725 = ORIENTED_EDGE ( 'NONE', *, *, #1053, .F. ) ;
#726 = DIRECTION ( 'NONE',  ( 0.000000000000000000, 0.000000000000000000, -1.000000000000000000 ) ) ;
#727 = CARTESIAN_POINT ( 'NONE',  ( -5.825000000000000178, 0.000000000000000000, -1.499999999999997113 ) ) ;
#728 = EDGE_CURVE ( 'NONE', #903, #14, #327, .T. ) ;
#729 = CARTESIAN_POINT ( 'NONE',  ( -6.424999999999998934, 1.741099999999999870, 0.9335629921259841479 ) ) ;
#730 = AXIS2_PLACEMENT_3D ( 'NONE', #15, #347, #98 ) ;
#731 = CIRCLE ( 'NONE', #231, 0.06643700787401581043 ) ;
#732 = DIRECTION ( 'NONE',  ( 1.000000000000000000, -0.000000000000000000, -0.000000000000000000 ) ) ;
#733 = VECTOR ( 'NONE', #134, 39.37007874015748143 ) ;
#734 = ORIENTED_EDGE ( 'NONE', *, *, #1038, .F. ) ;
#735 = ADVANCED_BREP_SHAPE_REPRESENTATION ( 'final_housing', ( #796, #503 ), #897 ) ;
#736 = DIRECTION ( 'NONE',  ( 0.000000000000000000, 0.000000000000000000, 1.000000000000000000 ) ) ;
#737 = AXIS2_PLACEMENT_3D ( 'NONE', #78, #732, #1055 ) ;
#738 = EDGE_LOOP ( 'NONE', ( #104, #446 ) ) ;
#739 = DIRECTION ( 'NONE',  ( 0.000000000000000000, -1.000000000000000000, 0.000000000000000000 ) ) ;
#740 = LINE ( 'NONE', #975, #586 ) ;
#741 = VERTEX_POINT ( 'NONE', #982 ) ;
#742 = DIRECTION ( 'NONE',  ( 1.000000000000000000, 0.000000000000000000, -1.275571047625337126E-16 ) ) ;
#743 = EDGE_LOOP ( 'NONE', ( #428, #849 ) ) ;
#744 = CARTESIAN_POINT ( 'NONE',  ( -6.424999999999998934, -0.2500000000000000000, 1.550000000000002487 ) ) ;
#745 = ORIENTED_EDGE ( 'NONE', *, *, #89, .T. ) ;
#746 = CARTESIAN_POINT ( 'NONE',  ( -5.825000000000000178, 0.000000000000000000, -1.399999999999997025 ) ) ;
#747 = ORIENTED_EDGE ( 'NONE', *, *, #552, .F. ) ;
#748 = CARTESIAN_POINT ( 'NONE',  ( 5.924999999999999822, 1.741099999999999870, 1.066437007874015741 ) ) ;
#749 = DIRECTION ( 'NONE',  ( 0.000000000000000000, 0.000000000000000000, -1.000000000000000000 ) ) ;
#750 = CIRCLE ( 'NONE', #246, 0.2000000000000000389 ) ;
#751 = EDGE_LOOP ( 'NONE', ( #466, #838, #922, #322, #641, #244, #993, #90 ) ) ;
#752 = ADVANCED_FACE ( 'NONE', ( #649 ), #250, .F. ) ;
#753 = CARTESIAN_POINT ( 'NONE',  ( 6.225000000000000533, 2.000000000000000000, 1.750000000000001110 ) ) ;
#754 = EDGE_LOOP ( 'NONE', ( #645, #786, #135, #292 ) ) ;
#755 = LENGTH_MEASURE_WITH_UNIT ( LENGTH_MEASURE( 0.02539999999999999897 ), #926 );
#756 = EDGE_CURVE ( 'NONE', #866, #14, #826, .T. ) ;
#757 = CIRCLE ( 'NONE', #526, 0.06643700787401581043 ) ;
#758 = CARTESIAN_POINT ( 'NONE',  ( 6.225000000000000533, 2.000000000000000000, -1.550000000000000933 ) ) ;
#759 = ORIENTED_EDGE ( 'NONE', *, *, #89, .F. ) ;
#760 = CARTESIAN_POINT ( 'NONE',  ( 5.737087764842157434, 1.741099999999999870, -1.066437007874015741 ) ) ;
#761 = ORIENTED_EDGE ( 'NONE', *, *, #239, .T. ) ;
#762 = DIRECTION ( 'NONE',  ( -1.000000000000000000, 0.000000000000000000, 1.275571047625337126E-16 ) ) ;
#763 = DIRECTION ( 'NONE',  ( 0.000000000000000000, 0.000000000000000000, -1.000000000000000000 ) ) ;
#764 = VERTEX_POINT ( 'NONE', #338 ) ;
#765 = EDGE_CURVE ( 'NONE', #208, #845, #439, .T. ) ;
#766 = ORIENTED_EDGE ( 'NONE', *, *, #440, .T. ) ;
#767 = DIRECTION ( 'NONE',  ( -0.000000000000000000, -1.000000000000000000, 0.000000000000000000 ) ) ;
#768 = ADVANCED_FACE ( 'NONE', ( #324 ), #235, .F. ) ;
#769 = CARTESIAN_POINT ( 'NONE',  ( 6.424999999999998934, -0.2500000000000000000, 1.549999999999999822 ) ) ;
#770 = ORIENTED_EDGE ( 'NONE', *, *, #986, .F. ) ;
#771 = AXIS2_PLACEMENT_3D ( 'NONE', #1000, #599, #846 ) ;
#772 = AXIS2_PLACEMENT_3D ( 'NONE', #547, #314, #782 ) ;
#773 = APPLICATION_PROTOCOL_DEFINITION ( 'draft international standard', 'automotive_design', 1998, #243 ) ;
#774 = ORIENTED_EDGE ( 'NONE', *, *, #976, .F. ) ;
#775 = DIRECTION ( 'NONE',  ( 0.000000000000000000, 0.000000000000000000, -1.000000000000000000 ) ) ;
#776 = DIRECTION ( 'NONE',  ( 0.000000000000000000, 0.000000000000000000, 1.000000000000000000 ) ) ;
#777 = ORIENTED_EDGE ( 'NONE', *, *, #644, .T. ) ;
#778 = CARTESIAN_POINT ( 'NONE',  ( -5.924999999999999822, 0.000000000000000000, -1.399999999999995914 ) ) ;
#779 = ORIENTED_EDGE ( 'NONE', *, *, #644, .F. ) ;
#780 = DIRECTION ( 'NONE',  ( 0.000000000000000000, -1.000000000000000000, 0.000000000000000000 ) ) ;
#781 = EDGE_CURVE ( 'NONE', #988, #122, #151, .T. ) ;
#782 = DIRECTION ( 'NONE',  ( 0.000000000000000000, 0.000000000000000000, 1.000000000000000000 ) ) ;
#783 = VERTEX_POINT ( 'NONE', #400 ) ;
#784 = EDGE_CURVE ( 'NONE', #764, #272, #217, .T. ) ;
#785 = CARTESIAN_POINT ( 'NONE',  ( -6.424999999999998934, 1.741099999999999870, 1.000000000000000000 ) ) ;
#786 = ORIENTED_EDGE ( 'NONE', *, *, #868, .T. ) ;
#787 = DIRECTION ( 'NONE',  ( 0.000000000000000000, -0.000000000000000000, -1.000000000000000000 ) ) ;
#788 = FACE_OUTER_BOUND ( 'NONE', #623, .T. ) ;
#789 = CARTESIAN_POINT ( 'NONE',  ( 5.924999999999999822, 1.741099999999999870, 1.000000000000000000 ) ) ;
#790 = AXIS2_PLACEMENT_3D ( 'NONE', #339, #915, #659 ) ;
#791 = VERTEX_POINT ( 'NONE', #744 ) ;
#792 = LINE ( 'NONE', #141, #602 ) ;
#793 = DIRECTION ( 'NONE',  ( 1.000000000000000000, -0.000000000000000000, -0.000000000000000000 ) ) ;
#794 = LINE ( 'NONE', #62, #270 ) ;
#795 = CIRCLE ( 'NONE', #561, 0.1220472440944882775 ) ;
#796 = MANIFOLD_SOLID_BREP ( 'Fillet2', #501 ) ;
#797 = ORIENTED_EDGE ( 'NONE', *, *, #66, .F. ) ;
#798 = DIRECTION ( 'NONE',  ( 0.000000000000000000, 1.000000000000000000, 0.000000000000000000 ) ) ;
#799 = FACE_OUTER_BOUND ( 'NONE', #216, .T. ) ;
#800 = DIRECTION ( 'NONE',  ( 0.000000000000000000, 0.000000000000000000, -1.000000000000000000 ) ) ;
#801 = DIRECTION ( 'NONE',  ( 0.000000000000000000, -1.000000000000000000, 0.000000000000000000 ) ) ;
#802 = ADVANCED_FACE ( 'NONE', ( #359 ), #828, .F. ) ;
#803 = DIRECTION ( 'NONE',  ( -0.000000000000000000, 1.000000000000000000, -0.000000000000000000 ) ) ;
#804 = EDGE_CURVE ( 'NONE', #833, #522, #161, .T. ) ;
#805 = CARTESIAN_POINT ( 'NONE',  ( 5.737087764842157434, 1.741099999999999870, 1.066437007874015741 ) ) ;
#806 = EDGE_CURVE ( 'NONE', #145, #82, #268, .T. ) ;
#807 = VECTOR ( 'NONE', #671, 39.37007874015748143 ) ;
#808 = VECTOR ( 'NONE', #616, 39.37007874015748143 ) ;
#809 = VERTEX_POINT ( 'NONE', #273 ) ;
#810 = VECTOR ( 'NONE', #664, 39.37007874015748143 ) ;
#811 = DIRECTION ( 'NONE',  ( 0.000000000000000000, -1.000000000000000000, 0.000000000000000000 ) ) ;
#812 = CARTESIAN_POINT ( 'NONE',  ( -6.424999999999998934, 2.000000000000000000, -1.749999999999999334 ) ) ;
#813 = AXIS2_PLACEMENT_3D ( 'NONE', #81, #411, #1059 ) ;
#814 = ORIENTED_EDGE ( 'NONE', *, *, #325, .T. ) ;
#815 = CARTESIAN_POINT ( 'NONE',  ( -4.173228346456692606, -0.2500000000000000000, 0.4173228346456689386 ) ) ;
#816 = DIRECTION ( 'NONE',  ( 0.000000000000000000, 0.000000000000000000, -1.000000000000000000 ) ) ;
#817 = EDGE_CURVE ( 'NONE', #298, #585, #447, .T. ) ;
#818 = DIRECTION ( 'NONE',  ( 0.000000000000000000, 0.000000000000000000, -1.000000000000000000 ) ) ;
#819 = LINE ( 'NONE', #984, #175 ) ;
#820 = DIRECTION ( 'NONE',  ( 0.000000000000000000, -1.000000000000000000, 0.000000000000000000 ) ) ;
#821 = CARTESIAN_POINT ( 'NONE',  ( -6.424999999999998934, -0.2500000000000000000, -1.749999999999999334 ) ) ;
#822 = AXIS2_PLACEMENT_3D ( 'NONE', #746, #991, #987 ) ;
#823 = VERTEX_POINT ( 'NONE', #748 ) ;
#824 = FACE_OUTER_BOUND ( 'NONE', #267, .T. ) ;
#825 = DIRECTION ( 'NONE',  ( 0.000000000000000000, -1.000000000000000000, 0.000000000000000000 ) ) ;
#826 = CIRCLE ( 'NONE', #813, 0.06643700787401581043 ) ;
#827 = EDGE_LOOP ( 'NONE', ( #240, #934, #678, #479 ) ) ;
#828 = PLANE ( 'NONE',  #390 ) ;
#829 = DIRECTION ( 'NONE',  ( 1.000000000000000000, 0.000000000000000000, -0.000000000000000000 ) ) ;
#830 = EDGE_LOOP ( 'NONE', ( #612, #170, #601, #779 ) ) ;
#831 = CARTESIAN_POINT ( 'NONE',  ( 6.225000000000000533, 2.000000000000000000, -1.750000000000001110 ) ) ;
#832 = DIRECTION ( 'NONE',  ( 1.000000000000000000, -0.000000000000000000, -0.000000000000000000 ) ) ;
#833 = VERTEX_POINT ( 'NONE', #1006 ) ;
#834 = ADVANCED_FACE ( 'NONE', ( #931 ), #589, .T. ) ;
#835 = DIRECTION ( 'NONE',  ( 0.000000000000000000, 0.000000000000000000, 1.000000000000000000 ) ) ;
#836 = ORIENTED_EDGE ( 'NONE', *, *, #5, .F. ) ;
#837 = LINE ( 'NONE', #908, #401 ) ;
#838 = ORIENTED_EDGE ( 'NONE', *, *, #784, .T. ) ;
#839 = AXIS2_PLACEMENT_3D ( 'NONE', #998, #331, #266 ) ;
#840 = VECTOR ( 'NONE', #958, 39.37007874015748143 ) ;
#841 = DIRECTION ( 'NONE',  ( 0.000000000000000000, 0.000000000000000000, 1.000000000000000000 ) ) ;
#842 = EDGE_LOOP ( 'NONE', ( #173, #368, #283, #389 ) ) ;
#843 = CIRCLE ( 'NONE', #280, 0.1220472440944882775 ) ;
#844 = CARTESIAN_POINT ( 'NONE',  ( 5.737087764842157434, 1.741099999999999870, 0.9335629921259841479 ) ) ;
#845 = VERTEX_POINT ( 'NONE', #350 ) ;
#846 = DIRECTION ( 'NONE',  ( 0.000000000000000000, 0.000000000000000000, -1.000000000000000000 ) ) ;
#847 = AXIS2_PLACEMENT_3D ( 'NONE', #64, #225, #482 ) ;
#848 = CYLINDRICAL_SURFACE ( 'NONE', #88, 0.1220472440944882775 ) ;
#849 = ORIENTED_EDGE ( 'NONE', *, *, #552, .T. ) ;
#850 = ADVANCED_FACE ( 'NONE', ( #354 ), #674, .F. ) ;
#851 = LINE ( 'NONE', #65, #733 ) ;
#852 = PRODUCT_CONTEXT ( 'NONE', #369, 'mechanical' ) ;
#853 = ORIENTED_EDGE ( 'NONE', *, *, #817, .T. ) ;
#854 = CARTESIAN_POINT ( 'NONE',  ( -6.424999999999998934, 2.000000000000000000, -1.549999999999999378 ) ) ;
#855 = FACE_OUTER_BOUND ( 'NONE', #115, .T. ) ;
#856 = ORIENTED_EDGE ( 'NONE', *, *, #318, .F. ) ;
#857 = DIRECTION ( 'NONE',  ( 0.000000000000000000, 0.000000000000000000, 1.000000000000000000 ) ) ;
#858 = EDGE_LOOP ( 'NONE', ( #590, #337 ) ) ;
#859 = FACE_OUTER_BOUND ( 'NONE', #344, .T. ) ;
#860 = PLANE ( 'NONE',  #772 ) ;
#861 = ORIENTED_EDGE ( 'NONE', *, *, #919, .F. ) ;
#862 = VECTOR ( 'NONE', #736, 39.37007874015748143 ) ;
#863 = AXIS2_PLACEMENT_3D ( 'NONE', #900, #495, #816 ) ;
#864 = ADVANCED_FACE ( 'NONE', ( #118, #189, #171 ), #658, .T. ) ;
#865 = CARTESIAN_POINT ( 'NONE',  ( -5.924999999999999822, 1.741099999999999870, 1.066437007874015741 ) ) ;
#866 = VERTEX_POINT ( 'NONE', #197 ) ;
#867 = CARTESIAN_POINT ( 'NONE',  ( 6.424999999999998934, 1.741099999999999870, -1.000000000000000000 ) ) ;
#868 = EDGE_CURVE ( 'NONE', #449, #140, #989, .T. ) ;
#869 = DIRECTION ( 'NONE',  ( 0.000000000000000000, 0.000000000000000000, 1.000000000000000000 ) ) ;
#870 = ORIENTED_EDGE ( 'NONE', *, *, #20, .F. ) ;
#871 = EDGE_CURVE ( 'NONE', #180, #764, #913, .T. ) ;
#872 = VERTEX_POINT ( 'NONE', #306 ) ;
#873 = CYLINDRICAL_SURFACE ( 'NONE', #453, 0.06643700787401581043 ) ;
#874 = LINE ( 'NONE', #387, #511 ) ;
#875 = CARTESIAN_POINT ( 'NONE',  ( -4.173228346456692606, 0.000000000000000000, 0.4173228346456689386 ) ) ;
#876 =( CONVERSION_BASED_UNIT ( 'INCH', #470 ) LENGTH_UNIT ( ) NAMED_UNIT ( #69 ) );
#877 = ORIENTED_EDGE ( 'NONE', *, *, #183, .F. ) ;
#878 = CYLINDRICAL_SURFACE ( 'NONE', #584, 0.06643700787401581043 ) ;
#879 = DIRECTION ( 'NONE',  ( 0.000000000000000000, -1.000000000000000000, 0.000000000000000000 ) ) ;
#880 = CARTESIAN_POINT ( 'NONE',  ( -4.173228346456692606, 2.000000000000000000, 0.4173228346456689386 ) ) ;
#881 = CIRCLE ( 'NONE', #346, 0.1220472440944882775 ) ;
#882 = AXIS2_PLACEMENT_3D ( 'NONE', #300, #131, #787 ) ;
#883 = ORIENTED_EDGE ( 'NONE', *, *, #990, .T. ) ;
#884 = CARTESIAN_POINT ( 'NONE',  ( -4.173228346456692606, 2.000000000000000000, -0.4173228346456689386 ) ) ;
#885 = FACE_BOUND ( 'NONE', #410, .T. ) ;
#886 = DIRECTION ( 'NONE',  ( 1.000000000000000000, -0.000000000000000000, -0.000000000000000000 ) ) ;
#887 = MECHANICAL_DESIGN_GEOMETRIC_PRESENTATION_REPRESENTATION (  '', ( #691 ), #493 ) ;
#888 = ADVANCED_FACE ( 'NONE', ( #481, #1037 ), #224, .F. ) ;
#889 = EDGE_CURVE ( 'NONE', #791, #326, #628, .T. ) ;
#890 = VERTEX_POINT ( 'NONE', #556 ) ;
#891 = CARTESIAN_POINT ( 'NONE',  ( -6.424999999999998934, 2.000000000000000000, -1.749999999999999334 ) ) ;
#892 = LINE ( 'NONE', #51, #407 ) ;
#893 = VERTEX_POINT ( 'NONE', #385 ) ;
#894 = PRODUCT_DEFINITION_CONTEXT ( 'detailed design', #243, 'design' ) ;
#895 = DIRECTION ( 'NONE',  ( 1.000000000000000000, 0.000000000000000000, -1.275571047625337126E-16 ) ) ;
#896 = EDGE_CURVE ( 'NONE', #36, #145, #413, .T. ) ;
#897 =( GEOMETRIC_REPRESENTATION_CONTEXT ( 3 ) GLOBAL_UNCERTAINTY_ASSIGNED_CONTEXT ( ( #241 ) ) GLOBAL_UNIT_ASSIGNED_CONTEXT ( ( #876, #376, #1035 ) ) REPRESENTATION_CONTEXT ( 'NONE', 'WORKASPACE' ) );
#898 = ORIENTED_EDGE ( 'NONE', *, *, #722, .T. ) ;
#899 = EDGE_CURVE ( 'NONE', #717, #685, #911, .T. ) ;
#900 = CARTESIAN_POINT ( 'NONE',  ( 5.737087764842157434, 1.741099999999999870, -1.000000000000000000 ) ) ;
#901 = CIRCLE ( 'NONE', #939, 0.1220472440944882775 ) ;
#902 = DIRECTION ( 'NONE',  ( 1.000000000000000000, -0.000000000000000000, -0.000000000000000000 ) ) ;
#903 = VERTEX_POINT ( 'NONE', #1020 ) ;
#904 = CARTESIAN_POINT ( 'NONE',  ( 6.424999999999998934, -0.2500000000000000000, -1.750000000000001110 ) ) ;
#905 = DIRECTION ( 'NONE',  ( 0.000000000000000000, 0.000000000000000000, 1.000000000000000000 ) ) ;
#906 = FACE_OUTER_BOUND ( 'NONE', #445, .T. ) ;
#907 = ORIENTED_EDGE ( 'NONE', *, *, #1048, .T. ) ;
#908 = CARTESIAN_POINT ( 'NONE',  ( 6.225000000000000533, 2.000000000000000000, -1.750000000000001110 ) ) ;
#909 = DIRECTION ( 'NONE',  ( 0.000000000000000000, 0.000000000000000000, -1.000000000000000000 ) ) ;
#910 = VECTOR ( 'NONE', #801, 39.37007874015748143 ) ;
#911 = CIRCLE ( 'NONE', #70, 0.1220472440944882775 ) ;
#912 = ORIENTED_EDGE ( 'NONE', *, *, #66, .T. ) ;
#913 = LINE ( 'NONE', #473, #683 ) ;
#914 = AXIS2_PLACEMENT_3D ( 'NONE', #956, #294, #869 ) ;
#915 = DIRECTION ( 'NONE',  ( -1.000000000000000000, -0.000000000000000000, -0.000000000000000000 ) ) ;
#916 = ORIENTED_EDGE ( 'NONE', *, *, #163, .F. ) ;
#917 = EDGE_CURVE ( 'NONE', #262, #208, #792, .T. ) ;
#918 = CARTESIAN_POINT ( 'NONE',  ( 5.924999999999999822, 1.741099999999999870, -0.9335629921259841479 ) ) ;
#919 = EDGE_CURVE ( 'NONE', #627, #536, #731, .T. ) ;
#920 = ORIENTED_EDGE ( 'NONE', *, *, #154, .F. ) ;
#921 = CARTESIAN_POINT ( 'NONE',  ( 6.224999999999999645, 2.000000000000000000, 1.550000000000000933 ) ) ;
#922 = ORIENTED_EDGE ( 'NONE', *, *, #933, .F. ) ;
#923 = PRODUCT_RELATED_PRODUCT_CATEGORY ( 'part', '', ( #459 ) ) ;
#924 = CARTESIAN_POINT ( 'NONE',  ( 6.225000000000000533, 2.000000000000000000, -1.550000000000000933 ) ) ;
#925 = ORIENTED_EDGE ( 'NONE', *, *, #42, .T. ) ;
#926 =( LENGTH_UNIT ( ) NAMED_UNIT ( * ) SI_UNIT ( $, .METRE. ) );
#927 = CARTESIAN_POINT ( 'NONE',  ( -6.424999999999998934, 2.000000000000000000, 1.750000000000002665 ) ) ;
#928 = ORIENTED_EDGE ( 'NONE', *, *, #5, .T. ) ;
#929 = LINE ( 'NONE', #93, #807 ) ;
#930 = ORIENTED_EDGE ( 'NONE', *, *, #507, .F. ) ;
#931 = FACE_OUTER_BOUND ( 'NONE', #525, .T. ) ;
#932 = LINE ( 'NONE', #367, #541 ) ;
#933 = EDGE_CURVE ( 'NONE', #208, #272, #455, .T. ) ;
#934 = ORIENTED_EDGE ( 'NONE', *, *, #440, .F. ) ;
#935 = CIRCLE ( 'NONE', #71, 0.2000000000000000389 ) ;
#936 = LINE ( 'NONE', #356, #276 ) ;
#937 = ORIENTED_EDGE ( 'NONE', *, *, #219, .T. ) ;
#938 = CARTESIAN_POINT ( 'NONE',  ( -4.173228346456692606, 2.000000000000000000, -0.1732283464566924114 ) ) ;
#939 = AXIS2_PLACEMENT_3D ( 'NONE', #405, #739, #905 ) ;
#940 = LINE ( 'NONE', #355, #684 ) ;
#941 = VERTEX_POINT ( 'NONE', #1025 ) ;
#942 = LINE ( 'NONE', #139, #106 ) ;
#943 = ORIENTED_EDGE ( 'NONE', *, *, #889, .F. ) ;
#944 = CARTESIAN_POINT ( 'NONE',  ( -6.224999999999999645, 2.000000000000000000, 1.550000000000002487 ) ) ;
#945 = DIRECTION ( 'NONE',  ( -0.000000000000000000, 1.000000000000000000, -0.000000000000000000 ) ) ;
#946 = ORIENTED_EDGE ( 'NONE', *, *, #318, .T. ) ;
#947 = EDGE_LOOP ( 'NONE', ( #109, #472, #47, #539 ) ) ;
#948 = FACE_OUTER_BOUND ( 'NONE', #695, .T. ) ;
#949 = FACE_BOUND ( 'NONE', #738, .T. ) ;
#950 = VERTEX_POINT ( 'NONE', #1016 ) ;
#951 = CIRCLE ( 'NONE', #839, 0.1000000000000000194 ) ;
#952 = CIRCLE ( 'NONE', #490, 0.06643700787401581043 ) ;
#953 = EDGE_CURVE ( 'NONE', #353, #941, #540, .T. ) ;
#954 = EDGE_LOOP ( 'NONE', ( #898, #178, #814, #377, #577, #883, #206, #1030 ) ) ;
#955 = CARTESIAN_POINT ( 'NONE',  ( 5.825000000000000178, 2.000000000000000000, -1.399999999999998357 ) ) ;
#956 = CARTESIAN_POINT ( 'NONE',  ( 5.924999999999999822, 1.741099999999999870, -1.000000000000000000 ) ) ;
#957 = CARTESIAN_POINT ( 'NONE',  ( 6.224999999999999645, 2.000000000000000000, 1.550000000000000933 ) ) ;
#958 = DIRECTION ( 'NONE',  ( 0.000000000000000000, -1.000000000000000000, 0.000000000000000000 ) ) ;
#959 = ORIENTED_EDGE ( 'NONE', *, *, #613, .T. ) ;
#960 = DIRECTION ( 'NONE',  ( 1.000000000000000000, 0.000000000000000000, -1.152678478339351656E-16 ) ) ;
#961 = CARTESIAN_POINT ( 'NONE',  ( -4.173228346456692606, -0.2500000000000000000, 0.2952755905511806889 ) ) ;
#962 = CARTESIAN_POINT ( 'NONE',  ( -5.825000000000000178, 0.000000000000000000, 1.499999999999999778 ) ) ;
#963 = DIRECTION ( 'NONE',  ( 1.000000000000000000, -0.000000000000000000, -0.000000000000000000 ) ) ;
#964 = ORIENTED_EDGE ( 'NONE', *, *, #297, .T. ) ;
#965 = DIRECTION ( 'NONE',  ( -1.000000000000000000, -0.000000000000000000, -0.000000000000000000 ) ) ;
#966 = CARTESIAN_POINT ( 'NONE',  ( 6.112912235157842211, 1.741099999999999870, 1.000000000000000000 ) ) ;
#967 = ADVANCED_FACE ( 'NONE', ( #621 ), #873, .F. ) ;
#968 = CYLINDRICAL_SURFACE ( 'NONE', #603, 0.06643700787401581043 ) ;
#969 = ADVANCED_FACE ( 'NONE', ( #54 ), #878, .F. ) ;
#970 = CIRCLE ( 'NONE', #214, 0.1220472440944882775 ) ;
#971 = DIRECTION ( 'NONE',  ( 0.000000000000000000, -1.000000000000000000, 0.000000000000000000 ) ) ;
#972 = DIRECTION ( 'NONE',  ( 0.000000000000000000, -1.000000000000000000, 0.000000000000000000 ) ) ;
#973 = DIRECTION ( 'NONE',  ( 0.000000000000000000, 0.000000000000000000, -1.000000000000000000 ) ) ;
#974 = ORIENTED_EDGE ( 'NONE', *, *, #700, .F. ) ;
#975 = CARTESIAN_POINT ( 'NONE',  ( 6.424999999999998934, 2.000000000000000000, 1.550000000000000933 ) ) ;
#976 = EDGE_CURVE ( 'NONE', #1052, #866, #391, .T. ) ;
#977 = ADVANCED_FACE ( 'NONE', ( #948 ), #146, .F. ) ;
#978 = ORIENTED_EDGE ( 'NONE', *, *, #85, .T. ) ;
#979 = DIRECTION ( 'NONE',  ( 1.275571047625337126E-16, -0.000000000000000000, 1.000000000000000000 ) ) ;
#980 = AXIS2_PLACEMENT_3D ( 'NONE', #571, #902, #162 ) ;
#981 = VERTEX_POINT ( 'NONE', #693 ) ;
#982 = CARTESIAN_POINT ( 'NONE',  ( -6.225000000000000533, -0.2500000000000000000, 1.750000000000002665 ) ) ;
#983 = DIRECTION ( 'NONE',  ( 0.000000000000000000, 0.000000000000000000, -1.000000000000000000 ) ) ;
#984 = CARTESIAN_POINT ( 'NONE',  ( -6.424999999999998934, 2.000000000000000000, 1.750000000000002665 ) ) ;
#985 = CYLINDRICAL_SURFACE ( 'NONE', #386, 0.1000000000000000194 ) ;
#986 = EDGE_CURVE ( 'NONE', #536, #627, #701, .T. ) ;
#987 = DIRECTION ( 'NONE',  ( 0.000000000000000000, 0.000000000000000000, -1.000000000000000000 ) ) ;
#988 = VERTEX_POINT ( 'NONE', #372 ) ;
#989 = LINE ( 'NONE', #854, #619 ) ;
#990 = EDGE_CURVE ( 'NONE', #326, #783, #750, .T. ) ;
#991 = DIRECTION ( 'NONE',  ( -0.000000000000000000, 1.000000000000000000, -0.000000000000000000 ) ) ;
#992 = CIRCLE ( 'NONE', #716, 0.2000000000000000389 ) ;
#993 = ORIENTED_EDGE ( 'NONE', *, *, #591, .F. ) ;
#994 = CARTESIAN_POINT ( 'NONE',  ( -5.924999999999999822, 1.741099999999999870, -1.000000000000000000 ) ) ;
#995 = CIRCLE ( 'NONE', #57, 0.1000000000000000194 ) ;
#996 = CARTESIAN_POINT ( 'NONE',  ( -4.173228346456692606, 2.000000000000000000, -0.2952755905511806889 ) ) ;
#997 = EDGE_LOOP ( 'NONE', ( #417, #930 ) ) ;
#998 = CARTESIAN_POINT ( 'NONE',  ( 5.825000000000000178, 0.000000000000000000, 1.399999999999998357 ) ) ;
#999 = ORIENTED_EDGE ( 'NONE', *, *, #325, .F. ) ;
#1000 = CARTESIAN_POINT ( 'NONE',  ( -4.173228346456692606, 2.000000000000000000, -0.2952755905511806889 ) ) ;
#1001 = FACE_BOUND ( 'NONE', #380, .T. ) ;
#1002 = CARTESIAN_POINT ( 'NONE',  ( 5.737087764842157434, 1.741099999999999870, -0.9335629921259841479 ) ) ;
#1003 = DIRECTION ( 'NONE',  ( 0.000000000000000000, -1.000000000000000000, 0.000000000000000000 ) ) ;
#1004 = ADVANCED_FACE ( 'NONE', ( #859 ), #123, .F. ) ;
#1005 = ORIENTED_EDGE ( 'NONE', *, *, #765, .F. ) ;
#1006 = CARTESIAN_POINT ( 'NONE',  ( -5.924999999999999822, 1.741099999999999870, -0.9335629921259841479 ) ) ;
#1007 = CARTESIAN_POINT ( 'NONE',  ( -5.924999999999999822, 2.000000000000000000, 1.499999999999999778 ) ) ;
#1008 = FACE_BOUND ( 'NONE', #997, .T. ) ;
#1009 = VERTEX_POINT ( 'NONE', #10 ) ;
#1010 = DIRECTION ( 'NONE',  ( 0.000000000000000000, -1.000000000000000000, 0.000000000000000000 ) ) ;
#1011 = VECTOR ( 'NONE', #580, 39.37007874015748143 ) ;
#1012 = DIRECTION ( 'NONE',  ( -0.000000000000000000, -1.000000000000000000, -0.000000000000000000 ) ) ;
#1013 = EDGE_LOOP ( 'NONE', ( #974, #620, #516, #120 ) ) ;
#1014 = AXIS2_PLACEMENT_3D ( 'NONE', #957, #486, #973 ) ;
#1015 = ORIENTED_EDGE ( 'NONE', *, *, #663, .T. ) ;
#1016 = CARTESIAN_POINT ( 'NONE',  ( 5.924999999999999822, 1.741099999999999870, -1.066437007874015741 ) ) ;
#1017 = DIRECTION ( 'NONE',  ( 0.000000000000000000, 0.000000000000000000, -1.000000000000000000 ) ) ;
#1018 = ORIENTED_EDGE ( 'NONE', *, *, #238, .T. ) ;
#1019 = ORIENTED_EDGE ( 'NONE', *, *, #728, .T. ) ;
#1020 = CARTESIAN_POINT ( 'NONE',  ( -5.924999999999999822, 1.741099999999999870, 0.9335629921259841479 ) ) ;
#1021 = FACE_OUTER_BOUND ( 'NONE', #637, .T. ) ;
#1022 = ORIENTED_EDGE ( 'NONE', *, *, #507, .T. ) ;
#1023 = EDGE_CURVE ( 'NONE', #890, #689, #992, .T. ) ;
#1024 = VERTEX_POINT ( 'NONE', #168 ) ;
#1025 = CARTESIAN_POINT ( 'NONE',  ( -4.173228346456692606, -0.2500000000000000000, -0.4173228346456689386 ) ) ;
#1026 = DIRECTION ( 'NONE',  ( 0.000000000000000000, 0.000000000000000000, 1.000000000000000000 ) ) ;
#1027 = ADVANCED_FACE ( 'NONE', ( #442, #1008, #99 ), #194, .T. ) ;
#1028 = VERTEX_POINT ( 'NONE', #778 ) ;
#1029 = DIRECTION ( 'NONE',  ( 1.000000000000000000, -0.000000000000000000, -0.000000000000000000 ) ) ;
#1030 = ORIENTED_EDGE ( 'NONE', *, *, #282, .T. ) ;
#1031 = DIRECTION ( 'NONE',  ( -1.000000000000000000, -0.000000000000000000, -0.000000000000000000 ) ) ;
#1032 = CYLINDRICAL_SURFACE ( 'NONE', #847, 0.06643700787401581043 ) ;
#1033 = CIRCLE ( 'NONE', #41, 0.2000000000000000389 ) ;
#1034 = LINE ( 'NONE', #226, #1056 ) ;
#1035 =( NAMED_UNIT ( * ) SI_UNIT ( $, .STERADIAN. ) SOLID_ANGLE_UNIT ( ) );
#1036 = VERTEX_POINT ( 'NONE', #532 ) ;
#1037 = FACE_BOUND ( 'NONE', #751, .T. ) ;
#1038 = EDGE_CURVE ( 'NONE', #262, #1054, #942, .T. ) ;
#1039 = FACE_BOUND ( 'NONE', #858, .T. ) ;
#1040 = CARTESIAN_POINT ( 'NONE',  ( 5.825000000000000178, 2.000000000000000000, 1.499999999999998446 ) ) ;
#1041 = CARTESIAN_POINT ( 'NONE',  ( 6.224999999999999645, -0.2500000000000000000, 1.750000000000001110 ) ) ;
#1042 = DIRECTION ( 'NONE',  ( 0.000000000000000000, -1.000000000000000000, 0.000000000000000000 ) ) ;
#1043 = CARTESIAN_POINT ( 'NONE',  ( -6.224999999999999645, 2.000000000000000000, 1.550000000000002487 ) ) ;
#1044 = AXIS2_PLACEMENT_3D ( 'NONE', #955, #709, #546 ) ;
#1045 = AXIS2_PLACEMENT_3D ( 'NONE', #785, #1029, #221 ) ;
#1046 = DIMENSIONAL_EXPONENTS ( 1.000000000000000000, 0.000000000000000000, 0.000000000000000000, 0.000000000000000000, 0.000000000000000000, 0.000000000000000000, 0.000000000000000000 ) ;
#1047 = ORIENTED_EDGE ( 'NONE', *, *, #976, .T. ) ;
#1048 = EDGE_CURVE ( 'NONE', #1024, #72, #648, .T. ) ;
#1049 = CARTESIAN_POINT ( 'NONE',  ( -5.924999999999999822, 2.000000000000000000, 1.499999999999999778 ) ) ;
#1050 = LINE ( 'NONE', #321, #703 ) ;
#1051 = EDGE_CURVE ( 'NONE', #783, #741, #52, .T. ) ;
#1052 = VERTEX_POINT ( 'NONE', #865 ) ;
#1053 = EDGE_CURVE ( 'NONE', #809, #823, #952, .T. ) ;
#1054 = VERTEX_POINT ( 'NONE', #222 ) ;
#1055 = DIRECTION ( 'NONE',  ( 0.000000000000000000, 0.000000000000000000, 1.000000000000000000 ) ) ;
#1056 = VECTOR ( 'NONE', #469, 39.37007874015748143 ) ;
#1057 = AXIS2_PLACEMENT_3D ( 'NONE', #38, #363, #626 ) ;
#1058 = DIRECTION ( 'NONE',  ( 0.000000000000000000, -1.000000000000000000, 0.000000000000000000 ) ) ;
#1059 = DIRECTION ( 'NONE',  ( 0.000000000000000000, 0.000000000000000000, 1.000000000000000000 ) ) ;
ENDSEC;
END-ISO-10303-21;
