ISO-10303-21;
HEADER;
FILE_DESCRIPTION (( 'STEP AP214' ),
    '1' );
FILE_NAME ('housing_left.STEP',
    '2026-05-25T23:23:19',
    ( '' ),
    ( '' ),
    'SwSTEP 2.0',
    'SolidWorks 2025',
    '' );
FILE_SCHEMA (( 'AUTOMOTIVE_DESIGN' ));
ENDSEC;

DATA;
#1 = FACE_OUTER_BOUND ( 'NONE', #232, .T. ) ;
#2 = ORIENTED_EDGE ( 'NONE', *, *, #449, .T. ) ;
#3 = AXIS2_PLACEMENT_3D ( 'NONE', #451, #852, #531 ) ;
#4 = EDGE_CURVE ( 'NONE', #553, #740, #544, .T. ) ;
#5 = CIRCLE ( 'NONE', #911, 0.1250000000000000278 ) ;
#6 = CARTESIAN_POINT ( 'NONE',  ( 0.000000000000000000, 0.000000000000000000, 1.499999999999999334 ) ) ;
#7 = DIRECTION ( 'NONE',  ( 0.000000000000000000, 0.000000000000000000, 1.000000000000000000 ) ) ;
#8 = DIRECTION ( 'NONE',  ( -1.000000000000000000, -0.000000000000000000, -0.000000000000000000 ) ) ;
#9 = EDGE_CURVE ( 'NONE', #816, #349, #380, .T. ) ;
#10 = CARTESIAN_POINT ( 'NONE',  ( -5.924999999999999822, 1.750000000000000000, 1.102362204724409711 ) ) ;
#11 = EDGE_CURVE ( 'NONE', #757, #836, #597, .T. ) ;
#12 = CARTESIAN_POINT ( 'NONE',  ( -5.924999999999999822, 2.000000000000000000, 1.499999999999999778 ) ) ;
#13 = CARTESIAN_POINT ( 'NONE',  ( 0.5000000000000000000, -0.2000000000000069778, 1.000000000000000222 ) ) ;
#14 = EDGE_LOOP ( 'NONE', ( #311, #521, #303, #529 ) ) ;
#15 = CARTESIAN_POINT ( 'NONE',  ( -5.825000000000000178, 2.000000000000000000, -1.399999999999997025 ) ) ;
#16 = PRODUCT_DEFINITION_CONTEXT ( 'detailed design', #331, 'design' ) ;
#17 = DIRECTION ( 'NONE',  ( -0.000000000000000000, -1.000000000000000000, -0.000000000000000000 ) ) ;
#18 = CARTESIAN_POINT ( 'NONE',  ( 0.000000000000000000, -0.2000000000000083378, -0.9999999999999998890 ) ) ;
#19 = VECTOR ( 'NONE', #595, 39.37007874015748143 ) ;
#20 = CARTESIAN_POINT ( 'NONE',  ( -4.173228346456692606, 2.000000000000000000, 0.4173228346456689386 ) ) ;
#21 = DIRECTION ( 'NONE',  ( 0.000000000000000000, 0.000000000000000000, 1.000000000000000000 ) ) ;
#22 = DIRECTION ( 'NONE',  ( 1.000000000000000000, -0.000000000000000000, -0.000000000000000000 ) ) ;
#23 = DIRECTION ( 'NONE',  ( -1.000000000000000000, -0.000000000000000000, -0.000000000000000000 ) ) ;
#24 = CARTESIAN_POINT ( 'NONE',  ( -6.424999999999998934, 2.000000000000000000, 1.750000000000002665 ) ) ;
#25 = CARTESIAN_POINT ( 'NONE',  ( -5.924999999999999822, 1.750000000000000000, 0.8976377952755908440 ) ) ;
#26 = DIRECTION ( 'NONE',  ( 0.000000000000000000, 0.000000000000000000, -1.000000000000000000 ) ) ;
#27 = VECTOR ( 'NONE', #413, 39.37007874015748143 ) ;
#28 = CARTESIAN_POINT ( 'NONE',  ( -5.825000000000000178, 0.000000000000000000, 1.399999999999999911 ) ) ;
#29 = FACE_OUTER_BOUND ( 'NONE', #969, .T. ) ;
#30 = DIRECTION ( 'NONE',  ( 0.000000000000000000, 0.000000000000000000, -1.000000000000000000 ) ) ;
#31 = ORIENTED_EDGE ( 'NONE', *, *, #684, .F. ) ;
#32 = MECHANICAL_DESIGN_GEOMETRIC_PRESENTATION_REPRESENTATION (  '', ( #476 ), #594 ) ;
#33 = CIRCLE ( 'NONE', #661, 0.1220472440944882775 ) ;
#34 = CLOSED_SHELL ( 'NONE', ( #683, #428, #707, #900, #225, #539, #509, #510, #688, #321, #606, #724, #98, #163, #119, #822, #579, #86, #867, #647, #907, #193, #786, #80, #393, #41, #504, #153, #860, #766, #691 ) ) ;
#35 = CARTESIAN_POINT ( 'NONE',  ( 0.000000000000000000, -0.4000000000000000222, 0.000000000000000000 ) ) ;
#36 = AXIS2_PLACEMENT_3D ( 'NONE', #164, #783, #95 ) ;
#37 = DIRECTION ( 'NONE',  ( 1.000000000000000000, 0.000000000000000000, 0.000000000000000000 ) ) ;
#38 = DIRECTION ( 'NONE',  ( 0.000000000000000000, -1.000000000000000000, 0.000000000000000000 ) ) ;
#39 = EDGE_LOOP ( 'NONE', ( #621, #200 ) ) ;
#40 = EDGE_CURVE ( 'NONE', #763, #485, #478, .T. ) ;
#41 = ADVANCED_FACE ( 'NONE', ( #432 ), #378, .T. ) ;
#42 = LINE ( 'NONE', #111, #596 ) ;
#43 = PLANE ( 'NONE',  #374 ) ;
#44 = ORIENTED_EDGE ( 'NONE', *, *, #815, .T. ) ;
#45 = CYLINDRICAL_SURFACE ( 'NONE', #696, 0.1000000000000000194 ) ;
#46 = EDGE_CURVE ( 'NONE', #960, #920, #676, .T. ) ;
#47 = EDGE_CURVE ( 'NONE', #267, #79, #778, .T. ) ;
#48 = CARTESIAN_POINT ( 'NONE',  ( 0.000000000000000000, 0.000000000000000000, 0.000000000000000000 ) ) ;
#49 = ORIENTED_EDGE ( 'NONE', *, *, #973, .T. ) ;
#50 = DIRECTION ( 'NONE',  ( -1.000000000000000000, -0.000000000000000000, -0.000000000000000000 ) ) ;
#51 = ORIENTED_EDGE ( 'NONE', *, *, #612, .F. ) ;
#52 = CARTESIAN_POINT ( 'NONE',  ( 0.000000000000000000, 2.000000000000000000, 1.499999999999999334 ) ) ;
#53 = DIRECTION ( 'NONE',  ( 0.000000000000000000, 0.000000000000000000, 1.000000000000000000 ) ) ;
#54 = EDGE_CURVE ( 'NONE', #210, #577, #734, .T. ) ;
#55 = AXIS2_PLACEMENT_3D ( 'NONE', #623, #244, #268 ) ;
#56 = DIRECTION ( 'NONE',  ( -1.000000000000000000, -0.000000000000000000, -0.000000000000000000 ) ) ;
#57 = ORIENTED_EDGE ( 'NONE', *, *, #166, .T. ) ;
#58 = EDGE_CURVE ( 'NONE', #220, #920, #715, .T. ) ;
#59 = EDGE_LOOP ( 'NONE', ( #277, #195 ) ) ;
#60 = CARTESIAN_POINT ( 'NONE',  ( -5.924999999999999822, 1.750000000000000000, -0.8976377952755908440 ) ) ;
#61 = ORIENTED_EDGE ( 'NONE', *, *, #366, .T. ) ;
#62 = ORIENTED_EDGE ( 'NONE', *, *, #965, .T. ) ;
#63 = DIRECTION ( 'NONE',  ( 0.000000000000000000, 0.000000000000000000, -1.000000000000000000 ) ) ;
#64 = LINE ( 'NONE', #288, #450 ) ;
#65 = FACE_OUTER_BOUND ( 'NONE', #360, .T. ) ;
#66 = EDGE_LOOP ( 'NONE', ( #206, #2 ) ) ;
#67 = VERTEX_POINT ( 'NONE', #346 ) ;
#68 = AXIS2_PLACEMENT_3D ( 'NONE', #508, #821, #132 ) ;
#69 = CARTESIAN_POINT ( 'NONE',  ( 0.5000000000000000000, -0.2000000000000000111, 1.365923996832131609E-16 ) ) ;
#70 = CIRCLE ( 'NONE', #55, 0.2000000000000000389 ) ;
#71 = ORIENTED_EDGE ( 'NONE', *, *, #255, .F. ) ;
#72 = CIRCLE ( 'NONE', #626, 0.1023622047244093780 ) ;
#73 = ORIENTED_EDGE ( 'NONE', *, *, #47, .F. ) ;
#74 = DIRECTION ( 'NONE',  ( 0.000000000000000000, -1.000000000000000000, 0.000000000000000000 ) ) ;
#75 = EDGE_CURVE ( 'NONE', #299, #363, #942, .T. ) ;
#76 = CARTESIAN_POINT ( 'NONE',  ( -4.173228346456692606, 0.000000000000000000, -0.1732283464566923836 ) ) ;
#77 = VERTEX_POINT ( 'NONE', #851 ) ;
#78 = EDGE_LOOP ( 'NONE', ( #51, #808, #682, #945 ) ) ;
#79 = VERTEX_POINT ( 'NONE', #104 ) ;
#80 = ADVANCED_FACE ( 'NONE', ( #697, #858, #788 ), #402, .F. ) ;
#81 = EDGE_CURVE ( 'NONE', #951, #424, #629, .T. ) ;
#82 = PLANE ( 'NONE',  #694 ) ;
#83 = ORIENTED_EDGE ( 'NONE', *, *, #40, .T. ) ;
#84 = VERTEX_POINT ( 'NONE', #652 ) ;
#85 = DIRECTION ( 'NONE',  ( -1.152678478339351656E-16, 0.000000000000000000, -1.000000000000000000 ) ) ;
#86 = ADVANCED_FACE ( 'NONE', ( #97 ), #779, .T. ) ;
#87 = EDGE_LOOP ( 'NONE', ( #904, #532, #31, #135 ) ) ;
#88 = VECTOR ( 'NONE', #467, 39.37007874015748143 ) ;
#89 = AXIS2_PLACEMENT_3D ( 'NONE', #871, #22, #477 ) ;
#90 = EDGE_CURVE ( 'NONE', #79, #267, #157, .T. ) ;
#91 = DIRECTION ( 'NONE',  ( 0.000000000000000000, -1.000000000000000000, 0.000000000000000000 ) ) ;
#92 = DIRECTION ( 'NONE',  ( 0.000000000000000000, 0.000000000000000000, -1.000000000000000000 ) ) ;
#93 = CARTESIAN_POINT ( 'NONE',  ( 6.214524036391342321, 1.750000000000000000, 0.8976377952755908440 ) ) ;
#94 = ORIENTED_EDGE ( 'NONE', *, *, #160, .T. ) ;
#95 = DIRECTION ( 'NONE',  ( 1.000000000000000000, 0.000000000000000000, -1.152678478339351656E-16 ) ) ;
#96 = DIRECTION ( 'NONE',  ( -1.000000000000000000, -0.000000000000000000, 1.275571047625337126E-16 ) ) ;
#97 = FACE_OUTER_BOUND ( 'NONE', #113, .T. ) ;
#98 = ADVANCED_FACE ( 'NONE', ( #933, #619, #177 ), #386, .T. ) ;
#99 = CYLINDRICAL_SURFACE ( 'NONE', #732, 0.1250000000000000278 ) ;
#100 = DIRECTION ( 'NONE',  ( 0.000000000000000000, 0.000000000000000000, -1.000000000000000000 ) ) ;
#101 = DIRECTION ( 'NONE',  ( -1.000000000000000000, -0.000000000000000000, 1.152678478339351656E-16 ) ) ;
#102 = CIRCLE ( 'NONE', #3, 0.1023622047244093780 ) ;
#103 = AXIS2_PLACEMENT_3D ( 'NONE', #328, #655, #640 ) ;
#104 = CARTESIAN_POINT ( 'NONE',  ( 0.000000000000000000, -0.2000000000000069778, 1.125000000000000222 ) ) ;
#105 = DIRECTION ( 'NONE',  ( 0.000000000000000000, 0.000000000000000000, 1.000000000000000000 ) ) ;
#106 = LINE ( 'NONE', #405, #215 ) ;
#107 = CARTESIAN_POINT ( 'NONE',  ( -4.173228346456692606, 2.000000000000000000, -0.4173228346456689386 ) ) ;
#108 = ORIENTED_EDGE ( 'NONE', *, *, #40, .F. ) ;
#109 = CARTESIAN_POINT ( 'NONE',  ( 0.000000000000000000, -0.2000000000000000111, 1.365923996832131609E-16 ) ) ;
#110 = CARTESIAN_POINT ( 'NONE',  ( 0.000000000000000000, 0.000000000000000000, 0.000000000000000000 ) ) ;
#111 = CARTESIAN_POINT ( 'NONE',  ( -5.924999999999999822, 0.000000000000000000, 1.499999999999999778 ) ) ;
#112 = FACE_BOUND ( 'NONE', #845, .T. ) ;
#113 = EDGE_LOOP ( 'NONE', ( #810, #627, #644, #995 ) ) ;
#114 = CYLINDRICAL_SURFACE ( 'NONE', #530, 0.2000000000000000389 ) ;
#115 = CARTESIAN_POINT ( 'NONE',  ( 0.5000000000000000000, -0.2000000000000083378, -0.9999999999999998890 ) ) ;
#116 = CARTESIAN_POINT ( 'NONE',  ( -5.924999999999999822, 1.750000000000000000, 1.000000000000000222 ) ) ;
#117 = DIRECTION ( 'NONE',  ( 1.000000000000000000, 0.000000000000000000, 0.000000000000000000 ) ) ;
#118 = VERTEX_POINT ( 'NONE', #6 ) ;
#119 = ADVANCED_FACE ( 'NONE', ( #390 ), #313, .T. ) ;
#120 = FACE_OUTER_BOUND ( 'NONE', #291, .T. ) ;
#121 = CIRCLE ( 'NONE', #243, 0.2000000000000000389 ) ;
#122 = DIRECTION ( 'NONE',  ( 1.000000000000000000, 0.000000000000000000, -1.152678478339351656E-16 ) ) ;
#123 = CARTESIAN_POINT ( 'NONE',  ( 0.5000000000000000000, -0.2000000000000083378, -1.124999999999999778 ) ) ;
#124 = ORIENTED_EDGE ( 'NONE', *, *, #423, .T. ) ;
#125 = EDGE_CURVE ( 'NONE', #292, #997, #869, .T. ) ;
#126 = ORIENTED_EDGE ( 'NONE', *, *, #533, .F. ) ;
#127 = FACE_OUTER_BOUND ( 'NONE', #582, .T. ) ;
#128 = PRODUCT_DEFINITION_SHAPE ( 'NONE', 'NONE',  #276 ) ;
#129 = ORIENTED_EDGE ( 'NONE', *, *, #908, .T. ) ;
#130 = LINE ( 'NONE', #425, #173 ) ;
#131 = ORIENTED_EDGE ( 'NONE', *, *, #503, .F. ) ;
#132 = DIRECTION ( 'NONE',  ( 0.000000000000000000, 0.000000000000000000, -1.000000000000000000 ) ) ;
#133 = PRODUCT_CONTEXT ( 'NONE', #134, 'mechanical' ) ;
#134 = APPLICATION_CONTEXT ( 'automotive_design' ) ;
#135 = ORIENTED_EDGE ( 'NONE', *, *, #46, .F. ) ;
#136 = VERTEX_POINT ( 'NONE', #322 ) ;
#137 = CARTESIAN_POINT ( 'NONE',  ( -6.225000000000000533, -0.4000000000000000222, 1.750000000000002665 ) ) ;
#138 = AXIS2_PLACEMENT_3D ( 'NONE', #240, #461, #839 ) ;
#139 = AXIS2_PLACEMENT_3D ( 'NONE', #702, #546, #63 ) ;
#140 = AXIS2_PLACEMENT_3D ( 'NONE', #175, #536, #170 ) ;
#141 = CARTESIAN_POINT ( 'NONE',  ( -6.224999999999999645, 2.000000000000000000, -1.549999999999999378 ) ) ;
#142 = ORIENTED_EDGE ( 'NONE', *, *, #125, .F. ) ;
#143 = VERTEX_POINT ( 'NONE', #625 ) ;
#144 = CARTESIAN_POINT ( 'NONE',  ( -6.224999999999999645, 2.000000000000000000, 1.550000000000002487 ) ) ;
#145 = CARTESIAN_POINT ( 'NONE',  ( 6.214524036391342321, 1.750000000000000000, -1.102362204724409711 ) ) ;
#146 = VERTEX_POINT ( 'NONE', #456 ) ;
#147 = ORIENTED_EDGE ( 'NONE', *, *, #47, .T. ) ;
#148 = AXIS2_PLACEMENT_3D ( 'NONE', #635, #38, #568 ) ;
#149 = CARTESIAN_POINT ( 'NONE',  ( 0.5000000000000000000, -0.2000000000000083378, -0.8749999999999997780 ) ) ;
#150 = EDGE_CURVE ( 'NONE', #750, #889, #251, .T. ) ;
#151 = ORIENTED_EDGE ( 'NONE', *, *, #974, .F. ) ;
#152 = ORIENTED_EDGE ( 'NONE', *, *, #533, .T. ) ;
#153 = ADVANCED_FACE ( 'NONE', ( #939 ), #772, .T. ) ;
#154 = CIRCLE ( 'NONE', #138, 0.1250000000000000278 ) ;
#155 = DIRECTION ( 'NONE',  ( -0.000000000000000000, -1.000000000000000000, -0.000000000000000000 ) ) ;
#156 = ORIENTED_EDGE ( 'NONE', *, *, #610, .T. ) ;
#157 = CIRCLE ( 'NONE', #217, 0.1250000000000000278 ) ;
#158 = ORIENTED_EDGE ( 'NONE', *, *, #573, .F. ) ;
#159 = EDGE_CURVE ( 'NONE', #84, #349, #616, .T. ) ;
#160 = EDGE_CURVE ( 'NONE', #485, #201, #121, .T. ) ;
#161 = FACE_OUTER_BOUND ( 'NONE', #586, .T. ) ;
#162 = ORIENTED_EDGE ( 'NONE', *, *, #940, .T. ) ;
#163 = ADVANCED_FACE ( 'NONE', ( #422 ), #45, .F. ) ;
#164 = CARTESIAN_POINT ( 'NONE',  ( -5.924999999999999822, 2.000000000000000000, -1.499999999999997113 ) ) ;
#165 = CARTESIAN_POINT ( 'NONE',  ( -5.825000000000000178, 2.000000000000000000, 1.499999999999999778 ) ) ;
#166 = EDGE_CURVE ( 'NONE', #363, #189, #72, .T. ) ;
#167 = CARTESIAN_POINT ( 'NONE',  ( 0.5000000000000000000, -0.2000000000000000111, -0.1249999999999998612 ) ) ;
#168 = VECTOR ( 'NONE', #122, 39.37007874015748143 ) ;
#169 = FILL_AREA_STYLE ('',( #266 ) ) ;
#170 = DIRECTION ( 'NONE',  ( 0.000000000000000000, -0.000000000000000000, -1.000000000000000000 ) ) ;
#171 = LINE ( 'NONE', #685, #448 ) ;
#172 = VERTEX_POINT ( 'NONE', #60 ) ;
#173 = VECTOR ( 'NONE', #834, 39.37007874015748143 ) ;
#174 = CARTESIAN_POINT ( 'NONE',  ( 0.000000000000000000, -0.2000000000000069778, 0.8750000000000001110 ) ) ;
#175 = CARTESIAN_POINT ( 'NONE',  ( 0.000000000000000000, 0.000000000000000000, 0.000000000000000000 ) ) ;
#176 = DIRECTION ( 'NONE',  ( 0.000000000000000000, 0.000000000000000000, -1.000000000000000000 ) ) ;
#177 = FACE_OUTER_BOUND ( 'NONE', #941, .T. ) ;
#178 = CARTESIAN_POINT ( 'NONE',  ( -6.424999999999998934, 2.000000000000000000, -1.549999999999998268 ) ) ;
#179 = CYLINDRICAL_SURFACE ( 'NONE', #946, 0.1220472440944882775 ) ;
#180 = EDGE_CURVE ( 'NONE', #226, #849, #64, .T. ) ;
#181 = CARTESIAN_POINT ( 'NONE',  ( 0.000000000000000000, 2.000000000000000000, 0.000000000000000000 ) ) ;
#182 = DIRECTION ( 'NONE',  ( -1.000000000000000000, -0.000000000000000000, 0.000000000000000000 ) ) ;
#183 = CARTESIAN_POINT ( 'NONE',  ( -5.924999999999999822, 2.000000000000000000, -1.399999999999997025 ) ) ;
#184 = AXIS2_PLACEMENT_3D ( 'NONE', #141, #362, #665 ) ;
#185 = VECTOR ( 'NONE', #729, 39.37007874015748143 ) ;
#186 = CYLINDRICAL_SURFACE ( 'NONE', #938, 0.1000000000000000194 ) ;
#187 = CARTESIAN_POINT ( 'NONE',  ( -4.173228346456692606, 0.000000000000000000, 0.2952755905511806889 ) ) ;
#188 = CARTESIAN_POINT ( 'NONE',  ( 0.000000000000000000, 2.000000000000000000, 0.000000000000000000 ) ) ;
#189 = VERTEX_POINT ( 'NONE', #673 ) ;
#190 = EDGE_CURVE ( 'NONE', #816, #889, #203, .T. ) ;
#191 = FACE_OUTER_BOUND ( 'NONE', #410, .T. ) ;
#192 = CARTESIAN_POINT ( 'NONE',  ( -6.424999999999998934, 2.000000000000000000, 1.550000000000002487 ) ) ;
#193 = ADVANCED_FACE ( 'NONE', ( #127 ), #658, .F. ) ;
#194 = FACE_OUTER_BOUND ( 'NONE', #998, .T. ) ;
#195 = ORIENTED_EDGE ( 'NONE', *, *, #799, .F. ) ;
#196 = DIRECTION ( 'NONE',  ( 0.000000000000000000, 0.000000000000000000, 1.000000000000000000 ) ) ;
#197 = CARTESIAN_POINT ( 'NONE',  ( -4.173228346456692606, 2.000000000000000000, -0.2952755905511806889 ) ) ;
#198 = VECTOR ( 'NONE', #354, 39.37007874015748143 ) ;
#199 = CARTESIAN_POINT ( 'NONE',  ( -4.173228346456692606, 0.000000000000000000, 0.4173228346456689386 ) ) ;
#200 = ORIENTED_EDGE ( 'NONE', *, *, #255, .T. ) ;
#201 = VERTEX_POINT ( 'NONE', #749 ) ;
#202 = AXIS2_PLACEMENT_3D ( 'NONE', #830, #368, #7 ) ;
#203 = LINE ( 'NONE', #361, #19 ) ;
#204 = EDGE_CURVE ( 'NONE', #349, #220, #809, .T. ) ;
#205 = ORIENTED_EDGE ( 'NONE', *, *, #535, .F. ) ;
#206 = ORIENTED_EDGE ( 'NONE', *, *, #332, .T. ) ;
#207 = DIRECTION ( 'NONE',  ( -0.000000000000000000, -1.000000000000000000, -0.000000000000000000 ) ) ;
#208 = DIRECTION ( 'NONE',  ( -0.000000000000000000, 1.000000000000000000, -0.000000000000000000 ) ) ;
#209 = DIRECTION ( 'NONE',  ( -1.000000000000000000, -0.000000000000000000, -0.000000000000000000 ) ) ;
#210 = VERTEX_POINT ( 'NONE', #990 ) ;
#211 = CYLINDRICAL_SURFACE ( 'NONE', #622, 0.1220472440944882775 ) ;
#212 = DIRECTION ( 'NONE',  ( 1.000000000000000000, 0.000000000000000000, 0.000000000000000000 ) ) ;
#213 = ORIENTED_EDGE ( 'NONE', *, *, #584, .F. ) ;
#214 = ORIENTED_EDGE ( 'NONE', *, *, #835, .T. ) ;
#215 = VECTOR ( 'NONE', #631, 39.37007874015748143 ) ;
#216 = VECTOR ( 'NONE', #74, 39.37007874015748143 ) ;
#217 = AXIS2_PLACEMENT_3D ( 'NONE', #395, #700, #92 ) ;
#218 = CYLINDRICAL_SURFACE ( 'NONE', #762, 0.1250000000000000278 ) ;
#219 = ORIENTED_EDGE ( 'NONE', *, *, #832, .F. ) ;
#220 = VERTEX_POINT ( 'NONE', #273 ) ;
#221 = VECTOR ( 'NONE', #719, 39.37007874015748143 ) ;
#222 = VERTEX_POINT ( 'NONE', #137 ) ;
#223 = ORIENTED_EDGE ( 'NONE', *, *, #835, .F. ) ;
#224 = LINE ( 'NONE', #93, #242 ) ;
#225 = ADVANCED_FACE ( 'NONE', ( #427 ), #211, .F. ) ;
#226 = VERTEX_POINT ( 'NONE', #499 ) ;
#227 = EDGE_LOOP ( 'NONE', ( #994, #726, #905, #692 ) ) ;
#228 = CARTESIAN_POINT ( 'NONE',  ( 0.000000000000000000, -0.2000000000000069778, 1.000000000000000222 ) ) ;
#229 = AXIS2_PLACEMENT_3D ( 'NONE', #13, #921, #379 ) ;
#230 = CARTESIAN_POINT ( 'NONE',  ( 0.000000000000000000, 2.000000000000000000, 1.750000000000001776 ) ) ;
#231 = ORIENTED_EDGE ( 'NONE', *, *, #610, .F. ) ;
#232 = EDGE_LOOP ( 'NONE', ( #898, #453, #124, #748 ) ) ;
#233 = DIRECTION ( 'NONE',  ( 0.000000000000000000, 0.000000000000000000, -1.000000000000000000 ) ) ;
#234 = EDGE_CURVE ( 'NONE', #146, #740, #493, .T. ) ;
#235 = EDGE_CURVE ( 'NONE', #77, #118, #434, .T. ) ;
#236 = CARTESIAN_POINT ( 'NONE',  ( -6.424999999999998934, 2.000000000000000000, -1.749999999999999334 ) ) ;
#237 = DIRECTION ( 'NONE',  ( 0.000000000000000000, -1.000000000000000000, 0.000000000000000000 ) ) ;
#238 = CYLINDRICAL_SURFACE ( 'NONE', #923, 0.1023622047244093780 ) ;
#239 = AXIS2_PLACEMENT_3D ( 'NONE', #668, #365, #505 ) ;
#240 = CARTESIAN_POINT ( 'NONE',  ( 0.5000000000000000000, -0.2000000000000083378, -0.9999999999999998890 ) ) ;
#241 = ORIENTED_EDGE ( 'NONE', *, *, #940, .F. ) ;
#242 = VECTOR ( 'NONE', #523, 39.37007874015748143 ) ;
#243 = AXIS2_PLACEMENT_3D ( 'NONE', #144, #293, #901 ) ;
#244 = DIRECTION ( 'NONE',  ( 0.000000000000000000, -1.000000000000000000, 0.000000000000000000 ) ) ;
#245 = CARTESIAN_POINT ( 'NONE',  ( 6.214524036391342321, 1.750000000000000000, 1.102362204724409711 ) ) ;
#246 = CARTESIAN_POINT ( 'NONE',  ( 0.000000000000000000, -0.2000000000000000111, -0.1249999999999998612 ) ) ;
#247 = CARTESIAN_POINT ( 'NONE',  ( -4.173228346456692606, 2.000000000000000000, 0.2952755905511806889 ) ) ;
#248 = DIRECTION ( 'NONE',  ( -1.000000000000000000, -0.000000000000000000, -0.000000000000000000 ) ) ;
#249 = ORIENTED_EDGE ( 'NONE', *, *, #403, .T. ) ;
#250 = EDGE_CURVE ( 'NONE', #889, #84, #977, .T. ) ;
#251 = LINE ( 'NONE', #181, #678 ) ;
#252 = FACE_OUTER_BOUND ( 'NONE', #227, .T. ) ;
#253 = CARTESIAN_POINT ( 'NONE',  ( -5.924999999999999822, 2.000000000000000000, 1.399999999999999911 ) ) ;
#254 = ORIENTED_EDGE ( 'NONE', *, *, #584, .T. ) ;
#255 = EDGE_CURVE ( 'NONE', #292, #951, #884, .T. ) ;
#256 = EDGE_CURVE ( 'NONE', #345, #753, #886, .T. ) ;
#257 = CARTESIAN_POINT ( 'NONE',  ( 0.5000000000000000000, -0.2000000000000000111, 1.365923996832131609E-16 ) ) ;
#258 = DIRECTION ( 'NONE',  ( -0.000000000000000000, -1.000000000000000000, -0.000000000000000000 ) ) ;
#259 = CARTESIAN_POINT ( 'NONE',  ( 0.5000000000000000000, -0.2000000000000069778, 0.8750000000000001110 ) ) ;
#260 = AXIS2_PLACEMENT_3D ( 'NONE', #704, #927, #609 ) ;
#261 = ORIENTED_EDGE ( 'NONE', *, *, #166, .F. ) ;
#262 = VECTOR ( 'NONE', #620, 39.37007874015748143 ) ;
#263 = VECTOR ( 'NONE', #101, 39.37007874015748143 ) ;
#264 = FACE_BOUND ( 'NONE', #522, .T. ) ;
#265 = DIRECTION ( 'NONE',  ( 0.000000000000000000, 0.000000000000000000, -1.000000000000000000 ) ) ;
#266 = FILL_AREA_STYLE_COLOUR ( '', #614 ) ;
#267 = VERTEX_POINT ( 'NONE', #174 ) ;
#268 = DIRECTION ( 'NONE',  ( 0.000000000000000000, 0.000000000000000000, -1.000000000000000000 ) ) ;
#269 = DIRECTION ( 'NONE',  ( 0.000000000000000000, 0.000000000000000000, 1.000000000000000000 ) ) ;
#270 = DIRECTION ( 'NONE',  ( 1.000000000000000000, 0.000000000000000000, -0.000000000000000000 ) ) ;
#271 = DIRECTION ( 'NONE',  ( -1.000000000000000000, -0.000000000000000000, -0.000000000000000000 ) ) ;
#272 = EDGE_LOOP ( 'NONE', ( #129, #421 ) ) ;
#273 = CARTESIAN_POINT ( 'NONE',  ( -5.924999999999999822, 0.000000000000000000, -1.399999999999995914 ) ) ;
#274 = CARTESIAN_POINT ( 'NONE',  ( -5.825000000000000178, 0.000000000000000000, 1.499999999999999778 ) ) ;
#275 = PLANE ( 'NONE',  #279 ) ;
#276 = PRODUCT_DEFINITION ( 'UNKNOWN', '', #723, #16 ) ;
#277 = ORIENTED_EDGE ( 'NONE', *, *, #234, .F. ) ;
#278 = ORIENTED_EDGE ( 'NONE', *, *, #90, .F. ) ;
#279 = AXIS2_PLACEMENT_3D ( 'NONE', #575, #117, #30 ) ;
#280 = DIRECTION ( 'NONE',  ( 0.000000000000000000, 0.000000000000000000, 1.000000000000000000 ) ) ;
#281 =( NAMED_UNIT ( * ) PLANE_ANGLE_UNIT ( ) SI_UNIT ( $, .RADIAN. ) );
#282 =( LENGTH_UNIT ( ) NAMED_UNIT ( * ) SI_UNIT ( $, .METRE. ) );
#283 = VERTEX_POINT ( 'NONE', #949 ) ;
#284 = CARTESIAN_POINT ( 'NONE',  ( -5.924999999999999822, 2.000000000000000000, -1.499999999999997113 ) ) ;
#285 = PLANE ( 'NONE',  #970 ) ;
#286 = ORIENTED_EDGE ( 'NONE', *, *, #574, .T. ) ;
#287 = ORIENTED_EDGE ( 'NONE', *, *, #204, .T. ) ;
#288 = CARTESIAN_POINT ( 'NONE',  ( 0.000000000000000000, -0.4000000000000000222, 0.000000000000000000 ) ) ;
#289 = CIRCLE ( 'NONE', #570, 0.1023622047244093780 ) ;
#290 = DIRECTION ( 'NONE',  ( 0.000000000000000000, 0.000000000000000000, 1.000000000000000000 ) ) ;
#291 = EDGE_LOOP ( 'NONE', ( #474, #126, #916, #151 ) ) ;
#292 = VERTEX_POINT ( 'NONE', #199 ) ;
#293 = DIRECTION ( 'NONE',  ( -0.000000000000000000, 1.000000000000000000, -0.000000000000000000 ) ) ;
#294 = VECTOR ( 'NONE', #789, 39.37007874015748143 ) ;
#295 = EDGE_CURVE ( 'NONE', #352, #757, #559, .T. ) ;
#296 = AXIS2_PLACEMENT_3D ( 'NONE', #755, #709, #325 ) ;
#297 = VECTOR ( 'NONE', #817, 39.37007874015748143 ) ;
#298 =( NAMED_UNIT ( * ) PLANE_ANGLE_UNIT ( ) SI_UNIT ( $, .RADIAN. ) );
#299 = VERTEX_POINT ( 'NONE', #10 ) ;
#300 = EDGE_LOOP ( 'NONE', ( #254, #607 ) ) ;
#301 = EDGE_CURVE ( 'NONE', #553, #143, #837, .T. ) ;
#302 = LINE ( 'NONE', #501, #909 ) ;
#303 = ORIENTED_EDGE ( 'NONE', *, *, #728, .T. ) ;
#304 = VERTEX_POINT ( 'NONE', #814 ) ;
#305 = LINE ( 'NONE', #935, #88 ) ;
#306 = ORIENTED_EDGE ( 'NONE', *, *, #180, .T. ) ;
#307 = ORIENTED_EDGE ( 'NONE', *, *, #357, .F. ) ;
#308 = DIRECTION ( 'NONE',  ( 1.000000000000000000, 0.000000000000000000, -0.000000000000000000 ) ) ;
#309 = CIRCLE ( 'NONE', #139, 0.2000000000000000389 ) ;
#310 = CARTESIAN_POINT ( 'NONE',  ( -6.424999999999998934, 2.000000000000000000, 1.750000000000002665 ) ) ;
#311 = ORIENTED_EDGE ( 'NONE', *, *, #574, .F. ) ;
#312 = ORIENTED_EDGE ( 'NONE', *, *, #535, .T. ) ;
#313 = PLANE ( 'NONE',  #36 ) ;
#314 = LINE ( 'NONE', #859, #556 ) ;
#315 = VERTEX_POINT ( 'NONE', #259 ) ;
#316 = DIRECTION ( 'NONE',  ( 0.000000000000000000, -1.000000000000000000, 0.000000000000000000 ) ) ;
#317 = DIRECTION ( 'NONE',  ( 0.000000000000000000, 0.000000000000000000, -1.000000000000000000 ) ) ;
#318 = CARTESIAN_POINT ( 'NONE',  ( -5.924999999999999822, 2.000000000000000000, 1.499999999999999778 ) ) ;
#319 = EDGE_LOOP ( 'NONE', ( #950, #687, #359, #989 ) ) ;
#320 = VECTOR ( 'NONE', #583, 39.37007874015748143 ) ;
#321 = ADVANCED_FACE ( 'NONE', ( #344 ), #43, .F. ) ;
#322 = CARTESIAN_POINT ( 'NONE',  ( -6.224999999999999645, -0.4000000000000000222, -1.749999999999999334 ) ) ;
#323 = VECTOR ( 'NONE', #915, 39.37007874015748143 ) ;
#324 = DIRECTION ( 'NONE',  ( 0.000000000000000000, -1.000000000000000000, 0.000000000000000000 ) ) ;
#325 = DIRECTION ( 'NONE',  ( 0.000000000000000000, 0.000000000000000000, -1.000000000000000000 ) ) ;
#326 = EDGE_CURVE ( 'NONE', #67, #394, #333, .T. ) ;
#327 = CARTESIAN_POINT ( 'NONE',  ( -5.825000000000000178, 2.000000000000000000, 1.399999999999999911 ) ) ;
#328 = CARTESIAN_POINT ( 'NONE',  ( -5.924999999999999822, 1.750000000000000000, 1.000000000000000222 ) ) ;
#329 = DIRECTION ( 'NONE',  ( -0.000000000000000000, 1.000000000000000000, -0.000000000000000000 ) ) ;
#330 = DIRECTION ( 'NONE',  ( -1.000000000000000000, 0.000000000000000000, -0.000000000000000000 ) ) ;
#331 = APPLICATION_CONTEXT ( 'automotive_design' ) ;
#332 = EDGE_CURVE ( 'NONE', #352, #576, #781, .T. ) ;
#333 = LINE ( 'NONE', #123, #221 ) ;
#334 = CARTESIAN_POINT ( 'NONE',  ( -6.424999999999998934, -0.4000000000000000222, -1.749999999999999334 ) ) ;
#335 = EDGE_CURVE ( 'NONE', #143, #146, #650, .T. ) ;
#336 = DIRECTION ( 'NONE',  ( 0.000000000000000000, 0.000000000000000000, 1.000000000000000000 ) ) ;
#337 = CARTESIAN_POINT ( 'NONE',  ( -5.924999999999999822, 1.750000000000000000, -1.000000000000000222 ) ) ;
#338 = CARTESIAN_POINT ( 'NONE',  ( 0.000000000000000000, -0.2000000000000083378, -1.124999999999999778 ) ) ;
#339 = AXIS2_PLACEMENT_3D ( 'NONE', #564, #618, #803 ) ;
#340 = ORIENTED_EDGE ( 'NONE', *, *, #11, .F. ) ;
#341 = AXIS2_PLACEMENT_3D ( 'NONE', #399, #872, #713 ) ;
#342 = FACE_OUTER_BOUND ( 'NONE', #78, .T. ) ;
#343 = CARTESIAN_POINT ( 'NONE',  ( -6.224999999999999645, 2.000000000000000000, 1.750000000000002665 ) ) ;
#344 = FACE_OUTER_BOUND ( 'NONE', #771, .T. ) ;
#345 = VERTEX_POINT ( 'NONE', #348 ) ;
#346 = CARTESIAN_POINT ( 'NONE',  ( 0.5000000000000000000, -0.2000000000000083378, -1.124999999999999778 ) ) ;
#347 = DIRECTION ( 'NONE',  ( 0.000000000000000000, 0.000000000000000000, 1.000000000000000000 ) ) ;
#348 = CARTESIAN_POINT ( 'NONE',  ( -6.424999999999998934, -0.4000000000000000222, 1.550000000000002487 ) ) ;
#349 = VERTEX_POINT ( 'NONE', #878 ) ;
#350 =( LENGTH_UNIT ( ) NAMED_UNIT ( * ) SI_UNIT ( $, .METRE. ) );
#351 = DIRECTION ( 'NONE',  ( 0.000000000000000000, 0.000000000000000000, 1.000000000000000000 ) ) ;
#352 = VERTEX_POINT ( 'NONE', #963 ) ;
#353 = VECTOR ( 'NONE', #430, 39.37007874015748143 ) ;
#354 = DIRECTION ( 'NONE',  ( 0.000000000000000000, -1.000000000000000000, 0.000000000000000000 ) ) ;
#355 = CIRCLE ( 'NONE', #479, 0.1000000000000000194 ) ;
#356 = APPLICATION_PROTOCOL_DEFINITION ( 'draft international standard', 'automotive_design', 1998, #331 ) ;
#357 = EDGE_CURVE ( 'NONE', #836, #757, #637, .T. ) ;
#358 = DIRECTION ( 'NONE',  ( 0.000000000000000000, -1.000000000000000000, 0.000000000000000000 ) ) ;
#359 = ORIENTED_EDGE ( 'NONE', *, *, #335, .T. ) ;
#360 = EDGE_LOOP ( 'NONE', ( #516, #774, #261, #894 ) ) ;
#361 = CARTESIAN_POINT ( 'NONE',  ( 0.000000000000000000, 2.000000000000000000, -1.499999999999997558 ) ) ;
#362 = DIRECTION ( 'NONE',  ( -0.000000000000000000, 1.000000000000000000, -0.000000000000000000 ) ) ;
#363 = VERTEX_POINT ( 'NONE', #385 ) ;
#364 = ORIENTED_EDGE ( 'NONE', *, *, #54, .T. ) ;
#365 = DIRECTION ( 'NONE',  ( -0.000000000000000000, -1.000000000000000000, -0.000000000000000000 ) ) ;
#366 = EDGE_CURVE ( 'NONE', #672, #849, #409, .T. ) ;
#367 = CARTESIAN_POINT ( 'NONE',  ( -5.924999999999999822, 1.750000000000000000, -1.102362204724409711 ) ) ;
#368 = DIRECTION ( 'NONE',  ( -1.000000000000000000, -0.000000000000000000, -0.000000000000000000 ) ) ;
#369 = EDGE_LOOP ( 'NONE', ( #370, #769, #613, #669 ) ) ;
#370 = ORIENTED_EDGE ( 'NONE', *, *, #449, .F. ) ;
#371 = DIRECTION ( 'NONE',  ( 0.000000000000000000, 0.000000000000000000, 1.000000000000000000 ) ) ;
#372 = ORIENTED_EDGE ( 'NONE', *, *, #235, .F. ) ;
#373 = ORIENTED_EDGE ( 'NONE', *, *, #718, .F. ) ;
#374 = AXIS2_PLACEMENT_3D ( 'NONE', #188, #480, #798 ) ;
#375 = DIRECTION ( 'NONE',  ( 1.000000000000000000, 0.000000000000000000, -1.275571047625337126E-16 ) ) ;
#376 = VERTEX_POINT ( 'NONE', #25 ) ;
#377 = ORIENTED_EDGE ( 'NONE', *, *, #498, .T. ) ;
#378 = CYLINDRICAL_SURFACE ( 'NONE', #826, 0.1250000000000000000 ) ;
#379 = DIRECTION ( 'NONE',  ( 0.000000000000000000, 0.000000000000000000, -1.000000000000000000 ) ) ;
#380 = LINE ( 'NONE', #861, #263 ) ;
#381 = DIRECTION ( 'NONE',  ( -0.000000000000000000, -0.000000000000000000, 1.000000000000000000 ) ) ;
#382 = AXIS2_PLACEMENT_3D ( 'NONE', #751, #670, #290 ) ;
#383 = PLANE ( 'NONE',  #875 ) ;
#384 = AXIS2_PLACEMENT_3D ( 'NONE', #686, #270, #347 ) ;
#385 = CARTESIAN_POINT ( 'NONE',  ( -6.424999999999998934, 1.750000000000000000, 1.102362204724409711 ) ) ;
#386 = PLANE ( 'NONE',  #401 ) ;
#387 = DIRECTION ( 'NONE',  ( 1.275571047625337126E-16, -0.000000000000000000, 1.000000000000000000 ) ) ;
#388 = CARTESIAN_POINT ( 'NONE',  ( 0.000000000000000000, 0.000000000000000000, -1.499999999999997558 ) ) ;
#389 = EDGE_CURVE ( 'NONE', #424, #997, #730, .T. ) ;
#390 = FACE_OUTER_BOUND ( 'NONE', #924, .T. ) ;
#391 = CARTESIAN_POINT ( 'NONE',  ( -6.424999999999998934, 1.750000000000000000, -1.102362204724409711 ) ) ;
#392 = VECTOR ( 'NONE', #414, 39.37007874015748143 ) ;
#393 = ADVANCED_FACE ( 'NONE', ( #112, #968, #725, #194 ), #275, .T. ) ;
#394 = VERTEX_POINT ( 'NONE', #338 ) ;
#395 = CARTESIAN_POINT ( 'NONE',  ( 0.000000000000000000, -0.2000000000000069778, 1.000000000000000222 ) ) ;
#396 = CYLINDRICAL_SURFACE ( 'NONE', #824, 0.1250000000000000000 ) ;
#397 = VECTOR ( 'NONE', #56, 39.37007874015748143 ) ;
#398 = CARTESIAN_POINT ( 'NONE',  ( -5.924999999999999822, 2.000000000000000000, 1.499999999999999778 ) ) ;
#399 = CARTESIAN_POINT ( 'NONE',  ( -4.173228346456692606, -0.4000000000000000222, -0.2952755905511806889 ) ) ;
#400 = MANIFOLD_SOLID_BREP ( 'Boss-Extrude1', #34 ) ;
#401 = AXIS2_PLACEMENT_3D ( 'NONE', #12, #847, #317 ) ;
#402 = PLANE ( 'NONE',  #140 ) ;
#403 = EDGE_CURVE ( 'NONE', #77, #672, #130, .T. ) ;
#404 = CYLINDRICAL_SURFACE ( 'NONE', #855, 0.1250000000000000278 ) ;
#405 = CARTESIAN_POINT ( 'NONE',  ( 6.424999999999998934, -0.4000000000000000222, 1.750000000000001110 ) ) ;
#406 = CARTESIAN_POINT ( 'NONE',  ( -4.173228346456692606, 0.000000000000000000, -0.2952755905511806889 ) ) ;
#407 = DIRECTION ( 'NONE',  ( 1.000000000000000000, 0.000000000000000000, 0.000000000000000000 ) ) ;
#408 = CARTESIAN_POINT ( 'NONE',  ( 0.000000000000000000, -0.4000000000000000222, 1.750000000000001776 ) ) ;
#409 = LINE ( 'NONE', #854, #744 ) ;
#410 = EDGE_LOOP ( 'NONE', ( #840, #306, #735, #44, #636, #561 ) ) ;
#411 = CARTESIAN_POINT ( 'NONE',  ( -6.224999999999999645, 2.000000000000000000, -1.549999999999999378 ) ) ;
#412 = CARTESIAN_POINT ( 'NONE',  ( -6.424999999999998934, 2.000000000000000000, -1.549999999999999378 ) ) ;
#413 = DIRECTION ( 'NONE',  ( 0.000000000000000000, 1.000000000000000000, -0.000000000000000000 ) ) ;
#414 = DIRECTION ( 'NONE',  ( -0.000000000000000000, -1.000000000000000000, -0.000000000000000000 ) ) ;
#415 = AXIS2_PLACEMENT_3D ( 'NONE', #722, #37, #567 ) ;
#416 = AXIS2_PLACEMENT_3D ( 'NONE', #228, #527, #233 ) ;
#417 = AXIS2_PLACEMENT_3D ( 'NONE', #929, #237, #466 ) ;
#418 = CARTESIAN_POINT ( 'NONE',  ( -4.173228346456692606, -0.4000000000000000222, -0.4173228346456689386 ) ) ;
#419 = CARTESIAN_POINT ( 'NONE',  ( 0.000000000000000000, 2.000000000000000000, -1.499999999999997558 ) ) ;
#420 = CARTESIAN_POINT ( 'NONE',  ( -6.424999999999998934, -0.4000000000000000222, 1.750000000000002665 ) ) ;
#421 = ORIENTED_EDGE ( 'NONE', *, *, #862, .T. ) ;
#422 = FACE_OUTER_BOUND ( 'NONE', #843, .T. ) ;
#423 = EDGE_CURVE ( 'NONE', #136, #444, #642, .T. ) ;
#424 = VERTEX_POINT ( 'NONE', #992 ) ;
#425 = CARTESIAN_POINT ( 'NONE',  ( 0.000000000000000000, 2.000000000000000000, 0.000000000000000000 ) ) ;
#426 = ORIENTED_EDGE ( 'NONE', *, *, #9, .T. ) ;
#427 = FACE_OUTER_BOUND ( 'NONE', #369, .T. ) ;
#428 = ADVANCED_FACE ( 'NONE', ( #600 ), #218, .T. ) ;
#429 = ORIENTED_EDGE ( 'NONE', *, *, #728, .F. ) ;
#430 = DIRECTION ( 'NONE',  ( 1.000000000000000000, 0.000000000000000000, -1.275571047625337126E-16 ) ) ;
#431 = VERTEX_POINT ( 'NONE', #149 ) ;
#432 = FACE_OUTER_BOUND ( 'NONE', #319, .T. ) ;
#433 = ORIENTED_EDGE ( 'NONE', *, *, #573, .T. ) ;
#434 = LINE ( 'NONE', #52, #198 ) ;
#435 = VECTOR ( 'NONE', #736, 39.37007874015748143 ) ;
#436 = EDGE_CURVE ( 'NONE', #143, #553, #528, .T. ) ;
#437 = DIRECTION ( 'NONE',  ( 0.000000000000000000, 0.000000000000000000, -1.000000000000000000 ) ) ;
#438 = EDGE_LOOP ( 'NONE', ( #57, #214 ) ) ;
#439 = EDGE_CURVE ( 'NONE', #1001, #577, #517, .T. ) ;
#440 = ORIENTED_EDGE ( 'NONE', *, *, #684, .T. ) ;
#441 = CARTESIAN_POINT ( 'NONE',  ( -5.825000000000000178, 2.000000000000000000, -1.399999999999997025 ) ) ;
#442 = CARTESIAN_POINT ( 'NONE',  ( -5.924999999999999822, 2.000000000000000000, -1.399999999999995914 ) ) ;
#443 = ORIENTED_EDGE ( 'NONE', *, *, #765, .F. ) ;
#444 = VERTEX_POINT ( 'NONE', #511 ) ;
#445 = CARTESIAN_POINT ( 'NONE',  ( -4.173228346456692606, 0.000000000000000000, -0.2952755905511806889 ) ) ;
#446 = EDGE_LOOP ( 'NONE', ( #443, #426, #287, #838, #440, #651 ) ) ;
#447 = ORIENTED_EDGE ( 'NONE', *, *, #984, .T. ) ;
#448 = VECTOR ( 'NONE', #930, 39.37007874015748143 ) ;
#449 = EDGE_CURVE ( 'NONE', #576, #352, #659, .T. ) ;
#450 = VECTOR ( 'NONE', #588, 39.37007874015748143 ) ;
#451 = CARTESIAN_POINT ( 'NONE',  ( -5.924999999999999822, 1.750000000000000000, -1.000000000000000222 ) ) ;
#452 = ORIENTED_EDGE ( 'NONE', *, *, #439, .T. ) ;
#453 = ORIENTED_EDGE ( 'NONE', *, *, #802, .F. ) ;
#454 = PLANE ( 'NONE',  #260 ) ;
#455 = ORIENTED_EDGE ( 'NONE', *, *, #464, .F. ) ;
#456 = CARTESIAN_POINT ( 'NONE',  ( 0.000000000000000000, -0.2000000000000000111, 0.1250000000000001388 ) ) ;
#457 = CARTESIAN_POINT ( 'NONE',  ( 0.000000000000000000, 2.000000000000000000, -1.750000000000000222 ) ) ;
#458 = DIRECTION ( 'NONE',  ( 1.000000000000000000, 0.000000000000000000, 0.000000000000000000 ) ) ;
#459 = CARTESIAN_POINT ( 'NONE',  ( -4.173228346456692606, 2.000000000000000000, 0.1732283464566924114 ) ) ;
#460 = CIRCLE ( 'NONE', #695, 0.1250000000000000278 ) ;
#461 = DIRECTION ( 'NONE',  ( 1.000000000000000000, 0.000000000000000000, -0.000000000000000000 ) ) ;
#462 = CIRCLE ( 'NONE', #384, 0.1250000000000000278 ) ;
#463 = VERTEX_POINT ( 'NONE', #442 ) ;
#464 = EDGE_CURVE ( 'NONE', #201, #672, #680, .T. ) ;
#465 = ORIENTED_EDGE ( 'NONE', *, *, #180, .F. ) ;
#466 = DIRECTION ( 'NONE',  ( 0.000000000000000000, 0.000000000000000000, -1.000000000000000000 ) ) ;
#467 = DIRECTION ( 'NONE',  ( -0.000000000000000000, -0.000000000000000000, 1.000000000000000000 ) ) ;
#468 = EDGE_CURVE ( 'NONE', #431, #304, #302, .T. ) ;
#469 = DIRECTION ( 'NONE',  ( -0.000000000000000000, -1.000000000000000000, -0.000000000000000000 ) ) ;
#470 = FACE_OUTER_BOUND ( 'NONE', #761, .T. ) ;
#471 = DIRECTION ( 'NONE',  ( 1.000000000000000000, 0.000000000000000000, -1.152678478339351656E-16 ) ) ;
#472 = ORIENTED_EDGE ( 'NONE', *, *, #190, .F. ) ;
#473 = AXIS2_PLACEMENT_3D ( 'NONE', #197, #258, #885 ) ;
#474 = ORIENTED_EDGE ( 'NONE', *, *, #439, .F. ) ;
#475 = DIRECTION ( 'NONE',  ( 0.000000000000000000, 0.000000000000000000, 1.000000000000000000 ) ) ;
#476 = STYLED_ITEM ( 'NONE', ( #489 ), #400 ) ;
#477 = DIRECTION ( 'NONE',  ( 0.000000000000000000, 0.000000000000000000, 1.000000000000000000 ) ) ;
#478 = LINE ( 'NONE', #310, #643 ) ;
#479 = AXIS2_PLACEMENT_3D ( 'NONE', #15, #566, #706 ) ;
#480 = DIRECTION ( 'NONE',  ( 0.000000000000000000, -1.000000000000000000, 0.000000000000000000 ) ) ;
#481 = CARTESIAN_POINT ( 'NONE',  ( 0.000000000000000000, 2.000000000000000000, -1.750000000000000222 ) ) ;
#482 = DIRECTION ( 'NONE',  ( -1.000000000000000000, 0.000000000000000000, -0.000000000000000000 ) ) ;
#483 = CARTESIAN_POINT ( 'NONE',  ( -4.173228346456692606, -0.4000000000000000222, -0.2952755905511806889 ) ) ;
#484 = DIMENSIONAL_EXPONENTS ( 1.000000000000000000, 0.000000000000000000, 0.000000000000000000, 0.000000000000000000, 0.000000000000000000, 0.000000000000000000, 0.000000000000000000 ) ;
#485 = VERTEX_POINT ( 'NONE', #745 ) ;
#486 = DIRECTION ( 'NONE',  ( 1.000000000000000000, 0.000000000000000000, -1.275571047625337126E-16 ) ) ;
#487 = PLANE ( 'NONE',  #796 ) ;
#488 = DIRECTION ( 'NONE',  ( 0.000000000000000000, -1.000000000000000000, 0.000000000000000000 ) ) ;
#489 = PRESENTATION_STYLE_ASSIGNMENT (( #931 ) ) ;
#490 = ORIENTED_EDGE ( 'NONE', *, *, #829, .F. ) ;
#491 = CIRCLE ( 'NONE', #759, 0.1023622047244093780 ) ;
#492 = ORIENTED_EDGE ( 'NONE', *, *, #256, .F. ) ;
#493 = CIRCLE ( 'NONE', #68, 0.1250000000000000000 ) ;
#494 = LINE ( 'NONE', #398, #168 ) ;
#495 = DIRECTION ( 'NONE',  ( 0.000000000000000000, 0.000000000000000000, -1.000000000000000000 ) ) ;
#496 = ORIENTED_EDGE ( 'NONE', *, *, #159, .T. ) ;
#497 = CIRCLE ( 'NONE', #746, 0.1000000000000000194 ) ;
#498 = EDGE_CURVE ( 'NONE', #444, #763, #841, .T. ) ;
#499 = CARTESIAN_POINT ( 'NONE',  ( 0.000000000000000000, -0.4000000000000000222, -1.750000000000000222 ) ) ;
#500 = CARTESIAN_POINT ( 'NONE',  ( -4.173228346456692606, -0.4000000000000000222, 0.4173228346456689386 ) ) ;
#501 = CARTESIAN_POINT ( 'NONE',  ( 0.5000000000000000000, -0.2000000000000083378, -0.8749999999999997780 ) ) ;
#502 = ORIENTED_EDGE ( 'NONE', *, *, #653, .F. ) ;
#503 = EDGE_CURVE ( 'NONE', #172, #210, #975, .T. ) ;
#504 = ADVANCED_FACE ( 'NONE', ( #581 ), #285, .T. ) ;
#505 = DIRECTION ( 'NONE',  ( 0.000000000000000000, 0.000000000000000000, -1.000000000000000000 ) ) ;
#506 = CARTESIAN_POINT ( 'NONE',  ( 6.214524036391342321, 1.750000000000000000, -0.8976377952755908440 ) ) ;
#507 = ORIENTED_EDGE ( 'NONE', *, *, #895, .F. ) ;
#508 = CARTESIAN_POINT ( 'NONE',  ( 0.000000000000000000, -0.2000000000000000111, 1.365923996832131609E-16 ) ) ;
#509 = ADVANCED_FACE ( 'NONE', ( #65 ), #986, .F. ) ;
#510 = ADVANCED_FACE ( 'NONE', ( #591 ), #910, .F. ) ;
#511 = CARTESIAN_POINT ( 'NONE',  ( -6.224999999999999645, 2.000000000000000000, -1.749999999999999334 ) ) ;
#512 = ORIENTED_EDGE ( 'NONE', *, *, #250, .T. ) ;
#513 = ORIENTED_EDGE ( 'NONE', *, *, #54, .F. ) ;
#514 = VECTOR ( 'NONE', #996, 39.37007874015748143 ) ;
#515 = AXIS2_PLACEMENT_3D ( 'NONE', #109, #720, #26 ) ;
#516 = ORIENTED_EDGE ( 'NONE', *, *, #862, .F. ) ;
#517 = LINE ( 'NONE', #145, #323 ) ;
#518 = EDGE_LOOP ( 'NONE', ( #205, #286, #147, #429 ) ) ;
#519 = ORIENTED_EDGE ( 'NONE', *, *, #679, .T. ) ;
#520 = DIRECTION ( 'NONE',  ( 0.000000000000000000, 0.000000000000000000, -1.000000000000000000 ) ) ;
#521 = ORIENTED_EDGE ( 'NONE', *, *, #712, .F. ) ;
#522 = EDGE_LOOP ( 'NONE', ( #340, #307 ) ) ;
#523 = DIRECTION ( 'NONE',  ( -1.000000000000000000, -0.000000000000000000, -0.000000000000000000 ) ) ;
#524 = EDGE_CURVE ( 'NONE', #463, #960, #305, .T. ) ;
#525 = ORIENTED_EDGE ( 'NONE', *, *, #908, .F. ) ;
#526 = ORIENTED_EDGE ( 'NONE', *, *, #150, .T. ) ;
#527 = DIRECTION ( 'NONE',  ( 1.000000000000000000, 0.000000000000000000, 0.000000000000000000 ) ) ;
#528 = CIRCLE ( 'NONE', #874, 0.1250000000000000000 ) ;
#529 = ORIENTED_EDGE ( 'NONE', *, *, #90, .T. ) ;
#530 = AXIS2_PLACEMENT_3D ( 'NONE', #411, #727, #646 ) ;
#531 = DIRECTION ( 'NONE',  ( 0.000000000000000000, 0.000000000000000000, -1.000000000000000000 ) ) ;
#532 = ORIENTED_EDGE ( 'NONE', *, *, #984, .F. ) ;
#533 = EDGE_CURVE ( 'NONE', #172, #1001, #102, .T. ) ;
#534 = CARTESIAN_POINT ( 'NONE',  ( -4.173228346456692606, 2.000000000000000000, -0.1732283464566924114 ) ) ;
#535 = EDGE_CURVE ( 'NONE', #315, #283, #639, .T. ) ;
#536 = DIRECTION ( 'NONE',  ( 0.000000000000000000, -1.000000000000000000, 0.000000000000000000 ) ) ;
#537 = VECTOR ( 'NONE', #208, 39.37007874015748143 ) ;
#538 = LINE ( 'NONE', #534, #777 ) ;
#539 = ADVANCED_FACE ( 'NONE', ( #161 ), #238, .F. ) ;
#540 = ORIENTED_EDGE ( 'NONE', *, *, #125, .T. ) ;
#541 = DIRECTION ( 'NONE',  ( 0.000000000000000000, -1.000000000000000000, 0.000000000000000000 ) ) ;
#542 = FACE_BOUND ( 'NONE', #438, .T. ) ;
#543 = AXIS2_PLACEMENT_3D ( 'NONE', #28, #329, #811 ) ;
#544 = LINE ( 'NONE', #167, #956 ) ;
#545 = EDGE_CURVE ( 'NONE', #750, #444, #314, .T. ) ;
#546 = DIRECTION ( 'NONE',  ( 0.000000000000000000, -1.000000000000000000, 0.000000000000000000 ) ) ;
#547 = DIRECTION ( 'NONE',  ( -1.000000000000000000, -0.000000000000000000, -0.000000000000000000 ) ) ;
#548 = DIRECTION ( 'NONE',  ( 0.000000000000000000, 0.000000000000000000, -1.000000000000000000 ) ) ;
#549 = DIRECTION ( 'NONE',  ( -0.000000000000000000, -1.000000000000000000, -0.000000000000000000 ) ) ;
#550 = DIRECTION ( 'NONE',  ( -1.000000000000000000, -0.000000000000000000, -0.000000000000000000 ) ) ;
#551 = DIRECTION ( 'NONE',  ( 0.000000000000000000, 1.000000000000000000, 0.000000000000000000 ) ) ;
#552 = LINE ( 'NONE', #183, #903 ) ;
#553 = VERTEX_POINT ( 'NONE', #767 ) ;
#554 = AXIS2_PLACEMENT_3D ( 'NONE', #406, #541, #775 ) ;
#555 = CARTESIAN_POINT ( 'NONE',  ( 0.5000000000000000000, -0.2000000000000069778, 1.000000000000000222 ) ) ;
#556 = VECTOR ( 'NONE', #96, 39.37007874015748143 ) ;
#557 = CARTESIAN_POINT ( 'NONE',  ( -5.924999999999999822, 0.000000000000000000, 1.399999999999999911 ) ) ;
#558 = CIRCLE ( 'NONE', #515, 0.1250000000000000000 ) ;
#559 = LINE ( 'NONE', #107, #392 ) ;
#560 = EDGE_LOOP ( 'NONE', ( #108, #868, #492, #792 ) ) ;
#561 = ORIENTED_EDGE ( 'NONE', *, *, #829, .T. ) ;
#562 = CARTESIAN_POINT ( 'NONE',  ( 0.5000000000000000000, -0.2000000000000083378, -0.9999999999999998890 ) ) ;
#563 = PLANE ( 'NONE',  #415 ) ;
#564 = CARTESIAN_POINT ( 'NONE',  ( -4.173228346456692606, -0.4000000000000000222, 0.2952755905511806889 ) ) ;
#565 = ORIENTED_EDGE ( 'NONE', *, *, #787, .F. ) ;
#566 = DIRECTION ( 'NONE',  ( 0.000000000000000000, -1.000000000000000000, 0.000000000000000000 ) ) ;
#567 = DIRECTION ( 'NONE',  ( 0.000000000000000000, 0.000000000000000000, -1.000000000000000000 ) ) ;
#568 = DIRECTION ( 'NONE',  ( 0.000000000000000000, 0.000000000000000000, -1.000000000000000000 ) ) ;
#569 = ORIENTED_EDGE ( 'NONE', *, *, #787, .T. ) ;
#570 = AXIS2_PLACEMENT_3D ( 'NONE', #801, #958, #265 ) ;
#571 = DIRECTION ( 'NONE',  ( 1.000000000000000000, -0.000000000000000000, -0.000000000000000000 ) ) ;
#572 = PRODUCT ( 'housing_left', 'housing_left', '', ( #133 ) ) ;
#573 = EDGE_CURVE ( 'NONE', #997, #424, #793, .T. ) ;
#574 = EDGE_CURVE ( 'NONE', #315, #267, #171, .T. ) ;
#575 = CARTESIAN_POINT ( 'NONE',  ( 0.000000000000000000, 0.000000000000000000, 0.000000000000000000 ) ) ;
#576 = VERTEX_POINT ( 'NONE', #76 ) ;
#577 = VERTEX_POINT ( 'NONE', #391 ) ;
#578 = DIRECTION ( 'NONE',  ( 0.000000000000000000, 0.000000000000000000, -1.000000000000000000 ) ) ;
#579 = ADVANCED_FACE ( 'NONE', ( #784, #542, #690 ), #454, .F. ) ;
#580 = SHAPE_DEFINITION_REPRESENTATION ( #128, #955 ) ;
#581 = FACE_OUTER_BOUND ( 'NONE', #752, .T. ) ;
#582 = EDGE_LOOP ( 'NONE', ( #142, #605, #667, #804 ) ) ;
#583 = DIRECTION ( 'NONE',  ( -1.000000000000000000, -0.000000000000000000, 1.152678478339351656E-16 ) ) ;
#584 = EDGE_CURVE ( 'NONE', #431, #67, #154, .T. ) ;
#585 = DIRECTION ( 'NONE',  ( 1.000000000000000000, 0.000000000000000000, 0.000000000000000000 ) ) ;
#586 = EDGE_LOOP ( 'NONE', ( #741, #452, #513, #131 ) ) ;
#587 = ORIENTED_EDGE ( 'NONE', *, *, #712, .T. ) ;
#588 = DIRECTION ( 'NONE',  ( -0.000000000000000000, 0.000000000000000000, 1.000000000000000000 ) ) ;
#589 = AXIS2_PLACEMENT_3D ( 'NONE', #48, #53, #599 ) ;
#590 = LINE ( 'NONE', #739, #537 ) ;
#591 = FACE_OUTER_BOUND ( 'NONE', #666, .T. ) ;
#592 = ORIENTED_EDGE ( 'NONE', *, *, #965, .F. ) ;
#593 = ORIENTED_EDGE ( 'NONE', *, *, #389, .F. ) ;
#594 =( GEOMETRIC_REPRESENTATION_CONTEXT ( 3 ) GLOBAL_UNCERTAINTY_ASSIGNED_CONTEXT ( ( #926 ) ) GLOBAL_UNIT_ASSIGNED_CONTEXT ( ( #818, #298, #892 ) ) REPRESENTATION_CONTEXT ( 'NONE', 'WORKASPACE' ) );
#595 = DIRECTION ( 'NONE',  ( -0.000000000000000000, 1.000000000000000000, 0.000000000000000000 ) ) ;
#596 = VECTOR ( 'NONE', #471, 39.37007874015748143 ) ;
#597 = CIRCLE ( 'NONE', #341, 0.1220472440944882775 ) ;
#598 = VECTOR ( 'NONE', #17, 39.37007874015748143 ) ;
#599 = DIRECTION ( 'NONE',  ( 1.000000000000000000, 0.000000000000000000, 0.000000000000000000 ) ) ;
#600 = FACE_OUTER_BOUND ( 'NONE', #518, .T. ) ;
#601 = ORIENTED_EDGE ( 'NONE', *, *, #332, .F. ) ;
#602 = ORIENTED_EDGE ( 'NONE', *, *, #46, .T. ) ;
#603 = ORIENTED_EDGE ( 'NONE', *, *, #873, .F. ) ;
#604 = CARTESIAN_POINT ( 'NONE',  ( 0.5000000000000000000, -0.2000000000000083378, -0.9999999999999998890 ) ) ;
#605 = ORIENTED_EDGE ( 'NONE', *, *, #866, .F. ) ;
#606 = ADVANCED_FACE ( 'NONE', ( #770 ), #82, .T. ) ;
#607 = ORIENTED_EDGE ( 'NONE', *, *, #612, .T. ) ;
#608 = CIRCLE ( 'NONE', #850, 0.1023622047244093780 ) ;
#609 = DIRECTION ( 'NONE',  ( 0.000000000000000000, 0.000000000000000000, -1.000000000000000000 ) ) ;
#610 = EDGE_CURVE ( 'NONE', #304, #394, #823, .T. ) ;
#611 = ORIENTED_EDGE ( 'NONE', *, *, #190, .T. ) ;
#612 = EDGE_CURVE ( 'NONE', #67, #431, #460, .T. ) ;
#613 = ORIENTED_EDGE ( 'NONE', *, *, #357, .T. ) ;
#614 = COLOUR_RGB ( '',0.7921568627450980005, 0.8196078431372548767, 0.9333333333333333481 ) ;
#615 = CARTESIAN_POINT ( 'NONE',  ( -4.173228346456692606, -0.4000000000000000222, 0.2952755905511806889 ) ) ;
#616 = LINE ( 'NONE', #828, #297 ) ;
#617 = DIRECTION ( 'NONE',  ( -1.000000000000000000, 0.000000000000000000, 1.152678478339351656E-16 ) ) ;
#618 = DIRECTION ( 'NONE',  ( 0.000000000000000000, -1.000000000000000000, 0.000000000000000000 ) ) ;
#619 = FACE_BOUND ( 'NONE', #272, .T. ) ;
#620 = DIRECTION ( 'NONE',  ( -0.000000000000000000, 1.000000000000000000, 0.000000000000000000 ) ) ;
#621 = ORIENTED_EDGE ( 'NONE', *, *, #866, .T. ) ;
#622 = AXIS2_PLACEMENT_3D ( 'NONE', #896, #207, #906 ) ;
#623 = CARTESIAN_POINT ( 'NONE',  ( -6.224999999999999645, -0.4000000000000000777, 1.550000000000002487 ) ) ;
#624 = PRESENTATION_LAYER_ASSIGNMENT (  '', '', ( #476 ) ) ;
#625 = CARTESIAN_POINT ( 'NONE',  ( 0.5000000000000000000, -0.2000000000000000111, 0.1250000000000001388 ) ) ;
#626 = AXIS2_PLACEMENT_3D ( 'NONE', #983, #571, #280 ) ;
#627 = ORIENTED_EDGE ( 'NONE', *, *, #978, .F. ) ;
#628 = DIRECTION ( 'NONE',  ( 0.000000000000000000, -0.000000000000000000, -1.000000000000000000 ) ) ;
#629 = LINE ( 'NONE', #459, #893 ) ;
#630 = CARTESIAN_POINT ( 'NONE',  ( 6.214524036391342321, 1.750000000000000000, -1.000000000000000222 ) ) ;
#631 = DIRECTION ( 'NONE',  ( -1.000000000000000000, 0.000000000000000000, 1.275571047625337126E-16 ) ) ;
#632 = DIRECTION ( 'NONE',  ( 0.000000000000000000, 0.000000000000000000, -1.000000000000000000 ) ) ;
#633 = FACE_OUTER_BOUND ( 'NONE', #300, .T. ) ;
#634 = FACE_OUTER_BOUND ( 'NONE', #671, .T. ) ;
#635 = CARTESIAN_POINT ( 'NONE',  ( -4.173228346456692606, 0.000000000000000000, 0.2952755905511806889 ) ) ;
#636 = ORIENTED_EDGE ( 'NONE', *, *, #256, .T. ) ;
#637 = CIRCLE ( 'NONE', #776, 0.1220472440944882775 ) ;
#638 = DIRECTION ( 'NONE',  ( -1.000000000000000000, -0.000000000000000000, -0.000000000000000000 ) ) ;
#639 = CIRCLE ( 'NONE', #229, 0.1250000000000000278 ) ;
#640 = DIRECTION ( 'NONE',  ( 0.000000000000000000, 0.000000000000000000, -1.000000000000000000 ) ) ;
#641 = AXIS2_PLACEMENT_3D ( 'NONE', #24, #865, #649 ) ;
#642 = LINE ( 'NONE', #979, #514 ) ;
#643 = VECTOR ( 'NONE', #928, 39.37007874015748143 ) ;
#644 = ORIENTED_EDGE ( 'NONE', *, *, #815, .F. ) ;
#645 = EDGE_CURVE ( 'NONE', #376, #189, #224, .T. ) ;
#646 = DIRECTION ( 'NONE',  ( 0.000000000000000000, 0.000000000000000000, -1.000000000000000000 ) ) ;
#647 = ADVANCED_FACE ( 'NONE', ( #1 ), #383, .F. ) ;
#648 = CARTESIAN_POINT ( 'NONE',  ( 0.5000000000000000000, -0.2000000000000069778, 1.125000000000000222 ) ) ;
#649 = DIRECTION ( 'NONE',  ( -1.000000000000000000, 0.000000000000000000, 1.275571047625337126E-16 ) ) ;
#650 = LINE ( 'NONE', #738, #693 ) ;
#651 = ORIENTED_EDGE ( 'NONE', *, *, #895, .T. ) ;
#652 = CARTESIAN_POINT ( 'NONE',  ( -5.825000000000000178, 2.000000000000000000, -1.499999999999997113 ) ) ;
#653 = EDGE_CURVE ( 'NONE', #576, #836, #538, .T. ) ;
#654 = ORIENTED_EDGE ( 'NONE', *, *, #250, .F. ) ;
#655 = DIRECTION ( 'NONE',  ( -1.000000000000000000, 0.000000000000000000, -0.000000000000000000 ) ) ;
#656 = DIRECTION ( 'NONE',  ( 0.000000000000000000, 0.000000000000000000, 1.000000000000000000 ) ) ;
#657 = VERTEX_POINT ( 'NONE', #165 ) ;
#658 = CYLINDRICAL_SURFACE ( 'NONE', #239, 0.1220472440944882775 ) ;
#659 = CIRCLE ( 'NONE', #708, 0.1220472440944882775 ) ;
#660 = CARTESIAN_POINT ( 'NONE',  ( -6.424999999999998934, 2.000000000000000000, 1.750000000000002665 ) ) ;
#661 = AXIS2_PLACEMENT_3D ( 'NONE', #187, #488, #797 ) ;
#662 = ORIENTED_EDGE ( 'NONE', *, *, #301, .T. ) ;
#663 = EDGE_LOOP ( 'NONE', ( #593, #158 ) ) ;
#664 = DIRECTION ( 'NONE',  ( -0.000000000000000000, 1.000000000000000000, -0.000000000000000000 ) ) ;
#665 = DIRECTION ( 'NONE',  ( 0.000000000000000000, 0.000000000000000000, -1.000000000000000000 ) ) ;
#666 = EDGE_LOOP ( 'NONE', ( #785, #525, #853, #223 ) ) ;
#667 = ORIENTED_EDGE ( 'NONE', *, *, #81, .T. ) ;
#668 = CARTESIAN_POINT ( 'NONE',  ( -4.173228346456692606, 2.000000000000000000, 0.2952755905511806889 ) ) ;
#669 = ORIENTED_EDGE ( 'NONE', *, *, #295, .F. ) ;
#670 = DIRECTION ( 'NONE',  ( -1.000000000000000000, -0.000000000000000000, -0.000000000000000000 ) ) ;
#671 = EDGE_LOOP ( 'NONE', ( #587, #312 ) ) ;
#672 = VERTEX_POINT ( 'NONE', #230 ) ;
#673 = CARTESIAN_POINT ( 'NONE',  ( -6.424999999999998934, 1.750000000000000000, 0.8976377952755908440 ) ) ;
#674 = ORIENTED_EDGE ( 'NONE', *, *, #326, .F. ) ;
#675 = EDGE_LOOP ( 'NONE', ( #152, #49 ) ) ;
#676 = LINE ( 'NONE', #764, #216 ) ;
#677 = CIRCLE ( 'NONE', #103, 0.1023622047244093780 ) ;
#678 = VECTOR ( 'NONE', #795, 39.37007874015748143 ) ;
#679 = EDGE_CURVE ( 'NONE', #226, #750, #701, .T. ) ;
#680 = LINE ( 'NONE', #660, #353 ) ;
#681 = ORIENTED_EDGE ( 'NONE', *, *, #150, .F. ) ;
#682 = ORIENTED_EDGE ( 'NONE', *, *, #832, .T. ) ;
#683 = ADVANCED_FACE ( 'NONE', ( #342 ), #404, .T. ) ;
#684 = EDGE_CURVE ( 'NONE', #920, #988, #993, .T. ) ;
#685 = CARTESIAN_POINT ( 'NONE',  ( 0.5000000000000000000, -0.2000000000000069778, 0.8750000000000001110 ) ) ;
#686 = CARTESIAN_POINT ( 'NONE',  ( 0.000000000000000000, -0.2000000000000083378, -0.9999999999999998890 ) ) ;
#687 = ORIENTED_EDGE ( 'NONE', *, *, #436, .F. ) ;
#688 = ADVANCED_FACE ( 'NONE', ( #120 ), #880, .F. ) ;
#689 = EDGE_LOOP ( 'NONE', ( #502, #601, #981, #842 ) ) ;
#690 = FACE_OUTER_BOUND ( 'NONE', #560, .T. ) ;
#691 = ADVANCED_FACE ( 'NONE', ( #633 ), #947, .F. ) ;
#692 = ORIENTED_EDGE ( 'NONE', *, *, #335, .F. ) ;
#693 = VECTOR ( 'NONE', #271, 39.37007874015748143 ) ;
#694 = AXIS2_PLACEMENT_3D ( 'NONE', #318, #85, #617 ) ;
#695 = AXIS2_PLACEMENT_3D ( 'NONE', #604, #308, #918 ) ;
#696 = AXIS2_PLACEMENT_3D ( 'NONE', #441, #742, #754 ) ;
#697 = FACE_BOUND ( 'NONE', #66, .T. ) ;
#698 = DIRECTION ( 'NONE',  ( 0.000000000000000000, -1.000000000000000000, 0.000000000000000000 ) ) ;
#699 = SURFACE_STYLE_FILL_AREA ( #169 ) ;
#700 = DIRECTION ( 'NONE',  ( 1.000000000000000000, 0.000000000000000000, 0.000000000000000000 ) ) ;
#701 = LINE ( 'NONE', #457, #262 ) ;
#702 = CARTESIAN_POINT ( 'NONE',  ( -6.224999999999999645, -0.4000000000000000777, -1.549999999999999378 ) ) ;
#703 = VECTOR ( 'NONE', #882, 39.37007874015748143 ) ;
#704 = CARTESIAN_POINT ( 'NONE',  ( -6.424999999999998934, 2.000000000000000000, 1.750000000000002665 ) ) ;
#705 = ORIENTED_EDGE ( 'NONE', *, *, #468, .T. ) ;
#706 = DIRECTION ( 'NONE',  ( 0.000000000000000000, 0.000000000000000000, -1.000000000000000000 ) ) ;
#707 = ADVANCED_FACE ( 'NONE', ( #252 ), #396, .T. ) ;
#708 = AXIS2_PLACEMENT_3D ( 'NONE', #445, #358, #520 ) ;
#709 = DIRECTION ( 'NONE',  ( 1.000000000000000000, -0.000000000000000000, -0.000000000000000000 ) ) ;
#710 = DIRECTION ( 'NONE',  ( -1.000000000000000000, -0.000000000000000000, -0.000000000000000000 ) ) ;
#712 = EDGE_CURVE ( 'NONE', #283, #315, #5, .T. ) ;
#711 = CYLINDRICAL_SURFACE ( 'NONE', #473, 0.1220472440944882775 ) ;
#713 = DIRECTION ( 'NONE',  ( 0.000000000000000000, 0.000000000000000000, 1.000000000000000000 ) ) ;
#714 = DIRECTION ( 'NONE',  ( 0.000000000000000000, -1.000000000000000000, 0.000000000000000000 ) ) ;
#715 = LINE ( 'NONE', #964, #913 ) ;
#716 = LINE ( 'NONE', #412, #185 ) ;
#717 = FACE_OUTER_BOUND ( 'NONE', #912, .T. ) ;
#718 = EDGE_CURVE ( 'NONE', #763, #753, #716, .T. ) ;
#719 = DIRECTION ( 'NONE',  ( -1.000000000000000000, -0.000000000000000000, -0.000000000000000000 ) ) ;
#720 = DIRECTION ( 'NONE',  ( 1.000000000000000000, 0.000000000000000000, 0.000000000000000000 ) ) ;
#721 = CARTESIAN_POINT ( 'NONE',  ( 0.5000000000000000000, -0.2000000000000083378, -0.9999999999999998890 ) ) ;
#722 = CARTESIAN_POINT ( 'NONE',  ( 0.5000000000000000000, -0.2000000000000069778, 1.000000000000000222 ) ) ;
#723 = PRODUCT_DEFINITION_FORMATION_WITH_SPECIFIED_SOURCE ( 'ANY', '', #572, .NOT_KNOWN. ) ;
#724 = ADVANCED_FACE ( 'NONE', ( #876 ), #186, .F. ) ;
#725 = FACE_BOUND ( 'NONE', #59, .T. ) ;
#726 = ORIENTED_EDGE ( 'NONE', *, *, #4, .T. ) ;
#727 = DIRECTION ( 'NONE',  ( 0.000000000000000000, -1.000000000000000000, 0.000000000000000000 ) ) ;
#728 = EDGE_CURVE ( 'NONE', #283, #79, #870, .T. ) ;
#729 = DIRECTION ( 'NONE',  ( -0.000000000000000000, -1.000000000000000000, 0.000000000000000000 ) ) ;
#730 = CIRCLE ( 'NONE', #339, 0.1220472440944882775 ) ;
#731 = LINE ( 'NONE', #343, #987 ) ;
#732 = AXIS2_PLACEMENT_3D ( 'NONE', #721, #710, #21 ) ;
#733 = CARTESIAN_POINT ( 'NONE',  ( 0.5000000000000000000, -0.2000000000000000111, 1.365923996832131609E-16 ) ) ;
#734 = CIRCLE ( 'NONE', #296, 0.1023622047244093780 ) ;
#735 = ORIENTED_EDGE ( 'NONE', *, *, #873, .T. ) ;
#736 = DIRECTION ( 'NONE',  ( -0.000000000000000000, 0.000000000000000000, 1.000000000000000000 ) ) ;
#737 = CARTESIAN_POINT ( 'NONE',  ( -4.173228346456692606, -0.4000000000000000222, -0.1732283464566923836 ) ) ;
#738 = CARTESIAN_POINT ( 'NONE',  ( 0.5000000000000000000, -0.2000000000000000111, 0.1250000000000001388 ) ) ;
#739 = CARTESIAN_POINT ( 'NONE',  ( -5.825000000000000178, 2.000000000000000000, 1.499999999999999778 ) ) ;
#740 = VERTEX_POINT ( 'NONE', #246 ) ;
#741 = ORIENTED_EDGE ( 'NONE', *, *, #973, .F. ) ;
#742 = DIRECTION ( 'NONE',  ( 0.000000000000000000, 1.000000000000000000, 0.000000000000000000 ) ) ;
#743 =( CONVERSION_BASED_UNIT ( 'INCH', #971 ) LENGTH_UNIT ( ) NAMED_UNIT ( #790 ) );
#744 = VECTOR ( 'NONE', #316, 39.37007874015748143 ) ;
#745 = CARTESIAN_POINT ( 'NONE',  ( -6.424999999999998934, 2.000000000000000000, 1.550000000000002487 ) ) ;
#746 = AXIS2_PLACEMENT_3D ( 'NONE', #952, #714, #632 ) ;
#747 = ORIENTED_EDGE ( 'NONE', *, *, #9, .F. ) ;
#748 = ORIENTED_EDGE ( 'NONE', *, *, #545, .F. ) ;
#749 = CARTESIAN_POINT ( 'NONE',  ( -6.224999999999999645, 2.000000000000000000, 1.750000000000002665 ) ) ;
#750 = VERTEX_POINT ( 'NONE', #481 ) ;
#751 = CARTESIAN_POINT ( 'NONE',  ( 6.214524036391342321, 1.750000000000000000, 1.000000000000000222 ) ) ;
#752 = EDGE_LOOP ( 'NONE', ( #879, #662 ) ) ;
#753 = VERTEX_POINT ( 'NONE', #864 ) ;
#754 = DIRECTION ( 'NONE',  ( 0.000000000000000000, 0.000000000000000000, 1.000000000000000000 ) ) ;
#755 = CARTESIAN_POINT ( 'NONE',  ( -6.424999999999998934, 1.750000000000000000, -1.000000000000000222 ) ) ;
#756 = CARTESIAN_POINT ( 'NONE',  ( 0.5000000000000000000, -0.2000000000000000111, 1.365923996832131609E-16 ) ) ;
#757 = VERTEX_POINT ( 'NONE', #418 ) ;
#758 = ORIENTED_EDGE ( 'NONE', *, *, #464, .T. ) ;
#759 = AXIS2_PLACEMENT_3D ( 'NONE', #116, #330, #100 ) ;
#760 = LENGTH_MEASURE_WITH_UNIT ( LENGTH_MEASURE( 0.02539999999999999897 ), #282 );
#761 = EDGE_LOOP ( 'NONE', ( #674, #213, #705, #156 ) ) ;
#762 = AXIS2_PLACEMENT_3D ( 'NONE', #902, #50, #351 ) ;
#763 = VERTEX_POINT ( 'NONE', #178 ) ;
#764 = CARTESIAN_POINT ( 'NONE',  ( -5.924999999999999822, 0.000000000000000000, 1.399999999999999911 ) ) ;
#765 = EDGE_CURVE ( 'NONE', #816, #118, #961, .T. ) ;
#766 = ADVANCED_FACE ( 'NONE', ( #470 ), #99, .T. ) ;
#767 = CARTESIAN_POINT ( 'NONE',  ( 0.5000000000000000000, -0.2000000000000000111, -0.1249999999999998612 ) ) ;
#768 = EDGE_LOOP ( 'NONE', ( #899, #1000, #490, #373 ) ) ;
#769 = ORIENTED_EDGE ( 'NONE', *, *, #653, .T. ) ;
#770 = FACE_OUTER_BOUND ( 'NONE', #827, .T. ) ;
#771 = EDGE_LOOP ( 'NONE', ( #681, #936, #377, #83, #94, #758, #917, #241, #888, #883, #569, #654 ) ) ;
#772 = CYLINDRICAL_SURFACE ( 'NONE', #857, 0.1250000000000000278 ) ;
#773 = DIRECTION ( 'NONE',  ( 1.000000000000000000, 0.000000000000000000, -0.000000000000000000 ) ) ;
#774 = ORIENTED_EDGE ( 'NONE', *, *, #645, .T. ) ;
#775 = DIRECTION ( 'NONE',  ( 0.000000000000000000, 0.000000000000000000, -1.000000000000000000 ) ) ;
#776 = AXIS2_PLACEMENT_3D ( 'NONE', #483, #91, #656 ) ;
#777 = VECTOR ( 'NONE', #155, 39.37007874015748143 ) ;
#778 = CIRCLE ( 'NONE', #416, 0.1250000000000000278 ) ;
#779 = CYLINDRICAL_SURFACE ( 'NONE', #417, 0.2000000000000000389 ) ;
#780 = DIRECTION ( 'NONE',  ( 0.000000000000000000, 0.000000000000000000, 1.000000000000000000 ) ) ;
#781 = CIRCLE ( 'NONE', #554, 0.1220472440944882775 ) ;
#782 = ORIENTED_EDGE ( 'NONE', *, *, #765, .T. ) ;
#783 = DIRECTION ( 'NONE',  ( 1.152678478339351656E-16, -0.000000000000000000, 1.000000000000000000 ) ) ;
#784 = FACE_BOUND ( 'NONE', #819, .T. ) ;
#785 = ORIENTED_EDGE ( 'NONE', *, *, #645, .F. ) ;
#786 = ADVANCED_FACE ( 'NONE', ( #957, #264, #191 ), #487, .T. ) ;
#787 = EDGE_CURVE ( 'NONE', #463, #84, #355, .T. ) ;
#788 = FACE_OUTER_BOUND ( 'NONE', #446, .T. ) ;
#789 = DIRECTION ( 'NONE',  ( -1.000000000000000000, -0.000000000000000000, -0.000000000000000000 ) ) ;
#790 = DIMENSIONAL_EXPONENTS ( 1.000000000000000000, 0.000000000000000000, 0.000000000000000000, 0.000000000000000000, 0.000000000000000000, 0.000000000000000000, 0.000000000000000000 ) ;
#791 = FACE_OUTER_BOUND ( 'NONE', #689, .T. ) ;
#792 = ORIENTED_EDGE ( 'NONE', *, *, #978, .T. ) ;
#793 = CIRCLE ( 'NONE', #891, 0.1220472440944882775 ) ;
#794 = EDGE_CURVE ( 'NONE', #657, #960, #497, .T. ) ;
#795 = DIRECTION ( 'NONE',  ( -0.000000000000000000, 0.000000000000000000, 1.000000000000000000 ) ) ;
#796 = AXIS2_PLACEMENT_3D ( 'NONE', #35, #324, #628 ) ;
#797 = DIRECTION ( 'NONE',  ( 0.000000000000000000, 0.000000000000000000, -1.000000000000000000 ) ) ;
#798 = DIRECTION ( 'NONE',  ( 0.000000000000000000, -0.000000000000000000, -1.000000000000000000 ) ) ;
#799 = EDGE_CURVE ( 'NONE', #740, #146, #558, .T. ) ;
#800 = DIRECTION ( 'NONE',  ( -1.000000000000000000, -0.000000000000000000, -0.000000000000000000 ) ) ;
#801 = CARTESIAN_POINT ( 'NONE',  ( -6.424999999999998934, 1.750000000000000000, -1.000000000000000222 ) ) ;
#802 = EDGE_CURVE ( 'NONE', #136, #226, #937, .T. ) ;
#803 = DIRECTION ( 'NONE',  ( 0.000000000000000000, 0.000000000000000000, -1.000000000000000000 ) ) ;
#804 = ORIENTED_EDGE ( 'NONE', *, *, #389, .T. ) ;
#805 = FACE_OUTER_BOUND ( 'NONE', #768, .T. ) ;
#806 = PLANE ( 'NONE',  #641 ) ;
#807 =( GEOMETRIC_REPRESENTATION_CONTEXT ( 3 ) GLOBAL_UNCERTAINTY_ASSIGNED_CONTEXT ( ( #932 ) ) GLOBAL_UNIT_ASSIGNED_CONTEXT ( ( #743, #281, #991 ) ) REPRESENTATION_CONTEXT ( 'NONE', 'WORKASPACE' ) );
#808 = ORIENTED_EDGE ( 'NONE', *, *, #326, .T. ) ;
#809 = CIRCLE ( 'NONE', #934, 0.1000000000000000194 ) ;
#810 = ORIENTED_EDGE ( 'NONE', *, *, #160, .F. ) ;
#811 = DIRECTION ( 'NONE',  ( 0.000000000000000000, 0.000000000000000000, -1.000000000000000000 ) ) ;
#812 = DIRECTION ( 'NONE',  ( 0.000000000000000000, 0.000000000000000000, -1.000000000000000000 ) ) ;
#813 = VECTOR ( 'NONE', #486, 39.37007874015748143 ) ;
#814 = CARTESIAN_POINT ( 'NONE',  ( 0.000000000000000000, -0.2000000000000083378, -0.8749999999999997780 ) ) ;
#815 = EDGE_CURVE ( 'NONE', #222, #345, #70, .T. ) ;
#816 = VERTEX_POINT ( 'NONE', #388 ) ;
#817 = DIRECTION ( 'NONE',  ( 0.000000000000000000, -1.000000000000000000, 0.000000000000000000 ) ) ;
#818 =( CONVERSION_BASED_UNIT ( 'INCH', #760 ) LENGTH_UNIT ( ) NAMED_UNIT ( #484 ) );
#819 = EDGE_LOOP ( 'NONE', ( #364, #825 ) ) ;
#820 = EDGE_LOOP ( 'NONE', ( #278, #73 ) ) ;
#821 = DIRECTION ( 'NONE',  ( 1.000000000000000000, 0.000000000000000000, 0.000000000000000000 ) ) ;
#822 = ADVANCED_FACE ( 'NONE', ( #805 ), #114, .T. ) ;
#823 = CIRCLE ( 'NONE', #953, 0.1250000000000000278 ) ;
#824 = AXIS2_PLACEMENT_3D ( 'NONE', #257, #800, #105 ) ;
#825 = ORIENTED_EDGE ( 'NONE', *, *, #974, .T. ) ;
#826 = AXIS2_PLACEMENT_3D ( 'NONE', #846, #8, #371 ) ;
#827 = EDGE_LOOP ( 'NONE', ( #162, #919, #507, #447 ) ) ;
#828 = CARTESIAN_POINT ( 'NONE',  ( -5.825000000000000178, 0.000000000000000000, -1.499999999999997113 ) ) ;
#829 = EDGE_CURVE ( 'NONE', #753, #136, #309, .T. ) ;
#830 = CARTESIAN_POINT ( 'NONE',  ( 6.214524036391342321, 1.750000000000000000, 1.000000000000000222 ) ) ;
#831 = ORIENTED_EDGE ( 'NONE', *, *, #524, .T. ) ;
#832 = EDGE_CURVE ( 'NONE', #394, #304, #462, .T. ) ;
#833 = ORIENTED_EDGE ( 'NONE', *, *, #204, .F. ) ;
#834 = DIRECTION ( 'NONE',  ( -0.000000000000000000, 0.000000000000000000, 1.000000000000000000 ) ) ;
#835 = EDGE_CURVE ( 'NONE', #189, #363, #954, .T. ) ;
#836 = VERTEX_POINT ( 'NONE', #737 ) ;
#837 = CIRCLE ( 'NONE', #966, 0.1250000000000000000 ) ;
#838 = ORIENTED_EDGE ( 'NONE', *, *, #58, .T. ) ;
#839 = DIRECTION ( 'NONE',  ( 0.000000000000000000, 0.000000000000000000, 1.000000000000000000 ) ) ;
#840 = ORIENTED_EDGE ( 'NONE', *, *, #802, .T. ) ;
#841 = CIRCLE ( 'NONE', #184, 0.2000000000000000389 ) ;
#842 = ORIENTED_EDGE ( 'NONE', *, *, #11, .T. ) ;
#843 = EDGE_LOOP ( 'NONE', ( #565, #592, #833, #985 ) ) ;
#844 = DIRECTION ( 'NONE',  ( -1.000000000000000000, -0.000000000000000000, -0.000000000000000000 ) ) ;
#845 = EDGE_LOOP ( 'NONE', ( #231, #219 ) ) ;
#846 = CARTESIAN_POINT ( 'NONE',  ( 0.5000000000000000000, -0.2000000000000000111, 1.365923996832131609E-16 ) ) ;
#847 = DIRECTION ( 'NONE',  ( 1.000000000000000000, -0.000000000000000000, 0.000000000000000000 ) ) ;
#848 = CARTESIAN_POINT ( 'NONE',  ( 6.214524036391342321, 1.750000000000000000, -1.000000000000000222 ) ) ;
#849 = VERTEX_POINT ( 'NONE', #408 ) ;
#850 = AXIS2_PLACEMENT_3D ( 'NONE', #337, #482, #812 ) ;
#851 = CARTESIAN_POINT ( 'NONE',  ( 0.000000000000000000, 2.000000000000000000, 1.499999999999999334 ) ) ;
#852 = DIRECTION ( 'NONE',  ( -1.000000000000000000, 0.000000000000000000, -0.000000000000000000 ) ) ;
#853 = ORIENTED_EDGE ( 'NONE', *, *, #75, .T. ) ;
#854 = CARTESIAN_POINT ( 'NONE',  ( 0.000000000000000000, 2.000000000000000000, 1.750000000000001776 ) ) ;
#855 = AXIS2_PLACEMENT_3D ( 'NONE', #115, #23, #943 ) ;
#856 = VECTOR ( 'NONE', #550, 39.37007874015748143 ) ;
#857 = AXIS2_PLACEMENT_3D ( 'NONE', #863, #547, #475 ) ;
#858 = FACE_BOUND ( 'NONE', #39, .T. ) ;
#859 = CARTESIAN_POINT ( 'NONE',  ( -6.424999999999998934, 2.000000000000000000, -1.749999999999999334 ) ) ;
#860 = ADVANCED_FACE ( 'NONE', ( #634 ), #563, .T. ) ;
#861 = CARTESIAN_POINT ( 'NONE',  ( -5.924999999999999822, 0.000000000000000000, -1.499999999999997113 ) ) ;
#862 = EDGE_CURVE ( 'NONE', #376, #299, #677, .T. ) ;
#863 = CARTESIAN_POINT ( 'NONE',  ( 0.5000000000000000000, -0.2000000000000069778, 1.000000000000000222 ) ) ;
#864 = CARTESIAN_POINT ( 'NONE',  ( -6.424999999999998934, -0.4000000000000000222, -1.549999999999998268 ) ) ;
#865 = DIRECTION ( 'NONE',  ( -1.275571047625337126E-16, 0.000000000000000000, -1.000000000000000000 ) ) ;
#866 = EDGE_CURVE ( 'NONE', #951, #292, #33, .T. ) ;
#867 = ADVANCED_FACE ( 'NONE', ( #717 ), #806, .F. ) ;
#868 = ORIENTED_EDGE ( 'NONE', *, *, #718, .T. ) ;
#869 = LINE ( 'NONE', #20, #598 ) ;
#870 = LINE ( 'NONE', #648, #294 ) ;
#871 = CARTESIAN_POINT ( 'NONE',  ( -6.424999999999998934, 1.750000000000000000, 1.000000000000000222 ) ) ;
#872 = DIRECTION ( 'NONE',  ( 0.000000000000000000, -1.000000000000000000, 0.000000000000000000 ) ) ;
#873 = EDGE_CURVE ( 'NONE', #849, #222, #106, .T. ) ;
#874 = AXIS2_PLACEMENT_3D ( 'NONE', #69, #212, #897 ) ;
#875 = AXIS2_PLACEMENT_3D ( 'NONE', #236, #387, #375 ) ;
#876 = FACE_OUTER_BOUND ( 'NONE', #87, .T. ) ;
#877 = DIRECTION ( 'NONE',  ( -0.000000000000000000, 1.000000000000000000, -0.000000000000000000 ) ) ;
#878 = CARTESIAN_POINT ( 'NONE',  ( -5.825000000000000178, 0.000000000000000000, -1.499999999999997113 ) ) ;
#879 = ORIENTED_EDGE ( 'NONE', *, *, #436, .T. ) ;
#880 = CYLINDRICAL_SURFACE ( 'NONE', #925, 0.1023622047244093780 ) ;
#881 = LINE ( 'NONE', #192, #27 ) ;
#882 = DIRECTION ( 'NONE',  ( 0.000000000000000000, 0.000000000000000000, -1.000000000000000000 ) ) ;
#883 = ORIENTED_EDGE ( 'NONE', *, *, #524, .F. ) ;
#884 = CIRCLE ( 'NONE', #148, 0.1220472440944882775 ) ;
#885 = DIRECTION ( 'NONE',  ( 0.000000000000000000, 0.000000000000000000, -1.000000000000000000 ) ) ;
#886 = LINE ( 'NONE', #420, #703 ) ;
#887 = PRODUCT_RELATED_PRODUCT_CATEGORY ( 'part', '', ( #572 ) ) ;
#888 = ORIENTED_EDGE ( 'NONE', *, *, #794, .T. ) ;
#889 = VERTEX_POINT ( 'NONE', #419 ) ;
#890 = CARTESIAN_POINT ( 'NONE',  ( -5.825000000000000178, 0.000000000000000000, -1.399999999999997025 ) ) ;
#891 = AXIS2_PLACEMENT_3D ( 'NONE', #615, #698, #176 ) ;
#892 =( NAMED_UNIT ( * ) SI_UNIT ( $, .STERADIAN. ) SOLID_ANGLE_UNIT ( ) );
#893 = VECTOR ( 'NONE', #469, 39.37007874015748143 ) ;
#894 = ORIENTED_EDGE ( 'NONE', *, *, #75, .F. ) ;
#895 = EDGE_CURVE ( 'NONE', #988, #118, #42, .T. ) ;
#896 = CARTESIAN_POINT ( 'NONE',  ( -4.173228346456692606, 2.000000000000000000, -0.2952755905511806889 ) ) ;
#897 = DIRECTION ( 'NONE',  ( 0.000000000000000000, 0.000000000000000000, -1.000000000000000000 ) ) ;
#898 = ORIENTED_EDGE ( 'NONE', *, *, #679, .F. ) ;
#899 = ORIENTED_EDGE ( 'NONE', *, *, #498, .F. ) ;
#900 = ADVANCED_FACE ( 'NONE', ( #29 ), #179, .F. ) ;
#901 = DIRECTION ( 'NONE',  ( 0.000000000000000000, 0.000000000000000000, -1.000000000000000000 ) ) ;
#902 = CARTESIAN_POINT ( 'NONE',  ( 0.5000000000000000000, -0.2000000000000069778, 1.000000000000000222 ) ) ;
#903 = VECTOR ( 'NONE', #877, 39.37007874015748143 ) ;
#904 = ORIENTED_EDGE ( 'NONE', *, *, #794, .F. ) ;
#905 = ORIENTED_EDGE ( 'NONE', *, *, #799, .T. ) ;
#906 = DIRECTION ( 'NONE',  ( 0.000000000000000000, 0.000000000000000000, -1.000000000000000000 ) ) ;
#907 = ADVANCED_FACE ( 'NONE', ( #791 ), #711, .F. ) ;
#908 = EDGE_CURVE ( 'NONE', #299, #376, #491, .T. ) ;
#909 = VECTOR ( 'NONE', #209, 39.37007874015748143 ) ;
#910 = CYLINDRICAL_SURFACE ( 'NONE', #202, 0.1023622047244093780 ) ;
#911 = AXIS2_PLACEMENT_3D ( 'NONE', #555, #407, #548 ) ;
#912 = EDGE_LOOP ( 'NONE', ( #982, #455, #976, #603 ) ) ;
#913 = VECTOR ( 'NONE', #381, 39.37007874015748143 ) ;
#914 = ORIENTED_EDGE ( 'NONE', *, *, #81, .F. ) ;
#915 = DIRECTION ( 'NONE',  ( -1.000000000000000000, -0.000000000000000000, -0.000000000000000000 ) ) ;
#916 = ORIENTED_EDGE ( 'NONE', *, *, #503, .T. ) ;
#917 = ORIENTED_EDGE ( 'NONE', *, *, #403, .F. ) ;
#918 = DIRECTION ( 'NONE',  ( 0.000000000000000000, 0.000000000000000000, 1.000000000000000000 ) ) ;
#919 = ORIENTED_EDGE ( 'NONE', *, *, #235, .T. ) ;
#920 = VERTEX_POINT ( 'NONE', #557 ) ;
#921 = DIRECTION ( 'NONE',  ( 1.000000000000000000, 0.000000000000000000, 0.000000000000000000 ) ) ;
#922 = ORIENTED_EDGE ( 'NONE', *, *, #58, .F. ) ;
#923 = AXIS2_PLACEMENT_3D ( 'NONE', #848, #844, #999 ) ;
#924 = EDGE_LOOP ( 'NONE', ( #747, #611, #512, #496 ) ) ;
#925 = AXIS2_PLACEMENT_3D ( 'NONE', #630, #638, #336 ) ;
#926 = UNCERTAINTY_MEASURE_WITH_UNIT (LENGTH_MEASURE( 1.000000000000000082E-05 ), #818, 'distance_accuracy_value', 'NONE');
#927 = DIRECTION ( 'NONE',  ( 1.000000000000000000, -0.000000000000000000, 0.000000000000000000 ) ) ;
#928 = DIRECTION ( 'NONE',  ( -0.000000000000000000, -0.000000000000000000, 1.000000000000000000 ) ) ;
#929 = CARTESIAN_POINT ( 'NONE',  ( -6.224999999999999645, 2.000000000000000000, 1.550000000000002487 ) ) ;
#930 = DIRECTION ( 'NONE',  ( -1.000000000000000000, -0.000000000000000000, -0.000000000000000000 ) ) ;
#931 = SURFACE_STYLE_USAGE ( .BOTH. , #959 ) ;
#932 = UNCERTAINTY_MEASURE_WITH_UNIT (LENGTH_MEASURE( 1.000000000000000082E-05 ), #743, 'distance_accuracy_value', 'NONE');
#933 = FACE_BOUND ( 'NONE', #675, .T. ) ;
#934 = AXIS2_PLACEMENT_3D ( 'NONE', #890, #664, #578 ) ;
#935 = CARTESIAN_POINT ( 'NONE',  ( -5.924999999999999822, 2.000000000000000000, 1.499999999999999778 ) ) ;
#936 = ORIENTED_EDGE ( 'NONE', *, *, #545, .T. ) ;
#937 = LINE ( 'NONE', #334, #813 ) ;
#938 = AXIS2_PLACEMENT_3D ( 'NONE', #327, #551, #269 ) ;
#939 = FACE_OUTER_BOUND ( 'NONE', #14, .T. ) ;
#940 = EDGE_CURVE ( 'NONE', #657, #77, #494, .T. ) ;
#941 = EDGE_LOOP ( 'NONE', ( #831, #602, #922, #62 ) ) ;
#942 = LINE ( 'NONE', #245, #856 ) ;
#943 = DIRECTION ( 'NONE',  ( 0.000000000000000000, 0.000000000000000000, 1.000000000000000000 ) ) ;
#944 = CARTESIAN_POINT ( 'NONE',  ( -4.173228346456692606, 0.000000000000000000, 0.1732283464566924114 ) ) ;
#945 = ORIENTED_EDGE ( 'NONE', *, *, #468, .F. ) ;
#946 = AXIS2_PLACEMENT_3D ( 'NONE', #247, #549, #948 ) ;
#947 = PLANE ( 'NONE',  #972 ) ;
#948 = DIRECTION ( 'NONE',  ( 0.000000000000000000, 0.000000000000000000, -1.000000000000000000 ) ) ;
#949 = CARTESIAN_POINT ( 'NONE',  ( 0.5000000000000000000, -0.2000000000000069778, 1.125000000000000222 ) ) ;
#950 = ORIENTED_EDGE ( 'NONE', *, *, #4, .F. ) ;
#951 = VERTEX_POINT ( 'NONE', #944 ) ;
#952 = CARTESIAN_POINT ( 'NONE',  ( -5.825000000000000178, 2.000000000000000000, 1.399999999999999911 ) ) ;
#953 = AXIS2_PLACEMENT_3D ( 'NONE', #18, #773, #780 ) ;
#954 = CIRCLE ( 'NONE', #89, 0.1023622047244093780 ) ;
#955 = ADVANCED_BREP_SHAPE_REPRESENTATION ( 'housing_left', ( #400, #589 ), #807 ) ;
#956 = VECTOR ( 'NONE', #248, 39.37007874015748143 ) ;
#957 = FACE_BOUND ( 'NONE', #663, .T. ) ;
#958 = DIRECTION ( 'NONE',  ( 1.000000000000000000, -0.000000000000000000, -0.000000000000000000 ) ) ;
#959 = SURFACE_SIDE_STYLE ('',( #699 ) ) ;
#960 = VERTEX_POINT ( 'NONE', #253 ) ;
#961 = LINE ( 'NONE', #110, #435 ) ;
#962 = DIRECTION ( 'NONE',  ( 0.000000000000000000, -1.000000000000000000, 0.000000000000000000 ) ) ;
#963 = CARTESIAN_POINT ( 'NONE',  ( -4.173228346456692606, 0.000000000000000000, -0.4173228346456689386 ) ) ;
#964 = CARTESIAN_POINT ( 'NONE',  ( -5.924999999999999822, 0.000000000000000000, 1.499999999999999778 ) ) ;
#965 = EDGE_CURVE ( 'NONE', #220, #463, #552, .T. ) ;
#966 = AXIS2_PLACEMENT_3D ( 'NONE', #733, #458, #495 ) ;
#967 = APPLICATION_PROTOCOL_DEFINITION ( 'draft international standard', 'automotive_design', 1998, #134 ) ;
#968 = FACE_BOUND ( 'NONE', #820, .T. ) ;
#969 = EDGE_LOOP ( 'NONE', ( #71, #540, #433, #914 ) ) ;
#970 = AXIS2_PLACEMENT_3D ( 'NONE', #756, #585, #437 ) ;
#971 = LENGTH_MEASURE_WITH_UNIT ( LENGTH_MEASURE( 0.02539999999999999897 ), #350 );
#972 = AXIS2_PLACEMENT_3D ( 'NONE', #562, #182, #196 ) ;
#973 = EDGE_CURVE ( 'NONE', #1001, #172, #608, .T. ) ;
#974 = EDGE_CURVE ( 'NONE', #577, #210, #289, .T. ) ;
#975 = LINE ( 'NONE', #506, #397 ) ;
#976 = ORIENTED_EDGE ( 'NONE', *, *, #980, .T. ) ;
#977 = LINE ( 'NONE', #284, #320 ) ;
#978 = EDGE_CURVE ( 'NONE', #345, #485, #881, .T. ) ;
#979 = CARTESIAN_POINT ( 'NONE',  ( -6.224999999999999645, 2.000000000000000000, -1.749999999999999334 ) ) ;
#980 = EDGE_CURVE ( 'NONE', #201, #222, #731, .T. ) ;
#981 = ORIENTED_EDGE ( 'NONE', *, *, #295, .T. ) ;
#982 = ORIENTED_EDGE ( 'NONE', *, *, #366, .F. ) ;
#983 = CARTESIAN_POINT ( 'NONE',  ( -6.424999999999998934, 1.750000000000000000, 1.000000000000000222 ) ) ;
#984 = EDGE_CURVE ( 'NONE', #988, #657, #590, .T. ) ;
#985 = ORIENTED_EDGE ( 'NONE', *, *, #159, .F. ) ;
#986 = CYLINDRICAL_SURFACE ( 'NONE', #382, 0.1023622047244093780 ) ;
#987 = VECTOR ( 'NONE', #962, 39.37007874015748143 ) ;
#988 = VERTEX_POINT ( 'NONE', #274 ) ;
#989 = ORIENTED_EDGE ( 'NONE', *, *, #234, .T. ) ;
#990 = CARTESIAN_POINT ( 'NONE',  ( -6.424999999999998934, 1.750000000000000000, -0.8976377952755908440 ) ) ;
#991 =( NAMED_UNIT ( * ) SI_UNIT ( $, .STERADIAN. ) SOLID_ANGLE_UNIT ( ) );
#992 = CARTESIAN_POINT ( 'NONE',  ( -4.173228346456692606, -0.4000000000000000222, 0.1732283464566924114 ) ) ;
#993 = CIRCLE ( 'NONE', #543, 0.1000000000000000194 ) ;
#994 = ORIENTED_EDGE ( 'NONE', *, *, #301, .F. ) ;
#995 = ORIENTED_EDGE ( 'NONE', *, *, #980, .F. ) ;
#996 = DIRECTION ( 'NONE',  ( -0.000000000000000000, 1.000000000000000000, -0.000000000000000000 ) ) ;
#997 = VERTEX_POINT ( 'NONE', #500 ) ;
#998 = EDGE_LOOP ( 'NONE', ( #472, #782, #372, #249, #61, #465, #519, #526 ) ) ;
#999 = DIRECTION ( 'NONE',  ( 0.000000000000000000, 0.000000000000000000, 1.000000000000000000 ) ) ;
#1000 = ORIENTED_EDGE ( 'NONE', *, *, #423, .F. ) ;
#1001 = VERTEX_POINT ( 'NONE', #367 ) ;
ENDSEC;
END-ISO-10303-21;
