ISO-10303-21;
HEADER;
FILE_DESCRIPTION (( 'STEP AP214' ),
    '1' );
FILE_NAME ('housing_right.STEP',
    '2026-05-25T23:22:08',
    ( '' ),
    ( '' ),
    'SwSTEP 2.0',
    'SolidWorks 2025',
    '' );
FILE_SCHEMA (( 'AUTOMOTIVE_DESIGN' ));
ENDSEC;

DATA;
#1 = FACE_OUTER_BOUND ( 'NONE', #661, .T. ) ;
#2 = VERTEX_POINT ( 'NONE', #636 ) ;
#3 = CARTESIAN_POINT ( 'NONE',  ( 0.000000000000000000, -0.2000000000000000111, 1.105905511811023700 ) ) ;
#4 = DIRECTION ( 'NONE',  ( 0.000000000000000000, 0.000000000000000000, 1.000000000000000000 ) ) ;
#5 = AXIS2_PLACEMENT_3D ( 'NONE', #208, #120, #131 ) ;
#6 = ORIENTED_EDGE ( 'NONE', *, *, #216, .T. ) ;
#7 = DIRECTION ( 'NONE',  ( -1.000000000000000000, 0.000000000000000000, 0.000000000000000000 ) ) ;
#8 = CARTESIAN_POINT ( 'NONE',  ( 5.924999999999999822, 2.000000000000000000, 1.499999999999998446 ) ) ;
#9 = EDGE_LOOP ( 'NONE', ( #779, #303, #713, #567 ) ) ;
#10 = ADVANCED_FACE ( 'NONE', ( #382 ), #517, .F. ) ;
#11 = LINE ( 'NONE', #284, #530 ) ;
#12 = SURFACE_SIDE_STYLE ('',( #597 ) ) ;
#13 = ORIENTED_EDGE ( 'NONE', *, *, #216, .F. ) ;
#14 = MANIFOLD_SOLID_BREP ( 'Cut-Extrude1', #60 ) ;
#15 = AXIS2_PLACEMENT_3D ( 'NONE', #70, #539, #797 ) ;
#16 = AXIS2_PLACEMENT_3D ( 'NONE', #256, #179, #626 ) ;
#17 = DIRECTION ( 'NONE',  ( 0.000000000000000000, 0.000000000000000000, 1.000000000000000000 ) ) ;
#18 = LINE ( 'NONE', #91, #498 ) ;
#19 = ORIENTED_EDGE ( 'NONE', *, *, #36, .F. ) ;
#20 = LINE ( 'NONE', #28, #30 ) ;
#21 = AXIS2_PLACEMENT_3D ( 'NONE', #474, #272, #793 ) ;
#22 = EDGE_CURVE ( 'NONE', #39, #298, #833, .T. ) ;
#23 = LINE ( 'NONE', #34, #678 ) ;
#24 = EDGE_LOOP ( 'NONE', ( #548, #849, #746, #606 ) ) ;
#25 = DIRECTION ( 'NONE',  ( -1.000000000000000000, -0.000000000000000000, -0.000000000000000000 ) ) ;
#26 = DIRECTION ( 'NONE',  ( 0.000000000000000000, 0.000000000000000000, 1.000000000000000000 ) ) ;
#27 = VERTEX_POINT ( 'NONE', #205 ) ;
#28 = CARTESIAN_POINT ( 'NONE',  ( 0.5999999999999999778, -0.2000000000000013711, -1.105905511811023478 ) ) ;
#29 = DIRECTION ( 'NONE',  ( 1.000000000000000000, -0.000000000000000000, -0.000000000000000000 ) ) ;
#30 = VECTOR ( 'NONE', #343, 39.37007874015748143 ) ;
#31 = ORIENTED_EDGE ( 'NONE', *, *, #455, .T. ) ;
#32 = VECTOR ( 'NONE', #44, 39.37007874015748143 ) ;
#33 = CARTESIAN_POINT ( 'NONE',  ( -5.924999999999999822, 0.000000000000000000, -1.499999999999997113 ) ) ;
#34 = CARTESIAN_POINT ( 'NONE',  ( -6.424999999999998934, 2.000000000000000000, 1.750000000000002665 ) ) ;
#35 = ORIENTED_EDGE ( 'NONE', *, *, #203, .F. ) ;
#36 = EDGE_CURVE ( 'NONE', #145, #279, #278, .T. ) ;
#37 = FACE_OUTER_BOUND ( 'NONE', #9, .T. ) ;
#38 = CARTESIAN_POINT ( 'NONE',  ( 6.424999999999998934, -0.4000000000000000222, 1.549999999999999822 ) ) ;
#39 = VERTEX_POINT ( 'NONE', #534 ) ;
#40 = CARTESIAN_POINT ( 'NONE',  ( 0.000000000000000000, 2.000000000000000000, 1.750000000000001776 ) ) ;
#41 = CARTESIAN_POINT ( 'NONE',  ( 0.5999999999999999778, -0.2000000000000013711, -0.9999999999999998890 ) ) ;
#42 = AXIS2_PLACEMENT_3D ( 'NONE', #736, #84, #689 ) ;
#43 = CARTESIAN_POINT ( 'NONE',  ( 0.5999999999999999778, -0.2000000000000000111, 1.000000000000000222 ) ) ;
#44 = DIRECTION ( 'NONE',  ( -0.000000000000000000, 1.000000000000000000, 0.000000000000000000 ) ) ;
#45 = CARTESIAN_POINT ( 'NONE',  ( 0.5999999999999999778, -0.2000000000000000111, 1.365923996832131609E-16 ) ) ;
#46 = EDGE_CURVE ( 'NONE', #470, #476, #291, .T. ) ;
#47 = ORIENTED_EDGE ( 'NONE', *, *, #112, .F. ) ;
#48 = ORIENTED_EDGE ( 'NONE', *, *, #163, .T. ) ;
#49 = PLANE ( 'NONE',  #16 ) ;
#50 = CYLINDRICAL_SURFACE ( 'NONE', #767, 0.2000000000000000389 ) ;
#51 = EDGE_LOOP ( 'NONE', ( #433, #237, #187, #80 ) ) ;
#52 =( NAMED_UNIT ( * ) SI_UNIT ( $, .STERADIAN. ) SOLID_ANGLE_UNIT ( ) );
#53 = FACE_OUTER_BOUND ( 'NONE', #320, .T. ) ;
#54 = CIRCLE ( 'NONE', #239, 0.1000000000000000194 ) ;
#55 = ORIENTED_EDGE ( 'NONE', *, *, #727, .F. ) ;
#56 = VERTEX_POINT ( 'NONE', #201 ) ;
#57 = ADVANCED_FACE ( 'NONE', ( #1 ), #670, .F. ) ;
#58 = LINE ( 'NONE', #714, #583 ) ;
#59 = FILL_AREA_STYLE_COLOUR ( '', #655 ) ;
#60 = CLOSED_SHELL ( 'NONE', ( #346, #396, #362, #262, #850, #738, #57, #209, #251, #371, #821, #520, #624, #589, #774, #836, #230, #757, #613, #672, #331, #401, #357, #10, #722, #575, #273 ) ) ;
#61 = DIRECTION ( 'NONE',  ( -0.000000000000000000, 0.000000000000000000, 1.000000000000000000 ) ) ;
#62 = DIRECTION ( 'NONE',  ( -1.000000000000000000, 0.000000000000000000, 0.000000000000000000 ) ) ;
#63 = VERTEX_POINT ( 'NONE', #469 ) ;
#64 = DIRECTION ( 'NONE',  ( -1.000000000000000000, -0.000000000000000000, -0.000000000000000000 ) ) ;
#65 = DIRECTION ( 'NONE',  ( -1.000000000000000000, -0.000000000000000000, 1.275571047625337126E-16 ) ) ;
#66 = EDGE_LOOP ( 'NONE', ( #463, #375, #442, #414, #342, #47, #310, #13 ) ) ;
#67 = VECTOR ( 'NONE', #784, 39.37007874015748143 ) ;
#68 = CARTESIAN_POINT ( 'NONE',  ( 5.635475963608657324, 1.750000000000000000, 1.000000000000000222 ) ) ;
#69 = DIRECTION ( 'NONE',  ( 0.000000000000000000, 0.000000000000000000, 1.000000000000000000 ) ) ;
#70 = CARTESIAN_POINT ( 'NONE',  ( 6.424999999999998934, 1.750000000000000000, -1.000000000000000222 ) ) ;
#71 = EDGE_CURVE ( 'NONE', #632, #693, #763, .T. ) ;
#72 = AXIS2_PLACEMENT_3D ( 'NONE', #68, #646, #339 ) ;
#73 = ORIENTED_EDGE ( 'NONE', *, *, #243, .F. ) ;
#74 = CARTESIAN_POINT ( 'NONE',  ( 6.424999999999998934, 2.000000000000000000, -1.549999999999999822 ) ) ;
#75 = DIMENSIONAL_EXPONENTS ( 1.000000000000000000, 0.000000000000000000, 0.000000000000000000, 0.000000000000000000, 0.000000000000000000, 0.000000000000000000, 0.000000000000000000 ) ;
#76 = CARTESIAN_POINT ( 'NONE',  ( 5.635475963608657324, 1.750000000000000000, 1.102362204724409711 ) ) ;
#77 = ORIENTED_EDGE ( 'NONE', *, *, #444, .F. ) ;
#78 = DIRECTION ( 'NONE',  ( 0.000000000000000000, 0.000000000000000000, 1.000000000000000000 ) ) ;
#79 = DIRECTION ( 'NONE',  ( 0.000000000000000000, 0.000000000000000000, -1.000000000000000000 ) ) ;
#80 = ORIENTED_EDGE ( 'NONE', *, *, #851, .T. ) ;
#81 = CIRCLE ( 'NONE', #692, 0.2000000000000000389 ) ;
#82 = EDGE_CURVE ( 'NONE', #427, #27, #355, .T. ) ;
#83 = VECTOR ( 'NONE', #321, 39.37007874015748143 ) ;
#84 = DIRECTION ( 'NONE',  ( -1.000000000000000000, 0.000000000000000000, 0.000000000000000000 ) ) ;
#85 = FACE_BOUND ( 'NONE', #681, .T. ) ;
#86 = ORIENTED_EDGE ( 'NONE', *, *, #260, .F. ) ;
#87 = DIRECTION ( 'NONE',  ( -1.000000000000000000, 0.000000000000000000, 0.000000000000000000 ) ) ;
#88 = PLANE ( 'NONE',  #196 ) ;
#89 = EDGE_LOOP ( 'NONE', ( #77, #224, #483, #604 ) ) ;
#90 = PLANE ( 'NONE',  #42 ) ;
#91 = CARTESIAN_POINT ( 'NONE',  ( -5.924999999999999822, 2.000000000000000000, -1.499999999999997113 ) ) ;
#92 = ORIENTED_EDGE ( 'NONE', *, *, #838, .F. ) ;
#93 = DIRECTION ( 'NONE',  ( 0.000000000000000000, 0.000000000000000000, -1.000000000000000000 ) ) ;
#94 = DIRECTION ( 'NONE',  ( -0.000000000000000000, 1.000000000000000000, -0.000000000000000000 ) ) ;
#95 = CIRCLE ( 'NONE', #214, 0.1059055118110236865 ) ;
#96 = AXIS2_PLACEMENT_3D ( 'NONE', #631, #503, #171 ) ;
#97 = ORIENTED_EDGE ( 'NONE', *, *, #46, .F. ) ;
#98 = EDGE_CURVE ( 'NONE', #202, #841, #392, .T. ) ;
#99 = DIRECTION ( 'NONE',  ( 1.000000000000000000, 0.000000000000000000, 0.000000000000000000 ) ) ;
#100 = DIRECTION ( 'NONE',  ( 0.000000000000000000, 0.000000000000000000, 1.000000000000000000 ) ) ;
#101 = EDGE_LOOP ( 'NONE', ( #555, #648 ) ) ;
#102 = CARTESIAN_POINT ( 'NONE',  ( 5.825000000000000178, 2.000000000000000000, -1.499999999999998446 ) ) ;
#103 = CARTESIAN_POINT ( 'NONE',  ( 6.424999999999998934, 2.000000000000000000, 1.550000000000000933 ) ) ;
#104 = AXIS2_PLACEMENT_3D ( 'NONE', #45, #385, #641 ) ;
#105 = ORIENTED_EDGE ( 'NONE', *, *, #665, .T. ) ;
#106 = FACE_OUTER_BOUND ( 'NONE', #101, .T. ) ;
#107 = EDGE_CURVE ( 'NONE', #115, #806, #329, .T. ) ;
#108 = CARTESIAN_POINT ( 'NONE',  ( 0.5999999999999999778, -0.2000000000000000111, 0.1059055118110237698 ) ) ;
#109 = VERTEX_POINT ( 'NONE', #526 ) ;
#110 = DIRECTION ( 'NONE',  ( -1.000000000000000000, 0.000000000000000000, 1.152678478339351656E-16 ) ) ;
#111 = AXIS2_PLACEMENT_3D ( 'NONE', #723, #519, #457 ) ;
#112 = EDGE_CURVE ( 'NONE', #619, #777, #197, .T. ) ;
#113 = LINE ( 'NONE', #103, #349 ) ;
#114 = ORIENTED_EDGE ( 'NONE', *, *, #213, .T. ) ;
#115 = VERTEX_POINT ( 'NONE', #211 ) ;
#116 = CARTESIAN_POINT ( 'NONE',  ( 0.5999999999999999778, -0.2000000000000013711, -0.8940944881889761886 ) ) ;
#117 = FACE_OUTER_BOUND ( 'NONE', #290, .T. ) ;
#118 = VERTEX_POINT ( 'NONE', #666 ) ;
#119 = EDGE_CURVE ( 'NONE', #178, #168, #716, .T. ) ;
#120 = DIRECTION ( 'NONE',  ( -1.000000000000000000, 0.000000000000000000, 0.000000000000000000 ) ) ;
#121 = LINE ( 'NONE', #409, #731 ) ;
#122 = AXIS2_PLACEMENT_3D ( 'NONE', #546, #805, #481 ) ;
#123 = DIRECTION ( 'NONE',  ( -0.000000000000000000, 1.000000000000000000, -0.000000000000000000 ) ) ;
#124 = AXIS2_PLACEMENT_3D ( 'NONE', #415, #541, #673 ) ;
#125 = ORIENTED_EDGE ( 'NONE', *, *, #232, .T. ) ;
#126 = EDGE_CURVE ( 'NONE', #408, #2, #734, .T. ) ;
#127 =( CONVERSION_BASED_UNIT ( 'INCH', #843 ) LENGTH_UNIT ( ) NAMED_UNIT ( #143 ) );
#128 = LINE ( 'NONE', #669, #225 ) ;
#129 = ORIENTED_EDGE ( 'NONE', *, *, #551, .F. ) ;
#130 = AXIS2_PLACEMENT_3D ( 'NONE', #593, #123, #801 ) ;
#131 = DIRECTION ( 'NONE',  ( 0.000000000000000000, 0.000000000000000000, 1.000000000000000000 ) ) ;
#132 = DIRECTION ( 'NONE',  ( 1.000000000000000000, 0.000000000000000000, -1.152678478339351656E-16 ) ) ;
#133 = DIRECTION ( 'NONE',  ( 0.000000000000000000, 0.000000000000000000, -1.000000000000000000 ) ) ;
#134 = EDGE_LOOP ( 'NONE', ( #671, #564, #837, #704 ) ) ;
#135 = AXIS2_PLACEMENT_3D ( 'NONE', #572, #167, #100 ) ;
#136 = EDGE_CURVE ( 'NONE', #781, #806, #18, .T. ) ;
#137 = CARTESIAN_POINT ( 'NONE',  ( -6.424999999999998934, -0.4000000000000000222, -1.749999999999999334 ) ) ;
#138 = CARTESIAN_POINT ( 'NONE',  ( 0.000000000000000000, 2.000000000000000000, 0.000000000000000000 ) ) ;
#139 = EDGE_LOOP ( 'NONE', ( #152, #696, #657, #354 ) ) ;
#140 = AXIS2_PLACEMENT_3D ( 'NONE', #301, #25, #78 ) ;
#141 = DIRECTION ( 'NONE',  ( 1.000000000000000000, -0.000000000000000000, -0.000000000000000000 ) ) ;
#142 = DIRECTION ( 'NONE',  ( -0.000000000000000000, 1.000000000000000000, -0.000000000000000000 ) ) ;
#143 = DIMENSIONAL_EXPONENTS ( 1.000000000000000000, 0.000000000000000000, 0.000000000000000000, 0.000000000000000000, 0.000000000000000000, 0.000000000000000000, 0.000000000000000000 ) ;
#144 = AXIS2_PLACEMENT_3D ( 'NONE', #702, #834, #252 ) ;
#145 = VERTEX_POINT ( 'NONE', #293 ) ;
#146 = DIRECTION ( 'NONE',  ( 1.000000000000000000, 0.000000000000000000, -1.275571047625337126E-16 ) ) ;
#147 = DIRECTION ( 'NONE',  ( 0.000000000000000000, 0.000000000000000000, 1.000000000000000000 ) ) ;
#148 = ORIENTED_EDGE ( 'NONE', *, *, #422, .F. ) ;
#149 = EDGE_CURVE ( 'NONE', #168, #178, #568, .T. ) ;
#150 = DIRECTION ( 'NONE',  ( -0.000000000000000000, 1.000000000000000000, -0.000000000000000000 ) ) ;
#151 = CARTESIAN_POINT ( 'NONE',  ( 5.825000000000000178, 2.000000000000000000, 1.399999999999998357 ) ) ;
#152 = ORIENTED_EDGE ( 'NONE', *, *, #524, .F. ) ;
#153 = AXIS2_PLACEMENT_3D ( 'NONE', #151, #486, #429 ) ;
#154 = AXIS2_PLACEMENT_3D ( 'NONE', #240, #235, #110 ) ;
#155 = CARTESIAN_POINT ( 'NONE',  ( 5.924999999999999822, 1.750000000000000000, -1.102362204724409711 ) ) ;
#156 = CARTESIAN_POINT ( 'NONE',  ( 6.424999999999998934, 1.750000000000000000, -0.8976377952755908440 ) ) ;
#157 = ORIENTED_EDGE ( 'NONE', *, *, #838, .T. ) ;
#158 = DIRECTION ( 'NONE',  ( 0.000000000000000000, -1.000000000000000000, 0.000000000000000000 ) ) ;
#159 = DIRECTION ( 'NONE',  ( 0.000000000000000000, 0.000000000000000000, -1.000000000000000000 ) ) ;
#160 = ORIENTED_EDGE ( 'NONE', *, *, #513, .T. ) ;
#161 = DIRECTION ( 'NONE',  ( -0.000000000000000000, 1.000000000000000000, -0.000000000000000000 ) ) ;
#162 = LINE ( 'NONE', #217, #417 ) ;
#163 = EDGE_CURVE ( 'NONE', #467, #391, #195, .T. ) ;
#164 = ORIENTED_EDGE ( 'NONE', *, *, #325, .F. ) ;
#165 = AXIS2_PLACEMENT_3D ( 'NONE', #687, #741, #147 ) ;
#166 = LINE ( 'NONE', #102, #394 ) ;
#167 = DIRECTION ( 'NONE',  ( -1.000000000000000000, -0.000000000000000000, -0.000000000000000000 ) ) ;
#168 = VERTEX_POINT ( 'NONE', #156 ) ;
#169 = CARTESIAN_POINT ( 'NONE',  ( 5.635475963608657324, 1.750000000000000000, -1.000000000000000222 ) ) ;
#170 = VECTOR ( 'NONE', #395, 39.37007874015748143 ) ;
#171 = DIRECTION ( 'NONE',  ( 0.000000000000000000, 0.000000000000000000, 1.000000000000000000 ) ) ;
#172 = EDGE_LOOP ( 'NONE', ( #35, #754, #212, #255 ) ) ;
#173 = EDGE_CURVE ( 'NONE', #109, #427, #563, .T. ) ;
#174 = ORIENTED_EDGE ( 'NONE', *, *, #473, .F. ) ;
#175 = DIRECTION ( 'NONE',  ( -1.275571047625337126E-16, 0.000000000000000000, -1.000000000000000000 ) ) ;
#176 = CARTESIAN_POINT ( 'NONE',  ( 6.225000000000000533, -0.4000000000000000777, -1.550000000000000933 ) ) ;
#177 = VECTOR ( 'NONE', #450, 39.37007874015748143 ) ;
#178 = VERTEX_POINT ( 'NONE', #615 ) ;
#179 = DIRECTION ( 'NONE',  ( -1.000000000000000000, 0.000000000000000000, 0.000000000000000000 ) ) ;
#180 = DIRECTION ( 'NONE',  ( 0.000000000000000000, 0.000000000000000000, 1.000000000000000000 ) ) ;
#181 = VECTOR ( 'NONE', #596, 39.37007874015748143 ) ;
#182 = EDGE_LOOP ( 'NONE', ( #148, #418, #245, #411 ) ) ;
#183 = ORIENTED_EDGE ( 'NONE', *, *, #119, .F. ) ;
#184 = CARTESIAN_POINT ( 'NONE',  ( 0.000000000000000000, -0.2000000000000000111, 0.8940944881889764106 ) ) ;
#185 = AXIS2_PLACEMENT_3D ( 'NONE', #600, #402, #789 ) ;
#186 = PLANE ( 'NONE',  #499 ) ;
#187 = ORIENTED_EDGE ( 'NONE', *, *, #325, .T. ) ;
#188 = ORIENTED_EDGE ( 'NONE', *, *, #98, .F. ) ;
#189 = APPLICATION_PROTOCOL_DEFINITION ( 'draft international standard', 'automotive_design', 1998, #782 ) ;
#190 = CARTESIAN_POINT ( 'NONE',  ( 5.924999999999999822, 0.000000000000000000, -1.399999999999997469 ) ) ;
#191 = EDGE_LOOP ( 'NONE', ( #73, #316, #400, #586 ) ) ;
#192 = EDGE_LOOP ( 'NONE', ( #92, #504 ) ) ;
#193 = CARTESIAN_POINT ( 'NONE',  ( 0.5999999999999999778, -0.2000000000000013711, -0.9999999999999998890 ) ) ;
#194 = ADVANCED_BREP_SHAPE_REPRESENTATION ( 'housing_right', ( #14, #111 ), #263 ) ;
#195 = CIRCLE ( 'NONE', #677, 0.1000000000000000194 ) ;
#196 = AXIS2_PLACEMENT_3D ( 'NONE', #691, #358, #26 ) ;
#197 = LINE ( 'NONE', #138, #458 ) ;
#198 = VECTOR ( 'NONE', #488, 39.37007874015748143 ) ;
#199 = ORIENTED_EDGE ( 'NONE', *, *, #545, .F. ) ;
#200 = LINE ( 'NONE', #852, #556 ) ;
#201 = CARTESIAN_POINT ( 'NONE',  ( 0.000000000000000000, -0.2000000000000000111, -0.1059055118110234922 ) ) ;
#202 = VERTEX_POINT ( 'NONE', #426 ) ;
#203 = EDGE_CURVE ( 'NONE', #109, #327, #162, .T. ) ;
#204 = DIRECTION ( 'NONE',  ( 1.000000000000000000, -0.000000000000000000, -0.000000000000000000 ) ) ;
#205 = CARTESIAN_POINT ( 'NONE',  ( 6.225000000000000533, 2.000000000000000000, -1.750000000000001110 ) ) ;
#206 = ORIENTED_EDGE ( 'NONE', *, *, #712, .F. ) ;
#207 = EDGE_CURVE ( 'NONE', #829, #638, #289, .T. ) ;
#208 = CARTESIAN_POINT ( 'NONE',  ( 0.000000000000000000, -0.2000000000000000111, 1.365923996832131609E-16 ) ) ;
#209 = ADVANCED_FACE ( 'NONE', ( #554 ), #558, .F. ) ;
#210 = LINE ( 'NONE', #471, #475 ) ;
#211 = CARTESIAN_POINT ( 'NONE',  ( 0.000000000000000000, 2.000000000000000000, -1.750000000000000222 ) ) ;
#212 = ORIENTED_EDGE ( 'NONE', *, *, #634, .F. ) ;
#213 = EDGE_CURVE ( 'NONE', #802, #408, #528, .T. ) ;
#214 = AXIS2_PLACEMENT_3D ( 'NONE', #193, #264, #266 ) ;
#215 = FACE_BOUND ( 'NONE', #192, .T. ) ;
#216 = EDGE_CURVE ( 'NONE', #581, #63, #220, .T. ) ;
#217 = CARTESIAN_POINT ( 'NONE',  ( 6.424999999999998934, -0.4000000000000000222, -1.750000000000001110 ) ) ;
#218 = ORIENTED_EDGE ( 'NONE', *, *, #659, .F. ) ;
#219 = CARTESIAN_POINT ( 'NONE',  ( -6.424999999999998934, 2.000000000000000000, -1.749999999999999334 ) ) ;
#220 = LINE ( 'NONE', #683, #569 ) ;
#221 = ORIENTED_EDGE ( 'NONE', *, *, #136, .T. ) ;
#222 = LINE ( 'NONE', #296, #274 ) ;
#223 = CARTESIAN_POINT ( 'NONE',  ( 6.424999999999998934, 1.750000000000000000, -1.000000000000000222 ) ) ;
#224 = ORIENTED_EDGE ( 'NONE', *, *, #420, .T. ) ;
#225 = VECTOR ( 'NONE', #728, 39.37007874015748143 ) ;
#226 = CARTESIAN_POINT ( 'NONE',  ( 0.5999999999999999778, -0.2000000000000000111, 0.8940944881889764106 ) ) ;
#227 = CYLINDRICAL_SURFACE ( 'NONE', #717, 0.2000000000000000389 ) ;
#228 = EDGE_LOOP ( 'NONE', ( #629, #6, #269, #48, #447, #387 ) ) ;
#229 = AXIS2_PLACEMENT_3D ( 'NONE', #768, #280, #662 ) ;
#230 = ADVANCED_FACE ( 'NONE', ( #85, #680, #353 ), #88, .T. ) ;
#231 = CARTESIAN_POINT ( 'NONE',  ( 6.224999999999999645, 2.000000000000000000, 1.550000000000000933 ) ) ;
#232 = EDGE_CURVE ( 'NONE', #145, #493, #54, .T. ) ;
#233 = CARTESIAN_POINT ( 'NONE',  ( 0.000000000000000000, -0.4000000000000000222, -1.750000000000000222 ) ) ;
#234 = VERTEX_POINT ( 'NONE', #233 ) ;
#235 = DIRECTION ( 'NONE',  ( -1.152678478339351656E-16, 0.000000000000000000, -1.000000000000000000 ) ) ;
#236 = DIRECTION ( 'NONE',  ( 0.000000000000000000, -1.000000000000000000, 0.000000000000000000 ) ) ;
#237 = ORIENTED_EDGE ( 'NONE', *, *, #22, .F. ) ;
#238 = AXIS2_PLACEMENT_3D ( 'NONE', #725, #142, #133 ) ;
#239 = AXIS2_PLACEMENT_3D ( 'NONE', #413, #627, #297 ) ;
#240 = CARTESIAN_POINT ( 'NONE',  ( -5.924999999999999822, 2.000000000000000000, 1.499999999999999778 ) ) ;
#241 = AXIS2_PLACEMENT_3D ( 'NONE', #803, #480, #368 ) ;
#242 = DIRECTION ( 'NONE',  ( -1.000000000000000000, 0.000000000000000000, 0.000000000000000000 ) ) ;
#243 = EDGE_CURVE ( 'NONE', #777, #638, #23, .T. ) ;
#244 = ORIENTED_EDGE ( 'NONE', *, *, #524, .T. ) ;
#245 = ORIENTED_EDGE ( 'NONE', *, *, #36, .T. ) ;
#246 = CARTESIAN_POINT ( 'NONE',  ( 5.825000000000000178, 2.000000000000000000, -1.499999999999998446 ) ) ;
#247 = AXIS2_PLACEMENT_3D ( 'NONE', #531, #344, #729 ) ;
#248 = DIRECTION ( 'NONE',  ( 0.000000000000000000, 0.000000000000000000, 1.000000000000000000 ) ) ;
#249 = EDGE_CURVE ( 'NONE', #327, #829, #81, .T. ) ;
#250 = ORIENTED_EDGE ( 'NONE', *, *, #299, .F. ) ;
#251 = ADVANCED_FACE ( 'NONE', ( #478 ), #227, .T. ) ;
#252 = DIRECTION ( 'NONE',  ( 1.000000000000000000, 0.000000000000000000, -1.152678478339351656E-16 ) ) ;
#253 = CARTESIAN_POINT ( 'NONE',  ( 6.225000000000000533, 2.000000000000000000, -1.550000000000000933 ) ) ;
#254 = ORIENTED_EDGE ( 'NONE', *, *, #697, .T. ) ;
#255 = ORIENTED_EDGE ( 'NONE', *, *, #299, .T. ) ;
#256 = CARTESIAN_POINT ( 'NONE',  ( 0.5999999999999999778, -0.2000000000000000111, 1.000000000000000222 ) ) ;
#257 = CYLINDRICAL_SURFACE ( 'NONE', #96, 0.1059055118110236310 ) ;
#258 = VECTOR ( 'NONE', #790, 39.37007874015748143 ) ;
#259 = ORIENTED_EDGE ( 'NONE', *, *, #249, .F. ) ;
#260 = EDGE_CURVE ( 'NONE', #781, #279, #542, .T. ) ;
#261 = EDGE_LOOP ( 'NONE', ( #114, #405 ) ) ;
#262 = ADVANCED_FACE ( 'NONE', ( #348 ), #750, .F. ) ;
#263 =( GEOMETRIC_REPRESENTATION_CONTEXT ( 3 ) GLOBAL_UNCERTAINTY_ASSIGNED_CONTEXT ( ( #501 ) ) GLOBAL_UNIT_ASSIGNED_CONTEXT ( ( #127, #523, #52 ) ) REPRESENTATION_CONTEXT ( 'NONE', 'WORKASPACE' ) );
#264 = DIRECTION ( 'NONE',  ( -1.000000000000000000, 0.000000000000000000, 0.000000000000000000 ) ) ;
#265 = ORIENTED_EDGE ( 'NONE', *, *, #373, .F. ) ;
#266 = DIRECTION ( 'NONE',  ( 0.000000000000000000, 0.000000000000000000, -1.000000000000000000 ) ) ;
#267 =( NAMED_UNIT ( * ) PLANE_ANGLE_UNIT ( ) SI_UNIT ( $, .RADIAN. ) );
#268 = AXIS2_PLACEMENT_3D ( 'NONE', #176, #510, #826 ) ;
#269 = ORIENTED_EDGE ( 'NONE', *, *, #508, .T. ) ;
#270 = LINE ( 'NONE', #529, #664 ) ;
#271 = VECTOR ( 'NONE', #94, 39.37007874015748143 ) ;
#272 = DIRECTION ( 'NONE',  ( 0.000000000000000000, 1.000000000000000000, 0.000000000000000000 ) ) ;
#273 = ADVANCED_FACE ( 'NONE', ( #314 ), #186, .F. ) ;
#274 = VECTOR ( 'NONE', #150, 39.37007874015748143 ) ;
#275 = EDGE_LOOP ( 'NONE', ( #739, #798, #762, #616 ) ) ;
#276 = FACE_OUTER_BOUND ( 'NONE', #324, .T. ) ;
#277 = CIRCLE ( 'NONE', #748, 0.1059055118110236865 ) ;
#278 = LINE ( 'NONE', #8, #170 ) ;
#279 = VERTEX_POINT ( 'NONE', #708 ) ;
#280 = DIRECTION ( 'NONE',  ( 1.000000000000000000, 0.000000000000000000, -0.000000000000000000 ) ) ;
#281 = LINE ( 'NONE', #397, #733 ) ;
#282 = CARTESIAN_POINT ( 'NONE',  ( 0.5999999999999999778, -0.2000000000000000111, 1.000000000000000222 ) ) ;
#283 = VERTEX_POINT ( 'NONE', #516 ) ;
#284 = CARTESIAN_POINT ( 'NONE',  ( 5.635475963608657324, 1.750000000000000000, -1.102362204724409711 ) ) ;
#285 =( CONVERSION_BASED_UNIT ( 'INCH', #462 ) LENGTH_UNIT ( ) NAMED_UNIT ( #75 ) );
#286 = AXIS2_PLACEMENT_3D ( 'NONE', #808, #489, #737 ) ;
#287 = VERTEX_POINT ( 'NONE', #775 ) ;
#288 = FACE_OUTER_BOUND ( 'NONE', #228, .T. ) ;
#289 = LINE ( 'NONE', #753, #271 ) ;
#290 = EDGE_LOOP ( 'NONE', ( #845, #552 ) ) ;
#291 = CIRCLE ( 'NONE', #130, 0.1000000000000000194 ) ;
#292 = CYLINDRICAL_SURFACE ( 'NONE', #140, 0.1059055118110236865 ) ;
#293 = CARTESIAN_POINT ( 'NONE',  ( 5.924999999999999822, 2.000000000000000000, 1.399999999999998357 ) ) ;
#294 = VERTEX_POINT ( 'NONE', #309 ) ;
#295 = CIRCLE ( 'NONE', #365, 0.1059055118110236865 ) ;
#296 = CARTESIAN_POINT ( 'NONE',  ( 5.924999999999999822, 2.000000000000000000, 1.399999999999998357 ) ) ;
#297 = DIRECTION ( 'NONE',  ( 0.000000000000000000, 0.000000000000000000, -1.000000000000000000 ) ) ;
#298 = VERTEX_POINT ( 'NONE', #831 ) ;
#299 = EDGE_CURVE ( 'NONE', #118, #327, #113, .T. ) ;
#300 = AXIS2_PLACEMENT_3D ( 'NONE', #602, #724, #69 ) ;
#301 = CARTESIAN_POINT ( 'NONE',  ( 0.5999999999999999778, -0.2000000000000013711, -0.9999999999999998890 ) ) ;
#302 = DIRECTION ( 'NONE',  ( -0.000000000000000000, 1.000000000000000000, -0.000000000000000000 ) ) ;
#303 = ORIENTED_EDGE ( 'NONE', *, *, #697, .F. ) ;
#304 = CARTESIAN_POINT ( 'NONE',  ( 0.000000000000000000, -0.4000000000000000222, 1.750000000000001776 ) ) ;
#305 = DIRECTION ( 'NONE',  ( 0.000000000000000000, 0.000000000000000000, -1.000000000000000000 ) ) ;
#306 = ORIENTED_EDGE ( 'NONE', *, *, #126, .T. ) ;
#307 = LINE ( 'NONE', #830, #83 ) ;
#308 = EDGE_CURVE ( 'NONE', #794, #109, #701, .T. ) ;
#309 = CARTESIAN_POINT ( 'NONE',  ( 0.5999999999999999778, -0.2000000000000013711, -1.105905511811023478 ) ) ;
#310 = ORIENTED_EDGE ( 'NONE', *, *, #444, .T. ) ;
#311 = AXIS2_PLACEMENT_3D ( 'NONE', #223, #423, #159 ) ;
#312 = DIRECTION ( 'NONE',  ( 0.000000000000000000, 0.000000000000000000, 1.000000000000000000 ) ) ;
#313 = VECTOR ( 'NONE', #807, 39.37007874015748143 ) ;
#314 = FACE_OUTER_BOUND ( 'NONE', #819, .T. ) ;
#315 = EDGE_LOOP ( 'NONE', ( #323, #684, #259, #250 ) ) ;
#316 = ORIENTED_EDGE ( 'NONE', *, *, #496, .T. ) ;
#317 = CARTESIAN_POINT ( 'NONE',  ( 0.000000000000000000, 2.000000000000000000, -1.750000000000000222 ) ) ;
#318 = PRESENTATION_LAYER_ASSIGNMENT (  '', '', ( #547 ) ) ;
#319 = CARTESIAN_POINT ( 'NONE',  ( 0.000000000000000000, 2.000000000000000000, 0.000000000000000000 ) ) ;
#320 = EDGE_LOOP ( 'NONE', ( #31, #574, #735, #560, #19, #125, #490, #832, #350, #783, #430, #540 ) ) ;
#321 = DIRECTION ( 'NONE',  ( 0.000000000000000000, -1.000000000000000000, 0.000000000000000000 ) ) ;
#322 = CARTESIAN_POINT ( 'NONE',  ( 5.924999999999999822, 0.000000000000000000, 1.399999999999998357 ) ) ;
#323 = ORIENTED_EDGE ( 'NONE', *, *, #621, .F. ) ;
#324 = EDGE_LOOP ( 'NONE', ( #578, #721, #766, #157 ) ) ;
#325 = EDGE_CURVE ( 'NONE', #39, #479, #822, .T. ) ;
#326 = DIRECTION ( 'NONE',  ( 0.000000000000000000, 0.000000000000000000, 1.000000000000000000 ) ) ;
#327 = VERTEX_POINT ( 'NONE', #38 ) ;
#328 = CARTESIAN_POINT ( 'NONE',  ( 5.825000000000000178, 0.000000000000000000, -1.499999999999998446 ) ) ;
#329 = LINE ( 'NONE', #404, #825 ) ;
#330 = EDGE_LOOP ( 'NONE', ( #345, #688 ) ) ;
#331 = ADVANCED_FACE ( 'NONE', ( #53 ), #381, .F. ) ;
#332 = LINE ( 'NONE', #525, #67 ) ;
#333 = AXIS2_PLACEMENT_3D ( 'NONE', #319, #236, #703 ) ;
#334 = ORIENTED_EDGE ( 'NONE', *, *, #82, .F. ) ;
#335 = CARTESIAN_POINT ( 'NONE',  ( 5.825000000000000178, 0.000000000000000000, 1.499999999999998446 ) ) ;
#336 = FILL_AREA_STYLE ('',( #59 ) ) ;
#337 = CIRCLE ( 'NONE', #842, 0.1059055118110236865 ) ;
#338 = EDGE_LOOP ( 'NONE', ( #129, #730, #649, #667, #709, #160 ) ) ;
#339 = DIRECTION ( 'NONE',  ( 0.000000000000000000, 0.000000000000000000, -1.000000000000000000 ) ) ;
#340 = FACE_OUTER_BOUND ( 'NONE', #134, .T. ) ;
#341 = AXIS2_PLACEMENT_3D ( 'NONE', #773, #643, #312 ) ;
#342 = ORIENTED_EDGE ( 'NONE', *, *, #496, .F. ) ;
#343 = DIRECTION ( 'NONE',  ( -1.000000000000000000, -0.000000000000000000, -0.000000000000000000 ) ) ;
#344 = DIRECTION ( 'NONE',  ( -1.000000000000000000, 0.000000000000000000, 0.000000000000000000 ) ) ;
#345 = ORIENTED_EDGE ( 'NONE', *, *, #851, .F. ) ;
#346 = ADVANCED_FACE ( 'NONE', ( #635 ), #765, .F. ) ;
#347 = FACE_OUTER_BOUND ( 'NONE', #338, .T. ) ;
#348 = FACE_OUTER_BOUND ( 'NONE', #139, .T. ) ;
#349 = VECTOR ( 'NONE', #432, 39.37007874015748143 ) ;
#350 = ORIENTED_EDGE ( 'NONE', *, *, #243, .T. ) ;
#351 = AXIS2_PLACEMENT_3D ( 'NONE', #491, #87, #428 ) ;
#352 = DIRECTION ( 'NONE',  ( -1.000000000000000000, 0.000000000000000000, 0.000000000000000000 ) ) ;
#353 = FACE_OUTER_BOUND ( 'NONE', #182, .T. ) ;
#354 = ORIENTED_EDGE ( 'NONE', *, *, #598, .F. ) ;
#355 = CIRCLE ( 'NONE', #238, 0.2000000000000000389 ) ;
#356 = DIRECTION ( 'NONE',  ( 1.000000000000000000, -0.000000000000000000, -0.000000000000000000 ) ) ;
#357 = ADVANCED_FACE ( 'NONE', ( #117 ), #495, .T. ) ;
#358 = DIRECTION ( 'NONE',  ( -1.000000000000000000, 0.000000000000000000, 0.000000000000000000 ) ) ;
#359 = EDGE_LOOP ( 'NONE', ( #786, #306, #828, #218 ) ) ;
#360 = DIRECTION ( 'NONE',  ( 1.000000000000000000, -0.000000000000000000, -0.000000000000000000 ) ) ;
#361 = DIRECTION ( 'NONE',  ( -0.000000000000000000, 1.000000000000000000, -0.000000000000000000 ) ) ;
#362 = ADVANCED_FACE ( 'NONE', ( #577 ), #647, .F. ) ;
#363 = PRODUCT ( 'housing_right', 'housing_right', '', ( #595 ) ) ;
#364 = ORIENTED_EDGE ( 'NONE', *, *, #853, .F. ) ;
#365 = AXIS2_PLACEMENT_3D ( 'NONE', #374, #242, #180 ) ;
#366 = PRODUCT_DEFINITION_CONTEXT ( 'detailed design', #782, 'design' ) ;
#367 = CIRCLE ( 'NONE', #706, 0.1023622047244093780 ) ;
#368 = DIRECTION ( 'NONE',  ( 0.000000000000000000, 0.000000000000000000, 1.000000000000000000 ) ) ;
#369 = DIRECTION ( 'NONE',  ( 0.000000000000000000, -1.000000000000000000, 0.000000000000000000 ) ) ;
#370 = EDGE_LOOP ( 'NONE', ( #809, #535, #487, #221 ) ) ;
#371 = ADVANCED_FACE ( 'NONE', ( #506 ), #50, .T. ) ;
#372 = CARTESIAN_POINT ( 'NONE',  ( 0.000000000000000000, -0.2000000000000013711, -0.9999999999999998890 ) ) ;
#373 = EDGE_CURVE ( 'NONE', #841, #512, #711, .T. ) ;
#374 = CARTESIAN_POINT ( 'NONE',  ( 0.5999999999999999778, -0.2000000000000000111, 1.000000000000000222 ) ) ;
#375 = ORIENTED_EDGE ( 'NONE', *, *, #107, .F. ) ;
#376 = CARTESIAN_POINT ( 'NONE',  ( 0.000000000000000000, 0.000000000000000000, 0.000000000000000000 ) ) ;
#377 = DIRECTION ( 'NONE',  ( -1.000000000000000000, -0.000000000000000000, -0.000000000000000000 ) ) ;
#378 = ORIENTED_EDGE ( 'NONE', *, *, #607, .F. ) ;
#379 = FACE_BOUND ( 'NONE', #330, .T. ) ;
#380 = VECTOR ( 'NONE', #356, 39.37007874015748143 ) ;
#381 = PLANE ( 'NONE',  #333 ) ;
#382 = FACE_OUTER_BOUND ( 'NONE', #24, .T. ) ;
#383 = CIRCLE ( 'NONE', #185, 0.1059055118110236310 ) ;
#384 = CARTESIAN_POINT ( 'NONE',  ( 0.5999999999999999778, -0.2000000000000013711, -0.9999999999999998890 ) ) ;
#385 = DIRECTION ( 'NONE',  ( -1.000000000000000000, 0.000000000000000000, 0.000000000000000000 ) ) ;
#386 = EDGE_CURVE ( 'NONE', #841, #202, #295, .T. ) ;
#387 = ORIENTED_EDGE ( 'NONE', *, *, #46, .T. ) ;
#388 = EDGE_LOOP ( 'NONE', ( #188, #105, #543, #265 ) ) ;
#389 = FACE_OUTER_BOUND ( 'NONE', #51, .T. ) ;
#390 = ORIENTED_EDGE ( 'NONE', *, *, #308, .F. ) ;
#391 = VERTEX_POINT ( 'NONE', #322 ) ;
#392 = CIRCLE ( 'NONE', #637, 0.1059055118110236865 ) ;
#393 = CARTESIAN_POINT ( 'NONE',  ( 5.635475963608657324, 1.750000000000000000, 1.000000000000000222 ) ) ;
#394 = VECTOR ( 'NONE', #431, 39.37007874015748143 ) ;
#395 = DIRECTION ( 'NONE',  ( 0.000000000000000000, 0.000000000000000000, -1.000000000000000000 ) ) ;
#396 = ADVANCED_FACE ( 'NONE', ( #761 ), #580, .F. ) ;
#397 = CARTESIAN_POINT ( 'NONE',  ( 6.424999999999998934, -0.4000000000000000222, 1.750000000000001110 ) ) ;
#398 = MECHANICAL_DESIGN_GEOMETRIC_PRESENTATION_REPRESENTATION (  '', ( #547 ), #804 ) ;
#399 = PRESENTATION_STYLE_ASSIGNMENT (( #848 ) ) ;
#400 = ORIENTED_EDGE ( 'NONE', *, *, #513, .F. ) ;
#401 = ADVANCED_FACE ( 'NONE', ( #389 ), #257, .F. ) ;
#402 = DIRECTION ( 'NONE',  ( -1.000000000000000000, 0.000000000000000000, 0.000000000000000000 ) ) ;
#403 = CARTESIAN_POINT ( 'NONE',  ( 0.000000000000000000, -0.2000000000000000111, 1.000000000000000222 ) ) ;
#404 = CARTESIAN_POINT ( 'NONE',  ( 0.000000000000000000, 2.000000000000000000, 0.000000000000000000 ) ) ;
#405 = ORIENTED_EDGE ( 'NONE', *, *, #573, .T. ) ;
#406 = LINE ( 'NONE', #521, #258 ) ;
#407 = DIRECTION ( 'NONE',  ( -0.000000000000000000, 0.000000000000000000, 1.000000000000000000 ) ) ;
#408 = VERTEX_POINT ( 'NONE', #437 ) ;
#409 = CARTESIAN_POINT ( 'NONE',  ( -5.924999999999999822, 2.000000000000000000, 1.499999999999999778 ) ) ;
#410 = EDGE_CURVE ( 'NONE', #234, #794, #699, .T. ) ;
#411 = ORIENTED_EDGE ( 'NONE', *, *, #727, .T. ) ;
#412 = LINE ( 'NONE', #421, #313 ) ;
#413 = CARTESIAN_POINT ( 'NONE',  ( 5.825000000000000178, 2.000000000000000000, 1.399999999999998357 ) ) ;
#414 = ORIENTED_EDGE ( 'NONE', *, *, #551, .T. ) ;
#415 = CARTESIAN_POINT ( 'NONE',  ( 0.000000000000000000, -0.4000000000000000222, 0.000000000000000000 ) ) ;
#416 = DIRECTION ( 'NONE',  ( -0.000000000000000000, 0.000000000000000000, 1.000000000000000000 ) ) ;
#417 = VECTOR ( 'NONE', #622, 39.37007874015748143 ) ;
#418 = ORIENTED_EDGE ( 'NONE', *, *, #651, .T. ) ;
#419 = AXIS2_PLACEMENT_3D ( 'NONE', #824, #175, #694 ) ;
#420 = EDGE_CURVE ( 'NONE', #619, #493, #121, .T. ) ;
#421 = CARTESIAN_POINT ( 'NONE',  ( 6.424999999999998934, 2.000000000000000000, 1.750000000000001110 ) ) ;
#422 = EDGE_CURVE ( 'NONE', #391, #470, #128, .T. ) ;
#423 = DIRECTION ( 'NONE',  ( 1.000000000000000000, 0.000000000000000000, 0.000000000000000000 ) ) ;
#424 = ORIENTED_EDGE ( 'NONE', *, *, #651, .F. ) ;
#425 = DIRECTION ( 'NONE',  ( 0.000000000000000000, 0.000000000000000000, -1.000000000000000000 ) ) ;
#426 = CARTESIAN_POINT ( 'NONE',  ( 0.5999999999999999778, -0.2000000000000000111, 0.8940944881889764106 ) ) ;
#427 = VERTEX_POINT ( 'NONE', #74 ) ;
#428 = DIRECTION ( 'NONE',  ( 0.000000000000000000, 0.000000000000000000, 1.000000000000000000 ) ) ;
#429 = DIRECTION ( 'NONE',  ( 0.000000000000000000, 0.000000000000000000, 1.000000000000000000 ) ) ;
#430 = ORIENTED_EDGE ( 'NONE', *, *, #634, .T. ) ;
#431 = DIRECTION ( 'NONE',  ( -0.000000000000000000, 1.000000000000000000, -0.000000000000000000 ) ) ;
#432 = DIRECTION ( 'NONE',  ( 0.000000000000000000, -1.000000000000000000, 0.000000000000000000 ) ) ;
#433 = ORIENTED_EDGE ( 'NONE', *, *, #561, .F. ) ;
#434 = EDGE_CURVE ( 'NONE', #493, #467, #792, .T. ) ;
#435 = AXIS2_PLACEMENT_3D ( 'NONE', #603, #62, #466 ) ;
#436 = CYLINDRICAL_SURFACE ( 'NONE', #559, 0.1023622047244093780 ) ;
#437 = CARTESIAN_POINT ( 'NONE',  ( 5.924999999999999822, 1.750000000000000000, 1.102362204724409711 ) ) ;
#438 = ORIENTED_EDGE ( 'NONE', *, *, #686, .F. ) ;
#439 = AXIS2_PLACEMENT_3D ( 'NONE', #644, #835, #248 ) ;
#440 = PLANE ( 'NONE',  #144 ) ;
#441 = DIRECTION ( 'NONE',  ( 1.000000000000000000, 0.000000000000000000, -0.000000000000000000 ) ) ;
#442 = ORIENTED_EDGE ( 'NONE', *, *, #800, .F. ) ;
#443 = LINE ( 'NONE', #33, #788 ) ;
#444 = EDGE_CURVE ( 'NONE', #619, #63, #584, .T. ) ;
#445 = AXIS2_PLACEMENT_3D ( 'NONE', #393, #204, #468 ) ;
#446 = CARTESIAN_POINT ( 'NONE',  ( 0.5999999999999999778, -0.2000000000000000111, 1.000000000000000222 ) ) ;
#447 = ORIENTED_EDGE ( 'NONE', *, *, #422, .T. ) ;
#448 = CIRCLE ( 'NONE', #5, 0.1059055118110236310 ) ;
#449 = CARTESIAN_POINT ( 'NONE',  ( 0.000000000000000000, 2.000000000000000000, -1.499999999999997558 ) ) ;
#450 = DIRECTION ( 'NONE',  ( -1.000000000000000000, -0.000000000000000000, -0.000000000000000000 ) ) ;
#451 = VERTEX_POINT ( 'NONE', #459 ) ;
#452 = SHAPE_DEFINITION_REPRESENTATION ( #690, #194 ) ;
#453 = CARTESIAN_POINT ( 'NONE',  ( 0.000000000000000000, -0.2000000000000000111, 0.1059055118110237698 ) ) ;
#454 = DIRECTION ( 'NONE',  ( -1.000000000000000000, 0.000000000000000000, 0.000000000000000000 ) ) ;
#455 = EDGE_CURVE ( 'NONE', #27, #115, #210, .T. ) ;
#456 = ORIENTED_EDGE ( 'NONE', *, *, #561, .T. ) ;
#457 = DIRECTION ( 'NONE',  ( 1.000000000000000000, 0.000000000000000000, 0.000000000000000000 ) ) ;
#458 = VECTOR ( 'NONE', #407, 39.37007874015748143 ) ;
#459 = CARTESIAN_POINT ( 'NONE',  ( 0.5999999999999999778, -0.2000000000000013711, -0.8940944881889761886 ) ) ;
#460 = CIRCLE ( 'NONE', #241, 0.1023622047244093780 ) ;
#461 = PRODUCT_DEFINITION ( 'UNKNOWN', '', #601, #366 ) ;
#462 = LENGTH_MEASURE_WITH_UNIT ( LENGTH_MEASURE( 0.02539999999999999897 ), #653 );
#463 = ORIENTED_EDGE ( 'NONE', *, *, #536, .T. ) ;
#464 = DIRECTION ( 'NONE',  ( -1.000000000000000000, -0.000000000000000000, -0.000000000000000000 ) ) ;
#465 = AXIS2_PLACEMENT_3D ( 'NONE', #43, #642, #4 ) ;
#466 = DIRECTION ( 'NONE',  ( 0.000000000000000000, 0.000000000000000000, 1.000000000000000000 ) ) ;
#467 = VERTEX_POINT ( 'NONE', #844 ) ;
#468 = DIRECTION ( 'NONE',  ( 0.000000000000000000, 0.000000000000000000, -1.000000000000000000 ) ) ;
#469 = CARTESIAN_POINT ( 'NONE',  ( 0.000000000000000000, 0.000000000000000000, 1.499999999999999334 ) ) ;
#470 = VERTEX_POINT ( 'NONE', #190 ) ;
#471 = CARTESIAN_POINT ( 'NONE',  ( -6.424999999999998934, 2.000000000000000000, -1.749999999999999334 ) ) ;
#472 = AXIS2_PLACEMENT_3D ( 'NONE', #446, #840, #326 ) ;
#473 = EDGE_CURVE ( 'NONE', #512, #751, #337, .T. ) ;
#474 = CARTESIAN_POINT ( 'NONE',  ( 5.825000000000000178, 2.000000000000000000, -1.399999999999998357 ) ) ;
#475 = VECTOR ( 'NONE', #65, 39.37007874015748143 ) ;
#476 = VERTEX_POINT ( 'NONE', #328 ) ;
#477 = FACE_OUTER_BOUND ( 'NONE', #275, .T. ) ;
#478 = FACE_OUTER_BOUND ( 'NONE', #315, .T. ) ;
#479 = VERTEX_POINT ( 'NONE', #453 ) ;
#480 = DIRECTION ( 'NONE',  ( 1.000000000000000000, -0.000000000000000000, -0.000000000000000000 ) ) ;
#481 = DIRECTION ( 'NONE',  ( 0.000000000000000000, 0.000000000000000000, -1.000000000000000000 ) ) ;
#482 = VECTOR ( 'NONE', #377, 39.37007874015748143 ) ;
#483 = ORIENTED_EDGE ( 'NONE', *, *, #434, .T. ) ;
#484 = EDGE_CURVE ( 'NONE', #294, #451, #95, .T. ) ;
#485 = CARTESIAN_POINT ( 'NONE',  ( 5.635475963608657324, 1.750000000000000000, 0.8976377952755908440 ) ) ;
#486 = DIRECTION ( 'NONE',  ( 0.000000000000000000, 1.000000000000000000, 0.000000000000000000 ) ) ;
#487 = ORIENTED_EDGE ( 'NONE', *, *, #712, .T. ) ;
#488 = DIRECTION ( 'NONE',  ( -1.000000000000000000, -0.000000000000000000, -0.000000000000000000 ) ) ;
#489 = DIRECTION ( 'NONE',  ( 0.000000000000000000, -1.000000000000000000, 0.000000000000000000 ) ) ;
#490 = ORIENTED_EDGE ( 'NONE', *, *, #420, .F. ) ;
#491 = CARTESIAN_POINT ( 'NONE',  ( 0.000000000000000000, -0.2000000000000000111, 1.000000000000000222 ) ) ;
#492 = DIRECTION ( 'NONE',  ( 0.000000000000000000, 0.000000000000000000, -1.000000000000000000 ) ) ;
#493 = VERTEX_POINT ( 'NONE', #533 ) ;
#494 = DIRECTION ( 'NONE',  ( -1.000000000000000000, 0.000000000000000000, 0.000000000000000000 ) ) ;
#495 = PLANE ( 'NONE',  #104 ) ;
#496 = EDGE_CURVE ( 'NONE', #777, #770, #406, .T. ) ;
#497 = EDGE_LOOP ( 'NONE', ( #726, #424, #599, #700 ) ) ;
#498 = VECTOR ( 'NONE', #611, 39.37007874015748143 ) ;
#499 = AXIS2_PLACEMENT_3D ( 'NONE', #41, #441, #695 ) ;
#500 = AXIS2_PLACEMENT_3D ( 'NONE', #376, #99, #514 ) ;
#501 = UNCERTAINTY_MEASURE_WITH_UNIT (LENGTH_MEASURE( 1.000000000000000082E-05 ), #127, 'distance_accuracy_value', 'NONE');
#502 = DIRECTION ( 'NONE',  ( 1.000000000000000000, -0.000000000000000000, -0.000000000000000000 ) ) ;
#503 = DIRECTION ( 'NONE',  ( -1.000000000000000000, -0.000000000000000000, -0.000000000000000000 ) ) ;
#504 = ORIENTED_EDGE ( 'NONE', *, *, #785, .F. ) ;
#505 = CARTESIAN_POINT ( 'NONE',  ( 6.225000000000000533, -0.4000000000000000222, -1.750000000000001110 ) ) ;
#506 = FACE_OUTER_BOUND ( 'NONE', #591, .T. ) ;
#507 = EDGE_LOOP ( 'NONE', ( #174, #378 ) ) ;
#508 = EDGE_CURVE ( 'NONE', #63, #467, #58, .T. ) ;
#509 = FACE_BOUND ( 'NONE', #507, .T. ) ;
#510 = DIRECTION ( 'NONE',  ( 0.000000000000000000, -1.000000000000000000, 0.000000000000000000 ) ) ;
#511 = ORIENTED_EDGE ( 'NONE', *, *, #484, .T. ) ;
#512 = VERTEX_POINT ( 'NONE', #3 ) ;
#513 = EDGE_CURVE ( 'NONE', #829, #770, #281, .T. ) ;
#514 = DIRECTION ( 'NONE',  ( 0.000000000000000000, 0.000000000000000000, -1.000000000000000000 ) ) ;
#515 = VECTOR ( 'NONE', #656, 39.37007874015748143 ) ;
#516 = CARTESIAN_POINT ( 'NONE',  ( 5.924999999999999822, 1.750000000000000000, -0.8976377952755908440 ) ) ;
#517 = CYLINDRICAL_SURFACE ( 'NONE', #465, 0.1059055118110236865 ) ;
#518 = ORIENTED_EDGE ( 'NONE', *, *, #776, .T. ) ;
#519 = DIRECTION ( 'NONE',  ( 0.000000000000000000, 0.000000000000000000, 1.000000000000000000 ) ) ;
#520 = ADVANCED_FACE ( 'NONE', ( #276 ), #796, .F. ) ;
#521 = CARTESIAN_POINT ( 'NONE',  ( 0.000000000000000000, 2.000000000000000000, 1.750000000000001776 ) ) ;
#522 = ORIENTED_EDGE ( 'NONE', *, *, #149, .F. ) ;
#523 =( NAMED_UNIT ( * ) PLANE_ANGLE_UNIT ( ) SI_UNIT ( $, .RADIAN. ) );
#524 = EDGE_CURVE ( 'NONE', #283, #623, #367, .T. ) ;
#525 = CARTESIAN_POINT ( 'NONE',  ( 6.225000000000000533, 2.000000000000000000, -1.750000000000001110 ) ) ;
#526 = CARTESIAN_POINT ( 'NONE',  ( 6.424999999999998934, -0.4000000000000000222, -1.550000000000000933 ) ) ;
#527 = EDGE_LOOP ( 'NONE', ( #742, #594 ) ) ;
#528 = CIRCLE ( 'NONE', #165, 0.1023622047244093780 ) ;
#529 = CARTESIAN_POINT ( 'NONE',  ( 0.5999999999999999778, -0.2000000000000000111, -0.1059055118110234922 ) ) ;
#530 = VECTOR ( 'NONE', #360, 39.37007874015748143 ) ;
#531 = CARTESIAN_POINT ( 'NONE',  ( 0.000000000000000000, -0.2000000000000013711, -0.9999999999999998890 ) ) ;
#532 = ORIENTED_EDGE ( 'NONE', *, *, #846, .T. ) ;
#533 = CARTESIAN_POINT ( 'NONE',  ( 5.825000000000000178, 2.000000000000000000, 1.499999999999998446 ) ) ;
#534 = CARTESIAN_POINT ( 'NONE',  ( 0.5999999999999999778, -0.2000000000000000111, 0.1059055118110237698 ) ) ;
#535 = ORIENTED_EDGE ( 'NONE', *, *, #747, .F. ) ;
#536 = EDGE_CURVE ( 'NONE', #581, #806, #588, .T. ) ;
#537 =( LENGTH_UNIT ( ) NAMED_UNIT ( * ) SI_UNIT ( $, .METRE. ) );
#538 = DIRECTION ( 'NONE',  ( -1.000000000000000000, 0.000000000000000000, 1.275571047625337126E-16 ) ) ;
#539 = DIRECTION ( 'NONE',  ( 1.000000000000000000, 0.000000000000000000, 0.000000000000000000 ) ) ;
#540 = ORIENTED_EDGE ( 'NONE', *, *, #82, .T. ) ;
#541 = DIRECTION ( 'NONE',  ( 0.000000000000000000, -1.000000000000000000, 0.000000000000000000 ) ) ;
#542 = CIRCLE ( 'NONE', #286, 0.1000000000000000194 ) ;
#543 = ORIENTED_EDGE ( 'NONE', *, *, #607, .T. ) ;
#544 = CARTESIAN_POINT ( 'NONE',  ( 0.000000000000000000, -0.2000000000000013711, -0.8940944881889761886 ) ) ;
#545 = EDGE_CURVE ( 'NONE', #27, #794, #332, .T. ) ;
#546 = CARTESIAN_POINT ( 'NONE',  ( 5.635475963608657324, 1.750000000000000000, -1.000000000000000222 ) ) ;
#547 = STYLED_ITEM ( 'NONE', ( #399 ), #14 ) ;
#548 = ORIENTED_EDGE ( 'NONE', *, *, #665, .F. ) ;
#549 = PLANE ( 'NONE',  #124 ) ;
#550 = CARTESIAN_POINT ( 'NONE',  ( 6.224999999999999645, 2.000000000000000000, 1.550000000000000933 ) ) ;
#551 = EDGE_CURVE ( 'NONE', #234, #770, #200, .T. ) ;
#552 = ORIENTED_EDGE ( 'NONE', *, *, #686, .T. ) ;
#553 = PLANE ( 'NONE',  #625 ) ;
#554 = FACE_OUTER_BOUND ( 'NONE', #497, .T. ) ;
#555 = ORIENTED_EDGE ( 'NONE', *, *, #386, .T. ) ;
#556 = VECTOR ( 'NONE', #61, 39.37007874015748143 ) ;
#557 = CARTESIAN_POINT ( 'NONE',  ( 0.000000000000000000, 0.000000000000000000, 0.000000000000000000 ) ) ;
#558 = CYLINDRICAL_SURFACE ( 'NONE', #153, 0.1000000000000000194 ) ;
#559 = AXIS2_PLACEMENT_3D ( 'NONE', #169, #502, #760 ) ;
#560 = ORIENTED_EDGE ( 'NONE', *, *, #260, .T. ) ;
#561 = EDGE_CURVE ( 'NONE', #298, #56, #270, .T. ) ;
#562 = FACE_OUTER_BOUND ( 'NONE', #89, .T. ) ;
#563 = LINE ( 'NONE', #745, #787 ) ;
#564 = ORIENTED_EDGE ( 'NONE', *, *, #776, .F. ) ;
#565 = FACE_BOUND ( 'NONE', #527, .T. ) ;
#566 = DIRECTION ( 'NONE',  ( 0.000000000000000000, -1.000000000000000000, 0.000000000000000000 ) ) ;
#567 = ORIENTED_EDGE ( 'NONE', *, *, #119, .T. ) ;
#568 = CIRCLE ( 'NONE', #311, 0.1023622047244093780 ) ;
#569 = VECTOR ( 'NONE', #416, 39.37007874015748143 ) ;
#570 = CIRCLE ( 'NONE', #679, 0.2000000000000000389 ) ;
#571 = LINE ( 'NONE', #317, #32 ) ;
#572 = CARTESIAN_POINT ( 'NONE',  ( 0.5999999999999999778, -0.2000000000000013711, -0.9999999999999998890 ) ) ;
#573 = EDGE_CURVE ( 'NONE', #408, #802, #772, .T. ) ;
#574 = ORIENTED_EDGE ( 'NONE', *, *, #107, .T. ) ;
#575 = ADVANCED_FACE ( 'NONE', ( #340 ), #292, .F. ) ;
#576 = DIRECTION ( 'NONE',  ( 0.000000000000000000, 0.000000000000000000, -1.000000000000000000 ) ) ;
#577 = FACE_OUTER_BOUND ( 'NONE', #645, .T. ) ;
#578 = ORIENTED_EDGE ( 'NONE', *, *, #126, .F. ) ;
#579 = DIRECTION ( 'NONE',  ( -1.000000000000000000, -0.000000000000000000, 1.152678478339351656E-16 ) ) ;
#580 = CYLINDRICAL_SURFACE ( 'NONE', #472, 0.1059055118110236865 ) ;
#581 = VERTEX_POINT ( 'NONE', #605 ) ;
#582 = APPLICATION_PROTOCOL_DEFINITION ( 'draft international standard', 'automotive_design', 1998, #705 ) ;
#583 = VECTOR ( 'NONE', #660, 39.37007874015748143 ) ;
#584 = LINE ( 'NONE', #780, #813 ) ;
#585 = VECTOR ( 'NONE', #652, 39.37007874015748143 ) ;
#586 = ORIENTED_EDGE ( 'NONE', *, *, #207, .T. ) ;
#587 = EDGE_CURVE ( 'NONE', #294, #632, #20, .T. ) ;
#588 = LINE ( 'NONE', #847, #515 ) ;
#589 = ADVANCED_FACE ( 'NONE', ( #288 ), #553, .F. ) ;
#590 = DIRECTION ( 'NONE',  ( -0.000000000000000000, 0.000000000000000000, 1.000000000000000000 ) ) ;
#591 = EDGE_LOOP ( 'NONE', ( #334, #759, #390, #199 ) ) ;
#592 = DIRECTION ( 'NONE',  ( 0.000000000000000000, -1.000000000000000000, 0.000000000000000000 ) ) ;
#593 = CARTESIAN_POINT ( 'NONE',  ( 5.825000000000000178, 0.000000000000000000, -1.399999999999998357 ) ) ;
#594 = ORIENTED_EDGE ( 'NONE', *, *, #71, .F. ) ;
#595 = PRODUCT_CONTEXT ( 'NONE', #705, 'mechanical' ) ;
#596 = DIRECTION ( 'NONE',  ( 0.000000000000000000, -1.000000000000000000, 0.000000000000000000 ) ) ;
#597 = SURFACE_STYLE_FILL_AREA ( #336 ) ;
#598 = EDGE_CURVE ( 'NONE', #623, #178, #11, .T. ) ;
#599 = ORIENTED_EDGE ( 'NONE', *, *, #163, .F. ) ;
#600 = CARTESIAN_POINT ( 'NONE',  ( 0.000000000000000000, -0.2000000000000000111, 1.365923996832131609E-16 ) ) ;
#601 = PRODUCT_DEFINITION_FORMATION_WITH_SPECIFIED_SOURCE ( 'ANY', '', #363, .NOT_KNOWN. ) ;
#602 = CARTESIAN_POINT ( 'NONE',  ( 5.924999999999999822, 1.750000000000000000, 1.000000000000000222 ) ) ;
#603 = CARTESIAN_POINT ( 'NONE',  ( 0.5999999999999999778, -0.2000000000000000111, 1.365923996832131609E-16 ) ) ;
#604 = ORIENTED_EDGE ( 'NONE', *, *, #508, .F. ) ;
#605 = CARTESIAN_POINT ( 'NONE',  ( 0.000000000000000000, 0.000000000000000000, -1.499999999999997558 ) ) ;
#606 = ORIENTED_EDGE ( 'NONE', *, *, #473, .T. ) ;
#607 = EDGE_CURVE ( 'NONE', #751, #512, #639, .T. ) ;
#608 = CARTESIAN_POINT ( 'NONE',  ( 0.5999999999999999778, -0.2000000000000000111, 1.365923996832131609E-16 ) ) ;
#609 = VECTOR ( 'NONE', #29, 39.37007874015748143 ) ;
#610 = CIRCLE ( 'NONE', #668, 0.1059055118110236865 ) ;
#611 = DIRECTION ( 'NONE',  ( -1.000000000000000000, -0.000000000000000000, 1.152678478339351656E-16 ) ) ;
#612 = EDGE_LOOP ( 'NONE', ( #823, #675, #814, #364 ) ) ;
#613 = ADVANCED_FACE ( 'NONE', ( #477 ), #817, .F. ) ;
#614 = DIRECTION ( 'NONE',  ( 1.275571047625337126E-16, -0.000000000000000000, 1.000000000000000000 ) ) ;
#615 = CARTESIAN_POINT ( 'NONE',  ( 6.424999999999998934, 1.750000000000000000, -1.102362204724409711 ) ) ;
#616 = ORIENTED_EDGE ( 'NONE', *, *, #545, .T. ) ;
#617 = LINE ( 'NONE', #682, #744 ) ;
#618 = CARTESIAN_POINT ( 'NONE',  ( 5.825000000000000178, 0.000000000000000000, 1.399999999999998357 ) ) ;
#619 = VERTEX_POINT ( 'NONE', #749 ) ;
#620 = FACE_OUTER_BOUND ( 'NONE', #172, .T. ) ;
#621 = EDGE_CURVE ( 'NONE', #638, #118, #570, .T. ) ;
#622 = DIRECTION ( 'NONE',  ( 0.000000000000000000, 0.000000000000000000, 1.000000000000000000 ) ) ;
#623 = VERTEX_POINT ( 'NONE', #155 ) ;
#624 = ADVANCED_FACE ( 'NONE', ( #347 ), #549, .T. ) ;
#625 = AXIS2_PLACEMENT_3D ( 'NONE', #557, #158, #752 ) ;
#626 = DIRECTION ( 'NONE',  ( 0.000000000000000000, 0.000000000000000000, 1.000000000000000000 ) ) ;
#627 = DIRECTION ( 'NONE',  ( 0.000000000000000000, -1.000000000000000000, 0.000000000000000000 ) ) ;
#628 = CIRCLE ( 'NONE', #341, 0.1023622047244093780 ) ;
#629 = ORIENTED_EDGE ( 'NONE', *, *, #747, .T. ) ;
#630 = DIRECTION ( 'NONE',  ( -1.000000000000000000, 0.000000000000000000, 0.000000000000000000 ) ) ;
#631 = CARTESIAN_POINT ( 'NONE',  ( 0.5999999999999999778, -0.2000000000000000111, 1.365923996832131609E-16 ) ) ;
#632 = VERTEX_POINT ( 'NONE', #743 ) ;
#633 = FACE_OUTER_BOUND ( 'NONE', #191, .T. ) ;
#634 = EDGE_CURVE ( 'NONE', #118, #427, #412, .T. ) ;
#635 = FACE_OUTER_BOUND ( 'NONE', #612, .T. ) ;
#636 = CARTESIAN_POINT ( 'NONE',  ( 6.424999999999998934, 1.750000000000000000, 1.102362204724409711 ) ) ;
#637 = AXIS2_PLACEMENT_3D ( 'NONE', #282, #454, #715 ) ;
#638 = VERTEX_POINT ( 'NONE', #799 ) ;
#639 = CIRCLE ( 'NONE', #351, 0.1059055118110236865 ) ;
#640 = PLANE ( 'NONE',  #500 ) ;
#641 = DIRECTION ( 'NONE',  ( 0.000000000000000000, 0.000000000000000000, 1.000000000000000000 ) ) ;
#642 = DIRECTION ( 'NONE',  ( -1.000000000000000000, -0.000000000000000000, -0.000000000000000000 ) ) ;
#643 = DIRECTION ( 'NONE',  ( 1.000000000000000000, 0.000000000000000000, -0.000000000000000000 ) ) ;
#644 = CARTESIAN_POINT ( 'NONE',  ( 0.5999999999999999778, -0.2000000000000000111, 1.365923996832131609E-16 ) ) ;
#645 = EDGE_LOOP ( 'NONE', ( #438, #456, #532, #164 ) ) ;
#646 = DIRECTION ( 'NONE',  ( 1.000000000000000000, -0.000000000000000000, -0.000000000000000000 ) ) ;
#647 = CYLINDRICAL_SURFACE ( 'NONE', #439, 0.1059055118110236310 ) ;
#648 = ORIENTED_EDGE ( 'NONE', *, *, #98, .T. ) ;
#649 = ORIENTED_EDGE ( 'NONE', *, *, #308, .T. ) ;
#650 = EDGE_CURVE ( 'NONE', #283, #168, #617, .T. ) ;
#651 = EDGE_CURVE ( 'NONE', #391, #145, #222, .T. ) ;
#652 = DIRECTION ( 'NONE',  ( 1.000000000000000000, 0.000000000000000000, -1.275571047625337126E-16 ) ) ;
#653 =( LENGTH_UNIT ( ) NAMED_UNIT ( * ) SI_UNIT ( $, .METRE. ) );
#654 = CYLINDRICAL_SURFACE ( 'NONE', #72, 0.1023622047244093780 ) ;
#655 = COLOUR_RGB ( '',0.7921568627450980005, 0.8196078431372548767, 0.9333333333333333481 ) ;
#656 = DIRECTION ( 'NONE',  ( -0.000000000000000000, 1.000000000000000000, 0.000000000000000000 ) ) ;
#657 = ORIENTED_EDGE ( 'NONE', *, *, #149, .T. ) ;
#658 = FACE_OUTER_BOUND ( 'NONE', #359, .T. ) ;
#659 = EDGE_CURVE ( 'NONE', #802, #287, #811, .T. ) ;
#660 = DIRECTION ( 'NONE',  ( 1.000000000000000000, 0.000000000000000000, -1.152678478339351656E-16 ) ) ;
#661 = EDGE_LOOP ( 'NONE', ( #86, #206, #97, #55 ) ) ;
#662 = DIRECTION ( 'NONE',  ( 0.000000000000000000, 0.000000000000000000, 1.000000000000000000 ) ) ;
#663 = CARTESIAN_POINT ( 'NONE',  ( 5.924999999999999822, 1.750000000000000000, -1.000000000000000222 ) ) ;
#664 = VECTOR ( 'NONE', #464, 39.37007874015748143 ) ;
#665 = EDGE_CURVE ( 'NONE', #202, #751, #676, .T. ) ;
#666 = CARTESIAN_POINT ( 'NONE',  ( 6.424999999999998934, 2.000000000000000000, 1.550000000000000933 ) ) ;
#667 = ORIENTED_EDGE ( 'NONE', *, *, #203, .T. ) ;
#668 = AXIS2_PLACEMENT_3D ( 'NONE', #384, #494, #93 ) ;
#669 = CARTESIAN_POINT ( 'NONE',  ( 5.924999999999999822, 0.000000000000000000, 1.499999999999998446 ) ) ;
#670 = CYLINDRICAL_SURFACE ( 'NONE', #21, 0.1000000000000000194 ) ;
#671 = ORIENTED_EDGE ( 'NONE', *, *, #587, .F. ) ;
#672 = ADVANCED_FACE ( 'NONE', ( #740, #215, #620 ), #90, .F. ) ;
#673 = DIRECTION ( 'NONE',  ( 0.000000000000000000, -0.000000000000000000, -1.000000000000000000 ) ) ;
#674 = DIRECTION ( 'NONE',  ( 0.000000000000000000, -1.000000000000000000, 0.000000000000000000 ) ) ;
#675 = ORIENTED_EDGE ( 'NONE', *, *, #587, .T. ) ;
#676 = LINE ( 'NONE', #226, #198 ) ;
#677 = AXIS2_PLACEMENT_3D ( 'NONE', #618, #361, #305 ) ;
#678 = VECTOR ( 'NONE', #812, 39.37007874015748143 ) ;
#679 = AXIS2_PLACEMENT_3D ( 'NONE', #231, #161, #425 ) ;
#680 = FACE_BOUND ( 'NONE', #261, .T. ) ;
#681 = EDGE_LOOP ( 'NONE', ( #254, #244 ) ) ;
#682 = CARTESIAN_POINT ( 'NONE',  ( 5.635475963608657324, 1.750000000000000000, -0.8976377952755908440 ) ) ;
#683 = CARTESIAN_POINT ( 'NONE',  ( 0.000000000000000000, 0.000000000000000000, 0.000000000000000000 ) ) ;
#684 = ORIENTED_EDGE ( 'NONE', *, *, #207, .F. ) ;
#685 = DIRECTION ( 'NONE',  ( 1.000000000000000000, -0.000000000000000000, -0.000000000000000000 ) ) ;
#686 = EDGE_CURVE ( 'NONE', #298, #39, #758, .T. ) ;
#687 = CARTESIAN_POINT ( 'NONE',  ( 5.924999999999999822, 1.750000000000000000, 1.000000000000000222 ) ) ;
#688 = ORIENTED_EDGE ( 'NONE', *, *, #846, .F. ) ;
#689 = DIRECTION ( 'NONE',  ( 0.000000000000000000, 0.000000000000000000, 1.000000000000000000 ) ) ;
#690 = PRODUCT_DEFINITION_SHAPE ( 'NONE', 'NONE',  #461 ) ;
#691 = CARTESIAN_POINT ( 'NONE',  ( 5.924999999999999822, 2.000000000000000000, 1.499999999999998446 ) ) ;
#692 = AXIS2_PLACEMENT_3D ( 'NONE', #818, #369, #492 ) ;
#693 = VERTEX_POINT ( 'NONE', #544 ) ;
#694 = DIRECTION ( 'NONE',  ( -1.000000000000000000, 0.000000000000000000, 1.275571047625337126E-16 ) ) ;
#695 = DIRECTION ( 'NONE',  ( -0.000000000000000000, 0.000000000000000000, -1.000000000000000000 ) ) ;
#696 = ORIENTED_EDGE ( 'NONE', *, *, #650, .T. ) ;
#697 = EDGE_CURVE ( 'NONE', #623, #283, #460, .T. ) ;
#698 = CARTESIAN_POINT ( 'NONE',  ( 6.224999999999999645, -0.4000000000000000222, 1.750000000000001110 ) ) ;
#699 = LINE ( 'NONE', #137, #585 ) ;
#700 = ORIENTED_EDGE ( 'NONE', *, *, #434, .F. ) ;
#701 = CIRCLE ( 'NONE', #268, 0.2000000000000000389 ) ;
#702 = CARTESIAN_POINT ( 'NONE',  ( -5.924999999999999822, 2.000000000000000000, -1.499999999999997113 ) ) ;
#703 = DIRECTION ( 'NONE',  ( 0.000000000000000000, -0.000000000000000000, -1.000000000000000000 ) ) ;
#704 = ORIENTED_EDGE ( 'NONE', *, *, #810, .T. ) ;
#705 = APPLICATION_CONTEXT ( 'automotive_design' ) ;
#706 = AXIS2_PLACEMENT_3D ( 'NONE', #663, #141, #732 ) ;
#707 = PLANE ( 'NONE',  #419 ) ;
#708 = CARTESIAN_POINT ( 'NONE',  ( 5.924999999999999822, 2.000000000000000000, -1.399999999999997469 ) ) ;
#709 = ORIENTED_EDGE ( 'NONE', *, *, #249, .T. ) ;
#710 = LINE ( 'NONE', #116, #778 ) ;
#711 = LINE ( 'NONE', #769, #482 ) ;
#712 = EDGE_CURVE ( 'NONE', #476, #781, #166, .T. ) ;
#713 = ORIENTED_EDGE ( 'NONE', *, *, #598, .T. ) ;
#714 = CARTESIAN_POINT ( 'NONE',  ( -5.924999999999999822, 0.000000000000000000, 1.499999999999999778 ) ) ;
#715 = DIRECTION ( 'NONE',  ( 0.000000000000000000, 0.000000000000000000, 1.000000000000000000 ) ) ;
#716 = CIRCLE ( 'NONE', #15, 0.1023622047244093780 ) ;
#717 = AXIS2_PLACEMENT_3D ( 'NONE', #550, #674, #79 ) ;
#718 = AXIS2_PLACEMENT_3D ( 'NONE', #608, #352, #17 ) ;
#719 = DIRECTION ( 'NONE',  ( 0.000000000000000000, 0.000000000000000000, 1.000000000000000000 ) ) ;
#720 =( NAMED_UNIT ( * ) SI_UNIT ( $, .STERADIAN. ) SOLID_ANGLE_UNIT ( ) );
#721 = ORIENTED_EDGE ( 'NONE', *, *, #213, .F. ) ;
#722 = ADVANCED_FACE ( 'NONE', ( #106 ), #49, .T. ) ;
#723 = CARTESIAN_POINT ( 'NONE',  ( 0.000000000000000000, 0.000000000000000000, 0.000000000000000000 ) ) ;
#724 = DIRECTION ( 'NONE',  ( 1.000000000000000000, -0.000000000000000000, -0.000000000000000000 ) ) ;
#725 = CARTESIAN_POINT ( 'NONE',  ( 6.225000000000000533, 2.000000000000000000, -1.550000000000000933 ) ) ;
#726 = ORIENTED_EDGE ( 'NONE', *, *, #232, .F. ) ;
#727 = EDGE_CURVE ( 'NONE', #279, #470, #307, .T. ) ;
#728 = DIRECTION ( 'NONE',  ( 0.000000000000000000, 0.000000000000000000, -1.000000000000000000 ) ) ;
#729 = DIRECTION ( 'NONE',  ( 0.000000000000000000, 0.000000000000000000, -1.000000000000000000 ) ) ;
#730 = ORIENTED_EDGE ( 'NONE', *, *, #410, .T. ) ;
#731 = VECTOR ( 'NONE', #132, 39.37007874015748143 ) ;
#732 = DIRECTION ( 'NONE',  ( 0.000000000000000000, 0.000000000000000000, 1.000000000000000000 ) ) ;
#733 = VECTOR ( 'NONE', #538, 39.37007874015748143 ) ;
#734 = LINE ( 'NONE', #76, #609 ) ;
#735 = ORIENTED_EDGE ( 'NONE', *, *, #136, .F. ) ;
#736 = CARTESIAN_POINT ( 'NONE',  ( 6.424999999999998934, 2.000000000000000000, 1.750000000000001110 ) ) ;
#737 = DIRECTION ( 'NONE',  ( 0.000000000000000000, 0.000000000000000000, -1.000000000000000000 ) ) ;
#738 = ADVANCED_FACE ( 'NONE', ( #565, #509, #379, #839 ), #640, .F. ) ;
#739 = ORIENTED_EDGE ( 'NONE', *, *, #410, .F. ) ;
#740 = FACE_BOUND ( 'NONE', #791, .T. ) ;
#741 = DIRECTION ( 'NONE',  ( 1.000000000000000000, -0.000000000000000000, -0.000000000000000000 ) ) ;
#742 = ORIENTED_EDGE ( 'NONE', *, *, #810, .F. ) ;
#743 = CARTESIAN_POINT ( 'NONE',  ( 0.000000000000000000, -0.2000000000000013711, -1.105905511811023478 ) ) ;
#744 = VECTOR ( 'NONE', #685, 39.37007874015748143 ) ;
#745 = CARTESIAN_POINT ( 'NONE',  ( 6.424999999999998934, 2.000000000000000000, -1.550000000000000933 ) ) ;
#746 = ORIENTED_EDGE ( 'NONE', *, *, #373, .T. ) ;
#747 = EDGE_CURVE ( 'NONE', #476, #581, #443, .T. ) ;
#748 = AXIS2_PLACEMENT_3D ( 'NONE', #372, #630, #576 ) ;
#749 = CARTESIAN_POINT ( 'NONE',  ( 0.000000000000000000, 2.000000000000000000, 1.499999999999999334 ) ) ;
#750 = CYLINDRICAL_SURFACE ( 'NONE', #122, 0.1023622047244093780 ) ;
#751 = VERTEX_POINT ( 'NONE', #184 ) ;
#752 = DIRECTION ( 'NONE',  ( 0.000000000000000000, -0.000000000000000000, -1.000000000000000000 ) ) ;
#753 = CARTESIAN_POINT ( 'NONE',  ( 6.225000000000000533, 2.000000000000000000, 1.750000000000001110 ) ) ;
#754 = ORIENTED_EDGE ( 'NONE', *, *, #173, .T. ) ;
#755 = CARTESIAN_POINT ( 'NONE',  ( 5.924999999999999822, 1.750000000000000000, 0.8976377952755908440 ) ) ;
#756 = DIRECTION ( 'NONE',  ( 0.000000000000000000, 0.000000000000000000, -1.000000000000000000 ) ) ;
#757 = ADVANCED_FACE ( 'NONE', ( #633 ), #707, .F. ) ;
#758 = CIRCLE ( 'NONE', #718, 0.1059055118110236310 ) ;
#759 = ORIENTED_EDGE ( 'NONE', *, *, #173, .F. ) ;
#760 = DIRECTION ( 'NONE',  ( 0.000000000000000000, 0.000000000000000000, -1.000000000000000000 ) ) ;
#761 = FACE_OUTER_BOUND ( 'NONE', #388, .T. ) ;
#762 = ORIENTED_EDGE ( 'NONE', *, *, #455, .F. ) ;
#763 = CIRCLE ( 'NONE', #247, 0.1059055118110236865 ) ;
#764 = FACE_OUTER_BOUND ( 'NONE', #370, .T. ) ;
#765 = CYLINDRICAL_SURFACE ( 'NONE', #135, 0.1059055118110236865 ) ;
#766 = ORIENTED_EDGE ( 'NONE', *, *, #659, .T. ) ;
#767 = AXIS2_PLACEMENT_3D ( 'NONE', #253, #566, #756 ) ;
#768 = CARTESIAN_POINT ( 'NONE',  ( 6.424999999999998934, 1.750000000000000000, 1.000000000000000222 ) ) ;
#769 = CARTESIAN_POINT ( 'NONE',  ( 0.5999999999999999778, -0.2000000000000000111, 1.105905511811023700 ) ) ;
#770 = VERTEX_POINT ( 'NONE', #304 ) ;
#771 = PRODUCT_RELATED_PRODUCT_CATEGORY ( 'part', '', ( #363 ) ) ;
#772 = CIRCLE ( 'NONE', #300, 0.1023622047244093780 ) ;
#773 = CARTESIAN_POINT ( 'NONE',  ( 6.424999999999998934, 1.750000000000000000, 1.000000000000000222 ) ) ;
#774 = ADVANCED_FACE ( 'NONE', ( #562 ), #820, .T. ) ;
#775 = CARTESIAN_POINT ( 'NONE',  ( 6.424999999999998934, 1.750000000000000000, 0.8976377952755908440 ) ) ;
#776 = EDGE_CURVE ( 'NONE', #451, #294, #610, .T. ) ;
#777 = VERTEX_POINT ( 'NONE', #40 ) ;
#778 = VECTOR ( 'NONE', #64, 39.37007874015748143 ) ;
#779 = ORIENTED_EDGE ( 'NONE', *, *, #650, .F. ) ;
#780 = CARTESIAN_POINT ( 'NONE',  ( 0.000000000000000000, 2.000000000000000000, 1.499999999999999334 ) ) ;
#781 = VERTEX_POINT ( 'NONE', #246 ) ;
#782 = APPLICATION_CONTEXT ( 'automotive_design' ) ;
#783 = ORIENTED_EDGE ( 'NONE', *, *, #621, .T. ) ;
#784 = DIRECTION ( 'NONE',  ( 0.000000000000000000, -1.000000000000000000, 0.000000000000000000 ) ) ;
#785 = EDGE_CURVE ( 'NONE', #2, #287, #628, .T. ) ;
#786 = ORIENTED_EDGE ( 'NONE', *, *, #573, .F. ) ;
#787 = VECTOR ( 'NONE', #302, 39.37007874015748143 ) ;
#788 = VECTOR ( 'NONE', #579, 39.37007874015748143 ) ;
#789 = DIRECTION ( 'NONE',  ( 0.000000000000000000, 0.000000000000000000, 1.000000000000000000 ) ) ;
#790 = DIRECTION ( 'NONE',  ( 0.000000000000000000, -1.000000000000000000, 0.000000000000000000 ) ) ;
#791 = EDGE_LOOP ( 'NONE', ( #183, #522 ) ) ;
#792 = LINE ( 'NONE', #335, #181 ) ;
#793 = DIRECTION ( 'NONE',  ( 0.000000000000000000, 0.000000000000000000, 1.000000000000000000 ) ) ;
#794 = VERTEX_POINT ( 'NONE', #505 ) ;
#795 = CARTESIAN_POINT ( 'NONE',  ( 0.5999999999999999778, -0.2000000000000000111, 1.105905511811023700 ) ) ;
#796 = CYLINDRICAL_SURFACE ( 'NONE', #445, 0.1023622047244093780 ) ;
#797 = DIRECTION ( 'NONE',  ( 0.000000000000000000, 0.000000000000000000, -1.000000000000000000 ) ) ;
#798 = ORIENTED_EDGE ( 'NONE', *, *, #800, .T. ) ;
#799 = CARTESIAN_POINT ( 'NONE',  ( 6.225000000000000533, 2.000000000000000000, 1.750000000000001110 ) ) ;
#800 = EDGE_CURVE ( 'NONE', #234, #115, #571, .T. ) ;
#801 = DIRECTION ( 'NONE',  ( 0.000000000000000000, 0.000000000000000000, -1.000000000000000000 ) ) ;
#802 = VERTEX_POINT ( 'NONE', #755 ) ;
#803 = CARTESIAN_POINT ( 'NONE',  ( 5.924999999999999822, 1.750000000000000000, -1.000000000000000222 ) ) ;
#804 =( GEOMETRIC_REPRESENTATION_CONTEXT ( 3 ) GLOBAL_UNCERTAINTY_ASSIGNED_CONTEXT ( ( #815 ) ) GLOBAL_UNIT_ASSIGNED_CONTEXT ( ( #285, #267, #720 ) ) REPRESENTATION_CONTEXT ( 'NONE', 'WORKASPACE' ) );
#805 = DIRECTION ( 'NONE',  ( 1.000000000000000000, -0.000000000000000000, -0.000000000000000000 ) ) ;
#806 = VERTEX_POINT ( 'NONE', #449 ) ;
#807 = DIRECTION ( 'NONE',  ( 0.000000000000000000, 0.000000000000000000, -1.000000000000000000 ) ) ;
#808 = CARTESIAN_POINT ( 'NONE',  ( 5.825000000000000178, 2.000000000000000000, -1.399999999999998357 ) ) ;
#809 = ORIENTED_EDGE ( 'NONE', *, *, #536, .F. ) ;
#810 = EDGE_CURVE ( 'NONE', #693, #632, #277, .T. ) ;
#811 = LINE ( 'NONE', #485, #380 ) ;
#812 = DIRECTION ( 'NONE',  ( 1.000000000000000000, 0.000000000000000000, -1.275571047625337126E-16 ) ) ;
#813 = VECTOR ( 'NONE', #592, 39.37007874015748143 ) ;
#814 = ORIENTED_EDGE ( 'NONE', *, *, #71, .T. ) ;
#815 = UNCERTAINTY_MEASURE_WITH_UNIT (LENGTH_MEASURE( 1.000000000000000082E-05 ), #285, 'distance_accuracy_value', 'NONE');
#816 = CIRCLE ( 'NONE', #229, 0.1023622047244093780 ) ;
#817 = PLANE ( 'NONE',  #827 ) ;
#818 = CARTESIAN_POINT ( 'NONE',  ( 6.224999999999999645, -0.4000000000000000777, 1.550000000000000933 ) ) ;
#819 = EDGE_LOOP ( 'NONE', ( #518, #511 ) ) ;
#820 = PLANE ( 'NONE',  #154 ) ;
#821 = ADVANCED_FACE ( 'NONE', ( #37 ), #436, .F. ) ;
#822 = LINE ( 'NONE', #108, #177 ) ;
#823 = ORIENTED_EDGE ( 'NONE', *, *, #484, .F. ) ;
#824 = CARTESIAN_POINT ( 'NONE',  ( -6.424999999999998934, 2.000000000000000000, 1.750000000000002665 ) ) ;
#825 = VECTOR ( 'NONE', #590, 39.37007874015748143 ) ;
#826 = DIRECTION ( 'NONE',  ( 0.000000000000000000, 0.000000000000000000, -1.000000000000000000 ) ) ;
#827 = AXIS2_PLACEMENT_3D ( 'NONE', #219, #614, #146 ) ;
#828 = ORIENTED_EDGE ( 'NONE', *, *, #785, .T. ) ;
#829 = VERTEX_POINT ( 'NONE', #698 ) ;
#830 = CARTESIAN_POINT ( 'NONE',  ( 5.924999999999999822, 0.000000000000000000, -1.399999999999998357 ) ) ;
#831 = CARTESIAN_POINT ( 'NONE',  ( 0.5999999999999999778, -0.2000000000000000111, -0.1059055118110234922 ) ) ;
#832 = ORIENTED_EDGE ( 'NONE', *, *, #112, .T. ) ;
#833 = CIRCLE ( 'NONE', #435, 0.1059055118110236310 ) ;
#834 = DIRECTION ( 'NONE',  ( 1.152678478339351656E-16, -0.000000000000000000, 1.000000000000000000 ) ) ;
#835 = DIRECTION ( 'NONE',  ( -1.000000000000000000, -0.000000000000000000, -0.000000000000000000 ) ) ;
#836 = ADVANCED_FACE ( 'NONE', ( #764 ), #440, .T. ) ;
#837 = ORIENTED_EDGE ( 'NONE', *, *, #853, .T. ) ;
#838 = EDGE_CURVE ( 'NONE', #287, #2, #816, .T. ) ;
#839 = FACE_OUTER_BOUND ( 'NONE', #66, .T. ) ;
#840 = DIRECTION ( 'NONE',  ( -1.000000000000000000, -0.000000000000000000, -0.000000000000000000 ) ) ;
#841 = VERTEX_POINT ( 'NONE', #795 ) ;
#842 = AXIS2_PLACEMENT_3D ( 'NONE', #403, #7, #719 ) ;
#843 = LENGTH_MEASURE_WITH_UNIT ( LENGTH_MEASURE( 0.02539999999999999897 ), #537 );
#844 = CARTESIAN_POINT ( 'NONE',  ( 5.825000000000000178, 0.000000000000000000, 1.499999999999998446 ) ) ;
#845 = ORIENTED_EDGE ( 'NONE', *, *, #22, .T. ) ;
#846 = EDGE_CURVE ( 'NONE', #56, #479, #448, .T. ) ;
#847 = CARTESIAN_POINT ( 'NONE',  ( 0.000000000000000000, 2.000000000000000000, -1.499999999999997558 ) ) ;
#848 = SURFACE_STYLE_USAGE ( .BOTH. , #12 ) ;
#849 = ORIENTED_EDGE ( 'NONE', *, *, #386, .F. ) ;
#850 = ADVANCED_FACE ( 'NONE', ( #658 ), #654, .F. ) ;
#851 = EDGE_CURVE ( 'NONE', #479, #56, #383, .T. ) ;
#852 = CARTESIAN_POINT ( 'NONE',  ( 0.000000000000000000, -0.4000000000000000222, 0.000000000000000000 ) ) ;
#853 = EDGE_CURVE ( 'NONE', #451, #693, #710, .T. ) ;
ENDSEC;
END-ISO-10303-21;
