ISO-10303-21;
HEADER;
FILE_DESCRIPTION (( 'STEP AP214' ),
    '1' );
FILE_NAME ('housing_connector.STEP',
    '2026-05-29T18:21:52',
    ( '' ),
    ( '' ),
    'SwSTEP 2.0',
    'SolidWorks 2025',
    '' );
FILE_SCHEMA (( 'AUTOMOTIVE_DESIGN' ));
ENDSEC;

DATA;
#1 =( LENGTH_UNIT ( ) NAMED_UNIT ( * ) SI_UNIT ( .MILLI., .METRE. ) );
#2 = EDGE_LOOP ( 'NONE', ( #40, #5, #213, #33, #333 ) ) ;
#3 = CARTESIAN_POINT ( 'NONE',  ( 0.000000000000000000, -6.349999999999999645, 0.000000000000000000 ) ) ;
#4 =( GEOMETRIC_REPRESENTATION_CONTEXT ( 3 ) GLOBAL_UNCERTAINTY_ASSIGNED_CONTEXT ( ( #123 ) ) GLOBAL_UNIT_ASSIGNED_CONTEXT ( ( #1, #209, #272 ) ) REPRESENTATION_CONTEXT ( 'NONE', 'WORKASPACE' ) );
#5 = ORIENTED_EDGE ( 'NONE', *, *, #296, .T. ) ;
#6 = VERTEX_POINT ( 'NONE', #344 ) ;
#7 = EDGE_CURVE ( 'NONE', #356, #122, #27, .T. ) ;
#8 = CARTESIAN_POINT ( 'NONE',  ( 0.000000000000000000, 24.76500000000000057, -0.7875000000000101918 ) ) ;
#9 = ORIENTED_EDGE ( 'NONE', *, *, #324, .T. ) ;
#10 = VERTEX_POINT ( 'NONE', #315 ) ;
#11 = AXIS2_PLACEMENT_3D ( 'NONE', #36, #302, #241 ) ;
#12 = DIRECTION ( 'NONE',  ( 0.000000000000000000, 0.000000000000000000, 1.000000000000000000 ) ) ;
#13 = EDGE_CURVE ( 'NONE', #92, #10, #248, .T. ) ;
#14 = CARTESIAN_POINT ( 'NONE',  ( 6.365787732304954595E-17, 20.95499999999999474, 1.587499999999999911 ) ) ;
#15 = LINE ( 'NONE', #76, #73 ) ;
#16 = DIRECTION ( 'NONE',  ( 0.000000000000000000, 0.000000000000000000, 1.000000000000000000 ) ) ;
#17 = DIRECTION ( 'NONE',  ( -0.000000000000000000, 1.000000000000000000, -0.000000000000000000 ) ) ;
#18 = EDGE_CURVE ( 'NONE', #308, #289, #96, .T. ) ;
#19 = PLANE ( 'NONE',  #383 ) ;
#20 = DIRECTION ( 'NONE',  ( 0.000000000000000000, -1.000000000000000000, 0.000000000000000000 ) ) ;
#21 = ORIENTED_EDGE ( 'NONE', *, *, #173, .F. ) ;
#22 = AXIS2_PLACEMENT_3D ( 'NONE', #228, #81, #195 ) ;
#23 = FACE_OUTER_BOUND ( 'NONE', #358, .T. ) ;
#24 = ORIENTED_EDGE ( 'NONE', *, *, #44, .T. ) ;
#25 = CARTESIAN_POINT ( 'NONE',  ( -0.3773801799852765648, 20.95499999999999829, 1.541992363714645764 ) ) ;
#26 = EDGE_LOOP ( 'NONE', ( #119, #335, #24, #197, #39 ) ) ;
#27 = CIRCLE ( 'NONE', #48, 1.587499999999999911 ) ;
#28 = CARTESIAN_POINT ( 'NONE',  ( -0.3773801799852766758, 20.95499999999999829, 1.541992363714645764 ) ) ;
#29 = EDGE_CURVE ( 'NONE', #299, #155, #329, .T. ) ;
#30 = DIRECTION ( 'NONE',  ( 0.000000000000000000, 0.000000000000000000, 1.000000000000000000 ) ) ;
#31 = CIRCLE ( 'NONE', #237, 2.600000000000000089 ) ;
#32 = CARTESIAN_POINT ( 'NONE',  ( 0.000000000000000000, 0.000000000000000000, 0.000000000000000000 ) ) ;
#33 = ORIENTED_EDGE ( 'NONE', *, *, #7, .T. ) ;
#34 = SURFACE_STYLE_FILL_AREA ( #298 ) ;
#35 = ORIENTED_EDGE ( 'NONE', *, *, #156, .F. ) ;
#36 = CARTESIAN_POINT ( 'NONE',  ( 0.000000000000000000, 24.76500000000000057, 0.000000000000000000 ) ) ;
#37 = ORIENTED_EDGE ( 'NONE', *, *, #50, .T. ) ;
#38 = DIRECTION ( 'NONE',  ( 0.000000000000000000, 0.000000000000000000, -1.000000000000000000 ) ) ;
#39 = ORIENTED_EDGE ( 'NONE', *, *, #46, .T. ) ;
#40 = ORIENTED_EDGE ( 'NONE', *, *, #148, .F. ) ;
#41 = DIRECTION ( 'NONE',  ( 1.000000000000000000, 0.000000000000000000, 0.000000000000000000 ) ) ;
#42 = CARTESIAN_POINT ( 'NONE',  ( 0.000000000000000000, 24.76500000000000057, 0.000000000000000000 ) ) ;
#43 = COLOUR_RGB ( '',0.7921568627450980005, 0.8196078431372548767, 0.9333333333333333481 ) ;
#44 = EDGE_CURVE ( 'NONE', #352, #299, #104, .T. ) ;
#45 = CARTESIAN_POINT ( 'NONE',  ( -2.068965298573964162, 0.000000000000000000, -5.433174264948321230 ) ) ;
#46 = EDGE_CURVE ( 'NONE', #155, #210, #311, .T. ) ;
#47 = CARTESIAN_POINT ( 'NONE',  ( 0.000000000000000000, 0.000000000000000000, 0.000000000000000000 ) ) ;
#48 = AXIS2_PLACEMENT_3D ( 'NONE', #282, #226, #161 ) ;
#49 = ORIENTED_EDGE ( 'NONE', *, *, #162, .T. ) ;
#50 = EDGE_CURVE ( 'NONE', #125, #6, #236, .T. ) ;
#51 = UNCERTAINTY_MEASURE_WITH_UNIT (LENGTH_MEASURE( 1.000000000000000082E-05 ), #132, 'distance_accuracy_value', 'NONE');
#52 = DIRECTION ( 'NONE',  ( 0.000000000000000000, 0.000000000000000000, -1.000000000000000000 ) ) ;
#53 = PRODUCT ( 'housing_connector', 'housing_connector', '', ( #107 ) ) ;
#54 = DIRECTION ( 'NONE',  ( 0.000000000000000000, 0.000000000000000000, 1.000000000000000000 ) ) ;
#55 = CARTESIAN_POINT ( 'NONE',  ( -1.759476646264535704, 0.000000000000000000, 1.914220972419250488 ) ) ;
#56 = ORIENTED_EDGE ( 'NONE', *, *, #7, .F. ) ;
#57 = EDGE_CURVE ( 'NONE', #289, #304, #15, .T. ) ;
#58 = CARTESIAN_POINT ( 'NONE',  ( -1.759476646264535926, 0.000000000000000000, 1.914220972419250266 ) ) ;
#59 = B_SPLINE_CURVE_WITH_KNOTS ( 'NONE', 1,
 ( #318, #55 ),
 .UNSPECIFIED., .F., .F.,
 ( 2, 2 ),
 ( 0.000000000000000000, 1.000000000000000000 ),
 .UNSPECIFIED. ) ;
#60 = CARTESIAN_POINT ( 'NONE',  ( 0.3773801799852765093, 20.95499999999999829, -1.541992363714645764 ) ) ;
#61 = CARTESIAN_POINT ( 'NONE',  ( 3.461364907414568037, 20.95499999999999829, -0.7872320037440928564 ) ) ;
#62 = AXIS2_PLACEMENT_3D ( 'NONE', #196, #382, #355 ) ;
#63 = EDGE_LOOP ( 'NONE', ( #327, #37, #154, #127, #271, #56 ) ) ;
#64 = FACE_OUTER_BOUND ( 'NONE', #275, .T. ) ;
#65 = ORIENTED_EDGE ( 'NONE', *, *, #29, .F. ) ;
#66 = ORIENTED_EDGE ( 'NONE', *, *, #77, .T. ) ;
#67 = CARTESIAN_POINT ( 'NONE',  ( 0.000000000000000000, -5.349999999999989875, 2.600000000000000089 ) ) ;
#68 = ORIENTED_EDGE ( 'NONE', *, *, #13, .T. ) ;
#69 = AXIS2_PLACEMENT_3D ( 'NONE', #82, #170, #117 ) ;
#70 = VERTEX_POINT ( 'NONE', #14 ) ;
#71 = DIRECTION ( 'NONE',  ( 0.000000000000000000, -0.7071067811865483499, -0.7071067811865465735 ) ) ;
#72 = DIRECTION ( 'NONE',  ( 0.000000000000000000, 0.000000000000000000, -1.000000000000000000 ) ) ;
#73 = VECTOR ( 'NONE', #71, 1000.000000000000114 ) ;
#74 = PRESENTATION_LAYER_ASSIGNMENT (  '', '', ( #159 ) ) ;
#75 = ADVANCED_FACE ( 'NONE', ( #187 ), #325, .T. ) ;
#76 = CARTESIAN_POINT ( 'NONE',  ( 0.000000000000000000, 24.76500000000000057, -0.7875000000000101918 ) ) ;
#77 = EDGE_CURVE ( 'NONE', #210, #6, #291, .T. ) ;
#78 = FACE_OUTER_BOUND ( 'NONE', #2, .T. ) ;
#79 = ADVANCED_FACE ( 'NONE', ( #78 ), #131, .T. ) ;
#80 = CARTESIAN_POINT ( 'NONE',  ( -1.759476646264535926, 0.000000000000000000, 1.914220972419250266 ) ) ;
#81 = DIRECTION ( 'NONE',  ( 0.000000000000000000, 1.000000000000000000, 0.000000000000000000 ) ) ;
#82 = CARTESIAN_POINT ( 'NONE',  ( 0.000000000000000000, 24.76500000000000057, 0.000000000000000000 ) ) ;
#83 = DIRECTION ( 'NONE',  ( 0.000000000000000000, 1.000000000000000000, 0.000000000000000000 ) ) ;
#84 = CARTESIAN_POINT ( 'NONE',  ( 0.000000000000000000, -6.349999999999999645, 0.000000000000000000 ) ) ;
#85 = CARTESIAN_POINT ( 'NONE',  ( 0.000000000000000000, -5.349999999999989875, 0.000000000000000000 ) ) ;
#86 = VERTEX_POINT ( 'NONE', #251 ) ;
#87 = CARTESIAN_POINT ( 'NONE',  ( 1.454268073987488019E-16, 24.76500000000000057, 0.7875000000000101918 ) ) ;
#88 = EDGE_LOOP ( 'NONE', ( #21, #307, #242, #361 ) ) ;
#89 = VECTOR ( 'NONE', #351, 1000.000000000000114 ) ;
#90 = CONICAL_SURFACE ( 'NONE', #331, 0.7875000000000101918, 0.7853981633974471688 ) ;
#91 = PRESENTATION_STYLE_ASSIGNMENT (( #124 ) ) ;
#92 = VERTEX_POINT ( 'NONE', #165 ) ;
#93 = DIRECTION ( 'NONE',  ( 0.000000000000000000, 1.000000000000000000, 0.000000000000000000 ) ) ;
#94 = ORIENTED_EDGE ( 'NONE', *, *, #13, .F. ) ;
#95 = FACE_OUTER_BOUND ( 'NONE', #151, .T. ) ;
#96 = CIRCLE ( 'NONE', #192, 0.7875000000000101918 ) ;
#97 = ORIENTED_EDGE ( 'NONE', *, *, #57, .F. ) ;
#98 = CARTESIAN_POINT ( 'NONE',  ( 0.000000000000000000, 23.96500000000000696, 0.000000000000000000 ) ) ;
#99 = ORIENTED_EDGE ( 'NONE', *, *, #18, .T. ) ;
#100 = CONICAL_SURFACE ( 'NONE', #316, 0.7875000000000101918, 0.7853981633974471688 ) ;
#101 = DIRECTION ( 'NONE',  ( 0.000000000000000000, 0.000000000000000000, -1.000000000000000000 ) ) ;
#102 = DIRECTION ( 'NONE',  ( 0.000000000000000000, 0.000000000000000000, 1.000000000000000000 ) ) ;
#103 = PRODUCT_RELATED_PRODUCT_CATEGORY ( 'part', '', ( #53 ) ) ;
#104 = LINE ( 'NONE', #108, #227 ) ;
#105 = CARTESIAN_POINT ( 'NONE',  ( 3.461364907414568037, 20.95499999999999829, -0.7872320037440928564 ) ) ;
#106 = EDGE_CURVE ( 'NONE', #308, #86, #285, .T. ) ;
#107 = PRODUCT_CONTEXT ( 'NONE', #322, 'mechanical' ) ;
#108 = CARTESIAN_POINT ( 'NONE',  ( 0.000000000000000000, -6.349999999999999645, 2.600000000000000089 ) ) ;
#109 = FACE_OUTER_BOUND ( 'NONE', #277, .T. ) ;
#110 = ADVANCED_BREP_SHAPE_REPRESENTATION ( 'housing_connector', ( #297, #150 ), #306 ) ;
#111 = CARTESIAN_POINT ( 'NONE',  ( -2.068965298573964162, 0.000000000000000000, -5.433174264948321230 ) ) ;
#112 = ADVANCED_FACE ( 'NONE', ( #133 ), #171, .T. ) ;
#113 = CARTESIAN_POINT ( 'NONE',  ( 2.068965298573964162, 0.000000000000000000, 5.433174264948321230 ) ) ;
#114 = EDGE_CURVE ( 'NONE', #304, #86, #343, .T. ) ;
#115 = CARTESIAN_POINT ( 'NONE',  ( 0.3773801799852760097, 20.95499999999999829, -1.541992363714645986 ) ) ;
#116 = CIRCLE ( 'NONE', #182, 1.587499999999999911 ) ;
#117 = DIRECTION ( 'NONE',  ( 0.000000000000000000, 0.000000000000000000, 1.000000000000000000 ) ) ;
#118 = AXIS2_PLACEMENT_3D ( 'NONE', #269, #239, #30 ) ;
#119 = ORIENTED_EDGE ( 'NONE', *, *, #303, .F. ) ;
#120 = CARTESIAN_POINT ( 'NONE',  ( 4.690195942697653018E-13, 0.000000000000000000, 2.600000000000000089 ) ) ;
#121 = CARTESIAN_POINT ( 'NONE',  ( 0.000000000000000000, 20.95499999999999829, 0.000000000000000000 ) ) ;
#122 = VERTEX_POINT ( 'NONE', #25 ) ;
#123 = UNCERTAINTY_MEASURE_WITH_UNIT (LENGTH_MEASURE( 1.000000000000000082E-05 ), #1, 'distance_accuracy_value', 'NONE');
#124 = SURFACE_STYLE_USAGE ( .BOTH. , #338 ) ;
#125 = VERTEX_POINT ( 'NONE', #115 ) ;
#126 = CARTESIAN_POINT ( 'NONE',  ( 0.000000000000000000, 24.76500000000000057, 0.000000000000000000 ) ) ;
#127 = ORIENTED_EDGE ( 'NONE', *, *, #46, .F. ) ;
#128 = CARTESIAN_POINT ( 'NONE',  ( 3.184081677783118191E-16, -6.349999999999999645, -2.600000000000000089 ) ) ;
#129 = EDGE_LOOP ( 'NONE', ( #240, #217, #157, #180, #339 ) ) ;
#130 = AXIS2_PLACEMENT_3D ( 'NONE', #98, #359, #214 ) ;
#131 = CYLINDRICAL_SURFACE ( 'NONE', #205, 1.587499999999999911 ) ;
#132 =( LENGTH_UNIT ( ) NAMED_UNIT ( * ) SI_UNIT ( .MILLI., .METRE. ) );
#133 = FACE_OUTER_BOUND ( 'NONE', #88, .T. ) ;
#134 = CARTESIAN_POINT ( 'NONE',  ( -1.759476646264535926, 0.000000000000000000, 1.914220972419250266 ) ) ;
#135 =( NAMED_UNIT ( * ) PLANE_ANGLE_UNIT ( ) SI_UNIT ( $, .RADIAN. ) );
#136 = DIRECTION ( 'NONE',  ( 0.000000000000000000, -1.000000000000000000, 0.000000000000000000 ) ) ;
#137 = AXIS2_PLACEMENT_3D ( 'NONE', #349, #268, #292 ) ;
#138 = PRODUCT_DEFINITION_FORMATION_WITH_SPECIFIED_SOURCE ( 'ANY', '', #53, .NOT_KNOWN. ) ;
#139 = CARTESIAN_POINT ( 'NONE',  ( 1.759476646264535704, 0.000000000000000000, -1.914220972419250266 ) ) ;
#140 = ADVANCED_FACE ( 'NONE', ( #168 ), #235, .T. ) ;
#141 = DIRECTION ( 'NONE',  ( 0.000000000000000000, 0.000000000000000000, -1.000000000000000000 ) ) ;
#142 = FACE_OUTER_BOUND ( 'NONE', #330, .T. ) ;
#143 = CIRCLE ( 'NONE', #69, 0.7875000000000101918 ) ;
#144 = AXIS2_PLACEMENT_3D ( 'NONE', #3, #276, #152 ) ;
#145 = CARTESIAN_POINT ( 'NONE',  ( -4.689512854560834293E-13, 0.000000000000000000, -2.600000000000000089 ) ) ;
#146 = CARTESIAN_POINT ( 'NONE',  ( 1.759476646264535704, 0.000000000000000000, -1.914220972419250266 ) ) ;
#147 = LINE ( 'NONE', #238, #89 ) ;
#148 = EDGE_CURVE ( 'NONE', #86, #70, #202, .T. ) ;
#149 = PLANE ( 'NONE',  #218 ) ;
#150 = AXIS2_PLACEMENT_3D ( 'NONE', #252, #16, #41 ) ;
#151 = EDGE_LOOP ( 'NONE', ( #49, #99 ) ) ;
#152 = DIRECTION ( 'NONE',  ( 0.000000000000000000, 0.000000000000000000, 1.000000000000000000 ) ) ;
#153 = ORIENTED_EDGE ( 'NONE', *, *, #44, .F. ) ;
#154 = ORIENTED_EDGE ( 'NONE', *, *, #77, .F. ) ;
#155 = VERTEX_POINT ( 'NONE', #295 ) ;
#156 = EDGE_CURVE ( 'NONE', #10, #301, #147, .T. ) ;
#157 = ORIENTED_EDGE ( 'NONE', *, *, #176, .T. ) ;
#158 = VECTOR ( 'NONE', #174, 1000.000000000000000 ) ;
#159 = STYLED_ITEM ( 'NONE', ( #91 ), #297 ) ;
#160 = CARTESIAN_POINT ( 'NONE',  ( 2.706604547444014575, 20.95499999999999829, 2.296752723685198561 ) ) ;
#161 = DIRECTION ( 'NONE',  ( 0.000000000000000000, 0.000000000000000000, 1.000000000000000000 ) ) ;
#162 = EDGE_CURVE ( 'NONE', #289, #308, #143, .T. ) ;
#163 = DIRECTION ( 'NONE',  ( 0.000000000000000000, -1.000000000000000000, 0.000000000000000000 ) ) ;
#164 = CLOSED_SHELL ( 'NONE', ( #199, #112, #286, #211, #140, #75, #290, #190, #79, #334, #233, #320 ) ) ;
#165 = CARTESIAN_POINT ( 'NONE',  ( 0.000000000000000000, -6.349999999999999645, 1.599999999999990319 ) ) ;
#166 = CIRCLE ( 'NONE', #118, 1.587499999999999911 ) ;
#167 = CARTESIAN_POINT ( 'NONE',  ( -0.3773801799852766758, 20.95499999999999829, 1.541992363714645764 ) ) ;
#168 = FACE_OUTER_BOUND ( 'NONE', #63, .T. ) ;
#169 = ORIENTED_EDGE ( 'NONE', *, *, #176, .F. ) ;
#170 = DIRECTION ( 'NONE',  ( 0.000000000000000000, 1.000000000000000000, 0.000000000000000000 ) ) ;
#171 = CONICAL_SURFACE ( 'NONE', #263, 1.599999999999990319, 0.7853981633974482790 ) ;
#172 = DIRECTION ( 'NONE',  ( 0.000000000000000000, 0.000000000000000000, 1.000000000000000000 ) ) ;
#173 = EDGE_CURVE ( 'NONE', #10, #92, #216, .T. ) ;
#174 = DIRECTION ( 'NONE',  ( -0.000000000000000000, -1.000000000000000000, -0.000000000000000000 ) ) ;
#175 = EDGE_LOOP ( 'NONE', ( #178, #204, #208, #97 ) ) ;
#176 = EDGE_CURVE ( 'NONE', #70, #125, #116, .T. ) ;
#177 = DIRECTION ( 'NONE',  ( 0.000000000000000000, 0.7071067811865474617, 0.7071067811865474617 ) ) ;
#178 = ORIENTED_EDGE ( 'NONE', *, *, #18, .F. ) ;
#179 = DIRECTION ( 'NONE',  ( -0.000000000000000000, 1.000000000000000000, -0.000000000000000000 ) ) ;
#180 = ORIENTED_EDGE ( 'NONE', *, *, #375, .T. ) ;
#181 = LINE ( 'NONE', #128, #354 ) ;
#182 = AXIS2_PLACEMENT_3D ( 'NONE', #353, #83, #172 ) ;
#183 = ORIENTED_EDGE ( 'NONE', *, *, #324, .F. ) ;
#184 = ORIENTED_EDGE ( 'NONE', *, *, #256, .T. ) ;
#185 = CARTESIAN_POINT ( 'NONE',  ( 0.3773801799852765093, 20.95499999999999829, -1.541992363714645764 ) ) ;
#186 = CIRCLE ( 'NONE', #293, 2.600000000000000089 ) ;
#187 = FACE_OUTER_BOUND ( 'NONE', #232, .T. ) ;
#188 = PRODUCT_DEFINITION_SHAPE ( 'NONE', 'NONE',  #281 ) ;
#189 = CARTESIAN_POINT ( 'NONE',  ( 0.000000000000000000, -5.349999999999989875, 0.000000000000000000 ) ) ;
#190 = ADVANCED_FACE ( 'NONE', ( #23 ), #19, .T. ) ;
#191 = CARTESIAN_POINT ( 'NONE',  ( 0.3773801799852760097, 20.95499999999999829, -1.541992363714645986 ) ) ;
#192 = AXIS2_PLACEMENT_3D ( 'NONE', #193, #222, #12 ) ;
#193 = CARTESIAN_POINT ( 'NONE',  ( 0.000000000000000000, 24.76500000000000057, 0.000000000000000000 ) ) ;
#194 = AXIS2_PLACEMENT_3D ( 'NONE', #121, #93, #305 ) ;
#195 = DIRECTION ( 'NONE',  ( 0.000000000000000000, 0.000000000000000000, 1.000000000000000000 ) ) ;
#196 = CARTESIAN_POINT ( 'NONE',  ( 0.000000000000000000, -6.349999999999999645, 0.000000000000000000 ) ) ;
#197 = ORIENTED_EDGE ( 'NONE', *, *, #29, .T. ) ;
#198 = DIRECTION ( 'NONE',  ( 0.000000000000000000, 0.000000000000000000, -1.000000000000000000 ) ) ;
#199 = ADVANCED_FACE ( 'NONE', ( #201 ), #90, .T. ) ;
#200 = VECTOR ( 'NONE', #177, 1000.000000000000114 ) ;
#201 = FACE_OUTER_BOUND ( 'NONE', #175, .T. ) ;
#202 = LINE ( 'NONE', #350, #158 ) ;
#203 = CARTESIAN_POINT ( 'NONE',  ( 3.184081677783118191E-16, -5.349999999999989875, -2.600000000000000089 ) ) ;
#204 = ORIENTED_EDGE ( 'NONE', *, *, #106, .T. ) ;
#205 = AXIS2_PLACEMENT_3D ( 'NONE', #42, #374, #255 ) ;
#206 = VECTOR ( 'NONE', #379, 1000.000000000000000 ) ;
#207 = CYLINDRICAL_SURFACE ( 'NONE', #11, 1.587499999999999911 ) ;
#208 = ORIENTED_EDGE ( 'NONE', *, *, #114, .F. ) ;
#209 =( NAMED_UNIT ( * ) PLANE_ANGLE_UNIT ( ) SI_UNIT ( $, .RADIAN. ) );
#210 = VERTEX_POINT ( 'NONE', #145 ) ;
#211 = ADVANCED_FACE ( 'NONE', ( #142 ), #381, .T. ) ;
#212 = DIRECTION ( 'NONE',  ( 0.000000000000000000, 1.000000000000000000, 0.000000000000000000 ) ) ;
#213 = ORIENTED_EDGE ( 'NONE', *, *, #253, .T. ) ;
#214 = DIRECTION ( 'NONE',  ( 0.000000000000000000, 0.000000000000000000, 1.000000000000000000 ) ) ;
#215 = EDGE_CURVE ( 'NONE', #352, #301, #362, .T. ) ;
#216 = CIRCLE ( 'NONE', #137, 1.599999999999990319 ) ;
#217 = ORIENTED_EDGE ( 'NONE', *, *, #148, .T. ) ;
#218 = AXIS2_PLACEMENT_3D ( 'NONE', #336, #212, #357 ) ;
#219 = CARTESIAN_POINT ( 'NONE',  ( -2.706604547444014575, 20.95499999999999829, -2.296752723685198561 ) ) ;
#220 = CARTESIAN_POINT ( 'NONE',  ( 0.000000000000000000, 23.96500000000000696, 0.000000000000000000 ) ) ;
#221 = AXIS2_PLACEMENT_3D ( 'NONE', #220, #342, #54 ) ;
#222 = DIRECTION ( 'NONE',  ( 0.000000000000000000, 1.000000000000000000, 0.000000000000000000 ) ) ;
#223 = ORIENTED_EDGE ( 'NONE', *, *, #296, .F. ) ;
#224 = SHAPE_DEFINITION_REPRESENTATION ( #188, #110 ) ;
#225 = EDGE_CURVE ( 'NONE', #301, #352, #186, .T. ) ;
#226 = DIRECTION ( 'NONE',  ( 0.000000000000000000, 1.000000000000000000, 0.000000000000000000 ) ) ;
#227 = VECTOR ( 'NONE', #17, 1000.000000000000000 ) ;
#228 = CARTESIAN_POINT ( 'NONE',  ( 0.000000000000000000, -6.349999999999999645, 0.000000000000000000 ) ) ;
#229 = CIRCLE ( 'NONE', #130, 1.587499999999999911 ) ;
#230 = CARTESIAN_POINT ( 'NONE',  ( 5.587918591103036015, 0.000000000000000000, 1.604732320109820476 ) ) ;
#231 = CARTESIAN_POINT ( 'NONE',  ( -0.3773801799852766758, 20.95499999999999829, 1.541992363714645764 ) ) ;
#232 = EDGE_LOOP ( 'NONE', ( #278, #169, #337, #184, #65, #183 ) ) ;
#233 = ADVANCED_FACE ( 'NONE', ( #109 ), #312, .T. ) ;
#234 = CARTESIAN_POINT ( 'NONE',  ( -3.461364907414568037, 20.95499999999999829, 0.7872320037440925233 ) ) ;
#235 =( BOUNDED_SURFACE ( )  B_SPLINE_SURFACE ( 3, 1, ( 
 ( #28, #58 ),
 ( #234, #265 ),
 ( #380, #111 ),
 ( #60, #146 ),
 ( #61, #230 ),
 ( #288, #113 ),
 ( #231, #294 ) ),
 .UNSPECIFIED., .T., .F., .F. ) 
 B_SPLINE_SURFACE_WITH_KNOTS ( ( 4, 3, 4 ),
 ( 2, 2 ),
 ( 0.000000000000000000, 0.5000000000000000000, 1.000000000000000000 ),
 ( 0.000000000000000000, 1.000000000000000000 ),
 .UNSPECIFIED. ) 
 GEOMETRIC_REPRESENTATION_ITEM ( )  RATIONAL_B_SPLINE_SURFACE ( (
 ( 1.000000000000000000, 1.000000000000000000),
 ( 0.3333333333333333703, 0.3333333333333333703),
 ( 0.3333333333333333703, 0.3333333333333333703),
 ( 1.000000000000000000, 1.000000000000000000),
 ( 0.3333333333333333703, 0.3333333333333333703),
 ( 0.3333333333333333703, 0.3333333333333333703),
 ( 1.000000000000000000, 1.000000000000000000) ) ) 
 REPRESENTATION_ITEM ( '' )  SURFACE ( )  );
#236 = B_SPLINE_CURVE_WITH_KNOTS ( 'NONE', 1,
 ( #191, #313 ),
 .UNSPECIFIED., .F., .F.,
 ( 2, 2 ),
 ( 0.000000000000000000, 1.000000000000000000 ),
 .UNSPECIFIED. ) ;
#237 = AXIS2_PLACEMENT_3D ( 'NONE', #32, #249, #366 ) ;
#238 = CARTESIAN_POINT ( 'NONE',  ( 1.959434878635753151E-16, -6.349999999999999645, -1.599999999999990319 ) ) ;
#239 = DIRECTION ( 'NONE',  ( 0.000000000000000000, 1.000000000000000000, 0.000000000000000000 ) ) ;
#240 = ORIENTED_EDGE ( 'NONE', *, *, #114, .T. ) ;
#241 = DIRECTION ( 'NONE',  ( 0.000000000000000000, 0.000000000000000000, -1.000000000000000000 ) ) ;
#242 = ORIENTED_EDGE ( 'NONE', *, *, #215, .F. ) ;
#243 = AXIS2_PLACEMENT_3D ( 'NONE', #310, #136, #72 ) ;
#244 = DIRECTION ( 'NONE',  ( 0.000000000000000000, -1.000000000000000000, 0.000000000000000000 ) ) ;
#245 = ORIENTED_EDGE ( 'NONE', *, *, #57, .T. ) ;
#246 = FILL_AREA_STYLE_COLOUR ( '', #43 ) ;
#247 = ORIENTED_EDGE ( 'NONE', *, *, #162, .F. ) ;
#248 = CIRCLE ( 'NONE', #267, 1.599999999999990319 ) ;
#249 = DIRECTION ( 'NONE',  ( 0.000000000000000000, -1.000000000000000000, 0.000000000000000000 ) ) ;
#250 = ORIENTED_EDGE ( 'NONE', *, *, #225, .F. ) ;
#251 = CARTESIAN_POINT ( 'NONE',  ( 1.944126793646422548E-16, 23.96500000000000696, 1.587499999999999911 ) ) ;
#252 = CARTESIAN_POINT ( 'NONE',  ( 0.000000000000000000, 0.000000000000000000, 0.000000000000000000 ) ) ;
#253 = EDGE_CURVE ( 'NONE', #304, #356, #317, .T. ) ;
#254 = CARTESIAN_POINT ( 'NONE',  ( 0.000000000000000000, -6.349999999999999645, 0.000000000000000000 ) ) ;
#255 = DIRECTION ( 'NONE',  ( 0.000000000000000000, 0.000000000000000000, -1.000000000000000000 ) ) ;
#256 = EDGE_CURVE ( 'NONE', #122, #155, #59, .T. ) ;
#257 = APPLICATION_PROTOCOL_DEFINITION ( 'draft international standard', 'automotive_design', 1998, #345 ) ;
#258 = DIRECTION ( 'NONE',  ( 0.000000000000000000, -1.000000000000000000, 0.000000000000000000 ) ) ;
#259 = CIRCLE ( 'NONE', #194, 1.587499999999999911 ) ;
#260 =( NAMED_UNIT ( * ) SI_UNIT ( $, .STERADIAN. ) SOLID_ANGLE_UNIT ( ) );
#261 = CARTESIAN_POINT ( 'NONE',  ( -3.461364907414568037, 20.95499999999999829, 0.7872320037440925233 ) ) ;
#262 = DIRECTION ( 'NONE',  ( 0.000000000000000000, 1.000000000000000000, 0.000000000000000000 ) ) ;
#263 = AXIS2_PLACEMENT_3D ( 'NONE', #254, #371, #102 ) ;
#264 = CARTESIAN_POINT ( 'NONE',  ( 0.000000000000000000, 24.76500000000000057, -1.587499999999999911 ) ) ;
#265 = CARTESIAN_POINT ( 'NONE',  ( -5.587918591103036903, 0.000000000000000000, -1.604732320109821142 ) ) ;
#266 = DIRECTION ( 'NONE',  ( 0.000000000000000000, -1.000000000000000000, 0.000000000000000000 ) ) ;
#267 = AXIS2_PLACEMENT_3D ( 'NONE', #372, #163, #101 ) ;
#268 = DIRECTION ( 'NONE',  ( 0.000000000000000000, -1.000000000000000000, 0.000000000000000000 ) ) ;
#269 = CARTESIAN_POINT ( 'NONE',  ( 0.000000000000000000, 20.95499999999999829, 0.000000000000000000 ) ) ;
#270 = LINE ( 'NONE', #274, #200 ) ;
#271 = ORIENTED_EDGE ( 'NONE', *, *, #256, .F. ) ;
#272 =( NAMED_UNIT ( * ) SI_UNIT ( $, .STERADIAN. ) SOLID_ANGLE_UNIT ( ) );
#273 = ORIENTED_EDGE ( 'NONE', *, *, #363, .T. ) ;
#274 = CARTESIAN_POINT ( 'NONE',  ( 0.000000000000000000, -6.349999999999999645, 1.599999999999990319 ) ) ;
#275 = EDGE_LOOP ( 'NONE', ( #367, #247, #245, #223 ) ) ;
#276 = DIRECTION ( 'NONE',  ( -0.000000000000000000, 1.000000000000000000, -0.000000000000000000 ) ) ;
#277 = EDGE_LOOP ( 'NONE', ( #35, #94, #273, #250 ) ) ;
#278 = ORIENTED_EDGE ( 'NONE', *, *, #50, .F. ) ;
#279 = VECTOR ( 'NONE', #280, 1000.000000000000114 ) ;
#280 = DIRECTION ( 'NONE',  ( 8.659560562354922997E-17, -0.7071067811865483499, 0.7071067811865465735 ) ) ;
#281 = PRODUCT_DEFINITION ( 'UNKNOWN', '', #138, #283 ) ;
#282 = CARTESIAN_POINT ( 'NONE',  ( 0.000000000000000000, 20.95499999999999829, 0.000000000000000000 ) ) ;
#283 = PRODUCT_DEFINITION_CONTEXT ( 'detailed design', #345, 'design' ) ;
#284 = CARTESIAN_POINT ( 'NONE',  ( 0.000000000000000000, 0.000000000000000000, 0.000000000000000000 ) ) ;
#285 = LINE ( 'NONE', #340, #279 ) ;
#286 = ADVANCED_FACE ( 'NONE', ( #332 ), #207, .T. ) ;
#287 = DIRECTION ( 'NONE',  ( 0.000000000000000000, -1.000000000000000000, 0.000000000000000000 ) ) ;
#288 = CARTESIAN_POINT ( 'NONE',  ( 2.706604547444014575, 20.95499999999999829, 2.296752723685198561 ) ) ;
#289 = VERTEX_POINT ( 'NONE', #8 ) ;
#290 = ADVANCED_FACE ( 'NONE', ( #368 ), #328, .T. ) ;
#291 = CIRCLE ( 'NONE', #360, 2.600000000000000089 ) ;
#292 = DIRECTION ( 'NONE',  ( 0.000000000000000000, 0.000000000000000000, -1.000000000000000000 ) ) ;
#293 = AXIS2_PLACEMENT_3D ( 'NONE', #189, #262, #376 ) ;
#294 = CARTESIAN_POINT ( 'NONE',  ( -1.759476646264535926, 0.000000000000000000, 1.914220972419250266 ) ) ;
#295 = CARTESIAN_POINT ( 'NONE',  ( -1.759476646264535704, 0.000000000000000000, 1.914220972419250488 ) ) ;
#296 = EDGE_CURVE ( 'NONE', #86, #304, #229, .T. ) ;
#297 = MANIFOLD_SOLID_BREP ( 'Chamfer6', #164 ) ;
#298 = FILL_AREA_STYLE ('',( #246 ) ) ;
#299 = VERTEX_POINT ( 'NONE', #120 ) ;
#300 = CARTESIAN_POINT ( 'NONE',  ( 0.000000000000000000, 23.96500000000000696, -1.587499999999999911 ) ) ;
#301 = VERTEX_POINT ( 'NONE', #203 ) ;
#302 = DIRECTION ( 'NONE',  ( -0.000000000000000000, -1.000000000000000000, -0.000000000000000000 ) ) ;
#303 = EDGE_CURVE ( 'NONE', #301, #210, #181, .T. ) ;
#304 = VERTEX_POINT ( 'NONE', #300 ) ;
#305 = DIRECTION ( 'NONE',  ( 0.000000000000000000, 0.000000000000000000, 1.000000000000000000 ) ) ;
#306 =( GEOMETRIC_REPRESENTATION_CONTEXT ( 3 ) GLOBAL_UNCERTAINTY_ASSIGNED_CONTEXT ( ( #51 ) ) GLOBAL_UNIT_ASSIGNED_CONTEXT ( ( #132, #135, #260 ) ) REPRESENTATION_CONTEXT ( 'NONE', 'WORKASPACE' ) );
#307 = ORIENTED_EDGE ( 'NONE', *, *, #156, .T. ) ;
#308 = VERTEX_POINT ( 'NONE', #87 ) ;
#309 = EDGE_CURVE ( 'NONE', #122, #70, #166, .T. ) ;
#310 = CARTESIAN_POINT ( 'NONE',  ( 0.000000000000000000, 0.000000000000000000, 0.000000000000000000 ) ) ;
#311 = CIRCLE ( 'NONE', #377, 2.600000000000000089 ) ;
#312 = CONICAL_SURFACE ( 'NONE', #22, 1.599999999999990319, 0.7853981633974482790 ) ;
#313 = CARTESIAN_POINT ( 'NONE',  ( 1.759476646264534816, 0.000000000000000000, -1.914220972419251154 ) ) ;
#314 = CARTESIAN_POINT ( 'NONE',  ( 2.068965298573964162, 0.000000000000000000, 5.433174264948321230 ) ) ;
#315 = CARTESIAN_POINT ( 'NONE',  ( 2.571758278209435547E-16, -6.349999999999999645, -1.599999999999990319 ) ) ;
#316 = AXIS2_PLACEMENT_3D ( 'NONE', #126, #244, #38 ) ;
#317 = LINE ( 'NONE', #264, #206 ) ;
#318 = CARTESIAN_POINT ( 'NONE',  ( -0.3773801799852765648, 20.95499999999999829, 1.541992363714645764 ) ) ;
#319 = ORIENTED_EDGE ( 'NONE', *, *, #215, .T. ) ;
#320 = ADVANCED_FACE ( 'NONE', ( #64 ), #100, .T. ) ;
#321 = DIRECTION ( 'NONE',  ( 0.000000000000000000, -0.000000000000000000, -1.000000000000000000 ) ) ;
#322 = APPLICATION_CONTEXT ( 'automotive_design' ) ;
#323 = CARTESIAN_POINT ( 'NONE',  ( 0.000000000000000000, 24.76500000000000057, 0.000000000000000000 ) ) ;
#324 = EDGE_CURVE ( 'NONE', #6, #299, #31, .T. ) ;
#325 =( BOUNDED_SURFACE ( )  B_SPLINE_SURFACE ( 3, 1, ( 
 ( #370, #80 ),
 ( #261, #373 ),
 ( #219, #45 ),
 ( #185, #139 ),
 ( #105, #346 ),
 ( #160, #314 ),
 ( #167, #134 ) ),
 .UNSPECIFIED., .T., .F., .F. ) 
 B_SPLINE_SURFACE_WITH_KNOTS ( ( 4, 3, 4 ),
 ( 2, 2 ),
 ( 0.000000000000000000, 0.5000000000000000000, 1.000000000000000000 ),
 ( 0.000000000000000000, 1.000000000000000000 ),
 .UNSPECIFIED. ) 
 GEOMETRIC_REPRESENTATION_ITEM ( )  RATIONAL_B_SPLINE_SURFACE ( (
 ( 1.000000000000000000, 1.000000000000000000),
 ( 0.3333333333333333703, 0.3333333333333333703),
 ( 0.3333333333333333703, 0.3333333333333333703),
 ( 1.000000000000000000, 1.000000000000000000),
 ( 0.3333333333333333703, 0.3333333333333333703),
 ( 0.3333333333333333703, 0.3333333333333333703),
 ( 1.000000000000000000, 1.000000000000000000) ) ) 
 REPRESENTATION_ITEM ( '' )  SURFACE ( )  );
#326 = DIRECTION ( 'NONE',  ( 0.000000000000000000, 1.000000000000000000, 0.000000000000000000 ) ) ;
#327 = ORIENTED_EDGE ( 'NONE', *, *, #375, .F. ) ;
#328 = CYLINDRICAL_SURFACE ( 'NONE', #144, 2.600000000000000089 ) ;
#329 = CIRCLE ( 'NONE', #243, 2.600000000000000089 ) ;
#330 = EDGE_LOOP ( 'NONE', ( #319, #369, #66, #9, #153 ) ) ;
#331 = AXIS2_PLACEMENT_3D ( 'NONE', #323, #20, #198 ) ;
#332 = FACE_OUTER_BOUND ( 'NONE', #129, .T. ) ;
#333 = ORIENTED_EDGE ( 'NONE', *, *, #309, .T. ) ;
#334 = ADVANCED_FACE ( 'NONE', ( #95 ), #149, .T. ) ;
#335 = ORIENTED_EDGE ( 'NONE', *, *, #225, .T. ) ;
#336 = CARTESIAN_POINT ( 'NONE',  ( 0.000000000000000000, 24.76500000000000057, 0.000000000000000000 ) ) ;
#337 = ORIENTED_EDGE ( 'NONE', *, *, #309, .F. ) ;
#338 = SURFACE_SIDE_STYLE ('',( #34 ) ) ;
#339 = ORIENTED_EDGE ( 'NONE', *, *, #253, .F. ) ;
#340 = CARTESIAN_POINT ( 'NONE',  ( 9.644093543285531214E-17, 24.76500000000000057, 0.7875000000000101918 ) ) ;
#341 = APPLICATION_PROTOCOL_DEFINITION ( 'draft international standard', 'automotive_design', 1998, #322 ) ;
#342 = DIRECTION ( 'NONE',  ( 0.000000000000000000, -1.000000000000000000, 0.000000000000000000 ) ) ;
#343 = CIRCLE ( 'NONE', #221, 1.587499999999999911 ) ;
#344 = CARTESIAN_POINT ( 'NONE',  ( 1.759476646264534816, 0.000000000000000000, -1.914220972419251154 ) ) ;
#345 = APPLICATION_CONTEXT ( 'automotive_design' ) ;
#346 = CARTESIAN_POINT ( 'NONE',  ( 5.587918591103036015, 0.000000000000000000, 1.604732320109820476 ) ) ;
#347 = DIRECTION ( 'NONE',  ( 0.000000000000000000, 0.000000000000000000, -1.000000000000000000 ) ) ;
#348 = MECHANICAL_DESIGN_GEOMETRIC_PRESENTATION_REPRESENTATION (  '', ( #159 ), #4 ) ;
#349 = CARTESIAN_POINT ( 'NONE',  ( 0.000000000000000000, -6.349999999999999645, 0.000000000000000000 ) ) ;
#350 = CARTESIAN_POINT ( 'NONE',  ( 1.944126793646422548E-16, 24.76500000000000057, 1.587499999999999911 ) ) ;
#351 = DIRECTION ( 'NONE',  ( 8.659560562354932858E-17, 0.7071067811865474617, -0.7071067811865474617 ) ) ;
#352 = VERTEX_POINT ( 'NONE', #67 ) ;
#353 = CARTESIAN_POINT ( 'NONE',  ( 0.000000000000000000, 20.95499999999999829, 0.000000000000000000 ) ) ;
#354 = VECTOR ( 'NONE', #179, 1000.000000000000000 ) ;
#355 = DIRECTION ( 'NONE',  ( 0.000000000000000000, 0.000000000000000000, 1.000000000000000000 ) ) ;
#356 = VERTEX_POINT ( 'NONE', #364 ) ;
#357 = DIRECTION ( 'NONE',  ( 0.000000000000000000, -0.000000000000000000, 1.000000000000000000 ) ) ;
#358 = EDGE_LOOP ( 'NONE', ( #68, #365 ) ) ;
#359 = DIRECTION ( 'NONE',  ( 0.000000000000000000, -1.000000000000000000, 0.000000000000000000 ) ) ;
#360 = AXIS2_PLACEMENT_3D ( 'NONE', #47, #287, #347 ) ;
#361 = ORIENTED_EDGE ( 'NONE', *, *, #363, .F. ) ;
#362 = CIRCLE ( 'NONE', #378, 2.600000000000000089 ) ;
#363 = EDGE_CURVE ( 'NONE', #92, #352, #270, .T. ) ;
#364 = CARTESIAN_POINT ( 'NONE',  ( -3.354846235927158759E-17, 20.95499999999999474, -1.587499999999999911 ) ) ;
#365 = ORIENTED_EDGE ( 'NONE', *, *, #173, .T. ) ;
#366 = DIRECTION ( 'NONE',  ( 0.000000000000000000, 0.000000000000000000, -1.000000000000000000 ) ) ;
#367 = ORIENTED_EDGE ( 'NONE', *, *, #106, .F. ) ;
#368 = FACE_OUTER_BOUND ( 'NONE', #26, .T. ) ;
#369 = ORIENTED_EDGE ( 'NONE', *, *, #303, .T. ) ;
#370 = CARTESIAN_POINT ( 'NONE',  ( -0.3773801799852766758, 20.95499999999999829, 1.541992363714645764 ) ) ;
#371 = DIRECTION ( 'NONE',  ( 0.000000000000000000, 1.000000000000000000, 0.000000000000000000 ) ) ;
#372 = CARTESIAN_POINT ( 'NONE',  ( 0.000000000000000000, -6.349999999999999645, 0.000000000000000000 ) ) ;
#373 = CARTESIAN_POINT ( 'NONE',  ( -5.587918591103036903, 0.000000000000000000, -1.604732320109821142 ) ) ;
#374 = DIRECTION ( 'NONE',  ( -0.000000000000000000, -1.000000000000000000, -0.000000000000000000 ) ) ;
#375 = EDGE_CURVE ( 'NONE', #125, #356, #259, .T. ) ;
#376 = DIRECTION ( 'NONE',  ( 0.000000000000000000, 0.000000000000000000, -1.000000000000000000 ) ) ;
#377 = AXIS2_PLACEMENT_3D ( 'NONE', #284, #258, #52 ) ;
#378 = AXIS2_PLACEMENT_3D ( 'NONE', #85, #326, #141 ) ;
#379 = DIRECTION ( 'NONE',  ( -0.000000000000000000, -1.000000000000000000, -0.000000000000000000 ) ) ;
#380 = CARTESIAN_POINT ( 'NONE',  ( -2.706604547444014575, 20.95499999999999829, -2.296752723685198561 ) ) ;
#381 = CYLINDRICAL_SURFACE ( 'NONE', #62, 2.600000000000000089 ) ;
#382 = DIRECTION ( 'NONE',  ( -0.000000000000000000, 1.000000000000000000, -0.000000000000000000 ) ) ;
#383 = AXIS2_PLACEMENT_3D ( 'NONE', #84, #266, #321 ) ;
ENDSEC;
END-ISO-10303-21;
