ISO-10303-21;
HEADER;
FILE_DESCRIPTION (( 'STEP AP214' ),
    '1' );
FILE_NAME ('ramp_connector.STEP',
    '2026-06-02T03:12:50',
    ( '' ),
    ( '' ),
    'SwSTEP 2.0',
    'SolidWorks 2025',
    '' );
FILE_SCHEMA (( 'AUTOMOTIVE_DESIGN' ));
ENDSEC;

DATA;
#1 = CARTESIAN_POINT ( 'NONE',  ( 0.000000000000000000, 2.158999999999999808, -0.2500000000000000000 ) ) ;
#2 = CARTESIAN_POINT ( 'NONE',  ( 0.000000000000000000, 2.158999999999999808, 0.000000000000000000 ) ) ;
#3 = EDGE_CURVE ( 'NONE', #119, #147, #23, .T. ) ;
#4 = DIRECTION ( 'NONE',  ( 0.000000000000000000, 0.000000000000000000, 1.000000000000000000 ) ) ;
#5 = CARTESIAN_POINT ( 'NONE',  ( 0.000000000000000000, 0.1000000000000000888, 0.000000000000000000 ) ) ;
#6 = CARTESIAN_POINT ( 'NONE',  ( 0.000000000000000000, 2.158999999999999808, 0.000000000000000000 ) ) ;
#7 = CONICAL_SURFACE ( 'NONE', #117, 0.2500000000000000000, 0.7853981633974489451 ) ;
#8 = VERTEX_POINT ( 'NONE', #170 ) ;
#9 = EDGE_LOOP ( 'NONE', ( #43, #86, #30, #102 ) ) ;
#10 = ORIENTED_EDGE ( 'NONE', *, *, #18, .F. ) ;
#11 = APPLICATION_CONTEXT ( 'automotive_design' ) ;
#12 = DIRECTION ( 'NONE',  ( -0.000000000000000000, 1.000000000000000000, -0.000000000000000000 ) ) ;
#13 = CARTESIAN_POINT ( 'NONE',  ( 2.449293598294704689E-17, 2.158999999999999808, 0.1499999999999998002 ) ) ;
#14 = CARTESIAN_POINT ( 'NONE',  ( 0.000000000000000000, 2.058999999999999275, 0.000000000000000000 ) ) ;
#15 = AXIS2_PLACEMENT_3D ( 'NONE', #104, #139, #88 ) ;
#16 = CIRCLE ( 'NONE', #185, 0.2500000000000000000 ) ;
#17 = DIRECTION ( 'NONE',  ( 8.659560562354922997E-17, -0.7071067811865483499, 0.7071067811865466846 ) ) ;
#18 = EDGE_CURVE ( 'NONE', #42, #63, #51, .T. ) ;
#19 = CARTESIAN_POINT ( 'NONE',  ( 0.000000000000000000, 0.1000000000000000888, 0.000000000000000000 ) ) ;
#20 = SURFACE_STYLE_USAGE ( .BOTH. , #70 ) ;
#21 = FACE_OUTER_BOUND ( 'NONE', #75, .T. ) ;
#22 = CARTESIAN_POINT ( 'NONE',  ( 0.000000000000000000, 0.000000000000000000, 0.1499999999999998002 ) ) ;
#23 = CIRCLE ( 'NONE', #15, 0.1499999999999998002 ) ;
#24 = SHAPE_DEFINITION_REPRESENTATION ( #74, #115 ) ;
#25 = ADVANCED_FACE ( 'NONE', ( #101 ), #134, .T. ) ;
#26 = ADVANCED_FACE ( 'NONE', ( #186 ), #35, .T. ) ;
#27 = VECTOR ( 'NONE', #17, 100.0000000000000142 ) ;
#28 = ORIENTED_EDGE ( 'NONE', *, *, #169, .T. ) ;
#29 = ORIENTED_EDGE ( 'NONE', *, *, #109, .T. ) ;
#30 = ORIENTED_EDGE ( 'NONE', *, *, #79, .T. ) ;
#31 = CARTESIAN_POINT ( 'NONE',  ( 0.000000000000000000, 0.1000000000000000888, 0.000000000000000000 ) ) ;
#32 = CARTESIAN_POINT ( 'NONE',  ( 3.061616997868383018E-17, 2.158999999999999808, 0.2500000000000000000 ) ) ;
#33 = EDGE_CURVE ( 'NONE', #100, #135, #162, .T. ) ;
#34 = ORIENTED_EDGE ( 'NONE', *, *, #62, .T. ) ;
#35 = CONICAL_SURFACE ( 'NONE', #125, 0.1499999999999998002, 0.7853981633974471688 ) ;
#36 = VECTOR ( 'NONE', #110, 100.0000000000000000 ) ;
#37 = CARTESIAN_POINT ( 'NONE',  ( 0.000000000000000000, 2.158999999999999808, 0.000000000000000000 ) ) ;
#38 = DIRECTION ( 'NONE',  ( 0.000000000000000000, 0.7071067811865471286, 0.7071067811865480168 ) ) ;
#39 = CARTESIAN_POINT ( 'NONE',  ( 0.000000000000000000, 0.1000000000000000888, 0.2500000000000000000 ) ) ;
#40 = FACE_OUTER_BOUND ( 'NONE', #9, .T. ) ;
#41 = EDGE_CURVE ( 'NONE', #63, #42, #16, .T. ) ;
#42 = VERTEX_POINT ( 'NONE', #64 ) ;
#43 = ORIENTED_EDGE ( 'NONE', *, *, #90, .F. ) ;
#44 =( GEOMETRIC_REPRESENTATION_CONTEXT ( 3 ) GLOBAL_UNCERTAINTY_ASSIGNED_CONTEXT ( ( #83 ) ) GLOBAL_UNIT_ASSIGNED_CONTEXT ( ( #161, #145, #131 ) ) REPRESENTATION_CONTEXT ( 'NONE', 'WORKASPACE' ) );
#45 = EDGE_LOOP ( 'NONE', ( #218, #194, #77, #153 ) ) ;
#46 = CARTESIAN_POINT ( 'NONE',  ( 0.000000000000000000, 0.000000000000000000, 0.000000000000000000 ) ) ;
#47 = CARTESIAN_POINT ( 'NONE',  ( 0.000000000000000000, 2.158999999999999808, 0.000000000000000000 ) ) ;
#48 = DIRECTION ( 'NONE',  ( 0.000000000000000000, 0.000000000000000000, -1.000000000000000000 ) ) ;
#49 = PLANE ( 'NONE',  #129 ) ;
#50 = DIRECTION ( 'NONE',  ( -0.000000000000000000, 1.000000000000000000, -0.000000000000000000 ) ) ;
#51 = CIRCLE ( 'NONE', #85, 0.2500000000000000000 ) ;
#52 = FACE_OUTER_BOUND ( 'NONE', #198, .T. ) ;
#53 = PRODUCT_DEFINITION_FORMATION_WITH_SPECIFIED_SOURCE ( 'ANY', '', #216, .NOT_KNOWN. ) ;
#54 = FACE_OUTER_BOUND ( 'NONE', #149, .T. ) ;
#55 = DIRECTION ( 'NONE',  ( -0.000000000000000000, -1.000000000000000000, -0.000000000000000000 ) ) ;
#56 = ORIENTED_EDGE ( 'NONE', *, *, #126, .T. ) ;
#57 = ORIENTED_EDGE ( 'NONE', *, *, #164, .T. ) ;
#58 = ORIENTED_EDGE ( 'NONE', *, *, #3, .T. ) ;
#59 = AXIS2_PLACEMENT_3D ( 'NONE', #84, #171, #120 ) ;
#60 = PRESENTATION_LAYER_ASSIGNMENT (  '', '', ( #163 ) ) ;
#61 = DIRECTION ( 'NONE',  ( 0.000000000000000000, 0.000000000000000000, 1.000000000000000000 ) ) ;
#62 = EDGE_CURVE ( 'NONE', #135, #100, #93, .T. ) ;
#63 = VERTEX_POINT ( 'NONE', #156 ) ;
#64 = CARTESIAN_POINT ( 'NONE',  ( 3.061616997868383018E-17, 2.058999999999999275, 0.2500000000000000000 ) ) ;
#65 = DIRECTION ( 'NONE',  ( 0.000000000000000000, -1.000000000000000000, 0.000000000000000000 ) ) ;
#66 = DIRECTION ( 'NONE',  ( 0.000000000000000000, 0.000000000000000000, 1.000000000000000000 ) ) ;
#67 = SURFACE_STYLE_FILL_AREA ( #189 ) ;
#68 = AXIS2_PLACEMENT_3D ( 'NONE', #95, #133, #179 ) ;
#69 = DIRECTION ( 'NONE',  ( 0.000000000000000000, -0.000000000000000000, 1.000000000000000000 ) ) ;
#70 = SURFACE_SIDE_STYLE ('',( #67 ) ) ;
#71 = AXIS2_PLACEMENT_3D ( 'NONE', #47, #121, #61 ) ;
#72 = LINE ( 'NONE', #39, #174 ) ;
#73 = AXIS2_PLACEMENT_3D ( 'NONE', #143, #192, #69 ) ;
#74 = PRODUCT_DEFINITION_SHAPE ( 'NONE', 'NONE',  #188 ) ;
#75 = EDGE_LOOP ( 'NONE', ( #148, #98, #29, #180 ) ) ;
#76 = ORIENTED_EDGE ( 'NONE', *, *, #3, .F. ) ;
#77 = ORIENTED_EDGE ( 'NONE', *, *, #210, .T. ) ;
#78 = ORIENTED_EDGE ( 'NONE', *, *, #169, .F. ) ;
#79 = EDGE_CURVE ( 'NONE', #63, #8, #141, .T. ) ;
#80 = CONICAL_SURFACE ( 'NONE', #112, 0.2500000000000000000, 0.7853981633974489451 ) ;
#81 = DIRECTION ( 'NONE',  ( 0.000000000000000000, 0.000000000000000000, 1.000000000000000000 ) ) ;
#82 = CIRCLE ( 'NONE', #212, 0.2500000000000000000 ) ;
#83 = UNCERTAINTY_MEASURE_WITH_UNIT (LENGTH_MEASURE( 1.000000000000000082E-05 ), #161, 'distance_accuracy_value', 'NONE');
#84 = CARTESIAN_POINT ( 'NONE',  ( 0.000000000000000000, 2.158999999999999808, 0.000000000000000000 ) ) ;
#85 = AXIS2_PLACEMENT_3D ( 'NONE', #124, #65, #224 ) ;
#86 = ORIENTED_EDGE ( 'NONE', *, *, #18, .T. ) ;
#87 = DIRECTION ( 'NONE',  ( 0.000000000000000000, 0.000000000000000000, 1.000000000000000000 ) ) ;
#88 = DIRECTION ( 'NONE',  ( 0.000000000000000000, 0.000000000000000000, 1.000000000000000000 ) ) ;
#89 =( LENGTH_UNIT ( ) NAMED_UNIT ( * ) SI_UNIT ( .CENTI., .METRE. ) );
#90 = EDGE_CURVE ( 'NONE', #42, #99, #137, .T. ) ;
#91 = CYLINDRICAL_SURFACE ( 'NONE', #136, 0.2500000000000000000 ) ;
#92 =( NAMED_UNIT ( * ) SI_UNIT ( $, .STERADIAN. ) SOLID_ANGLE_UNIT ( ) );
#93 = CIRCLE ( 'NONE', #71, 0.1499999999999998002 ) ;
#94 = AXIS2_PLACEMENT_3D ( 'NONE', #6, #55, #128 ) ;
#95 = CARTESIAN_POINT ( 'NONE',  ( 0.000000000000000000, 0.000000000000000000, 0.000000000000000000 ) ) ;
#96 = ORIENTED_EDGE ( 'NONE', *, *, #33, .F. ) ;
#97 = ORIENTED_EDGE ( 'NONE', *, *, #127, .T. ) ;
#98 = ORIENTED_EDGE ( 'NONE', *, *, #90, .T. ) ;
#99 = VERTEX_POINT ( 'NONE', #140 ) ;
#100 = VERTEX_POINT ( 'NONE', #13 ) ;
#101 = FACE_OUTER_BOUND ( 'NONE', #165, .T. ) ;
#102 = ORIENTED_EDGE ( 'NONE', *, *, #132, .T. ) ;
#103 = CARTESIAN_POINT ( 'NONE',  ( 0.000000000000000000, 2.158999999999999808, 0.000000000000000000 ) ) ;
#104 = CARTESIAN_POINT ( 'NONE',  ( 0.000000000000000000, 0.000000000000000000, 0.000000000000000000 ) ) ;
#105 = CLOSED_SHELL ( 'NONE', ( #26, #201, #199, #190, #154, #113, #146, #25 ) ) ;
#106 = CARTESIAN_POINT ( 'NONE',  ( 0.000000000000000000, 0.1000000000000000888, 0.000000000000000000 ) ) ;
#107 = CIRCLE ( 'NONE', #152, 0.1499999999999998002 ) ;
#108 = PRODUCT_RELATED_PRODUCT_CATEGORY ( 'part', '', ( #216 ) ) ;
#109 = EDGE_CURVE ( 'NONE', #99, #8, #144, .T. ) ;
#110 = DIRECTION ( 'NONE',  ( 8.659560562354939021E-17, 0.7071067811865471286, -0.7071067811865480168 ) ) ;
#111 = CARTESIAN_POINT ( 'NONE',  ( 0.000000000000000000, 2.158999999999999808, -0.1499999999999998002 ) ) ;
#112 = AXIS2_PLACEMENT_3D ( 'NONE', #31, #12, #81 ) ;
#113 = ADVANCED_FACE ( 'NONE', ( #202 ), #49, .F. ) ;
#114 = ORIENTED_EDGE ( 'NONE', *, *, #109, .F. ) ;
#115 = ADVANCED_BREP_SHAPE_REPRESENTATION ( 'ramp_connector', ( #203, #68 ), #44 ) ;
#116 = ORIENTED_EDGE ( 'NONE', *, *, #127, .F. ) ;
#117 = AXIS2_PLACEMENT_3D ( 'NONE', #5, #193, #4 ) ;
#118 = APPLICATION_PROTOCOL_DEFINITION ( 'draft international standard', 'automotive_design', 1998, #195 ) ;
#119 = VERTEX_POINT ( 'NONE', #175 ) ;
#120 = DIRECTION ( 'NONE',  ( 0.000000000000000000, 0.000000000000000000, 1.000000000000000000 ) ) ;
#121 = DIRECTION ( 'NONE',  ( 0.000000000000000000, 1.000000000000000000, 0.000000000000000000 ) ) ;
#122 = DIRECTION ( 'NONE',  ( 0.000000000000000000, -1.000000000000000000, 0.000000000000000000 ) ) ;
#123 = DIRECTION ( 'NONE',  ( -0.000000000000000000, -1.000000000000000000, -0.000000000000000000 ) ) ;
#124 = CARTESIAN_POINT ( 'NONE',  ( 0.000000000000000000, 2.058999999999999275, 0.000000000000000000 ) ) ;
#125 = AXIS2_PLACEMENT_3D ( 'NONE', #103, #138, #205 ) ;
#126 = EDGE_CURVE ( 'NONE', #147, #119, #107, .T. ) ;
#127 = EDGE_CURVE ( 'NONE', #100, #42, #184, .T. ) ;
#128 = DIRECTION ( 'NONE',  ( 0.000000000000000000, 0.000000000000000000, -1.000000000000000000 ) ) ;
#129 = AXIS2_PLACEMENT_3D ( 'NONE', #46, #181, #225 ) ;
#130 = DIRECTION ( 'NONE',  ( 0.000000000000000000, 0.000000000000000000, -1.000000000000000000 ) ) ;
#131 =( NAMED_UNIT ( * ) SI_UNIT ( $, .STERADIAN. ) SOLID_ANGLE_UNIT ( ) );
#132 = EDGE_CURVE ( 'NONE', #8, #99, #82, .T. ) ;
#133 = DIRECTION ( 'NONE',  ( 0.000000000000000000, 0.000000000000000000, 1.000000000000000000 ) ) ;
#134 = CONICAL_SURFACE ( 'NONE', #214, 0.1499999999999998002, 0.7853981633974471688 ) ;
#135 = VERTEX_POINT ( 'NONE', #168 ) ;
#136 = AXIS2_PLACEMENT_3D ( 'NONE', #37, #160, #130 ) ;
#137 = LINE ( 'NONE', #32, #150 ) ;
#138 = DIRECTION ( 'NONE',  ( 0.000000000000000000, -1.000000000000000000, 0.000000000000000000 ) ) ;
#139 = DIRECTION ( 'NONE',  ( -0.000000000000000000, -1.000000000000000000, -0.000000000000000000 ) ) ;
#140 = CARTESIAN_POINT ( 'NONE',  ( 3.061616997868383018E-17, 0.1000000000000000888, 0.2500000000000000000 ) ) ;
#141 = LINE ( 'NONE', #1, #221 ) ;
#142 = PRESENTATION_STYLE_ASSIGNMENT (( #20 ) ) ;
#143 = CARTESIAN_POINT ( 'NONE',  ( 0.000000000000000000, 2.158999999999999808, 0.000000000000000000 ) ) ;
#144 = CIRCLE ( 'NONE', #172, 0.2500000000000000000 ) ;
#145 =( NAMED_UNIT ( * ) PLANE_ANGLE_UNIT ( ) SI_UNIT ( $, .RADIAN. ) );
#146 = ADVANCED_FACE ( 'NONE', ( #157 ), #80, .T. ) ;
#147 = VERTEX_POINT ( 'NONE', #22 ) ;
#148 = ORIENTED_EDGE ( 'NONE', *, *, #41, .T. ) ;
#149 = EDGE_LOOP ( 'NONE', ( #76, #57, #114, #167 ) ) ;
#150 = VECTOR ( 'NONE', #182, 100.0000000000000000 ) ;
#151 =( GEOMETRIC_REPRESENTATION_CONTEXT ( 3 ) GLOBAL_UNCERTAINTY_ASSIGNED_CONTEXT ( ( #158 ) ) GLOBAL_UNIT_ASSIGNED_CONTEXT ( ( #89, #191, #92 ) ) REPRESENTATION_CONTEXT ( 'NONE', 'WORKASPACE' ) );
#152 = AXIS2_PLACEMENT_3D ( 'NONE', #208, #123, #206 ) ;
#153 = ORIENTED_EDGE ( 'NONE', *, *, #132, .F. ) ;
#154 = ADVANCED_FACE ( 'NONE', ( #52 ), #176, .T. ) ;
#155 = DIRECTION ( 'NONE',  ( 0.000000000000000000, 0.000000000000000000, 1.000000000000000000 ) ) ;
#156 = CARTESIAN_POINT ( 'NONE',  ( 0.000000000000000000, 2.058999999999999275, -0.2500000000000000000 ) ) ;
#157 = FACE_OUTER_BOUND ( 'NONE', #45, .T. ) ;
#158 = UNCERTAINTY_MEASURE_WITH_UNIT (LENGTH_MEASURE( 1.000000000000000082E-05 ), #89, 'distance_accuracy_value', 'NONE');
#159 = APPLICATION_PROTOCOL_DEFINITION ( 'draft international standard', 'automotive_design', 1998, #11 ) ;
#160 = DIRECTION ( 'NONE',  ( -0.000000000000000000, -1.000000000000000000, -0.000000000000000000 ) ) ;
#161 =( LENGTH_UNIT ( ) NAMED_UNIT ( * ) SI_UNIT ( .CENTI., .METRE. ) );
#162 = CIRCLE ( 'NONE', #59, 0.1499999999999998002 ) ;
#163 = STYLED_ITEM ( 'NONE', ( #142 ), #203 ) ;
#164 = EDGE_CURVE ( 'NONE', #119, #8, #178, .T. ) ;
#165 = EDGE_LOOP ( 'NONE', ( #116, #166, #28, #10 ) ) ;
#166 = ORIENTED_EDGE ( 'NONE', *, *, #62, .F. ) ;
#167 = ORIENTED_EDGE ( 'NONE', *, *, #210, .F. ) ;
#168 = CARTESIAN_POINT ( 'NONE',  ( 0.000000000000000000, 2.158999999999999808, -0.1499999999999998002 ) ) ;
#169 = EDGE_CURVE ( 'NONE', #135, #63, #213, .T. ) ;
#170 = CARTESIAN_POINT ( 'NONE',  ( 0.000000000000000000, 0.1000000000000000888, -0.2500000000000000000 ) ) ;
#171 = DIRECTION ( 'NONE',  ( 0.000000000000000000, 1.000000000000000000, 0.000000000000000000 ) ) ;
#172 = AXIS2_PLACEMENT_3D ( 'NONE', #106, #207, #155 ) ;
#173 = CARTESIAN_POINT ( 'NONE',  ( 1.836970198721027284E-17, 2.158999999999999808, 0.1499999999999998002 ) ) ;
#174 = VECTOR ( 'NONE', #38, 100.0000000000000000 ) ;
#175 = CARTESIAN_POINT ( 'NONE',  ( 2.449293598294704689E-17, 0.000000000000000000, -0.1499999999999998002 ) ) ;
#176 = PLANE ( 'NONE',  #73 ) ;
#177 = CARTESIAN_POINT ( 'NONE',  ( 3.061616997868383018E-17, 0.1000000000000000888, -0.2500000000000000000 ) ) ;
#178 = LINE ( 'NONE', #177, #36 ) ;
#179 = DIRECTION ( 'NONE',  ( 1.000000000000000000, 0.000000000000000000, 0.000000000000000000 ) ) ;
#180 = ORIENTED_EDGE ( 'NONE', *, *, #79, .F. ) ;
#181 = DIRECTION ( 'NONE',  ( 0.000000000000000000, 1.000000000000000000, 0.000000000000000000 ) ) ;
#182 = DIRECTION ( 'NONE',  ( -0.000000000000000000, -1.000000000000000000, -0.000000000000000000 ) ) ;
#183 = DIRECTION ( 'NONE',  ( -0.000000000000000000, -1.000000000000000000, -0.000000000000000000 ) ) ;
#184 = LINE ( 'NONE', #173, #27 ) ;
#185 = AXIS2_PLACEMENT_3D ( 'NONE', #14, #122, #66 ) ;
#186 = FACE_OUTER_BOUND ( 'NONE', #196, .T. ) ;
#187 = COLOUR_RGB ( '',0.7921568627450980005, 0.8196078431372548767, 0.9333333333333333481 ) ;
#188 = PRODUCT_DEFINITION ( 'UNKNOWN', '', #53, #204 ) ;
#189 = FILL_AREA_STYLE ('',( #209 ) ) ;
#190 = ADVANCED_FACE ( 'NONE', ( #40 ), #215, .T. ) ;
#191 =( NAMED_UNIT ( * ) PLANE_ANGLE_UNIT ( ) SI_UNIT ( $, .RADIAN. ) );
#192 = DIRECTION ( 'NONE',  ( 0.000000000000000000, 1.000000000000000000, 0.000000000000000000 ) ) ;
#193 = DIRECTION ( 'NONE',  ( -0.000000000000000000, 1.000000000000000000, -0.000000000000000000 ) ) ;
#194 = ORIENTED_EDGE ( 'NONE', *, *, #126, .F. ) ;
#195 = APPLICATION_CONTEXT ( 'automotive_design' ) ;
#196 = EDGE_LOOP ( 'NONE', ( #96, #97, #220, #78 ) ) ;
#197 = VECTOR ( 'NONE', #211, 100.0000000000000142 ) ;
#198 = EDGE_LOOP ( 'NONE', ( #34, #217 ) ) ;
#199 = ADVANCED_FACE ( 'NONE', ( #21 ), #91, .T. ) ;
#200 = PRODUCT_CONTEXT ( 'NONE', #11, 'mechanical' ) ;
#201 = ADVANCED_FACE ( 'NONE', ( #54 ), #7, .T. ) ;
#202 = FACE_OUTER_BOUND ( 'NONE', #219, .T. ) ;
#203 = MANIFOLD_SOLID_BREP ( 'Chamfer1', #105 ) ;
#204 = PRODUCT_DEFINITION_CONTEXT ( 'detailed design', #195, 'design' ) ;
#205 = DIRECTION ( 'NONE',  ( 0.000000000000000000, 0.000000000000000000, -1.000000000000000000 ) ) ;
#206 = DIRECTION ( 'NONE',  ( 0.000000000000000000, 0.000000000000000000, 1.000000000000000000 ) ) ;
#207 = DIRECTION ( 'NONE',  ( -0.000000000000000000, 1.000000000000000000, -0.000000000000000000 ) ) ;
#208 = CARTESIAN_POINT ( 'NONE',  ( 0.000000000000000000, 0.000000000000000000, 0.000000000000000000 ) ) ;
#209 = FILL_AREA_STYLE_COLOUR ( '', #187 ) ;
#210 = EDGE_CURVE ( 'NONE', #147, #99, #72, .T. ) ;
#211 = DIRECTION ( 'NONE',  ( 0.000000000000000000, -0.7071067811865483499, -0.7071067811865466846 ) ) ;
#212 = AXIS2_PLACEMENT_3D ( 'NONE', #19, #50, #87 ) ;
#213 = LINE ( 'NONE', #111, #197 ) ;
#214 = AXIS2_PLACEMENT_3D ( 'NONE', #2, #223, #48 ) ;
#215 = CYLINDRICAL_SURFACE ( 'NONE', #94, 0.2500000000000000000 ) ;
#216 = PRODUCT ( 'ramp_connector', 'ramp_connector', '', ( #200 ) ) ;
#217 = ORIENTED_EDGE ( 'NONE', *, *, #33, .T. ) ;
#218 = ORIENTED_EDGE ( 'NONE', *, *, #164, .F. ) ;
#219 = EDGE_LOOP ( 'NONE', ( #56, #58 ) ) ;
#220 = ORIENTED_EDGE ( 'NONE', *, *, #41, .F. ) ;
#221 = VECTOR ( 'NONE', #183, 100.0000000000000000 ) ;
#222 = MECHANICAL_DESIGN_GEOMETRIC_PRESENTATION_REPRESENTATION (  '', ( #163 ), #151 ) ;
#223 = DIRECTION ( 'NONE',  ( 0.000000000000000000, -1.000000000000000000, 0.000000000000000000 ) ) ;
#224 = DIRECTION ( 'NONE',  ( 0.000000000000000000, 0.000000000000000000, 1.000000000000000000 ) ) ;
#225 = DIRECTION ( 'NONE',  ( 0.000000000000000000, -0.000000000000000000, 1.000000000000000000 ) ) ;
ENDSEC;
END-ISO-10303-21;
