ISO-10303-21;
HEADER;
FILE_DESCRIPTION (( 'STEP AP214' ),
    '1' );
FILE_NAME ('roller.STEP',
    '2026-05-22T08:31:23',
    ( '' ),
    ( '' ),
    'SwSTEP 2.0',
    'SolidWorks 2025',
    '' );
FILE_SCHEMA (( 'AUTOMOTIVE_DESIGN' ));
ENDSEC;

DATA;
#1 = DIRECTION ( 'NONE',  ( 1.000000000000000000, 0.000000000000000000, 0.000000000000000000 ) ) ;
#2 = EDGE_CURVE ( 'NONE', #538, #289, #184, .T. ) ;
#3 = CARTESIAN_POINT ( 'NONE',  ( 1.247599592425351789, -2.442018130268204690, 0.4757112807010733802 ) ) ;
#4 = ORIENTED_EDGE ( 'NONE', *, *, #145, .F. ) ;
#5 = DIRECTION ( 'NONE',  ( 0.000000000000000000, 0.000000000000000000, 1.000000000000000000 ) ) ;
#6 = EDGE_CURVE ( 'NONE', #289, #420, #537, .T. ) ;
#7 = CARTESIAN_POINT ( 'NONE',  ( 1.107094258546088561, -1.975077183418958215, 0.5304000000000016479 ) ) ;
#8 = CARTESIAN_POINT ( 'NONE',  ( 0.000000000000000000, -1.800000000000000266, 0.3750000000000000555 ) ) ;
#9 = CIRCLE ( 'NONE', #208, 0.1220472440944884163 ) ;
#10 = UNCERTAINTY_MEASURE_WITH_UNIT (LENGTH_MEASURE( 1.000000000000000082E-05 ), #58, 'distance_accuracy_value', 'NONE');
#11 = CIRCLE ( 'NONE', #547, 0.1250000000000000278 ) ;
#12 = PLANE ( 'NONE',  #415 ) ;
#13 = DIRECTION ( 'NONE',  ( -0.000000000000000000, 1.000000000000000000, -0.000000000000000000 ) ) ;
#14 = CARTESIAN_POINT ( 'NONE',  ( 0.8625000000000059286, -1.493893821528150534, 0.3750000000000000555 ) ) ;
#15 = CARTESIAN_POINT ( 'NONE',  ( -0.7312992125984240088, -2.637499999999999734, 4.424999999999999822 ) ) ;
#16 = VERTEX_POINT ( 'NONE', #526 ) ;
#17 = DIRECTION ( 'NONE',  ( -1.000000000000000000, 0.000000000000000000, 0.000000000000000000 ) ) ;
#18 = LINE ( 'NONE', #878, #176 ) ;
#19 = EDGE_CURVE ( 'NONE', #76, #339, #9, .T. ) ;
#20 = CARTESIAN_POINT ( 'NONE',  ( 0.000000000000000000, -2.637499999999999734, 4.799999999999999822 ) ) ;
#21 = AXIS2_PLACEMENT_3D ( 'NONE', #659, #799, #383 ) ;
#22 = FACE_OUTER_BOUND ( 'NONE', #207, .T. ) ;
#23 = EDGE_CURVE ( 'NONE', #542, #847, #888, .T. ) ;
#24 = PRODUCT_DEFINITION_SHAPE ( 'NONE', 'NONE',  #846 ) ;
#25 = DIRECTION ( 'NONE',  ( 1.000000000000000000, 0.000000000000000000, 0.000000000000000000 ) ) ;
#26 = DIRECTION ( 'NONE',  ( 0.000000000000000000, 0.000000000000000000, 1.000000000000000000 ) ) ;
#27 = LINE ( 'NONE', #388, #532 ) ;
#28 =( LENGTH_UNIT ( ) NAMED_UNIT ( * ) SI_UNIT ( $, .METRE. ) );
#29 = DIRECTION ( 'NONE',  ( 0.000000000000000000, 0.000000000000000000, 1.000000000000000000 ) ) ;
#30 = ORIENTED_EDGE ( 'NONE', *, *, #649, .F. ) ;
#31 = CYLINDRICAL_SURFACE ( 'NONE', #358, 0.1000000000000000194 ) ;
#32 = DIRECTION ( 'NONE',  ( 1.000000000000000000, 0.000000000000000000, -0.000000000000000000 ) ) ;
#33 = CYLINDRICAL_SURFACE ( 'NONE', #727, 0.1220472440944884163 ) ;
#34 = CARTESIAN_POINT ( 'NONE',  ( -1.249999999999997780, -2.825000000000000178, -0.3750000000000000555 ) ) ;
#35 = ORIENTED_EDGE ( 'NONE', *, *, #104, .F. ) ;
#36 = CARTESIAN_POINT ( 'NONE',  ( 0.000000000000000000, -1.800000000000000266, 0.3750000000000000555 ) ) ;
#37 = AXIS2_PLACEMENT_3D ( 'NONE', #440, #5, #435 ) ;
#38 = VECTOR ( 'NONE', #739, 39.37007874015748143 ) ;
#39 = DIRECTION ( 'NONE',  ( -0.000000000000000000, -0.000000000000000000, -1.000000000000000000 ) ) ;
#40 = CARTESIAN_POINT ( 'NONE',  ( 0.000000000000000000, -2.637499999999999734, 4.424999999999999822 ) ) ;
#41 = VERTEX_POINT ( 'NONE', #325 ) ;
#42 = DIRECTION ( 'NONE',  ( 0.000000000000000000, 0.000000000000000000, -1.000000000000000000 ) ) ;
#43 = B_SPLINE_CURVE_WITH_KNOTS ( 'NONE', 2,
 ( #882, #162, #736 ),
 .UNSPECIFIED., .F., .F.,
 ( 3, 3 ),
 ( 0.000000000000000000, 0.8422436360847691539 ),
 .UNSPECIFIED. ) ;
#44 = CARTESIAN_POINT ( 'NONE',  ( 1.249999999999997780, -2.450000000000000178, 4.799999999999999822 ) ) ;
#45 = FACE_OUTER_BOUND ( 'NONE', #743, .T. ) ;
#46 = ORIENTED_EDGE ( 'NONE', *, *, #171, .F. ) ;
#47 = APPLICATION_PROTOCOL_DEFINITION ( 'draft international standard', 'automotive_design', 1998, #191 ) ;
#48 = CARTESIAN_POINT ( 'NONE',  ( 0.1732283464566928277, -2.825000000000000178, 4.799999999999999822 ) ) ;
#49 = ADVANCED_FACE ( 'NONE', ( #315 ), #763, .T. ) ;
#50 = ORIENTED_EDGE ( 'NONE', *, *, #152, .F. ) ;
#51 = CARTESIAN_POINT ( 'NONE',  ( 1.249999999999997780, -2.450000000000000178, 4.799999999999999822 ) ) ;
#52 = LENGTH_MEASURE_WITH_UNIT ( LENGTH_MEASURE( 0.02539999999999999897 ), #554 );
#53 = DIRECTION ( 'NONE',  ( 1.000000000000000000, -2.731847993664262824E-15, 0.000000000000000000 ) ) ;
#54 = COLOUR_RGB ( '',0.7921568627450980005, 0.8196078431372548767, 0.9333333333333333481 ) ;
#55 = AXIS2_PLACEMENT_3D ( 'NONE', #14, #309, #97 ) ;
#56 = VERTEX_POINT ( 'NONE', #897 ) ;
#57 = CARTESIAN_POINT ( 'NONE',  ( -1.243823299435366625, -2.429436437049937947, 0.4485549476438669969 ) ) ;
#58 =( CONVERSION_BASED_UNIT ( 'INCH', #52 ) LENGTH_UNIT ( ) NAMED_UNIT ( #838 ) );
#59 = CARTESIAN_POINT ( 'NONE',  ( 0.000000000000000000, -1.800000000000000266, -0.3750000000000000555 ) ) ;
#60 = ORIENTED_EDGE ( 'NONE', *, *, #661, .T. ) ;
#61 = DIRECTION ( 'NONE',  ( 1.000000000000000000, 0.000000000000000000, 0.000000000000000000 ) ) ;
#62 = CARTESIAN_POINT ( 'NONE',  ( -0.8336614173228334979, -2.637499999999999734, 4.799999999999999822 ) ) ;
#63 = ADVANCED_FACE ( 'NONE', ( #617 ), #398, .F. ) ;
#64 = ORIENTED_EDGE ( 'NONE', *, *, #798, .F. ) ;
#65 = CARTESIAN_POINT ( 'NONE',  ( -0.8624999999999954925, -1.493893821528159194, -0.3750000000000000555 ) ) ;
#66 = ADVANCED_FACE ( 'NONE', ( #45 ), #243, .T. ) ;
#67 = CARTESIAN_POINT ( 'NONE',  ( 1.249999999999997780, -2.450000000000000178, 0.5150102456459563216 ) ) ;
#68 = CIRCLE ( 'NONE', #772, 0.1023622047244095168 ) ;
#69 = ORIENTED_EDGE ( 'NONE', *, *, #607, .T. ) ;
#70 = CIRCLE ( 'NONE', #211, 0.1220472440944884163 ) ;
#71 = LINE ( 'NONE', #842, #642 ) ;
#72 = AXIS2_PLACEMENT_3D ( 'NONE', #483, #473, #252 ) ;
#73 = CARTESIAN_POINT ( 'NONE',  ( 0.9875000000000059286, -1.493893821528150090, 0.3750000000000000555 ) ) ;
#74 = VERTEX_POINT ( 'NONE', #690 ) ;
#75 = DIRECTION ( 'NONE',  ( 0.000000000000000000, 0.000000000000000000, 1.000000000000000000 ) ) ;
#76 = VERTEX_POINT ( 'NONE', #900 ) ;
#77 = ADVANCED_FACE ( 'NONE', ( #181 ), #742, .F. ) ;
#78 = DIRECTION ( 'NONE',  ( 0.000000000000000000, -1.000000000000000000, 0.000000000000000000 ) ) ;
#79 = SURFACE_STYLE_FILL_AREA ( #589 ) ;
#80 = EDGE_LOOP ( 'NONE', ( #365, #127, #295, #732 ) ) ;
#81 = ADVANCED_FACE ( 'NONE', ( #108, #394 ), #196, .T. ) ;
#82 = LINE ( 'NONE', #142, #98 ) ;
#83 = AXIS2_PLACEMENT_3D ( 'NONE', #557, #779, #361 ) ;
#84 = VECTOR ( 'NONE', #416, 39.37007874015748143 ) ;
#85 = CARTESIAN_POINT ( 'NONE',  ( 0.000000000000000000, -1.800000000000000266, 0.3750000000000000555 ) ) ;
#86 = DIRECTION ( 'NONE',  ( 1.000000000000000000, 0.000000000000000000, 0.000000000000000000 ) ) ;
#87 = DIRECTION ( 'NONE',  ( 1.000000000000000000, 0.000000000000000000, -0.000000000000000000 ) ) ;
#88 = ADVANCED_FACE ( 'NONE', ( #119 ), #255, .F. ) ;
#89 = FACE_OUTER_BOUND ( 'NONE', #349, .T. ) ;
#90 = CARTESIAN_POINT ( 'NONE',  ( 1.232114807279307334, -2.390236504991773980, 0.4047860528023406457 ) ) ;
#91 = EDGE_CURVE ( 'NONE', #56, #579, #470, .T. ) ;
#92 = VERTEX_POINT ( 'NONE', #885 ) ;
#93 = EDGE_CURVE ( 'NONE', #869, #914, #68, .T. ) ;
#94 = CARTESIAN_POINT ( 'NONE',  ( 0.9360236220472430979, -2.637499999999999734, 4.799999999999999822 ) ) ;
#95 = DIRECTION ( 'NONE',  ( -0.000000000000000000, -0.000000000000000000, -1.000000000000000000 ) ) ;
#96 = ORIENTED_EDGE ( 'NONE', *, *, #522, .F. ) ;
#97 = DIRECTION ( 'NONE',  ( -1.000000000000000000, 0.000000000000000000, 0.000000000000000000 ) ) ;
#98 = VECTOR ( 'NONE', #78, 39.37007874015748143 ) ;
#99 = DIRECTION ( 'NONE',  ( 0.000000000000000000, 0.000000000000000000, 1.000000000000000000 ) ) ;
#100 = VECTOR ( 'NONE', #166, 39.37007874015748143 ) ;
#101 = ORIENTED_EDGE ( 'NONE', *, *, #385, .F. ) ;
#102 = CARTESIAN_POINT ( 'NONE',  ( 0.000000000000000000, 0.000000000000000000, 4.799999999999999822 ) ) ;
#103 = ORIENTED_EDGE ( 'NONE', *, *, #592, .F. ) ;
#104 = EDGE_CURVE ( 'NONE', #521, #541, #740, .T. ) ;
#105 = FACE_OUTER_BOUND ( 'NONE', #212, .T. ) ;
#106 = CYLINDRICAL_SURFACE ( 'NONE', #344, 0.1023622047244095168 ) ;
#107 = CARTESIAN_POINT ( 'NONE',  ( -0.9360236220472430979, -2.637499999999999734, 4.424999999999999822 ) ) ;
#108 = FACE_BOUND ( 'NONE', #771, .T. ) ;
#109 = ORIENTED_EDGE ( 'NONE', *, *, #165, .T. ) ;
#110 = DIRECTION ( 'NONE',  ( 0.000000000000000000, 0.000000000000000000, 1.000000000000000000 ) ) ;
#111 = DIRECTION ( 'NONE',  ( 0.000000000000000000, 1.000000000000000000, -0.000000000000000000 ) ) ;
#112 = VECTOR ( 'NONE', #825, 39.37007874015748143 ) ;
#113 = LINE ( 'NONE', #44, #84 ) ;
#114 = B_SPLINE_CURVE_WITH_KNOTS ( 'NONE', 2,
 ( #486, #424, #206 ),
 .UNSPECIFIED., .F., .F.,
 ( 3, 3 ),
 ( 0.000000000000000000, 1.000000000000000000 ),
 .UNSPECIFIED. ) ;
#115 = CARTESIAN_POINT ( 'NONE',  ( -0.2952755905511810774, -2.450000000000000178, 4.799999999999997158 ) ) ;
#116 = ORIENTED_EDGE ( 'NONE', *, *, #347, .T. ) ;
#117 = DIRECTION ( 'NONE',  ( -1.000000000000000000, 0.000000000000000000, 0.000000000000000000 ) ) ;
#118 = VERTEX_POINT ( 'NONE', #773 ) ;
#119 = FACE_OUTER_BOUND ( 'NONE', #568, .T. ) ;
#120 = ORIENTED_EDGE ( 'NONE', *, *, #649, .T. ) ;
#121 = B_SPLINE_SURFACE_WITH_KNOTS ( 'NONE', 2, 1, ( 
 ( #138, #710 ),
 ( #7, #925 ),
 ( #780, #155 ) ),
 .UNSPECIFIED., .F., .F., .F.,
 ( 3, 3 ),
 ( 2, 2 ),
 ( 0.000000000000000000, 1.000000000000000000 ),
 ( 0.000000000000000000, 1.000000000000000000 ),
 .UNSPECIFIED. ) ;
#122 = DIRECTION ( 'NONE',  ( 0.000000000000000000, 0.000000000000000000, 1.000000000000000000 ) ) ;
#123 = EDGE_CURVE ( 'NONE', #914, #869, #488, .T. ) ;
#124 = DIRECTION ( 'NONE',  ( -1.000000000000000000, -0.000000000000000000, -0.000000000000000000 ) ) ;
#125 = ORIENTED_EDGE ( 'NONE', *, *, #567, .T. ) ;
#126 = CARTESIAN_POINT ( 'NONE',  ( 1.249999999999997780, -2.825000000000000178, 0.3750000000000000555 ) ) ;
#127 = ORIENTED_EDGE ( 'NONE', *, *, #159, .T. ) ;
#128 = CARTESIAN_POINT ( 'NONE',  ( 0.3983398347018919927, -1.768040413651840614, -0.3750000000000000555 ) ) ;
#129 = VECTOR ( 'NONE', #354, 39.37007874015748143 ) ;
#130 = AXIS2_PLACEMENT_3D ( 'NONE', #329, #484, #769 ) ;
#131 = ORIENTED_EDGE ( 'NONE', *, *, #840, .T. ) ;
#132 = CARTESIAN_POINT ( 'NONE',  ( -0.2952755905511810774, -2.825000000000000178, 4.799999999999997158 ) ) ;
#133 = EDGE_CURVE ( 'NONE', #92, #420, #288, .T. ) ;
#134 = CARTESIAN_POINT ( 'NONE',  ( 0.000000000000000000, -1.800000000000000266, -0.3749999999999995004 ) ) ;
#135 = B_SPLINE_CURVE_WITH_KNOTS ( 'NONE', 2,
 ( #845, #128, #59 ),
 .UNSPECIFIED., .F., .F.,
 ( 3, 3 ),
 ( 0.04848039707289689138, 1.000000000000000222 ),
 .UNSPECIFIED. ) ;
#136 = EDGE_LOOP ( 'NONE', ( #455, #788 ) ) ;
#137 = DIRECTION ( 'NONE',  ( 1.000000000000000000, 0.000000000000000000, 0.000000000000000000 ) ) ;
#138 = CARTESIAN_POINT ( 'NONE',  ( 1.249999999999997780, -2.450000000000000178, 0.5304000000000016479 ) ) ;
#139 = VERTEX_POINT ( 'NONE', #646 ) ;
#140 = CARTESIAN_POINT ( 'NONE',  ( -1.245277770655525140, -2.434284949127195397, 0.4574272272811598095 ) ) ;
#141 = VERTEX_POINT ( 'NONE', #281 ) ;
#142 = CARTESIAN_POINT ( 'NONE',  ( -1.249999999999997780, -2.450000000000000178, 4.799999999999999822 ) ) ;
#143 = AXIS2_PLACEMENT_3D ( 'NONE', #156, #87, #227 ) ;
#144 = VERTEX_POINT ( 'NONE', #501 ) ;
#145 = EDGE_CURVE ( 'NONE', #182, #180, #262, .T. ) ;
#146 = VECTOR ( 'NONE', #452, 39.37007874015748143 ) ;
#147 = CARTESIAN_POINT ( 'NONE',  ( -1.227293127127041528, -2.374008300697117768, 0.3941688440703172702 ) ) ;
#148 = ORIENTED_EDGE ( 'NONE', *, *, #593, .F. ) ;
#149 = EDGE_CURVE ( 'NONE', #76, #92, #782, .T. ) ;
#150 = CARTESIAN_POINT ( 'NONE',  ( 0.3983398347010121410, -1.768040413651911003, -0.3749999999999995004 ) ) ;
#151 = ORIENTED_EDGE ( 'NONE', *, *, #133, .F. ) ;
#152 = EDGE_CURVE ( 'NONE', #767, #367, #114, .T. ) ;
#153 = DIRECTION ( 'NONE',  ( 1.000000000000000000, 0.000000000000000000, -0.000000000000000000 ) ) ;
#154 = ORIENTED_EDGE ( 'NONE', *, *, #491, .F. ) ;
#155 = CARTESIAN_POINT ( 'NONE',  ( 0.9874999999999954925, -1.493893821528159416, -0.3749999999999995004 ) ) ;
#156 = CARTESIAN_POINT ( 'NONE',  ( -1.249999999999997780, -2.450000000000000178, 0.3750000000000000555 ) ) ;
#157 = DIRECTION ( 'NONE',  ( 0.000000000000000000, 0.000000000000000000, 1.000000000000000000 ) ) ;
#158 = DIRECTION ( 'NONE',  ( 0.000000000000000000, -1.000000000000000000, 0.000000000000000000 ) ) ;
#159 = EDGE_CURVE ( 'NONE', #860, #141, #71, .T. ) ;
#160 = CLOSED_SHELL ( 'NONE', ( #658, #77, #784, #926, #478, #360, #625, #919, #506, #730, #494, #892, #397, #364, #293, #577, #303, #551, #81, #356, #723, #210, #232, #88, #695, #910, #66, #63, #49 ) ) ;
#161 =( CONVERSION_BASED_UNIT ( 'INCH', #366 ) LENGTH_UNIT ( ) NAMED_UNIT ( #762 ) );
#162 = CARTESIAN_POINT ( 'NONE',  ( -1.088227503172718658, -1.899167445870559412, 0.3750000000000000555 ) ) ;
#163 = LINE ( 'NONE', #806, #741 ) ;
#164 = ORIENTED_EDGE ( 'NONE', *, *, #171, .T. ) ;
#165 = EDGE_CURVE ( 'NONE', #725, #640, #248, .T. ) ;
#166 = DIRECTION ( 'NONE',  ( 1.000000000000000000, 0.000000000000000000, 0.000000000000000000 ) ) ;
#167 = DIRECTION ( 'NONE',  ( 0.000000000000000000, -1.000000000000000000, 0.000000000000000000 ) ) ;
#168 = ORIENTED_EDGE ( 'NONE', *, *, #205, .T. ) ;
#169 = LINE ( 'NONE', #523, #146 ) ;
#170 = CARTESIAN_POINT ( 'NONE',  ( 1.227293127127041306, -2.374008300697117324, 0.3941688440703169372 ) ) ;
#171 = EDGE_CURVE ( 'NONE', #546, #810, #612, .T. ) ;
#172 = EDGE_LOOP ( 'NONE', ( #531, #125, #109, #817 ) ) ;
#173 = ORIENTED_EDGE ( 'NONE', *, *, #372, .T. ) ;
#174 = AXIS2_PLACEMENT_3D ( 'NONE', #102, #476, #390 ) ;
#175 = CARTESIAN_POINT ( 'NONE',  ( -0.3983398347018837216, -1.768040413651841058, -0.3750000000000000555 ) ) ;
#176 = VECTOR ( 'NONE', #666, 39.37007874015748143 ) ;
#177 = DIRECTION ( 'NONE',  ( -0.000000000000000000, -0.000000000000000000, -1.000000000000000000 ) ) ;
#178 = VECTOR ( 'NONE', #692, 39.37007874015748143 ) ;
#179 = CARTESIAN_POINT ( 'NONE',  ( 0.7312992125984240088, -2.637499999999999734, 4.424999999999999822 ) ) ;
#180 = VERTEX_POINT ( 'NONE', #481 ) ;
#181 = FACE_OUTER_BOUND ( 'NONE', #553, .T. ) ;
#182 = VERTEX_POINT ( 'NONE', #696 ) ;
#183 = CARTESIAN_POINT ( 'NONE',  ( 1.249999999999997780, -2.450000000000000178, 4.799999999999999822 ) ) ;
#184 = LINE ( 'NONE', #811, #583 ) ;
#185 = ORIENTED_EDGE ( 'NONE', *, *, #104, .T. ) ;
#186 = APPLICATION_PROTOCOL_DEFINITION ( 'draft international standard', 'automotive_design', 1998, #753 ) ;
#187 = FACE_BOUND ( 'NONE', #136, .T. ) ;
#188 = EDGE_LOOP ( 'NONE', ( #587, #271, #485, #35 ) ) ;
#189 = EDGE_LOOP ( 'NONE', ( #774, #204, #464, #259 ) ) ;
#190 = SHAPE_DEFINITION_REPRESENTATION ( #24, #216 ) ;
#191 = APPLICATION_CONTEXT ( 'automotive_design' ) ;
#192 = VECTOR ( 'NONE', #720, 39.37007874015748143 ) ;
#193 = EDGE_CURVE ( 'NONE', #827, #321, #530, .T. ) ;
#194 = CARTESIAN_POINT ( 'NONE',  ( -1.249999999999997780, -2.450000000000000178, 0.5250000000000000222 ) ) ;
#195 = EDGE_CURVE ( 'NONE', #640, #144, #576, .T. ) ;
#196 = PLANE ( 'NONE',  #174 ) ;
#197 = ORIENTED_EDGE ( 'NONE', *, *, #328, .F. ) ;
#198 = CARTESIAN_POINT ( 'NONE',  ( -0.9874999999999954925, -1.493893821528159416, -0.3749999999999995004 ) ) ;
#199 = PRODUCT_RELATED_PRODUCT_CATEGORY ( 'part', '', ( #510 ) ) ;
#200 = ORIENTED_EDGE ( 'NONE', *, *, #165, .F. ) ;
#201 = DIRECTION ( 'NONE',  ( -0.000000000000000000, -0.000000000000000000, -1.000000000000000000 ) ) ;
#202 = ORIENTED_EDGE ( 'NONE', *, *, #623, .F. ) ;
#203 = CARTESIAN_POINT ( 'NONE',  ( -0.1732283464566928277, -2.825000000000000178, 4.799999999999999822 ) ) ;
#204 = ORIENTED_EDGE ( 'NONE', *, *, #605, .T. ) ;
#205 = EDGE_CURVE ( 'NONE', #92, #402, #826, .T. ) ;
#206 = CARTESIAN_POINT ( 'NONE',  ( 0.9875000000000059286, -1.493893821528150090, -0.3750000000000000555 ) ) ;
#207 = EDGE_LOOP ( 'NONE', ( #466, #536, #434, #410, #824, #399, #477, #761, #857 ) ) ;
#208 = AXIS2_PLACEMENT_3D ( 'NONE', #751, #471, #602 ) ;
#209 = CARTESIAN_POINT ( 'NONE',  ( -0.9874999999999954925, -1.493893821528159416, 0.3750000000000000555 ) ) ;
#210 = ADVANCED_FACE ( 'NONE', ( #348 ), #853, .F. ) ;
#211 = AXIS2_PLACEMENT_3D ( 'NONE', #633, #765, #616 ) ;
#212 = EDGE_LOOP ( 'NONE', ( #60, #752 ) ) ;
#213 = CARTESIAN_POINT ( 'NONE',  ( -0.2952755905511810774, -2.825000000000000178, 4.799999999999997158 ) ) ;
#214 = LINE ( 'NONE', #648, #456 ) ;
#215 = ORIENTED_EDGE ( 'NONE', *, *, #439, .F. ) ;
#216 = ADVANCED_BREP_SHAPE_REPRESENTATION ( 'roller', ( #287, #72 ), #632 ) ;
#217 = CARTESIAN_POINT ( 'NONE',  ( -1.232114807279307334, -2.390236504991774869, 0.4047860528023409232 ) ) ;
#218 = ORIENTED_EDGE ( 'NONE', *, *, #437, .T. ) ;
#219 = CARTESIAN_POINT ( 'NONE',  ( 0.9875000000000059286, -1.493893821528150090, 0.3750000000000000555 ) ) ;
#220 = EDGE_LOOP ( 'NONE', ( #781, #276, #148, #622, #717 ) ) ;
#221 = CARTESIAN_POINT ( 'NONE',  ( -1.249999999999997780, -2.450000000000000178, -0.3750000000000000555 ) ) ;
#222 = EDGE_CURVE ( 'NONE', #420, #767, #924, .T. ) ;
#223 = CARTESIAN_POINT ( 'NONE',  ( 1.240485536196722416, -2.418289903960583853, 0.4322361283316040748 ) ) ;
#224 = AXIS2_PLACEMENT_3D ( 'NONE', #213, #635, #493 ) ;
#225 = ORIENTED_EDGE ( 'NONE', *, *, #406, .F. ) ;
#226 = AXIS2_PLACEMENT_3D ( 'NONE', #804, #99, #32 ) ;
#227 = DIRECTION ( 'NONE',  ( -0.000000000000000000, 0.000000000000000000, -1.000000000000000000 ) ) ;
#228 = DIRECTION ( 'NONE',  ( 1.000000000000000000, 0.000000000000000000, 0.000000000000000000 ) ) ;
#229 = DIRECTION ( 'NONE',  ( 0.000000000000000000, 0.000000000000000000, 1.000000000000000000 ) ) ;
#230 = CARTESIAN_POINT ( 'NONE',  ( 1.205491574206463801, -2.299999999999999822, 0.3750000000000000555 ) ) ;
#231 = FACE_OUTER_BOUND ( 'NONE', #496, .T. ) ;
#232 = ADVANCED_FACE ( 'NONE', ( #512 ), #33, .F. ) ;
#233 = DIRECTION ( 'NONE',  ( -0.000000000000000000, -0.000000000000000000, 1.000000000000000000 ) ) ;
#234 = DIRECTION ( 'NONE',  ( 0.000000000000000000, -1.000000000000000000, 0.000000000000000000 ) ) ;
#235 = EDGE_CURVE ( 'NONE', #691, #351, #586, .T. ) ;
#236 = AXIS2_PLACEMENT_3D ( 'NONE', #352, #917, #1 ) ;
#237 = VECTOR ( 'NONE', #234, 39.37007874015748143 ) ;
#238 = CARTESIAN_POINT ( 'NONE',  ( 0.000000000000000000, -2.637499999999999734, 4.424999999999999822 ) ) ;
#239 = DIRECTION ( 'NONE',  ( 1.000000000000000000, 0.000000000000000000, 0.000000000000000000 ) ) ;
#240 = CARTESIAN_POINT ( 'NONE',  ( -0.7408831265245514608, -1.465008945103672966, -0.3750000000000000555 ) ) ;
#241 = CARTESIAN_POINT ( 'NONE',  ( 1.238602641019054706, -2.411993377790669690, 0.4247321280594628656 ) ) ;
#242 = EDGE_CURVE ( 'NONE', #573, #601, #431, .T. ) ;
#243 = PLANE ( 'NONE',  #921 ) ;
#244 = CARTESIAN_POINT ( 'NONE',  ( 0.7063481433440756962, -1.519755836492862278, 0.3750000000000000555 ) ) ;
#245 = CARTESIAN_POINT ( 'NONE',  ( 0.1023622047244095168, -2.637499999999999734, 4.424999999999999822 ) ) ;
#246 = CARTESIAN_POINT ( 'NONE',  ( 0.7408831265245618969, -1.465008945103664306, 0.3750000000000000555 ) ) ;
#247 = EDGE_CURVE ( 'NONE', #41, #487, #789, .T. ) ;
#248 = CIRCLE ( 'NONE', #324, 0.1250000000000000278 ) ;
#249 = CARTESIAN_POINT ( 'NONE',  ( 0.8336614173228334979, -2.637499999999999734, 4.799999999999999822 ) ) ;
#250 = ORIENTED_EDGE ( 'NONE', *, *, #519, .F. ) ;
#251 = AXIS2_PLACEMENT_3D ( 'NONE', #132, #712, #569 ) ;
#252 = DIRECTION ( 'NONE',  ( 1.000000000000000000, 0.000000000000000000, 0.000000000000000000 ) ) ;
#253 = CIRCLE ( 'NONE', #55, 0.1250000000000000278 ) ;
#254 = DIRECTION ( 'NONE',  ( -0.000000000000000000, -0.000000000000000000, 1.000000000000000000 ) ) ;
#255 = CYLINDRICAL_SURFACE ( 'NONE', #873, 0.1023622047244095168 ) ;
#256 = CARTESIAN_POINT ( 'NONE',  ( -1.112922129273042460, -2.300000000000000266, 0.5250000000000000222 ) ) ;
#257 = B_SPLINE_CURVE_WITH_KNOTS ( 'NONE', 2,
 ( #812, #175, #459 ),
 .UNSPECIFIED., .F., .F.,
 ( 3, 3 ),
 ( 0.000000000000000000, 0.9515196029270833744 ),
 .UNSPECIFIED. ) ;
#258 = CARTESIAN_POINT ( 'NONE',  ( -1.249999999999997780, -2.825000000000000178, 4.799999999999999822 ) ) ;
#259 = ORIENTED_EDGE ( 'NONE', *, *, #429, .T. ) ;
#260 = EDGE_CURVE ( 'NONE', #362, #180, #867, .T. ) ;
#261 = CARTESIAN_POINT ( 'NONE',  ( 1.249999999999997780, -2.450000000000000178, 0.3750000000000000555 ) ) ;
#262 = B_SPLINE_CURVE_WITH_KNOTS ( 'NONE', 3,
 ( #638, #913, #628, #340, #277, #858, #147, #217, #552, #707, #292, #57, #140, #497, #787, #907, #848, #272 ),
 .UNSPECIFIED., .F., .F.,
 ( 4, 2, 2, 2, 2, 2, 2, 2, 4 ),
 ( 7.949501638480626889E-18, 0.0007606824081579943199, 0.001521364816315980834, 0.002282047224473966913, 0.003042729632631953427, 0.003803412040789939941, 0.004564094448947926021, 0.005324776857105912968, 0.006085459265263899048 ),
 .UNSPECIFIED. ) ;
#263 = CARTESIAN_POINT ( 'NONE',  ( -1.107094258546088117, -1.975077183418958882, -0.3749999999999995004 ) ) ;
#264 = CARTESIAN_POINT ( 'NONE',  ( 0.8336614173228334979, -2.637499999999999734, 4.424999999999999822 ) ) ;
#265 = ORIENTED_EDGE ( 'NONE', *, *, #406, .T. ) ;
#266 = FACE_OUTER_BOUND ( 'NONE', #280, .T. ) ;
#267 = PRESENTATION_LAYER_ASSIGNMENT (  '', '', ( #283 ) ) ;
#268 = VECTOR ( 'NONE', #177, 39.37007874015748143 ) ;
#269 = B_SPLINE_SURFACE_WITH_KNOTS ( 'NONE', 2, 1, ( 
 ( #655, #490 ),
 ( #284, #150 ),
 ( #859, #134 ) ),
 .UNSPECIFIED., .F., .F., .F.,
 ( 3, 3 ),
 ( 2, 2 ),
 ( 0.04848039707499855744, 1.000000000000000000 ),
 ( 0.000000000000000000, 1.000000000000000000 ),
 .UNSPECIFIED. ) ;
#270 = DIRECTION ( 'NONE',  ( 1.000000000000000000, 0.000000000000000000, 0.000000000000000000 ) ) ;
#271 = ORIENTED_EDGE ( 'NONE', *, *, #23, .T. ) ;
#272 = CARTESIAN_POINT ( 'NONE',  ( -1.249999999999997780, -2.450000000000000178, 0.5250000000000016875 ) ) ;
#273 = ORIENTED_EDGE ( 'NONE', *, *, #451, .F. ) ;
#274 = DIRECTION ( 'NONE',  ( -0.000000000000000000, -0.000000000000000000, -1.000000000000000000 ) ) ;
#275 = EDGE_CURVE ( 'NONE', #810, #914, #815, .T. ) ;
#276 = ORIENTED_EDGE ( 'NONE', *, *, #222, .T. ) ;
#277 = CARTESIAN_POINT ( 'NONE',  ( -1.219435514204660453, -2.347457141127338609, 0.3823740956434937277 ) ) ;
#278 = EDGE_CURVE ( 'NONE', #860, #326, #307, .T. ) ;
#279 = FACE_OUTER_BOUND ( 'NONE', #626, .T. ) ;
#280 = EDGE_LOOP ( 'NONE', ( #389, #706, #560, #480 ) ) ;
#281 = CARTESIAN_POINT ( 'NONE',  ( 0.7063481433440756962, -1.519755836492862278, -0.3750000000000000555 ) ) ;
#282 = ORIENTED_EDGE ( 'NONE', *, *, #704, .T. ) ;
#283 = STYLED_ITEM ( 'NONE', ( #797 ), #287 ) ;
#284 = CARTESIAN_POINT ( 'NONE',  ( 0.3983398347010121410, -1.768040413651911003, 0.3750000000000000555 ) ) ;
#285 = AXIS2_PLACEMENT_3D ( 'NONE', #404, #409, #53 ) ;
#286 = AXIS2_PLACEMENT_3D ( 'NONE', #261, #619, #122 ) ;
#287 = MANIFOLD_SOLID_BREP ( 'Fillet3', #160 ) ;
#288 = LINE ( 'NONE', #126, #627 ) ;
#289 = VERTEX_POINT ( 'NONE', #580 ) ;
#290 = CARTESIAN_POINT ( 'NONE',  ( 1.248489463391944776, -2.444978024092387958, 0.4852130346568970243 ) ) ;
#291 = ORIENTED_EDGE ( 'NONE', *, *, #2, .T. ) ;
#292 = CARTESIAN_POINT ( 'NONE',  ( -1.240485536196722194, -2.418289903960582965, 0.4322361283316047964 ) ) ;
#293 = ADVANCED_FACE ( 'NONE', ( #231 ), #801, .F. ) ;
#294 = CARTESIAN_POINT ( 'NONE',  ( 1.245277770655525140, -2.434284949127193620, 0.4574272272811595874 ) ) ;
#295 = ORIENTED_EDGE ( 'NONE', *, *, #426, .T. ) ;
#296 = ORIENTED_EDGE ( 'NONE', *, *, #328, .T. ) ;
#297 = DIRECTION ( 'NONE',  ( 1.000000000000000000, 0.000000000000000000, 0.000000000000000000 ) ) ;
#298 = VECTOR ( 'NONE', #657, 39.37007874015748143 ) ;
#299 = VECTOR ( 'NONE', #749, 39.37007874015748143 ) ;
#300 = CARTESIAN_POINT ( 'NONE',  ( 0.8336614173228334979, -2.637499999999999734, 4.424999999999999822 ) ) ;
#301 = EDGE_LOOP ( 'NONE', ( #103, #652, #504, #131 ) ) ;
#302 = DIRECTION ( 'NONE',  ( -0.000000000000000000, -0.000000000000000000, -1.000000000000000000 ) ) ;
#303 = ADVANCED_FACE ( 'NONE', ( #671 ), #505, .F. ) ;
#304 = CARTESIAN_POINT ( 'NONE',  ( 0.000000000000000000, -1.800000000000000266, 0.3750000000000000555 ) ) ;
#305 = EDGE_LOOP ( 'NONE', ( #823, #46, #371, #500 ) ) ;
#306 = CARTESIAN_POINT ( 'NONE',  ( -0.8336614173228334979, -2.637499999999999734, 4.424999999999999822 ) ) ;
#307 = B_SPLINE_CURVE_WITH_KNOTS ( 'NONE', 2,
 ( #535, #677, #304 ),
 .UNSPECIFIED., .F., .F.,
 ( 3, 3 ),
 ( 0.04848039707289689138, 1.000000000000000222 ),
 .UNSPECIFIED. ) ;
#308 = LINE ( 'NONE', #591, #237 ) ;
#309 = DIRECTION ( 'NONE',  ( 0.000000000000000000, 0.000000000000000000, 1.000000000000000000 ) ) ;
#310 = CARTESIAN_POINT ( 'NONE',  ( 1.224756818068919673, -2.365453456313703740, 0.3896849088457554067 ) ) ;
#311 = AXIS2_PLACEMENT_3D ( 'NONE', #673, #29, #608 ) ;
#312 = DIRECTION ( 'NONE',  ( -0.000000000000000000, -0.000000000000000000, 1.000000000000000000 ) ) ;
#313 = CARTESIAN_POINT ( 'NONE',  ( 1.234422929950148351, -2.397985903864252588, 0.4110047130081551092 ) ) ;
#314 = EDGE_CURVE ( 'NONE', #725, #139, #904, .T. ) ;
#315 = FACE_OUTER_BOUND ( 'NONE', #912, .T. ) ;
#316 = CARTESIAN_POINT ( 'NONE',  ( -0.1023622047244095168, -2.637499999999999734, 4.799999999999999822 ) ) ;
#317 = DIRECTION ( 'NONE',  ( 0.000000000000000000, -0.000000000000000000, 1.000000000000000000 ) ) ;
#318 = CARTESIAN_POINT ( 'NONE',  ( -1.112922129273042460, -1.973512047091519506, -0.3750000000000000555 ) ) ;
#319 = B_SPLINE_SURFACE_WITH_KNOTS ( 'NONE', 2, 1, ( 
 ( #36, #828 ),
 ( #902, #686 ),
 ( #898, #332 ) ),
 .UNSPECIFIED., .F., .F., .F.,
 ( 3, 3 ),
 ( 2, 2 ),
 ( 0.000000000000000000, 0.9515196029270833744 ),
 ( 0.000000000000000000, 1.000000000000000000 ),
 .UNSPECIFIED. ) ;
#320 = DIRECTION ( 'NONE',  ( 1.000000000000000000, 0.000000000000000000, 0.000000000000000000 ) ) ;
#321 = VERTEX_POINT ( 'NONE', #884 ) ;
#322 = DIRECTION ( 'NONE',  ( 0.000000000000000000, 0.000000000000000000, 1.000000000000000000 ) ) ;
#323 =( NAMED_UNIT ( * ) PLANE_ANGLE_UNIT ( ) SI_UNIT ( $, .RADIAN. ) );
#324 = AXIS2_PLACEMENT_3D ( 'NONE', #65, #641, #61 ) ;
#325 = CARTESIAN_POINT ( 'NONE',  ( -0.7408831265245514608, -1.465008945103672966, 0.3750000000000000555 ) ) ;
#326 = VERTEX_POINT ( 'NONE', #8 ) ;
#327 = VECTOR ( 'NONE', #124, 39.37007874015748143 ) ;
#328 = EDGE_CURVE ( 'NONE', #810, #546, #682, .T. ) ;
#329 = CARTESIAN_POINT ( 'NONE',  ( -0.8336614173228334979, -2.637499999999999734, 4.799999999999999822 ) ) ;
#330 = DIRECTION ( 'NONE',  ( 1.000000000000000000, 0.000000000000000000, -0.000000000000000000 ) ) ;
#331 = ORIENTED_EDGE ( 'NONE', *, *, #377, .T. ) ;
#332 = CARTESIAN_POINT ( 'NONE',  ( -0.7063481433440649271, -1.519755836492871381, -0.3749999999999996114 ) ) ;
#333 = EDGE_CURVE ( 'NONE', #573, #674, #613, .T. ) ;
#334 = CARTESIAN_POINT ( 'NONE',  ( -0.8336614173228334979, -2.637499999999999734, 4.424999999999999822 ) ) ;
#335 = DIRECTION ( 'NONE',  ( 0.000000000000000000, 0.000000000000000000, -1.000000000000000000 ) ) ;
#336 =( NAMED_UNIT ( * ) PLANE_ANGLE_UNIT ( ) SI_UNIT ( $, .RADIAN. ) );
#337 = B_SPLINE_CURVE_WITH_KNOTS ( 'NONE', 2,
 ( #85, #449, #733 ),
 .UNSPECIFIED., .F., .F.,
 ( 3, 3 ),
 ( 0.000000000000000000, 0.9515196029270833744 ),
 .UNSPECIFIED. ) ;
#338 = DIRECTION ( 'NONE',  ( 1.000000000000000000, 0.000000000000000000, 0.000000000000000000 ) ) ;
#339 = VERTEX_POINT ( 'NONE', #48 ) ;
#340 = CARTESIAN_POINT ( 'NONE',  ( -1.216678882367840941, -2.338111066397353888, 0.3796054991022847491 ) ) ;
#341 = ORIENTED_EDGE ( 'NONE', *, *, #314, .T. ) ;
#342 = VECTOR ( 'NONE', #461, 39.37007874015748143 ) ;
#343 = EDGE_CURVE ( 'NONE', #521, #542, #624, .T. ) ;
#344 = AXIS2_PLACEMENT_3D ( 'NONE', #520, #868, #86 ) ;
#345 = CARTESIAN_POINT ( 'NONE',  ( -1.249999999999997780, -2.450000000000000178, -0.3749999999999995004 ) ) ;
#346 = ORIENTED_EDGE ( 'NONE', *, *, #193, .T. ) ;
#347 = EDGE_CURVE ( 'NONE', #402, #713, #113, .T. ) ;
#348 = FACE_OUTER_BOUND ( 'NONE', #188, .T. ) ;
#349 = EDGE_LOOP ( 'NONE', ( #101, #629, #721, #843 ) ) ;
#350 = LINE ( 'NONE', #465, #803 ) ;
#351 = VERTEX_POINT ( 'NONE', #760 ) ;
#352 = CARTESIAN_POINT ( 'NONE',  ( 0.8336614173228334979, -2.637499999999999734, 4.424999999999999822 ) ) ;
#353 = CARTESIAN_POINT ( 'NONE',  ( -0.1732283464566928277, -2.450000000000000178, 4.799999999999999822 ) ) ;
#354 = DIRECTION ( 'NONE',  ( -0.000000000000000000, 1.000000000000000000, -0.000000000000000000 ) ) ;
#355 = EDGE_LOOP ( 'NONE', ( #748, #405, #30, #697 ) ) ;
#356 = ADVANCED_FACE ( 'NONE', ( #903 ), #396, .F. ) ;
#357 = CARTESIAN_POINT ( 'NONE',  ( 1.249698457418026099, -2.448998156540199034, 0.5049705359889788969 ) ) ;
#358 = AXIS2_PLACEMENT_3D ( 'NONE', #808, #610, #669 ) ;
#359 = ORIENTED_EDGE ( 'NONE', *, *, #260, .T. ) ;
#360 = ADVANCED_FACE ( 'NONE', ( #187, #279 ), #839, .T. ) ;
#361 = DIRECTION ( 'NONE',  ( 1.000000000000000000, 0.000000000000000000, 0.000000000000000000 ) ) ;
#362 = VERTEX_POINT ( 'NONE', #899 ) ;
#363 = DIRECTION ( 'NONE',  ( 0.000000000000000000, -1.000000000000000000, 0.000000000000000000 ) ) ;
#364 = ADVANCED_FACE ( 'NONE', ( #549 ), #755, .F. ) ;
#365 = ORIENTED_EDGE ( 'NONE', *, *, #278, .F. ) ;
#366 = LENGTH_MEASURE_WITH_UNIT ( LENGTH_MEASURE( 0.02539999999999999897 ), #28 );
#367 = VERTEX_POINT ( 'NONE', #479 ) ;
#368 = EDGE_CURVE ( 'NONE', #74, #835, #70, .T. ) ;
#369 = DIRECTION ( 'NONE',  ( -0.000000000000000000, 1.000000000000000000, -0.000000000000000000 ) ) ;
#370 = SURFACE_STYLE_USAGE ( .BOTH. , #746 ) ;
#371 = ORIENTED_EDGE ( 'NONE', *, *, #895, .T. ) ;
#372 = EDGE_CURVE ( 'NONE', #835, #542, #620, .T. ) ;
#373 = CARTESIAN_POINT ( 'NONE',  ( -1.249999999999997780, -2.450000000000000178, 4.799999999999999822 ) ) ;
#374 = AXIS2_PLACEMENT_3D ( 'NONE', #264, #881, #684 ) ;
#375 = CIRCLE ( 'NONE', #889, 0.1023622047244095168 ) ;
#376 = VECTOR ( 'NONE', #167, 39.37007874015748143 ) ;
#377 = EDGE_CURVE ( 'NONE', #713, #180, #559, .T. ) ;
#378 = CIRCLE ( 'NONE', #792, 0.1023622047244095168 ) ;
#379 = CYLINDRICAL_SURFACE ( 'NONE', #21, 0.1250000000000000278 ) ;
#380 = CARTESIAN_POINT ( 'NONE',  ( -0.8336614173228334979, -2.637499999999999734, 4.424999999999999822 ) ) ;
#381 = CARTESIAN_POINT ( 'NONE',  ( 1.249999999999997780, -2.450000000000000178, 0.5250000000000016875 ) ) ;
#382 = CARTESIAN_POINT ( 'NONE',  ( -1.249999999999997780, -2.825000000000000178, 0.3750000000000000555 ) ) ;
#383 = DIRECTION ( 'NONE',  ( -1.000000000000000000, 0.000000000000000000, 0.000000000000000000 ) ) ;
#384 = CARTESIAN_POINT ( 'NONE',  ( -0.1023622047244095168, -2.637499999999999734, 4.424999999999999822 ) ) ;
#385 = EDGE_CURVE ( 'NONE', #550, #41, #791, .T. ) ;
#386 = ORIENTED_EDGE ( 'NONE', *, *, #242, .F. ) ;
#387 = VECTOR ( 'NONE', #475, 39.37007874015748143 ) ;
#388 = CARTESIAN_POINT ( 'NONE',  ( -0.7063481433440608193, -1.519755836492874490, -0.3750000000000000555 ) ) ;
#389 = ORIENTED_EDGE ( 'NONE', *, *, #756, .F. ) ;
#390 = DIRECTION ( 'NONE',  ( 1.000000000000000000, 0.000000000000000000, 0.000000000000000000 ) ) ;
#391 = EDGE_LOOP ( 'NONE', ( #836, #916, #841, #715 ) ) ;
#392 = DIRECTION ( 'NONE',  ( 1.000000000000000000, 0.000000000000000000, -0.000000000000000000 ) ) ;
#393 = DIRECTION ( 'NONE',  ( 0.000000000000000000, 0.000000000000000000, 1.000000000000000000 ) ) ;
#394 = FACE_OUTER_BOUND ( 'NONE', #301, .T. ) ;
#395 = ORIENTED_EDGE ( 'NONE', *, *, #597, .T. ) ;
#396 = CYLINDRICAL_SURFACE ( 'NONE', #729, 0.1000000000000000194 ) ;
#397 = ADVANCED_FACE ( 'NONE', ( #705 ), #911, .T. ) ;
#398 = CYLINDRICAL_SURFACE ( 'NONE', #374, 0.1023622047244095168 ) ;
#399 = ORIENTED_EDGE ( 'NONE', *, *, #278, .T. ) ;
#400 = VECTOR ( 'NONE', #507, 39.37007874015748143 ) ;
#401 = DIRECTION ( 'NONE',  ( -0.000000000000000000, -0.000000000000000000, -1.000000000000000000 ) ) ;
#402 = VERTEX_POINT ( 'NONE', #183 ) ;
#403 = DIRECTION ( 'NONE',  ( 0.000000000000000000, 0.000000000000000000, 1.000000000000000000 ) ) ;
#404 = CARTESIAN_POINT ( 'NONE',  ( -0.6435896277441893742, -1.441901043964082474, 0.3750000000000000555 ) ) ;
#405 = ORIENTED_EDGE ( 'NONE', *, *, #235, .F. ) ;
#406 = EDGE_CURVE ( 'NONE', #16, #601, #703, .T. ) ;
#407 = CARTESIAN_POINT ( 'NONE',  ( -0.8336614173228334979, -2.637499999999999734, 4.424999999999999822 ) ) ;
#408 = ORIENTED_EDGE ( 'NONE', *, *, #856, .F. ) ;
#409 = DIRECTION ( 'NONE',  ( -0.000000000000000000, -0.000000000000000000, -1.000000000000000000 ) ) ;
#410 = ORIENTED_EDGE ( 'NONE', *, *, #790, .T. ) ;
#411 = DIRECTION ( 'NONE',  ( 1.000000000000000000, 0.000000000000000000, 0.000000000000000000 ) ) ;
#412 = ORIENTED_EDGE ( 'NONE', *, *, #688, .F. ) ;
#413 = FACE_OUTER_BOUND ( 'NONE', #220, .T. ) ;
#414 = VECTOR ( 'NONE', #893, 39.37007874015748143 ) ;
#415 = AXIS2_PLACEMENT_3D ( 'NONE', #373, #363, #584 ) ;
#416 = DIRECTION ( 'NONE',  ( -0.000000000000000000, -0.000000000000000000, -1.000000000000000000 ) ) ;
#417 = EDGE_LOOP ( 'NONE', ( #894, #154, #250, #513, #556 ) ) ;
#418 = DIRECTION ( 'NONE',  ( -0.000000000000000000, -0.000000000000000000, -1.000000000000000000 ) ) ;
#419 = CARTESIAN_POINT ( 'NONE',  ( 0.9875000000000059286, -1.493893821528150090, 0.3750000000000000555 ) ) ;
#420 = VERTEX_POINT ( 'NONE', #540 ) ;
#421 = CARTESIAN_POINT ( 'NONE',  ( 1.249999999999997780, -2.450000000000000178, -0.3750000000000000555 ) ) ;
#422 = CARTESIAN_POINT ( 'NONE',  ( -0.4173228346456693827, -2.825000000000000178, 4.799999999999999822 ) ) ;
#423 = ORIENTED_EDGE ( 'NONE', *, *, #750, .F. ) ;
#424 = CARTESIAN_POINT ( 'NONE',  ( 1.107094258546088561, -1.975077183418958215, -0.3750000000000000555 ) ) ;
#425 = EDGE_LOOP ( 'NONE', ( #202, #64, #282, #783 ) ) ;
#426 = EDGE_CURVE ( 'NONE', #141, #447, #135, .T. ) ;
#427 = FACE_OUTER_BOUND ( 'NONE', #575, .T. ) ;
#428 = AXIS2_PLACEMENT_3D ( 'NONE', #306, #322, #392 ) ;
#429 = EDGE_CURVE ( 'NONE', #326, #447, #350, .T. ) ;
#430 = ORIENTED_EDGE ( 'NONE', *, *, #840, .F. ) ;
#431 = LINE ( 'NONE', #107, #851 ) ;
#432 = ORIENTED_EDGE ( 'NONE', *, *, #704, .F. ) ;
#433 = CARTESIAN_POINT ( 'NONE',  ( -1.249999999999997780, -2.825000000000000178, 4.799999999999999822 ) ) ;
#434 = ORIENTED_EDGE ( 'NONE', *, *, #519, .T. ) ;
#435 = DIRECTION ( 'NONE',  ( 1.000000000000000000, 0.000000000000000000, 0.000000000000000000 ) ) ;
#436 = ORIENTED_EDGE ( 'NONE', *, *, #448, .F. ) ;
#437 = EDGE_CURVE ( 'NONE', #521, #339, #896, .T. ) ;
#438 = FACE_OUTER_BOUND ( 'NONE', #417, .T. ) ;
#439 = EDGE_CURVE ( 'NONE', #847, #362, #469, .T. ) ;
#440 = CARTESIAN_POINT ( 'NONE',  ( -0.8624999999999954925, -1.493893821528159194, 0.3750000000000000555 ) ) ;
#441 = B_SPLINE_CURVE_WITH_KNOTS ( 'NONE', 3,
 ( #855, #67, #357, #290, #3, #294, #863, #223, #241, #313, #90, #170, #310, #663, #453, #515, #883, #230 ),
 .UNSPECIFIED., .F., .F.,
 ( 4, 2, 2, 2, 2, 2, 2, 2, 4 ),
 ( 0.0005672811067661271810, 0.001328410335016618968, 0.002089539563267110538, 0.002850668791517602108, 0.003611798019768093677, 0.004372927248018585247, 0.005134056476269077685, 0.005895185704519569254, 0.006656314932770060824 ),
 .UNSPECIFIED. ) ;
#442 = CYLINDRICAL_SURFACE ( 'NONE', #585, 0.1023622047244095168 ) ;
#443 = FACE_OUTER_BOUND ( 'NONE', #558, .T. ) ;
#444 = CIRCLE ( 'NONE', #565, 0.1000000000000000194 ) ;
#445 = CARTESIAN_POINT ( 'NONE',  ( 1.249999999999997780, -2.450000000000000178, -0.3750000000000000555 ) ) ;
#446 = DIRECTION ( 'NONE',  ( -1.000000000000000000, -0.000000000000000000, -0.000000000000000000 ) ) ;
#447 = VERTEX_POINT ( 'NONE', #850 ) ;
#448 = EDGE_CURVE ( 'NONE', #76, #74, #214, .T. ) ;
#449 = CARTESIAN_POINT ( 'NONE',  ( -0.3983398347018837216, -1.768040413651841058, 0.3750000000000000555 ) ) ;
#450 = DIRECTION ( 'NONE',  ( 0.000000000000000000, 1.000000000000000000, 0.000000000000000000 ) ) ;
#451 = EDGE_CURVE ( 'NONE', #601, #16, #816, .T. ) ;
#452 = DIRECTION ( 'NONE',  ( 1.000000000000000000, 0.000000000000000000, -0.000000000000000000 ) ) ;
#453 = CARTESIAN_POINT ( 'NONE',  ( 1.216678882367841164, -2.338111066397353444, 0.3796054991022848046 ) ) ;
#454 =( GEOMETRIC_REPRESENTATION_CONTEXT ( 3 ) GLOBAL_UNCERTAINTY_ASSIGNED_CONTEXT ( ( #709 ) ) GLOBAL_UNIT_ASSIGNED_CONTEXT ( ( #161, #323, #890 ) ) REPRESENTATION_CONTEXT ( 'NONE', 'WORKASPACE' ) );
#455 = ORIENTED_EDGE ( 'NONE', *, *, #821, .F. ) ;
#456 = VECTOR ( 'NONE', #369, 39.37007874015748143 ) ;
#457 = DIRECTION ( 'NONE',  ( 1.000000000000000000, 0.000000000000000000, -0.000000000000000000 ) ) ;
#458 = EDGE_LOOP ( 'NONE', ( #864, #849, #908, #689 ) ) ;
#459 = CARTESIAN_POINT ( 'NONE',  ( -0.7063481433440627066, -1.519755836492872936, -0.3750000000000000555 ) ) ;
#460 = DIRECTION ( 'NONE',  ( 0.000000000000000000, 0.000000000000000000, 1.000000000000000000 ) ) ;
#461 = DIRECTION ( 'NONE',  ( 0.000000000000000000, 0.000000000000000000, 1.000000000000000000 ) ) ;
#462 = ORIENTED_EDGE ( 'NONE', *, *, #149, .T. ) ;
#463 = DIRECTION ( 'NONE',  ( 1.000000000000000000, 0.000000000000000000, 0.000000000000000000 ) ) ;
#464 = ORIENTED_EDGE ( 'NONE', *, *, #807, .F. ) ;
#465 = CARTESIAN_POINT ( 'NONE',  ( 0.000000000000000000, -1.800000000000000266, 0.3750000000000000555 ) ) ;
#466 = ORIENTED_EDGE ( 'NONE', *, *, #856, .T. ) ;
#467 = ORIENTED_EDGE ( 'NONE', *, *, #368, .T. ) ;
#468 = PRODUCT_CONTEXT ( 'NONE', #753, 'mechanical' ) ;
#469 = LINE ( 'NONE', #754, #598 ) ;
#470 = CIRCLE ( 'NONE', #311, 0.1023622047244095168 ) ;
#471 = DIRECTION ( 'NONE',  ( 0.000000000000000000, 1.000000000000000000, 0.000000000000000000 ) ) ;
#472 = AXIS2_PLACEMENT_3D ( 'NONE', #687, #274, #555 ) ;
#473 = DIRECTION ( 'NONE',  ( 0.000000000000000000, 0.000000000000000000, 1.000000000000000000 ) ) ;
#474 = AXIS2_PLACEMENT_3D ( 'NONE', #256, #837, #42 ) ;
#475 = DIRECTION ( 'NONE',  ( -1.000000000000000000, -0.000000000000000000, -0.000000000000000000 ) ) ;
#476 = DIRECTION ( 'NONE',  ( -0.000000000000000000, 0.000000000000000000, 1.000000000000000000 ) ) ;
#477 = ORIENTED_EDGE ( 'NONE', *, *, #807, .T. ) ;
#478 = ADVANCED_FACE ( 'NONE', ( #777, #578 ), #785, .T. ) ;
#479 = CARTESIAN_POINT ( 'NONE',  ( 0.9875000000000059286, -1.493893821528150090, -0.3750000000000000555 ) ) ;
#480 = ORIENTED_EDGE ( 'NONE', *, *, #571, .T. ) ;
#481 = CARTESIAN_POINT ( 'NONE',  ( -1.249999999999997780, -2.450000000000000178, 0.5250000000000016875 ) ) ;
#482 = EDGE_LOOP ( 'NONE', ( #197, #678, #822, #581 ) ) ;
#483 = CARTESIAN_POINT ( 'NONE',  ( 0.000000000000000000, 0.000000000000000000, 0.000000000000000000 ) ) ;
#484 = DIRECTION ( 'NONE',  ( 0.000000000000000000, 0.000000000000000000, 1.000000000000000000 ) ) ;
#485 = ORIENTED_EDGE ( 'NONE', *, *, #592, .T. ) ;
#486 = CARTESIAN_POINT ( 'NONE',  ( 1.249999999999997780, -2.450000000000000178, -0.3750000000000000555 ) ) ;
#487 = VERTEX_POINT ( 'NONE', #209 ) ;
#488 = CIRCLE ( 'NONE', #83, 0.1023622047244095168 ) ;
#489 = VECTOR ( 'NONE', #158, 39.37007874015748143 ) ;
#490 = CARTESIAN_POINT ( 'NONE',  ( 0.7063481433427171163, -1.519755836493957846, -0.3749999999999995004 ) ) ;
#491 = EDGE_CURVE ( 'NONE', #498, #367, #793, .T. ) ;
#492 = EDGE_LOOP ( 'NONE', ( #786, #685, #4, #408, #395 ) ) ;
#493 = DIRECTION ( 'NONE',  ( 0.000000000000000000, 0.000000000000000000, 1.000000000000000000 ) ) ;
#494 = ADVANCED_FACE ( 'NONE', ( #796 ), #269, .F. ) ;
#495 = CARTESIAN_POINT ( 'NONE',  ( 1.088227503172718880, -1.899167445870558968, 0.3750000000000000555 ) ) ;
#496 = EDGE_LOOP ( 'NONE', ( #69, #647, #906, #96, #359 ) ) ;
#497 = CARTESIAN_POINT ( 'NONE',  ( -1.247599592425352233, -2.442018130268206022, 0.4757112807010734912 ) ) ;
#498 = VERTEX_POINT ( 'NONE', #419 ) ;
#499 = LINE ( 'NONE', #572, #192 ) ;
#500 = ORIENTED_EDGE ( 'NONE', *, *, #93, .T. ) ;
#501 = CARTESIAN_POINT ( 'NONE',  ( -1.249999999999997780, -2.450000000000000178, -0.3750000000000000555 ) ) ;
#502 = AXIS2_PLACEMENT_3D ( 'NONE', #724, #654, #606 ) ;
#503 = DIRECTION ( 'NONE',  ( -1.000000000000000000, -0.000000000000000000, -0.000000000000000000 ) ) ;
#504 = ORIENTED_EDGE ( 'NONE', *, *, #522, .T. ) ;
#505 = PLANE ( 'NONE',  #667 ) ;
#506 = ADVANCED_FACE ( 'NONE', ( #438 ), #121, .F. ) ;
#507 = DIRECTION ( 'NONE',  ( -0.000000000000000000, -0.000000000000000000, -1.000000000000000000 ) ) ;
#508 = DIRECTION ( 'NONE',  ( 1.000000000000000000, 0.000000000000000000, 0.000000000000000000 ) ) ;
#509 = FACE_OUTER_BOUND ( 'NONE', #391, .T. ) ;
#510 = PRODUCT ( 'roller', 'roller', '', ( #468 ) ) ;
#511 = LINE ( 'NONE', #813, #376 ) ;
#512 = FACE_OUTER_BOUND ( 'NONE', #872, .T. ) ;
#513 = ORIENTED_EDGE ( 'NONE', *, *, #571, .F. ) ;
#514 = CARTESIAN_POINT ( 'NONE',  ( -0.4173228346456693827, -2.450000000000000178, 4.799999999999999822 ) ) ;
#515 = CARTESIAN_POINT ( 'NONE',  ( 1.211139990668900435, -2.319280585407215156, 0.3759353385285626459 ) ) ;
#516 = AXIS2_PLACEMENT_3D ( 'NONE', #757, #403, #457 ) ;
#517 = CIRCLE ( 'NONE', #719, 0.1023622047244095168 ) ;
#518 = DIRECTION ( 'NONE',  ( 1.000000000000000000, 0.000000000000000000, 0.000000000000000000 ) ) ;
#519 = EDGE_CURVE ( 'NONE', #118, #498, #866, .T. ) ;
#520 = CARTESIAN_POINT ( 'NONE',  ( 0.8336614173228334979, -2.637499999999999734, 4.424999999999999822 ) ) ;
#521 = VERTEX_POINT ( 'NONE', #726 ) ;
#522 = EDGE_CURVE ( 'NONE', #362, #538, #82, .T. ) ;
#523 = CARTESIAN_POINT ( 'NONE',  ( -1.112922129273042460, -2.300000000000000266, 0.3750000000000000555 ) ) ;
#524 = LINE ( 'NONE', #595, #268 ) ;
#525 = EDGE_LOOP ( 'NONE', ( #436, #462, #168, #758 ) ) ;
#526 = CARTESIAN_POINT ( 'NONE',  ( -0.7312992125984240088, -2.637499999999999734, 4.799999999999999822 ) ) ;
#527 = DIRECTION ( 'NONE',  ( 1.000000000000000000, 0.000000000000000000, 0.000000000000000000 ) ) ;
#528 = LINE ( 'NONE', #809, #489 ) ;
#529 = DIRECTION ( 'NONE',  ( -0.000000000000000000, -0.000000000000000000, 1.000000000000000000 ) ) ;
#530 = CIRCLE ( 'NONE', #770, 0.1023622047244095168 ) ;
#531 = ORIENTED_EDGE ( 'NONE', *, *, #247, .F. ) ;
#532 = VECTOR ( 'NONE', #393, 39.37007874015748143 ) ;
#533 = DIRECTION ( 'NONE',  ( -0.000000000000000000, -0.000000000000000000, 1.000000000000000000 ) ) ;
#534 = ORIENTED_EDGE ( 'NONE', *, *, #426, .F. ) ;
#535 = CARTESIAN_POINT ( 'NONE',  ( 0.7063481433440756962, -1.519755836492862278, 0.3750000000000000555 ) ) ;
#536 = ORIENTED_EDGE ( 'NONE', *, *, #756, .T. ) ;
#537 = LINE ( 'NONE', #34, #414 ) ;
#538 = VERTEX_POINT ( 'NONE', #433 ) ;
#539 = CARTESIAN_POINT ( 'NONE',  ( 0.000000000000000000, -2.637499999999999734, 4.424999999999999822 ) ) ;
#540 = CARTESIAN_POINT ( 'NONE',  ( 1.249999999999997780, -2.825000000000000178, -0.3750000000000000555 ) ) ;
#541 = VERTEX_POINT ( 'NONE', #422 ) ;
#542 = VERTEX_POINT ( 'NONE', #353 ) ;
#543 = PRODUCT_DEFINITION_CONTEXT ( 'detailed design', #191, 'design' ) ;
#544 = CARTESIAN_POINT ( 'NONE',  ( -0.9874999999999954925, -1.493893821528159416, 0.5304000000000016479 ) ) ;
#545 = DIRECTION ( 'NONE',  ( -0.000000000000000000, -0.000000000000000000, 1.000000000000000000 ) ) ;
#546 = VERTEX_POINT ( 'NONE', #714 ) ;
#547 = AXIS2_PLACEMENT_3D ( 'NONE', #662, #157, #17 ) ;
#548 = CARTESIAN_POINT ( 'NONE',  ( 0.7312992125984240088, -2.637499999999999734, 4.799999999999999822 ) ) ;
#549 = FACE_OUTER_BOUND ( 'NONE', #492, .T. ) ;
#550 = VERTEX_POINT ( 'NONE', #639 ) ;
#551 = ADVANCED_FACE ( 'NONE', ( #427 ), #12, .F. ) ;
#552 = CARTESIAN_POINT ( 'NONE',  ( -1.234422929950148351, -2.397985903864252588, 0.4110047130081555533 ) ) ;
#553 = EDGE_LOOP ( 'NONE', ( #901, #833, #346, #432 ) ) ;
#554 =( LENGTH_UNIT ( ) NAMED_UNIT ( * ) SI_UNIT ( $, .METRE. ) );
#555 = DIRECTION ( 'NONE',  ( -1.000000000000000000, 0.000000000000000000, 0.000000000000000000 ) ) ;
#556 = ORIENTED_EDGE ( 'NONE', *, *, #593, .T. ) ;
#557 = CARTESIAN_POINT ( 'NONE',  ( 0.8336614173228334979, -2.637499999999999734, 4.799999999999999822 ) ) ;
#558 = EDGE_LOOP ( 'NONE', ( #618, #650, #819, #185, #430, #291, #886, #151 ) ) ;
#559 = LINE ( 'NONE', #194, #387 ) ;
#560 = ORIENTED_EDGE ( 'NONE', *, *, #377, .F. ) ;
#561 = EDGE_CURVE ( 'NONE', #351, #860, #923, .T. ) ;
#562 = DIRECTION ( 'NONE',  ( 0.000000000000000000, 0.000000000000000000, 1.000000000000000000 ) ) ;
#563 = ORIENTED_EDGE ( 'NONE', *, *, #448, .T. ) ;
#564 = VECTOR ( 'NONE', #254, 39.37007874015748143 ) ;
#565 = AXIS2_PLACEMENT_3D ( 'NONE', #676, #460, #670 ) ;
#566 = CARTESIAN_POINT ( 'NONE',  ( 0.6435896277442034741, -1.441901043964074702, 0.3750000000000000555 ) ) ;
#567 = EDGE_CURVE ( 'NONE', #41, #725, #499, .T. ) ;
#568 = EDGE_LOOP ( 'NONE', ( #386, #694, #778, #265 ) ) ;
#569 = DIRECTION ( 'NONE',  ( 0.000000000000000000, 0.000000000000000000, -1.000000000000000000 ) ) ;
#570 = ORIENTED_EDGE ( 'NONE', *, *, #260, .F. ) ;
#571 = EDGE_CURVE ( 'NONE', #713, #118, #441, .T. ) ;
#572 = CARTESIAN_POINT ( 'NONE',  ( -0.7408831265245514608, -1.465008945103672966, 0.3750000000000000555 ) ) ;
#573 = VERTEX_POINT ( 'NONE', #604 ) ;
#574 = CARTESIAN_POINT ( 'NONE',  ( -0.9874999999999954925, -1.493893821528159416, -0.3750000000000000555 ) ) ;
#575 = EDGE_LOOP ( 'NONE', ( #116, #331, #570, #215, #852, #794, #854, #922 ) ) ;
#576 = B_SPLINE_CURVE_WITH_KNOTS ( 'NONE', 2,
 ( #574, #861, #221 ),
 .UNSPECIFIED., .F., .F.,
 ( 3, 3 ),
 ( 0.000000000000000000, 1.000000000000000000 ),
 .UNSPECIFIED. ) ;
#577 = ADVANCED_FACE ( 'NONE', ( #443 ), #737, .F. ) ;
#578 = FACE_OUTER_BOUND ( 'NONE', #525, .T. ) ;
#579 = VERTEX_POINT ( 'NONE', #245 ) ;
#580 = CARTESIAN_POINT ( 'NONE',  ( -1.249999999999997780, -2.825000000000000178, -0.3750000000000000555 ) ) ;
#581 = ORIENTED_EDGE ( 'NONE', *, *, #895, .F. ) ;
#582 = EDGE_CURVE ( 'NONE', #144, #289, #528, .T. ) ;
#583 = VECTOR ( 'NONE', #621, 39.37007874015748143 ) ;
#584 = DIRECTION ( 'NONE',  ( 0.000000000000000000, -0.000000000000000000, -1.000000000000000000 ) ) ;
#585 = AXIS2_PLACEMENT_3D ( 'NONE', #728, #233, #738 ) ;
#586 = LINE ( 'NONE', #246, #342 ) ;
#587 = ORIENTED_EDGE ( 'NONE', *, *, #343, .T. ) ;
#588 = CARTESIAN_POINT ( 'NONE',  ( -0.9360236220472430979, -2.637499999999999734, 4.799999999999999822 ) ) ;
#589 = FILL_AREA_STYLE ('',( #820 ) ) ;
#590 = DIRECTION ( 'NONE',  ( 0.000000000000000000, 0.000000000000000000, 1.000000000000000000 ) ) ;
#591 = CARTESIAN_POINT ( 'NONE',  ( 0.1732283464566928277, -2.825000000000000178, 4.799999999999999822 ) ) ;
#592 = EDGE_CURVE ( 'NONE', #847, #541, #511, .T. ) ;
#593 = EDGE_CURVE ( 'NONE', #713, #767, #18, .T. ) ;
#594 = CARTESIAN_POINT ( 'NONE',  ( 0.7312992125984240088, -2.637499999999999734, 4.424999999999999822 ) ) ;
#595 = CARTESIAN_POINT ( 'NONE',  ( -0.9874999999999954925, -1.493893821528159416, 0.3750000000000000555 ) ) ;
#596 = MECHANICAL_DESIGN_GEOMETRIC_PRESENTATION_REPRESENTATION (  '', ( #283 ), #454 ) ;
#597 = EDGE_CURVE ( 'NONE', #487, #640, #524, .T. ) ;
#598 = VECTOR ( 'NONE', #503, 39.37007874015748143 ) ;
#599 = PLANE ( 'NONE',  #428 ) ;
#600 = CARTESIAN_POINT ( 'NONE',  ( -0.9874999999999954925, -1.493893821528159416, -0.3750000000000000555 ) ) ;
#601 = VERTEX_POINT ( 'NONE', #588 ) ;
#602 = DIRECTION ( 'NONE',  ( 0.000000000000000000, 0.000000000000000000, 1.000000000000000000 ) ) ;
#603 = CARTESIAN_POINT ( 'NONE',  ( 0.1732283464566929665, -2.450000000000000178, 4.799999999999999822 ) ) ;
#604 = CARTESIAN_POINT ( 'NONE',  ( -0.9360236220472430979, -2.637499999999999734, 4.424999999999999822 ) ) ;
#605 = EDGE_CURVE ( 'NONE', #139, #550, #27, .T. ) ;
#606 = DIRECTION ( 'NONE',  ( 1.000000000000000000, 0.000000000000000000, 0.000000000000000000 ) ) ;
#607 = EDGE_CURVE ( 'NONE', #180, #144, #731, .T. ) ;
#608 = DIRECTION ( 'NONE',  ( 1.000000000000000000, 0.000000000000000000, 0.000000000000000000 ) ) ;
#609 = ORIENTED_EDGE ( 'NONE', *, *, #343, .F. ) ;
#610 = DIRECTION ( 'NONE',  ( -0.000000000000000000, -0.000000000000000000, -1.000000000000000000 ) ) ;
#611 = CARTESIAN_POINT ( 'NONE',  ( -1.249999999999997780, -2.450000000000000178, 4.799999999999999822 ) ) ;
#612 = CIRCLE ( 'NONE', #236, 0.1023622047244095168 ) ;
#613 = CIRCLE ( 'NONE', #832, 0.1023622047244095168 ) ;
#614 = CARTESIAN_POINT ( 'NONE',  ( 0.000000000000000000, -2.637499999999999734, 4.424999999999999822 ) ) ;
#615 = ORIENTED_EDGE ( 'NONE', *, *, #798, .T. ) ;
#616 = DIRECTION ( 'NONE',  ( 0.000000000000000000, 0.000000000000000000, 1.000000000000000000 ) ) ;
#617 = FACE_OUTER_BOUND ( 'NONE', #305, .T. ) ;
#618 = ORIENTED_EDGE ( 'NONE', *, *, #149, .F. ) ;
#619 = DIRECTION ( 'NONE',  ( -1.000000000000000000, 0.000000000000000000, 0.000000000000000000 ) ) ;
#620 = LINE ( 'NONE', #915, #327 ) ;
#621 = DIRECTION ( 'NONE',  ( -0.000000000000000000, -0.000000000000000000, -1.000000000000000000 ) ) ;
#622 = ORIENTED_EDGE ( 'NONE', *, *, #347, .F. ) ;
#623 = EDGE_CURVE ( 'NONE', #56, #827, #871, .T. ) ;
#624 = LINE ( 'NONE', #203, #299 ) ;
#625 = ADVANCED_FACE ( 'NONE', ( #22 ), #800, .T. ) ;
#626 = EDGE_LOOP ( 'NONE', ( #412, #173, #609, #218 ) ) ;
#627 = VECTOR ( 'NONE', #418, 39.37007874015748143 ) ;
#628 = CARTESIAN_POINT ( 'NONE',  ( -1.211139990668900435, -2.319280585407216044, 0.3759353385285625349 ) ) ;
#629 = ORIENTED_EDGE ( 'NONE', *, *, #605, .F. ) ;
#630 = VECTOR ( 'NONE', #95, 39.37007874015748143 ) ;
#631 = DIRECTION ( 'NONE',  ( -0.000000000000000000, -0.000000000000000000, 1.000000000000000000 ) ) ;
#632 =( GEOMETRIC_REPRESENTATION_CONTEXT ( 3 ) GLOBAL_UNCERTAINTY_ASSIGNED_CONTEXT ( ( #10 ) ) GLOBAL_UNIT_ASSIGNED_CONTEXT ( ( #58, #336, #680 ) ) REPRESENTATION_CONTEXT ( 'NONE', 'WORKASPACE' ) );
#633 = CARTESIAN_POINT ( 'NONE',  ( 0.2952755905511810774, -2.450000000000000178, 4.799999999999999822 ) ) ;
#634 = ORIENTED_EDGE ( 'NONE', *, *, #6, .F. ) ;
#635 = DIRECTION ( 'NONE',  ( -0.000000000000000000, 1.000000000000000000, -0.000000000000000000 ) ) ;
#636 = CYLINDRICAL_SURFACE ( 'NONE', #474, 0.1499999999999999667 ) ;
#637 = CARTESIAN_POINT ( 'NONE',  ( 0.000000000000000000, 0.000000000000000000, 4.799999999999999822 ) ) ;
#638 = CARTESIAN_POINT ( 'NONE',  ( -1.205491574206463801, -2.300000000000000266, 0.3750000000000000555 ) ) ;
#639 = CARTESIAN_POINT ( 'NONE',  ( -0.7063481433440627066, -1.519755836492872936, 0.3750000000000000555 ) ) ;
#640 = VERTEX_POINT ( 'NONE', #600 ) ;
#641 = DIRECTION ( 'NONE',  ( 0.000000000000000000, 0.000000000000000000, 1.000000000000000000 ) ) ;
#642 = VECTOR ( 'NONE', #201, 39.37007874015748143 ) ;
#643 = AXIS2_PLACEMENT_3D ( 'NONE', #566, #302, #920 ) ;
#644 = CARTESIAN_POINT ( 'NONE',  ( 1.205491574206463801, -2.299999999999999822, 0.3750000000000000555 ) ) ;
#645 = ORIENTED_EDGE ( 'NONE', *, *, #880, .F. ) ;
#646 = CARTESIAN_POINT ( 'NONE',  ( -0.7063481433440627066, -1.519755836492872936, -0.3750000000000000555 ) ) ;
#647 = ORIENTED_EDGE ( 'NONE', *, *, #582, .T. ) ;
#648 = CARTESIAN_POINT ( 'NONE',  ( 0.4173228346456693827, -2.825000000000000178, 4.799999999999999822 ) ) ;
#649 = EDGE_CURVE ( 'NONE', #141, #691, #444, .T. ) ;
#650 = ORIENTED_EDGE ( 'NONE', *, *, #19, .T. ) ;
#651 = CARTESIAN_POINT ( 'NONE',  ( 0.2952755905511810774, -2.825000000000000178, 4.799999999999999822 ) ) ;
#652 = ORIENTED_EDGE ( 'NONE', *, *, #439, .T. ) ;
#653 = DIRECTION ( 'NONE',  ( -0.000000000000000000, 0.000000000000000000, 1.000000000000000000 ) ) ;
#654 = DIRECTION ( 'NONE',  ( 0.000000000000000000, 0.000000000000000000, 1.000000000000000000 ) ) ;
#655 = CARTESIAN_POINT ( 'NONE',  ( 0.7063481433427171163, -1.519755836493957846, 0.3750000000000000555 ) ) ;
#656 = AXIS2_PLACEMENT_3D ( 'NONE', #62, #865, #228 ) ;
#657 = DIRECTION ( 'NONE',  ( -0.000000000000000000, -0.000000000000000000, -1.000000000000000000 ) ) ;
#658 = ADVANCED_FACE ( 'NONE', ( #745 ), #106, .F. ) ;
#659 = CARTESIAN_POINT ( 'NONE',  ( 0.8625000000000059286, -1.493893821528150534, 0.3750000000000000555 ) ) ;
#660 = DIRECTION ( 'NONE',  ( 0.000000000000000000, 0.000000000000000000, 1.000000000000000000 ) ) ;
#661 = EDGE_CURVE ( 'NONE', #674, #573, #517, .T. ) ;
#662 = CARTESIAN_POINT ( 'NONE',  ( 0.8625000000000059286, -1.493893821528150534, -0.3750000000000000555 ) ) ;
#663 = CARTESIAN_POINT ( 'NONE',  ( 1.219435514204660453, -2.347457141127338609, 0.3823740956434933946 ) ) ;
#664 = ORIENTED_EDGE ( 'NONE', *, *, #582, .F. ) ;
#665 = FACE_OUTER_BOUND ( 'NONE', #458, .T. ) ;
#666 = DIRECTION ( 'NONE',  ( -0.000000000000000000, -0.000000000000000000, -1.000000000000000000 ) ) ;
#667 = AXIS2_PLACEMENT_3D ( 'NONE', #318, #795, #153 ) ;
#668 = AXIS2_PLACEMENT_3D ( 'NONE', #382, #450, #317 ) ;
#669 = DIRECTION ( 'NONE',  ( -1.000000000000000000, 0.000000000000000000, 0.000000000000000000 ) ) ;
#670 = DIRECTION ( 'NONE',  ( 1.000000000000000000, 0.000000000000000000, 0.000000000000000000 ) ) ;
#671 = FACE_OUTER_BOUND ( 'NONE', #708, .T. ) ;
#672 = EDGE_CURVE ( 'NONE', #402, #74, #163, .T. ) ;
#673 = CARTESIAN_POINT ( 'NONE',  ( 0.000000000000000000, -2.637499999999999734, 4.424999999999999822 ) ) ;
#674 = VERTEX_POINT ( 'NONE', #15 ) ;
#675 = CARTESIAN_POINT ( 'NONE',  ( -0.7312992125984240088, -2.637499999999999734, 4.424999999999999822 ) ) ;
#676 = CARTESIAN_POINT ( 'NONE',  ( 0.6435896277442034741, -1.441901043964074702, -0.3750000000000000555 ) ) ;
#677 = CARTESIAN_POINT ( 'NONE',  ( 0.3983398347018919927, -1.768040413651840614, 0.3750000000000000555 ) ) ;
#678 = ORIENTED_EDGE ( 'NONE', *, *, #275, .T. ) ;
#679 = ORIENTED_EDGE ( 'NONE', *, *, #93, .F. ) ;
#680 =( NAMED_UNIT ( * ) SI_UNIT ( $, .STERADIAN. ) SOLID_ANGLE_UNIT ( ) );
#681 = DIRECTION ( 'NONE',  ( -0.000000000000000000, 0.000000000000000000, 1.000000000000000000 ) ) ;
#682 = CIRCLE ( 'NONE', #875, 0.1023622047244095168 ) ;
#683 = VECTOR ( 'NONE', #312, 39.37007874015748143 ) ;
#684 = DIRECTION ( 'NONE',  ( 1.000000000000000000, 0.000000000000000000, 0.000000000000000000 ) ) ;
#685 = ORIENTED_EDGE ( 'NONE', *, *, #607, .F. ) ;
#686 = CARTESIAN_POINT ( 'NONE',  ( -0.3983398347018837216, -1.768040413651841058, -0.3749999999999996114 ) ) ;
#687 = CARTESIAN_POINT ( 'NONE',  ( -0.8624999999999954925, -1.493893821528159194, 0.3750000000000000555 ) ) ;
#688 = EDGE_CURVE ( 'NONE', #835, #339, #308, .T. ) ;
#689 = ORIENTED_EDGE ( 'NONE', *, *, #829, .F. ) ;
#690 = CARTESIAN_POINT ( 'NONE',  ( 0.4173228346456693827, -2.450000000000000178, 4.799999999999999822 ) ) ;
#691 = VERTEX_POINT ( 'NONE', #734 ) ;
#692 = DIRECTION ( 'NONE',  ( -0.000000000000000000, -0.000000000000000000, 1.000000000000000000 ) ) ;
#693 = CARTESIAN_POINT ( 'NONE',  ( 0.6435896277442034741, -1.441901043964074702, 1.365923996832131609E-16 ) ) ;
#694 = ORIENTED_EDGE ( 'NONE', *, *, #661, .F. ) ;
#695 = ADVANCED_FACE ( 'NONE', ( #105 ), #599, .T. ) ;
#696 = CARTESIAN_POINT ( 'NONE',  ( -1.205491574206463801, -2.300000000000000266, 0.3750000000000000555 ) ) ;
#697 = ORIENTED_EDGE ( 'NONE', *, *, #159, .F. ) ;
#698 = DIRECTION ( 'NONE',  ( 1.000000000000000000, 0.000000000000000000, 0.000000000000000000 ) ) ;
#699 = CARTESIAN_POINT ( 'NONE',  ( -1.249999999999997780, -2.450000000000000178, 0.5304000000000016479 ) ) ;
#700 = ORIENTED_EDGE ( 'NONE', *, *, #123, .F. ) ;
#701 = VECTOR ( 'NONE', #137, 39.37007874015748143 ) ;
#702 = DIRECTION ( 'NONE',  ( -0.000000000000000000, 1.000000000000000000, -0.000000000000000000 ) ) ;
#703 = CIRCLE ( 'NONE', #130, 0.1023622047244095168 ) ;
#704 = EDGE_CURVE ( 'NONE', #579, #321, #887, .T. ) ;
#705 = FACE_OUTER_BOUND ( 'NONE', #172, .T. ) ;
#706 = ORIENTED_EDGE ( 'NONE', *, *, #145, .T. ) ;
#707 = CARTESIAN_POINT ( 'NONE',  ( -1.238602641019054706, -2.411993377790668802, 0.4247321280594633652 ) ) ;
#708 = EDGE_LOOP ( 'NONE', ( #927, #634, #664, #918, #200, #341, #645, #534, #120, #423, #50 ) ) ;
#709 = UNCERTAINTY_MEASURE_WITH_UNIT (LENGTH_MEASURE( 1.000000000000000082E-05 ), #161, 'distance_accuracy_value', 'NONE');
#710 = CARTESIAN_POINT ( 'NONE',  ( 1.249999999999997780, -2.450000000000000178, -0.3749999999999995004 ) ) ;
#711 = EDGE_LOOP ( 'NONE', ( #679, #700 ) ) ;
#712 = DIRECTION ( 'NONE',  ( 0.000000000000000000, 1.000000000000000000, -0.000000000000000000 ) ) ;
#713 = VERTEX_POINT ( 'NONE', #381 ) ;
#714 = CARTESIAN_POINT ( 'NONE',  ( 0.9360236220472430979, -2.637499999999999734, 4.424999999999999822 ) ) ;
#715 = ORIENTED_EDGE ( 'NONE', *, *, #491, .T. ) ;
#716 = CARTESIAN_POINT ( 'NONE',  ( -1.249999999999997780, -2.825000000000000178, 4.799999999999999822 ) ) ;
#717 = ORIENTED_EDGE ( 'NONE', *, *, #205, .F. ) ;
#718 = AXIS2_PLACEMENT_3D ( 'NONE', #614, #545, #320 ) ;
#719 = AXIS2_PLACEMENT_3D ( 'NONE', #380, #660, #239 ) ;
#720 = DIRECTION ( 'NONE',  ( -0.000000000000000000, -0.000000000000000000, -1.000000000000000000 ) ) ;
#721 = ORIENTED_EDGE ( 'NONE', *, *, #314, .F. ) ;
#722 = CARTESIAN_POINT ( 'NONE',  ( 0.000000000000000000, 0.000000000000000000, 4.799999999999999822 ) ) ;
#723 = ADVANCED_FACE ( 'NONE', ( #89 ), #31, .F. ) ;
#724 = CARTESIAN_POINT ( 'NONE',  ( -0.6435896277441893742, -1.441901043964082474, -0.3750000000000000555 ) ) ;
#725 = VERTEX_POINT ( 'NONE', #240 ) ;
#726 = CARTESIAN_POINT ( 'NONE',  ( -0.1732283464566928277, -2.825000000000000178, 4.799999999999999822 ) ) ;
#727 = AXIS2_PLACEMENT_3D ( 'NONE', #651, #13, #75 ) ;
#728 = CARTESIAN_POINT ( 'NONE',  ( -0.8336614173228334979, -2.637499999999999734, 4.424999999999999822 ) ) ;
#729 = AXIS2_PLACEMENT_3D ( 'NONE', #693, #401, #117 ) ;
#730 = ADVANCED_FACE ( 'NONE', ( #509 ), #379, .T. ) ;
#731 = LINE ( 'NONE', #876, #630 ) ;
#732 = ORIENTED_EDGE ( 'NONE', *, *, #429, .F. ) ;
#733 = CARTESIAN_POINT ( 'NONE',  ( -0.7063481433440627066, -1.519755836492872936, 0.3750000000000000555 ) ) ;
#734 = CARTESIAN_POINT ( 'NONE',  ( 0.7408831265245618969, -1.465008945103664306, -0.3750000000000000555 ) ) ;
#735 = ORIENTED_EDGE ( 'NONE', *, *, #688, .T. ) ;
#736 = CARTESIAN_POINT ( 'NONE',  ( -1.205491574206463801, -2.300000000000000266, 0.3750000000000000555 ) ) ;
#737 = PLANE ( 'NONE',  #668 ) ;
#738 = DIRECTION ( 'NONE',  ( 1.000000000000000000, 0.000000000000000000, 0.000000000000000000 ) ) ;
#739 = DIRECTION ( 'NONE',  ( -0.000000000000000000, -0.000000000000000000, 1.000000000000000000 ) ) ;
#740 = CIRCLE ( 'NONE', #251, 0.1220472440944884163 ) ;
#741 = VECTOR ( 'NONE', #446, 39.37007874015748143 ) ;
#742 = CYLINDRICAL_SURFACE ( 'NONE', #718, 0.1023622047244095168 ) ;
#743 = EDGE_LOOP ( 'NONE', ( #615, #862 ) ) ;
#744 = FACE_OUTER_BOUND ( 'NONE', #189, .T. ) ;
#745 = FACE_OUTER_BOUND ( 'NONE', #482, .T. ) ;
#746 = SURFACE_SIDE_STYLE ('',( #79 ) ) ;
#747 = DIRECTION ( 'NONE',  ( 0.000000000000000000, 0.000000000000000000, 1.000000000000000000 ) ) ;
#748 = ORIENTED_EDGE ( 'NONE', *, *, #561, .F. ) ;
#749 = DIRECTION ( 'NONE',  ( -0.000000000000000000, 1.000000000000000000, -0.000000000000000000 ) ) ;
#750 = EDGE_CURVE ( 'NONE', #367, #691, #11, .T. ) ;
#751 = CARTESIAN_POINT ( 'NONE',  ( 0.2952755905511810774, -2.825000000000000178, 4.799999999999999822 ) ) ;
#752 = ORIENTED_EDGE ( 'NONE', *, *, #333, .T. ) ;
#753 = APPLICATION_CONTEXT ( 'automotive_design' ) ;
#754 = CARTESIAN_POINT ( 'NONE',  ( -1.249999999999997780, -2.450000000000000178, 4.799999999999999822 ) ) ;
#755 = B_SPLINE_SURFACE_WITH_KNOTS ( 'NONE', 2, 1, ( 
 ( #544, #198 ),
 ( #830, #263 ),
 ( #699, #345 ) ),
 .UNSPECIFIED., .F., .F., .F.,
 ( 3, 3 ),
 ( 2, 2 ),
 ( 0.000000000000000000, 1.000000000000000000 ),
 ( 0.000000000000000000, 1.000000000000000000 ),
 .UNSPECIFIED. ) ;
#756 = EDGE_CURVE ( 'NONE', #182, #118, #169, .T. ) ;
#757 = CARTESIAN_POINT ( 'NONE',  ( 0.8336614173228334979, -2.637499999999999734, 4.424999999999999822 ) ) ;
#758 = ORIENTED_EDGE ( 'NONE', *, *, #672, .T. ) ;
#759 = CARTESIAN_POINT ( 'NONE',  ( 0.9360236220472430979, -2.637499999999999734, 4.424999999999999822 ) ) ;
#760 = CARTESIAN_POINT ( 'NONE',  ( 0.7408831265245618969, -1.465008945103664306, 0.3750000000000000555 ) ) ;
#761 = ORIENTED_EDGE ( 'NONE', *, *, #385, .T. ) ;
#762 = DIMENSIONAL_EXPONENTS ( 1.000000000000000000, 0.000000000000000000, 0.000000000000000000, 0.000000000000000000, 0.000000000000000000, 0.000000000000000000, 0.000000000000000000 ) ;
#763 = PLANE ( 'NONE',  #516 ) ;
#764 = PLANE ( 'NONE',  #286 ) ;
#765 = DIRECTION ( 'NONE',  ( 0.000000000000000000, 1.000000000000000000, 0.000000000000000000 ) ) ;
#766 = CARTESIAN_POINT ( 'NONE',  ( 0.000000000000000000, -2.637499999999999734, 4.799999999999999822 ) ) ;
#767 = VERTEX_POINT ( 'NONE', #445 ) ;
#768 = CYLINDRICAL_SURFACE ( 'NONE', #834, 0.1023622047244095168 ) ;
#769 = DIRECTION ( 'NONE',  ( 1.000000000000000000, 0.000000000000000000, 0.000000000000000000 ) ) ;
#770 = AXIS2_PLACEMENT_3D ( 'NONE', #766, #562, #411 ) ;
#771 = EDGE_LOOP ( 'NONE', ( #225, #273 ) ) ;
#772 = AXIS2_PLACEMENT_3D ( 'NONE', #249, #818, #463 ) ;
#773 = CARTESIAN_POINT ( 'NONE',  ( 1.205491574206463801, -2.299999999999999822, 0.3750000000000000555 ) ) ;
#774 = ORIENTED_EDGE ( 'NONE', *, *, #880, .T. ) ;
#775 = VECTOR ( 'NONE', #874, 39.37007874015748143 ) ;
#776 = PRODUCT_DEFINITION_FORMATION_WITH_SPECIFIED_SOURCE ( 'ANY', '', #510, .NOT_KNOWN. ) ;
#777 = FACE_BOUND ( 'NONE', #711, .T. ) ;
#778 = ORIENTED_EDGE ( 'NONE', *, *, #829, .T. ) ;
#779 = DIRECTION ( 'NONE',  ( 0.000000000000000000, 0.000000000000000000, 1.000000000000000000 ) ) ;
#780 = CARTESIAN_POINT ( 'NONE',  ( 0.9874999999999954925, -1.493893821528159416, 0.5304000000000016479 ) ) ;
#781 = ORIENTED_EDGE ( 'NONE', *, *, #133, .T. ) ;
#782 = LINE ( 'NONE', #716, #701 ) ;
#783 = ORIENTED_EDGE ( 'NONE', *, *, #821, .T. ) ;
#784 = ADVANCED_FACE ( 'NONE', ( #665 ), #442, .F. ) ;
#785 = PLANE ( 'NONE',  #905 ) ;
#786 = ORIENTED_EDGE ( 'NONE', *, *, #195, .T. ) ;
#787 = CARTESIAN_POINT ( 'NONE',  ( -1.248489463391944998, -2.444978024092387958, 0.4852130346568975239 ) ) ;
#788 = ORIENTED_EDGE ( 'NONE', *, *, #193, .F. ) ;
#789 = CIRCLE ( 'NONE', #37, 0.1250000000000000278 ) ;
#790 = EDGE_CURVE ( 'NONE', #498, #351, #253, .T. ) ;
#791 = CIRCLE ( 'NONE', #285, 0.1000000000000000194 ) ;
#792 = AXIS2_PLACEMENT_3D ( 'NONE', #20, #590, #527 ) ;
#793 = LINE ( 'NONE', #73, #400 ) ;
#794 = ORIENTED_EDGE ( 'NONE', *, *, #372, .F. ) ;
#795 = DIRECTION ( 'NONE',  ( 0.000000000000000000, 0.000000000000000000, 1.000000000000000000 ) ) ;
#796 = FACE_OUTER_BOUND ( 'NONE', #80, .T. ) ;
#797 = PRESENTATION_STYLE_ASSIGNMENT (( #370 ) ) ;
#798 = EDGE_CURVE ( 'NONE', #579, #56, #375, .T. ) ;
#799 = DIRECTION ( 'NONE',  ( -0.000000000000000000, -0.000000000000000000, -1.000000000000000000 ) ) ;
#800 = PLANE ( 'NONE',  #226 ) ;
#801 = PLANE ( 'NONE',  #143 ) ;
#802 = LINE ( 'NONE', #805, #100 ) ;
#803 = VECTOR ( 'NONE', #39, 39.37007874015748143 ) ;
#804 = CARTESIAN_POINT ( 'NONE',  ( -1.112922129273042460, -1.973512047091519506, 0.3750000000000000555 ) ) ;
#805 = CARTESIAN_POINT ( 'NONE',  ( -1.249999999999997780, -2.825000000000000178, 4.799999999999999822 ) ) ;
#806 = CARTESIAN_POINT ( 'NONE',  ( -1.249999999999997780, -2.450000000000000178, 4.799999999999999822 ) ) ;
#807 = EDGE_CURVE ( 'NONE', #326, #550, #337, .T. ) ;
#808 = CARTESIAN_POINT ( 'NONE',  ( -0.6435896277441893742, -1.441901043964082474, 1.365923996832110162E-16 ) ) ;
#809 = CARTESIAN_POINT ( 'NONE',  ( -1.249999999999997780, -2.450000000000000178, -0.3750000000000000555 ) ) ;
#810 = VERTEX_POINT ( 'NONE', #594 ) ;
#811 = CARTESIAN_POINT ( 'NONE',  ( -1.249999999999997780, -2.825000000000000178, 0.3750000000000000555 ) ) ;
#812 = CARTESIAN_POINT ( 'NONE',  ( 0.000000000000000000, -1.800000000000000266, -0.3750000000000000555 ) ) ;
#813 = CARTESIAN_POINT ( 'NONE',  ( -0.4173228346456693827, -2.825000000000000178, 4.799999999999999822 ) ) ;
#814 = AXIS2_PLACEMENT_3D ( 'NONE', #115, #111, #335 ) ;
#815 = LINE ( 'NONE', #179, #564 ) ;
#816 = CIRCLE ( 'NONE', #656, 0.1023622047244095168 ) ;
#817 = ORIENTED_EDGE ( 'NONE', *, *, #597, .F. ) ;
#818 = DIRECTION ( 'NONE',  ( 0.000000000000000000, 0.000000000000000000, 1.000000000000000000 ) ) ;
#819 = ORIENTED_EDGE ( 'NONE', *, *, #437, .F. ) ;
#820 = FILL_AREA_STYLE_COLOUR ( '', #54 ) ;
#821 = EDGE_CURVE ( 'NONE', #321, #827, #378, .T. ) ;
#822 = ORIENTED_EDGE ( 'NONE', *, *, #123, .T. ) ;
#823 = ORIENTED_EDGE ( 'NONE', *, *, #275, .F. ) ;
#824 = ORIENTED_EDGE ( 'NONE', *, *, #561, .T. ) ;
#825 = DIRECTION ( 'NONE',  ( 1.000000000000000000, 0.000000000000000000, 0.000000000000000000 ) ) ;
#826 = LINE ( 'NONE', #51, #831 ) ;
#827 = VERTEX_POINT ( 'NONE', #316 ) ;
#828 = CARTESIAN_POINT ( 'NONE',  ( 0.000000000000000000, -1.800000000000000266, -0.3749999999999996114 ) ) ;
#829 = EDGE_CURVE ( 'NONE', #674, #16, #870, .T. ) ;
#830 = CARTESIAN_POINT ( 'NONE',  ( -1.107094258546088117, -1.975077183418958882, 0.5304000000000016479 ) ) ;
#831 = VECTOR ( 'NONE', #702, 39.37007874015748143 ) ;
#832 = AXIS2_PLACEMENT_3D ( 'NONE', #334, #110, #338 ) ;
#833 = ORIENTED_EDGE ( 'NONE', *, *, #623, .T. ) ;
#834 = AXIS2_PLACEMENT_3D ( 'NONE', #539, #631, #698 ) ;
#835 = VERTEX_POINT ( 'NONE', #603 ) ;
#836 = ORIENTED_EDGE ( 'NONE', *, *, #750, .T. ) ;
#837 = DIRECTION ( 'NONE',  ( 1.000000000000000000, 0.000000000000000000, -0.000000000000000000 ) ) ;
#838 = DIMENSIONAL_EXPONENTS ( 1.000000000000000000, 0.000000000000000000, 0.000000000000000000, 0.000000000000000000, 0.000000000000000000, 0.000000000000000000, 0.000000000000000000 ) ;
#839 = PLANE ( 'NONE',  #891 ) ;
#840 = EDGE_CURVE ( 'NONE', #538, #541, #802, .T. ) ;
#841 = ORIENTED_EDGE ( 'NONE', *, *, #790, .F. ) ;
#842 = CARTESIAN_POINT ( 'NONE',  ( 0.7063481433440740309, -1.519755836492864276, 0.3750000000000001665 ) ) ;
#843 = ORIENTED_EDGE ( 'NONE', *, *, #567, .F. ) ;
#844 = LINE ( 'NONE', #759, #178 ) ;
#845 = CARTESIAN_POINT ( 'NONE',  ( 0.7063481433440756962, -1.519755836492862278, -0.3750000000000000555 ) ) ;
#846 = PRODUCT_DEFINITION ( 'UNKNOWN', '', #776, #543 ) ;
#847 = VERTEX_POINT ( 'NONE', #514 ) ;
#848 = CARTESIAN_POINT ( 'NONE',  ( -1.249999999999998224, -2.450000000000000622, 0.5150102456459565436 ) ) ;
#849 = ORIENTED_EDGE ( 'NONE', *, *, #242, .T. ) ;
#850 = CARTESIAN_POINT ( 'NONE',  ( 0.000000000000000000, -1.800000000000000266, -0.3750000000000000555 ) ) ;
#851 = VECTOR ( 'NONE', #529, 39.37007874015748143 ) ;
#852 = ORIENTED_EDGE ( 'NONE', *, *, #23, .F. ) ;
#853 = CYLINDRICAL_SURFACE ( 'NONE', #224, 0.1220472440944884163 ) ;
#854 = ORIENTED_EDGE ( 'NONE', *, *, #368, .F. ) ;
#855 = CARTESIAN_POINT ( 'NONE',  ( 1.249999999999997780, -2.450000000000000178, 0.5250000000000016875 ) ) ;
#856 = EDGE_CURVE ( 'NONE', #487, #182, #43, .T. ) ;
#857 = ORIENTED_EDGE ( 'NONE', *, *, #247, .T. ) ;
#858 = CARTESIAN_POINT ( 'NONE',  ( -1.224756818068919229, -2.365453456313703740, 0.3896849088457555177 ) ) ;
#859 = CARTESIAN_POINT ( 'NONE',  ( 0.000000000000000000, -1.800000000000000266, 0.3750000000000000555 ) ) ;
#860 = VERTEX_POINT ( 'NONE', #244 ) ;
#861 = CARTESIAN_POINT ( 'NONE',  ( -1.107094258546088117, -1.975077183418958882, -0.3750000000000000555 ) ) ;
#862 = ORIENTED_EDGE ( 'NONE', *, *, #91, .T. ) ;
#863 = CARTESIAN_POINT ( 'NONE',  ( 1.243823299435367069, -2.429436437049939279, 0.4485549476438666638 ) ) ;
#864 = ORIENTED_EDGE ( 'NONE', *, *, #333, .F. ) ;
#865 = DIRECTION ( 'NONE',  ( 0.000000000000000000, 0.000000000000000000, 1.000000000000000000 ) ) ;
#866 = B_SPLINE_CURVE_WITH_KNOTS ( 'NONE', 2,
 ( #644, #495, #219 ),
 .UNSPECIFIED., .F., .F.,
 ( 3, 3 ),
 ( 0.1577563639152312902, 1.000000000000000000 ),
 .UNSPECIFIED. ) ;
#867 = LINE ( 'NONE', #611, #298 ) ;
#868 = DIRECTION ( 'NONE',  ( -0.000000000000000000, -0.000000000000000000, 1.000000000000000000 ) ) ;
#869 = VERTEX_POINT ( 'NONE', #94 ) ;
#870 = LINE ( 'NONE', #675, #683 ) ;
#871 = LINE ( 'NONE', #384, #38 ) ;
#872 = EDGE_LOOP ( 'NONE', ( #563, #467, #735, #879 ) ) ;
#873 = AXIS2_PLACEMENT_3D ( 'NONE', #407, #533, #25 ) ;
#874 = DIRECTION ( 'NONE',  ( -0.000000000000000000, -0.000000000000000000, 1.000000000000000000 ) ) ;
#875 = AXIS2_PLACEMENT_3D ( 'NONE', #300, #229, #508 ) ;
#876 = CARTESIAN_POINT ( 'NONE',  ( -1.249999999999997780, -2.450000000000000178, 0.3750000000000000555 ) ) ;
#877 = CARTESIAN_POINT ( 'NONE',  ( 0.1023622047244095168, -2.637499999999999734, 4.424999999999999822 ) ) ;
#878 = CARTESIAN_POINT ( 'NONE',  ( 1.249999999999997780, -2.450000000000000178, 0.3750000000000000555 ) ) ;
#879 = ORIENTED_EDGE ( 'NONE', *, *, #19, .F. ) ;
#880 = EDGE_CURVE ( 'NONE', #447, #139, #257, .T. ) ;
#881 = DIRECTION ( 'NONE',  ( -0.000000000000000000, -0.000000000000000000, 1.000000000000000000 ) ) ;
#882 = CARTESIAN_POINT ( 'NONE',  ( -0.9874999999999954925, -1.493893821528159416, 0.3750000000000000555 ) ) ;
#883 = CARTESIAN_POINT ( 'NONE',  ( 1.208334382874044488, -2.309717300867029088, 0.3750000000000000555 ) ) ;
#884 = CARTESIAN_POINT ( 'NONE',  ( 0.1023622047244095168, -2.637499999999999734, 4.799999999999999822 ) ) ;
#885 = CARTESIAN_POINT ( 'NONE',  ( 1.249999999999997780, -2.825000000000000178, 4.799999999999999822 ) ) ;
#886 = ORIENTED_EDGE ( 'NONE', *, *, #6, .T. ) ;
#887 = LINE ( 'NONE', #877, #775 ) ;
#888 = CIRCLE ( 'NONE', #814, 0.1220472440944884163 ) ;
#889 = AXIS2_PLACEMENT_3D ( 'NONE', #238, #26, #518 ) ;
#890 =( NAMED_UNIT ( * ) SI_UNIT ( $, .STERADIAN. ) SOLID_ANGLE_UNIT ( ) );
#891 = AXIS2_PLACEMENT_3D ( 'NONE', #637, #681, #270 ) ;
#892 = ADVANCED_FACE ( 'NONE', ( #744 ), #319, .F. ) ;
#893 = DIRECTION ( 'NONE',  ( 1.000000000000000000, 0.000000000000000000, 0.000000000000000000 ) ) ;
#894 = ORIENTED_EDGE ( 'NONE', *, *, #152, .T. ) ;
#895 = EDGE_CURVE ( 'NONE', #546, #869, #844, .T. ) ;
#896 = LINE ( 'NONE', #258, #112 ) ;
#897 = CARTESIAN_POINT ( 'NONE',  ( -0.1023622047244095168, -2.637499999999999734, 4.424999999999999822 ) ) ;
#898 = CARTESIAN_POINT ( 'NONE',  ( -0.7063481433440649271, -1.519755836492871381, 0.3750000000000000555 ) ) ;
#899 = CARTESIAN_POINT ( 'NONE',  ( -1.249999999999997780, -2.450000000000000178, 4.799999999999999822 ) ) ;
#900 = CARTESIAN_POINT ( 'NONE',  ( 0.4173228346456693827, -2.825000000000000178, 4.799999999999999822 ) ) ;
#901 = ORIENTED_EDGE ( 'NONE', *, *, #91, .F. ) ;
#902 = CARTESIAN_POINT ( 'NONE',  ( -0.3983398347018837216, -1.768040413651841058, 0.3750000000000000555 ) ) ;
#903 = FACE_OUTER_BOUND ( 'NONE', #355, .T. ) ;
#904 = CIRCLE ( 'NONE', #502, 0.1000000000000000194 ) ;
#905 = AXIS2_PLACEMENT_3D ( 'NONE', #722, #653, #297 ) ;
#906 = ORIENTED_EDGE ( 'NONE', *, *, #2, .F. ) ;
#907 = CARTESIAN_POINT ( 'NONE',  ( -1.249698457418026099, -2.448998156540199034, 0.5049705359889792300 ) ) ;
#908 = ORIENTED_EDGE ( 'NONE', *, *, #451, .T. ) ;
#909 = FACE_OUTER_BOUND ( 'NONE', #425, .T. ) ;
#910 = ADVANCED_FACE ( 'NONE', ( #909 ), #768, .F. ) ;
#911 = CYLINDRICAL_SURFACE ( 'NONE', #472, 0.1250000000000000278 ) ;
#912 = EDGE_LOOP ( 'NONE', ( #164, #296 ) ) ;
#913 = CARTESIAN_POINT ( 'NONE',  ( -1.208334382874044266, -2.309717300867028644, 0.3750000000000000555 ) ) ;
#914 = VERTEX_POINT ( 'NONE', #548 ) ;
#915 = CARTESIAN_POINT ( 'NONE',  ( -1.249999999999997780, -2.450000000000000178, 4.799999999999999822 ) ) ;
#916 = ORIENTED_EDGE ( 'NONE', *, *, #235, .T. ) ;
#917 = DIRECTION ( 'NONE',  ( 0.000000000000000000, 0.000000000000000000, 1.000000000000000000 ) ) ;
#918 = ORIENTED_EDGE ( 'NONE', *, *, #195, .F. ) ;
#919 = ADVANCED_FACE ( 'NONE', ( #413 ), #764, .F. ) ;
#920 = DIRECTION ( 'NONE',  ( 1.000000000000000000, 0.000000000000000000, 0.000000000000000000 ) ) ;
#921 = AXIS2_PLACEMENT_3D ( 'NONE', #40, #747, #330 ) ;
#922 = ORIENTED_EDGE ( 'NONE', *, *, #672, .F. ) ;
#923 = CIRCLE ( 'NONE', #643, 0.1000000000000000194 ) ;
#924 = LINE ( 'NONE', #421, #129 ) ;
#925 = CARTESIAN_POINT ( 'NONE',  ( 1.107094258546088561, -1.975077183418958215, -0.3749999999999995004 ) ) ;
#926 = ADVANCED_FACE ( 'NONE', ( #266 ), #636, .F. ) ;
#927 = ORIENTED_EDGE ( 'NONE', *, *, #222, .F. ) ;
ENDSEC;
END-ISO-10303-21;
