ISO-10303-21;
HEADER;
FILE_DESCRIPTION (( 'STEP AP214' ),
    '1' );
FILE_NAME ('roller_connector_5mm.STEP',
    '2026-06-08T04:01:22',
    ( '' ),
    ( '' ),
    'SwSTEP 2.0',
    'SolidWorks 2025',
    '' );
FILE_SCHEMA (( 'AUTOMOTIVE_DESIGN' ));
ENDSEC;

DATA;
#1 = ORIENTED_EDGE ( 'NONE', *, *, #182, .T. ) ;
#2 = PRODUCT_CONTEXT ( 'NONE', #64, 'mechanical' ) ;
#3 = CIRCLE ( 'NONE', #131, 2.500000000000000000 ) ;
#4 = SHAPE_DEFINITION_REPRESENTATION ( #128, #141 ) ;
#5 = VERTEX_POINT ( 'NONE', #77 ) ;
#6 = CONICAL_SURFACE ( 'NONE', #136, 2.500000000000000000, 0.7853981633974480570 ) ;
#7 = DIRECTION ( 'NONE',  ( 0.000000000000000000, 0.000000000000000000, -1.000000000000000000 ) ) ;
#8 = EDGE_LOOP ( 'NONE', ( #215, #122, #104, #181 ) ) ;
#9 = LINE ( 'NONE', #115, #192 ) ;
#10 = DIRECTION ( 'NONE',  ( 0.000000000000000000, 0.000000000000000000, 1.000000000000000000 ) ) ;
#11 = VECTOR ( 'NONE', #120, 1000.000000000000114 ) ;
#12 = EDGE_CURVE ( 'NONE', #200, #5, #111, .T. ) ;
#13 = EDGE_LOOP ( 'NONE', ( #61, #95, #89, #59 ) ) ;
#14 = CARTESIAN_POINT ( 'NONE',  ( 0.000000000000000000, 14.19999999999999396, 0.000000000000000000 ) ) ;
#15 = DIRECTION ( 'NONE',  ( 0.000000000000000000, -1.000000000000000000, 0.000000000000000000 ) ) ;
#16 = COLOUR_RGB ( '',0.7921568627450980005, 0.8196078431372548767, 0.9333333333333333481 ) ;
#17 = PLANE ( 'NONE',  #65 ) ;
#18 = LINE ( 'NONE', #189, #11 ) ;
#19 = ORIENTED_EDGE ( 'NONE', *, *, #105, .F. ) ;
#20 = AXIS2_PLACEMENT_3D ( 'NONE', #14, #15, #70 ) ;
#21 = PRODUCT ( 'roller_connector_5mm', 'roller_connector_5mm', '', ( #2 ) ) ;
#22 = ORIENTED_EDGE ( 'NONE', *, *, #211, .T. ) ;
#23 = FACE_OUTER_BOUND ( 'NONE', #13, .T. ) ;
#24 = EDGE_CURVE ( 'NONE', #148, #169, #198, .T. ) ;
#25 = CONICAL_SURFACE ( 'NONE', #165, 1.699999999999994849, 0.7853981633974480570 ) ;
#26 = DIRECTION ( 'NONE',  ( -0.000000000000000000, -1.000000000000000000, -0.000000000000000000 ) ) ;
#27 = DIRECTION ( 'NONE',  ( -0.000000000000000000, -1.000000000000000000, -0.000000000000000000 ) ) ;
#28 = DIRECTION ( 'NONE',  ( 0.000000000000000000, 0.000000000000000000, 1.000000000000000000 ) ) ;
#29 = ADVANCED_FACE ( 'NONE', ( #23 ), #25, .T. ) ;
#30 = ORIENTED_EDGE ( 'NONE', *, *, #133, .F. ) ;
#31 = CARTESIAN_POINT ( 'NONE',  ( 0.000000000000000000, 0.8000000000000055955, 0.000000000000000000 ) ) ;
#32 = FACE_OUTER_BOUND ( 'NONE', #8, .T. ) ;
#33 = AXIS2_PLACEMENT_3D ( 'NONE', #74, #159, #87 ) ;
#34 =( LENGTH_UNIT ( ) NAMED_UNIT ( * ) SI_UNIT ( .MILLI., .METRE. ) );
#35 = LINE ( 'NONE', #102, #41 ) ;
#36 = EDGE_CURVE ( 'NONE', #218, #93, #9, .T. ) ;
#37 = ORIENTED_EDGE ( 'NONE', *, *, #24, .T. ) ;
#38 = AXIS2_PLACEMENT_3D ( 'NONE', #44, #80, #58 ) ;
#39 = EDGE_LOOP ( 'NONE', ( #166, #55, #43, #57 ) ) ;
#40 = CARTESIAN_POINT ( 'NONE',  ( 0.000000000000000000, 15.00000000000000000, 0.000000000000000000 ) ) ;
#41 = VECTOR ( 'NONE', #177, 1000.000000000000114 ) ;
#42 = CARTESIAN_POINT ( 'NONE',  ( 0.000000000000000000, 15.00000000000000000, 0.000000000000000000 ) ) ;
#43 = ORIENTED_EDGE ( 'NONE', *, *, #36, .T. ) ;
#44 = CARTESIAN_POINT ( 'NONE',  ( 0.000000000000000000, 15.00000000000000000, 0.000000000000000000 ) ) ;
#45 = SURFACE_SIDE_STYLE ('',( #68 ) ) ;
#46 = DIRECTION ( 'NONE',  ( 0.000000000000000000, 0.000000000000000000, 1.000000000000000000 ) ) ;
#47 =( NAMED_UNIT ( * ) SI_UNIT ( $, .STERADIAN. ) SOLID_ANGLE_UNIT ( ) );
#48 = PRODUCT_DEFINITION_CONTEXT ( 'detailed design', #112, 'design' ) ;
#49 =( NAMED_UNIT ( * ) PLANE_ANGLE_UNIT ( ) SI_UNIT ( $, .RADIAN. ) );
#50 = AXIS2_PLACEMENT_3D ( 'NONE', #145, #187, #28 ) ;
#51 = EDGE_CURVE ( 'NONE', #93, #147, #185, .T. ) ;
#52 = DIRECTION ( 'NONE',  ( 0.000000000000000000, -0.000000000000000000, 1.000000000000000000 ) ) ;
#53 = ORIENTED_EDGE ( 'NONE', *, *, #219, .T. ) ;
#54 = CIRCLE ( 'NONE', #150, 1.699999999999994627 ) ;
#55 = ORIENTED_EDGE ( 'NONE', *, *, #146, .F. ) ;
#56 = VECTOR ( 'NONE', #135, 1000.000000000000000 ) ;
#57 = ORIENTED_EDGE ( 'NONE', *, *, #129, .F. ) ;
#58 = DIRECTION ( 'NONE',  ( 0.000000000000000000, 0.000000000000000000, -1.000000000000000000 ) ) ;
#59 = ORIENTED_EDGE ( 'NONE', *, *, #36, .F. ) ;
#60 = CLOSED_SHELL ( 'NONE', ( #29, #176, #86, #90, #171, #116, #75, #67 ) ) ;
#61 = ORIENTED_EDGE ( 'NONE', *, *, #69, .F. ) ;
#62 = CARTESIAN_POINT ( 'NONE',  ( 0.000000000000000000, 15.00000000000000000, 0.000000000000000000 ) ) ;
#63 = CARTESIAN_POINT ( 'NONE',  ( 3.061616997868383141E-16, 14.19999999999999396, 2.500000000000000000 ) ) ;
#64 = APPLICATION_CONTEXT ( 'automotive_design' ) ;
#65 = AXIS2_PLACEMENT_3D ( 'NONE', #191, #170, #52 ) ;
#66 = CARTESIAN_POINT ( 'NONE',  ( 0.000000000000000000, 0.000000000000000000, 0.000000000000000000 ) ) ;
#67 = ADVANCED_FACE ( 'NONE', ( #214 ), #123, .T. ) ;
#68 = SURFACE_STYLE_FILL_AREA ( #194 ) ;
#69 = EDGE_CURVE ( 'NONE', #106, #218, #158, .T. ) ;
#70 = DIRECTION ( 'NONE',  ( 0.000000000000000000, 0.000000000000000000, 1.000000000000000000 ) ) ;
#71 =( GEOMETRIC_REPRESENTATION_CONTEXT ( 3 ) GLOBAL_UNCERTAINTY_ASSIGNED_CONTEXT ( ( #222 ) ) GLOBAL_UNIT_ASSIGNED_CONTEXT ( ( #144, #210, #179 ) ) REPRESENTATION_CONTEXT ( 'NONE', 'WORKASPACE' ) );
#72 = APPLICATION_PROTOCOL_DEFINITION ( 'draft international standard', 'automotive_design', 1998, #112 ) ;
#73 = APPLICATION_PROTOCOL_DEFINITION ( 'draft international standard', 'automotive_design', 1998, #64 ) ;
#74 = CARTESIAN_POINT ( 'NONE',  ( 0.000000000000000000, 0.000000000000000000, 0.000000000000000000 ) ) ;
#75 = ADVANCED_FACE ( 'NONE', ( #127 ), #6, .T. ) ;
#76 = DIRECTION ( 'NONE',  ( 0.000000000000000000, -0.7071067811865476838, -0.7071067811865473507 ) ) ;
#77 = CARTESIAN_POINT ( 'NONE',  ( 0.000000000000000000, 0.8000000000000055955, -2.500000000000000000 ) ) ;
#78 = DIRECTION ( 'NONE',  ( 0.000000000000000000, 0.000000000000000000, -1.000000000000000000 ) ) ;
#79 = AXIS2_PLACEMENT_3D ( 'NONE', #101, #117, #175 ) ;
#80 = DIRECTION ( 'NONE',  ( 0.000000000000000000, -1.000000000000000000, 0.000000000000000000 ) ) ;
#81 = CARTESIAN_POINT ( 'NONE',  ( 0.000000000000000000, 15.00000000000000000, -1.699999999999994849 ) ) ;
#82 = CARTESIAN_POINT ( 'NONE',  ( 0.000000000000000000, 0.000000000000000000, 1.699999999999994627 ) ) ;
#83 = SURFACE_STYLE_USAGE ( .BOTH. , #45 ) ;
#84 = LINE ( 'NONE', #224, #85 ) ;
#85 = VECTOR ( 'NONE', #121, 1000.000000000000000 ) ;
#86 = ADVANCED_FACE ( 'NONE', ( #126 ), #201, .T. ) ;
#87 = DIRECTION ( 'NONE',  ( 1.000000000000000000, 0.000000000000000000, 0.000000000000000000 ) ) ;
#88 = AXIS2_PLACEMENT_3D ( 'NONE', #40, #26, #184 ) ;
#89 = ORIENTED_EDGE ( 'NONE', *, *, #51, .F. ) ;
#90 = ADVANCED_FACE ( 'NONE', ( #94 ), #202, .T. ) ;
#91 = DIRECTION ( 'NONE',  ( 0.000000000000000000, -1.000000000000000000, 0.000000000000000000 ) ) ;
#92 = AXIS2_PLACEMENT_3D ( 'NONE', #153, #223, #205 ) ;
#93 = VERTEX_POINT ( 'NONE', #149 ) ;
#94 = FACE_OUTER_BOUND ( 'NONE', #196, .T. ) ;
#95 = ORIENTED_EDGE ( 'NONE', *, *, #190, .T. ) ;
#96 = AXIS2_PLACEMENT_3D ( 'NONE', #183, #164, #168 ) ;
#97 = EDGE_LOOP ( 'NONE', ( #30, #160, #22, #151 ) ) ;
#98 = PLANE ( 'NONE',  #162 ) ;
#99 = CARTESIAN_POINT ( 'NONE',  ( 3.061616997868383141E-16, 15.00000000000000000, 2.500000000000000000 ) ) ;
#100 = AXIS2_PLACEMENT_3D ( 'NONE', #42, #27, #78 ) ;
#101 = CARTESIAN_POINT ( 'NONE',  ( 0.000000000000000000, 15.00000000000000000, 0.000000000000000000 ) ) ;
#102 = CARTESIAN_POINT ( 'NONE',  ( 0.000000000000000000, 0.8000000000000055955, 2.500000000000000000 ) ) ;
#103 = CIRCLE ( 'NONE', #79, 1.699999999999994849 ) ;
#104 = ORIENTED_EDGE ( 'NONE', *, *, #12, .F. ) ;
#105 = EDGE_CURVE ( 'NONE', #147, #200, #132, .T. ) ;
#106 = VERTEX_POINT ( 'NONE', #172 ) ;
#107 = PRODUCT_DEFINITION ( 'UNKNOWN', '', #213, #48 ) ;
#108 =( GEOMETRIC_REPRESENTATION_CONTEXT ( 3 ) GLOBAL_UNCERTAINTY_ASSIGNED_CONTEXT ( ( #161 ) ) GLOBAL_UNIT_ASSIGNED_CONTEXT ( ( #34, #49, #47 ) ) REPRESENTATION_CONTEXT ( 'NONE', 'WORKASPACE' ) );
#109 = EDGE_LOOP ( 'NONE', ( #37, #1 ) ) ;
#110 = CARTESIAN_POINT ( 'NONE',  ( 0.000000000000000000, 14.19999999999999396, 0.000000000000000000 ) ) ;
#111 = CIRCLE ( 'NONE', #50, 2.500000000000000000 ) ;
#112 = APPLICATION_CONTEXT ( 'automotive_design' ) ;
#113 = ORIENTED_EDGE ( 'NONE', *, *, #51, .T. ) ;
#114 = EDGE_LOOP ( 'NONE', ( #113, #124, #203, #163 ) ) ;
#115 = CARTESIAN_POINT ( 'NONE',  ( 0.000000000000000000, 15.00000000000000000, -1.699999999999994849 ) ) ;
#116 = ADVANCED_FACE ( 'NONE', ( #118 ), #98, .F. ) ;
#117 = DIRECTION ( 'NONE',  ( 0.000000000000000000, 1.000000000000000000, 0.000000000000000000 ) ) ;
#118 = FACE_OUTER_BOUND ( 'NONE', #109, .T. ) ;
#119 = CARTESIAN_POINT ( 'NONE',  ( 2.571758278209438013E-16, 0.000000000000000000, -1.699999999999994627 ) ) ;
#120 = DIRECTION ( 'NONE',  ( 8.659560562354930393E-17, -0.7071067811865476838, 0.7071067811865473507 ) ) ;
#121 = DIRECTION ( 'NONE',  ( -0.000000000000000000, -1.000000000000000000, -0.000000000000000000 ) ) ;
#122 = ORIENTED_EDGE ( 'NONE', *, *, #133, .T. ) ;
#123 = CONICAL_SURFACE ( 'NONE', #38, 1.699999999999994849, 0.7853981633974480570 ) ;
#124 = ORIENTED_EDGE ( 'NONE', *, *, #105, .T. ) ;
#125 = CIRCLE ( 'NONE', #20, 2.500000000000000000 ) ;
#126 = FACE_OUTER_BOUND ( 'NONE', #114, .T. ) ;
#127 = FACE_OUTER_BOUND ( 'NONE', #97, .T. ) ;
#128 = PRODUCT_DEFINITION_SHAPE ( 'NONE', 'NONE',  #107 ) ;
#129 = EDGE_CURVE ( 'NONE', #147, #93, #125, .T. ) ;
#130 = DIRECTION ( 'NONE',  ( 0.000000000000000000, 0.000000000000000000, 1.000000000000000000 ) ) ;
#131 = AXIS2_PLACEMENT_3D ( 'NONE', #31, #207, #46 ) ;
#132 = LINE ( 'NONE', #99, #56 ) ;
#133 = EDGE_CURVE ( 'NONE', #169, #5, #156, .T. ) ;
#134 = DIRECTION ( 'NONE',  ( 0.000000000000000000, 1.000000000000000000, 0.000000000000000000 ) ) ;
#135 = DIRECTION ( 'NONE',  ( -0.000000000000000000, -1.000000000000000000, -0.000000000000000000 ) ) ;
#136 = AXIS2_PLACEMENT_3D ( 'NONE', #216, #188, #130 ) ;
#137 = DIRECTION ( 'NONE',  ( -0.000000000000000000, -1.000000000000000000, -0.000000000000000000 ) ) ;
#138 = DIRECTION ( 'NONE',  ( 0.000000000000000000, 1.000000000000000000, 0.000000000000000000 ) ) ;
#139 = CARTESIAN_POINT ( 'NONE',  ( 0.000000000000000000, 0.000000000000000000, 0.000000000000000000 ) ) ;
#140 = PRESENTATION_STYLE_ASSIGNMENT (( #83 ) ) ;
#141 = ADVANCED_BREP_SHAPE_REPRESENTATION ( 'roller_connector_5mm', ( #157, #33 ), #71 ) ;
#142 = CONICAL_SURFACE ( 'NONE', #92, 2.500000000000000000, 0.7853981633974480570 ) ;
#143 = ORIENTED_EDGE ( 'NONE', *, *, #206, .T. ) ;
#144 =( LENGTH_UNIT ( ) NAMED_UNIT ( * ) SI_UNIT ( .MILLI., .METRE. ) );
#145 = CARTESIAN_POINT ( 'NONE',  ( 0.000000000000000000, 0.8000000000000055955, 0.000000000000000000 ) ) ;
#146 = EDGE_CURVE ( 'NONE', #218, #106, #103, .T. ) ;
#147 = VERTEX_POINT ( 'NONE', #63 ) ;
#148 = VERTEX_POINT ( 'NONE', #82 ) ;
#149 = CARTESIAN_POINT ( 'NONE',  ( 0.000000000000000000, 14.19999999999999396, -2.500000000000000000 ) ) ;
#150 = AXIS2_PLACEMENT_3D ( 'NONE', #66, #137, #152 ) ;
#151 = ORIENTED_EDGE ( 'NONE', *, *, #219, .F. ) ;
#152 = DIRECTION ( 'NONE',  ( 0.000000000000000000, 0.000000000000000000, 1.000000000000000000 ) ) ;
#153 = CARTESIAN_POINT ( 'NONE',  ( 0.000000000000000000, 0.8000000000000055955, 0.000000000000000000 ) ) ;
#154 = VECTOR ( 'NONE', #174, 1000.000000000000114 ) ;
#155 = FILL_AREA_STYLE_COLOUR ( '', #16 ) ;
#156 = LINE ( 'NONE', #208, #154 ) ;
#157 = MANIFOLD_SOLID_BREP ( 'Chamfer1', #60 ) ;
#158 = CIRCLE ( 'NONE', #212, 1.699999999999994849 ) ;
#159 = DIRECTION ( 'NONE',  ( 0.000000000000000000, 0.000000000000000000, 1.000000000000000000 ) ) ;
#160 = ORIENTED_EDGE ( 'NONE', *, *, #24, .F. ) ;
#161 = UNCERTAINTY_MEASURE_WITH_UNIT (LENGTH_MEASURE( 1.000000000000000082E-05 ), #34, 'distance_accuracy_value', 'NONE');
#162 = AXIS2_PLACEMENT_3D ( 'NONE', #139, #138, #221 ) ;
#163 = ORIENTED_EDGE ( 'NONE', *, *, #206, .F. ) ;
#164 = DIRECTION ( 'NONE',  ( -0.000000000000000000, -1.000000000000000000, -0.000000000000000000 ) ) ;
#165 = AXIS2_PLACEMENT_3D ( 'NONE', #186, #91, #7 ) ;
#166 = ORIENTED_EDGE ( 'NONE', *, *, #190, .F. ) ;
#167 = ORIENTED_EDGE ( 'NONE', *, *, #129, .T. ) ;
#168 = DIRECTION ( 'NONE',  ( 0.000000000000000000, 0.000000000000000000, 1.000000000000000000 ) ) ;
#169 = VERTEX_POINT ( 'NONE', #119 ) ;
#170 = DIRECTION ( 'NONE',  ( 0.000000000000000000, 1.000000000000000000, 0.000000000000000000 ) ) ;
#171 = ADVANCED_FACE ( 'NONE', ( #220 ), #17, .T. ) ;
#172 = CARTESIAN_POINT ( 'NONE',  ( 2.571758278209438506E-16, 15.00000000000000000, 1.699999999999994849 ) ) ;
#173 = STYLED_ITEM ( 'NONE', ( #140 ), #157 ) ;
#174 = DIRECTION ( 'NONE',  ( 8.659560562354930393E-17, 0.7071067811865476838, -0.7071067811865473507 ) ) ;
#175 = DIRECTION ( 'NONE',  ( 0.000000000000000000, 0.000000000000000000, 1.000000000000000000 ) ) ;
#176 = ADVANCED_FACE ( 'NONE', ( #32 ), #142, .T. ) ;
#177 = DIRECTION ( 'NONE',  ( 0.000000000000000000, 0.7071067811865476838, 0.7071067811865473507 ) ) ;
#178 = ORIENTED_EDGE ( 'NONE', *, *, #146, .T. ) ;
#179 =( NAMED_UNIT ( * ) SI_UNIT ( $, .STERADIAN. ) SOLID_ANGLE_UNIT ( ) );
#180 = PRESENTATION_LAYER_ASSIGNMENT (  '', '', ( #173 ) ) ;
#181 = ORIENTED_EDGE ( 'NONE', *, *, #211, .F. ) ;
#182 = EDGE_CURVE ( 'NONE', #169, #148, #54, .T. ) ;
#183 = CARTESIAN_POINT ( 'NONE',  ( 0.000000000000000000, 0.000000000000000000, 0.000000000000000000 ) ) ;
#184 = DIRECTION ( 'NONE',  ( 0.000000000000000000, 0.000000000000000000, -1.000000000000000000 ) ) ;
#185 = CIRCLE ( 'NONE', #195, 2.500000000000000000 ) ;
#186 = CARTESIAN_POINT ( 'NONE',  ( 0.000000000000000000, 15.00000000000000000, 0.000000000000000000 ) ) ;
#187 = DIRECTION ( 'NONE',  ( -0.000000000000000000, 1.000000000000000000, -0.000000000000000000 ) ) ;
#188 = DIRECTION ( 'NONE',  ( -0.000000000000000000, 1.000000000000000000, -0.000000000000000000 ) ) ;
#189 = CARTESIAN_POINT ( 'NONE',  ( 2.081899558550494117E-16, 15.00000000000000000, 1.699999999999994849 ) ) ;
#190 = EDGE_CURVE ( 'NONE', #106, #147, #18, .T. ) ;
#191 = CARTESIAN_POINT ( 'NONE',  ( 0.000000000000000000, 15.00000000000000000, 0.000000000000000000 ) ) ;
#192 = VECTOR ( 'NONE', #76, 1000.000000000000114 ) ;
#193 = CARTESIAN_POINT ( 'NONE',  ( 3.061616997868383141E-16, 0.8000000000000055955, 2.500000000000000000 ) ) ;
#194 = FILL_AREA_STYLE ('',( #155 ) ) ;
#195 = AXIS2_PLACEMENT_3D ( 'NONE', #110, #217, #10 ) ;
#196 = EDGE_LOOP ( 'NONE', ( #19, #167, #143, #53 ) ) ;
#197 = EDGE_LOOP ( 'NONE', ( #178, #209 ) ) ;
#198 = CIRCLE ( 'NONE', #96, 1.699999999999994627 ) ;
#199 = PRODUCT_RELATED_PRODUCT_CATEGORY ( 'part', '', ( #21 ) ) ;
#200 = VERTEX_POINT ( 'NONE', #193 ) ;
#201 = CYLINDRICAL_SURFACE ( 'NONE', #88, 2.500000000000000000 ) ;
#202 = CYLINDRICAL_SURFACE ( 'NONE', #100, 2.500000000000000000 ) ;
#203 = ORIENTED_EDGE ( 'NONE', *, *, #12, .T. ) ;
#204 = DIRECTION ( 'NONE',  ( 0.000000000000000000, 0.000000000000000000, 1.000000000000000000 ) ) ;
#205 = DIRECTION ( 'NONE',  ( 0.000000000000000000, 0.000000000000000000, 1.000000000000000000 ) ) ;
#206 = EDGE_CURVE ( 'NONE', #93, #5, #84, .T. ) ;
#207 = DIRECTION ( 'NONE',  ( -0.000000000000000000, 1.000000000000000000, -0.000000000000000000 ) ) ;
#208 = CARTESIAN_POINT ( 'NONE',  ( 3.061616997868383141E-16, 0.8000000000000055955, -2.500000000000000000 ) ) ;
#209 = ORIENTED_EDGE ( 'NONE', *, *, #69, .T. ) ;
#210 =( NAMED_UNIT ( * ) PLANE_ANGLE_UNIT ( ) SI_UNIT ( $, .RADIAN. ) );
#211 = EDGE_CURVE ( 'NONE', #148, #200, #35, .T. ) ;
#212 = AXIS2_PLACEMENT_3D ( 'NONE', #62, #134, #204 ) ;
#213 = PRODUCT_DEFINITION_FORMATION_WITH_SPECIFIED_SOURCE ( 'ANY', '', #21, .NOT_KNOWN. ) ;
#214 = FACE_OUTER_BOUND ( 'NONE', #39, .T. ) ;
#215 = ORIENTED_EDGE ( 'NONE', *, *, #182, .F. ) ;
#216 = CARTESIAN_POINT ( 'NONE',  ( 0.000000000000000000, 0.8000000000000055955, 0.000000000000000000 ) ) ;
#217 = DIRECTION ( 'NONE',  ( 0.000000000000000000, -1.000000000000000000, 0.000000000000000000 ) ) ;
#218 = VERTEX_POINT ( 'NONE', #81 ) ;
#219 = EDGE_CURVE ( 'NONE', #5, #200, #3, .T. ) ;
#220 = FACE_OUTER_BOUND ( 'NONE', #197, .T. ) ;
#221 = DIRECTION ( 'NONE',  ( 0.000000000000000000, -0.000000000000000000, 1.000000000000000000 ) ) ;
#222 = UNCERTAINTY_MEASURE_WITH_UNIT (LENGTH_MEASURE( 1.000000000000000082E-05 ), #144, 'distance_accuracy_value', 'NONE');
#223 = DIRECTION ( 'NONE',  ( -0.000000000000000000, 1.000000000000000000, -0.000000000000000000 ) ) ;
#224 = CARTESIAN_POINT ( 'NONE',  ( 0.000000000000000000, 15.00000000000000000, -2.500000000000000000 ) ) ;
#225 = MECHANICAL_DESIGN_GEOMETRIC_PRESENTATION_REPRESENTATION (  '', ( #173 ), #108 ) ;
ENDSEC;
END-ISO-10303-21;
