ISO-10303-21;
HEADER;
FILE_DESCRIPTION (( 'STEP AP214' ),
    '1' );
FILE_NAME ('roller_connector_5.2.STEP',
    '2026-05-29T15:53:53',
    ( '' ),
    ( '' ),
    'SwSTEP 2.0',
    'SolidWorks 2025',
    '' );
FILE_SCHEMA (( 'AUTOMOTIVE_DESIGN' ));
ENDSEC;

DATA;
#1 = CARTESIAN_POINT ( 'NONE',  ( 0.000000000000000000, 0.8000000000000020428, 0.000000000000000000 ) ) ;
#2 = AXIS2_PLACEMENT_3D ( 'NONE', #1, #120, #139 ) ;
#3 = CARTESIAN_POINT ( 'NONE',  ( 0.000000000000000000, 0.8000000000000020428, 0.000000000000000000 ) ) ;
#4 = LINE ( 'NONE', #61, #28 ) ;
#5 = FACE_OUTER_BOUND ( 'NONE', #136, .T. ) ;
#6 = AXIS2_PLACEMENT_3D ( 'NONE', #51, #67, #116 ) ;
#7 = VERTEX_POINT ( 'NONE', #155 ) ;
#8 = ORIENTED_EDGE ( 'NONE', *, *, #57, .T. ) ;
#9 = CARTESIAN_POINT ( 'NONE',  ( 0.000000000000000000, 15.00000000000000000, 0.000000000000000000 ) ) ;
#10 = CIRCLE ( 'NONE', #202, 1.799999999999997824 ) ;
#11 = ORIENTED_EDGE ( 'NONE', *, *, #217, .T. ) ;
#12 = CARTESIAN_POINT ( 'NONE',  ( 0.000000000000000000, 0.000000000000000000, 0.000000000000000000 ) ) ;
#13 = PRODUCT_DEFINITION ( 'UNKNOWN', '', #147, #35 ) ;
#14 = ORIENTED_EDGE ( 'NONE', *, *, #89, .T. ) ;
#15 = ADVANCED_FACE ( 'NONE', ( #65 ), #191, .T. ) ;
#16 = CARTESIAN_POINT ( 'NONE',  ( 0.000000000000000000, 15.00000000000000000, 0.000000000000000000 ) ) ;
#17 = CLOSED_SHELL ( 'NONE', ( #74, #15, #143, #90, #152, #206, #132, #108 ) ) ;
#18 = DIRECTION ( 'NONE',  ( 0.000000000000000000, 1.000000000000000000, 0.000000000000000000 ) ) ;
#19 = CARTESIAN_POINT ( 'NONE',  ( 0.000000000000000000, 15.00000000000000000, -1.799999999999992495 ) ) ;
#20 = COLOUR_RGB ( '',0.7921568627450980005, 0.8196078431372548767, 0.9333333333333333481 ) ;
#21 = CARTESIAN_POINT ( 'NONE',  ( 0.000000000000000000, 0.000000000000000000, 0.000000000000000000 ) ) ;
#22 = FACE_OUTER_BOUND ( 'NONE', #26, .T. ) ;
#23 = EDGE_CURVE ( 'NONE', #148, #164, #141, .T. ) ;
#24 = ORIENTED_EDGE ( 'NONE', *, *, #189, .F. ) ;
#25 = CIRCLE ( 'NONE', #198, 2.600000000000000089 ) ;
#26 = EDGE_LOOP ( 'NONE', ( #149, #53, #98, #118 ) ) ;
#27 = EDGE_CURVE ( 'NONE', #112, #220, #106, .T. ) ;
#28 = VECTOR ( 'NONE', #109, 1000.000000000000000 ) ;
#29 = EDGE_CURVE ( 'NONE', #148, #121, #104, .T. ) ;
#30 = ORIENTED_EDGE ( 'NONE', *, *, #89, .F. ) ;
#31 = APPLICATION_CONTEXT ( 'automotive_design' ) ;
#32 = ORIENTED_EDGE ( 'NONE', *, *, #208, .F. ) ;
#33 = CARTESIAN_POINT ( 'NONE',  ( 3.184081677783118191E-16, 0.8000000000000020428, -2.600000000000000089 ) ) ;
#34 = LINE ( 'NONE', #33, #154 ) ;
#35 = PRODUCT_DEFINITION_CONTEXT ( 'detailed design', #31, 'design' ) ;
#36 = PRESENTATION_LAYER_ASSIGNMENT (  '', '', ( #145 ) ) ;
#37 = VECTOR ( 'NONE', #55, 1000.000000000000000 ) ;
#38 =( LENGTH_UNIT ( ) NAMED_UNIT ( * ) SI_UNIT ( .MILLI., .METRE. ) );
#39 = AXIS2_PLACEMENT_3D ( 'NONE', #190, #88, #163 ) ;
#40 = CARTESIAN_POINT ( 'NONE',  ( 0.000000000000000000, 0.8000000000000020428, -2.600000000000000089 ) ) ;
#41 = ORIENTED_EDGE ( 'NONE', *, *, #189, .T. ) ;
#42 = APPLICATION_PROTOCOL_DEFINITION ( 'draft international standard', 'automotive_design', 1998, #31 ) ;
#43 = VECTOR ( 'NONE', #85, 1000.000000000000000 ) ;
#44 = ORIENTED_EDGE ( 'NONE', *, *, #194, .T. ) ;
#45 = ADVANCED_BREP_SHAPE_REPRESENTATION ( 'roller_connector_5.2', ( #94, #91 ), #72 ) ;
#46 = ORIENTED_EDGE ( 'NONE', *, *, #23, .T. ) ;
#47 = SURFACE_SIDE_STYLE ('',( #81 ) ) ;
#48 = EDGE_CURVE ( 'NONE', #180, #121, #25, .T. ) ;
#49 = EDGE_CURVE ( 'NONE', #121, #180, #165, .T. ) ;
#50 = APPLICATION_CONTEXT ( 'automotive_design' ) ;
#51 = CARTESIAN_POINT ( 'NONE',  ( 0.000000000000000000, 0.8000000000000020428, 0.000000000000000000 ) ) ;
#52 = AXIS2_PLACEMENT_3D ( 'NONE', #92, #215, #125 ) ;
#53 = ORIENTED_EDGE ( 'NONE', *, *, #176, .T. ) ;
#54 = DIRECTION ( 'NONE',  ( -0.000000000000000000, -1.000000000000000000, -0.000000000000000000 ) ) ;
#55 = DIRECTION ( 'NONE',  ( 8.659560562354943952E-17, -0.7071067811865467956, 0.7071067811865483499 ) ) ;
#56 = DIRECTION ( 'NONE',  ( 0.000000000000000000, -0.000000000000000000, 1.000000000000000000 ) ) ;
#57 = EDGE_CURVE ( 'NONE', #7, #220, #34, .T. ) ;
#58 = AXIS2_PLACEMENT_3D ( 'NONE', #9, #18, #69 ) ;
#59 = DIRECTION ( 'NONE',  ( 0.000000000000000000, 0.000000000000000000, 1.000000000000000000 ) ) ;
#60 = CARTESIAN_POINT ( 'NONE',  ( 0.000000000000000000, 0.000000000000000000, 0.000000000000000000 ) ) ;
#61 = CARTESIAN_POINT ( 'NONE',  ( 0.000000000000000000, 15.00000000000000000, -1.799999999999992495 ) ) ;
#62 = EDGE_LOOP ( 'NONE', ( #196, #103, #224, #99 ) ) ;
#63 = ORIENTED_EDGE ( 'NONE', *, *, #194, .F. ) ;
#64 = CONICAL_SURFACE ( 'NONE', #93, 1.799999999999992495, 0.7853981633974492782 ) ;
#65 = FACE_OUTER_BOUND ( 'NONE', #100, .T. ) ;
#66 = EDGE_CURVE ( 'NONE', #180, #220, #204, .T. ) ;
#67 = DIRECTION ( 'NONE',  ( -0.000000000000000000, 1.000000000000000000, -0.000000000000000000 ) ) ;
#68 = MECHANICAL_DESIGN_GEOMETRIC_PRESENTATION_REPRESENTATION (  '', ( #145 ), #197 ) ;
#69 = DIRECTION ( 'NONE',  ( 0.000000000000000000, 0.000000000000000000, 1.000000000000000000 ) ) ;
#70 = CARTESIAN_POINT ( 'NONE',  ( 0.000000000000000000, 0.8000000000000020428, 0.000000000000000000 ) ) ;
#71 = FILL_AREA_STYLE ('',( #225 ) ) ;
#72 =( GEOMETRIC_REPRESENTATION_CONTEXT ( 3 ) GLOBAL_UNCERTAINTY_ASSIGNED_CONTEXT ( ( #173 ) ) GLOBAL_UNIT_ASSIGNED_CONTEXT ( ( #137, #150, #126 ) ) REPRESENTATION_CONTEXT ( 'NONE', 'WORKASPACE' ) );
#73 = DIRECTION ( 'NONE',  ( 0.000000000000000000, 0.000000000000000000, -1.000000000000000000 ) ) ;
#74 = ADVANCED_FACE ( 'NONE', ( #171 ), #86, .T. ) ;
#75 =( NAMED_UNIT ( * ) SI_UNIT ( $, .STERADIAN. ) SOLID_ANGLE_UNIT ( ) );
#76 = CIRCLE ( 'NONE', #58, 1.799999999999992495 ) ;
#77 = DIRECTION ( 'NONE',  ( 0.000000000000000000, 1.000000000000000000, 0.000000000000000000 ) ) ;
#78 = DIRECTION ( 'NONE',  ( 0.000000000000000000, 1.000000000000000000, 0.000000000000000000 ) ) ;
#79 = ORIENTED_EDGE ( 'NONE', *, *, #29, .T. ) ;
#80 = VECTOR ( 'NONE', #158, 1000.000000000000000 ) ;
#81 = SURFACE_STYLE_FILL_AREA ( #71 ) ;
#82 = CIRCLE ( 'NONE', #52, 1.799999999999997824 ) ;
#83 = DIRECTION ( 'NONE',  ( 0.000000000000000000, 0.000000000000000000, 1.000000000000000000 ) ) ;
#84 = DIRECTION ( 'NONE',  ( 0.000000000000000000, 0.000000000000000000, 1.000000000000000000 ) ) ;
#85 = DIRECTION ( 'NONE',  ( -0.000000000000000000, -1.000000000000000000, -0.000000000000000000 ) ) ;
#86 = CONICAL_SURFACE ( 'NONE', #211, 1.799999999999992495, 0.7853981633974492782 ) ;
#87 = CARTESIAN_POINT ( 'NONE',  ( 0.000000000000000000, 15.00000000000000000, -2.600000000000000089 ) ) ;
#88 = DIRECTION ( 'NONE',  ( -0.000000000000000000, -1.000000000000000000, -0.000000000000000000 ) ) ;
#89 = EDGE_CURVE ( 'NONE', #164, #148, #76, .T. ) ;
#90 = ADVANCED_FACE ( 'NONE', ( #170 ), #200, .T. ) ;
#91 = AXIS2_PLACEMENT_3D ( 'NONE', #12, #219, #183 ) ;
#92 = CARTESIAN_POINT ( 'NONE',  ( 0.000000000000000000, 0.000000000000000000, 0.000000000000000000 ) ) ;
#93 = AXIS2_PLACEMENT_3D ( 'NONE', #113, #110, #73 ) ;
#94 = MANIFOLD_SOLID_BREP ( 'Chamfer1', #17 ) ;
#95 = PLANE ( 'NONE',  #124 ) ;
#96 = CARTESIAN_POINT ( 'NONE',  ( 0.000000000000000000, 0.000000000000000000, 1.799999999999997824 ) ) ;
#97 = AXIS2_PLACEMENT_3D ( 'NONE', #70, #184, #83 ) ;
#98 = ORIENTED_EDGE ( 'NONE', *, *, #27, .T. ) ;
#99 = ORIENTED_EDGE ( 'NONE', *, *, #208, .T. ) ;
#100 = EDGE_LOOP ( 'NONE', ( #63, #8, #199, #203 ) ) ;
#101 = CONICAL_SURFACE ( 'NONE', #2, 2.600000000000000089, 0.7853981633974482790 ) ;
#102 = APPLICATION_PROTOCOL_DEFINITION ( 'draft international standard', 'automotive_design', 1998, #50 ) ;
#103 = ORIENTED_EDGE ( 'NONE', *, *, #49, .T. ) ;
#104 = LINE ( 'NONE', #114, #37 ) ;
#105 = DIRECTION ( 'NONE',  ( 0.000000000000000000, -1.000000000000000000, 0.000000000000000000 ) ) ;
#106 = CIRCLE ( 'NONE', #6, 2.600000000000000089 ) ;
#107 = FACE_OUTER_BOUND ( 'NONE', #216, .T. ) ;
#108 = ADVANCED_FACE ( 'NONE', ( #209 ), #64, .T. ) ;
#109 = DIRECTION ( 'NONE',  ( 0.000000000000000000, -0.7071067811865467956, -0.7071067811865483499 ) ) ;
#110 = DIRECTION ( 'NONE',  ( 0.000000000000000000, -1.000000000000000000, 0.000000000000000000 ) ) ;
#111 = CIRCLE ( 'NONE', #115, 2.600000000000000089 ) ;
#112 = VERTEX_POINT ( 'NONE', #195 ) ;
#113 = CARTESIAN_POINT ( 'NONE',  ( 0.000000000000000000, 15.00000000000000000, 0.000000000000000000 ) ) ;
#114 = CARTESIAN_POINT ( 'NONE',  ( 2.204364238465226948E-16, 15.00000000000000000, 1.799999999999992495 ) ) ;
#115 = AXIS2_PLACEMENT_3D ( 'NONE', #3, #210, #59 ) ;
#116 = DIRECTION ( 'NONE',  ( 0.000000000000000000, 0.000000000000000000, 1.000000000000000000 ) ) ;
#117 = ORIENTED_EDGE ( 'NONE', *, *, #23, .F. ) ;
#118 = ORIENTED_EDGE ( 'NONE', *, *, #66, .F. ) ;
#119 = CARTESIAN_POINT ( 'NONE',  ( 0.000000000000000000, 14.19999999999999396, -2.600000000000000089 ) ) ;
#120 = DIRECTION ( 'NONE',  ( -0.000000000000000000, 1.000000000000000000, -0.000000000000000000 ) ) ;
#121 = VERTEX_POINT ( 'NONE', #172 ) ;
#122 = AXIS2_PLACEMENT_3D ( 'NONE', #16, #54, #156 ) ;
#123 = DIRECTION ( 'NONE',  ( -0.000000000000000000, -1.000000000000000000, -0.000000000000000000 ) ) ;
#124 = AXIS2_PLACEMENT_3D ( 'NONE', #157, #78, #56 ) ;
#125 = DIRECTION ( 'NONE',  ( 0.000000000000000000, 0.000000000000000000, 1.000000000000000000 ) ) ;
#126 =( NAMED_UNIT ( * ) SI_UNIT ( $, .STERADIAN. ) SOLID_ANGLE_UNIT ( ) );
#127 = ORIENTED_EDGE ( 'NONE', *, *, #217, .F. ) ;
#128 = PRODUCT_CONTEXT ( 'NONE', #50, 'mechanical' ) ;
#129 = VERTEX_POINT ( 'NONE', #96 ) ;
#130 = CARTESIAN_POINT ( 'NONE',  ( 0.000000000000000000, 14.19999999999999396, 0.000000000000000000 ) ) ;
#131 = ORIENTED_EDGE ( 'NONE', *, *, #29, .F. ) ;
#132 = ADVANCED_FACE ( 'NONE', ( #207 ), #101, .T. ) ;
#133 = AXIS2_PLACEMENT_3D ( 'NONE', #201, #221, #84 ) ;
#134 = DIRECTION ( 'NONE',  ( 8.659560562354932858E-17, 0.7071067811865474617, -0.7071067811865474617 ) ) ;
#135 = CARTESIAN_POINT ( 'NONE',  ( 0.000000000000000000, 14.19999999999999396, 0.000000000000000000 ) ) ;
#136 = EDGE_LOOP ( 'NONE', ( #14, #46 ) ) ;
#137 =( LENGTH_UNIT ( ) NAMED_UNIT ( * ) SI_UNIT ( .MILLI., .METRE. ) );
#138 = VECTOR ( 'NONE', #177, 1000.000000000000114 ) ;
#139 = DIRECTION ( 'NONE',  ( 0.000000000000000000, 0.000000000000000000, 1.000000000000000000 ) ) ;
#140 = CARTESIAN_POINT ( 'NONE',  ( 3.184081677783118191E-16, 15.00000000000000000, 2.600000000000000089 ) ) ;
#141 = CIRCLE ( 'NONE', #133, 1.799999999999992495 ) ;
#142 = EDGE_LOOP ( 'NONE', ( #117, #79, #179, #24 ) ) ;
#143 = ADVANCED_FACE ( 'NONE', ( #22 ), #161, .T. ) ;
#144 = CARTESIAN_POINT ( 'NONE',  ( 0.000000000000000000, 0.8000000000000020428, 2.600000000000000089 ) ) ;
#145 = STYLED_ITEM ( 'NONE', ( #212 ), #94 ) ;
#146 = LINE ( 'NONE', #140, #80 ) ;
#147 = PRODUCT_DEFINITION_FORMATION_WITH_SPECIFIED_SOURCE ( 'ANY', '', #162, .NOT_KNOWN. ) ;
#148 = VERTEX_POINT ( 'NONE', #174 ) ;
#149 = ORIENTED_EDGE ( 'NONE', *, *, #48, .T. ) ;
#150 =( NAMED_UNIT ( * ) PLANE_ANGLE_UNIT ( ) SI_UNIT ( $, .RADIAN. ) );
#151 = EDGE_LOOP ( 'NONE', ( #168, #127, #218, #32 ) ) ;
#152 = ADVANCED_FACE ( 'NONE', ( #5 ), #95, .T. ) ;
#153 = DIRECTION ( 'NONE',  ( 0.000000000000000000, 0.000000000000000000, 1.000000000000000000 ) ) ;
#154 = VECTOR ( 'NONE', #134, 1000.000000000000114 ) ;
#155 = CARTESIAN_POINT ( 'NONE',  ( 2.694222958124175527E-16, 0.000000000000000000, -1.799999999999997824 ) ) ;
#156 = DIRECTION ( 'NONE',  ( 0.000000000000000000, 0.000000000000000000, -1.000000000000000000 ) ) ;
#157 = CARTESIAN_POINT ( 'NONE',  ( 0.000000000000000000, 15.00000000000000000, 0.000000000000000000 ) ) ;
#158 = DIRECTION ( 'NONE',  ( -0.000000000000000000, -1.000000000000000000, -0.000000000000000000 ) ) ;
#159 = UNCERTAINTY_MEASURE_WITH_UNIT (LENGTH_MEASURE( 1.000000000000000082E-05 ), #38, 'distance_accuracy_value', 'NONE');
#160 = DIRECTION ( 'NONE',  ( 0.000000000000000000, -0.000000000000000000, 1.000000000000000000 ) ) ;
#161 = CYLINDRICAL_SURFACE ( 'NONE', #39, 2.600000000000000089 ) ;
#162 = PRODUCT ( 'roller_connector_5.2', 'roller_connector_5.2', '', ( #128 ) ) ;
#163 = DIRECTION ( 'NONE',  ( 0.000000000000000000, 0.000000000000000000, -1.000000000000000000 ) ) ;
#164 = VERTEX_POINT ( 'NONE', #19 ) ;
#165 = CIRCLE ( 'NONE', #223, 2.600000000000000089 ) ;
#166 = SHAPE_DEFINITION_REPRESENTATION ( #178, #45 ) ;
#167 = CARTESIAN_POINT ( 'NONE',  ( 0.000000000000000000, 15.00000000000000000, 0.000000000000000000 ) ) ;
#168 = ORIENTED_EDGE ( 'NONE', *, *, #57, .F. ) ;
#169 = EDGE_LOOP ( 'NONE', ( #131, #30, #41, #205 ) ) ;
#170 = FACE_OUTER_BOUND ( 'NONE', #62, .T. ) ;
#171 = FACE_OUTER_BOUND ( 'NONE', #142, .T. ) ;
#172 = CARTESIAN_POINT ( 'NONE',  ( 3.184081677783118191E-16, 14.19999999999999396, 2.600000000000000089 ) ) ;
#173 = UNCERTAINTY_MEASURE_WITH_UNIT (LENGTH_MEASURE( 1.000000000000000082E-05 ), #137, 'distance_accuracy_value', 'NONE');
#174 = CARTESIAN_POINT ( 'NONE',  ( 2.694222958124172076E-16, 15.00000000000000000, 1.799999999999992495 ) ) ;
#175 = PLANE ( 'NONE',  #214 ) ;
#176 = EDGE_CURVE ( 'NONE', #121, #112, #146, .T. ) ;
#177 = DIRECTION ( 'NONE',  ( 0.000000000000000000, 0.7071067811865474617, 0.7071067811865474617 ) ) ;
#178 = PRODUCT_DEFINITION_SHAPE ( 'NONE', 'NONE',  #13 ) ;
#179 = ORIENTED_EDGE ( 'NONE', *, *, #48, .F. ) ;
#180 = VERTEX_POINT ( 'NONE', #119 ) ;
#181 = EDGE_CURVE ( 'NONE', #129, #112, #192, .T. ) ;
#182 = SURFACE_STYLE_USAGE ( .BOTH. , #47 ) ;
#183 = DIRECTION ( 'NONE',  ( 1.000000000000000000, 0.000000000000000000, 0.000000000000000000 ) ) ;
#184 = DIRECTION ( 'NONE',  ( -0.000000000000000000, 1.000000000000000000, -0.000000000000000000 ) ) ;
#185 = DIRECTION ( 'NONE',  ( 0.000000000000000000, -1.000000000000000000, 0.000000000000000000 ) ) ;
#186 = DIRECTION ( 'NONE',  ( 0.000000000000000000, -1.000000000000000000, 0.000000000000000000 ) ) ;
#187 = DIRECTION ( 'NONE',  ( 0.000000000000000000, 0.000000000000000000, 1.000000000000000000 ) ) ;
#188 =( NAMED_UNIT ( * ) PLANE_ANGLE_UNIT ( ) SI_UNIT ( $, .RADIAN. ) );
#189 = EDGE_CURVE ( 'NONE', #164, #180, #4, .T. ) ;
#190 = CARTESIAN_POINT ( 'NONE',  ( 0.000000000000000000, 15.00000000000000000, 0.000000000000000000 ) ) ;
#191 = CONICAL_SURFACE ( 'NONE', #97, 2.600000000000000089, 0.7853981633974482790 ) ;
#192 = LINE ( 'NONE', #144, #138 ) ;
#193 = DIRECTION ( 'NONE',  ( 0.000000000000000000, 0.000000000000000000, 1.000000000000000000 ) ) ;
#194 = EDGE_CURVE ( 'NONE', #7, #129, #82, .T. ) ;
#195 = CARTESIAN_POINT ( 'NONE',  ( 3.184081677783118191E-16, 0.8000000000000020428, 2.600000000000000089 ) ) ;
#196 = ORIENTED_EDGE ( 'NONE', *, *, #176, .F. ) ;
#197 =( GEOMETRIC_REPRESENTATION_CONTEXT ( 3 ) GLOBAL_UNCERTAINTY_ASSIGNED_CONTEXT ( ( #159 ) ) GLOBAL_UNIT_ASSIGNED_CONTEXT ( ( #38, #188, #75 ) ) REPRESENTATION_CONTEXT ( 'NONE', 'WORKASPACE' ) );
#198 = AXIS2_PLACEMENT_3D ( 'NONE', #135, #186, #153 ) ;
#199 = ORIENTED_EDGE ( 'NONE', *, *, #27, .F. ) ;
#200 = CYLINDRICAL_SURFACE ( 'NONE', #122, 2.600000000000000089 ) ;
#201 = CARTESIAN_POINT ( 'NONE',  ( 0.000000000000000000, 15.00000000000000000, 0.000000000000000000 ) ) ;
#202 = AXIS2_PLACEMENT_3D ( 'NONE', #60, #123, #193 ) ;
#203 = ORIENTED_EDGE ( 'NONE', *, *, #181, .F. ) ;
#204 = LINE ( 'NONE', #87, #43 ) ;
#205 = ORIENTED_EDGE ( 'NONE', *, *, #49, .F. ) ;
#206 = ADVANCED_FACE ( 'NONE', ( #107 ), #175, .F. ) ;
#207 = FACE_OUTER_BOUND ( 'NONE', #151, .T. ) ;
#208 = EDGE_CURVE ( 'NONE', #220, #112, #111, .T. ) ;
#209 = FACE_OUTER_BOUND ( 'NONE', #169, .T. ) ;
#210 = DIRECTION ( 'NONE',  ( -0.000000000000000000, 1.000000000000000000, -0.000000000000000000 ) ) ;
#211 = AXIS2_PLACEMENT_3D ( 'NONE', #167, #105, #222 ) ;
#212 = PRESENTATION_STYLE_ASSIGNMENT (( #182 ) ) ;
#213 = PRODUCT_RELATED_PRODUCT_CATEGORY ( 'part', '', ( #162 ) ) ;
#214 = AXIS2_PLACEMENT_3D ( 'NONE', #21, #77, #160 ) ;
#215 = DIRECTION ( 'NONE',  ( -0.000000000000000000, -1.000000000000000000, -0.000000000000000000 ) ) ;
#216 = EDGE_LOOP ( 'NONE', ( #11, #44 ) ) ;
#217 = EDGE_CURVE ( 'NONE', #129, #7, #10, .T. ) ;
#218 = ORIENTED_EDGE ( 'NONE', *, *, #181, .T. ) ;
#219 = DIRECTION ( 'NONE',  ( 0.000000000000000000, 0.000000000000000000, 1.000000000000000000 ) ) ;
#220 = VERTEX_POINT ( 'NONE', #40 ) ;
#221 = DIRECTION ( 'NONE',  ( 0.000000000000000000, 1.000000000000000000, 0.000000000000000000 ) ) ;
#222 = DIRECTION ( 'NONE',  ( 0.000000000000000000, 0.000000000000000000, -1.000000000000000000 ) ) ;
#223 = AXIS2_PLACEMENT_3D ( 'NONE', #130, #185, #187 ) ;
#224 = ORIENTED_EDGE ( 'NONE', *, *, #66, .T. ) ;
#225 = FILL_AREA_STYLE_COLOUR ( '', #20 ) ;
ENDSEC;
END-ISO-10303-21;
