ISO-10303-21;
HEADER;
FILE_DESCRIPTION (( 'STEP AP214' ),
    '1' );
FILE_NAME ('roller_connector_5.STEP',
    '2026-05-29T15:53:26',
    ( '' ),
    ( '' ),
    'SwSTEP 2.0',
    'SolidWorks 2025',
    '' );
FILE_SCHEMA (( 'AUTOMOTIVE_DESIGN' ));
ENDSEC;

DATA;
#1 = VECTOR ( 'NONE', #220, 1000.000000000000114 ) ;
#2 = VERTEX_POINT ( 'NONE', #3 ) ;
#3 = CARTESIAN_POINT ( 'NONE',  ( 0.000000000000000000, 15.00000000000000000, -1.799999999999992495 ) ) ;
#4 = AXIS2_PLACEMENT_3D ( 'NONE', #193, #41, #12 ) ;
#5 = SHAPE_DEFINITION_REPRESENTATION ( #145, #131 ) ;
#6 = DIRECTION ( 'NONE',  ( 0.000000000000000000, 0.000000000000000000, -1.000000000000000000 ) ) ;
#7 = CONICAL_SURFACE ( 'NONE', #46, 2.600000000000000089, 0.7853981633974482790 ) ;
#8 = FACE_OUTER_BOUND ( 'NONE', #22, .T. ) ;
#9 = EDGE_CURVE ( 'NONE', #82, #64, #68, .T. ) ;
#10 = CARTESIAN_POINT ( 'NONE',  ( 0.000000000000000000, 0.7000000000000022871, 2.500000000000000000 ) ) ;
#11 = STYLED_ITEM ( 'NONE', ( #164 ), #70 ) ;
#12 = DIRECTION ( 'NONE',  ( 0.000000000000000000, 0.000000000000000000, 1.000000000000000000 ) ) ;
#13 =( LENGTH_UNIT ( ) NAMED_UNIT ( * ) SI_UNIT ( .MILLI., .METRE. ) );
#14 = DIRECTION ( 'NONE',  ( 0.000000000000000000, 1.000000000000000000, 0.000000000000000000 ) ) ;
#15 = EDGE_CURVE ( 'NONE', #225, #88, #214, .T. ) ;
#16 = CARTESIAN_POINT ( 'NONE',  ( 0.000000000000000000, 0.000000000000000000, 2.500000000000000000 ) ) ;
#17 = ORIENTED_EDGE ( 'NONE', *, *, #34, .T. ) ;
#18 = AXIS2_PLACEMENT_3D ( 'NONE', #165, #149, #219 ) ;
#19 = PRODUCT_DEFINITION ( 'UNKNOWN', '', #74, #37 ) ;
#20 = VECTOR ( 'NONE', #160, 1000.000000000000000 ) ;
#21 =( NAMED_UNIT ( * ) SI_UNIT ( $, .STERADIAN. ) SOLID_ANGLE_UNIT ( ) );
#22 = EDGE_LOOP ( 'NONE', ( #63, #17, #135, #207 ) ) ;
#23 = ORIENTED_EDGE ( 'NONE', *, *, #9, .F. ) ;
#24 = CYLINDRICAL_SURFACE ( 'NONE', #201, 2.500000000000000000 ) ;
#25 = CARTESIAN_POINT ( 'NONE',  ( 0.000000000000000000, 0.000000000000000000, 0.000000000000000000 ) ) ;
#26 = EDGE_CURVE ( 'NONE', #190, #64, #132, .T. ) ;
#27 = CARTESIAN_POINT ( 'NONE',  ( 0.000000000000000000, 0.7000000000000022871, 0.000000000000000000 ) ) ;
#28 = DIRECTION ( 'NONE',  ( 0.000000000000000000, 0.000000000000000000, 1.000000000000000000 ) ) ;
#29 = SURFACE_STYLE_FILL_AREA ( #126 ) ;
#30 = FACE_OUTER_BOUND ( 'NONE', #116, .T. ) ;
#31 = MECHANICAL_DESIGN_GEOMETRIC_PRESENTATION_REPRESENTATION (  '', ( #11 ), #69 ) ;
#32 = CARTESIAN_POINT ( 'NONE',  ( 0.000000000000000000, 0.000000000000000000, 0.000000000000000000 ) ) ;
#33 = ORIENTED_EDGE ( 'NONE', *, *, #100, .F. ) ;
#34 = EDGE_CURVE ( 'NONE', #171, #64, #196, .T. ) ;
#35 = ORIENTED_EDGE ( 'NONE', *, *, #185, .F. ) ;
#36 = CLOSED_SHELL ( 'NONE', ( #51, #108, #218, #123, #216, #133, #168, #175 ) ) ;
#37 = PRODUCT_DEFINITION_CONTEXT ( 'detailed design', #213, 'design' ) ;
#38 = CARTESIAN_POINT ( 'NONE',  ( 0.000000000000000000, 14.29999999999999361, 2.500000000000000000 ) ) ;
#39 = DIRECTION ( 'NONE',  ( 0.000000000000000000, 0.000000000000000000, 1.000000000000000000 ) ) ;
#40 = SURFACE_SIDE_STYLE ('',( #29 ) ) ;
#41 = DIRECTION ( 'NONE',  ( 0.000000000000000000, -1.000000000000000000, 0.000000000000000000 ) ) ;
#42 = FILL_AREA_STYLE_COLOUR ( '', #223 ) ;
#43 = DIRECTION ( 'NONE',  ( 0.000000000000000000, 0.000000000000000000, 1.000000000000000000 ) ) ;
#44 = CARTESIAN_POINT ( 'NONE',  ( 0.000000000000000000, 15.00000000000000000, -1.799999999999992495 ) ) ;
#45 = LINE ( 'NONE', #186, #1 ) ;
#46 = AXIS2_PLACEMENT_3D ( 'NONE', #178, #107, #57 ) ;
#47 = FACE_OUTER_BOUND ( 'NONE', #86, .T. ) ;
#48 = EDGE_CURVE ( 'NONE', #88, #82, #198, .T. ) ;
#49 = ORIENTED_EDGE ( 'NONE', *, *, #85, .T. ) ;
#50 = EDGE_LOOP ( 'NONE', ( #81, #98, #35, #23 ) ) ;
#51 = ADVANCED_FACE ( 'NONE', ( #8 ), #174, .T. ) ;
#52 = DIRECTION ( 'NONE',  ( 0.000000000000000000, 0.000000000000000000, 1.000000000000000000 ) ) ;
#53 = DIRECTION ( 'NONE',  ( 0.000000000000000000, 0.7071067811865474617, 0.7071067811865474617 ) ) ;
#54 = FACE_OUTER_BOUND ( 'NONE', #187, .T. ) ;
#55 = AXIS2_PLACEMENT_3D ( 'NONE', #130, #202, #110 ) ;
#56 = CARTESIAN_POINT ( 'NONE',  ( 2.204364238465226948E-16, 15.00000000000000000, 1.799999999999992495 ) ) ;
#57 = DIRECTION ( 'NONE',  ( 0.000000000000000000, 0.000000000000000000, 1.000000000000000000 ) ) ;
#58 = DIRECTION ( 'NONE',  ( 0.000000000000000000, -0.000000000000000000, 1.000000000000000000 ) ) ;
#59 = CIRCLE ( 'NONE', #90, 2.500000000000000000 ) ;
#60 = CARTESIAN_POINT ( 'NONE',  ( 0.000000000000000000, 15.00000000000000000, 0.000000000000000000 ) ) ;
#61 = EDGE_CURVE ( 'NONE', #171, #2, #146, .T. ) ;
#62 = DIRECTION ( 'NONE',  ( -0.000000000000000000, 1.000000000000000000, -0.000000000000000000 ) ) ;
#63 = ORIENTED_EDGE ( 'NONE', *, *, #61, .F. ) ;
#64 = VERTEX_POINT ( 'NONE', #38 ) ;
#65 = EDGE_CURVE ( 'NONE', #172, #190, #72, .T. ) ;
#66 = CIRCLE ( 'NONE', #197, 2.500000000000000000 ) ;
#67 = ORIENTED_EDGE ( 'NONE', *, *, #189, .T. ) ;
#68 = LINE ( 'NONE', #16, #84 ) ;
#69 =( GEOMETRIC_REPRESENTATION_CONTEXT ( 3 ) GLOBAL_UNCERTAINTY_ASSIGNED_CONTEXT ( ( #177 ) ) GLOBAL_UNIT_ASSIGNED_CONTEXT ( ( #92, #122, #104 ) ) REPRESENTATION_CONTEXT ( 'NONE', 'WORKASPACE' ) );
#70 = MANIFOLD_SOLID_BREP ( 'Cut-Extrude2', #36 ) ;
#71 = CARTESIAN_POINT ( 'NONE',  ( 0.000000000000000000, 15.00000000000000000, 0.000000000000000000 ) ) ;
#72 = LINE ( 'NONE', #144, #101 ) ;
#73 = DIRECTION ( 'NONE',  ( 0.000000000000000000, 0.000000000000000000, 1.000000000000000000 ) ) ;
#74 = PRODUCT_DEFINITION_FORMATION_WITH_SPECIFIED_SOURCE ( 'ANY', '', #181, .NOT_KNOWN. ) ;
#75 = AXIS2_PLACEMENT_3D ( 'NONE', #134, #205, #141 ) ;
#76 = DIRECTION ( 'NONE',  ( 0.000000000000000000, -1.000000000000000000, 0.000000000000000000 ) ) ;
#77 = CARTESIAN_POINT ( 'NONE',  ( 0.000000000000000000, 15.00000000000000000, 0.000000000000000000 ) ) ;
#78 = DIRECTION ( 'NONE',  ( 0.000000000000000000, -1.000000000000000000, 0.000000000000000000 ) ) ;
#79 = CARTESIAN_POINT ( 'NONE',  ( 2.632990618166804798E-16, 15.00000000000000000, 1.799999999999992495 ) ) ;
#80 = ORIENTED_EDGE ( 'NONE', *, *, #143, .T. ) ;
#81 = ORIENTED_EDGE ( 'NONE', *, *, #85, .F. ) ;
#82 = VERTEX_POINT ( 'NONE', #10 ) ;
#83 = CIRCLE ( 'NONE', #111, 1.799999999999992495 ) ;
#84 = VECTOR ( 'NONE', #62, 1000.000000000000000 ) ;
#85 = EDGE_CURVE ( 'NONE', #172, #82, #99, .T. ) ;
#86 = EDGE_LOOP ( 'NONE', ( #192, #222, #67, #224 ) ) ;
#87 = AXIS2_PLACEMENT_3D ( 'NONE', #200, #78, #113 ) ;
#88 = VERTEX_POINT ( 'NONE', #182 ) ;
#89 = CARTESIAN_POINT ( 'NONE',  ( 0.000000000000000000, 0.000000000000000000, 0.000000000000000000 ) ) ;
#90 = AXIS2_PLACEMENT_3D ( 'NONE', #27, #76, #28 ) ;
#91 = DIRECTION ( 'NONE',  ( -0.000000000000000000, -1.000000000000000000, -0.000000000000000000 ) ) ;
#92 =( LENGTH_UNIT ( ) NAMED_UNIT ( * ) SI_UNIT ( .MILLI., .METRE. ) );
#93 = CARTESIAN_POINT ( 'NONE',  ( 3.061616997868383141E-16, 0.7000000000000022871, -2.500000000000000000 ) ) ;
#94 = DIRECTION ( 'NONE',  ( 0.000000000000000000, 0.000000000000000000, -1.000000000000000000 ) ) ;
#95 = DIRECTION ( 'NONE',  ( 0.000000000000000000, 1.000000000000000000, 0.000000000000000000 ) ) ;
#96 = VECTOR ( 'NONE', #221, 1000.000000000000000 ) ;
#97 = EDGE_LOOP ( 'NONE', ( #138, #33, #119, #206 ) ) ;
#98 = ORIENTED_EDGE ( 'NONE', *, *, #65, .T. ) ;
#99 = CIRCLE ( 'NONE', #4, 2.500000000000000000 ) ;
#100 = EDGE_CURVE ( 'NONE', #82, #172, #59, .T. ) ;
#101 = VECTOR ( 'NONE', #183, 1000.000000000000000 ) ;
#102 = ORIENTED_EDGE ( 'NONE', *, *, #152, .T. ) ;
#103 = ORIENTED_EDGE ( 'NONE', *, *, #48, .F. ) ;
#104 =( NAMED_UNIT ( * ) SI_UNIT ( $, .STERADIAN. ) SOLID_ANGLE_UNIT ( ) );
#105 = APPLICATION_PROTOCOL_DEFINITION ( 'draft international standard', 'automotive_design', 1998, #213 ) ;
#106 = CYLINDRICAL_SURFACE ( 'NONE', #18, 2.500000000000000000 ) ;
#107 = DIRECTION ( 'NONE',  ( -0.000000000000000000, 1.000000000000000000, -0.000000000000000000 ) ) ;
#108 = ADVANCED_FACE ( 'NONE', ( #211 ), #106, .T. ) ;
#109 = DIRECTION ( 'NONE',  ( 0.000000000000000000, 1.000000000000000000, 0.000000000000000000 ) ) ;
#110 = DIRECTION ( 'NONE',  ( 0.000000000000000000, 0.000000000000000000, 1.000000000000000000 ) ) ;
#111 = AXIS2_PLACEMENT_3D ( 'NONE', #147, #215, #124 ) ;
#112 = CARTESIAN_POINT ( 'NONE',  ( 0.000000000000000000, 14.29999999999999361, 0.000000000000000000 ) ) ;
#113 = DIRECTION ( 'NONE',  ( 0.000000000000000000, 0.000000000000000000, -1.000000000000000000 ) ) ;
#114 = AXIS2_PLACEMENT_3D ( 'NONE', #140, #209, #52 ) ;
#115 = APPLICATION_CONTEXT ( 'automotive_design' ) ;
#116 = EDGE_LOOP ( 'NONE', ( #80, #153 ) ) ;
#117 = ORIENTED_EDGE ( 'NONE', *, *, #61, .T. ) ;
#118 = EDGE_LOOP ( 'NONE', ( #158, #176, #49, #103 ) ) ;
#119 = ORIENTED_EDGE ( 'NONE', *, *, #9, .T. ) ;
#120 = CARTESIAN_POINT ( 'NONE',  ( 0.000000000000000000, 0.000000000000000000, 0.000000000000000000 ) ) ;
#121 = VECTOR ( 'NONE', #53, 1000.000000000000114 ) ;
#122 =( NAMED_UNIT ( * ) PLANE_ANGLE_UNIT ( ) SI_UNIT ( $, .RADIAN. ) );
#123 = ADVANCED_FACE ( 'NONE', ( #54 ), #7, .T. ) ;
#124 = DIRECTION ( 'NONE',  ( 0.000000000000000000, 0.000000000000000000, 1.000000000000000000 ) ) ;
#125 = AXIS2_PLACEMENT_3D ( 'NONE', #32, #95, #58 ) ;
#126 = FILL_AREA_STYLE ('',( #42 ) ) ;
#127 = PLANE ( 'NONE',  #142 ) ;
#128 = DIRECTION ( 'NONE',  ( 0.000000000000000000, -0.000000000000000000, 1.000000000000000000 ) ) ;
#129 = CIRCLE ( 'NONE', #173, 1.799999999999997824 ) ;
#130 = CARTESIAN_POINT ( 'NONE',  ( 0.000000000000000000, 0.8000000000000020428, 0.000000000000000000 ) ) ;
#131 = ADVANCED_BREP_SHAPE_REPRESENTATION ( 'roller_connector_5', ( #70, #162 ), #203 ) ;
#132 = CIRCLE ( 'NONE', #75, 2.500000000000000000 ) ;
#133 = ADVANCED_FACE ( 'NONE', ( #161 ), #24, .T. ) ;
#134 = CARTESIAN_POINT ( 'NONE',  ( 0.000000000000000000, 14.29999999999999361, 0.000000000000000000 ) ) ;
#135 = ORIENTED_EDGE ( 'NONE', *, *, #185, .T. ) ;
#136 = UNCERTAINTY_MEASURE_WITH_UNIT (LENGTH_MEASURE( 1.000000000000000082E-05 ), #13, 'distance_accuracy_value', 'NONE');
#137 = ORIENTED_EDGE ( 'NONE', *, *, #208, .F. ) ;
#138 = ORIENTED_EDGE ( 'NONE', *, *, #65, .F. ) ;
#139 =( NAMED_UNIT ( * ) PLANE_ANGLE_UNIT ( ) SI_UNIT ( $, .RADIAN. ) );
#140 = CARTESIAN_POINT ( 'NONE',  ( 0.000000000000000000, 0.000000000000000000, 0.000000000000000000 ) ) ;
#141 = DIRECTION ( 'NONE',  ( 0.000000000000000000, 0.000000000000000000, -1.000000000000000000 ) ) ;
#142 = AXIS2_PLACEMENT_3D ( 'NONE', #60, #14, #128 ) ;
#143 = EDGE_CURVE ( 'NONE', #88, #225, #129, .T. ) ;
#144 = CARTESIAN_POINT ( 'NONE',  ( 3.061616997868383141E-16, 0.000000000000000000, -2.500000000000000000 ) ) ;
#145 = PRODUCT_DEFINITION_SHAPE ( 'NONE', 'NONE',  #19 ) ;
#146 = CIRCLE ( 'NONE', #191, 1.799999999999992495 ) ;
#147 = CARTESIAN_POINT ( 'NONE',  ( 0.000000000000000000, 15.00000000000000000, 0.000000000000000000 ) ) ;
#148 = CARTESIAN_POINT ( 'NONE',  ( 0.000000000000000000, 0.8000000000000020428, 2.600000000000000089 ) ) ;
#149 = DIRECTION ( 'NONE',  ( -0.000000000000000000, 1.000000000000000000, -0.000000000000000000 ) ) ;
#150 = LINE ( 'NONE', #44, #96 ) ;
#151 = FACE_OUTER_BOUND ( 'NONE', #118, .T. ) ;
#152 = EDGE_CURVE ( 'NONE', #2, #171, #83, .T. ) ;
#153 = ORIENTED_EDGE ( 'NONE', *, *, #15, .T. ) ;
#154 = ORIENTED_EDGE ( 'NONE', *, *, #143, .F. ) ;
#155 = PRODUCT_RELATED_PRODUCT_CATEGORY ( 'part', '', ( #181 ) ) ;
#156 = CONICAL_SURFACE ( 'NONE', #87, 1.799999999999992495, 0.7853981633974492782 ) ;
#157 = EDGE_LOOP ( 'NONE', ( #102, #117 ) ) ;
#158 = ORIENTED_EDGE ( 'NONE', *, *, #15, .F. ) ;
#159 = DIRECTION ( 'NONE',  ( -0.000000000000000000, 1.000000000000000000, -0.000000000000000000 ) ) ;
#160 = DIRECTION ( 'NONE',  ( 8.659560562354943952E-17, -0.7071067811865467956, 0.7071067811865483499 ) ) ;
#161 = FACE_OUTER_BOUND ( 'NONE', #97, .T. ) ;
#162 = AXIS2_PLACEMENT_3D ( 'NONE', #120, #39, #210 ) ;
#163 = PRESENTATION_LAYER_ASSIGNMENT (  '', '', ( #11 ) ) ;
#164 = PRESENTATION_STYLE_ASSIGNMENT (( #212 ) ) ;
#165 = CARTESIAN_POINT ( 'NONE',  ( 0.000000000000000000, 0.000000000000000000, 0.000000000000000000 ) ) ;
#166 = CARTESIAN_POINT ( 'NONE',  ( 2.632990618166807756E-16, 0.000000000000000000, -1.799999999999997824 ) ) ;
#167 = PLANE ( 'NONE',  #125 ) ;
#168 = ADVANCED_FACE ( 'NONE', ( #184 ), #127, .T. ) ;
#169 = CARTESIAN_POINT ( 'NONE',  ( 3.061616997868383141E-16, 14.29999999999999361, -2.500000000000000000 ) ) ;
#170 = ORIENTED_EDGE ( 'NONE', *, *, #48, .T. ) ;
#171 = VERTEX_POINT ( 'NONE', #79 ) ;
#172 = VERTEX_POINT ( 'NONE', #93 ) ;
#173 = AXIS2_PLACEMENT_3D ( 'NONE', #25, #91, #73 ) ;
#174 = CONICAL_SURFACE ( 'NONE', #204, 1.799999999999992495, 0.7853981633974492782 ) ;
#175 = ADVANCED_FACE ( 'NONE', ( #47 ), #156, .T. ) ;
#176 = ORIENTED_EDGE ( 'NONE', *, *, #208, .T. ) ;
#177 = UNCERTAINTY_MEASURE_WITH_UNIT (LENGTH_MEASURE( 1.000000000000000082E-05 ), #92, 'distance_accuracy_value', 'NONE');
#178 = CARTESIAN_POINT ( 'NONE',  ( 0.000000000000000000, 0.8000000000000020428, 0.000000000000000000 ) ) ;
#179 = DIRECTION ( 'NONE',  ( 0.000000000000000000, 0.000000000000000000, 1.000000000000000000 ) ) ;
#180 = PRODUCT_CONTEXT ( 'NONE', #115, 'mechanical' ) ;
#181 = PRODUCT ( 'roller_connector_5', 'roller_connector_5', '', ( #180 ) ) ;
#182 = CARTESIAN_POINT ( 'NONE',  ( 0.000000000000000000, 0.000000000000000000, 1.799999999999997824 ) ) ;
#183 = DIRECTION ( 'NONE',  ( -0.000000000000000000, 1.000000000000000000, -0.000000000000000000 ) ) ;
#184 = FACE_OUTER_BOUND ( 'NONE', #157, .T. ) ;
#185 = EDGE_CURVE ( 'NONE', #64, #190, #66, .T. ) ;
#186 = CARTESIAN_POINT ( 'NONE',  ( 3.184081677783118191E-16, 0.8000000000000020428, -2.600000000000000089 ) ) ;
#187 = EDGE_LOOP ( 'NONE', ( #137, #154, #170, #188 ) ) ;
#188 = ORIENTED_EDGE ( 'NONE', *, *, #100, .T. ) ;
#189 = EDGE_CURVE ( 'NONE', #2, #190, #150, .T. ) ;
#190 = VERTEX_POINT ( 'NONE', #169 ) ;
#191 = AXIS2_PLACEMENT_3D ( 'NONE', #77, #109, #43 ) ;
#192 = ORIENTED_EDGE ( 'NONE', *, *, #34, .F. ) ;
#193 = CARTESIAN_POINT ( 'NONE',  ( 0.000000000000000000, 0.7000000000000022871, 0.000000000000000000 ) ) ;
#194 = DIRECTION ( 'NONE',  ( 0.000000000000000000, -1.000000000000000000, 0.000000000000000000 ) ) ;
#195 = APPLICATION_PROTOCOL_DEFINITION ( 'draft international standard', 'automotive_design', 1998, #115 ) ;
#196 = LINE ( 'NONE', #56, #20 ) ;
#197 = AXIS2_PLACEMENT_3D ( 'NONE', #112, #199, #94 ) ;
#198 = LINE ( 'NONE', #148, #121 ) ;
#199 = DIRECTION ( 'NONE',  ( -0.000000000000000000, 1.000000000000000000, -0.000000000000000000 ) ) ;
#200 = CARTESIAN_POINT ( 'NONE',  ( 0.000000000000000000, 15.00000000000000000, 0.000000000000000000 ) ) ;
#201 = AXIS2_PLACEMENT_3D ( 'NONE', #89, #159, #179 ) ;
#202 = DIRECTION ( 'NONE',  ( -0.000000000000000000, 1.000000000000000000, -0.000000000000000000 ) ) ;
#203 =( GEOMETRIC_REPRESENTATION_CONTEXT ( 3 ) GLOBAL_UNCERTAINTY_ASSIGNED_CONTEXT ( ( #136 ) ) GLOBAL_UNIT_ASSIGNED_CONTEXT ( ( #13, #139, #21 ) ) REPRESENTATION_CONTEXT ( 'NONE', 'WORKASPACE' ) );
#204 = AXIS2_PLACEMENT_3D ( 'NONE', #71, #194, #6 ) ;
#205 = DIRECTION ( 'NONE',  ( -0.000000000000000000, 1.000000000000000000, -0.000000000000000000 ) ) ;
#206 = ORIENTED_EDGE ( 'NONE', *, *, #26, .F. ) ;
#207 = ORIENTED_EDGE ( 'NONE', *, *, #189, .F. ) ;
#208 = EDGE_CURVE ( 'NONE', #225, #172, #45, .T. ) ;
#209 = DIRECTION ( 'NONE',  ( -0.000000000000000000, -1.000000000000000000, -0.000000000000000000 ) ) ;
#210 = DIRECTION ( 'NONE',  ( 1.000000000000000000, 0.000000000000000000, 0.000000000000000000 ) ) ;
#211 = FACE_OUTER_BOUND ( 'NONE', #50, .T. ) ;
#212 = SURFACE_STYLE_USAGE ( .BOTH. , #40 ) ;
#213 = APPLICATION_CONTEXT ( 'automotive_design' ) ;
#214 = CIRCLE ( 'NONE', #114, 1.799999999999997824 ) ;
#215 = DIRECTION ( 'NONE',  ( 0.000000000000000000, 1.000000000000000000, 0.000000000000000000 ) ) ;
#216 = ADVANCED_FACE ( 'NONE', ( #30 ), #167, .F. ) ;
#217 = CONICAL_SURFACE ( 'NONE', #55, 2.600000000000000089, 0.7853981633974482790 ) ;
#218 = ADVANCED_FACE ( 'NONE', ( #151 ), #217, .T. ) ;
#219 = DIRECTION ( 'NONE',  ( 0.000000000000000000, 0.000000000000000000, 1.000000000000000000 ) ) ;
#220 = DIRECTION ( 'NONE',  ( 8.659560562354932858E-17, 0.7071067811865474617, -0.7071067811865474617 ) ) ;
#221 = DIRECTION ( 'NONE',  ( 0.000000000000000000, -0.7071067811865467956, -0.7071067811865483499 ) ) ;
#222 = ORIENTED_EDGE ( 'NONE', *, *, #152, .F. ) ;
#223 = COLOUR_RGB ( '',0.7921568627450980005, 0.8196078431372548767, 0.9333333333333333481 ) ;
#224 = ORIENTED_EDGE ( 'NONE', *, *, #26, .T. ) ;
#225 = VERTEX_POINT ( 'NONE', #166 ) ;
ENDSEC;
END-ISO-10303-21;
