ISO-10303-21;
HEADER;
FILE_DESCRIPTION (( 'STEP AP214' ),
    '1' );
FILE_NAME ('roller_connector_5.3mm.STEP',
    '2026-06-03T23:29:35',
    ( '' ),
    ( '' ),
    'SwSTEP 2.0',
    'SolidWorks 2025',
    '' );
FILE_SCHEMA (( 'AUTOMOTIVE_DESIGN' ));
ENDSEC;

DATA;
#1 = PRODUCT ( 'roller_connector_5.3mm', 'roller_connector_5.3mm', '', ( #62 ) ) ;
#2 = ORIENTED_EDGE ( 'NONE', *, *, #136, .T. ) ;
#3 = EDGE_CURVE ( 'NONE', #182, #180, #210, .T. ) ;
#4 = VECTOR ( 'NONE', #92, 1000.000000000000000 ) ;
#5 = CARTESIAN_POINT ( 'NONE',  ( 0.000000000000000000, 0.000000000000000000, 0.000000000000000000 ) ) ;
#6 = AXIS2_PLACEMENT_3D ( 'NONE', #57, #106, #42 ) ;
#7 = ORIENTED_EDGE ( 'NONE', *, *, #3, .T. ) ;
#8 = ORIENTED_EDGE ( 'NONE', *, *, #144, .T. ) ;
#9 = CARTESIAN_POINT ( 'NONE',  ( 0.000000000000000000, 0.8000000000000020428, 0.000000000000000000 ) ) ;
#10 = SURFACE_STYLE_FILL_AREA ( #165 ) ;
#11 = EDGE_CURVE ( 'NONE', #209, #48, #107, .T. ) ;
#12 = CARTESIAN_POINT ( 'NONE',  ( 0.000000000000000000, 0.8000000000000020428, 0.000000000000000000 ) ) ;
#13 = CARTESIAN_POINT ( 'NONE',  ( 0.000000000000000000, 0.8000000000000020428, -2.649999999999999911 ) ) ;
#14 = CARTESIAN_POINT ( 'NONE',  ( 3.245314017740485962E-16, 14.19999999999999929, 2.649999999999999911 ) ) ;
#15 = DIRECTION ( 'NONE',  ( -0.000000000000000000, -1.000000000000000000, -0.000000000000000000 ) ) ;
#16 = AXIS2_PLACEMENT_3D ( 'NONE', #29, #94, #150 ) ;
#17 = AXIS2_PLACEMENT_3D ( 'NONE', #5, #35, #51 ) ;
#18 = FACE_OUTER_BOUND ( 'NONE', #19, .T. ) ;
#19 = EDGE_LOOP ( 'NONE', ( #50, #104, #198, #83 ) ) ;
#20 = DIRECTION ( 'NONE',  ( 1.000000000000000000, 0.000000000000000000, 0.000000000000000000 ) ) ;
#21 = ORIENTED_EDGE ( 'NONE', *, *, #174, .F. ) ;
#22 = VERTEX_POINT ( 'NONE', #160 ) ;
#23 =( GEOMETRIC_REPRESENTATION_CONTEXT ( 3 ) GLOBAL_UNCERTAINTY_ASSIGNED_CONTEXT ( ( #67 ) ) GLOBAL_UNIT_ASSIGNED_CONTEXT ( ( #225, #114, #82 ) ) REPRESENTATION_CONTEXT ( 'NONE', 'WORKASPACE' ) );
#24 = ORIENTED_EDGE ( 'NONE', *, *, #144, .F. ) ;
#25 = DIRECTION ( 'NONE',  ( -0.000000000000000000, 1.000000000000000000, -0.000000000000000000 ) ) ;
#26 = ORIENTED_EDGE ( 'NONE', *, *, #197, .F. ) ;
#27 = LINE ( 'NONE', #91, #120 ) ;
#28 = PRESENTATION_LAYER_ASSIGNMENT (  '', '', ( #115 ) ) ;
#29 = CARTESIAN_POINT ( 'NONE',  ( 0.000000000000000000, 0.8000000000000020428, 0.000000000000000000 ) ) ;
#30 = AXIS2_PLACEMENT_3D ( 'NONE', #171, #15, #112 ) ;
#31 = DIRECTION ( 'NONE',  ( 0.000000000000000000, 0.000000000000000000, -1.000000000000000000 ) ) ;
#32 = AXIS2_PLACEMENT_3D ( 'NONE', #146, #56, #125 ) ;
#33 = AXIS2_PLACEMENT_3D ( 'NONE', #9, #25, #71 ) ;
#34 = CIRCLE ( 'NONE', #17, 1.849999999999997424 ) ;
#35 = DIRECTION ( 'NONE',  ( -0.000000000000000000, -1.000000000000000000, -0.000000000000000000 ) ) ;
#36 = ORIENTED_EDGE ( 'NONE', *, *, #174, .T. ) ;
#37 = CARTESIAN_POINT ( 'NONE',  ( 0.000000000000000000, 15.00000000000000000, 0.000000000000000000 ) ) ;
#38 = VERTEX_POINT ( 'NONE', #86 ) ;
#39 = EDGE_LOOP ( 'NONE', ( #118, #36 ) ) ;
#40 = ADVANCED_FACE ( 'NONE', ( #53 ), #66, .T. ) ;
#41 = CONICAL_SURFACE ( 'NONE', #173, 1.849999999999999201, 0.7853981633974485010 ) ;
#42 = DIRECTION ( 'NONE',  ( 0.000000000000000000, 0.000000000000000000, 1.000000000000000000 ) ) ;
#43 = PRODUCT_RELATED_PRODUCT_CATEGORY ( 'part', '', ( #1 ) ) ;
#44 = CYLINDRICAL_SURFACE ( 'NONE', #201, 2.649999999999999911 ) ;
#45 = PRODUCT_DEFINITION ( 'UNKNOWN', '', #147, #203 ) ;
#46 = CARTESIAN_POINT ( 'NONE',  ( 0.000000000000000000, 0.000000000000000000, 0.000000000000000000 ) ) ;
#47 = EDGE_CURVE ( 'NONE', #213, #38, #34, .T. ) ;
#48 = VERTEX_POINT ( 'NONE', #139 ) ;
#49 = EDGE_LOOP ( 'NONE', ( #212, #105, #140, #87 ) ) ;
#50 = ORIENTED_EDGE ( 'NONE', *, *, #103, .F. ) ;
#51 = DIRECTION ( 'NONE',  ( 0.000000000000000000, 0.000000000000000000, 1.000000000000000000 ) ) ;
#52 = AXIS2_PLACEMENT_3D ( 'NONE', #12, #151, #130 ) ;
#53 = FACE_OUTER_BOUND ( 'NONE', #39, .T. ) ;
#54 = ADVANCED_FACE ( 'NONE', ( #119 ), #99, .T. ) ;
#55 = PRESENTATION_STYLE_ASSIGNMENT (( #143 ) ) ;
#56 = DIRECTION ( 'NONE',  ( 0.000000000000000000, 1.000000000000000000, 0.000000000000000000 ) ) ;
#57 = CARTESIAN_POINT ( 'NONE',  ( 0.000000000000000000, 14.19999999999999929, 0.000000000000000000 ) ) ;
#58 = PLANE ( 'NONE',  #122 ) ;
#59 = CARTESIAN_POINT ( 'NONE',  ( 0.000000000000000000, 0.000000000000000000, 0.000000000000000000 ) ) ;
#60 = DIRECTION ( 'NONE',  ( -0.000000000000000000, -1.000000000000000000, -0.000000000000000000 ) ) ;
#61 = LINE ( 'NONE', #172, #138 ) ;
#62 = PRODUCT_CONTEXT ( 'NONE', #179, 'mechanical' ) ;
#63 = APPLICATION_PROTOCOL_DEFINITION ( 'draft international standard', 'automotive_design', 1998, #179 ) ;
#64 = EDGE_CURVE ( 'NONE', #209, #22, #184, .T. ) ;
#65 = CARTESIAN_POINT ( 'NONE',  ( 2.755455298081543299E-16, 0.000000000000000000, -1.849999999999997424 ) ) ;
#66 = PLANE ( 'NONE',  #79 ) ;
#67 = UNCERTAINTY_MEASURE_WITH_UNIT (LENGTH_MEASURE( 1.000000000000000082E-05 ), #225, 'distance_accuracy_value', 'NONE');
#68 = ORIENTED_EDGE ( 'NONE', *, *, #149, .T. ) ;
#69 = AXIS2_PLACEMENT_3D ( 'NONE', #72, #200, #218 ) ;
#70 = ORIENTED_EDGE ( 'NONE', *, *, #96, .T. ) ;
#71 = DIRECTION ( 'NONE',  ( 0.000000000000000000, 0.000000000000000000, 1.000000000000000000 ) ) ;
#72 = CARTESIAN_POINT ( 'NONE',  ( 0.000000000000000000, 0.8000000000000020428, 0.000000000000000000 ) ) ;
#73 = SURFACE_SIDE_STYLE ('',( #10 ) ) ;
#74 = CARTESIAN_POINT ( 'NONE',  ( 3.245314017740485962E-16, 15.00000000000000000, 2.649999999999999911 ) ) ;
#75 = LINE ( 'NONE', #109, #186 ) ;
#76 = VECTOR ( 'NONE', #131, 999.9999999999998863 ) ;
#77 = EDGE_CURVE ( 'NONE', #22, #159, #195, .T. ) ;
#78 = DIRECTION ( 'NONE',  ( -0.000000000000000000, -1.000000000000000000, -0.000000000000000000 ) ) ;
#79 = AXIS2_PLACEMENT_3D ( 'NONE', #214, #196, #121 ) ;
#80 = CIRCLE ( 'NONE', #30, 1.849999999999997424 ) ;
#81 = EDGE_LOOP ( 'NONE', ( #117, #2, #24, #26 ) ) ;
#82 =( NAMED_UNIT ( * ) SI_UNIT ( $, .STERADIAN. ) SOLID_ANGLE_UNIT ( ) );
#83 = ORIENTED_EDGE ( 'NONE', *, *, #96, .F. ) ;
#84 = ORIENTED_EDGE ( 'NONE', *, *, #192, .F. ) ;
#85 = ADVANCED_BREP_SHAPE_REPRESENTATION ( 'roller_connector_5.3mm', ( #97, #153 ), #23 ) ;
#86 = CARTESIAN_POINT ( 'NONE',  ( 0.000000000000000000, 0.000000000000000000, 1.849999999999997424 ) ) ;
#87 = ORIENTED_EDGE ( 'NONE', *, *, #3, .F. ) ;
#88 = FILL_AREA_STYLE_COLOUR ( '', #223 ) ;
#89 = AXIS2_PLACEMENT_3D ( 'NONE', #93, #127, #221 ) ;
#90 =( LENGTH_UNIT ( ) NAMED_UNIT ( * ) SI_UNIT ( .MILLI., .METRE. ) );
#91 = CARTESIAN_POINT ( 'NONE',  ( 2.265596578422602607E-16, 15.00000000000000000, 1.849999999999999201 ) ) ;
#92 = DIRECTION ( 'NONE',  ( -0.000000000000000000, -1.000000000000000000, -0.000000000000000000 ) ) ;
#93 = CARTESIAN_POINT ( 'NONE',  ( 0.000000000000000000, 14.19999999999999929, 0.000000000000000000 ) ) ;
#94 = DIRECTION ( 'NONE',  ( -0.000000000000000000, 1.000000000000000000, -0.000000000000000000 ) ) ;
#95 = CARTESIAN_POINT ( 'NONE',  ( 0.000000000000000000, 15.00000000000000000, -1.849999999999999201 ) ) ;
#96 = EDGE_CURVE ( 'NONE', #159, #22, #164, .T. ) ;
#97 = MANIFOLD_SOLID_BREP ( 'Chamfer1', #124 ) ;
#98 = CIRCLE ( 'NONE', #32, 1.849999999999999201 ) ;
#99 = CONICAL_SURFACE ( 'NONE', #69, 2.649999999999999911, 0.7853981633974485010 ) ;
#100 = ORIENTED_EDGE ( 'NONE', *, *, #47, .T. ) ;
#101 = EDGE_LOOP ( 'NONE', ( #163, #68, #8, #84 ) ) ;
#102 = DIRECTION ( 'NONE',  ( 0.000000000000000000, 0.000000000000000000, 1.000000000000000000 ) ) ;
#103 = EDGE_CURVE ( 'NONE', #48, #159, #27, .T. ) ;
#104 = ORIENTED_EDGE ( 'NONE', *, *, #11, .F. ) ;
#105 = ORIENTED_EDGE ( 'NONE', *, *, #111, .F. ) ;
#106 = DIRECTION ( 'NONE',  ( 0.000000000000000000, -1.000000000000000000, 0.000000000000000000 ) ) ;
#107 = CIRCLE ( 'NONE', #129, 1.849999999999999201 ) ;
#108 =( NAMED_UNIT ( * ) PLANE_ANGLE_UNIT ( ) SI_UNIT ( $, .RADIAN. ) );
#109 = CARTESIAN_POINT ( 'NONE',  ( 3.245314017740485962E-16, 0.8000000000000020428, -2.649999999999999911 ) ) ;
#110 = DIRECTION ( 'NONE',  ( 0.000000000000000000, 1.000000000000000000, 0.000000000000000000 ) ) ;
#111 = EDGE_CURVE ( 'NONE', #38, #213, #80, .T. ) ;
#112 = DIRECTION ( 'NONE',  ( 0.000000000000000000, 0.000000000000000000, 1.000000000000000000 ) ) ;
#113 = AXIS2_PLACEMENT_3D ( 'NONE', #133, #157, #135 ) ;
#114 =( NAMED_UNIT ( * ) PLANE_ANGLE_UNIT ( ) SI_UNIT ( $, .RADIAN. ) );
#115 = STYLED_ITEM ( 'NONE', ( #55 ), #97 ) ;
#116 = ORIENTED_EDGE ( 'NONE', *, *, #77, .F. ) ;
#117 = ORIENTED_EDGE ( 'NONE', *, *, #47, .F. ) ;
#118 = ORIENTED_EDGE ( 'NONE', *, *, #11, .T. ) ;
#119 = FACE_OUTER_BOUND ( 'NONE', #81, .T. ) ;
#120 = VECTOR ( 'NONE', #217, 1000.000000000000114 ) ;
#121 = DIRECTION ( 'NONE',  ( 0.000000000000000000, -0.000000000000000000, 1.000000000000000000 ) ) ;
#122 = AXIS2_PLACEMENT_3D ( 'NONE', #59, #110, #187 ) ;
#123 = ADVANCED_FACE ( 'NONE', ( #167 ), #158, .T. ) ;
#124 = CLOSED_SHELL ( 'NONE', ( #211, #54, #166, #183, #40, #189, #123, #205 ) ) ;
#125 = DIRECTION ( 'NONE',  ( 0.000000000000000000, 0.000000000000000000, 1.000000000000000000 ) ) ;
#126 = LINE ( 'NONE', #74, #4 ) ;
#127 = DIRECTION ( 'NONE',  ( 0.000000000000000000, -1.000000000000000000, 0.000000000000000000 ) ) ;
#128 = CYLINDRICAL_SURFACE ( 'NONE', #190, 2.649999999999999911 ) ;
#129 = AXIS2_PLACEMENT_3D ( 'NONE', #37, #141, #102 ) ;
#130 = DIRECTION ( 'NONE',  ( 0.000000000000000000, 0.000000000000000000, 1.000000000000000000 ) ) ;
#131 = DIRECTION ( 'NONE',  ( 0.000000000000000000, 0.7071067811865473507, 0.7071067811865477948 ) ) ;
#132 = CARTESIAN_POINT ( 'NONE',  ( 0.000000000000000000, 15.00000000000000000, -1.849999999999999201 ) ) ;
#133 = CARTESIAN_POINT ( 'NONE',  ( 0.000000000000000000, 15.00000000000000000, 0.000000000000000000 ) ) ;
#134 = DIRECTION ( 'NONE',  ( 0.000000000000000000, 0.000000000000000000, 1.000000000000000000 ) ) ;
#135 = DIRECTION ( 'NONE',  ( 0.000000000000000000, 0.000000000000000000, -1.000000000000000000 ) ) ;
#136 = EDGE_CURVE ( 'NONE', #213, #182, #75, .T. ) ;
#137 = ORIENTED_EDGE ( 'NONE', *, *, #192, .T. ) ;
#138 = VECTOR ( 'NONE', #78, 1000.000000000000000 ) ;
#139 = CARTESIAN_POINT ( 'NONE',  ( 2.755455298081544285E-16, 15.00000000000000000, 1.849999999999999201 ) ) ;
#140 = ORIENTED_EDGE ( 'NONE', *, *, #197, .T. ) ;
#141 = DIRECTION ( 'NONE',  ( 0.000000000000000000, 1.000000000000000000, 0.000000000000000000 ) ) ;
#142 = ORIENTED_EDGE ( 'NONE', *, *, #103, .T. ) ;
#143 = SURFACE_STYLE_USAGE ( .BOTH. , #73 ) ;
#144 = EDGE_CURVE ( 'NONE', #180, #182, #185, .T. ) ;
#145 = DIRECTION ( 'NONE',  ( 0.000000000000000000, -0.7071067811865473507, -0.7071067811865476838 ) ) ;
#146 = CARTESIAN_POINT ( 'NONE',  ( 0.000000000000000000, 15.00000000000000000, 0.000000000000000000 ) ) ;
#147 = PRODUCT_DEFINITION_FORMATION_WITH_SPECIFIED_SOURCE ( 'ANY', '', #1, .NOT_KNOWN. ) ;
#148 = FACE_OUTER_BOUND ( 'NONE', #215, .T. ) ;
#149 = EDGE_CURVE ( 'NONE', #159, #180, #126, .T. ) ;
#150 = DIRECTION ( 'NONE',  ( 0.000000000000000000, 0.000000000000000000, 1.000000000000000000 ) ) ;
#151 = DIRECTION ( 'NONE',  ( -0.000000000000000000, 1.000000000000000000, -0.000000000000000000 ) ) ;
#152 = UNCERTAINTY_MEASURE_WITH_UNIT (LENGTH_MEASURE( 1.000000000000000082E-05 ), #90, 'distance_accuracy_value', 'NONE');
#153 = AXIS2_PLACEMENT_3D ( 'NONE', #46, #134, #20 ) ;
#154 = MECHANICAL_DESIGN_GEOMETRIC_PRESENTATION_REPRESENTATION (  '', ( #115 ), #169 ) ;
#155 = LINE ( 'NONE', #224, #76 ) ;
#156 = CARTESIAN_POINT ( 'NONE',  ( 0.000000000000000000, 15.00000000000000000, 0.000000000000000000 ) ) ;
#157 = DIRECTION ( 'NONE',  ( 0.000000000000000000, -1.000000000000000000, 0.000000000000000000 ) ) ;
#158 = CONICAL_SURFACE ( 'NONE', #52, 2.649999999999999911, 0.7853981633974485010 ) ;
#159 = VERTEX_POINT ( 'NONE', #14 ) ;
#160 = CARTESIAN_POINT ( 'NONE',  ( 0.000000000000000000, 14.19999999999999929, -2.649999999999999911 ) ) ;
#161 = EDGE_LOOP ( 'NONE', ( #162, #70, #137, #7 ) ) ;
#162 = ORIENTED_EDGE ( 'NONE', *, *, #149, .F. ) ;
#163 = ORIENTED_EDGE ( 'NONE', *, *, #77, .T. ) ;
#164 = CIRCLE ( 'NONE', #89, 2.649999999999999911 ) ;
#165 = FILL_AREA_STYLE ('',( #88 ) ) ;
#166 = ADVANCED_FACE ( 'NONE', ( #206 ), #128, .T. ) ;
#167 = FACE_OUTER_BOUND ( 'NONE', #49, .T. ) ;
#168 = DIRECTION ( 'NONE',  ( 0.000000000000000000, 0.000000000000000000, -1.000000000000000000 ) ) ;
#169 =( GEOMETRIC_REPRESENTATION_CONTEXT ( 3 ) GLOBAL_UNCERTAINTY_ASSIGNED_CONTEXT ( ( #152 ) ) GLOBAL_UNIT_ASSIGNED_CONTEXT ( ( #90, #108, #219 ) ) REPRESENTATION_CONTEXT ( 'NONE', 'WORKASPACE' ) );
#170 = DIRECTION ( 'NONE',  ( 8.659560562354936556E-17, 0.7071067811865473507, -0.7071067811865477948 ) ) ;
#171 = CARTESIAN_POINT ( 'NONE',  ( 0.000000000000000000, 0.000000000000000000, 0.000000000000000000 ) ) ;
#172 = CARTESIAN_POINT ( 'NONE',  ( 0.000000000000000000, 15.00000000000000000, -2.649999999999999911 ) ) ;
#173 = AXIS2_PLACEMENT_3D ( 'NONE', #156, #208, #176 ) ;
#174 = EDGE_CURVE ( 'NONE', #48, #209, #98, .T. ) ;
#175 = VECTOR ( 'NONE', #145, 1000.000000000000114 ) ;
#176 = DIRECTION ( 'NONE',  ( 0.000000000000000000, 0.000000000000000000, -1.000000000000000000 ) ) ;
#177 = FACE_OUTER_BOUND ( 'NONE', #178, .T. ) ;
#178 = EDGE_LOOP ( 'NONE', ( #21, #142, #116, #199 ) ) ;
#179 = APPLICATION_CONTEXT ( 'automotive_design' ) ;
#180 = VERTEX_POINT ( 'NONE', #202 ) ;
#181 = ORIENTED_EDGE ( 'NONE', *, *, #111, .T. ) ;
#182 = VERTEX_POINT ( 'NONE', #13 ) ;
#183 = ADVANCED_FACE ( 'NONE', ( #220 ), #44, .T. ) ;
#184 = LINE ( 'NONE', #95, #175 ) ;
#185 = CIRCLE ( 'NONE', #16, 2.649999999999999911 ) ;
#186 = VECTOR ( 'NONE', #170, 999.9999999999998863 ) ;
#187 = DIRECTION ( 'NONE',  ( 0.000000000000000000, -0.000000000000000000, 1.000000000000000000 ) ) ;
#188 = DIRECTION ( 'NONE',  ( -0.000000000000000000, -1.000000000000000000, -0.000000000000000000 ) ) ;
#189 = ADVANCED_FACE ( 'NONE', ( #148 ), #58, .F. ) ;
#190 = AXIS2_PLACEMENT_3D ( 'NONE', #222, #60, #168 ) ;
#191 = APPLICATION_CONTEXT ( 'automotive_design' ) ;
#192 = EDGE_CURVE ( 'NONE', #22, #182, #61, .T. ) ;
#193 = PRODUCT_DEFINITION_SHAPE ( 'NONE', 'NONE',  #45 ) ;
#194 = SHAPE_DEFINITION_REPRESENTATION ( #193, #85 ) ;
#195 = CIRCLE ( 'NONE', #6, 2.649999999999999911 ) ;
#196 = DIRECTION ( 'NONE',  ( 0.000000000000000000, 1.000000000000000000, 0.000000000000000000 ) ) ;
#197 = EDGE_CURVE ( 'NONE', #38, #180, #155, .T. ) ;
#198 = ORIENTED_EDGE ( 'NONE', *, *, #64, .T. ) ;
#199 = ORIENTED_EDGE ( 'NONE', *, *, #64, .F. ) ;
#200 = DIRECTION ( 'NONE',  ( -0.000000000000000000, 1.000000000000000000, -0.000000000000000000 ) ) ;
#201 = AXIS2_PLACEMENT_3D ( 'NONE', #204, #188, #31 ) ;
#202 = CARTESIAN_POINT ( 'NONE',  ( 3.245314017740485962E-16, 0.8000000000000020428, 2.649999999999999911 ) ) ;
#203 = PRODUCT_DEFINITION_CONTEXT ( 'detailed design', #191, 'design' ) ;
#204 = CARTESIAN_POINT ( 'NONE',  ( 0.000000000000000000, 15.00000000000000000, 0.000000000000000000 ) ) ;
#205 = ADVANCED_FACE ( 'NONE', ( #18 ), #41, .T. ) ;
#206 = FACE_OUTER_BOUND ( 'NONE', #101, .T. ) ;
#207 = APPLICATION_PROTOCOL_DEFINITION ( 'draft international standard', 'automotive_design', 1998, #191 ) ;
#208 = DIRECTION ( 'NONE',  ( 0.000000000000000000, -1.000000000000000000, 0.000000000000000000 ) ) ;
#209 = VERTEX_POINT ( 'NONE', #132 ) ;
#210 = CIRCLE ( 'NONE', #33, 2.649999999999999911 ) ;
#211 = ADVANCED_FACE ( 'NONE', ( #177 ), #216, .T. ) ;
#212 = ORIENTED_EDGE ( 'NONE', *, *, #136, .F. ) ;
#213 = VERTEX_POINT ( 'NONE', #65 ) ;
#214 = CARTESIAN_POINT ( 'NONE',  ( 0.000000000000000000, 15.00000000000000000, 0.000000000000000000 ) ) ;
#215 = EDGE_LOOP ( 'NONE', ( #181, #100 ) ) ;
#216 = CONICAL_SURFACE ( 'NONE', #113, 1.849999999999999201, 0.7853981633974485010 ) ;
#217 = DIRECTION ( 'NONE',  ( 8.659560562354935323E-17, -0.7071067811865473507, 0.7071067811865476838 ) ) ;
#218 = DIRECTION ( 'NONE',  ( 0.000000000000000000, 0.000000000000000000, 1.000000000000000000 ) ) ;
#219 =( NAMED_UNIT ( * ) SI_UNIT ( $, .STERADIAN. ) SOLID_ANGLE_UNIT ( ) );
#220 = FACE_OUTER_BOUND ( 'NONE', #161, .T. ) ;
#221 = DIRECTION ( 'NONE',  ( 0.000000000000000000, 0.000000000000000000, 1.000000000000000000 ) ) ;
#222 = CARTESIAN_POINT ( 'NONE',  ( 0.000000000000000000, 15.00000000000000000, 0.000000000000000000 ) ) ;
#223 = COLOUR_RGB ( '',0.7921568627450980005, 0.8196078431372548767, 0.9333333333333333481 ) ;
#224 = CARTESIAN_POINT ( 'NONE',  ( 0.000000000000000000, 0.8000000000000020428, 2.649999999999999911 ) ) ;
#225 =( LENGTH_UNIT ( ) NAMED_UNIT ( * ) SI_UNIT ( .MILLI., .METRE. ) );
ENDSEC;
END-ISO-10303-21;
