ISO-10303-21;
HEADER;
FILE_DESCRIPTION (( 'STEP AP214' ),
    '1' );
FILE_NAME ('roller_connector_5.4mm.STEP',
    '2026-06-03T23:31:23',
    ( '' ),
    ( '' ),
    'SwSTEP 2.0',
    'SolidWorks 2025',
    '' );
FILE_SCHEMA (( 'AUTOMOTIVE_DESIGN' ));
ENDSEC;

DATA;
#1 = ADVANCED_FACE ( 'NONE', ( #215 ), #136, .T. ) ;
#2 = AXIS2_PLACEMENT_3D ( 'NONE', #149, #180, #129 ) ;
#3 = AXIS2_PLACEMENT_3D ( 'NONE', #151, #170, #221 ) ;
#4 = EDGE_CURVE ( 'NONE', #128, #25, #53, .T. ) ;
#5 = EDGE_LOOP ( 'NONE', ( #99, #47, #46, #42 ) ) ;
#6 = ORIENTED_EDGE ( 'NONE', *, *, #222, .T. ) ;
#7 = DIRECTION ( 'NONE',  ( 0.000000000000000000, 0.000000000000000000, 1.000000000000000000 ) ) ;
#8 =( NAMED_UNIT ( * ) SI_UNIT ( $, .STERADIAN. ) SOLID_ANGLE_UNIT ( ) );
#9 = DIRECTION ( 'NONE',  ( -0.000000000000000000, -1.000000000000000000, -0.000000000000000000 ) ) ;
#10 = DIRECTION ( 'NONE',  ( 0.000000000000000000, 1.000000000000000000, 0.000000000000000000 ) ) ;
#11 = EDGE_CURVE ( 'NONE', #146, #199, #30, .T. ) ;
#12 = EDGE_LOOP ( 'NONE', ( #77, #85 ) ) ;
#13 = CYLINDRICAL_SURFACE ( 'NONE', #76, 2.700000000000000178 ) ;
#14 = CARTESIAN_POINT ( 'NONE',  ( 0.000000000000000000, 15.00000000000000000, 0.000000000000000000 ) ) ;
#15 = PLANE ( 'NONE',  #32 ) ;
#16 = DIRECTION ( 'NONE',  ( 0.000000000000000000, 0.000000000000000000, -1.000000000000000000 ) ) ;
#17 = AXIS2_PLACEMENT_3D ( 'NONE', #104, #34, #35 ) ;
#18 =( NAMED_UNIT ( * ) SI_UNIT ( $, .STERADIAN. ) SOLID_ANGLE_UNIT ( ) );
#19 = STYLED_ITEM ( 'NONE', ( #201 ), #26 ) ;
#20 = PRODUCT_DEFINITION_SHAPE ( 'NONE', 'NONE',  #183 ) ;
#21 = CIRCLE ( 'NONE', #86, 2.700000000000000178 ) ;
#22 = ORIENTED_EDGE ( 'NONE', *, *, #108, .F. ) ;
#23 = ORIENTED_EDGE ( 'NONE', *, *, #155, .F. ) ;
#24 =( LENGTH_UNIT ( ) NAMED_UNIT ( * ) SI_UNIT ( .MILLI., .METRE. ) );
#25 = VERTEX_POINT ( 'NONE', #216 ) ;
#26 = MANIFOLD_SOLID_BREP ( 'Chamfer1', #147 ) ;
#27 = VERTEX_POINT ( 'NONE', #126 ) ;
#28 = FACE_OUTER_BOUND ( 'NONE', #12, .T. ) ;
#29 = EDGE_CURVE ( 'NONE', #179, #176, #200, .T. ) ;
#30 = LINE ( 'NONE', #64, #72 ) ;
#31 = DIRECTION ( 'NONE',  ( 0.000000000000000000, 0.000000000000000000, 1.000000000000000000 ) ) ;
#32 = AXIS2_PLACEMENT_3D ( 'NONE', #14, #153, #92 ) ;
#33 = DIRECTION ( 'NONE',  ( 0.000000000000000000, 0.000000000000000000, -1.000000000000000000 ) ) ;
#34 = DIRECTION ( 'NONE',  ( 0.000000000000000000, 1.000000000000000000, 0.000000000000000000 ) ) ;
#35 = DIRECTION ( 'NONE',  ( 0.000000000000000000, 0.000000000000000000, 1.000000000000000000 ) ) ;
#36 = CYLINDRICAL_SURFACE ( 'NONE', #211, 2.700000000000000178 ) ;
#37 = EDGE_CURVE ( 'NONE', #179, #199, #166, .T. ) ;
#38 = SHAPE_DEFINITION_REPRESENTATION ( #20, #158 ) ;
#39 = AXIS2_PLACEMENT_3D ( 'NONE', #208, #54, #50 ) ;
#40 = APPLICATION_CONTEXT ( 'automotive_design' ) ;
#41 = AXIS2_PLACEMENT_3D ( 'NONE', #204, #205, #118 ) ;
#42 = ORIENTED_EDGE ( 'NONE', *, *, #159, .T. ) ;
#43 = EDGE_LOOP ( 'NONE', ( #197, #140, #178, #219 ) ) ;
#44 = EDGE_LOOP ( 'NONE', ( #98, #160, #101, #202 ) ) ;
#45 = DIRECTION ( 'NONE',  ( 0.000000000000000000, 0.000000000000000000, 1.000000000000000000 ) ) ;
#46 = ORIENTED_EDGE ( 'NONE', *, *, #29, .T. ) ;
#47 = ORIENTED_EDGE ( 'NONE', *, *, #172, .T. ) ;
#48 = DIRECTION ( 'NONE',  ( -0.000000000000000000, -1.000000000000000000, -0.000000000000000000 ) ) ;
#49 = FACE_OUTER_BOUND ( 'NONE', #161, .T. ) ;
#50 = DIRECTION ( 'NONE',  ( 0.000000000000000000, 0.000000000000000000, 1.000000000000000000 ) ) ;
#51 = CIRCLE ( 'NONE', #125, 2.700000000000000178 ) ;
#52 = DIRECTION ( 'NONE',  ( 0.000000000000000000, 0.7071067811865471286, 0.7071067811865479058 ) ) ;
#53 = CIRCLE ( 'NONE', #163, 1.899999999999999023 ) ;
#54 = DIRECTION ( 'NONE',  ( -0.000000000000000000, 1.000000000000000000, -0.000000000000000000 ) ) ;
#55 = CARTESIAN_POINT ( 'NONE',  ( 0.000000000000000000, 0.8000000000000003775, 0.000000000000000000 ) ) ;
#56 = ADVANCED_FACE ( 'NONE', ( #28 ), #100, .F. ) ;
#57 = APPLICATION_PROTOCOL_DEFINITION ( 'draft international standard', 'automotive_design', 1998, #40 ) ;
#58 = ORIENTED_EDGE ( 'NONE', *, *, #155, .T. ) ;
#59 = FILL_AREA_STYLE_COLOUR ( '', #174 ) ;
#60 = AXIS2_PLACEMENT_3D ( 'NONE', #67, #169, #16 ) ;
#61 = CARTESIAN_POINT ( 'NONE',  ( 0.000000000000000000, 15.00000000000000000, 0.000000000000000000 ) ) ;
#62 = AXIS2_PLACEMENT_3D ( 'NONE', #212, #75, #191 ) ;
#63 = ORIENTED_EDGE ( 'NONE', *, *, #189, .T. ) ;
#64 = CARTESIAN_POINT ( 'NONE',  ( 2.326828918379965448E-16, 15.00000000000000000, 1.899999999999995470 ) ) ;
#65 = ORIENTED_EDGE ( 'NONE', *, *, #78, .T. ) ;
#66 = CARTESIAN_POINT ( 'NONE',  ( 0.000000000000000000, 15.00000000000000000, -2.700000000000000178 ) ) ;
#67 = CARTESIAN_POINT ( 'NONE',  ( 0.000000000000000000, 15.00000000000000000, 0.000000000000000000 ) ) ;
#68 = FACE_OUTER_BOUND ( 'NONE', #5, .T. ) ;
#69 = CARTESIAN_POINT ( 'NONE',  ( 0.000000000000000000, 15.00000000000000000, 0.000000000000000000 ) ) ;
#70 = CIRCLE ( 'NONE', #207, 1.899999999999995470 ) ;
#71 = FACE_OUTER_BOUND ( 'NONE', #44, .T. ) ;
#72 = VECTOR ( 'NONE', #79, 1000.000000000000000 ) ;
#73 = CARTESIAN_POINT ( 'NONE',  ( 0.000000000000000000, 15.00000000000000000, 0.000000000000000000 ) ) ;
#74 = EDGE_CURVE ( 'NONE', #25, #128, #220, .T. ) ;
#75 = DIRECTION ( 'NONE',  ( 0.000000000000000000, 0.000000000000000000, 1.000000000000000000 ) ) ;
#76 = AXIS2_PLACEMENT_3D ( 'NONE', #87, #152, #33 ) ;
#77 = ORIENTED_EDGE ( 'NONE', *, *, #74, .T. ) ;
#78 = EDGE_CURVE ( 'NONE', #25, #181, #203, .T. ) ;
#79 = DIRECTION ( 'NONE',  ( 8.659560562354937789E-17, -0.7071067811865471286, 0.7071067811865479058 ) ) ;
#80 = CIRCLE ( 'NONE', #3, 2.700000000000000178 ) ;
#81 = SURFACE_STYLE_USAGE ( .BOTH. , #127 ) ;
#82 = UNCERTAINTY_MEASURE_WITH_UNIT (LENGTH_MEASURE( 1.000000000000000082E-05 ), #24, 'distance_accuracy_value', 'NONE');
#83 = AXIS2_PLACEMENT_3D ( 'NONE', #61, #144, #162 ) ;
#84 = DIRECTION ( 'NONE',  ( 0.000000000000000000, -1.000000000000000000, 0.000000000000000000 ) ) ;
#85 = ORIENTED_EDGE ( 'NONE', *, *, #4, .T. ) ;
#86 = AXIS2_PLACEMENT_3D ( 'NONE', #223, #209, #168 ) ;
#87 = CARTESIAN_POINT ( 'NONE',  ( 0.000000000000000000, 15.00000000000000000, 0.000000000000000000 ) ) ;
#88 = CARTESIAN_POINT ( 'NONE',  ( 2.816687638038911563E-16, 0.000000000000000000, -1.899999999999999023 ) ) ;
#89 = UNCERTAINTY_MEASURE_WITH_UNIT (LENGTH_MEASURE( 1.000000000000000082E-05 ), #206, 'distance_accuracy_value', 'NONE');
#90 = LINE ( 'NONE', #173, #145 ) ;
#91 = EDGE_CURVE ( 'NONE', #181, #176, #21, .T. ) ;
#92 = DIRECTION ( 'NONE',  ( 0.000000000000000000, -0.000000000000000000, 1.000000000000000000 ) ) ;
#93 = PRESENTATION_LAYER_ASSIGNMENT (  '', '', ( #19 ) ) ;
#94 = ADVANCED_FACE ( 'NONE', ( #68 ), #36, .T. ) ;
#95 = PRODUCT_DEFINITION_CONTEXT ( 'detailed design', #40, 'design' ) ;
#96 = ORIENTED_EDGE ( 'NONE', *, *, #74, .F. ) ;
#97 = ORIENTED_EDGE ( 'NONE', *, *, #11, .T. ) ;
#98 = ORIENTED_EDGE ( 'NONE', *, *, #11, .F. ) ;
#99 = ORIENTED_EDGE ( 'NONE', *, *, #194, .F. ) ;
#100 = PLANE ( 'NONE',  #217 ) ;
#101 = ORIENTED_EDGE ( 'NONE', *, *, #108, .T. ) ;
#102 = LINE ( 'NONE', #106, #109 ) ;
#103 = AXIS2_PLACEMENT_3D ( 'NONE', #124, #84, #45 ) ;
#104 = CARTESIAN_POINT ( 'NONE',  ( 0.000000000000000000, 15.00000000000000000, 0.000000000000000000 ) ) ;
#105 = CARTESIAN_POINT ( 'NONE',  ( 0.000000000000000000, 0.8000000000000003775, 2.700000000000000178 ) ) ;
#106 = CARTESIAN_POINT ( 'NONE',  ( 0.000000000000000000, 15.00000000000000000, -1.899999999999995470 ) ) ;
#107 = CONICAL_SURFACE ( 'NONE', #39, 2.700000000000000178, 0.7853981633974488341 ) ;
#108 = EDGE_CURVE ( 'NONE', #27, #179, #102, .T. ) ;
#109 = VECTOR ( 'NONE', #132, 1000.000000000000000 ) ;
#110 = EDGE_LOOP ( 'NONE', ( #23, #96, #65, #195 ) ) ;
#111 = SURFACE_STYLE_FILL_AREA ( #182 ) ;
#112 = DIRECTION ( 'NONE',  ( 0.000000000000000000, -0.000000000000000000, 1.000000000000000000 ) ) ;
#113 = ORIENTED_EDGE ( 'NONE', *, *, #4, .F. ) ;
#114 = CARTESIAN_POINT ( 'NONE',  ( 0.000000000000000000, 0.000000000000000000, 0.000000000000000000 ) ) ;
#115 = ADVANCED_FACE ( 'NONE', ( #131 ), #123, .T. ) ;
#116 = DIRECTION ( 'NONE',  ( -0.000000000000000000, 1.000000000000000000, -0.000000000000000000 ) ) ;
#117 = DIRECTION ( 'NONE',  ( 0.000000000000000000, 1.000000000000000000, 0.000000000000000000 ) ) ;
#118 = DIRECTION ( 'NONE',  ( 0.000000000000000000, 0.000000000000000000, 1.000000000000000000 ) ) ;
#119 = DIRECTION ( 'NONE',  ( -0.000000000000000000, -1.000000000000000000, -0.000000000000000000 ) ) ;
#120 = DIRECTION ( 'NONE',  ( 8.659560562354937789E-17, 0.7071067811865471286, -0.7071067811865479058 ) ) ;
#121 = ORIENTED_EDGE ( 'NONE', *, *, #78, .F. ) ;
#122 =( NAMED_UNIT ( * ) PLANE_ANGLE_UNIT ( ) SI_UNIT ( $, .RADIAN. ) );
#123 = CONICAL_SURFACE ( 'NONE', #41, 2.700000000000000178, 0.7853981633974488341 ) ;
#124 = CARTESIAN_POINT ( 'NONE',  ( 0.000000000000000000, 14.19999999999999574, 0.000000000000000000 ) ) ;
#125 = AXIS2_PLACEMENT_3D ( 'NONE', #55, #116, #137 ) ;
#126 = CARTESIAN_POINT ( 'NONE',  ( 0.000000000000000000, 15.00000000000000000, -1.899999999999995470 ) ) ;
#127 = SURFACE_SIDE_STYLE ('',( #111 ) ) ;
#128 = VERTEX_POINT ( 'NONE', #88 ) ;
#129 = DIRECTION ( 'NONE',  ( 0.000000000000000000, 0.000000000000000000, 1.000000000000000000 ) ) ;
#130 = ADVANCED_FACE ( 'NONE', ( #71 ), #156, .T. ) ;
#131 = FACE_OUTER_BOUND ( 'NONE', #110, .T. ) ;
#132 = DIRECTION ( 'NONE',  ( 0.000000000000000000, -0.7071067811865471286, -0.7071067811865479058 ) ) ;
#133 = CARTESIAN_POINT ( 'NONE',  ( 2.816687638038909591E-16, 15.00000000000000000, 1.899999999999995470 ) ) ;
#134 =( GEOMETRIC_REPRESENTATION_CONTEXT ( 3 ) GLOBAL_UNCERTAINTY_ASSIGNED_CONTEXT ( ( #89 ) ) GLOBAL_UNIT_ASSIGNED_CONTEXT ( ( #206, #210, #18 ) ) REPRESENTATION_CONTEXT ( 'NONE', 'WORKASPACE' ) );
#135 = FACE_OUTER_BOUND ( 'NONE', #165, .T. ) ;
#136 = CONICAL_SURFACE ( 'NONE', #83, 1.899999999999995470, 0.7853981633974488341 ) ;
#137 = DIRECTION ( 'NONE',  ( 0.000000000000000000, 0.000000000000000000, 1.000000000000000000 ) ) ;
#138 = VECTOR ( 'NONE', #52, 1000.000000000000000 ) ;
#139 = ADVANCED_FACE ( 'NONE', ( #49 ), #15, .T. ) ;
#140 = ORIENTED_EDGE ( 'NONE', *, *, #194, .T. ) ;
#141 = PRODUCT_RELATED_PRODUCT_CATEGORY ( 'part', '', ( #142 ) ) ;
#142 = PRODUCT ( 'roller_connector_5.4mm', 'roller_connector_5.4mm', '', ( #193 ) ) ;
#143 = EDGE_LOOP ( 'NONE', ( #218, #97, #148, #22 ) ) ;
#144 = DIRECTION ( 'NONE',  ( 0.000000000000000000, -1.000000000000000000, 0.000000000000000000 ) ) ;
#145 = VECTOR ( 'NONE', #120, 1000.000000000000000 ) ;
#146 = VERTEX_POINT ( 'NONE', #133 ) ;
#147 = CLOSED_SHELL ( 'NONE', ( #1, #177, #213, #94, #139, #56, #115, #130 ) ) ;
#148 = ORIENTED_EDGE ( 'NONE', *, *, #37, .F. ) ;
#149 = CARTESIAN_POINT ( 'NONE',  ( 0.000000000000000000, 0.000000000000000000, 0.000000000000000000 ) ) ;
#150 = VECTOR ( 'NONE', #48, 1000.000000000000000 ) ;
#151 = CARTESIAN_POINT ( 'NONE',  ( 0.000000000000000000, 14.19999999999999574, 0.000000000000000000 ) ) ;
#152 = DIRECTION ( 'NONE',  ( -0.000000000000000000, -1.000000000000000000, -0.000000000000000000 ) ) ;
#153 = DIRECTION ( 'NONE',  ( 0.000000000000000000, 1.000000000000000000, 0.000000000000000000 ) ) ;
#154 = CARTESIAN_POINT ( 'NONE',  ( 0.000000000000000000, 0.8000000000000003775, -2.700000000000000178 ) ) ;
#155 = EDGE_CURVE ( 'NONE', #128, #176, #90, .T. ) ;
#156 = CONICAL_SURFACE ( 'NONE', #60, 1.899999999999995470, 0.7853981633974488341 ) ;
#157 = PRODUCT_DEFINITION_FORMATION_WITH_SPECIFIED_SOURCE ( 'ANY', '', #142, .NOT_KNOWN. ) ;
#158 = ADVANCED_BREP_SHAPE_REPRESENTATION ( 'roller_connector_5.4mm', ( #26, #62 ), #134 ) ;
#159 = EDGE_CURVE ( 'NONE', #176, #181, #51, .T. ) ;
#160 = ORIENTED_EDGE ( 'NONE', *, *, #189, .F. ) ;
#161 = EDGE_LOOP ( 'NONE', ( #63, #6 ) ) ;
#162 = DIRECTION ( 'NONE',  ( 0.000000000000000000, 0.000000000000000000, -1.000000000000000000 ) ) ;
#163 = AXIS2_PLACEMENT_3D ( 'NONE', #114, #9, #7 ) ;
#164 = CARTESIAN_POINT ( 'NONE',  ( 0.000000000000000000, 0.000000000000000000, 0.000000000000000000 ) ) ;
#165 = EDGE_LOOP ( 'NONE', ( #113, #58, #214, #121 ) ) ;
#166 = CIRCLE ( 'NONE', #103, 2.700000000000000178 ) ;
#167 = CARTESIAN_POINT ( 'NONE',  ( 3.306546357697853733E-16, 15.00000000000000000, 2.700000000000000178 ) ) ;
#168 = DIRECTION ( 'NONE',  ( 0.000000000000000000, 0.000000000000000000, 1.000000000000000000 ) ) ;
#169 = DIRECTION ( 'NONE',  ( 0.000000000000000000, -1.000000000000000000, 0.000000000000000000 ) ) ;
#170 = DIRECTION ( 'NONE',  ( 0.000000000000000000, -1.000000000000000000, 0.000000000000000000 ) ) ;
#171 = APPLICATION_CONTEXT ( 'automotive_design' ) ;
#172 = EDGE_CURVE ( 'NONE', #199, #179, #80, .T. ) ;
#173 = CARTESIAN_POINT ( 'NONE',  ( 3.306546357697853733E-16, 0.8000000000000003775, -2.700000000000000178 ) ) ;
#174 = COLOUR_RGB ( '',0.7921568627450980005, 0.8196078431372548767, 0.9333333333333333481 ) ;
#175 = APPLICATION_PROTOCOL_DEFINITION ( 'draft international standard', 'automotive_design', 1998, #171 ) ;
#176 = VERTEX_POINT ( 'NONE', #154 ) ;
#177 = ADVANCED_FACE ( 'NONE', ( #135 ), #107, .T. ) ;
#178 = ORIENTED_EDGE ( 'NONE', *, *, #91, .T. ) ;
#179 = VERTEX_POINT ( 'NONE', #225 ) ;
#180 = DIRECTION ( 'NONE',  ( -0.000000000000000000, -1.000000000000000000, -0.000000000000000000 ) ) ;
#181 = VERTEX_POINT ( 'NONE', #184 ) ;
#182 = FILL_AREA_STYLE ('',( #59 ) ) ;
#183 = PRODUCT_DEFINITION ( 'UNKNOWN', '', #157, #95 ) ;
#184 = CARTESIAN_POINT ( 'NONE',  ( 3.306546357697853733E-16, 0.8000000000000003775, 2.700000000000000178 ) ) ;
#185 = MECHANICAL_DESIGN_GEOMETRIC_PRESENTATION_REPRESENTATION (  '', ( #19 ), #196 ) ;
#186 = FACE_OUTER_BOUND ( 'NONE', #43, .T. ) ;
#187 = LINE ( 'NONE', #167, #192 ) ;
#188 = CARTESIAN_POINT ( 'NONE',  ( 3.306546357697853733E-16, 14.19999999999999574, 2.700000000000000178 ) ) ;
#189 = EDGE_CURVE ( 'NONE', #27, #146, #70, .T. ) ;
#190 = DIRECTION ( 'NONE',  ( 0.000000000000000000, 0.000000000000000000, -1.000000000000000000 ) ) ;
#191 = DIRECTION ( 'NONE',  ( 1.000000000000000000, 0.000000000000000000, 0.000000000000000000 ) ) ;
#192 = VECTOR ( 'NONE', #119, 1000.000000000000000 ) ;
#193 = PRODUCT_CONTEXT ( 'NONE', #171, 'mechanical' ) ;
#194 = EDGE_CURVE ( 'NONE', #199, #181, #187, .T. ) ;
#195 = ORIENTED_EDGE ( 'NONE', *, *, #159, .F. ) ;
#196 =( GEOMETRIC_REPRESENTATION_CONTEXT ( 3 ) GLOBAL_UNCERTAINTY_ASSIGNED_CONTEXT ( ( #82 ) ) GLOBAL_UNIT_ASSIGNED_CONTEXT ( ( #24, #122, #8 ) ) REPRESENTATION_CONTEXT ( 'NONE', 'WORKASPACE' ) );
#197 = ORIENTED_EDGE ( 'NONE', *, *, #37, .T. ) ;
#198 = CIRCLE ( 'NONE', #17, 1.899999999999995470 ) ;
#199 = VERTEX_POINT ( 'NONE', #188 ) ;
#200 = LINE ( 'NONE', #66, #150 ) ;
#201 = PRESENTATION_STYLE_ASSIGNMENT (( #81 ) ) ;
#202 = ORIENTED_EDGE ( 'NONE', *, *, #172, .F. ) ;
#203 = LINE ( 'NONE', #105, #138 ) ;
#204 = CARTESIAN_POINT ( 'NONE',  ( 0.000000000000000000, 0.8000000000000003775, 0.000000000000000000 ) ) ;
#205 = DIRECTION ( 'NONE',  ( -0.000000000000000000, 1.000000000000000000, -0.000000000000000000 ) ) ;
#206 =( LENGTH_UNIT ( ) NAMED_UNIT ( * ) SI_UNIT ( .MILLI., .METRE. ) );
#207 = AXIS2_PLACEMENT_3D ( 'NONE', #73, #117, #31 ) ;
#208 = CARTESIAN_POINT ( 'NONE',  ( 0.000000000000000000, 0.8000000000000003775, 0.000000000000000000 ) ) ;
#209 = DIRECTION ( 'NONE',  ( -0.000000000000000000, 1.000000000000000000, -0.000000000000000000 ) ) ;
#210 =( NAMED_UNIT ( * ) PLANE_ANGLE_UNIT ( ) SI_UNIT ( $, .RADIAN. ) );
#211 = AXIS2_PLACEMENT_3D ( 'NONE', #69, #224, #190 ) ;
#212 = CARTESIAN_POINT ( 'NONE',  ( 0.000000000000000000, 0.000000000000000000, 0.000000000000000000 ) ) ;
#213 = ADVANCED_FACE ( 'NONE', ( #186 ), #13, .T. ) ;
#214 = ORIENTED_EDGE ( 'NONE', *, *, #91, .F. ) ;
#215 = FACE_OUTER_BOUND ( 'NONE', #143, .T. ) ;
#216 = CARTESIAN_POINT ( 'NONE',  ( 0.000000000000000000, 0.000000000000000000, 1.899999999999999023 ) ) ;
#217 = AXIS2_PLACEMENT_3D ( 'NONE', #164, #10, #112 ) ;
#218 = ORIENTED_EDGE ( 'NONE', *, *, #222, .F. ) ;
#219 = ORIENTED_EDGE ( 'NONE', *, *, #29, .F. ) ;
#220 = CIRCLE ( 'NONE', #2, 1.899999999999999023 ) ;
#221 = DIRECTION ( 'NONE',  ( 0.000000000000000000, 0.000000000000000000, 1.000000000000000000 ) ) ;
#222 = EDGE_CURVE ( 'NONE', #146, #27, #198, .T. ) ;
#223 = CARTESIAN_POINT ( 'NONE',  ( 0.000000000000000000, 0.8000000000000003775, 0.000000000000000000 ) ) ;
#224 = DIRECTION ( 'NONE',  ( -0.000000000000000000, -1.000000000000000000, -0.000000000000000000 ) ) ;
#225 = CARTESIAN_POINT ( 'NONE',  ( 0.000000000000000000, 14.19999999999999574, -2.700000000000000178 ) ) ;
ENDSEC;
END-ISO-10303-21;
