ISO-10303-21;
HEADER;
FILE_DESCRIPTION (( 'STEP AP214' ),
    '1' );
FILE_NAME ('roller_connector_7mm.STEP',
    '2026-06-08T00:19:36',
    ( '' ),
    ( '' ),
    'SwSTEP 2.0',
    'SolidWorks 2025',
    '' );
FILE_SCHEMA (( 'AUTOMOTIVE_DESIGN' ));
ENDSEC;

DATA;
#1 = ADVANCED_FACE ( 'NONE', ( #205 ), #185, .T. ) ;
#2 = CIRCLE ( 'NONE', #159, 3.500000000000000000 ) ;
#3 = UNCERTAINTY_MEASURE_WITH_UNIT (LENGTH_MEASURE( 1.000000000000000082E-05 ), #154, 'distance_accuracy_value', 'NONE');
#4 = VECTOR ( 'NONE', #88, 1000.000000000000000 ) ;
#5 =( NAMED_UNIT ( * ) SI_UNIT ( $, .STERADIAN. ) SOLID_ANGLE_UNIT ( ) );
#6 = CONICAL_SURFACE ( 'NONE', #138, 2.699999999999997513, 0.7853981633974497223 ) ;
#7 = ORIENTED_EDGE ( 'NONE', *, *, #223, .F. ) ;
#8 = DIRECTION ( 'NONE',  ( 0.000000000000000000, 0.000000000000000000, 1.000000000000000000 ) ) ;
#9 = LINE ( 'NONE', #96, #209 ) ;
#10 = ADVANCED_FACE ( 'NONE', ( #78 ), #122, .T. ) ;
#11 = CARTESIAN_POINT ( 'NONE',  ( 0.000000000000000000, 14.19999999999999929, 0.000000000000000000 ) ) ;
#12 = DIRECTION ( 'NONE',  ( 0.000000000000000000, -0.000000000000000000, 1.000000000000000000 ) ) ;
#13 = CARTESIAN_POINT ( 'NONE',  ( 0.000000000000000000, 0.8000000000000020428, 0.000000000000000000 ) ) ;
#14 = APPLICATION_PROTOCOL_DEFINITION ( 'draft international standard', 'automotive_design', 1998, #81 ) ;
#15 = CYLINDRICAL_SURFACE ( 'NONE', #28, 3.500000000000000000 ) ;
#16 = STYLED_ITEM ( 'NONE', ( #134 ), #171 ) ;
#17 = DIRECTION ( 'NONE',  ( 0.000000000000000000, 0.000000000000000000, 1.000000000000000000 ) ) ;
#18 = SHAPE_DEFINITION_REPRESENTATION ( #137, #103 ) ;
#19 = AXIS2_PLACEMENT_3D ( 'NONE', #33, #168, #164 ) ;
#20 =( NAMED_UNIT ( * ) SI_UNIT ( $, .STERADIAN. ) SOLID_ANGLE_UNIT ( ) );
#21 = PRODUCT_DEFINITION_CONTEXT ( 'detailed design', #81, 'design' ) ;
#22 = EDGE_LOOP ( 'NONE', ( #157, #196, #106, #124 ) ) ;
#23 = ORIENTED_EDGE ( 'NONE', *, *, #32, .T. ) ;
#24 = ADVANCED_FACE ( 'NONE', ( #31 ), #15, .T. ) ;
#25 = CIRCLE ( 'NONE', #153, 3.500000000000000000 ) ;
#26 = FACE_OUTER_BOUND ( 'NONE', #86, .T. ) ;
#27 = CARTESIAN_POINT ( 'NONE',  ( 0.000000000000000000, 15.00000000000000000, -2.699999999999997513 ) ) ;
#28 = AXIS2_PLACEMENT_3D ( 'NONE', #151, #117, #190 ) ;
#29 = CARTESIAN_POINT ( 'NONE',  ( 0.000000000000000000, 0.000000000000000000, 0.000000000000000000 ) ) ;
#30 = DIRECTION ( 'NONE',  ( 0.000000000000000000, 0.000000000000000000, 1.000000000000000000 ) ) ;
#31 = FACE_OUTER_BOUND ( 'NONE', #45, .T. ) ;
#32 = EDGE_CURVE ( 'NONE', #39, #98, #66, .T. ) ;
#33 = CARTESIAN_POINT ( 'NONE',  ( 0.000000000000000000, 14.19999999999999929, 0.000000000000000000 ) ) ;
#34 = VERTEX_POINT ( 'NONE', #135 ) ;
#35 = APPLICATION_PROTOCOL_DEFINITION ( 'draft international standard', 'automotive_design', 1998, #121 ) ;
#36 = CIRCLE ( 'NONE', #141, 2.699999999999997513 ) ;
#37 = CIRCLE ( 'NONE', #87, 2.699999999999999289 ) ;
#38 = ORIENTED_EDGE ( 'NONE', *, *, #211, .T. ) ;
#39 = VERTEX_POINT ( 'NONE', #202 ) ;
#40 = EDGE_CURVE ( 'NONE', #50, #197, #113, .T. ) ;
#41 = CARTESIAN_POINT ( 'NONE',  ( 0.000000000000000000, 15.00000000000000000, 0.000000000000000000 ) ) ;
#42 = AXIS2_PLACEMENT_3D ( 'NONE', #11, #203, #30 ) ;
#43 = PRODUCT_DEFINITION ( 'UNKNOWN', '', #131, #21 ) ;
#44 = ORIENTED_EDGE ( 'NONE', *, *, #64, .F. ) ;
#45 = EDGE_LOOP ( 'NONE', ( #125, #23, #215, #38 ) ) ;
#46 = SURFACE_SIDE_STYLE ('',( #75 ) ) ;
#47 = DIRECTION ( 'NONE',  ( 0.000000000000000000, 0.000000000000000000, -1.000000000000000000 ) ) ;
#48 = ORIENTED_EDGE ( 'NONE', *, *, #160, .F. ) ;
#49 = VECTOR ( 'NONE', #189, 1000.000000000000000 ) ;
#50 = VERTEX_POINT ( 'NONE', #72 ) ;
#51 = ORIENTED_EDGE ( 'NONE', *, *, #223, .T. ) ;
#52 = DIRECTION ( 'NONE',  ( -0.000000000000000000, 1.000000000000000000, -0.000000000000000000 ) ) ;
#53 = ORIENTED_EDGE ( 'NONE', *, *, #152, .T. ) ;
#54 = CARTESIAN_POINT ( 'NONE',  ( 0.000000000000000000, 14.19999999999999929, -3.500000000000000000 ) ) ;
#55 = CARTESIAN_POINT ( 'NONE',  ( 0.000000000000000000, 15.00000000000000000, 0.000000000000000000 ) ) ;
#56 = CARTESIAN_POINT ( 'NONE',  ( 0.000000000000000000, 0.8000000000000020428, 0.000000000000000000 ) ) ;
#57 = SURFACE_STYLE_USAGE ( .BOTH. , #46 ) ;
#58 = DIRECTION ( 'NONE',  ( -0.000000000000000000, -1.000000000000000000, -0.000000000000000000 ) ) ;
#59 = EDGE_CURVE ( 'NONE', #197, #98, #115, .T. ) ;
#60 = VECTOR ( 'NONE', #220, 1000.000000000000000 ) ;
#61 = EDGE_LOOP ( 'NONE', ( #146, #150 ) ) ;
#62 = AXIS2_PLACEMENT_3D ( 'NONE', #80, #155, #224 ) ;
#63 = ORIENTED_EDGE ( 'NONE', *, *, #32, .F. ) ;
#64 = EDGE_CURVE ( 'NONE', #179, #82, #2, .T. ) ;
#65 = UNCERTAINTY_MEASURE_WITH_UNIT (LENGTH_MEASURE( 1.000000000000000082E-05 ), #201, 'distance_accuracy_value', 'NONE');
#66 = CIRCLE ( 'NONE', #19, 3.500000000000000000 ) ;
#67 = VERTEX_POINT ( 'NONE', #91 ) ;
#68 = COLOUR_RGB ( '',0.7921568627450980005, 0.8196078431372548767, 0.9333333333333333481 ) ;
#69 = CARTESIAN_POINT ( 'NONE',  ( 0.000000000000000000, 15.00000000000000000, -2.699999999999997513 ) ) ;
#70 = ORIENTED_EDGE ( 'NONE', *, *, #59, .F. ) ;
#71 = LINE ( 'NONE', #199, #193 ) ;
#72 = CARTESIAN_POINT ( 'NONE',  ( 3.796405077356793932E-16, 15.00000000000000000, 2.699999999999997513 ) ) ;
#73 = FACE_OUTER_BOUND ( 'NONE', #61, .T. ) ;
#74 = FACE_OUTER_BOUND ( 'NONE', #123, .T. ) ;
#75 = SURFACE_STYLE_FILL_AREA ( #129 ) ;
#76 = CARTESIAN_POINT ( 'NONE',  ( 4.286263797015736595E-16, 0.8000000000000020428, 3.500000000000000000 ) ) ;
#77 = ADVANCED_FACE ( 'NONE', ( #74 ), #162, .T. ) ;
#78 = FACE_OUTER_BOUND ( 'NONE', #97, .T. ) ;
#79 = CIRCLE ( 'NONE', #42, 3.500000000000000000 ) ;
#80 = CARTESIAN_POINT ( 'NONE',  ( 0.000000000000000000, 0.000000000000000000, 0.000000000000000000 ) ) ;
#81 = APPLICATION_CONTEXT ( 'automotive_design' ) ;
#82 = VERTEX_POINT ( 'NONE', #173 ) ;
#83 = CLOSED_SHELL ( 'NONE', ( #10, #77, #1, #24, #172, #156, #192, #101 ) ) ;
#84 = CARTESIAN_POINT ( 'NONE',  ( 0.000000000000000000, 0.8000000000000020428, 0.000000000000000000 ) ) ;
#85 = CONICAL_SURFACE ( 'NONE', #222, 3.500000000000000000, 0.7853981633974473908 ) ;
#86 = EDGE_LOOP ( 'NONE', ( #112, #48, #128, #63 ) ) ;
#87 = AXIS2_PLACEMENT_3D ( 'NONE', #29, #167, #186 ) ;
#88 = DIRECTION ( 'NONE',  ( 8.659560562354946417E-17, -0.7071067811865465735, 0.7071067811865485719 ) ) ;
#89 = EDGE_LOOP ( 'NONE', ( #7, #105, #53, #195 ) ) ;
#90 = LINE ( 'NONE', #165, #60 ) ;
#91 = CARTESIAN_POINT ( 'NONE',  ( 0.000000000000000000, 0.000000000000000000, 2.699999999999999289 ) ) ;
#92 = AXIS2_PLACEMENT_3D ( 'NONE', #55, #130, #166 ) ;
#93 = DIRECTION ( 'NONE',  ( 0.000000000000000000, -0.000000000000000000, 1.000000000000000000 ) ) ;
#94 = DIRECTION ( 'NONE',  ( 0.000000000000000000, 0.000000000000000000, -1.000000000000000000 ) ) ;
#95 = EDGE_CURVE ( 'NONE', #34, #67, #194, .T. ) ;
#96 = CARTESIAN_POINT ( 'NONE',  ( 0.000000000000000000, 0.8000000000000020428, 3.500000000000000000 ) ) ;
#97 = EDGE_LOOP ( 'NONE', ( #104, #109, #142, #70 ) ) ;
#98 = VERTEX_POINT ( 'NONE', #54 ) ;
#99 = DIRECTION ( 'NONE',  ( -0.000000000000000000, 1.000000000000000000, -0.000000000000000000 ) ) ;
#100 = VECTOR ( 'NONE', #170, 1000.000000000000000 ) ;
#101 = ADVANCED_FACE ( 'NONE', ( #26 ), #6, .T. ) ;
#102 =( GEOMETRIC_REPRESENTATION_CONTEXT ( 3 ) GLOBAL_UNCERTAINTY_ASSIGNED_CONTEXT ( ( #65 ) ) GLOBAL_UNIT_ASSIGNED_CONTEXT ( ( #201, #169, #5 ) ) REPRESENTATION_CONTEXT ( 'NONE', 'WORKASPACE' ) );
#103 = ADVANCED_BREP_SHAPE_REPRESENTATION ( 'roller_connector_7mm', ( #171, #119 ), #158 ) ;
#104 = ORIENTED_EDGE ( 'NONE', *, *, #40, .F. ) ;
#105 = ORIENTED_EDGE ( 'NONE', *, *, #126, .F. ) ;
#106 = ORIENTED_EDGE ( 'NONE', *, *, #64, .T. ) ;
#107 = DIRECTION ( 'NONE',  ( 0.000000000000000000, 0.7071067811865481278, 0.7071067811865470176 ) ) ;
#108 = AXIS2_PLACEMENT_3D ( 'NONE', #114, #163, #12 ) ;
#109 = ORIENTED_EDGE ( 'NONE', *, *, #187, .T. ) ;
#110 = FACE_OUTER_BOUND ( 'NONE', #140, .T. ) ;
#111 = DIRECTION ( 'NONE',  ( 0.000000000000000000, -1.000000000000000000, 0.000000000000000000 ) ) ;
#112 = ORIENTED_EDGE ( 'NONE', *, *, #187, .F. ) ;
#113 = CIRCLE ( 'NONE', #92, 2.699999999999997513 ) ;
#114 = CARTESIAN_POINT ( 'NONE',  ( 0.000000000000000000, 15.00000000000000000, 0.000000000000000000 ) ) ;
#115 = LINE ( 'NONE', #27, #100 ) ;
#116 = LINE ( 'NONE', #136, #4 ) ;
#117 = DIRECTION ( 'NONE',  ( -0.000000000000000000, -1.000000000000000000, -0.000000000000000000 ) ) ;
#118 = CARTESIAN_POINT ( 'NONE',  ( 0.000000000000000000, 0.000000000000000000, 0.000000000000000000 ) ) ;
#119 = AXIS2_PLACEMENT_3D ( 'NONE', #118, #191, #210 ) ;
#120 = PRESENTATION_LAYER_ASSIGNMENT (  '', '', ( #16 ) ) ;
#121 = APPLICATION_CONTEXT ( 'automotive_design' ) ;
#122 = CONICAL_SURFACE ( 'NONE', #219, 2.699999999999997513, 0.7853981633974497223 ) ;
#123 = EDGE_LOOP ( 'NONE', ( #143, #51, #44, #200 ) ) ;
#124 = ORIENTED_EDGE ( 'NONE', *, *, #182, .F. ) ;
#125 = ORIENTED_EDGE ( 'NONE', *, *, #176, .F. ) ;
#126 = EDGE_CURVE ( 'NONE', #67, #34, #37, .T. ) ;
#127 = DIRECTION ( 'NONE',  ( 0.000000000000000000, 0.000000000000000000, 1.000000000000000000 ) ) ;
#128 = ORIENTED_EDGE ( 'NONE', *, *, #59, .T. ) ;
#129 = FILL_AREA_STYLE ('',( #132 ) ) ;
#130 = DIRECTION ( 'NONE',  ( 0.000000000000000000, 1.000000000000000000, 0.000000000000000000 ) ) ;
#131 = PRODUCT_DEFINITION_FORMATION_WITH_SPECIFIED_SOURCE ( 'ANY', '', #204, .NOT_KNOWN. ) ;
#132 = FILL_AREA_STYLE_COLOUR ( '', #68 ) ;
#133 = PRODUCT_RELATED_PRODUCT_CATEGORY ( 'part', '', ( #204 ) ) ;
#134 = PRESENTATION_STYLE_ASSIGNMENT (( #57 ) ) ;
#135 = CARTESIAN_POINT ( 'NONE',  ( 3.796405077356794918E-16, 0.000000000000000000, -2.699999999999999289 ) ) ;
#136 = CARTESIAN_POINT ( 'NONE',  ( 3.306546357697850775E-16, 15.00000000000000000, 2.699999999999997513 ) ) ;
#137 = PRODUCT_DEFINITION_SHAPE ( 'NONE', 'NONE',  #43 ) ;
#138 = AXIS2_PLACEMENT_3D ( 'NONE', #41, #111, #149 ) ;
#139 = CARTESIAN_POINT ( 'NONE',  ( 0.000000000000000000, 15.00000000000000000, 0.000000000000000000 ) ) ;
#140 = EDGE_LOOP ( 'NONE', ( #178, #180 ) ) ;
#141 = AXIS2_PLACEMENT_3D ( 'NONE', #217, #214, #8 ) ;
#142 = ORIENTED_EDGE ( 'NONE', *, *, #144, .F. ) ;
#143 = ORIENTED_EDGE ( 'NONE', *, *, #95, .F. ) ;
#144 = EDGE_CURVE ( 'NONE', #98, #39, #79, .T. ) ;
#145 = DIRECTION ( 'NONE',  ( -0.000000000000000000, -1.000000000000000000, -0.000000000000000000 ) ) ;
#146 = ORIENTED_EDGE ( 'NONE', *, *, #126, .T. ) ;
#147 = DIRECTION ( 'NONE',  ( 0.000000000000000000, 0.000000000000000000, 1.000000000000000000 ) ) ;
#148 = DIRECTION ( 'NONE',  ( 0.000000000000000000, 0.000000000000000000, 1.000000000000000000 ) ) ;
#149 = DIRECTION ( 'NONE',  ( 0.000000000000000000, 0.000000000000000000, -1.000000000000000000 ) ) ;
#150 = ORIENTED_EDGE ( 'NONE', *, *, #95, .T. ) ;
#151 = CARTESIAN_POINT ( 'NONE',  ( 0.000000000000000000, 15.00000000000000000, 0.000000000000000000 ) ) ;
#152 = EDGE_CURVE ( 'NONE', #67, #179, #9, .T. ) ;
#153 = AXIS2_PLACEMENT_3D ( 'NONE', #213, #52, #127 ) ;
#154 =( LENGTH_UNIT ( ) NAMED_UNIT ( * ) SI_UNIT ( .MILLI., .METRE. ) );
#155 = DIRECTION ( 'NONE',  ( -0.000000000000000000, -1.000000000000000000, -0.000000000000000000 ) ) ;
#156 = ADVANCED_FACE ( 'NONE', ( #73 ), #181, .F. ) ;
#157 = ORIENTED_EDGE ( 'NONE', *, *, #144, .T. ) ;
#158 =( GEOMETRIC_REPRESENTATION_CONTEXT ( 3 ) GLOBAL_UNCERTAINTY_ASSIGNED_CONTEXT ( ( #3 ) ) GLOBAL_UNIT_ASSIGNED_CONTEXT ( ( #154, #208, #20 ) ) REPRESENTATION_CONTEXT ( 'NONE', 'WORKASPACE' ) );
#159 = AXIS2_PLACEMENT_3D ( 'NONE', #13, #221, #148 ) ;
#160 = EDGE_CURVE ( 'NONE', #197, #50, #36, .T. ) ;
#161 = DIRECTION ( 'NONE',  ( -0.000000000000000000, 1.000000000000000000, -0.000000000000000000 ) ) ;
#162 = CONICAL_SURFACE ( 'NONE', #206, 3.500000000000000000, 0.7853981633974473908 ) ;
#163 = DIRECTION ( 'NONE',  ( 0.000000000000000000, 1.000000000000000000, 0.000000000000000000 ) ) ;
#164 = DIRECTION ( 'NONE',  ( 0.000000000000000000, 0.000000000000000000, 1.000000000000000000 ) ) ;
#165 = CARTESIAN_POINT ( 'NONE',  ( 4.286263797015736595E-16, 15.00000000000000000, 3.500000000000000000 ) ) ;
#166 = DIRECTION ( 'NONE',  ( 0.000000000000000000, 0.000000000000000000, 1.000000000000000000 ) ) ;
#167 = DIRECTION ( 'NONE',  ( -0.000000000000000000, -1.000000000000000000, -0.000000000000000000 ) ) ;
#168 = DIRECTION ( 'NONE',  ( 0.000000000000000000, -1.000000000000000000, 0.000000000000000000 ) ) ;
#169 =( NAMED_UNIT ( * ) PLANE_ANGLE_UNIT ( ) SI_UNIT ( $, .RADIAN. ) );
#170 = DIRECTION ( 'NONE',  ( 0.000000000000000000, -0.7071067811865465735, -0.7071067811865485719 ) ) ;
#171 = MANIFOLD_SOLID_BREP ( 'Chamfer1', #83 ) ;
#172 = ADVANCED_FACE ( 'NONE', ( #110 ), #183, .T. ) ;
#173 = CARTESIAN_POINT ( 'NONE',  ( 0.000000000000000000, 0.8000000000000020428, -3.500000000000000000 ) ) ;
#174 = MECHANICAL_DESIGN_GEOMETRIC_PRESENTATION_REPRESENTATION (  '', ( #16 ), #102 ) ;
#175 = CARTESIAN_POINT ( 'NONE',  ( 4.286263797015736595E-16, 0.8000000000000020428, -3.500000000000000000 ) ) ;
#176 = EDGE_CURVE ( 'NONE', #39, #179, #90, .T. ) ;
#177 = AXIS2_PLACEMENT_3D ( 'NONE', #184, #216, #93 ) ;
#178 = ORIENTED_EDGE ( 'NONE', *, *, #160, .T. ) ;
#179 = VERTEX_POINT ( 'NONE', #76 ) ;
#180 = ORIENTED_EDGE ( 'NONE', *, *, #40, .T. ) ;
#181 = PLANE ( 'NONE',  #177 ) ;
#182 = EDGE_CURVE ( 'NONE', #98, #82, #71, .T. ) ;
#183 = PLANE ( 'NONE',  #108 ) ;
#184 = CARTESIAN_POINT ( 'NONE',  ( 0.000000000000000000, 0.000000000000000000, 0.000000000000000000 ) ) ;
#185 = CYLINDRICAL_SURFACE ( 'NONE', #212, 3.500000000000000000 ) ;
#186 = DIRECTION ( 'NONE',  ( 0.000000000000000000, 0.000000000000000000, 1.000000000000000000 ) ) ;
#187 = EDGE_CURVE ( 'NONE', #50, #39, #116, .T. ) ;
#188 = FACE_OUTER_BOUND ( 'NONE', #89, .T. ) ;
#189 = DIRECTION ( 'NONE',  ( 8.659560562354926695E-17, 0.7071067811865481278, -0.7071067811865470176 ) ) ;
#190 = DIRECTION ( 'NONE',  ( 0.000000000000000000, 0.000000000000000000, -1.000000000000000000 ) ) ;
#191 = DIRECTION ( 'NONE',  ( 0.000000000000000000, 0.000000000000000000, 1.000000000000000000 ) ) ;
#192 = ADVANCED_FACE ( 'NONE', ( #188 ), #85, .T. ) ;
#193 = VECTOR ( 'NONE', #145, 1000.000000000000000 ) ;
#194 = CIRCLE ( 'NONE', #62, 2.699999999999999289 ) ;
#195 = ORIENTED_EDGE ( 'NONE', *, *, #211, .F. ) ;
#196 = ORIENTED_EDGE ( 'NONE', *, *, #176, .T. ) ;
#197 = VERTEX_POINT ( 'NONE', #69 ) ;
#198 = LINE ( 'NONE', #175, #49 ) ;
#199 = CARTESIAN_POINT ( 'NONE',  ( 0.000000000000000000, 15.00000000000000000, -3.500000000000000000 ) ) ;
#200 = ORIENTED_EDGE ( 'NONE', *, *, #152, .F. ) ;
#201 =( LENGTH_UNIT ( ) NAMED_UNIT ( * ) SI_UNIT ( .MILLI., .METRE. ) );
#202 = CARTESIAN_POINT ( 'NONE',  ( 4.286263797015736595E-16, 14.19999999999999929, 3.500000000000000000 ) ) ;
#203 = DIRECTION ( 'NONE',  ( 0.000000000000000000, -1.000000000000000000, 0.000000000000000000 ) ) ;
#204 = PRODUCT ( 'roller_connector_7mm', 'roller_connector_7mm', '', ( #225 ) ) ;
#205 = FACE_OUTER_BOUND ( 'NONE', #22, .T. ) ;
#206 = AXIS2_PLACEMENT_3D ( 'NONE', #56, #99, #17 ) ;
#207 = DIRECTION ( 'NONE',  ( 0.000000000000000000, -1.000000000000000000, 0.000000000000000000 ) ) ;
#208 =( NAMED_UNIT ( * ) PLANE_ANGLE_UNIT ( ) SI_UNIT ( $, .RADIAN. ) );
#209 = VECTOR ( 'NONE', #107, 1000.000000000000000 ) ;
#210 = DIRECTION ( 'NONE',  ( 1.000000000000000000, 0.000000000000000000, 0.000000000000000000 ) ) ;
#211 = EDGE_CURVE ( 'NONE', #82, #179, #25, .T. ) ;
#212 = AXIS2_PLACEMENT_3D ( 'NONE', #139, #58, #94 ) ;
#213 = CARTESIAN_POINT ( 'NONE',  ( 0.000000000000000000, 0.8000000000000020428, 0.000000000000000000 ) ) ;
#214 = DIRECTION ( 'NONE',  ( 0.000000000000000000, 1.000000000000000000, 0.000000000000000000 ) ) ;
#215 = ORIENTED_EDGE ( 'NONE', *, *, #182, .T. ) ;
#216 = DIRECTION ( 'NONE',  ( 0.000000000000000000, 1.000000000000000000, 0.000000000000000000 ) ) ;
#217 = CARTESIAN_POINT ( 'NONE',  ( 0.000000000000000000, 15.00000000000000000, 0.000000000000000000 ) ) ;
#218 = CARTESIAN_POINT ( 'NONE',  ( 0.000000000000000000, 15.00000000000000000, 0.000000000000000000 ) ) ;
#219 = AXIS2_PLACEMENT_3D ( 'NONE', #218, #207, #47 ) ;
#220 = DIRECTION ( 'NONE',  ( -0.000000000000000000, -1.000000000000000000, -0.000000000000000000 ) ) ;
#221 = DIRECTION ( 'NONE',  ( -0.000000000000000000, 1.000000000000000000, -0.000000000000000000 ) ) ;
#222 = AXIS2_PLACEMENT_3D ( 'NONE', #84, #161, #147 ) ;
#223 = EDGE_CURVE ( 'NONE', #34, #82, #198, .T. ) ;
#224 = DIRECTION ( 'NONE',  ( 0.000000000000000000, 0.000000000000000000, 1.000000000000000000 ) ) ;
#225 = PRODUCT_CONTEXT ( 'NONE', #121, 'mechanical' ) ;
ENDSEC;
END-ISO-10303-21;
