ISO-10303-21;
HEADER;
FILE_DESCRIPTION (( 'STEP AP214' ),
    '1' );
FILE_NAME ('roller_iter2.STEP',
    '2026-05-22T21:48:06',
    ( '' ),
    ( '' ),
    'SwSTEP 2.0',
    'SolidWorks 2025',
    '' );
FILE_SCHEMA (( 'AUTOMOTIVE_DESIGN' ));
ENDSEC;

DATA;
#1 = VERTEX_POINT ( 'NONE', #706 ) ;
#2 = ORIENTED_EDGE ( 'NONE', *, *, #77, .F. ) ;
#3 = CARTESIAN_POINT ( 'NONE',  ( -28.12019416707063968, -50.16696045884155097, -9.525000000000000355 ) ) ;
#4 = CARTESIAN_POINT ( 'NONE',  ( 10.60000000000000142, -71.75499999999999545, 121.9199999999999875 ) ) ;
#5 = CARTESIAN_POINT ( 'NONE',  ( -21.90749999999988518, -37.94490306681524316, -9.525000000000000355 ) ) ;
#6 = ORIENTED_EDGE ( 'NONE', *, *, #773, .F. ) ;
#7 = EDGE_CURVE ( 'NONE', #1, #209, #593, .T. ) ;
#8 = EDGE_CURVE ( 'NONE', #109, #753, #273, .T. ) ;
#9 = CIRCLE ( 'NONE', #409, 2.700000000000001066 ) ;
#10 = VECTOR ( 'NONE', #668, 1000.000000000000000 ) ;
#11 = AXIS2_PLACEMENT_3D ( 'NONE', #861, #903, #499 ) ;
#12 = CYLINDRICAL_SURFACE ( 'NONE', #809, 2.540000000000000480 ) ;
#13 = CARTESIAN_POINT ( 'NONE',  ( 21.90750000000014808, -37.94490306681502290, 9.525000000000000355 ) ) ;
#14 = ORIENTED_EDGE ( 'NONE', *, *, #808, .F. ) ;
#15 = AXIS2_PLACEMENT_3D ( 'NONE', #250, #533, #896 ) ;
#16 = ADVANCED_FACE ( 'NONE', ( #864 ), #728, .T. ) ;
#17 = DIRECTION ( 'NONE',  ( 1.000000000000000000, 0.000000000000000000, 0.000000000000000000 ) ) ;
#18 = CARTESIAN_POINT ( 'NONE',  ( -2.699999999999998401, -66.99249999999999261, 112.3949999999999818 ) ) ;
#19 = DIRECTION ( 'NONE',  ( -0.000000000000000000, 1.000000000000000000, -0.000000000000000000 ) ) ;
#20 = ORIENTED_EDGE ( 'NONE', *, *, #536, .T. ) ;
#21 = VECTOR ( 'NONE', #291, 1000.000000000000000 ) ;
#22 = DIRECTION ( 'NONE',  ( 0.000000000000000000, 0.000000000000000000, 1.000000000000000000 ) ) ;
#23 = CARTESIAN_POINT ( 'NONE',  ( 25.08250000000014879, -37.94490306681501579, -9.525000000000000355 ) ) ;
#24 = DIRECTION ( 'NONE',  ( 1.000000000000000000, 0.000000000000000000, 0.000000000000000000 ) ) ;
#25 = CARTESIAN_POINT ( 'NONE',  ( 0.000000000000000000, 0.000000000000000000, 121.9199999999999875 ) ) ;
#26 = DIRECTION ( 'NONE',  ( -0.000000000000000000, -0.000000000000000000, 1.000000000000000000 ) ) ;
#27 = DIRECTION ( 'NONE',  ( -0.000000000000000000, -0.000000000000000000, 1.000000000000000000 ) ) ;
#28 = EDGE_LOOP ( 'NONE', ( #847, #616, #258, #452, #871, #352, #336, #186 ) ) ;
#29 = FACE_BOUND ( 'NONE', #915, .T. ) ;
#30 = DIRECTION ( 'NONE',  ( -0.000000000000000000, 0.000000000000000000, 1.000000000000000000 ) ) ;
#31 = CARTESIAN_POINT ( 'NONE',  ( -30.97366206079837170, -59.62541138463439694, 9.712302029344741072 ) ) ;
#32 = CARTESIAN_POINT ( 'NONE',  ( 0.000000000000000000, -45.72000000000000597, 9.525000000000000355 ) ) ;
#33 = EDGE_CURVE ( 'NONE', #414, #851, #858, .T. ) ;
#34 = LINE ( 'NONE', #543, #252 ) ;
#35 = ORIENTED_EDGE ( 'NONE', *, *, #433, .T. ) ;
#36 = CIRCLE ( 'NONE', #881, 3.175000000000000711 ) ;
#37 = ORIENTED_EDGE ( 'NONE', *, *, #766, .T. ) ;
#38 = MECHANICAL_DESIGN_GEOMETRIC_PRESENTATION_REPRESENTATION (  '', ( #275 ), #797 ) ;
#39 = CARTESIAN_POINT ( 'NONE',  ( 17.94124284093956945, -38.60179824691867623, -9.524999999999986144 ) ) ;
#40 = ORIENTED_EDGE ( 'NONE', *, *, #206, .F. ) ;
#41 = ADVANCED_FACE ( 'NONE', ( #100 ), #870, .F. ) ;
#42 = CARTESIAN_POINT ( 'NONE',  ( 25.08249999999988589, -37.94490306681525027, -9.524999999999986144 ) ) ;
#43 = DIRECTION ( 'NONE',  ( 1.000000000000000000, 0.000000000000000000, 0.000000000000000000 ) ) ;
#44 = CARTESIAN_POINT ( 'NONE',  ( -10.60000000000000142, -71.75499999999999545, 121.9199999999999875 ) ) ;
#45 = EDGE_LOOP ( 'NONE', ( #64, #121, #892, #205 ) ) ;
#46 = DIRECTION ( 'NONE',  ( 0.000000000000000000, 0.000000000000000000, 1.000000000000000000 ) ) ;
#47 = EDGE_CURVE ( 'NONE', #344, #114, #235, .T. ) ;
#48 = CARTESIAN_POINT ( 'NONE',  ( -17.94124284090468180, -38.60179824694679240, -9.524999999999984368 ) ) ;
#49 = EDGE_LOOP ( 'NONE', ( #776, #631, #546, #131 ) ) ;
#50 = B_SPLINE_CURVE_WITH_KNOTS ( 'NONE', 2,
 ( #873, #801, #23 ),
 .UNSPECIFIED., .F., .F.,
 ( 3, 3 ),
 ( 0.000000000000000000, 1.000000000000000000 ),
 .UNSPECIFIED. ) ;
#51 = VECTOR ( 'NONE', #216, 1000.000000000000000 ) ;
#52 = ADVANCED_FACE ( 'NONE', ( #298 ), #802, .F. ) ;
#53 = DIRECTION ( 'NONE',  ( -1.000000000000000000, -0.000000000000000000, -0.000000000000000000 ) ) ;
#54 = AXIS2_PLACEMENT_3D ( 'NONE', #460, #605, #465 ) ;
#55 = PLANE ( 'NONE',  #839 ) ;
#56 = ORIENTED_EDGE ( 'NONE', *, *, #198, .T. ) ;
#57 = EDGE_CURVE ( 'NONE', #822, #594, #450, .T. ) ;
#58 = CARTESIAN_POINT ( 'NONE',  ( -4.399999999999997691, -71.75499999999999545, 121.9199999999999875 ) ) ;
#59 = CARTESIAN_POINT ( 'NONE',  ( 0.000000000000000000, -66.99249999999999261, 121.9199999999999875 ) ) ;
#60 = ORIENTED_EDGE ( 'NONE', *, *, #866, .T. ) ;
#61 = DIRECTION ( 'NONE',  ( 0.000000000000000000, 0.000000000000000000, 1.000000000000000000 ) ) ;
#62 = CARTESIAN_POINT ( 'NONE',  ( -31.68902964760394170, -62.02726050881243225, 12.08306652980726525 ) ) ;
#63 = ORIENTED_EDGE ( 'NONE', *, *, #288, .F. ) ;
#64 = ORIENTED_EDGE ( 'NONE', *, *, #404, .T. ) ;
#65 = CIRCLE ( 'NONE', #138, 3.100000000000005418 ) ;
#66 = CARTESIAN_POINT ( 'NONE',  ( -17.94124284093919286, -38.60179824691896755, 9.525000000000000355 ) ) ;
#67 = ORIENTED_EDGE ( 'NONE', *, *, #736, .F. ) ;
#68 = EDGE_LOOP ( 'NONE', ( #918, #213, #63, #626, #865, #859, #624, #289 ) ) ;
#69 = FACE_OUTER_BOUND ( 'NONE', #45, .T. ) ;
#70 = FACE_OUTER_BOUND ( 'NONE', #135, .T. ) ;
#71 = DIRECTION ( 'NONE',  ( 0.000000000000000000, 1.000000000000000000, 0.000000000000000000 ) ) ;
#72 = VERTEX_POINT ( 'NONE', #224 ) ;
#73 = ORIENTED_EDGE ( 'NONE', *, *, #608, .F. ) ;
#74 = CARTESIAN_POINT ( 'NONE',  ( -10.11783180140549909, -44.90822650675855243, 9.525000000000002132 ) ) ;
#75 = ADVANCED_FACE ( 'NONE', ( #377 ), #667, .F. ) ;
#76 = CARTESIAN_POINT ( 'NONE',  ( 21.17499999999997229, -66.99249999999999261, 112.3949999999999818 ) ) ;
#77 = EDGE_CURVE ( 'NONE', #303, #190, #372, .T. ) ;
#78 = EDGE_LOOP ( 'NONE', ( #641, #93, #214, #676 ) ) ;
#79 = VERTEX_POINT ( 'NONE', #805 ) ;
#80 = CYLINDRICAL_SURFACE ( 'NONE', #130, 2.699999999999998401 ) ;
#81 = VECTOR ( 'NONE', #380, 1000.000000000000000 ) ;
#82 = FACE_OUTER_BOUND ( 'NONE', #177, .T. ) ;
#83 = DIRECTION ( 'NONE',  ( -0.000000000000000000, -0.000000000000000000, -1.000000000000000000 ) ) ;
#84 = EDGE_CURVE ( 'NONE', #428, #761, #828, .T. ) ;
#85 = DIRECTION ( 'NONE',  ( -0.000000000000000000, -0.000000000000000000, 1.000000000000000000 ) ) ;
#86 = AXIS2_PLACEMENT_3D ( 'NONE', #203, #488, #849 ) ;
#87 = EDGE_LOOP ( 'NONE', ( #489, #357 ) ) ;
#88 = CIRCLE ( 'NONE', #200, 2.700000000000001066 ) ;
#89 = CIRCLE ( 'NONE', #54, 2.699999999999998401 ) ;
#90 = DIRECTION ( 'NONE',  ( 1.000000000000000000, -2.731847993664262430E-15, 0.000000000000000000 ) ) ;
#91 = DIRECTION ( 'NONE',  ( -1.000000000000000000, 0.000000000000000000, 0.000000000000000000 ) ) ;
#92 = EDGE_LOOP ( 'NONE', ( #424, #814, #196, #420, #349 ) ) ;
#93 = ORIENTED_EDGE ( 'NONE', *, *, #318, .T. ) ;
#94 = B_SPLINE_CURVE_WITH_KNOTS ( 'NONE', 2,
 ( #215, #637, #714 ),
 .UNSPECIFIED., .F., .F.,
 ( 3, 3 ),
 ( 0.04848039707289689138, 1.000000000000000222 ),
 .UNSPECIFIED. ) ;
#95 = CYLINDRICAL_SURFACE ( 'NONE', #184, 3.100000000000005418 ) ;
#96 = CARTESIAN_POINT ( 'NONE',  ( 21.17499999999997229, -66.99249999999999261, 112.3949999999999818 ) ) ;
#97 = DIRECTION ( 'NONE',  ( 1.000000000000000000, 0.000000000000000000, 0.000000000000000000 ) ) ;
#98 = EDGE_CURVE ( 'NONE', #361, #398, #309, .T. ) ;
#99 = LINE ( 'NONE', #396, #410 ) ;
#100 = FACE_OUTER_BOUND ( 'NONE', #783, .T. ) ;
#101 = VERTEX_POINT ( 'NONE', #740 ) ;
#102 = CARTESIAN_POINT ( 'NONE',  ( -28.26822208353527799, -50.12720599612459438, 9.525000000000000355 ) ) ;
#103 = LINE ( 'NONE', #384, #10 ) ;
#104 = DIRECTION ( 'NONE',  ( 1.000000000000000000, 0.000000000000000000, 0.000000000000000000 ) ) ;
#105 = EDGE_CURVE ( 'NONE', #474, #344, #874, .T. ) ;
#106 = DIRECTION ( 'NONE',  ( 0.000000000000000000, 0.000000000000000000, 1.000000000000000000 ) ) ;
#107 = EDGE_CURVE ( 'NONE', #529, #851, #36, .T. ) ;
#108 = CARTESIAN_POINT ( 'NONE',  ( 31.50833261939675012, -61.42456356059883404, 10.97879765962274412 ) ) ;
#109 = VERTEX_POINT ( 'NONE', #584 ) ;
#110 = CARTESIAN_POINT ( 'NONE',  ( -25.08249999999988589, -37.94490306681525027, 9.525000000000000355 ) ) ;
#111 = AXIS2_PLACEMENT_3D ( 'NONE', #719, #378, #17 ) ;
#112 = AXIS2_PLACEMENT_3D ( 'NONE', #521, #166, #104 ) ;
#113 = EDGE_CURVE ( 'NONE', #529, #707, #547, .T. ) ;
#114 = VERTEX_POINT ( 'NONE', #163 ) ;
#115 = VECTOR ( 'NONE', #386, 1000.000000000000000 ) ;
#116 = DIRECTION ( 'NONE',  ( 0.000000000000000000, -1.000000000000000000, 0.000000000000000000 ) ) ;
#117 = DIRECTION ( 'NONE',  ( -1.000000000000000000, 0.000000000000000000, 0.000000000000000000 ) ) ;
#118 = VERTEX_POINT ( 'NONE', #590 ) ;
#119 = B_SPLINE_CURVE_WITH_KNOTS ( 'NONE', 3,
 ( #464, #595, #811, #673, #31, #884, #248, #746, #390, #496, #769, #621, #343, #62, #413, #917, #335, #422 ),
 .UNSPECIFIED., .F., .F.,
 ( 4, 2, 2, 2, 2, 2, 2, 2, 4 ),
 ( 7.949501638480626889E-18, 0.0007606824081579943199, 0.001521364816315980834, 0.002282047224473966913, 0.003042729632631953427, 0.003803412040789939941, 0.004564094448947926021, 0.005324776857105912968, 0.006085459265263899048 ),
 .UNSPECIFIED. ) ;
#120 = CARTESIAN_POINT ( 'NONE',  ( 0.000000000000000000, -45.72000000000000597, 9.525000000000000355 ) ) ;
#121 = ORIENTED_EDGE ( 'NONE', *, *, #510, .T. ) ;
#122 = EDGE_CURVE ( 'NONE', #498, #133, #573, .T. ) ;
#123 = CARTESIAN_POINT ( 'NONE',  ( 31.74999999999994316, -62.23000000000000398, -9.524999999999986144 ) ) ;
#124 = CARTESIAN_POINT ( 'NONE',  ( 0.000000000000000000, -66.99249999999999261, 112.3949999999999818 ) ) ;
#125 = EDGE_CURVE ( 'NONE', #919, #398, #368, .T. ) ;
#126 = ORIENTED_EDGE ( 'NONE', *, *, #713, .T. ) ;
#127 = AXIS2_PLACEMENT_3D ( 'NONE', #238, #579, #791 ) ;
#128 = AXIS2_PLACEMENT_3D ( 'NONE', #158, #857, #589 ) ;
#129 = DIRECTION ( 'NONE',  ( 1.000000000000000000, 0.000000000000000000, 0.000000000000000000 ) ) ;
#130 = AXIS2_PLACEMENT_3D ( 'NONE', #124, #618, #829 ) ;
#131 = ORIENTED_EDGE ( 'NONE', *, *, #608, .T. ) ;
#132 = PLANE ( 'NONE',  #513 ) ;
#133 = VERTEX_POINT ( 'NONE', #470 ) ;
#134 = CARTESIAN_POINT ( 'NONE',  ( -31.74999999999994316, -62.23000000000000398, 13.47216000000003966 ) ) ;
#135 = EDGE_LOOP ( 'NONE', ( #630, #394, #304, #566 ) ) ;
#136 = ORIENTED_EDGE ( 'NONE', *, *, #632, .T. ) ;
#137 = EDGE_CURVE ( 'NONE', #344, #428, #911, .T. ) ;
#138 = AXIS2_PLACEMENT_3D ( 'NONE', #506, #300, #582 ) ;
#139 = DIRECTION ( 'NONE',  ( 1.000000000000000000, 0.000000000000000000, 0.000000000000000000 ) ) ;
#140 = CARTESIAN_POINT ( 'NONE',  ( -31.74999999999994316, -62.23000000000000398, -9.525000000000000355 ) ) ;
#141 = DIRECTION ( 'NONE',  ( -0.000000000000000000, -0.000000000000000000, 1.000000000000000000 ) ) ;
#142 = ORIENTED_EDGE ( 'NONE', *, *, #471, .F. ) ;
#143 = ORIENTED_EDGE ( 'NONE', *, *, #7, .F. ) ;
#144 = DIRECTION ( 'NONE',  ( -0.000000000000000000, -0.000000000000000000, -1.000000000000000000 ) ) ;
#145 = EDGE_CURVE ( 'NONE', #782, #109, #899, .T. ) ;
#146 = EDGE_CURVE ( 'NONE', #209, #701, #581, .T. ) ;
#147 = CARTESIAN_POINT ( 'NONE',  ( -31.74999999999994316, -71.75499999999999545, -9.525000000000000355 ) ) ;
#148 = CARTESIAN_POINT ( 'NONE',  ( 25.08250000000014879, -37.94490306681501579, 9.525000000000000355 ) ) ;
#149 = EDGE_LOOP ( 'NONE', ( #672, #497, #56, #550 ) ) ;
#150 = SHAPE_DEFINITION_REPRESENTATION ( #613, #170 ) ;
#151 = EDGE_CURVE ( 'NONE', #716, #272, #34, .T. ) ;
#152 = DIRECTION ( 'NONE',  ( 1.000000000000000000, 0.000000000000000000, 0.000000000000000000 ) ) ;
#153 = FACE_OUTER_BOUND ( 'NONE', #827, .T. ) ;
#154 = CARTESIAN_POINT ( 'NONE',  ( 7.500000000000000000, -71.75499999999999545, 121.9199999999999875 ) ) ;
#155 = ORIENTED_EDGE ( 'NONE', *, *, #773, .T. ) ;
#156 = VECTOR ( 'NONE', #833, 1000.000000000000000 ) ;
#157 = AXIS2_PLACEMENT_3D ( 'NONE', #228, #800, #24 ) ;
#158 = CARTESIAN_POINT ( 'NONE',  ( -28.26822208353527799, -50.12720599612459438, -9.525000000000000355 ) ) ;
#159 = DIRECTION ( 'NONE',  ( -0.000000000000000000, -0.000000000000000000, -1.000000000000000000 ) ) ;
#160 = CIRCLE ( 'NONE', #913, 3.100000000000005418 ) ;
#161 = B_SPLINE_CURVE_WITH_KNOTS ( 'NONE', 2,
 ( #790, #731, #234 ),
 .UNSPECIFIED., .F., .F.,
 ( 3, 3 ),
 ( 0.000000000000000000, 0.9515196029270833744 ),
 .UNSPECIFIED. ) ;
#162 = DIRECTION ( 'NONE',  ( 0.000000000000000000, -0.000000000000000000, 1.000000000000000000 ) ) ;
#163 = CARTESIAN_POINT ( 'NONE',  ( 31.74999999999994316, -62.23000000000000398, -9.525000000000000355 ) ) ;
#164 = CARTESIAN_POINT ( 'NONE',  ( -21.90749999999988518, -37.94490306681524316, 9.525000000000000355 ) ) ;
#165 = LINE ( 'NONE', #148, #439 ) ;
#166 = DIRECTION ( 'NONE',  ( -0.000000000000000000, -0.000000000000000000, 1.000000000000000000 ) ) ;
#167 = FACE_OUTER_BOUND ( 'NONE', #149, .T. ) ;
#168 = CARTESIAN_POINT ( 'NONE',  ( 18.81843141372387151, -37.21122720563307240, -9.525000000000000355 ) ) ;
#169 = DIRECTION ( 'NONE',  ( -0.000000000000000000, 1.000000000000000000, -0.000000000000000000 ) ) ;
#170 = ADVANCED_BREP_SHAPE_REPRESENTATION ( 'roller_iter2', ( #553, #11 ), #726 ) ;
#171 = AXIS2_PLACEMENT_3D ( 'NONE', #679, #26, #43 ) ;
#172 = AXIS2_PLACEMENT_3D ( 'NONE', #537, #825, #674 ) ;
#173 = EDGE_CURVE ( 'NONE', #691, #456, #204, .T. ) ;
#174 = CARTESIAN_POINT ( 'NONE',  ( -17.94124284093914312, -38.60179824691901018, -9.525000000000000355 ) ) ;
#175 = CARTESIAN_POINT ( 'NONE',  ( 0.000000000000000000, -45.72000000000000597, -9.524999999999986144 ) ) ;
#176 = ORIENTED_EDGE ( 'NONE', *, *, #879, .T. ) ;
#177 = EDGE_LOOP ( 'NONE', ( #779, #35, #757, #534 ) ) ;
#178 = CIRCLE ( 'NONE', #296, 3.175000000000000711 ) ;
#179 = DIRECTION ( 'NONE',  ( 1.000000000000000000, 0.000000000000000000, 0.000000000000000000 ) ) ;
#180 = CARTESIAN_POINT ( 'NONE',  ( 30.69169332500073111, -58.66681944202253618, 9.525000000000000355 ) ) ;
#181 = B_SPLINE_SURFACE_WITH_KNOTS ( 'NONE', 2, 1, ( 
 ( #259, #123 ),
 ( #750, #399 ),
 ( #609, #42 ) ),
 .UNSPECIFIED., .F., .F., .F.,
 ( 3, 3 ),
 ( 2, 2 ),
 ( 0.000000000000000000, 1.000000000000000000 ),
 ( 0.000000000000000000, 1.000000000000000000 ),
 .UNSPECIFIED. ) ;
#182 = ORIENTED_EDGE ( 'NONE', *, *, #475, .T. ) ;
#183 = LINE ( 'NONE', #751, #294 ) ;
#184 = AXIS2_PLACEMENT_3D ( 'NONE', #375, #661, #22 ) ;
#185 = CARTESIAN_POINT ( 'NONE',  ( -18.47499999999996945, -66.99249999999999261, 121.9199999999999875 ) ) ;
#186 = ORIENTED_EDGE ( 'NONE', *, *, #693, .F. ) ;
#187 = UNCERTAINTY_MEASURE_WITH_UNIT (LENGTH_MEASURE( 1.000000000000000082E-05 ), #212, 'distance_accuracy_value', 'NONE');
#188 = CARTESIAN_POINT ( 'NONE',  ( 10.11783180142805705, -44.90822650675674765, 9.525000000000000355 ) ) ;
#189 = PRODUCT_RELATED_PRODUCT_CATEGORY ( 'part', '', ( #416 ) ) ;
#190 = VERTEX_POINT ( 'NONE', #185 ) ;
#191 = CARTESIAN_POINT ( 'NONE',  ( 31.74999999999994316, -62.23000000000000398, 121.9199999999999875 ) ) ;
#192 = FILL_AREA_STYLE ('',( #491 ) ) ;
#193 = ORIENTED_EDGE ( 'NONE', *, *, #122, .F. ) ;
#194 = DIRECTION ( 'NONE',  ( 1.000000000000000000, 0.000000000000000000, -0.000000000000000000 ) ) ;
#195 = DIRECTION ( 'NONE',  ( 0.000000000000000000, 0.000000000000000000, 1.000000000000000000 ) ) ;
#196 = ORIENTED_EDGE ( 'NONE', *, *, #47, .F. ) ;
#197 = VECTOR ( 'NONE', #455, 1000.000000000000000 ) ;
#198 = EDGE_CURVE ( 'NONE', #456, #599, #257, .T. ) ;
#199 = AXIS2_PLACEMENT_3D ( 'NONE', #395, #820, #328 ) ;
#200 = AXIS2_PLACEMENT_3D ( 'NONE', #249, #106, #179 ) ;
#201 = FACE_OUTER_BOUND ( 'NONE', #830, .T. ) ;
#202 = AXIS2_PLACEMENT_3D ( 'NONE', #556, #333, #577 ) ;
#203 = CARTESIAN_POINT ( 'NONE',  ( -7.500000000000000000, -71.75499999999999545, 121.9199999999999307 ) ) ;
#204 = LINE ( 'NONE', #759, #775 ) ;
#205 = ORIENTED_EDGE ( 'NONE', *, *, #831, .T. ) ;
#206 = EDGE_CURVE ( 'NONE', #656, #786, #178, .T. ) ;
#207 = CARTESIAN_POINT ( 'NONE',  ( -28.12019416707063968, -50.16696045884155097, 13.47216000000003966 ) ) ;
#208 = ORIENTED_EDGE ( 'NONE', *, *, #240, .F. ) ;
#209 = VERTEX_POINT ( 'NONE', #887 ) ;
#210 = DIRECTION ( 'NONE',  ( 1.000000000000000000, 0.000000000000000000, 0.000000000000000000 ) ) ;
#211 = DIRECTION ( 'NONE',  ( -0.000000000000000000, -0.000000000000000000, 1.000000000000000000 ) ) ;
#212 =( LENGTH_UNIT ( ) NAMED_UNIT ( * ) SI_UNIT ( .MILLI., .METRE. ) );
#213 = ORIENTED_EDGE ( 'NONE', *, *, #476, .T. ) ;
#214 = ORIENTED_EDGE ( 'NONE', *, *, #765, .T. ) ;
#215 = CARTESIAN_POINT ( 'NONE',  ( 17.94124284093952326, -38.60179824691869754, 9.525000000000000355 ) ) ;
#216 = DIRECTION ( 'NONE',  ( -1.000000000000000000, -0.000000000000000000, -0.000000000000000000 ) ) ;
#217 = ORIENTED_EDGE ( 'NONE', *, *, #536, .F. ) ;
#218 = AXIS2_PLACEMENT_3D ( 'NONE', #316, #243, #210 ) ;
#219 = EDGE_LOOP ( 'NONE', ( #251, #60, #792, #408 ) ) ;
#220 = EDGE_CURVE ( 'NONE', #691, #467, #397, .T. ) ;
#221 =( LENGTH_UNIT ( ) NAMED_UNIT ( * ) SI_UNIT ( .MILLI., .METRE. ) );
#222 = CARTESIAN_POINT ( 'NONE',  ( 21.17499999999997229, -66.99249999999999261, 112.3949999999999818 ) ) ;
#223 = DIRECTION ( 'NONE',  ( 0.000000000000000000, 0.000000000000000000, 1.000000000000000000 ) ) ;
#224 = CARTESIAN_POINT ( 'NONE',  ( 4.399999999999997691, -71.75499999999999545, 121.9199999999999875 ) ) ;
#225 = ORIENTED_EDGE ( 'NONE', *, *, #314, .F. ) ;
#226 = B_SPLINE_SURFACE_WITH_KNOTS ( 'NONE', 2, 1, ( 
 ( #120, #400 ),
 ( #74, #353 ),
 ( #494, #48 ) ),
 .UNSPECIFIED., .F., .F., .F.,
 ( 3, 3 ),
 ( 2, 2 ),
 ( 0.000000000000000000, 0.9515196029249815002 ),
 ( 0.000000000000000000, 1.000000000000000000 ),
 .UNSPECIFIED. ) ;
#227 = DIRECTION ( 'NONE',  ( -0.000000000000000000, -0.000000000000000000, -1.000000000000000000 ) ) ;
#228 = CARTESIAN_POINT ( 'NONE',  ( -16.34717654470241044, -36.62428651668768964, -9.525000000000000355 ) ) ;
#229 = AXIS2_PLACEMENT_3D ( 'NONE', #222, #789, #152 ) ;
#230 = DIRECTION ( 'NONE',  ( -1.000000000000000000, 0.000000000000000000, 0.000000000000000000 ) ) ;
#231 = DIRECTION ( 'NONE',  ( -0.000000000000000000, -0.000000000000000000, -1.000000000000000000 ) ) ;
#232 = CARTESIAN_POINT ( 'NONE',  ( -31.74999999999994316, -62.23000000000000398, 9.525000000000000355 ) ) ;
#233 = DIRECTION ( 'NONE',  ( 0.000000000000000000, 0.000000000000000000, 1.000000000000000000 ) ) ;
#234 = CARTESIAN_POINT ( 'NONE',  ( -17.94124284093919286, -38.60179824691896755, 9.525000000000000355 ) ) ;
#235 = LINE ( 'NONE', #447, #197 ) ;
#236 = CARTESIAN_POINT ( 'NONE',  ( -31.74999999999994316, -62.23000000000000398, 121.9199999999999875 ) ) ;
#237 = CARTESIAN_POINT ( 'NONE',  ( -2.699999999999998401, -66.99249999999999261, 121.9199999999999875 ) ) ;
#238 = CARTESIAN_POINT ( 'NONE',  ( 0.000000000000000000, -66.99249999999999261, 121.9199999999999875 ) ) ;
#239 = ORIENTED_EDGE ( 'NONE', *, *, #84, .T. ) ;
#240 = EDGE_CURVE ( 'NONE', #101, #303, #415, .T. ) ;
#241 = ADVANCED_FACE ( 'NONE', ( #818 ), #541, .F. ) ;
#242 = AXIS2_PLACEMENT_3D ( 'NONE', #13, #508, #91 ) ;
#243 = DIRECTION ( 'NONE',  ( 0.000000000000000000, 0.000000000000000000, 1.000000000000000000 ) ) ;
#244 = ORIENTED_EDGE ( 'NONE', *, *, #476, .F. ) ;
#245 = CIRCLE ( 'NONE', #569, 2.700000000000001066 ) ;
#246 = ADVANCED_FACE ( 'NONE', ( #429 ), #625, .T. ) ;
#247 = AXIS2_PLACEMENT_3D ( 'NONE', #804, #454, #739 ) ;
#248 = CARTESIAN_POINT ( 'NONE',  ( -31.17324542902685280, -60.29981083770679362, 10.01188863938605778 ) ) ;
#249 = CARTESIAN_POINT ( 'NONE',  ( 21.17499999999997229, -66.99249999999999261, 121.9199999999999875 ) ) ;
#250 = CARTESIAN_POINT ( 'NONE',  ( -21.17499999999997229, -66.99249999999999261, 112.3949999999999818 ) ) ;
#251 = ORIENTED_EDGE ( 'NONE', *, *, #877, .F. ) ;
#252 = VECTOR ( 'NONE', #321, 1000.000000000000000 ) ;
#253 = CARTESIAN_POINT ( 'NONE',  ( 21.17499999999997229, -66.99249999999999261, 121.9199999999999875 ) ) ;
#254 = CARTESIAN_POINT ( 'NONE',  ( 30.76295576299006740, -58.90972686934325964, 9.548757598625490672 ) ) ;
#255 = ORIENTED_EDGE ( 'NONE', *, *, #146, .T. ) ;
#256 = CARTESIAN_POINT ( 'NONE',  ( -23.87499999999997158, -66.99249999999999261, 121.9199999999999875 ) ) ;
#257 = LINE ( 'NONE', #338, #576 ) ;
#258 = ORIENTED_EDGE ( 'NONE', *, *, #879, .F. ) ;
#259 = CARTESIAN_POINT ( 'NONE',  ( 31.74999999999994316, -62.23000000000000398, 13.47216000000003966 ) ) ;
#260 = DIRECTION ( 'NONE',  ( -0.000000000000000000, -0.000000000000000000, 1.000000000000000000 ) ) ;
#261 = DIRECTION ( 'NONE',  ( -0.000000000000000000, 1.000000000000000000, -0.000000000000000000 ) ) ;
#262 = EDGE_LOOP ( 'NONE', ( #612, #664, #710, #265 ) ) ;
#263 = CARTESIAN_POINT ( 'NONE',  ( 31.71163237015539593, -62.10244181194664748, 12.32441108028518428 ) ) ;
#264 = DIRECTION ( 'NONE',  ( -1.000000000000000000, 0.000000000000000000, 0.000000000000000000 ) ) ;
#265 = ORIENTED_EDGE ( 'NONE', *, *, #803, .T. ) ;
#266 = ADVANCED_FACE ( 'NONE', ( #920 ), #132, .F. ) ;
#267 = EDGE_CURVE ( 'NONE', #851, #716, #844, .T. ) ;
#268 = PRODUCT_DEFINITION_CONTEXT ( 'detailed design', #278, 'design' ) ;
#269 = CARTESIAN_POINT ( 'NONE',  ( 0.000000000000000000, -45.72000000000000597, 9.525000000000000355 ) ) ;
#270 = DIRECTION ( 'NONE',  ( 0.000000000000000000, 0.000000000000000000, 1.000000000000000000 ) ) ;
#271 = AXIS2_PLACEMENT_3D ( 'NONE', #426, #211, #694 ) ;
#272 = VERTEX_POINT ( 'NONE', #147 ) ;
#273 = CIRCLE ( 'NONE', #127, 2.699999999999998401 ) ;
#274 = EDGE_CURVE ( 'NONE', #1, #370, #94, .T. ) ;
#275 = STYLED_ITEM ( 'NONE', ( #347 ), #553 ) ;
#276 = LINE ( 'NONE', #781, #156 ) ;
#277 = CARTESIAN_POINT ( 'NONE',  ( -31.74999999999994316, -71.75499999999999545, 121.9199999999999875 ) ) ;
#278 = APPLICATION_CONTEXT ( 'automotive_design' ) ;
#279 = EDGE_LOOP ( 'NONE', ( #545, #451 ) ) ;
#280 = ORIENTED_EDGE ( 'NONE', *, *, #837, .F. ) ;
#281 = DIRECTION ( 'NONE',  ( -0.000000000000000000, -0.000000000000000000, 1.000000000000000000 ) ) ;
#282 = CARTESIAN_POINT ( 'NONE',  ( 0.000000000000000000, -45.72000000000000597, -9.525000000000000355 ) ) ;
#283 = B_SPLINE_CURVE_WITH_KNOTS ( 'NONE', 2,
 ( #282, #495, #558 ),
 .UNSPECIFIED., .F., .F.,
 ( 3, 3 ),
 ( 0.000000000000000000, 0.9515196029270833744 ),
 .UNSPECIFIED. ) ;
#284 = ORIENTED_EDGE ( 'NONE', *, *, #274, .T. ) ;
#285 = ORIENTED_EDGE ( 'NONE', *, *, #274, .F. ) ;
#286 = CARTESIAN_POINT ( 'NONE',  ( -31.74999999999994316, -71.75499999999999545, -9.525000000000000355 ) ) ;
#287 = CARTESIAN_POINT ( 'NONE',  ( -31.74999999999994316, -62.23000000000000398, 121.9199999999999875 ) ) ;
#288 = EDGE_CURVE ( 'NONE', #361, #72, #359, .T. ) ;
#289 = ORIENTED_EDGE ( 'NONE', *, *, #669, .F. ) ;
#290 = EDGE_LOOP ( 'NONE', ( #688, #402, #37, #193 ) ) ;
#291 = DIRECTION ( 'NONE',  ( 1.000000000000000000, 0.000000000000000000, 0.000000000000000000 ) ) ;
#292 = CIRCLE ( 'NONE', #457, 2.700000000000001066 ) ;
#293 = DIRECTION ( 'NONE',  ( 0.000000000000000000, 0.000000000000000000, 1.000000000000000000 ) ) ;
#294 = VECTOR ( 'NONE', #116, 1000.000000000000000 ) ;
#295 = ORIENTED_EDGE ( 'NONE', *, *, #505, .T. ) ;
#296 = AXIS2_PLACEMENT_3D ( 'NONE', #752, #615, #117 ) ;
#297 = CARTESIAN_POINT ( 'NONE',  ( 16.34717654470276571, -36.62428651668749779, 3.469446951953614189E-15 ) ) ;
#298 = FACE_OUTER_BOUND ( 'NONE', #683, .T. ) ;
#299 = ORIENTED_EDGE ( 'NONE', *, *, #810, .F. ) ;
#300 = DIRECTION ( 'NONE',  ( 0.000000000000000000, 1.000000000000000000, -0.000000000000000000 ) ) ;
#301 = DIRECTION ( 'NONE',  ( -0.000000000000000000, -0.000000000000000000, 1.000000000000000000 ) ) ;
#302 = CARTESIAN_POINT ( 'NONE',  ( -25.08249999999988589, -37.94490306681525027, 9.525000000000000355 ) ) ;
#303 = VERTEX_POINT ( 'NONE', #548 ) ;
#304 = ORIENTED_EDGE ( 'NONE', *, *, #77, .T. ) ;
#305 = AXIS2_PLACEMENT_3D ( 'NONE', #25, #310, #591 ) ;
#306 = EDGE_CURVE ( 'NONE', #272, #419, #912, .T. ) ;
#307 = FACE_BOUND ( 'NONE', #279, .T. ) ;
#308 = LINE ( 'NONE', #360, #651 ) ;
#309 = LINE ( 'NONE', #437, #763 ) ;
#310 = DIRECTION ( 'NONE',  ( -0.000000000000000000, 0.000000000000000000, 1.000000000000000000 ) ) ;
#311 = CARTESIAN_POINT ( 'NONE',  ( 0.000000000000000000, -45.72000000000000597, 9.525000000000000355 ) ) ;
#312 = EDGE_CURVE ( 'NONE', #646, #716, #848, .T. ) ;
#313 = DIRECTION ( 'NONE',  ( -0.000000000000000000, -0.000000000000000000, -1.000000000000000000 ) ) ;
#314 = EDGE_CURVE ( 'NONE', #344, #646, #500, .T. ) ;
#315 = CARTESIAN_POINT ( 'NONE',  ( -18.81843141372360861, -37.21122720563329267, -9.525000000000000355 ) ) ;
#316 = CARTESIAN_POINT ( 'NONE',  ( -21.90749999999988518, -37.94490306681524316, 9.525000000000000355 ) ) ;
#317 = ORIENTED_EDGE ( 'NONE', *, *, #702, .T. ) ;
#318 = EDGE_CURVE ( 'NONE', #622, #382, #643, .T. ) ;
#319 = VECTOR ( 'NONE', #313, 1000.000000000000000 ) ;
#320 = CARTESIAN_POINT ( 'NONE',  ( -27.64097858058705270, -48.23885312511220747, 9.525000000000000355 ) ) ;
#321 = DIRECTION ( 'NONE',  ( 0.000000000000000000, -1.000000000000000000, 0.000000000000000000 ) ) ;
#322 = VECTOR ( 'NONE', #141, 1000.000000000000000 ) ;
#323 = ORIENTED_EDGE ( 'NONE', *, *, #47, .T. ) ;
#324 = VECTOR ( 'NONE', #83, 1000.000000000000000 ) ;
#325 = DIRECTION ( 'NONE',  ( 0.000000000000000000, 1.000000000000000000, 0.000000000000000000 ) ) ;
#326 = CARTESIAN_POINT ( 'NONE',  ( 2.699999999999998401, -66.99249999999999261, 112.3949999999999818 ) ) ;
#327 = ORIENTED_EDGE ( 'NONE', *, *, #837, .T. ) ;
#328 = DIRECTION ( 'NONE',  ( 1.000000000000000000, 0.000000000000000000, 0.000000000000000000 ) ) ;
#329 = FACE_BOUND ( 'NONE', #841, .T. ) ;
#330 = DIRECTION ( 'NONE',  ( 0.000000000000000000, -1.000000000000000000, 0.000000000000000000 ) ) ;
#331 = EDGE_LOOP ( 'NONE', ( #681, #483, #717, #427 ) ) ;
#332 = DIRECTION ( 'NONE',  ( 1.000000000000000000, 0.000000000000000000, -0.000000000000000000 ) ) ;
#333 = DIRECTION ( 'NONE',  ( 0.000000000000000000, 0.000000000000000000, 1.000000000000000000 ) ) ;
#334 = CARTESIAN_POINT ( 'NONE',  ( 31.74999999999994316, -62.23000000000000398, 13.33500000000004171 ) ) ;
#335 = CARTESIAN_POINT ( 'NONE',  ( -31.74999999999995026, -62.23000000000001108, 13.08126023940729432 ) ) ;
#336 = ORIENTED_EDGE ( 'NONE', *, *, #475, .F. ) ;
#337 = CIRCLE ( 'NONE', #812, 2.700000000000001066 ) ;
#338 = CARTESIAN_POINT ( 'NONE',  ( -31.74999999999994316, -62.23000000000000398, 121.9199999999999875 ) ) ;
#339 = CARTESIAN_POINT ( 'NONE',  ( 31.74999999999994316, -62.23000000000000398, 9.525000000000000355 ) ) ;
#340 = EDGE_CURVE ( 'NONE', #419, #114, #276, .T. ) ;
#341 = ORIENTED_EDGE ( 'NONE', *, *, #7, .T. ) ;
#342 = DIRECTION ( 'NONE',  ( 0.000000000000000000, 0.000000000000000000, 1.000000000000000000 ) ) ;
#343 = CARTESIAN_POINT ( 'NONE',  ( -31.63005537465033612, -61.83083770783076005, 11.61865157294145945 ) ) ;
#344 = VERTEX_POINT ( 'NONE', #412 ) ;
#345 = ADVANCED_FACE ( 'NONE', ( #70 ), #482, .F. ) ;
#346 = CARTESIAN_POINT ( 'NONE',  ( -31.74999999999994316, -62.23000000000000398, 9.525000000000000355 ) ) ;
#347 = PRESENTATION_STYLE_ASSIGNMENT (( #709 ) ) ;
#348 = AXIS2_PLACEMENT_3D ( 'NONE', #628, #342, #908 ) ;
#349 = ORIENTED_EDGE ( 'NONE', *, *, #765, .F. ) ;
#350 = VERTEX_POINT ( 'NONE', #66 ) ;
#351 = CARTESIAN_POINT ( 'NONE',  ( -30.61948598484417872, -58.42000000000000881, 9.525000000000000355 ) ) ;
#352 = ORIENTED_EDGE ( 'NONE', *, *, #125, .F. ) ;
#353 = CARTESIAN_POINT ( 'NONE',  ( -10.11783180140549909, -44.90822650675855243, -9.524999999999984368 ) ) ;
#354 = DIRECTION ( 'NONE',  ( -1.000000000000000000, 0.000000000000000000, 0.000000000000000000 ) ) ;
#355 = CYLINDRICAL_SURFACE ( 'NONE', #485, 3.809999999999999165 ) ;
#356 = ORIENTED_EDGE ( 'NONE', *, *, #808, .T. ) ;
#357 = ORIENTED_EDGE ( 'NONE', *, *, #240, .T. ) ;
#358 = LINE ( 'NONE', #712, #369 ) ;
#359 = LINE ( 'NONE', #784, #823 ) ;
#360 = CARTESIAN_POINT ( 'NONE',  ( -31.74999999999994316, -71.75499999999999545, 121.9199999999999875 ) ) ;
#361 = VERTEX_POINT ( 'NONE', #58 ) ;
#362 = ORIENTED_EDGE ( 'NONE', *, *, #113, .F. ) ;
#363 = VECTOR ( 'NONE', #479, 1000.000000000000000 ) ;
#364 = EDGE_CURVE ( 'NONE', #190, #770, #793, .T. ) ;
#365 = CARTESIAN_POINT ( 'NONE',  ( 31.74999999999994316, -71.75499999999999545, -9.525000000000000355 ) ) ;
#366 = VECTOR ( 'NONE', #610, 1000.000000000000000 ) ;
#367 = FACE_OUTER_BOUND ( 'NONE', #68, .T. ) ;
#368 = LINE ( 'NONE', #655, #532 ) ;
#369 = VECTOR ( 'NONE', #144, 1000.000000000000000 ) ;
#370 = VERTEX_POINT ( 'NONE', #269 ) ;
#371 = CARTESIAN_POINT ( 'NONE',  ( -31.74999999999994316, -62.23000000000000398, -9.525000000000000355 ) ) ;
#372 = LINE ( 'NONE', #732, #81 ) ;
#373 = EDGE_LOOP ( 'NONE', ( #67, #299, #745, #480 ) ) ;
#374 = ADVANCED_FACE ( 'NONE', ( #201 ), #549, .F. ) ;
#375 = CARTESIAN_POINT ( 'NONE',  ( -7.500000000000000000, -71.75499999999999545, 121.9199999999999307 ) ) ;
#376 = CARTESIAN_POINT ( 'NONE',  ( -16.34717654470241044, -36.62428651668768964, 9.525000000000000355 ) ) ;
#377 = FACE_OUTER_BOUND ( 'NONE', #585, .T. ) ;
#378 = DIRECTION ( 'NONE',  ( -0.000000000000000000, 0.000000000000000000, 1.000000000000000000 ) ) ;
#379 = CARTESIAN_POINT ( 'NONE',  ( -25.08249999999988589, -37.94490306681525027, -9.525000000000000355 ) ) ;
#380 = DIRECTION ( 'NONE',  ( -0.000000000000000000, -0.000000000000000000, 1.000000000000000000 ) ) ;
#381 = VERTEX_POINT ( 'NONE', #351 ) ;
#382 = VERTEX_POINT ( 'NONE', #633 ) ;
#383 = B_SPLINE_CURVE_WITH_KNOTS ( 'NONE', 2,
 ( #110, #320, #387 ),
 .UNSPECIFIED., .F., .F.,
 ( 3, 3 ),
 ( 0.000000000000000000, 0.8422436360847691539 ),
 .UNSPECIFIED. ) ;
#384 = CARTESIAN_POINT ( 'NONE',  ( -18.81843141372360861, -37.21122720563329267, 9.525000000000000355 ) ) ;
#385 = DIRECTION ( 'NONE',  ( -0.000000000000000000, -0.000000000000000000, -1.000000000000000000 ) ) ;
#386 = DIRECTION ( 'NONE',  ( 0.000000000000000000, 0.000000000000000000, 1.000000000000000000 ) ) ;
#387 = CARTESIAN_POINT ( 'NONE',  ( -30.61948598484417872, -58.42000000000000881, 9.525000000000000355 ) ) ;
#388 = ORIENTED_EDGE ( 'NONE', *, *, #862, .T. ) ;
#389 = VECTOR ( 'NONE', #816, 1000.000000000000000 ) ;
#390 = CARTESIAN_POINT ( 'NONE',  ( -31.35434242073376865, -60.90884195815201707, 10.43951971040715065 ) ) ;
#391 = CARTESIAN_POINT ( 'NONE',  ( 18.47499999999996945, -66.99249999999999261, 112.3949999999999818 ) ) ;
#392 = CARTESIAN_POINT ( 'NONE',  ( 31.46050708188399270, -61.26463179588300534, 10.78819605271035620 ) ) ;
#393 = CIRCLE ( 'NONE', #199, 2.540000000000000480 ) ;
#394 = ORIENTED_EDGE ( 'NONE', *, *, #860, .F. ) ;
#395 = CARTESIAN_POINT ( 'NONE',  ( 16.34717654470276571, -36.62428651668749779, -9.525000000000000355 ) ) ;
#396 = CARTESIAN_POINT ( 'NONE',  ( -28.26822208353527799, -58.42000000000000171, 9.525000000000000355 ) ) ;
#397 = LINE ( 'NONE', #44, #815 ) ;
#398 = VERTEX_POINT ( 'NONE', #708 ) ;
#399 = CARTESIAN_POINT ( 'NONE',  ( 28.12019416707064678, -50.16696045884153676, -9.524999999999986144 ) ) ;
#400 = CARTESIAN_POINT ( 'NONE',  ( 0.000000000000000000, -45.72000000000000597, -9.524999999999986144 ) ) ;
#401 = CARTESIAN_POINT ( 'NONE',  ( 31.10882317895055493, -60.08251779036807250, 9.897996684682187407 ) ) ;
#402 = ORIENTED_EDGE ( 'NONE', *, *, #57, .T. ) ;
#403 = CARTESIAN_POINT ( 'NONE',  ( -21.17499999999997229, -66.99249999999999261, 112.3949999999999818 ) ) ;
#404 = EDGE_CURVE ( 'NONE', #701, #707, #283, .T. ) ;
#405 = ADVANCED_FACE ( 'NONE', ( #588 ), #872, .T. ) ;
#406 = FACE_OUTER_BOUND ( 'NONE', #539, .T. ) ;
#407 = CARTESIAN_POINT ( 'NONE',  ( 31.17324542902684925, -60.29981083770677230, 10.01188863938604889 ) ) ;
#408 = ORIENTED_EDGE ( 'NONE', *, *, #33, .F. ) ;
#409 = AXIS2_PLACEMENT_3D ( 'NONE', #96, #223, #507 ) ;
#410 = VECTOR ( 'NONE', #682, 1000.000000000000000 ) ;
#411 = ADVANCED_FACE ( 'NONE', ( #29, #725 ), #518, .T. ) ;
#412 = CARTESIAN_POINT ( 'NONE',  ( 31.74999999999994316, -62.23000000000000398, 13.33500000000004171 ) ) ;
#413 = CARTESIAN_POINT ( 'NONE',  ( -31.71163237015540304, -62.10244181194664748, 12.32441108028519672 ) ) ;
#414 = VERTEX_POINT ( 'NONE', #653 ) ;
#415 = CIRCLE ( 'NONE', #15, 2.700000000000001066 ) ;
#416 = PRODUCT ( 'roller_iter2', 'roller_iter2', '', ( #788 ) ) ;
#417 = CARTESIAN_POINT ( 'NONE',  ( -25.08249999999988589, -37.94490306681525027, -9.525000000000000355 ) ) ;
#418 = LINE ( 'NONE', #699, #322 ) ;
#419 = VERTEX_POINT ( 'NONE', #365 ) ;
#420 = ORIENTED_EDGE ( 'NONE', *, *, #105, .F. ) ;
#421 = DIRECTION ( 'NONE',  ( 1.000000000000000000, 0.000000000000000000, 0.000000000000000000 ) ) ;
#422 = CARTESIAN_POINT ( 'NONE',  ( -31.74999999999994316, -62.23000000000000398, 13.33500000000004171 ) ) ;
#423 = ORIENTED_EDGE ( 'NONE', *, *, #151, .F. ) ;
#424 = ORIENTED_EDGE ( 'NONE', *, *, #669, .T. ) ;
#425 = PLANE ( 'NONE',  #202 ) ;
#426 = CARTESIAN_POINT ( 'NONE',  ( -21.17499999999997229, -66.99249999999999261, 112.3949999999999818 ) ) ;
#427 = ORIENTED_EDGE ( 'NONE', *, *, #145, .F. ) ;
#428 = VERTEX_POINT ( 'NONE', #856 ) ;
#429 = FACE_OUTER_BOUND ( 'NONE', #855, .T. ) ;
#430 = CARTESIAN_POINT ( 'NONE',  ( -17.94124284093919286, -38.60179824691896755, -9.525000000000000355 ) ) ;
#431 = ORIENTED_EDGE ( 'NONE', *, *, #601, .T. ) ;
#432 = ADVANCED_FACE ( 'NONE', ( #434 ), #657, .F. ) ;
#433 = EDGE_CURVE ( 'NONE', #398, #691, #65, .T. ) ;
#434 = FACE_OUTER_BOUND ( 'NONE', #290, .T. ) ;
#435 = ADVANCED_FACE ( 'NONE', ( #523 ), #868, .T. ) ;
#436 = DIRECTION ( 'NONE',  ( -0.000000000000000000, -0.000000000000000000, -1.000000000000000000 ) ) ;
#437 = CARTESIAN_POINT ( 'NONE',  ( -4.399999999999997691, -71.75499999999999545, 121.9199999999999875 ) ) ;
#438 = ORIENTED_EDGE ( 'NONE', *, *, #645, .F. ) ;
#439 = VECTOR ( 'NONE', #231, 1000.000000000000000 ) ;
#440 = CIRCLE ( 'NONE', #652, 2.540000000000000480 ) ;
#441 = DIRECTION ( 'NONE',  ( 1.000000000000000000, 0.000000000000000000, 0.000000000000000000 ) ) ;
#442 = ADVANCED_FACE ( 'NONE', ( #82 ), #95, .F. ) ;
#443 = DIRECTION ( 'NONE',  ( 1.000000000000000000, 0.000000000000000000, -0.000000000000000000 ) ) ;
#444 = ORIENTED_EDGE ( 'NONE', *, *, #404, .F. ) ;
#445 = PRODUCT_DEFINITION_FORMATION_WITH_SPECIFIED_SOURCE ( 'ANY', '', #416, .NOT_KNOWN. ) ;
#446 = DIRECTION ( 'NONE',  ( 1.000000000000000000, 0.000000000000000000, -0.000000000000000000 ) ) ;
#447 = CARTESIAN_POINT ( 'NONE',  ( 31.74999999999994316, -62.23000000000000398, 9.525000000000000355 ) ) ;
#448 = ORIENTED_EDGE ( 'NONE', *, *, #636, .F. ) ;
#449 = CARTESIAN_POINT ( 'NONE',  ( -31.74999999999994316, -71.75499999999999545, 9.525000000000000355 ) ) ;
#450 = LINE ( 'NONE', #876, #514 ) ;
#451 = ORIENTED_EDGE ( 'NONE', *, *, #702, .F. ) ;
#452 = ORIENTED_EDGE ( 'NONE', *, *, #173, .F. ) ;
#453 = ADVANCED_FACE ( 'NONE', ( #307, #167 ), #665, .T. ) ;
#454 = DIRECTION ( 'NONE',  ( 0.000000000000000000, 0.000000000000000000, 1.000000000000000000 ) ) ;
#455 = DIRECTION ( 'NONE',  ( -0.000000000000000000, -0.000000000000000000, -1.000000000000000000 ) ) ;
#456 = VERTEX_POINT ( 'NONE', #236 ) ;
#457 = AXIS2_PLACEMENT_3D ( 'NONE', #501, #785, #516 ) ;
#458 = CIRCLE ( 'NONE', #172, 2.699999999999998401 ) ;
#459 = CARTESIAN_POINT ( 'NONE',  ( 23.87499999999997158, -66.99249999999999261, 112.3949999999999818 ) ) ;
#460 = CARTESIAN_POINT ( 'NONE',  ( 0.000000000000000000, -66.99249999999999261, 112.3949999999999818 ) ) ;
#461 = CARTESIAN_POINT ( 'NONE',  ( 30.90364361214316702, -59.38802108649277045, 9.641979677198033727 ) ) ;
#462 = ORIENTED_EDGE ( 'NONE', *, *, #84, .F. ) ;
#463 = ORIENTED_EDGE ( 'NONE', *, *, #645, .T. ) ;
#464 = CARTESIAN_POINT ( 'NONE',  ( -30.61948598484417872, -58.42000000000000881, 9.525000000000000355 ) ) ;
#465 = DIRECTION ( 'NONE',  ( 1.000000000000000000, 0.000000000000000000, 0.000000000000000000 ) ) ;
#466 = CARTESIAN_POINT ( 'NONE',  ( 17.94124284093952326, -38.60179824691869754, -9.525000000000000355 ) ) ;
#467 = VERTEX_POINT ( 'NONE', #617 ) ;
#468 = AXIS2_PLACEMENT_3D ( 'NONE', #76, #61, #194 ) ;
#469 = FACE_OUTER_BOUND ( 'NONE', #598, .T. ) ;
#470 = CARTESIAN_POINT ( 'NONE',  ( 23.87499999999997158, -66.99249999999999261, 121.9199999999999875 ) ) ;
#471 = EDGE_CURVE ( 'NONE', #599, #272, #689, .T. ) ;
#472 = VERTEX_POINT ( 'NONE', #603 ) ;
#473 = CARTESIAN_POINT ( 'NONE',  ( 31.29571610489440658, -60.71200722679105866, 10.28156574117945254 ) ) ;
#474 = VERTEX_POINT ( 'NONE', #191 ) ;
#475 = EDGE_CURVE ( 'NONE', #79, #919, #160, .T. ) ;
#476 = EDGE_CURVE ( 'NONE', #622, #72, #604, .T. ) ;
#477 = FACE_OUTER_BOUND ( 'NONE', #331, .T. ) ;
#478 = CARTESIAN_POINT ( 'NONE',  ( 31.68902964760393459, -62.02726050881240383, 12.08306652980726348 ) ) ;
#479 = DIRECTION ( 'NONE',  ( 0.000000000000000000, 0.000000000000000000, 1.000000000000000000 ) ) ;
#480 = ORIENTED_EDGE ( 'NONE', *, *, #8, .T. ) ;
#481 = AXIS2_PLACEMENT_3D ( 'NONE', #232, #443, #517 ) ;
#482 = CYLINDRICAL_SURFACE ( 'NONE', #271, 2.700000000000001066 ) ;
#483 = ORIENTED_EDGE ( 'NONE', *, *, #736, .T. ) ;
#484 = CIRCLE ( 'NONE', #86, 3.100000000000005418 ) ;
#485 = AXIS2_PLACEMENT_3D ( 'NONE', #639, #446, #654 ) ;
#486 = AXIS2_PLACEMENT_3D ( 'NONE', #253, #880, #747 ) ;
#487 = DIRECTION ( 'NONE',  ( -0.000000000000000000, -0.000000000000000000, -1.000000000000000000 ) ) ;
#488 = DIRECTION ( 'NONE',  ( 0.000000000000000000, 1.000000000000000000, -0.000000000000000000 ) ) ;
#489 = ORIENTED_EDGE ( 'NONE', *, *, #860, .T. ) ;
#490 = CARTESIAN_POINT ( 'NONE',  ( -31.74999999999994316, -71.75499999999999545, 121.9199999999999875 ) ) ;
#491 = FILL_AREA_STYLE_COLOUR ( '', #649 ) ;
#492 = ORIENTED_EDGE ( 'NONE', *, *, #151, .T. ) ;
#493 = ORIENTED_EDGE ( 'NONE', *, *, #306, .F. ) ;
#494 = CARTESIAN_POINT ( 'NONE',  ( -17.94124284090468180, -38.60179824694679240, 9.525000000000002132 ) ) ;
#495 = CARTESIAN_POINT ( 'NONE',  ( -10.11783180142784744, -44.90822650675676186, -9.525000000000000355 ) ) ;
#496 = CARTESIAN_POINT ( 'NONE',  ( -31.46050708188399270, -61.26463179588299113, 10.78819605271036863 ) ) ;
#497 = ORIENTED_EDGE ( 'NONE', *, *, #173, .T. ) ;
#498 = VERTEX_POINT ( 'NONE', #459 ) ;
#499 = DIRECTION ( 'NONE',  ( 1.000000000000000000, 0.000000000000000000, 0.000000000000000000 ) ) ;
#500 = LINE ( 'NONE', #767, #910 ) ;
#501 = CARTESIAN_POINT ( 'NONE',  ( -21.17499999999997229, -66.99249999999999261, 121.9199999999999875 ) ) ;
#502 = EDGE_LOOP ( 'NONE', ( #280, #20, #225, #878 ) ) ;
#503 = ORIENTED_EDGE ( 'NONE', *, *, #107, .F. ) ;
#504 = ADVANCED_FACE ( 'NONE', ( #824 ), #181, .F. ) ;
#505 = EDGE_CURVE ( 'NONE', #209, #786, #393, .T. ) ;
#506 = CARTESIAN_POINT ( 'NONE',  ( -7.500000000000000000, -62.23000000000000398, 121.9199999999999307 ) ) ;
#507 = DIRECTION ( 'NONE',  ( 1.000000000000000000, 0.000000000000000000, 0.000000000000000000 ) ) ;
#508 = DIRECTION ( 'NONE',  ( -0.000000000000000000, -0.000000000000000000, -1.000000000000000000 ) ) ;
#509 = ORIENTED_EDGE ( 'NONE', *, *, #636, .T. ) ;
#510 = EDGE_CURVE ( 'NONE', #707, #350, #893, .T. ) ;
#511 = CARTESIAN_POINT ( 'NONE',  ( 21.17499999999997229, -66.99249999999999261, 112.3949999999999818 ) ) ;
#512 = CARTESIAN_POINT ( 'NONE',  ( 17.94124284093948063, -38.60179824691874728, 9.525000000000003908 ) ) ;
#513 = AXIS2_PLACEMENT_3D ( 'NONE', #916, #563, #853 ) ;
#514 = VECTOR ( 'NONE', #27, 1000.000000000000000 ) ;
#515 = PRESENTATION_LAYER_ASSIGNMENT (  '', '', ( #275 ) ) ;
#516 = DIRECTION ( 'NONE',  ( 1.000000000000000000, 0.000000000000000000, 0.000000000000000000 ) ) ;
#517 = DIRECTION ( 'NONE',  ( -0.000000000000000000, 0.000000000000000000, -1.000000000000000000 ) ) ;
#518 = PLANE ( 'NONE',  #111 ) ;
#519 = PRODUCT_DEFINITION ( 'UNKNOWN', '', #445, #268 ) ;
#520 = PLANE ( 'NONE',  #842 ) ;
#521 = CARTESIAN_POINT ( 'NONE',  ( -21.17499999999997229, -66.99249999999999261, 112.3949999999999818 ) ) ;
#522 = ORIENTED_EDGE ( 'NONE', *, *, #267, .F. ) ;
#523 = FACE_OUTER_BOUND ( 'NONE', #219, .T. ) ;
#524 = DIRECTION ( 'NONE',  ( 1.000000000000000000, 0.000000000000000000, 0.000000000000000000 ) ) ;
#525 = DIRECTION ( 'NONE',  ( 0.000000000000000000, 0.000000000000000000, 1.000000000000000000 ) ) ;
#526 = FACE_OUTER_BOUND ( 'NONE', #87, .T. ) ;
#527 = CARTESIAN_POINT ( 'NONE',  ( 25.08250000000014879, -37.94490306681501579, 9.525000000000000355 ) ) ;
#528 = AXIS2_PLACEMENT_3D ( 'NONE', #376, #227, #90 ) ;
#529 = VERTEX_POINT ( 'NONE', #315 ) ;
#530 = ADVANCED_FACE ( 'NONE', ( #526 ), #685, .T. ) ;
#531 = CARTESIAN_POINT ( 'NONE',  ( 0.000000000000000000, 0.000000000000000000, 121.9199999999999875 ) ) ;
#532 = VECTOR ( 'NONE', #826, 1000.000000000000000 ) ;
#533 = DIRECTION ( 'NONE',  ( 0.000000000000000000, 0.000000000000000000, 1.000000000000000000 ) ) ;
#534 = ORIENTED_EDGE ( 'NONE', *, *, #575, .F. ) ;
#535 = DIRECTION ( 'NONE',  ( 0.000000000000000000, 1.000000000000000000, 0.000000000000000000 ) ) ;
#536 = EDGE_CURVE ( 'NONE', #381, #646, #119, .T. ) ;
#537 = CARTESIAN_POINT ( 'NONE',  ( 0.000000000000000000, -66.99249999999999261, 112.3949999999999818 ) ) ;
#538 = CARTESIAN_POINT ( 'NONE',  ( 2.699999999999998401, -66.99249999999999261, 112.3949999999999818 ) ) ;
#539 = EDGE_LOOP ( 'NONE', ( #574, #554 ) ) ;
#540 = CARTESIAN_POINT ( 'NONE',  ( 16.34717654470276571, -36.62428651668749779, 9.525000000000000355 ) ) ;
#541 = CYLINDRICAL_SURFACE ( 'NONE', #627, 2.540000000000000480 ) ;
#542 = ORIENTED_EDGE ( 'NONE', *, *, #505, .F. ) ;
#543 = CARTESIAN_POINT ( 'NONE',  ( -31.74999999999994316, -62.23000000000000398, -9.525000000000000355 ) ) ;
#544 = FACE_OUTER_BOUND ( 'NONE', #92, .T. ) ;
#545 = ORIENTED_EDGE ( 'NONE', *, *, #364, .F. ) ;
#546 = ORIENTED_EDGE ( 'NONE', *, *, #862, .F. ) ;
#547 = CIRCLE ( 'NONE', #157, 2.540000000000000480 ) ;
#548 = CARTESIAN_POINT ( 'NONE',  ( -18.47499999999996945, -66.99249999999999261, 112.3949999999999818 ) ) ;
#549 = B_SPLINE_SURFACE_WITH_KNOTS ( 'NONE', 2, 1, ( 
 ( #698, #843 ),
 ( #207, #777 ),
 ( #134, #704 ) ),
 .UNSPECIFIED., .F., .F., .F.,
 ( 3, 3 ),
 ( 2, 2 ),
 ( 0.000000000000000000, 1.000000000000000000 ),
 ( 0.000000000000000000, 1.000000000000000000 ),
 .UNSPECIFIED. ) ;
#550 = ORIENTED_EDGE ( 'NONE', *, *, #619, .T. ) ;
#551 = AXIS2_PLACEMENT_3D ( 'NONE', #898, #325, #754 ) ;
#552 = CARTESIAN_POINT ( 'NONE',  ( -16.34717654470241044, -36.62428651668768964, 3.469446951953559757E-15 ) ) ;
#553 = MANIFOLD_SOLID_BREP ( 'Fillet3', #836 ) ;
#554 = ORIENTED_EDGE ( 'NONE', *, *, #799, .T. ) ;
#555 = ORIENTED_EDGE ( 'NONE', *, *, #146, .F. ) ;
#556 = CARTESIAN_POINT ( 'NONE',  ( 0.000000000000000000, -66.99249999999999261, 112.3949999999999818 ) ) ;
#557 = EDGE_CURVE ( 'NONE', #753, #109, #678, .T. ) ;
#558 = CARTESIAN_POINT ( 'NONE',  ( -17.94124284093919286, -38.60179824691896755, -9.525000000000000355 ) ) ;
#559 = CARTESIAN_POINT ( 'NONE',  ( 18.81843141372387151, -37.21122720563307240, 9.525000000000000355 ) ) ;
#560 = ORIENTED_EDGE ( 'NONE', *, *, #832, .F. ) ;
#561 = EDGE_LOOP ( 'NONE', ( #560, #565, #723, #902 ) ) ;
#562 = APPLICATION_PROTOCOL_DEFINITION ( 'draft international standard', 'automotive_design', 1998, #640 ) ;
#563 = DIRECTION ( 'NONE',  ( 0.000000000000000000, -1.000000000000000000, 0.000000000000000000 ) ) ;
#564 = CARTESIAN_POINT ( 'NONE',  ( 25.08250000000014879, -37.94490306681501579, -9.525000000000000355 ) ) ;
#565 = ORIENTED_EDGE ( 'NONE', *, *, #125, .T. ) ;
#566 = ORIENTED_EDGE ( 'NONE', *, *, #364, .T. ) ;
#567 = EDGE_CURVE ( 'NONE', #622, #79, #690, .T. ) ;
#568 = EDGE_CURVE ( 'NONE', #786, #472, #905, .T. ) ;
#569 = AXIS2_PLACEMENT_3D ( 'NONE', #511, #794, #441 ) ;
#570 = AXIS2_PLACEMENT_3D ( 'NONE', #635, #281, #139 ) ;
#571 = DIRECTION ( 'NONE',  ( 1.000000000000000000, 0.000000000000000000, -0.000000000000000000 ) ) ;
#572 = PLANE ( 'NONE',  #128 ) ;
#573 = LINE ( 'NONE', #722, #677 ) ;
#574 = ORIENTED_EDGE ( 'NONE', *, *, #810, .T. ) ;
#575 = EDGE_CURVE ( 'NONE', #361, #467, #484, .T. ) ;
#576 = VECTOR ( 'NONE', #904, 1000.000000000000000 ) ;
#577 = DIRECTION ( 'NONE',  ( 1.000000000000000000, 0.000000000000000000, -0.000000000000000000 ) ) ;
#578 = DIRECTION ( 'NONE',  ( -1.000000000000000000, 0.000000000000000000, 0.000000000000000000 ) ) ;
#579 = DIRECTION ( 'NONE',  ( 0.000000000000000000, 0.000000000000000000, 1.000000000000000000 ) ) ;
#580 = ORIENTED_EDGE ( 'NONE', *, *, #568, .F. ) ;
#581 = B_SPLINE_CURVE_WITH_KNOTS ( 'NONE', 2,
 ( #466, #744, #623 ),
 .UNSPECIFIED., .F., .F.,
 ( 3, 3 ),
 ( 0.04848039707289689138, 1.000000000000000222 ),
 .UNSPECIFIED. ) ;
#582 = DIRECTION ( 'NONE',  ( 0.000000000000000000, 0.000000000000000000, -1.000000000000000000 ) ) ;
#583 = FACE_OUTER_BOUND ( 'NONE', #373, .T. ) ;
#584 = CARTESIAN_POINT ( 'NONE',  ( 2.699999999999998401, -66.99249999999999261, 121.9199999999999875 ) ) ;
#585 = EDGE_LOOP ( 'NONE', ( #906, #182, #696, #244 ) ) ;
#586 = VECTOR ( 'NONE', #129, 1000.000000000000000 ) ;
#587 = VERTEX_POINT ( 'NONE', #760 ) ;
#588 = FACE_OUTER_BOUND ( 'NONE', #897, .T. ) ;
#589 = DIRECTION ( 'NONE',  ( 1.000000000000000000, 0.000000000000000000, -0.000000000000000000 ) ) ;
#590 = CARTESIAN_POINT ( 'NONE',  ( -18.81843141372360861, -37.21122720563329267, 9.525000000000000355 ) ) ;
#591 = DIRECTION ( 'NONE',  ( 1.000000000000000000, 0.000000000000000000, 0.000000000000000000 ) ) ;
#592 = DIRECTION ( 'NONE',  ( 1.000000000000000000, 0.000000000000000000, 0.000000000000000000 ) ) ;
#593 = LINE ( 'NONE', #512, #721 ) ;
#594 = VERTEX_POINT ( 'NONE', #629 ) ;
#595 = CARTESIAN_POINT ( 'NONE',  ( -30.69169332500072400, -58.66681944202252197, 9.525000000000000355 ) ) ;
#596 = PLANE ( 'NONE',  #692 ) ;
#597 = EDGE_CURVE ( 'NONE', #101, #770, #418, .T. ) ;
#598 = EDGE_LOOP ( 'NONE', ( #285, #341, #255, #671 ) ) ;
#599 = VERTEX_POINT ( 'NONE', #277 ) ;
#600 = ADVANCED_FACE ( 'NONE', ( #544 ), #55, .F. ) ;
#601 = EDGE_CURVE ( 'NONE', #370, #350, #161, .T. ) ;
#602 = VECTOR ( 'NONE', #385, 1000.000000000000000 ) ;
#603 = CARTESIAN_POINT ( 'NONE',  ( 18.81843141372387151, -37.21122720563307240, 9.525000000000000355 ) ) ;
#604 = CIRCLE ( 'NONE', #551, 3.100000000000005418 ) ;
#605 = DIRECTION ( 'NONE',  ( 0.000000000000000000, 0.000000000000000000, 1.000000000000000000 ) ) ;
#606 = CIRCLE ( 'NONE', #486, 2.700000000000001066 ) ;
#607 = EDGE_LOOP ( 'NONE', ( #463, #73, #462, #642, #323 ) ) ;
#608 = EDGE_CURVE ( 'NONE', #761, #656, #165, .T. ) ;
#609 = CARTESIAN_POINT ( 'NONE',  ( 25.08249999999988589, -37.94490306681525027, 13.47216000000003966 ) ) ;
#610 = DIRECTION ( 'NONE',  ( -0.000000000000000000, 1.000000000000000000, -0.000000000000000000 ) ) ;
#611 = CARTESIAN_POINT ( 'NONE',  ( 31.63005537465033612, -61.83083770783071742, 11.61865157294145412 ) ) ;
#612 = ORIENTED_EDGE ( 'NONE', *, *, #57, .F. ) ;
#613 = PRODUCT_DEFINITION_SHAPE ( 'NONE', 'NONE',  #519 ) ;
#614 = FACE_OUTER_BOUND ( 'NONE', #561, .T. ) ;
#615 = DIRECTION ( 'NONE',  ( 0.000000000000000000, 0.000000000000000000, 1.000000000000000000 ) ) ;
#616 = ORIENTED_EDGE ( 'NONE', *, *, #314, .T. ) ;
#617 = CARTESIAN_POINT ( 'NONE',  ( -10.60000000000000142, -71.75499999999999545, 121.9199999999999875 ) ) ;
#618 = DIRECTION ( 'NONE',  ( -0.000000000000000000, -0.000000000000000000, 1.000000000000000000 ) ) ;
#619 = EDGE_CURVE ( 'NONE', #599, #467, #308, .T. ) ;
#620 = CARTESIAN_POINT ( 'NONE',  ( 31.74234081841786193, -62.20455317612105262, 12.82625161412006243 ) ) ;
#621 = CARTESIAN_POINT ( 'NONE',  ( -31.59311180565831023, -61.70768550106841843, 11.39329567015422207 ) ) ;
#622 = VERTEX_POINT ( 'NONE', #4 ) ;
#623 = CARTESIAN_POINT ( 'NONE',  ( 0.000000000000000000, -45.72000000000000597, -9.525000000000000355 ) ) ;
#624 = ORIENTED_EDGE ( 'NONE', *, *, #306, .T. ) ;
#625 = PLANE ( 'NONE',  #468 ) ;
#626 = ORIENTED_EDGE ( 'NONE', *, *, #575, .T. ) ;
#627 = AXIS2_PLACEMENT_3D ( 'NONE', #552, #487, #354 ) ;
#628 = CARTESIAN_POINT ( 'NONE',  ( -21.17499999999997229, -66.99249999999999261, 121.9199999999999875 ) ) ;
#629 = CARTESIAN_POINT ( 'NONE',  ( 18.47499999999996945, -66.99249999999999261, 121.9199999999999875 ) ) ;
#630 = ORIENTED_EDGE ( 'NONE', *, *, #597, .F. ) ;
#631 = ORIENTED_EDGE ( 'NONE', *, *, #568, .T. ) ;
#632 = EDGE_CURVE ( 'NONE', #822, #498, #9, .T. ) ;
#633 = CARTESIAN_POINT ( 'NONE',  ( 31.74999999999994316, -71.75499999999999545, 121.9199999999999875 ) ) ;
#634 = ORIENTED_EDGE ( 'NONE', *, *, #866, .F. ) ;
#635 = CARTESIAN_POINT ( 'NONE',  ( 21.17499999999997229, -66.99249999999999261, 112.3949999999999818 ) ) ;
#636 = EDGE_CURVE ( 'NONE', #350, #118, #883, .T. ) ;
#637 = CARTESIAN_POINT ( 'NONE',  ( 10.11783180142805705, -44.90822650675674765, 9.525000000000000355 ) ) ;
#638 = ADVANCED_FACE ( 'NONE', ( #662 ), #572, .F. ) ;
#639 = CARTESIAN_POINT ( 'NONE',  ( -28.26822208353527799, -58.42000000000000171, 13.33499999999999908 ) ) ;
#640 = APPLICATION_CONTEXT ( 'automotive_design' ) ;
#641 = ORIENTED_EDGE ( 'NONE', *, *, #567, .F. ) ;
#642 = ORIENTED_EDGE ( 'NONE', *, *, #137, .F. ) ;
#643 = LINE ( 'NONE', #490, #586 ) ;
#644 = DIRECTION ( 'NONE',  ( 1.000000000000000000, 0.000000000000000000, 0.000000000000000000 ) ) ;
#645 = EDGE_CURVE ( 'NONE', #114, #656, #50, .T. ) ;
#646 = VERTEX_POINT ( 'NONE', #798 ) ;
#647 = ORIENTED_EDGE ( 'NONE', *, *, #803, .F. ) ;
#648 = ADVANCED_FACE ( 'NONE', ( #153 ), #12, .F. ) ;
#649 = COLOUR_RGB ( '',0.7921568627450980005, 0.8196078431372548767, 0.9333333333333333481 ) ;
#650 = CARTESIAN_POINT ( 'NONE',  ( 4.400000000000001243, -62.23000000000000398, 121.9199999999999875 ) ) ;
#651 = VECTOR ( 'NONE', #644, 1000.000000000000000 ) ;
#652 = AXIS2_PLACEMENT_3D ( 'NONE', #540, #890, #592 ) ;
#653 = CARTESIAN_POINT ( 'NONE',  ( -25.08249999999988589, -37.94490306681525027, 9.525000000000000355 ) ) ;
#654 = DIRECTION ( 'NONE',  ( 0.000000000000000000, 0.000000000000000000, -1.000000000000000000 ) ) ;
#655 = CARTESIAN_POINT ( 'NONE',  ( -31.74999999999994316, -62.23000000000000398, 121.9199999999999875 ) ) ;
#656 = VERTEX_POINT ( 'NONE', #564 ) ;
#657 = CYLINDRICAL_SURFACE ( 'NONE', #229, 2.700000000000001066 ) ;
#658 = LINE ( 'NONE', #18, #771 ) ;
#659 = CARTESIAN_POINT ( 'NONE',  ( 27.64097858058705626, -48.23885312511219325, 9.525000000000000355 ) ) ;
#660 = ORIENTED_EDGE ( 'NONE', *, *, #267, .T. ) ;
#661 = DIRECTION ( 'NONE',  ( -0.000000000000000000, 1.000000000000000000, -0.000000000000000000 ) ) ;
#662 = FACE_OUTER_BOUND ( 'NONE', #787, .T. ) ;
#663 = CARTESIAN_POINT ( 'NONE',  ( 31.74999999999994316, -62.23000000000000398, 121.9199999999999875 ) ) ;
#664 = ORIENTED_EDGE ( 'NONE', *, *, #713, .F. ) ;
#665 = PLANE ( 'NONE',  #305 ) ;
#666 = CARTESIAN_POINT ( 'NONE',  ( -21.17499999999997229, -66.99249999999999261, 112.3949999999999818 ) ) ;
#667 = CYLINDRICAL_SURFACE ( 'NONE', #795, 3.100000000000005418 ) ;
#668 = DIRECTION ( 'NONE',  ( -0.000000000000000000, -0.000000000000000000, -1.000000000000000000 ) ) ;
#669 = EDGE_CURVE ( 'NONE', #382, #419, #720, .T. ) ;
#670 = ADVANCED_FACE ( 'NONE', ( #367 ), #520, .F. ) ;
#671 = ORIENTED_EDGE ( 'NONE', *, *, #831, .F. ) ;
#672 = ORIENTED_EDGE ( 'NONE', *, *, #220, .F. ) ;
#673 = CARTESIAN_POINT ( 'NONE',  ( -30.90364361214315991, -59.38802108649279177, 9.641979677198031951 ) ) ;
#674 = DIRECTION ( 'NONE',  ( 1.000000000000000000, 0.000000000000000000, 0.000000000000000000 ) ) ;
#675 = CARTESIAN_POINT ( 'NONE',  ( 30.61948598484417872, -58.41999999999999460, 9.525000000000000355 ) ) ;
#676 = ORIENTED_EDGE ( 'NONE', *, *, #693, .T. ) ;
#677 = VECTOR ( 'NONE', #85, 1000.000000000000000 ) ;
#678 = CIRCLE ( 'NONE', #768, 2.699999999999998401 ) ;
#679 = CARTESIAN_POINT ( 'NONE',  ( 0.000000000000000000, -66.99249999999999261, 112.3949999999999818 ) ) ;
#680 = CARTESIAN_POINT ( 'NONE',  ( 31.35434242073376865, -60.90884195815201707, 10.43951971040713822 ) ) ;
#681 = ORIENTED_EDGE ( 'NONE', *, *, #799, .F. ) ;
#682 = DIRECTION ( 'NONE',  ( 1.000000000000000000, 0.000000000000000000, -0.000000000000000000 ) ) ;
#683 = EDGE_LOOP ( 'NONE', ( #208, #846, #317, #2 ) ) ;
#684 = ADVANCED_FACE ( 'NONE', ( #854 ), #355, .F. ) ;
#685 = PLANE ( 'NONE',  #882 ) ;
#686 =( NAMED_UNIT ( * ) SI_UNIT ( $, .STERADIAN. ) SOLID_ANGLE_UNIT ( ) );
#687 = CARTESIAN_POINT ( 'NONE',  ( 31.74999999999994316, -62.23000000000000398, 13.08126023940729077 ) ) ;
#688 = ORIENTED_EDGE ( 'NONE', *, *, #632, .F. ) ;
#689 = LINE ( 'NONE', #741, #389 ) ;
#690 = LINE ( 'NONE', #840, #724 ) ;
#691 = VERTEX_POINT ( 'NONE', #921 ) ;
#692 = AXIS2_PLACEMENT_3D ( 'NONE', #531, #30, #817 ) ;
#693 = EDGE_CURVE ( 'NONE', #474, #79, #863, .T. ) ;
#694 = DIRECTION ( 'NONE',  ( 1.000000000000000000, 0.000000000000000000, 0.000000000000000000 ) ) ;
#695 = VECTOR ( 'NONE', #260, 1000.000000000000000 ) ;
#696 = ORIENTED_EDGE ( 'NONE', *, *, #832, .T. ) ;
#697 = B_SPLINE_SURFACE_WITH_KNOTS ( 'NONE', 2, 1, ( 
 ( #895, #39 ),
 ( #188, #813 ),
 ( #311, #175 ) ),
 .UNSPECIFIED., .F., .F., .F.,
 ( 3, 3 ),
 ( 2, 2 ),
 ( 0.04848039707289689138, 1.000000000000000000 ),
 ( 0.000000000000000000, 1.000000000000000000 ),
 .UNSPECIFIED. ) ;
#698 = CARTESIAN_POINT ( 'NONE',  ( -25.08249999999988589, -37.94490306681525027, 13.47216000000003966 ) ) ;
#699 = CARTESIAN_POINT ( 'NONE',  ( -23.87499999999997158, -66.99249999999999261, 112.3949999999999818 ) ) ;
#700 = ORIENTED_EDGE ( 'NONE', *, *, #198, .F. ) ;
#701 = VERTEX_POINT ( 'NONE', #715 ) ;
#702 = EDGE_CURVE ( 'NONE', #770, #190, #292, .T. ) ;
#703 = AXIS2_PLACEMENT_3D ( 'NONE', #164, #730, #230 ) ;
#704 = CARTESIAN_POINT ( 'NONE',  ( -31.74999999999994316, -62.23000000000000398, -9.524999999999986144 ) ) ;
#705 =( NAMED_UNIT ( * ) SI_UNIT ( $, .STERADIAN. ) SOLID_ANGLE_UNIT ( ) );
#706 = CARTESIAN_POINT ( 'NONE',  ( 17.94124284093952326, -38.60179824691869754, 9.525000000000000355 ) ) ;
#707 = VERTEX_POINT ( 'NONE', #430 ) ;
#708 = CARTESIAN_POINT ( 'NONE',  ( -4.399999999999997691, -62.23000000000000398, 121.9199999999999875 ) ) ;
#709 = SURFACE_STYLE_USAGE ( .BOTH. , #845 ) ;
#710 = ORIENTED_EDGE ( 'NONE', *, *, #122, .T. ) ;
#711 = ORIENTED_EDGE ( 'NONE', *, *, #557, .F. ) ;
#712 = CARTESIAN_POINT ( 'NONE',  ( -31.74999999999994316, -62.23000000000000398, 121.9199999999999875 ) ) ;
#713 = EDGE_CURVE ( 'NONE', #498, #822, #245, .T. ) ;
#714 = CARTESIAN_POINT ( 'NONE',  ( 0.000000000000000000, -45.72000000000000597, 9.525000000000000355 ) ) ;
#715 = CARTESIAN_POINT ( 'NONE',  ( 0.000000000000000000, -45.72000000000000597, -9.525000000000000355 ) ) ;
#716 = VERTEX_POINT ( 'NONE', #371 ) ;
#717 = ORIENTED_EDGE ( 'NONE', *, *, #557, .T. ) ;
#718 = CYLINDRICAL_SURFACE ( 'NONE', #570, 2.700000000000001066 ) ;
#719 = CARTESIAN_POINT ( 'NONE',  ( 0.000000000000000000, 0.000000000000000000, 121.9199999999999875 ) ) ;
#720 = LINE ( 'NONE', #727, #324 ) ;
#721 = VECTOR ( 'NONE', #159, 1000.000000000000000 ) ;
#722 = CARTESIAN_POINT ( 'NONE',  ( 23.87499999999997158, -66.99249999999999261, 112.3949999999999818 ) ) ;
#723 = ORIENTED_EDGE ( 'NONE', *, *, #98, .F. ) ;
#724 = VECTOR ( 'NONE', #261, 1000.000000000000000 ) ;
#725 = FACE_OUTER_BOUND ( 'NONE', #78, .T. ) ;
#726 =( GEOMETRIC_REPRESENTATION_CONTEXT ( 3 ) GLOBAL_UNCERTAINTY_ASSIGNED_CONTEXT ( ( #764 ) ) GLOBAL_UNIT_ASSIGNED_CONTEXT ( ( #221, #755, #686 ) ) REPRESENTATION_CONTEXT ( 'NONE', 'WORKASPACE' ) );
#727 = CARTESIAN_POINT ( 'NONE',  ( 31.74999999999994316, -71.75499999999999545, 9.525000000000000355 ) ) ;
#728 = CYLINDRICAL_SURFACE ( 'NONE', #242, 3.175000000000000711 ) ;
#729 = ORIENTED_EDGE ( 'NONE', *, *, #8, .F. ) ;
#730 = DIRECTION ( 'NONE',  ( -0.000000000000000000, -0.000000000000000000, -1.000000000000000000 ) ) ;
#731 = CARTESIAN_POINT ( 'NONE',  ( -10.11783180142784744, -44.90822650675676186, 9.525000000000000355 ) ) ;
#732 = CARTESIAN_POINT ( 'NONE',  ( -18.47499999999996945, -66.99249999999999261, 112.3949999999999818 ) ) ;
#733 = ORIENTED_EDGE ( 'NONE', *, *, #113, .T. ) ;
#734 = LINE ( 'NONE', #32, #885 ) ;
#735 = CARTESIAN_POINT ( 'NONE',  ( 30.61948598484417872, -58.41999999999999460, 9.525000000000000355 ) ) ;
#736 = EDGE_CURVE ( 'NONE', #587, #753, #658, .T. ) ;
#737 = ADVANCED_FACE ( 'NONE', ( #583 ), #869, .F. ) ;
#738 = CIRCLE ( 'NONE', #247, 3.175000000000000711 ) ;
#739 = DIRECTION ( 'NONE',  ( -1.000000000000000000, 0.000000000000000000, 0.000000000000000000 ) ) ;
#740 = CARTESIAN_POINT ( 'NONE',  ( -23.87499999999997158, -66.99249999999999261, 112.3949999999999818 ) ) ;
#741 = CARTESIAN_POINT ( 'NONE',  ( -31.74999999999994316, -71.75499999999999545, 9.525000000000000355 ) ) ;
#742 = ADVANCED_FACE ( 'NONE', ( #329, #614 ), #596, .T. ) ;
#743 = LINE ( 'NONE', #886, #366 ) ;
#744 = CARTESIAN_POINT ( 'NONE',  ( 10.11783180142805705, -44.90822650675674765, -9.525000000000000355 ) ) ;
#745 = ORIENTED_EDGE ( 'NONE', *, *, #145, .T. ) ;
#746 = CARTESIAN_POINT ( 'NONE',  ( -31.29571610489440658, -60.71200722679107997, 10.28156574117945965 ) ) ;
#747 = DIRECTION ( 'NONE',  ( 1.000000000000000000, 0.000000000000000000, 0.000000000000000000 ) ) ;
#748 = ORIENTED_EDGE ( 'NONE', *, *, #766, .F. ) ;
#749 = VECTOR ( 'NONE', #838, 1000.000000000000000 ) ;
#750 = CARTESIAN_POINT ( 'NONE',  ( 28.12019416707064678, -50.16696045884153676, 13.47216000000003966 ) ) ;
#751 = CARTESIAN_POINT ( 'NONE',  ( 4.399999999999997691, -71.75499999999999545, 121.9199999999999875 ) ) ;
#752 = CARTESIAN_POINT ( 'NONE',  ( 21.90750000000014808, -37.94490306681502290, -9.525000000000000355 ) ) ;
#753 = VERTEX_POINT ( 'NONE', #237 ) ;
#754 = DIRECTION ( 'NONE',  ( 0.000000000000000000, 0.000000000000000000, 1.000000000000000000 ) ) ;
#755 =( NAMED_UNIT ( * ) PLANE_ANGLE_UNIT ( ) SI_UNIT ( $, .RADIAN. ) );
#756 = CARTESIAN_POINT ( 'NONE',  ( 30.97366206079837525, -59.62541138463439694, 9.712302029344732190 ) ) ;
#757 = ORIENTED_EDGE ( 'NONE', *, *, #220, .T. ) ;
#758 = DIRECTION ( 'NONE',  ( 0.000000000000000000, 0.000000000000000000, 1.000000000000000000 ) ) ;
#759 = CARTESIAN_POINT ( 'NONE',  ( -31.74999999999994316, -62.23000000000000398, 121.9199999999999875 ) ) ;
#760 = CARTESIAN_POINT ( 'NONE',  ( -2.699999999999998401, -66.99249999999999261, 112.3949999999999818 ) ) ;
#761 = VERTEX_POINT ( 'NONE', #527 ) ;
#762 = ADVANCED_FACE ( 'NONE', ( #469 ), #697, .F. ) ;
#763 = VECTOR ( 'NONE', #19, 1000.000000000000000 ) ;
#764 = UNCERTAINTY_MEASURE_WITH_UNIT (LENGTH_MEASURE( 1.000000000000000082E-05 ), #221, 'distance_accuracy_value', 'NONE');
#765 = EDGE_CURVE ( 'NONE', #382, #474, #743, .T. ) ;
#766 = EDGE_CURVE ( 'NONE', #594, #133, #88, .T. ) ;
#767 = CARTESIAN_POINT ( 'NONE',  ( -31.74999999999994316, -62.23000000000000398, 13.33499999999999908 ) ) ;
#768 = AXIS2_PLACEMENT_3D ( 'NONE', #59, #270, #914 ) ;
#769 = CARTESIAN_POINT ( 'NONE',  ( -31.50833261939674301, -61.42456356059880562, 10.97879765962276188 ) ) ;
#770 = VERTEX_POINT ( 'NONE', #256 ) ;
#771 = VECTOR ( 'NONE', #301, 1000.000000000000000 ) ;
#772 = CIRCLE ( 'NONE', #218, 3.175000000000000711 ) ;
#773 = EDGE_CURVE ( 'NONE', #472, #1, #440, .T. ) ;
#774 = DIRECTION ( 'NONE',  ( -1.000000000000000000, -0.000000000000000000, -0.000000000000000000 ) ) ;
#775 = VECTOR ( 'NONE', #53, 1000.000000000000000 ) ;
#776 = ORIENTED_EDGE ( 'NONE', *, *, #206, .T. ) ;
#777 = CARTESIAN_POINT ( 'NONE',  ( -28.12019416707063968, -50.16696045884155097, -9.524999999999986144 ) ) ;
#778 = SURFACE_STYLE_FILL_AREA ( #192 ) ;
#779 = ORIENTED_EDGE ( 'NONE', *, *, #98, .T. ) ;
#780 = FACE_OUTER_BOUND ( 'NONE', #262, .T. ) ;
#781 = CARTESIAN_POINT ( 'NONE',  ( 31.74999999999994316, -62.23000000000000398, -9.525000000000000355 ) ) ;
#782 = VERTEX_POINT ( 'NONE', #326 ) ;
#783 = EDGE_LOOP ( 'NONE', ( #850, #492, #142, #700, #176 ) ) ;
#784 = CARTESIAN_POINT ( 'NONE',  ( -31.74999999999994316, -71.75499999999999545, 121.9199999999999875 ) ) ;
#785 = DIRECTION ( 'NONE',  ( 0.000000000000000000, 0.000000000000000000, 1.000000000000000000 ) ) ;
#786 = VERTEX_POINT ( 'NONE', #168 ) ;
#787 = EDGE_LOOP ( 'NONE', ( #835, #493, #423, #522, #503, #733, #444, #555, #295, #40, #438 ) ) ;
#788 = PRODUCT_CONTEXT ( 'NONE', #640, 'mechanical' ) ;
#789 = DIRECTION ( 'NONE',  ( -0.000000000000000000, -0.000000000000000000, 1.000000000000000000 ) ) ;
#790 = CARTESIAN_POINT ( 'NONE',  ( 0.000000000000000000, -45.72000000000000597, 9.525000000000000355 ) ) ;
#791 = DIRECTION ( 'NONE',  ( 1.000000000000000000, 0.000000000000000000, 0.000000000000000000 ) ) ;
#792 = ORIENTED_EDGE ( 'NONE', *, *, #107, .T. ) ;
#793 = CIRCLE ( 'NONE', #348, 2.700000000000001066 ) ;
#794 = DIRECTION ( 'NONE',  ( 0.000000000000000000, 0.000000000000000000, 1.000000000000000000 ) ) ;
#795 = AXIS2_PLACEMENT_3D ( 'NONE', #154, #169, #525 ) ;
#796 = CARTESIAN_POINT ( 'NONE',  ( 25.08250000000014879, -37.94490306681501579, 9.525000000000000355 ) ) ;
#797 =( GEOMETRIC_REPRESENTATION_CONTEXT ( 3 ) GLOBAL_UNCERTAINTY_ASSIGNED_CONTEXT ( ( #187 ) ) GLOBAL_UNIT_ASSIGNED_CONTEXT ( ( #212, #834, #705 ) ) REPRESENTATION_CONTEXT ( 'NONE', 'WORKASPACE' ) );
#798 = CARTESIAN_POINT ( 'NONE',  ( -31.74999999999994316, -62.23000000000000398, 13.33500000000004171 ) ) ;
#799 = EDGE_CURVE ( 'NONE', #587, #782, #89, .T. ) ;
#800 = DIRECTION ( 'NONE',  ( 0.000000000000000000, 0.000000000000000000, 1.000000000000000000 ) ) ;
#801 = CARTESIAN_POINT ( 'NONE',  ( 28.12019416707064678, -50.16696045884153676, -9.525000000000000355 ) ) ;
#802 = CYLINDRICAL_SURFACE ( 'NONE', #112, 2.700000000000001066 ) ;
#803 = EDGE_CURVE ( 'NONE', #133, #594, #606, .T. ) ;
#804 = CARTESIAN_POINT ( 'NONE',  ( 21.90750000000014808, -37.94490306681502290, 9.525000000000000355 ) ) ;
#805 = CARTESIAN_POINT ( 'NONE',  ( 10.60000000000000142, -62.23000000000000398, 121.9199999999999875 ) ) ;
#806 = ORIENTED_EDGE ( 'NONE', *, *, #312, .F. ) ;
#807 = ORIENTED_EDGE ( 'NONE', *, *, #510, .F. ) ;
#808 = EDGE_CURVE ( 'NONE', #414, #381, #383, .T. ) ;
#809 = AXIS2_PLACEMENT_3D ( 'NONE', #297, #436, #578 ) ;
#810 = EDGE_CURVE ( 'NONE', #782, #587, #458, .T. ) ;
#811 = CARTESIAN_POINT ( 'NONE',  ( -30.76295576299007095, -58.90972686934328095, 9.548757598625487120 ) ) ;
#812 = AXIS2_PLACEMENT_3D ( 'NONE', #666, #875, #524 ) ;
#813 = CARTESIAN_POINT ( 'NONE',  ( 10.11783180142805705, -44.90822650675674765, -9.524999999999986144 ) ) ;
#814 = ORIENTED_EDGE ( 'NONE', *, *, #340, .T. ) ;
#815 = VECTOR ( 'NONE', #330, 1000.000000000000000 ) ;
#816 = DIRECTION ( 'NONE',  ( -0.000000000000000000, -0.000000000000000000, -1.000000000000000000 ) ) ;
#817 = DIRECTION ( 'NONE',  ( 1.000000000000000000, 0.000000000000000000, 0.000000000000000000 ) ) ;
#818 = FACE_OUTER_BOUND ( 'NONE', #909, .T. ) ;
#819 = ORIENTED_EDGE ( 'NONE', *, *, #33, .T. ) ;
#820 = DIRECTION ( 'NONE',  ( 0.000000000000000000, 0.000000000000000000, 1.000000000000000000 ) ) ;
#821 = DIRECTION ( 'NONE',  ( -0.000000000000000000, -0.000000000000000000, -1.000000000000000000 ) ) ;
#822 = VERTEX_POINT ( 'NONE', #391 ) ;
#823 = VECTOR ( 'NONE', #421, 1000.000000000000000 ) ;
#824 = FACE_OUTER_BOUND ( 'NONE', #607, .T. ) ;
#825 = DIRECTION ( 'NONE',  ( 0.000000000000000000, 0.000000000000000000, 1.000000000000000000 ) ) ;
#826 = DIRECTION ( 'NONE',  ( -1.000000000000000000, -0.000000000000000000, -0.000000000000000000 ) ) ;
#827 = EDGE_LOOP ( 'NONE', ( #6, #580, #542, #143 ) ) ;
#828 = B_SPLINE_CURVE_WITH_KNOTS ( 'NONE', 2,
 ( #735, #659, #796 ),
 .UNSPECIFIED., .F., .F.,
 ( 3, 3 ),
 ( 0.1577563639152312902, 1.000000000000000000 ),
 .UNSPECIFIED. ) ;
#829 = DIRECTION ( 'NONE',  ( 1.000000000000000000, 0.000000000000000000, 0.000000000000000000 ) ) ;
#830 = EDGE_LOOP ( 'NONE', ( #660, #806, #217, #14, #819 ) ) ;
#831 = EDGE_CURVE ( 'NONE', #370, #701, #734, .T. ) ;
#832 = EDGE_CURVE ( 'NONE', #919, #72, #183, .T. ) ;
#833 = DIRECTION ( 'NONE',  ( -0.000000000000000000, 1.000000000000000000, -0.000000000000000000 ) ) ;
#834 =( NAMED_UNIT ( * ) PLANE_ANGLE_UNIT ( ) SI_UNIT ( $, .RADIAN. ) );
#835 = ORIENTED_EDGE ( 'NONE', *, *, #340, .F. ) ;
#836 = CLOSED_SHELL ( 'NONE', ( #432, #907, #52, #684, #411, #742, #405, #600, #504, #16, #762, #900, #435, #374, #41, #670, #638, #266, #453, #648, #241, #442, #75, #345, #530, #737, #894, #901, #246 ) ) ;
#837 = EDGE_CURVE ( 'NONE', #381, #428, #99, .T. ) ;
#838 = DIRECTION ( 'NONE',  ( -0.000000000000000000, -0.000000000000000000, -1.000000000000000000 ) ) ;
#839 = AXIS2_PLACEMENT_3D ( 'NONE', #339, #264, #195 ) ;
#840 = CARTESIAN_POINT ( 'NONE',  ( 10.60000000000000142, -71.75499999999999545, 121.9199999999999875 ) ) ;
#841 = EDGE_LOOP ( 'NONE', ( #729, #711 ) ) ;
#842 = AXIS2_PLACEMENT_3D ( 'NONE', #449, #71, #162 ) ;
#843 = CARTESIAN_POINT ( 'NONE',  ( -25.08249999999988589, -37.94490306681525027, -9.524999999999986144 ) ) ;
#844 = B_SPLINE_CURVE_WITH_KNOTS ( 'NONE', 2,
 ( #417, #3, #140 ),
 .UNSPECIFIED., .F., .F.,
 ( 3, 3 ),
 ( 0.000000000000000000, 1.000000000000000000 ),
 .UNSPECIFIED. ) ;
#845 = SURFACE_SIDE_STYLE ('',( #778 ) ) ;
#846 = ORIENTED_EDGE ( 'NONE', *, *, #597, .T. ) ;
#847 = ORIENTED_EDGE ( 'NONE', *, *, #105, .T. ) ;
#848 = LINE ( 'NONE', #346, #749 ) ;
#849 = DIRECTION ( 'NONE',  ( 0.000000000000000000, 0.000000000000000000, -1.000000000000000000 ) ) ;
#850 = ORIENTED_EDGE ( 'NONE', *, *, #312, .T. ) ;
#851 = VERTEX_POINT ( 'NONE', #379 ) ;
#852 = APPLICATION_PROTOCOL_DEFINITION ( 'draft international standard', 'automotive_design', 1998, #278 ) ;
#853 = DIRECTION ( 'NONE',  ( 0.000000000000000000, -0.000000000000000000, -1.000000000000000000 ) ) ;
#854 = FACE_OUTER_BOUND ( 'NONE', #502, .T. ) ;
#855 = EDGE_LOOP ( 'NONE', ( #126, #136 ) ) ;
#856 = CARTESIAN_POINT ( 'NONE',  ( 30.61948598484417872, -58.41999999999999460, 9.525000000000000355 ) ) ;
#857 = DIRECTION ( 'NONE',  ( 0.000000000000000000, 0.000000000000000000, 1.000000000000000000 ) ) ;
#858 = LINE ( 'NONE', #302, #319 ) ;
#859 = ORIENTED_EDGE ( 'NONE', *, *, #471, .T. ) ;
#860 = EDGE_CURVE ( 'NONE', #303, #101, #337, .T. ) ;
#861 = CARTESIAN_POINT ( 'NONE',  ( 0.000000000000000000, 0.000000000000000000, 0.000000000000000000 ) ) ;
#862 = EDGE_CURVE ( 'NONE', #761, #472, #738, .T. ) ;
#863 = LINE ( 'NONE', #287, #51 ) ;
#864 = FACE_OUTER_BOUND ( 'NONE', #49, .T. ) ;
#865 = ORIENTED_EDGE ( 'NONE', *, *, #619, .F. ) ;
#866 = EDGE_CURVE ( 'NONE', #118, #529, #103, .T. ) ;
#867 = AXIS2_PLACEMENT_3D ( 'NONE', #102, #233, #571 ) ;
#868 = CYLINDRICAL_SURFACE ( 'NONE', #703, 3.175000000000000711 ) ;
#869 = CYLINDRICAL_SURFACE ( 'NONE', #171, 2.699999999999998401 ) ;
#870 = PLANE ( 'NONE',  #481 ) ;
#871 = ORIENTED_EDGE ( 'NONE', *, *, #433, .F. ) ;
#872 = PLANE ( 'NONE',  #867 ) ;
#873 = CARTESIAN_POINT ( 'NONE',  ( 31.74999999999994316, -62.23000000000000398, -9.525000000000000355 ) ) ;
#874 = LINE ( 'NONE', #663, #602 ) ;
#875 = DIRECTION ( 'NONE',  ( 0.000000000000000000, 0.000000000000000000, 1.000000000000000000 ) ) ;
#876 = CARTESIAN_POINT ( 'NONE',  ( 18.47499999999996945, -66.99249999999999261, 112.3949999999999818 ) ) ;
#877 = EDGE_CURVE ( 'NONE', #118, #414, #772, .T. ) ;
#878 = ORIENTED_EDGE ( 'NONE', *, *, #137, .T. ) ;
#879 = EDGE_CURVE ( 'NONE', #456, #646, #358, .T. ) ;
#880 = DIRECTION ( 'NONE',  ( 0.000000000000000000, 0.000000000000000000, 1.000000000000000000 ) ) ;
#881 = AXIS2_PLACEMENT_3D ( 'NONE', #5, #293, #97 ) ;
#882 = AXIS2_PLACEMENT_3D ( 'NONE', #403, #46, #332 ) ;
#883 = CIRCLE ( 'NONE', #528, 2.540000000000000480 ) ;
#884 = CARTESIAN_POINT ( 'NONE',  ( -31.10882317895054783, -60.08251779036807250, 9.897996684682190960 ) ) ;
#885 = VECTOR ( 'NONE', #821, 1000.000000000000000 ) ;
#886 = CARTESIAN_POINT ( 'NONE',  ( 31.74999999999994316, -62.23000000000000398, 121.9199999999999875 ) ) ;
#887 = CARTESIAN_POINT ( 'NONE',  ( 17.94124284093952326, -38.60179824691869754, -9.525000000000000355 ) ) ;
#888 = ORIENTED_EDGE ( 'NONE', *, *, #877, .T. ) ;
#889 = CARTESIAN_POINT ( 'NONE',  ( 7.500000000000000000, -62.23000000000000398, 121.9199999999999875 ) ) ;
#890 = DIRECTION ( 'NONE',  ( -0.000000000000000000, -0.000000000000000000, -1.000000000000000000 ) ) ;
#891 = CARTESIAN_POINT ( 'NONE',  ( 31.59311180565832444, -61.70768550106845396, 11.39329567015421318 ) ) ;
#892 = ORIENTED_EDGE ( 'NONE', *, *, #601, .F. ) ;
#893 = LINE ( 'NONE', #174, #115 ) ;
#894 = ADVANCED_FACE ( 'NONE', ( #406 ), #425, .T. ) ;
#895 = CARTESIAN_POINT ( 'NONE',  ( 17.94124284093956945, -38.60179824691867623, 9.525000000000000355 ) ) ;
#896 = DIRECTION ( 'NONE',  ( 1.000000000000000000, 0.000000000000000000, 0.000000000000000000 ) ) ;
#897 = EDGE_LOOP ( 'NONE', ( #356, #327, #239, #388, #155, #284, #431, #509, #888 ) ) ;
#898 = CARTESIAN_POINT ( 'NONE',  ( 7.500000000000000000, -71.75499999999999545, 121.9199999999999875 ) ) ;
#899 = LINE ( 'NONE', #538, #695 ) ;
#900 = ADVANCED_FACE ( 'NONE', ( #69 ), #226, .F. ) ;
#901 = ADVANCED_FACE ( 'NONE', ( #780 ), #718, .F. ) ;
#902 = ORIENTED_EDGE ( 'NONE', *, *, #288, .T. ) ;
#903 = DIRECTION ( 'NONE',  ( 0.000000000000000000, 0.000000000000000000, 1.000000000000000000 ) ) ;
#904 = DIRECTION ( 'NONE',  ( 0.000000000000000000, -1.000000000000000000, 0.000000000000000000 ) ) ;
#905 = LINE ( 'NONE', #559, #363 ) ;
#906 = ORIENTED_EDGE ( 'NONE', *, *, #567, .T. ) ;
#907 = ADVANCED_FACE ( 'NONE', ( #477 ), #80, .F. ) ;
#908 = DIRECTION ( 'NONE',  ( 1.000000000000000000, 0.000000000000000000, 0.000000000000000000 ) ) ;
#909 = EDGE_LOOP ( 'NONE', ( #448, #807, #362, #634 ) ) ;
#910 = VECTOR ( 'NONE', #774, 1000.000000000000000 ) ;
#911 = B_SPLINE_CURVE_WITH_KNOTS ( 'NONE', 3,
 ( #334, #687, #620, #263, #478, #611, #891, #108, #392, #680, #473, #407, #401, #756, #461, #254, #180, #675 ),
 .UNSPECIFIED., .F., .F.,
 ( 4, 2, 2, 2, 2, 2, 2, 2, 4 ),
 ( 0.0005672811067661271810, 0.001328410335016618968, 0.002089539563267110538, 0.002850668791517602108, 0.003611798019768093677, 0.004372927248018585247, 0.005134056476269077685, 0.005895185704519569254, 0.006656314932770060824 ),
 .UNSPECIFIED. ) ;
#912 = LINE ( 'NONE', #286, #21 ) ;
#913 = AXIS2_PLACEMENT_3D ( 'NONE', #889, #535, #758 ) ;
#914 = DIRECTION ( 'NONE',  ( 1.000000000000000000, 0.000000000000000000, 0.000000000000000000 ) ) ;
#915 = EDGE_LOOP ( 'NONE', ( #647, #748 ) ) ;
#916 = CARTESIAN_POINT ( 'NONE',  ( -31.74999999999994316, -62.23000000000000398, 121.9199999999999875 ) ) ;
#917 = CARTESIAN_POINT ( 'NONE',  ( -31.74234081841786193, -62.20455317612105262, 12.82625161412007131 ) ) ;
#918 = ORIENTED_EDGE ( 'NONE', *, *, #318, .F. ) ;
#919 = VERTEX_POINT ( 'NONE', #650 ) ;
#920 = FACE_OUTER_BOUND ( 'NONE', #28, .T. ) ;
#921 = CARTESIAN_POINT ( 'NONE',  ( -10.60000000000000142, -62.23000000000000398, 121.9199999999999875 ) ) ;
ENDSEC;
END-ISO-10303-21;
