ISO-10303-21;
HEADER;
FILE_DESCRIPTION (( 'STEP AP203' ),
    '1' );
FILE_NAME ('47065T236_Silver Corner Bracket.STEP',
    '2026-01-18T16:53:30',
    ( 'McMaster Carr Supply' ),
    ( 'McMaster Carr Supply' ),
    'SwSTEP 2.0',
    'SolidWorks 2024',
    '' );
FILE_SCHEMA (( 'CONFIG_CONTROL_DESIGN' ));
ENDSEC;

DATA;
#1 = ORIENTED_EDGE ( 'NONE', *, *, #1290, .T. ) ;
#2 = CARTESIAN_POINT ( 'NONE',  ( 0.000000000000000000, 0.000000000000000000, -0.02000000000000005940 ) ) ;
#3 = CARTESIAN_POINT ( 'NONE',  ( 0.000000000000000000, -0.1405000000000000693, -0.02000000000000008021 ) ) ;
#4 = AXIS2_PLACEMENT_3D ( 'NONE', #1078, #793, #175 ) ;
#5 = CARTESIAN_POINT ( 'NONE',  ( 0.000000000000000000, -2.737322638942145442E-18, -7.683322482180740918E-17 ) ) ;
#6 = AXIS2_PLACEMENT_3D ( 'NONE', #474, #1173, #263 ) ;
#7 = CARTESIAN_POINT ( 'NONE',  ( 0.4175000000000000377, -0.4799999999999999822, 0.7908052756959443874 ) ) ;
#8 = DIMENSIONAL_EXPONENTS ( 1.000000000000000000, 0.000000000000000000, 0.000000000000000000, 0.000000000000000000, 0.000000000000000000, 0.000000000000000000, 0.000000000000000000 ) ;
#9 = EDGE_CURVE ( 'NONE', #974, #374, #561, .T. ) ;
#10 = AXIS2_PLACEMENT_3D ( 'NONE', #1230, #942, #515 ) ;
#11 = ORIENTED_EDGE ( 'NONE', *, *, #1272, .T. ) ;
#12 = AXIS2_PLACEMENT_3D ( 'NONE', #90, #502, #1082 ) ;
#13 = AXIS2_PLACEMENT_3D ( 'NONE', #787, #901, #603 ) ;
#14 = DIRECTION ( 'NONE',  ( 0.000000000000000000, 0.000000000000000000, -1.000000000000000000 ) ) ;
#15 = APPROVAL_ROLE ( '' ) ;
#16 = ORIENTED_EDGE ( 'NONE', *, *, #489, .F. ) ;
#17 = CARTESIAN_POINT ( 'NONE',  ( -0.4375000000000000000, -0.3119999999999999996, 0.1249999999999999029 ) ) ;
#18 = DIRECTION ( 'NONE',  ( 0.000000000000000000, -1.000000000000000000, -1.368661319471073838E-16 ) ) ;
#19 = PERSON_AND_ORGANIZATION ( #1251, #355 ) ;
#20 = CARTESIAN_POINT ( 'NONE',  ( -0.1605000000000000593, 0.000000000000000000, -0.1880000000000000282 ) ) ;
#21 = ORIENTED_EDGE ( 'NONE', *, *, #528, .T. ) ;
#22 = LINE ( 'NONE', #1014, #868 ) ;
#23 = EDGE_CURVE ( 'NONE', #106, #575, #490, .T. ) ;
#24 = DIRECTION ( 'NONE',  ( 1.000000000000000000, 0.000000000000000000, 0.000000000000000000 ) ) ;
#25 = CARTESIAN_POINT ( 'NONE',  ( 0.000000000000000000, -0.5000000000000000000, 0.3119999999999998885 ) ) ;
#26 = TOROIDAL_SURFACE ( 'NONE', #203, 0.1605000000000000593, 0.02000000000000000042 ) ;
#27 = EDGE_LOOP ( 'NONE', ( #237, #789, #1271, #71 ) ) ;
#28 = CIRCLE ( 'NONE', #179, 0.01999999999999999001 ) ;
#29 = AXIS2_PLACEMENT_3D ( 'NONE', #1038, #1107, #415 ) ;
#30 = FACE_OUTER_BOUND ( 'NONE', #1122, .T. ) ;
#31 = CIRCLE ( 'NONE', #269, 0.1405000000000000693 ) ;
#32 = ORIENTED_EDGE ( 'NONE', *, *, #659, .F. ) ;
#33 = DIRECTION ( 'NONE',  ( -1.000000000000000000, 3.439268190265308816E-15, -0.000000000000000000 ) ) ;
#34 = COORDINATED_UNIVERSAL_TIME_OFFSET ( 6, 0, .BEHIND. ) ;
#35 = CARTESIAN_POINT ( 'NONE',  ( -0.4375000000000000000, -0.4776190476190476097, 0.8106630466121281797 ) ) ;
#36 = VERTEX_POINT ( 'NONE', #1085 ) ;
#37 = DIRECTION ( 'NONE',  ( 0.000000000000000000, 0.000000000000000000, -1.000000000000000000 ) ) ;
#38 = ORIENTED_EDGE ( 'NONE', *, *, #872, .T. ) ;
#39 = DIRECTION ( 'NONE',  ( 0.000000000000000000, 0.000000000000000000, -1.000000000000000000 ) ) ;
#40 = PERSON_AND_ORGANIZATION_ROLE ( 'design_supplier' ) ;
#41 = DIRECTION ( 'NONE',  ( 0.000000000000000000, 0.000000000000000000, -1.000000000000000000 ) ) ;
#42 = ADVANCED_FACE ( 'NONE', ( #390 ), #201, .T. ) ;
#43 = ORIENTED_EDGE ( 'NONE', *, *, #918, .T. ) ;
#44 = DIRECTION ( 'NONE',  ( 1.000000000000000000, 0.000000000000000000, 0.000000000000000000 ) ) ;
#45 = DIRECTION ( 'NONE',  ( 1.000000000000000000, 0.000000000000000000, 0.000000000000000000 ) ) ;
#46 = DIRECTION ( 'NONE',  ( 1.000000000000000000, 0.000000000000000000, 0.000000000000000000 ) ) ;
#47 = CIRCLE ( 'NONE', #794, 0.1605000000000000038 ) ;
#48 = VERTEX_POINT ( 'NONE', #130 ) ;
#49 = ADVANCED_FACE ( 'NONE', ( #1142 ), #1281, .T. ) ;
#50 = CIRCLE ( 'NONE', #1111, 0.01999999999999999001 ) ;
#51 = CIRCLE ( 'NONE', #672, 0.02700000000000001357 ) ;
#52 = EDGE_CURVE ( 'NONE', #707, #796, #882, .T. ) ;
#53 = CIRCLE ( 'NONE', #632, 0.1405000000000000693 ) ;
#54 = EDGE_LOOP ( 'NONE', ( #38, #538, #640, #214 ) ) ;
#55 = DIRECTION ( 'NONE',  ( 0.000000000000000000, 0.000000000000000000, -1.000000000000000000 ) ) ;
#56 = APPROVAL_PERSON_ORGANIZATION ( #124, #341, #323 ) ;
#57 = DIRECTION ( 'NONE',  ( 1.000000000000000000, 0.000000000000000000, 0.000000000000000000 ) ) ;
#58 = ORIENTED_EDGE ( 'NONE', *, *, #847, .F. ) ;
#59 = EDGE_CURVE ( 'NONE', #575, #513, #1216, .T. ) ;
#60 = ORIENTED_EDGE ( 'NONE', *, *, #277, .F. ) ;
#61 = DIRECTION ( 'NONE',  ( 0.000000000000000000, 0.000000000000000000, -1.000000000000000000 ) ) ;
#62 = SPHERICAL_SURFACE ( 'NONE', #6, 0.02000000000000000042 ) ;
#63 = EDGE_LOOP ( 'NONE', ( #533, #21, #711, #764 ) ) ;
#64 = VERTEX_POINT ( 'NONE', #954 ) ;
#65 = DIRECTION ( 'NONE',  ( 1.000000000000000000, 0.000000000000000000, 0.000000000000000000 ) ) ;
#66 = EDGE_CURVE ( 'NONE', #980, #817, #520, .T. ) ;
#67 = CARTESIAN_POINT ( 'NONE',  ( 0.000000000000000000, -0.5000000000000001110, 0.3119999999999998885 ) ) ;
#68 = LINE ( 'NONE', #1270, #713 ) ;
#69 = ORIENTED_EDGE ( 'NONE', *, *, #1297, .T. ) ;
#70 = CIRCLE ( 'NONE', #609, 0.01999999999999999001 ) ;
#71 = ORIENTED_EDGE ( 'NONE', *, *, #264, .F. ) ;
#72 = DIRECTION ( 'NONE',  ( -1.000000000000000000, 0.000000000000000000, 0.000000000000000000 ) ) ;
#73 = CIRCLE ( 'NONE', #695, 0.01999999999999999001 ) ;
#74 = DIRECTION ( 'NONE',  ( 1.000000000000000000, 0.000000000000000000, 0.000000000000000000 ) ) ;
#75 = AXIS2_PLACEMENT_3D ( 'NONE', #408, #210, #726 ) ;
#76 = CARTESIAN_POINT ( 'NONE',  ( -0.4375000000000000000, 0.3119999999999999996, -0.1880000000000000282 ) ) ;
#77 = AXIS2_PLACEMENT_3D ( 'NONE', #399, #802, #1322 ) ;
#78 = ORIENTED_EDGE ( 'NONE', *, *, #720, .T. ) ;
#79 = DIRECTION ( 'NONE',  ( 0.000000000000000000, -1.000000000000000000, 0.000000000000000000 ) ) ;
#80 = DIRECTION ( 'NONE',  ( 0.000000000000000000, 1.000000000000000000, 0.000000000000000000 ) ) ;
#81 = DIRECTION ( 'NONE',  ( 0.000000000000000000, 0.000000000000000000, -1.000000000000000000 ) ) ;
#82 = ORIENTED_EDGE ( 'NONE', *, *, #664, .T. ) ;
#83 = EDGE_CURVE ( 'NONE', #379, #1252, #724, .T. ) ;
#84 = CARTESIAN_POINT ( 'NONE',  ( -0.4375000000000000000, -0.4799999999999999822, 0.8119999999999999440 ) ) ;
#85 = CARTESIAN_POINT ( 'NONE',  ( 0.000000000000000000, -0.4799999999999999822, 0.3119999999999998885 ) ) ;
#86 = CARTESIAN_POINT ( 'NONE',  ( -0.4174999999999999822, -0.1869999999999999996, -8.537024980200822558E-17 ) ) ;
#87 = APPROVAL_DATE_TIME ( #599, #447 ) ;
#88 = ORIENTED_EDGE ( 'NONE', *, *, #664, .F. ) ;
#89 = EDGE_CURVE ( 'NONE', #381, #112, #47, .T. ) ;
#90 = CARTESIAN_POINT ( 'NONE',  ( -0.4174999999999999822, -0.4799999999999999822, 0.7908052756959443874 ) ) ;
#91 = CIRCLE ( 'NONE', #671, 0.01999999999999999001 ) ;
#92 = CARTESIAN_POINT ( 'NONE',  ( 0.4175000000000000377, 0.3119999999999999996, -3.414809992080329023E-17 ) ) ;
#93 = DIRECTION ( 'NONE',  ( -0.000000000000000000, -1.000000000000000000, -0.000000000000000000 ) ) ;
#94 = CIRCLE ( 'NONE', #181, 0.02000000000000002817 ) ;
#95 = APPLICATION_PROTOCOL_DEFINITION ( 'international standard', 'config_control_design', 1994, #271 ) ;
#96 = AXIS2_PLACEMENT_3D ( 'NONE', #172, #581, #72 ) ;
#97 = EDGE_LOOP ( 'NONE', ( #78, #472, #855 ) ) ;
#98 = CC_DESIGN_APPROVAL ( #447, ( #1188 ) ) ;
#99 = ORIENTED_EDGE ( 'NONE', *, *, #641, .T. ) ;
#100 = CARTESIAN_POINT ( 'NONE',  ( 0.4174999999999999822, -0.5000000000000000000, 0.7908052756959443874 ) ) ;
#101 = ADVANCED_FACE ( 'NONE', ( #1232 ), #221, .T. ) ;
#102 = CARTESIAN_POINT ( 'NONE',  ( 0.4175000000000000377, -0.4799999999999999822, 0.7908052756959443874 ) ) ;
#103 =( LENGTH_UNIT ( ) NAMED_UNIT ( * ) SI_UNIT ( $, .METRE. ) );
#104 = DIRECTION ( 'NONE',  ( 0.000000000000000000, -0.000000000000000000, 1.000000000000000000 ) ) ;
#105 = PRODUCT ( '47065T236_Silver Corner Bracket', '47065T236_Silver Corner Bracket', '', ( #116 ) ) ;
#106 = VERTEX_POINT ( 'NONE', #313 ) ;
#107 = FACE_OUTER_BOUND ( 'NONE', #170, .T. ) ;
#108 = CARTESIAN_POINT ( 'NONE',  ( -0.4174999999999999822, -0.4530000000000000138, -0.1880000000000000282 ) ) ;
#109 = ADVANCED_FACE ( 'NONE', ( #1255 ), #218, .T. ) ;
#110 = CARTESIAN_POINT ( 'NONE',  ( 0.000000000000000000, -0.5000000000000002220, 0.4524999999999999023 ) ) ;
#111 = DIRECTION ( 'NONE',  ( 3.414809992080330699E-15, 1.000000000000000000, 0.000000000000000000 ) ) ;
#112 = VERTEX_POINT ( 'NONE', #325 ) ;
#113 = DIRECTION ( 'NONE',  ( -0.000000000000000000, 1.000000000000000000, 1.368661319471073838E-16 ) ) ;
#114 = DIRECTION ( 'NONE',  ( 1.000000000000000000, 0.000000000000000000, 0.000000000000000000 ) ) ;
#115 = AXIS2_PLACEMENT_3D ( 'NONE', #154, #680, #57 ) ;
#116 = MECHANICAL_CONTEXT ( 'NONE', #1061, 'mechanical' ) ;
#117 = CIRCLE ( 'NONE', #714, 0.1404999999999999860 ) ;
#118 = CARTESIAN_POINT ( 'NONE',  ( -0.4174999999999999822, 0.4788052756959442768, -0.1680000000000000382 ) ) ;
#119 = AXIS2_PLACEMENT_3D ( 'NONE', #194, #590, #1003 ) ;
#120 = EDGE_LOOP ( 'NONE', ( #573, #1008, #60, #1152 ) ) ;
#121 = CC_DESIGN_APPROVAL ( #286, ( #870 ) ) ;
#122 = CARTESIAN_POINT ( 'NONE',  ( -0.4174999999999999822, 0.3119999999999999996, -3.414809992080329023E-17 ) ) ;
#123 = DIRECTION ( 'NONE',  ( -1.000000000000000000, -0.000000000000000000, -0.000000000000000000 ) ) ;
#124 = PERSON_AND_ORGANIZATION ( #1251, #355 ) ;
#125 = FACE_OUTER_BOUND ( 'NONE', #837, .T. ) ;
#126 = VERTEX_POINT ( 'NONE', #20 ) ;
#127 = EDGE_CURVE ( 'NONE', #1318, #470, #730, .T. ) ;
#128 = DIRECTION ( 'NONE',  ( -1.000000000000000000, 0.000000000000000000, 0.000000000000000000 ) ) ;
#129 = CARTESIAN_POINT ( 'NONE',  ( 0.4175000000000000377, -0.4799999999999999822, -0.1409999999999999309 ) ) ;
#130 = CARTESIAN_POINT ( 'NONE',  ( 0.4375000000000000000, -0.3319999999999999618, 0.6239999999999999991 ) ) ;
#131 = VERTEX_POINT ( 'NONE', #1248 ) ;
#132 = ADVANCED_FACE ( 'NONE', ( #1148 ), #238, .T. ) ;
#133 = CARTESIAN_POINT ( 'NONE',  ( -0.4375000000000000000, -0.1869999999999999996, 0.1249999999999999029 ) ) ;
#134 = EDGE_LOOP ( 'NONE', ( #1, #998, #11, #984 ) ) ;
#135 = CARTESIAN_POINT ( 'NONE',  ( 0.4175000000000000377, -0.1869999999999999996, -8.537024980200822558E-17 ) ) ;
#136 = DIRECTION ( 'NONE',  ( 0.000000000000000000, -1.000000000000000000, -1.368661319471073838E-16 ) ) ;
#137 = CIRCLE ( 'NONE', #925, 0.01999999999999999001 ) ;
#138 = ORIENTED_EDGE ( 'NONE', *, *, #480, .F. ) ;
#139 = CIRCLE ( 'NONE', #350, 0.1604999999999999760 ) ;
#140 = AXIS2_PLACEMENT_3D ( 'NONE', #1298, #79, #994 ) ;
#141 = DIRECTION ( 'NONE',  ( 0.000000000000000000, 0.000000000000000000, -1.000000000000000000 ) ) ;
#142 = ORIENTED_EDGE ( 'NONE', *, *, #1013, .T. ) ;
#143 = DIRECTION ( 'NONE',  ( 0.000000000000000000, 0.9928885458091925020, 0.1190476190476192353 ) ) ;
#144 = EDGE_CURVE ( 'NONE', #381, #750, #50, .T. ) ;
#145 = DIRECTION ( 'NONE',  ( -1.000000000000000000, 0.000000000000000000, 0.000000000000000000 ) ) ;
#146 = VERTEX_POINT ( 'NONE', #853 ) ;
#147 = CARTESIAN_POINT ( 'NONE',  ( 0.000000000000000000, 0.000000000000000000, -0.02000000000000005940 ) ) ;
#148 = ORIENTED_EDGE ( 'NONE', *, *, #967, .T. ) ;
#149 = CC_DESIGN_PERSON_AND_ORGANIZATION_ASSIGNMENT ( #1308, #705, ( #1188 ) ) ;
#150 = DIRECTION ( 'NONE',  ( 1.000000000000000000, 0.000000000000000000, 0.000000000000000000 ) ) ;
#151 = VERTEX_POINT ( 'NONE', #1046 ) ;
#152 = ORIENTED_EDGE ( 'NONE', *, *, #552, .F. ) ;
#153 = CARTESIAN_POINT ( 'NONE',  ( 1.720628752802031144E-17, -0.5000000000000001110, 0.1714999999999999303 ) ) ;
#154 = CARTESIAN_POINT ( 'NONE',  ( -0.4174999999999999822, -0.4799999999999999822, -0.1409999999999999309 ) ) ;
#155 = EDGE_LOOP ( 'NONE', ( #626, #370, #742, #319 ) ) ;
#156 = AXIS2_PLACEMENT_3D ( 'NONE', #572, #460, #1168 ) ;
#157 = AXIS2_PLACEMENT_3D ( 'NONE', #964, #45, #459 ) ;
#158 = CIRCLE ( 'NONE', #12, 0.01999999999999995878 ) ;
#159 = VERTEX_POINT ( 'NONE', #718 ) ;
#160 = CARTESIAN_POINT ( 'NONE',  ( -0.4375000000000000000, -0.3119999999999999996, 0.6239999999999999991 ) ) ;
#161 = SECURITY_CLASSIFICATION ( '', '', #645 ) ;
#162 = DIRECTION ( 'NONE',  ( 0.000000000000000000, 0.000000000000000000, -1.000000000000000000 ) ) ;
#163 = ORIENTED_EDGE ( 'NONE', *, *, #173, .F. ) ;
#164 = UNCERTAINTY_MEASURE_WITH_UNIT (LENGTH_MEASURE( 1.000000000000000082E-05 ), #823, 'distance_accuracy_value', 'NONE');
#165 = CC_DESIGN_PERSON_AND_ORGANIZATION_ASSIGNMENT ( #19, #959, ( #870 ) ) ;
#166 = ORIENTED_EDGE ( 'NONE', *, *, #224, .T. ) ;
#167 = DIRECTION ( 'NONE',  ( 1.000000000000000000, 0.000000000000000000, 0.000000000000000000 ) ) ;
#168 = CARTESIAN_POINT ( 'NONE',  ( -0.4174999999999999822, -0.4530000000000000138, -0.1409999999999999309 ) ) ;
#169 = CARTESIAN_POINT ( 'NONE',  ( 0.4174999999999999822, 0.4788052756959443323, -0.1680000000000000382 ) ) ;
#170 = EDGE_LOOP ( 'NONE', ( #342, #1277, #361, #747, #171, #579, #955, #810 ) ) ;
#171 = ORIENTED_EDGE ( 'NONE', *, *, #960, .T. ) ;
#172 = CARTESIAN_POINT ( 'NONE',  ( -0.4174999999999999822, -0.3319999999999999618, 0.1249999999999999029 ) ) ;
#173 = EDGE_CURVE ( 'NONE', #980, #914, #1007, .T. ) ;
#174 = DIRECTION ( 'NONE',  ( -0.000000000000000000, 1.000000000000000000, 2.734582576240503775E-16 ) ) ;
#175 = DIRECTION ( 'NONE',  ( 0.000000000000000000, 0.000000000000000000, -1.000000000000000000 ) ) ;
#176 = ORIENTED_EDGE ( 'NONE', *, *, #738, .T. ) ;
#177 = CLOSED_SHELL ( 'NONE', ( #42, #566, #706, #910, #854, #1223, #1167, #132, #1025, #1075, #826, #395, #816, #768, #601, #1020, #109, #899, #809, #712, #760, #1247, #101, #1133, #666, #322, #1105, #217, #184, #1257, #1042, #594, #877, #1195, #233, #728, #574, #1131, #191, #1279, #624, #1264, #310, #49, #436 ) ) ;
#178 = CIRCLE ( 'NONE', #115, 0.01999999999999999001 ) ;
#179 = AXIS2_PLACEMENT_3D ( 'NONE', #129, #743, #638 ) ;
#180 = DIRECTION ( 'NONE',  ( -0.000000000000000000, 0.000000000000000000, 1.000000000000000000 ) ) ;
#181 = AXIS2_PLACEMENT_3D ( 'NONE', #1278, #367, #143 ) ;
#182 = AXIS2_PLACEMENT_3D ( 'NONE', #530, #330, #1224 ) ;
#183 = DIRECTION ( 'NONE',  ( 1.000000000000000000, 0.000000000000000000, 0.000000000000000000 ) ) ;
#184 = ADVANCED_FACE ( 'NONE', ( #518 ), #628, .T. ) ;
#185 =( GEOMETRIC_REPRESENTATION_CONTEXT ( 3 ) GLOBAL_UNCERTAINTY_ASSIGNED_CONTEXT ( ( #164 ) ) GLOBAL_UNIT_ASSIGNED_CONTEXT ( ( #823, #913, #1206 ) ) REPRESENTATION_CONTEXT ( 'NONE', 'WORKASPACE' ) );
#186 = ORIENTED_EDGE ( 'NONE', *, *, #1037, .T. ) ;
#187 = DIRECTION ( 'NONE',  ( 0.000000000000000000, -4.860939490505807112E-16, 1.000000000000000000 ) ) ;
#188 = CARTESIAN_POINT ( 'NONE',  ( -0.4174999999999999822, -0.1869999999999999996, 0.1249999999999999029 ) ) ;
#189 = CARTESIAN_POINT ( 'NONE',  ( 0.4174999999999999822, -0.4799999999999999822, 0.7908052756959442764 ) ) ;
#190 = APPLICATION_PROTOCOL_DEFINITION ( 'international standard', 'config_control_design', 1994, #1061 ) ;
#191 = ADVANCED_FACE ( 'NONE', ( #125 ), #767, .T. ) ;
#192 = VERTEX_POINT ( 'NONE', #1026 ) ;
#193 = EDGE_CURVE ( 'NONE', #1056, #570, #371, .T. ) ;
#194 = CARTESIAN_POINT ( 'NONE',  ( 0.4174999999999999822, -0.4799999999999999822, 0.7908052756959443874 ) ) ;
#195 = CARTESIAN_POINT ( 'NONE',  ( 0.4174999999999999822, -0.4799999999999999822, 0.6239999999999999991 ) ) ;
#196 = CARTESIAN_POINT ( 'NONE',  ( 0.4375000000000000000, -0.1869999999999999996, 0.1249999999999999029 ) ) ;
#197 = CARTESIAN_POINT ( 'NONE',  ( 0.000000000000000000, 0.000000000000000000, 0.000000000000000000 ) ) ;
#198 = ORIENTED_EDGE ( 'NONE', *, *, #334, .F. ) ;
#199 = VERTEX_POINT ( 'NONE', #479 ) ;
#200 = EDGE_CURVE ( 'NONE', #146, #570, #885, .T. ) ;
#201 = TOROIDAL_SURFACE ( 'NONE', #945, 0.1605000000000000593, 0.02000000000000000042 ) ;
#202 = FACE_OUTER_BOUND ( 'NONE', #785, .T. ) ;
#203 = AXIS2_PLACEMENT_3D ( 'NONE', #686, #1084, #488 ) ;
#204 = CARTESIAN_POINT ( 'NONE',  ( -0.4375000000000000000, -0.3319999999999999618, 0.6239999999999999991 ) ) ;
#205 = AXIS2_PLACEMENT_3D ( 'NONE', #216, #828, #644 ) ;
#206 = ORIENTED_EDGE ( 'NONE', *, *, #682, .F. ) ;
#207 = AXIS2_PLACEMENT_3D ( 'NONE', #168, #478, #1294 ) ;
#208 = ORIENTED_EDGE ( 'NONE', *, *, #127, .F. ) ;
#209 = CC_DESIGN_PERSON_AND_ORGANIZATION_ASSIGNMENT ( #852, #844, ( #161 ) ) ;
#210 = DIRECTION ( 'NONE',  ( 1.000000000000000000, 0.000000000000000000, 0.000000000000000000 ) ) ;
#211 = DIRECTION ( 'NONE',  ( -1.000000000000000000, -1.224646799147354933E-16, 0.000000000000000000 ) ) ;
#212 = LENGTH_MEASURE_WITH_UNIT ( LENGTH_MEASURE( 0.02539999999999999897 ), #103 );
#213 = DIRECTION ( 'NONE',  ( -1.000000000000000000, 0.000000000000000000, 0.000000000000000000 ) ) ;
#214 = ORIENTED_EDGE ( 'NONE', *, *, #356, .F. ) ;
#215 = CARTESIAN_POINT ( 'NONE',  ( 0.000000000000000000, -0.4799999999999999822, 0.4524999999999999023 ) ) ;
#216 = CARTESIAN_POINT ( 'NONE',  ( -0.4174999999999999822, -0.4799999999999999822, 0.7908052756959444984 ) ) ;
#217 = ADVANCED_FACE ( 'NONE', ( #1064 ), #1304, .T. ) ;
#218 = CYLINDRICAL_SURFACE ( 'NONE', #499, 0.04700000000000000705 ) ;
#219 = EDGE_LOOP ( 'NONE', ( #481, #831, #754, #1212 ) ) ;
#220 = CARTESIAN_POINT ( 'NONE',  ( 0.000000000000000000, 0.000000000000000000, -0.1880000000000000282 ) ) ;
#221 = TOROIDAL_SURFACE ( 'NONE', #968, 0.1680000000000000382, 0.02000000000000000042 ) ;
#222 = LINE ( 'NONE', #1032, #1136 ) ;
#223 = AXIS2_PLACEMENT_3D ( 'NONE', #359, #1060, #150 ) ;
#224 = EDGE_CURVE ( 'NONE', #151, #36, #68, .T. ) ;
#225 = AXIS2_PLACEMENT_3D ( 'NONE', #977, #1253, #61 ) ;
#226 = DIRECTION ( 'NONE',  ( -1.000000000000000000, 3.414809992080330305E-15, -4.094366893173001077E-16 ) ) ;
#227 = AXIS2_PLACEMENT_3D ( 'NONE', #741, #443, #956 ) ;
#228 = ORIENTED_EDGE ( 'NONE', *, *, #738, .F. ) ;
#229 = AXIS2_PLACEMENT_3D ( 'NONE', #85, #995, #1209 ) ;
#230 = DIRECTION ( 'NONE',  ( 0.000000000000000000, 1.000000000000000000, 0.000000000000000000 ) ) ;
#231 = FACE_OUTER_BOUND ( 'NONE', #1189, .T. ) ;
#232 = CARTESIAN_POINT ( 'NONE',  ( -0.4375000000000000000, -0.5000000000000000000, 0.6239999999999999991 ) ) ;
#233 = ADVANCED_FACE ( 'NONE', ( #884 ), #62, .T. ) ;
#234 = ORIENTED_EDGE ( 'NONE', *, *, #1237, .T. ) ;
#235 = EDGE_CURVE ( 'NONE', #553, #1252, #978, .T. ) ;
#236 = CYLINDRICAL_SURFACE ( 'NONE', #589, 0.1249999999999999861 ) ;
#237 = ORIENTED_EDGE ( 'NONE', *, *, #1013, .F. ) ;
#238 = CYLINDRICAL_SURFACE ( 'NONE', #521, 0.1880000000000000282 ) ;
#239 = ORIENTED_EDGE ( 'NONE', *, *, #173, .T. ) ;
#240 = EDGE_CURVE ( 'NONE', #606, #1221, #340, .T. ) ;
#241 = CYLINDRICAL_SURFACE ( 'NONE', #352, 0.02000000000000000042 ) ;
#242 = ORIENTED_EDGE ( 'NONE', *, *, #700, .T. ) ;
#243 = DIRECTION ( 'NONE',  ( 0.000000000000000000, 0.000000000000000000, 1.000000000000000000 ) ) ;
#244 = APPROVAL_DATE_TIME ( #1033, #286 ) ;
#245 = CARTESIAN_POINT ( 'NONE',  ( 0.4175000000000000377, -0.3119999999999999996, 0.1249999999999999029 ) ) ;
#246 = CIRCLE ( 'NONE', #693, 0.1249999999999999861 ) ;
#247 = ORIENTED_EDGE ( 'NONE', *, *, #967, .F. ) ;
#248 = AXIS2_PLACEMENT_3D ( 'NONE', #493, #897, #1300 ) ;
#249 = AXIS2_PLACEMENT_3D ( 'NONE', #429, #637, #1123 ) ;
#250 = DIRECTION ( 'NONE',  ( 1.000000000000000000, 0.000000000000000000, 0.000000000000000000 ) ) ;
#251 = AXIS2_PLACEMENT_3D ( 'NONE', #717, #1211, #411 ) ;
#252 = EDGE_CURVE ( 'NONE', #980, #529, #469, .T. ) ;
#253 = VERTEX_POINT ( 'NONE', #551 ) ;
#254 = DIRECTION ( 'NONE',  ( 0.000000000000000000, 1.000000000000000000, -0.000000000000000000 ) ) ;
#255 = DIRECTION ( 'NONE',  ( 0.000000000000000000, 0.000000000000000000, -1.000000000000000000 ) ) ;
#256 = ORIENTED_EDGE ( 'NONE', *, *, #799, .F. ) ;
#257 = EDGE_LOOP ( 'NONE', ( #1183, #558, #138, #512 ) ) ;
#258 = CYLINDRICAL_SURFACE ( 'NONE', #734, 0.01999999999999999001 ) ;
#259 = DIRECTION ( 'NONE',  ( 0.000000000000000000, 1.000000000000000000, 0.000000000000000000 ) ) ;
#260 = ORIENTED_EDGE ( 'NONE', *, *, #127, .T. ) ;
#261 = ORIENTED_EDGE ( 'NONE', *, *, #404, .T. ) ;
#262 = CARTESIAN_POINT ( 'NONE',  ( 1.965558112631502784E-17, 0.1605000000000000593, -4.664141152760018031E-17 ) ) ;
#263 = DIRECTION ( 'NONE',  ( 1.000000000000000000, 0.000000000000000000, 0.000000000000000000 ) ) ;
#264 = EDGE_CURVE ( 'NONE', #1262, #939, #946, .T. ) ;
#265 = ORIENTED_EDGE ( 'NONE', *, *, #294, .F. ) ;
#266 = AXIS2_PLACEMENT_3D ( 'NONE', #1019, #813, #1215 ) ;
#267 = CIRCLE ( 'NONE', #1137, 0.01999999999999999001 ) ;
#268 = ORIENTED_EDGE ( 'NONE', *, *, #9, .F. ) ;
#269 = AXIS2_PLACEMENT_3D ( 'NONE', #280, #492, #698 ) ;
#270 = FACE_OUTER_BOUND ( 'NONE', #769, .T. ) ;
#271 = APPLICATION_CONTEXT ( 'configuration controlled 3d designs of mechanical parts and assemblies' ) ;
#272 = EDGE_LOOP ( 'NONE', ( #463, #414, #1165, #636 ) ) ;
#273 = EDGE_CURVE ( 'NONE', #48, #817, #1089, .T. ) ;
#274 = EDGE_LOOP ( 'NONE', ( #1158, #278, #166, #365, #1094 ) ) ;
#275 = DIRECTION ( 'NONE',  ( -0.000000000000000000, 1.000000000000000000, 0.000000000000000000 ) ) ;
#276 = ORIENTED_EDGE ( 'NONE', *, *, #500, .T. ) ;
#277 = EDGE_CURVE ( 'NONE', #725, #146, #178, .T. ) ;
#278 = ORIENTED_EDGE ( 'NONE', *, *, #480, .T. ) ;
#279 = DIRECTION ( 'NONE',  ( 0.000000000000000000, 0.000000000000000000, 1.000000000000000000 ) ) ;
#280 = CARTESIAN_POINT ( 'NONE',  ( 0.000000000000000000, 0.000000000000000000, -0.02000000000000005940 ) ) ;
#281 = LINE ( 'NONE', #1005, #864 ) ;
#282 = EDGE_LOOP ( 'NONE', ( #32, #309, #871, #475 ) ) ;
#283 = AXIS2_PLACEMENT_3D ( 'NONE', #1179, #1275, #772 ) ;
#284 = AXIS2_PLACEMENT_3D ( 'NONE', #1268, #876, #762 ) ;
#285 = DIRECTION ( 'NONE',  ( 0.000000000000000000, 0.000000000000000000, -1.000000000000000000 ) ) ;
#286 = APPROVAL ( #867, 'UNSPECIFIED' ) ;
#287 = CYLINDRICAL_SURFACE ( 'NONE', #1073, 0.01999999999999999001 ) ;
#288 = AXIS2_PLACEMENT_3D ( 'NONE', #188, #1190, #496 ) ;
#289 = DIRECTION ( 'NONE',  ( -0.000000000000000000, -1.000000000000000000, -0.000000000000000000 ) ) ;
#290 = ORIENTED_EDGE ( 'NONE', *, *, #1035, .T. ) ;
#291 = CARTESIAN_POINT ( 'NONE',  ( 0.000000000000000000, -0.5000000000000001110, 0.3119999999999998885 ) ) ;
#292 = DIRECTION ( 'NONE',  ( -0.000000000000000000, -0.000000000000000000, 1.000000000000000000 ) ) ;
#293 = DIRECTION ( 'NONE',  ( 1.000000000000000000, 0.000000000000000000, 0.000000000000000000 ) ) ;
#294 = EDGE_CURVE ( 'NONE', #668, #707, #137, .T. ) ;
#295 = ORIENTED_EDGE ( 'NONE', *, *, #368, .F. ) ;
#296 = SPHERICAL_SURFACE ( 'NONE', #1093, 0.02000000000000000042 ) ;
#297 = DIRECTION ( 'NONE',  ( 0.000000000000000000, -1.000000000000000000, 0.000000000000000000 ) ) ;
#298 = DIRECTION ( 'NONE',  ( 0.000000000000000000, 0.000000000000000000, 1.000000000000000000 ) ) ;
#299 = ORIENTED_EDGE ( 'NONE', *, *, #833, .F. ) ;
#300 = EDGE_CURVE ( 'NONE', #1252, #606, #246, .T. ) ;
#301 = ORIENTED_EDGE ( 'NONE', *, *, #1080, .T. ) ;
#302 = AXIS2_PLACEMENT_3D ( 'NONE', #432, #830, #744 ) ;
#303 = DIRECTION ( 'NONE',  ( 0.000000000000000000, 0.000000000000000000, -1.000000000000000000 ) ) ;
#304 = CIRCLE ( 'NONE', #1196, 0.1880000000000000282 ) ;
#305 = DIRECTION ( 'NONE',  ( -0.000000000000000000, -1.000000000000000000, 0.000000000000000000 ) ) ;
#306 = TOROIDAL_SURFACE ( 'NONE', #266, 0.1605000000000000593, 0.02000000000000000042 ) ;
#307 = ORIENTED_EDGE ( 'NONE', *, *, #456, .F. ) ;
#308 = AXIS2_PLACEMENT_3D ( 'NONE', #597, #396, #892 ) ;
#309 = ORIENTED_EDGE ( 'NONE', *, *, #466, .T. ) ;
#310 = ADVANCED_FACE ( 'NONE', ( #369 ), #795, .T. ) ;
#311 = CARTESIAN_POINT ( 'NONE',  ( 0.000000000000000000, -0.5000000000000000000, 0.3119999999999998885 ) ) ;
#312 = LINE ( 'NONE', #722, #483 ) ;
#313 = CARTESIAN_POINT ( 'NONE',  ( 0.4175000000000000377, 0.4986630466121281802, -0.1656190476190476379 ) ) ;
#314 = EDGE_LOOP ( 'NONE', ( #1163, #667, #242, #962 ) ) ;
#315 = CARTESIAN_POINT ( 'NONE',  ( 0.000000000000000000, -0.3119999999999999996, 0.3119999999999999996 ) ) ;
#316 = EDGE_CURVE ( 'NONE', #379, #776, #650, .T. ) ;
#317 = DIRECTION ( 'NONE',  ( 0.000000000000000000, 1.000000000000000000, 0.000000000000000000 ) ) ;
#318 = DIRECTION ( 'NONE',  ( 0.000000000000000000, 0.000000000000000000, -1.000000000000000000 ) ) ;
#319 = ORIENTED_EDGE ( 'NONE', *, *, #894, .F. ) ;
#320 = CARTESIAN_POINT ( 'NONE',  ( 0.4375000000000000000, -0.4530000000000000138, -0.1679999999999999549 ) ) ;
#321 = DIRECTION ( 'NONE',  ( 0.000000000000000000, 0.000000000000000000, 1.000000000000000000 ) ) ;
#322 = ADVANCED_FACE ( 'NONE', ( #270 ), #763, .T. ) ;
#323 = APPROVAL_ROLE ( '' ) ;
#324 = CIRCLE ( 'NONE', #418, 0.01999999999999999001 ) ;
#325 = CARTESIAN_POINT ( 'NONE',  ( 1.965558112631502167E-17, -0.5000000000000000000, 0.4724999999999999201 ) ) ;
#326 = EDGE_CURVE ( 'NONE', #192, #199, #437, .T. ) ;
#327 = VECTOR ( 'NONE', #180, 39.37007874015748143 ) ;
#328 = VERTEX_POINT ( 'NONE', #593 ) ;
#329 = AXIS2_PLACEMENT_3D ( 'NONE', #911, #388, #685 ) ;
#330 = DIRECTION ( 'NONE',  ( 1.000000000000000000, 0.000000000000000000, 0.000000000000000000 ) ) ;
#331 = ORIENTED_EDGE ( 'NONE', *, *, #517, .T. ) ;
#332 = DIRECTION ( 'NONE',  ( -0.000000000000000000, 1.000000000000000000, 0.000000000000000000 ) ) ;
#333 = DIRECTION ( 'NONE',  ( 0.000000000000000000, 0.000000000000000000, 1.000000000000000000 ) ) ;
#334 = EDGE_CURVE ( 'NONE', #1044, #192, #281, .T. ) ;
#335 = ORIENTED_EDGE ( 'NONE', *, *, #300, .F. ) ;
#336 = CARTESIAN_POINT ( 'NONE',  ( 0.4175000000000000377, -0.5000000000000000000, 0.6239999999999999991 ) ) ;
#337 = VERTEX_POINT ( 'NONE', #86 ) ;
#338 = FACE_OUTER_BOUND ( 'NONE', #507, .T. ) ;
#339 = CALENDAR_DATE ( 2026, 18, 1 ) ;
#340 = LINE ( 'NONE', #972, #753 ) ;
#341 = APPROVAL ( #453, 'UNSPECIFIED' ) ;
#342 = ORIENTED_EDGE ( 'NONE', *, *, #273, .T. ) ;
#343 = EDGE_CURVE ( 'NONE', #126, #328, #349, .T. ) ;
#344 = DIRECTION ( 'NONE',  ( 0.000000000000000000, -0.000000000000000000, -1.000000000000000000 ) ) ;
#345 = EDGE_LOOP ( 'NONE', ( #519, #1296, #1174, #1181 ) ) ;
#346 = CARTESIAN_POINT ( 'NONE',  ( 1.720628752802032068E-17, -0.4799999999999999822, 0.1714999999999999025 ) ) ;
#347 = APPROVAL_DATE_TIME ( #835, #341 ) ;
#348 = DIRECTION ( 'NONE',  ( 1.224646799147354933E-16, 1.000000000000000000, 0.000000000000000000 ) ) ;
#349 = CIRCLE ( 'NONE', #1155, 0.01999999999999999001 ) ;
#350 = AXIS2_PLACEMENT_3D ( 'NONE', #917, #1321, #409 ) ;
#351 = ORIENTED_EDGE ( 'NONE', *, *, #528, .F. ) ;
#352 = AXIS2_PLACEMENT_3D ( 'NONE', #1057, #746, #752 ) ;
#353 = AXIS2_PLACEMENT_3D ( 'NONE', #291, #596, #187 ) ;
#354 = CYLINDRICAL_SURFACE ( 'NONE', #227, 0.01999999999999999001 ) ;
#355 = ORGANIZATION ( 'UNSPECIFIED', 'UNSPECIFIED', '' ) ;
#356 = EDGE_CURVE ( 'NONE', #1221, #106, #304, .T. ) ;
#357 = ORIENTED_EDGE ( 'NONE', *, *, #277, .T. ) ;
#358 = CARTESIAN_POINT ( 'NONE',  ( 0.4174999999999999822, 0.4788052756959444989, -0.1679999999999999549 ) ) ;
#359 = CARTESIAN_POINT ( 'NONE',  ( -0.4174999999999999822, -0.3319999999999999618, 0.1249999999999999029 ) ) ;
#360 = ORIENTED_EDGE ( 'NONE', *, *, #1272, .F. ) ;
#361 = ORIENTED_EDGE ( 'NONE', *, *, #471, .T. ) ;
#362 = DIRECTION ( 'NONE',  ( 3.414809992080330699E-15, 1.000000000000000000, 3.414809992080330699E-15 ) ) ;
#363 = EDGE_CURVE ( 'NONE', #64, #1324, #70, .T. ) ;
#364 = CARTESIAN_POINT ( 'NONE',  ( -0.4174999999999999822, -0.4799999999999999822, 0.7908052756959442764 ) ) ;
#365 = ORIENTED_EDGE ( 'NONE', *, *, #1172, .T. ) ;
#366 = EDGE_LOOP ( 'NONE', ( #412, #607, #875, #1076 ) ) ;
#367 = DIRECTION ( 'NONE',  ( 0.000000000000000000, 0.1190476190476196239, -0.9928885458091925020 ) ) ;
#368 = EDGE_CURVE ( 'NONE', #1240, #991, #773, .T. ) ;
#369 = FACE_OUTER_BOUND ( 'NONE', #850, .T. ) ;
#370 = ORIENTED_EDGE ( 'NONE', *, *, #935, .F. ) ;
#371 = CIRCLE ( 'NONE', #1218, 0.01999999999999999001 ) ;
#372 = CIRCLE ( 'NONE', #248, 0.1405000000000000693 ) ;
#373 = AXIS2_PLACEMENT_3D ( 'NONE', #2, #1023, #535 ) ;
#374 = VERTEX_POINT ( 'NONE', #204 ) ;
#375 = CARTESIAN_POINT ( 'NONE',  ( -0.1405000000000000693, 1.720628752802031760E-17, -0.02000000000000005940 ) ) ;
#376 = LOCAL_TIME ( 10, 53, 30.00000000000000000, #425 ) ;
#377 = FACE_OUTER_BOUND ( 'NONE', #1016, .T. ) ;
#378 = DIRECTION ( 'NONE',  ( 0.000000000000000000, 0.000000000000000000, -1.000000000000000000 ) ) ;
#379 = VERTEX_POINT ( 'NONE', #505 ) ;
#380 = EDGE_CURVE ( 'NONE', #253, #374, #416, .T. ) ;
#381 = VERTEX_POINT ( 'NONE', #801 ) ;
#382 = CARTESIAN_POINT ( 'NONE',  ( -0.4174999999999999822, -0.1869999999999999996, -1.024442997624098707E-16 ) ) ;
#383 = CARTESIAN_POINT ( 'NONE',  ( 0.000000000000000000, -0.3119999999999999996, 0.4724999999999999201 ) ) ;
#384 = DIRECTION ( 'NONE',  ( 0.000000000000000000, -1.000000000000000000, 0.000000000000000000 ) ) ;
#385 = ORIENTED_EDGE ( 'NONE', *, *, #1302, .T. ) ;
#386 = EDGE_CURVE ( 'NONE', #776, #1280, #969, .T. ) ;
#387 = FACE_OUTER_BOUND ( 'NONE', #1291, .T. ) ;
#388 = DIRECTION ( 'NONE',  ( -1.000000000000000000, -0.000000000000000000, -0.000000000000000000 ) ) ;
#389 = DIRECTION ( 'NONE',  ( 0.000000000000000000, -1.000000000000000000, 0.000000000000000000 ) ) ;
#390 = FACE_OUTER_BOUND ( 'NONE', #257, .T. ) ;
#391 = AXIS2_PLACEMENT_3D ( 'NONE', #1204, #1098, #584 ) ;
#392 = CIRCLE ( 'NONE', #462, 0.02000000000000000042 ) ;
#393 = DIRECTION ( 'NONE',  ( 1.000000000000000000, 0.000000000000000000, 0.000000000000000000 ) ) ;
#394 = CIRCLE ( 'NONE', #75, 0.1880000000000000282 ) ;
#395 = ADVANCED_FACE ( 'NONE', ( #782 ), #912, .T. ) ;
#396 = DIRECTION ( 'NONE',  ( 0.000000000000000000, 1.000000000000000000, 0.000000000000000000 ) ) ;
#397 = AXIS2_PLACEMENT_3D ( 'NONE', #806, #80, #1083 ) ;
#398 = DIRECTION ( 'NONE',  ( 1.000000000000000000, -0.000000000000000000, 1.224646799147353207E-16 ) ) ;
#399 = CARTESIAN_POINT ( 'NONE',  ( 0.000000000000000000, -0.4799999999999999822, 0.3119999999999998885 ) ) ;
#400 = CARTESIAN_POINT ( 'NONE',  ( -0.4174999999999999822, -0.3319999999999999618, 0.6239999999999999991 ) ) ;
#401 = DIRECTION ( 'NONE',  ( -0.000000000000000000, 1.000000000000000000, 0.000000000000000000 ) ) ;
#402 = DIRECTION ( 'NONE',  ( -0.000000000000000000, 1.000000000000000000, 0.000000000000000000 ) ) ;
#403 = DIRECTION ( 'NONE',  ( 0.000000000000000000, 0.000000000000000000, -1.000000000000000000 ) ) ;
#404 = EDGE_CURVE ( 'NONE', #817, #914, #1067, .T. ) ;
#405 = DIRECTION ( 'NONE',  ( 0.000000000000000000, 0.000000000000000000, 1.000000000000000000 ) ) ;
#406 = ORIENTED_EDGE ( 'NONE', *, *, #1302, .F. ) ;
#407 = ORIENTED_EDGE ( 'NONE', *, *, #952, .F. ) ;
#408 = CARTESIAN_POINT ( 'NONE',  ( -0.4174999999999999822, 0.3119999999999999996, -0.1880000000000000282 ) ) ;
#409 = DIRECTION ( 'NONE',  ( 0.000000000000000000, 0.000000000000000000, 1.000000000000000000 ) ) ;
#410 = PRODUCT_RELATED_PRODUCT_CATEGORY ( 'detail', '', ( #105 ) ) ;
#411 = DIRECTION ( 'NONE',  ( 0.000000000000000000, -1.000000000000000000, -1.368661319471073838E-16 ) ) ;
#412 = ORIENTED_EDGE ( 'NONE', *, *, #456, .T. ) ;
#413 = EDGE_CURVE ( 'NONE', #1240, #606, #732, .T. ) ;
#414 = ORIENTED_EDGE ( 'NONE', *, *, #988, .T. ) ;
#415 = DIRECTION ( 'NONE',  ( 0.000000000000000000, 0.9928885458091925020, 0.1190476190476192353 ) ) ;
#416 = CIRCLE ( 'NONE', #585, 0.1680000000000000382 ) ;
#417 = FACE_OUTER_BOUND ( 'NONE', #1022, .T. ) ;
#418 = AXIS2_PLACEMENT_3D ( 'NONE', #669, #243, #445 ) ;
#419 = DIRECTION ( 'NONE',  ( 0.000000000000000000, -1.000000000000000000, -1.368661319471073838E-16 ) ) ;
#420 = AXIS2_PLACEMENT_3D ( 'NONE', #5, #1231, #419 ) ;
#421 = ORIENTED_EDGE ( 'NONE', *, *, #386, .T. ) ;
#422 = EDGE_CURVE ( 'NONE', #991, #48, #1288, .T. ) ;
#423 = DIRECTION ( 'NONE',  ( 0.000000000000000000, 0.000000000000000000, -1.000000000000000000 ) ) ;
#424 = DIRECTION ( 'NONE',  ( -1.224646799147353207E-16, 1.000000000000000000, 0.000000000000000000 ) ) ;
#425 = COORDINATED_UNIVERSAL_TIME_OFFSET ( 6, 0, .BEHIND. ) ;
#426 = DIRECTION ( 'NONE',  ( 0.000000000000000000, 0.000000000000000000, -1.000000000000000000 ) ) ;
#427 = ORIENTED_EDGE ( 'NONE', *, *, #1182, .T. ) ;
#428 = EDGE_CURVE ( 'NONE', #914, #470, #91, .T. ) ;
#429 = CARTESIAN_POINT ( 'NONE',  ( 0.000000000000000000, 0.000000000000000000, -0.1880000000000000282 ) ) ;
#430 = CARTESIAN_POINT ( 'NONE',  ( 0.4175000000000000377, -0.3119999999999999996, 0.6239999999999999991 ) ) ;
#431 = PERSON_AND_ORGANIZATION ( #1251, #355 ) ;
#432 = CARTESIAN_POINT ( 'NONE',  ( 0.000000000000000000, 0.000000000000000000, -0.02000000000000005940 ) ) ;
#433 = EDGE_LOOP ( 'NONE', ( #1010, #385 ) ) ;
#434 = DIRECTION ( 'NONE',  ( 0.000000000000000000, 0.000000000000000000, -1.000000000000000000 ) ) ;
#435 = CARTESIAN_POINT ( 'NONE',  ( -0.4174999999999999822, 0.4788052756959443323, -0.1880000000000000282 ) ) ;
#436 = ADVANCED_FACE ( 'NONE', ( #987 ), #26, .T. ) ;
#437 = CIRCLE ( 'NONE', #4, 0.04700000000000000705 ) ;
#438 = CALENDAR_DATE ( 2026, 18, 1 ) ;
#439 = CIRCLE ( 'NONE', #1177, 0.01999999999999999001 ) ;
#440 = CIRCLE ( 'NONE', #971, 0.1680000000000000382 ) ;
#441 = VERTEX_POINT ( 'NONE', #893 ) ;
#442 = CC_DESIGN_APPROVAL ( #341, ( #161 ) ) ;
#443 = DIRECTION ( 'NONE',  ( 0.000000000000000000, 0.000000000000000000, 1.000000000000000000 ) ) ;
#444 = ORIENTED_EDGE ( 'NONE', *, *, #918, .F. ) ;
#445 = DIRECTION ( 'NONE',  ( 1.000000000000000000, 0.000000000000000000, 0.000000000000000000 ) ) ;
#446 = DATE_TIME_ROLE ( 'classification_date' ) ;
#447 = APPROVAL ( #932, 'UNSPECIFIED' ) ;
#448 = DIRECTION ( 'NONE',  ( -1.000000000000000000, -0.000000000000000000, -0.000000000000000000 ) ) ;
#449 = ORIENTED_EDGE ( 'NONE', *, *, #66, .T. ) ;
#450 = LINE ( 'NONE', #1145, #1242 ) ;
#451 = ORIENTED_EDGE ( 'NONE', *, *, #1117, .T. ) ;
#452 = CARTESIAN_POINT ( 'NONE',  ( -0.4174999999999999822, -0.5000000000000000000, 0.6239999999999999991 ) ) ;
#453 = APPROVAL_STATUS ( 'not_yet_approved' ) ;
#454 = DIRECTION ( 'NONE',  ( 1.000000000000000000, 0.000000000000000000, 0.000000000000000000 ) ) ;
#455 = ORIENTED_EDGE ( 'NONE', *, *, #326, .T. ) ;
#456 = EDGE_CURVE ( 'NONE', #192, #1036, #439, .T. ) ;
#457 = CARTESIAN_POINT ( 'NONE',  ( -0.4375000000000000000, 0.4788052756959444434, -0.1880000000000000282 ) ) ;
#458 = ORIENTED_EDGE ( 'NONE', *, *, #700, .F. ) ;
#459 = DIRECTION ( 'NONE',  ( 0.000000000000000000, 0.000000000000000000, -1.000000000000000000 ) ) ;
#460 = DIRECTION ( 'NONE',  ( 1.000000000000000000, 0.000000000000000000, 0.000000000000000000 ) ) ;
#461 = AXIS2_PLACEMENT_3D ( 'NONE', #364, #749, #860 ) ;
#462 = AXIS2_PLACEMENT_3D ( 'NONE', #1159, #254, #866 ) ;
#463 = ORIENTED_EDGE ( 'NONE', *, *, #23, .T. ) ;
#464 = CIRCLE ( 'NONE', #29, 0.02000000000000002817 ) ;
#465 = VECTOR ( 'NONE', #292, 39.37007874015748143 ) ;
#466 = EDGE_CURVE ( 'NONE', #750, #976, #564, .T. ) ;
#467 = ORIENTED_EDGE ( 'NONE', *, *, #784, .F. ) ;
#468 = CARTESIAN_POINT ( 'NONE',  ( 0.4175000000000000377, -0.4530000000000000138, -0.1409999999999999309 ) ) ;
#469 = LINE ( 'NONE', #652, #1282 ) ;
#470 = VERTEX_POINT ( 'NONE', #692 ) ;
#471 = EDGE_CURVE ( 'NONE', #441, #1036, #1285, .T. ) ;
#472 = ORIENTED_EDGE ( 'NONE', *, *, #59, .T. ) ;
#473 = DIRECTION ( 'NONE',  ( -0.000000000000000000, 1.000000000000000000, 2.734582576240503775E-16 ) ) ;
#474 = CARTESIAN_POINT ( 'NONE',  ( -0.4174999999999999822, 0.4788052756959443323, -0.1680000000000000382 ) ) ;
#475 = ORIENTED_EDGE ( 'NONE', *, *, #582, .T. ) ;
#476 = ORIENTED_EDGE ( 'NONE', *, *, #316, .T. ) ;
#477 = DIRECTION ( 'NONE',  ( 0.000000000000000000, 0.000000000000000000, 1.000000000000000000 ) ) ;
#478 = DIRECTION ( 'NONE',  ( 1.000000000000000000, 0.000000000000000000, 0.000000000000000000 ) ) ;
#479 = CARTESIAN_POINT ( 'NONE',  ( 0.4175000000000000377, -0.5000000000000000000, -0.1409999999999999309 ) ) ;
#480 = EDGE_CURVE ( 'NONE', #328, #151, #372, .T. ) ;
#481 = ORIENTED_EDGE ( 'NONE', *, *, #975, .F. ) ;
#482 = AXIS2_PLACEMENT_3D ( 'NONE', #532, #824, #1127 ) ;
#483 = VECTOR ( 'NONE', #1024, 39.37007874015748143 ) ;
#484 = CIRCLE ( 'NONE', #373, 0.1405000000000000693 ) ;
#485 = ORIENTED_EDGE ( 'NONE', *, *, #1313, .T. ) ;
#486 = FACE_BOUND ( 'NONE', #433, .T. ) ;
#487 = DIRECTION ( 'NONE',  ( 0.000000000000000000, 0.000000000000000000, -1.000000000000000000 ) ) ;
#488 = DIRECTION ( 'NONE',  ( -1.000000000000000000, 0.000000000000000000, 0.000000000000000000 ) ) ;
#489 = EDGE_CURVE ( 'NONE', #1146, #1240, #735, .T. ) ;
#490 = LINE ( 'NONE', #498, #924 ) ;
#491 = CARTESIAN_POINT ( 'NONE',  ( 0.4375000000000000000, 0.4788052756959443323, -0.1679999999999999549 ) ) ;
#492 = DIRECTION ( 'NONE',  ( 0.000000000000000000, -1.368661319471073838E-16, 1.000000000000000000 ) ) ;
#493 = CARTESIAN_POINT ( 'NONE',  ( 0.000000000000000000, 0.000000000000000000, -0.1680000000000000382 ) ) ;
#494 = ORIENTED_EDGE ( 'NONE', *, *, #428, .F. ) ;
#495 = FACE_OUTER_BOUND ( 'NONE', #282, .T. ) ;
#496 = DIRECTION ( 'NONE',  ( 0.000000000000000000, 0.000000000000000000, -1.000000000000000000 ) ) ;
#497 = DIRECTION ( 'NONE',  ( -1.000000000000000000, -0.000000000000000000, -0.000000000000000000 ) ) ;
#498 = CARTESIAN_POINT ( 'NONE',  ( -0.4375000000000000000, 0.4986630466121282357, -0.1656190476190476379 ) ) ;
#499 = AXIS2_PLACEMENT_3D ( 'NONE', #938, #1238, #1132 ) ;
#500 = EDGE_CURVE ( 'NONE', #159, #1056, #222, .T. ) ;
#501 = TOROIDAL_SURFACE ( 'NONE', #1199, 0.02700000000000000316, 0.02000000000000000042 ) ;
#502 = DIRECTION ( 'NONE',  ( 0.000000000000000000, -0.9928885458091925020, 0.1190476190476196239 ) ) ;
#503 = VECTOR ( 'NONE', #786, 39.37007874015748143 ) ;
#504 = FACE_OUTER_BOUND ( 'NONE', #219, .T. ) ;
#505 = CARTESIAN_POINT ( 'NONE',  ( -0.4174999999999999822, -0.3119999999999999996, 0.1249999999999999029 ) ) ;
#506 = DATE_TIME_ROLE ( 'creation_date' ) ;
#507 = EDGE_LOOP ( 'NONE', ( #765, #616, #643, #228 ) ) ;
#508 = EDGE_LOOP ( 'NONE', ( #449, #261, #163 ) ) ;
#509 = FACE_BOUND ( 'NONE', #979, .T. ) ;
#510 = PRODUCT_DEFINITION_SHAPE ( 'NONE', 'NONE',  #1188 ) ;
#511 = DIRECTION ( 'NONE',  ( -1.000000000000000000, 3.414809992080330305E-15, -4.094366893173001077E-16 ) ) ;
#512 = ORIENTED_EDGE ( 'NONE', *, *, #343, .F. ) ;
#513 = VERTEX_POINT ( 'NONE', #435 ) ;
#514 = PLANE ( 'NONE',  #1011 ) ;
#515 = DIRECTION ( 'NONE',  ( 0.000000000000000000, 0.000000000000000000, -1.000000000000000000 ) ) ;
#516 = PERSON_AND_ORGANIZATION ( #1251, #355 ) ;
#517 = EDGE_CURVE ( 'NONE', #337, #1280, #797, .T. ) ;
#518 = FACE_OUTER_BOUND ( 'NONE', #915, .T. ) ;
#519 = ORIENTED_EDGE ( 'NONE', *, *, #540, .T. ) ;
#520 = CIRCLE ( 'NONE', #1193, 0.01999999999999999001 ) ;
#521 = AXIS2_PLACEMENT_3D ( 'NONE', #232, #1040, #1021 ) ;
#522 = DIRECTION ( 'NONE',  ( 0.000000000000000000, 0.000000000000000000, -1.000000000000000000 ) ) ;
#523 = CIRCLE ( 'NONE', #1265, 0.1880000000000000282 ) ;
#524 = FACE_OUTER_BOUND ( 'NONE', #758, .T. ) ;
#525 = AXIS2_PLACEMENT_3D ( 'NONE', #311, #733, #303 ) ;
#526 = PERSON_AND_ORGANIZATION_ROLE ( 'design_owner' ) ;
#527 = DIRECTION ( 'NONE',  ( -6.829619984160661399E-15, 0.000000000000000000, 1.000000000000000000 ) ) ;
#528 = EDGE_CURVE ( 'NONE', #570, #513, #1140, .T. ) ;
#529 = VERTEX_POINT ( 'NONE', #1125 ) ;
#530 = CARTESIAN_POINT ( 'NONE',  ( 0.4375000000000000000, -0.5000000000000000000, 0.6239999999999999991 ) ) ;
#531 = CARTESIAN_POINT ( 'NONE',  ( -0.4174999999999999822, -0.3119999999999999996, 0.6239999999999999991 ) ) ;
#532 = CARTESIAN_POINT ( 'NONE',  ( 0.4175000000000000377, -0.5000000000000000000, 0.6239999999999999991 ) ) ;
#533 = ORIENTED_EDGE ( 'NONE', *, *, #790, .T. ) ;
#534 = EDGE_CURVE ( 'NONE', #1056, #725, #51, .T. ) ;
#535 = DIRECTION ( 'NONE',  ( 0.000000000000000000, -1.000000000000000000, -1.519043590783063737E-16 ) ) ;
#536 = DIRECTION ( 'NONE',  ( 0.000000000000000000, -1.000000000000000000, 0.000000000000000000 ) ) ;
#537 = CARTESIAN_POINT ( 'NONE',  ( 0.000000000000000000, -0.4799999999999999822, 0.1514999999999999125 ) ) ;
#538 = ORIENTED_EDGE ( 'NONE', *, *, #960, .F. ) ;
#539 = DIRECTION ( 'NONE',  ( 0.000000000000000000, 0.000000000000000000, -1.000000000000000000 ) ) ;
#540 = EDGE_CURVE ( 'NONE', #199, #441, #28, .T. ) ;
#541 = ORIENTED_EDGE ( 'NONE', *, *, #1065, .T. ) ;
#542 = CARTESIAN_POINT ( 'NONE',  ( -0.4174999999999999822, -0.5000000000000000000, 0.6239999999999999991 ) ) ;
#543 = VECTOR ( 'NONE', #878, 39.37007874015748143 ) ;
#544 = AXIS2_PLACEMENT_3D ( 'NONE', #1246, #114, #1039 ) ;
#545 = DIRECTION ( 'NONE',  ( -1.000000000000000000, 0.000000000000000000, 0.000000000000000000 ) ) ;
#546 = AXIS2_PLACEMENT_3D ( 'NONE', #1214, #1138, #128 ) ;
#547 = ORIENTED_EDGE ( 'NONE', *, *, #833, .T. ) ;
#548 = CARTESIAN_POINT ( 'NONE',  ( -0.4375000000000000000, -0.3319999999999999618, 0.1249999999999999029 ) ) ;
#549 = DIRECTION ( 'NONE',  ( 1.000000000000000000, 0.000000000000000000, 0.000000000000000000 ) ) ;
#550 = CALENDAR_DATE ( 2026, 18, 1 ) ;
#551 = CARTESIAN_POINT ( 'NONE',  ( -0.4375000000000000000, -0.4799999999999999822, 0.7908052756959443874 ) ) ;
#552 = EDGE_CURVE ( 'NONE', #379, #974, #631, .T. ) ;
#553 = VERTEX_POINT ( 'NONE', #430 ) ;
#554 = FACE_OUTER_BOUND ( 'NONE', #770, .T. ) ;
#555 = FACE_BOUND ( 'NONE', #1170, .T. ) ;
#556 = CARTESIAN_POINT ( 'NONE',  ( -0.4174999999999999822, -0.4530000000000000138, -0.1409999999999999309 ) ) ;
#557 = EDGE_CURVE ( 'NONE', #1066, #151, #1009, .T. ) ;
#558 = ORIENTED_EDGE ( 'NONE', *, *, #557, .T. ) ;
#559 = ORIENTED_EDGE ( 'NONE', *, *, #641, .F. ) ;
#560 = DIRECTION ( 'NONE',  ( 0.000000000000000000, 1.000000000000000000, -6.829619984160637733E-15 ) ) ;
#561 = CIRCLE ( 'NONE', #1027, 0.01999999999999999001 ) ;
#562 = DIRECTION ( 'NONE',  ( -0.000000000000000000, -0.000000000000000000, 1.000000000000000000 ) ) ;
#563 = AXIS2_PLACEMENT_3D ( 'NONE', #76, #293, #807 ) ;
#564 = CIRCLE ( 'NONE', #651, 0.1404999999999999860 ) ;
#565 = ORIENTED_EDGE ( 'NONE', *, *, #682, .T. ) ;
#566 = ADVANCED_FACE ( 'NONE', ( #619 ), #306, .T. ) ;
#567 = CIRCLE ( 'NONE', #736, 0.1880000000000000282 ) ;
#568 = CIRCLE ( 'NONE', #77, 0.1404999999999999860 ) ;
#569 = EDGE_CURVE ( 'NONE', #529, #253, #1051, .T. ) ;
#570 = VERTEX_POINT ( 'NONE', #108 ) ;
#571 = CARTESIAN_POINT ( 'NONE',  ( 1.843093432716767426E-17, 0.1405000000000000693, -0.02000000000000003858 ) ) ;
#572 = CARTESIAN_POINT ( 'NONE',  ( -0.4174999999999999822, -0.1869999999999999996, 0.1249999999999999029 ) ) ;
#573 = ORIENTED_EDGE ( 'NONE', *, *, #193, .T. ) ;
#574 = ADVANCED_FACE ( 'NONE', ( #1045 ), #822, .T. ) ;
#575 = VERTEX_POINT ( 'NONE', #834 ) ;
#576 = CARTESIAN_POINT ( 'NONE',  ( -0.4375000000000000000, -0.1869999999999999996, -8.537024980200822558E-17 ) ) ;
#577 = CARTESIAN_POINT ( 'NONE',  ( 0.4175000000000000377, -0.5000000000000000000, 0.8119999999999999440 ) ) ;
#578 = DIRECTION ( 'NONE',  ( -0.000000000000000000, 1.000000000000000000, 1.368661319471073838E-16 ) ) ;
#579 = ORIENTED_EDGE ( 'NONE', *, *, #489, .T. ) ;
#580 = ORIENTED_EDGE ( 'NONE', *, *, #952, .T. ) ;
#581 = DIRECTION ( 'NONE',  ( 0.000000000000000000, 0.000000000000000000, -1.000000000000000000 ) ) ;
#582 = EDGE_CURVE ( 'NONE', #939, #1324, #117, .T. ) ;
#583 = LINE ( 'NONE', #1101, #1244 ) ;
#584 = DIRECTION ( 'NONE',  ( 0.000000000000000000, 0.000000000000000000, -1.000000000000000000 ) ) ;
#585 = AXIS2_PLACEMENT_3D ( 'NONE', #1108, #604, #403 ) ;
#586 = ORIENTED_EDGE ( 'NONE', *, *, #200, .T. ) ;
#587 = AXIS2_PLACEMENT_3D ( 'NONE', #169, #259, #665 ) ;
#588 = AXIS2_PLACEMENT_3D ( 'NONE', #931, #536, #716 ) ;
#589 = AXIS2_PLACEMENT_3D ( 'NONE', #133, #44, #1250 ) ;
#590 = DIRECTION ( 'NONE',  ( 0.000000000000000000, -0.9928885458091925020, 0.1190476190476196239 ) ) ;
#591 = CIRCLE ( 'NONE', #889, 0.02000000000000005940 ) ;
#592 = FACE_OUTER_BOUND ( 'NONE', #1041, .T. ) ;
#593 = CARTESIAN_POINT ( 'NONE',  ( -0.1405000000000000693, 1.720628752802032068E-17, -0.1680000000000000382 ) ) ;
#594 = ADVANCED_FACE ( 'NONE', ( #231 ), #948, .T. ) ;
#595 = CARTESIAN_POINT ( 'NONE',  ( 0.4375000000000000000, -0.5000000000000000000, 0.6239999999999999991 ) ) ;
#596 = DIRECTION ( 'NONE',  ( -0.000000000000000000, 1.000000000000000000, 2.734582576240503775E-16 ) ) ;
#597 = CARTESIAN_POINT ( 'NONE',  ( 0.4174999999999999822, -0.4799999999999999822, 0.7908052756959442764 ) ) ;
#598 = DIRECTION ( 'NONE',  ( 0.000000000000000000, 0.000000000000000000, 1.000000000000000000 ) ) ;
#599 = DATE_AND_TIME ( #729, #376 ) ;
#600 = ORIENTED_EDGE ( 'NONE', *, *, #862, .F. ) ;
#601 = ADVANCED_FACE ( 'NONE', ( #417 ), #841, .F. ) ;
#602 = CARTESIAN_POINT ( 'NONE',  ( 0.4375000000000000000, -0.4799999999999999822, 0.7908052756959443874 ) ) ;
#603 = DIRECTION ( 'NONE',  ( 1.000000000000000000, 0.000000000000000000, 0.000000000000000000 ) ) ;
#604 = DIRECTION ( 'NONE',  ( -1.000000000000000000, -0.000000000000000000, -0.000000000000000000 ) ) ;
#605 = DATE_AND_TIME ( #808, #676 ) ;
#606 = VERTEX_POINT ( 'NONE', #135 ) ;
#607 = ORIENTED_EDGE ( 'NONE', *, *, #471, .F. ) ;
#608 = EDGE_CURVE ( 'NONE', #1262, #64, #139, .T. ) ;
#609 = AXIS2_PLACEMENT_3D ( 'NONE', #902, #398, #1306 ) ;
#610 = AXIS2_PLACEMENT_3D ( 'NONE', #623, #24, #922 ) ;
#611 = FACE_OUTER_BOUND ( 'NONE', #274, .T. ) ;
#612 = AXIS2_PLACEMENT_3D ( 'NONE', #697, #900, #798 ) ;
#613 = AXIS2_PLACEMENT_3D ( 'NONE', #1090, #402, #792 ) ;
#614 = DIRECTION ( 'NONE',  ( 0.000000000000000000, 0.000000000000000000, -1.000000000000000000 ) ) ;
#615 = VERTEX_POINT ( 'NONE', #3 ) ;
#616 = ORIENTED_EDGE ( 'NONE', *, *, #380, .F. ) ;
#617 = CARTESIAN_POINT ( 'NONE',  ( -0.4375000000000000000, 0.3119999999999999996, -0.02000000000000003511 ) ) ;
#618 = EDGE_CURVE ( 'NONE', #817, #441, #312, .T. ) ;
#619 = FACE_OUTER_BOUND ( 'NONE', #1002, .T. ) ;
#620 = DIRECTION ( 'NONE',  ( 1.000000000000000000, 0.000000000000000000, 6.829619984160661399E-15 ) ) ;
#621 = ORIENTED_EDGE ( 'NONE', *, *, #273, .F. ) ;
#622 = CARTESIAN_POINT ( 'NONE',  ( 0.4175000000000000377, -0.4799999999999999822, 0.8108052756959445162 ) ) ;
#623 = CARTESIAN_POINT ( 'NONE',  ( -0.4174999999999999822, 0.3119999999999999996, -0.1880000000000000282 ) ) ;
#624 = ADVANCED_FACE ( 'NONE', ( #524 ), #258, .T. ) ;
#625 = DIRECTION ( 'NONE',  ( 1.000000000000000000, 0.000000000000000000, 0.000000000000000000 ) ) ;
#626 = ORIENTED_EDGE ( 'NONE', *, *, #751, .F. ) ;
#627 = VECTOR ( 'NONE', #846, 39.37007874015748143 ) ;
#628 = TOROIDAL_SURFACE ( 'NONE', #482, 0.1680000000000000382, 0.02000000000000000042 ) ;
#629 = DIRECTION ( 'NONE',  ( -0.000000000000000000, -1.000000000000000000, -0.000000000000000000 ) ) ;
#630 = TOROIDAL_SURFACE ( 'NONE', #157, 0.1449999999999999900, 0.02000000000000000042 ) ;
#631 = LINE ( 'NONE', #531, #1307 ) ;
#632 = AXIS2_PLACEMENT_3D ( 'NONE', #147, #947, #963 ) ;
#633 = LOCAL_TIME ( 10, 53, 30.00000000000000000, #34 ) ;
#634 = MANIFOLD_SOLID_BREP ( 'Fillet3', #177 ) ;
#635 = DIRECTION ( 'NONE',  ( 0.000000000000000000, -1.368661319471073838E-16, 1.000000000000000000 ) ) ;
#636 = ORIENTED_EDGE ( 'NONE', *, *, #356, .T. ) ;
#637 = DIRECTION ( 'NONE',  ( -0.000000000000000000, -0.000000000000000000, 1.000000000000000000 ) ) ;
#638 = DIRECTION ( 'NONE',  ( 1.000000000000000000, 0.000000000000000000, 0.000000000000000000 ) ) ;
#639 = DIRECTION ( 'NONE',  ( 1.000000000000000000, 0.000000000000000000, 0.000000000000000000 ) ) ;
#640 = ORIENTED_EDGE ( 'NONE', *, *, #1037, .F. ) ;
#641 = EDGE_CURVE ( 'NONE', #779, #1044, #906, .T. ) ;
#642 = CYLINDRICAL_SURFACE ( 'NONE', #653, 0.01999999999999999001 ) ;
#643 = ORIENTED_EDGE ( 'NONE', *, *, #842, .F. ) ;
#644 = DIRECTION ( 'NONE',  ( 0.000000000000000000, -1.000000000000000000, -6.829619984160661399E-15 ) ) ;
#645 = SECURITY_CLASSIFICATION_LEVEL ( 'unclassified' ) ;
#646 = DIRECTION ( 'NONE',  ( 0.000000000000000000, 0.000000000000000000, -1.000000000000000000 ) ) ;
#647 = EDGE_LOOP ( 'NONE', ( #247, #1276, #761, #1074 ) ) ;
#648 = CARTESIAN_POINT ( 'NONE',  ( -0.4174999999999999822, -0.5000000000000000000, -0.1680000000000000382 ) ) ;
#649 = DIRECTION ( 'NONE',  ( 1.000000000000000000, 0.000000000000000000, 0.000000000000000000 ) ) ;
#650 = CIRCLE ( 'NONE', #223, 0.01999999999999999001 ) ;
#651 = AXIS2_PLACEMENT_3D ( 'NONE', #1191, #389, #996 ) ;
#652 = CARTESIAN_POINT ( 'NONE',  ( -0.4375000000000000000, -0.5000000000000000000, 0.7908052756959443874 ) ) ;
#653 = AXIS2_PLACEMENT_3D ( 'NONE', #759, #856, #37 ) ;
#654 = ORIENTED_EDGE ( 'NONE', *, *, #784, .T. ) ;
#655 = CIRCLE ( 'NONE', #397, 0.1404999999999999860 ) ;
#656 = FACE_OUTER_BOUND ( 'NONE', #155, .T. ) ;
#657 = ORIENTED_EDGE ( 'NONE', *, *, #264, .T. ) ;
#658 = FACE_OUTER_BOUND ( 'NONE', #1319, .T. ) ;
#659 = EDGE_CURVE ( 'NONE', #750, #1324, #1063, .T. ) ;
#660 = DIRECTION ( 'NONE',  ( -0.000000000000000000, -1.000000000000000000, -0.000000000000000000 ) ) ;
#661 = ORIENTED_EDGE ( 'NONE', *, *, #386, .F. ) ;
#662 = ORIENTED_EDGE ( 'NONE', *, *, #799, .T. ) ;
#663 = DIRECTION ( 'NONE',  ( 0.000000000000000000, 6.829619984160661399E-15, 1.000000000000000000 ) ) ;
#664 = EDGE_CURVE ( 'NONE', #151, #328, #1113, .T. ) ;
#665 = DIRECTION ( 'NONE',  ( 1.000000000000000000, 0.000000000000000000, 0.000000000000000000 ) ) ;
#666 = ADVANCED_FACE ( 'NONE', ( #950 ), #501, .T. ) ;
#667 = ORIENTED_EDGE ( 'NONE', *, *, #552, .T. ) ;
#668 = VERTEX_POINT ( 'NONE', #262 ) ;
#669 = CARTESIAN_POINT ( 'NONE',  ( 0.4174999999999999822, -0.3319999999999999618, 0.1249999999999999029 ) ) ;
#670 = DIRECTION ( 'NONE',  ( -1.000000000000000000, -0.000000000000000000, -0.000000000000000000 ) ) ;
#671 = AXIS2_PLACEMENT_3D ( 'NONE', #102, #511, #1186 ) ;
#672 = AXIS2_PLACEMENT_3D ( 'NONE', #1130, #123, #14 ) ;
#673 = ORIENTED_EDGE ( 'NONE', *, *, #557, .F. ) ;
#674 = AXIS2_PLACEMENT_3D ( 'NONE', #839, #1229, #423 ) ;
#675 = EDGE_CURVE ( 'NONE', #106, #1044, #73, .T. ) ;
#676 = LOCAL_TIME ( 10, 53, 30.00000000000000000, #1103 ) ;
#677 = ORIENTED_EDGE ( 'NONE', *, *, #1228, .T. ) ;
#678 = CARTESIAN_POINT ( 'NONE',  ( -0.4375000000000000000, -0.4799999999999999822, -0.1409999999999999309 ) ) ;
#679 = FACE_OUTER_BOUND ( 'NONE', #120, .T. ) ;
#680 = DIRECTION ( 'NONE',  ( 0.000000000000000000, 0.000000000000000000, 1.000000000000000000 ) ) ;
#681 = ORIENTED_EDGE ( 'NONE', *, *, #83, .T. ) ;
#682 = EDGE_CURVE ( 'NONE', #131, #615, #819, .T. ) ;
#683 = ORIENTED_EDGE ( 'NONE', *, *, #690, .T. ) ;
#684 = CYLINDRICAL_SURFACE ( 'NONE', #96, 0.01999999999999999001 ) ;
#685 = DIRECTION ( 'NONE',  ( 0.000000000000000000, 0.000000000000000000, -1.000000000000000000 ) ) ;
#686 = CARTESIAN_POINT ( 'NONE',  ( 0.000000000000000000, 0.000000000000000000, -0.1680000000000000382 ) ) ;
#687 = ORIENTED_EDGE ( 'NONE', *, *, #500, .F. ) ;
#688 = ORIENTED_EDGE ( 'NONE', *, *, #252, .F. ) ;
#689 = FACE_OUTER_BOUND ( 'NONE', #63, .T. ) ;
#690 = EDGE_CURVE ( 'NONE', #991, #1252, #324, .T. ) ;
#691 = CYLINDRICAL_SURFACE ( 'NONE', #1161, 0.1404999999999999860 ) ;
#692 = CARTESIAN_POINT ( 'NONE',  ( 0.4175000000000000377, -0.4776190476190476097, 0.8106630466121281797 ) ) ;
#693 = AXIS2_PLACEMENT_3D ( 'NONE', #1162, #46, #255 ) ;
#694 = EDGE_LOOP ( 'NONE', ( #1201, #966, #803, #16 ) ) ;
#695 = AXIS2_PLACEMENT_3D ( 'NONE', #755, #33, #362 ) ;
#696 = TOROIDAL_SURFACE ( 'NONE', #674, 0.1605000000000000038, 0.02000000000000000042 ) ;
#697 = CARTESIAN_POINT ( 'NONE',  ( -0.4375000000000000000, 0.3119999999999999996, -3.414809992080329023E-17 ) ) ;
#698 = DIRECTION ( 'NONE',  ( 0.000000000000000000, -1.000000000000000000, -1.519043590783063737E-16 ) ) ;
#699 = CARTESIAN_POINT ( 'NONE',  ( 0.4175000000000000377, 0.3119999999999999996, -0.1880000000000000282 ) ) ;
#700 = EDGE_CURVE ( 'NONE', #974, #553, #1274, .T. ) ;
#701 = ORIENTED_EDGE ( 'NONE', *, *, #380, .T. ) ;
#702 = CARTESIAN_POINT ( 'NONE',  ( -0.4375000000000000000, -0.3319999999999999618, 0.1249999999999999029 ) ) ;
#703 = FACE_OUTER_BOUND ( 'NONE', #345, .T. ) ;
#704 = DIRECTION ( 'NONE',  ( 0.000000000000000000, -1.000000000000000000, 0.000000000000000000 ) ) ;
#705 = PERSON_AND_ORGANIZATION_ROLE ( 'creator' ) ;
#706 = ADVANCED_FACE ( 'NONE', ( #1171 ), #1092, .T. ) ;
#707 = VERTEX_POINT ( 'NONE', #571 ) ;
#708 = DIRECTION ( 'NONE',  ( 0.000000000000000000, 1.000000000000000000, 0.000000000000000000 ) ) ;
#709 = DIRECTION ( 'NONE',  ( 0.000000000000000000, 0.000000000000000000, -1.000000000000000000 ) ) ;
#710 = EDGE_LOOP ( 'NONE', ( #331, #661, #1149, #1213 ) ) ;
#711 = ORIENTED_EDGE ( 'NONE', *, *, #1124, .T. ) ;
#712 = ADVANCED_FACE ( 'NONE', ( #1053 ), #851, .T. ) ;
#713 = VECTOR ( 'NONE', #562, 39.37007874015748143 ) ;
#714 = AXIS2_PLACEMENT_3D ( 'NONE', #1236, #317, #321 ) ;
#715 = CARTESIAN_POINT ( 'NONE',  ( -0.4174999999999999822, -0.3119999999999999996, 0.6239999999999999991 ) ) ;
#716 = DIRECTION ( 'NONE',  ( 0.000000000000000000, 0.000000000000000000, -1.000000000000000000 ) ) ;
#717 = CARTESIAN_POINT ( 'NONE',  ( 0.000000000000000000, -2.737322638942145442E-18, -7.683322482180740918E-17 ) ) ;
#718 = CARTESIAN_POINT ( 'NONE',  ( -0.4375000000000000000, 0.4788052756959443323, -0.1680000000000000382 ) ) ;
#719 = ORIENTED_EDGE ( 'NONE', *, *, #1143, .F. ) ;
#720 = EDGE_CURVE ( 'NONE', #159, #575, #94, .T. ) ;
#721 = DIRECTION ( 'NONE',  ( 0.000000000000000000, 0.000000000000000000, 1.000000000000000000 ) ) ;
#722 = CARTESIAN_POINT ( 'NONE',  ( 0.4375000000000000000, -0.4799999999999999822, 0.6239999999999999991 ) ) ;
#723 = DIRECTION ( 'NONE',  ( -1.000000000000000000, 0.000000000000000000, 0.000000000000000000 ) ) ;
#724 = LINE ( 'NONE', #836, #627 ) ;
#725 = VERTEX_POINT ( 'NONE', #678 ) ;
#726 = DIRECTION ( 'NONE',  ( 0.000000000000000000, 0.000000000000000000, -1.000000000000000000 ) ) ;
#727 = CARTESIAN_POINT ( 'NONE',  ( -0.4174999999999999822, 0.5000000000000000000, -0.1880000000000000282 ) ) ;
#728 = ADVANCED_FACE ( 'NONE', ( #338 ), #756, .T. ) ;
#729 = CALENDAR_DATE ( 2026, 18, 1 ) ;
#730 = LINE ( 'NONE', #35, #838 ) ;
#731 = ORIENTED_EDGE ( 'NONE', *, *, #675, .F. ) ;
#732 = CIRCLE ( 'NONE', #904, 0.02000000000000000042 ) ;
#733 = DIRECTION ( 'NONE',  ( -0.000000000000000000, 1.000000000000000000, -0.000000000000000000 ) ) ;
#734 = AXIS2_PLACEMENT_3D ( 'NONE', #771, #1166, #549 ) ;
#735 = LINE ( 'NONE', #937, #886 ) ;
#736 = AXIS2_PLACEMENT_3D ( 'NONE', #336, #849, #539 ) ;
#737 = AXIS2_PLACEMENT_3D ( 'NONE', #1110, #903, #1006 ) ;
#738 = EDGE_CURVE ( 'NONE', #974, #1318, #523, .T. ) ;
#739 = DIRECTION ( 'NONE',  ( -0.000000000000000000, 1.000000000000000000, -0.000000000000000000 ) ) ;
#740 = ORIENTED_EDGE ( 'NONE', *, *, #52, .F. ) ;
#741 = CARTESIAN_POINT ( 'NONE',  ( 0.4174999999999999822, -0.3319999999999999618, 0.6239999999999999991 ) ) ;
#742 = ORIENTED_EDGE ( 'NONE', *, *, #517, .F. ) ;
#743 = DIRECTION ( 'NONE',  ( -0.000000000000000000, 0.000000000000000000, 1.000000000000000000 ) ) ;
#744 = DIRECTION ( 'NONE',  ( 0.000000000000000000, -1.000000000000000000, -1.519043590783063737E-16 ) ) ;
#745 = ORIENTED_EDGE ( 'NONE', *, *, #894, .T. ) ;
#746 = DIRECTION ( 'NONE',  ( -0.000000000000000000, 1.000000000000000000, 1.368661319471073838E-16 ) ) ;
#747 = ORIENTED_EDGE ( 'NONE', *, *, #847, .T. ) ;
#748 = DIRECTION ( 'NONE',  ( 1.000000000000000000, 0.000000000000000000, 0.000000000000000000 ) ) ;
#749 = DIRECTION ( 'NONE',  ( 0.000000000000000000, 1.000000000000000000, 0.000000000000000000 ) ) ;
#750 = VERTEX_POINT ( 'NONE', #346 ) ;
#751 = EDGE_CURVE ( 'NONE', #919, #898, #392, .T. ) ;
#752 = DIRECTION ( 'NONE',  ( 0.000000000000000000, 0.000000000000000000, 1.000000000000000000 ) ) ;
#753 = VECTOR ( 'NONE', #578, 39.37007874015748143 ) ;
#754 = ORIENTED_EDGE ( 'NONE', *, *, #144, .T. ) ;
#755 = CARTESIAN_POINT ( 'NONE',  ( 0.4174999999999999822, 0.4788052756959443323, -0.1680000000000000382 ) ) ;
#756 = TOROIDAL_SURFACE ( 'NONE', #840, 0.1680000000000000382, 0.02000000000000000042 ) ;
#757 = VECTOR ( 'NONE', #401, 39.37007874015748143 ) ;
#758 = EDGE_LOOP ( 'NONE', ( #1283, #256, #357, #407 ) ) ;
#759 = CARTESIAN_POINT ( 'NONE',  ( -0.4375000000000000000, 0.4788052756959443323, -0.1680000000000000382 ) ) ;
#760 = ADVANCED_FACE ( 'NONE', ( #658 ), #630, .T. ) ;
#761 = ORIENTED_EDGE ( 'NONE', *, *, #466, .F. ) ;
#762 = DIRECTION ( 'NONE',  ( 0.000000000000000000, 0.000000000000000000, 1.000000000000000000 ) ) ;
#763 = SPHERICAL_SURFACE ( 'NONE', #587, 0.02000000000000000042 ) ;
#764 = ORIENTED_EDGE ( 'NONE', *, *, #334, .T. ) ;
#765 = ORIENTED_EDGE ( 'NONE', *, *, #9, .T. ) ;
#766 = DIRECTION ( 'NONE',  ( 0.000000000000000000, 0.000000000000000000, 1.000000000000000000 ) ) ;
#767 = SPHERICAL_SURFACE ( 'NONE', #461, 0.02000000000000000042 ) ;
#768 = ADVANCED_FACE ( 'NONE', ( #555, #387 ), #780, .T. ) ;
#769 = EDGE_LOOP ( 'NONE', ( #186, #99, #731 ) ) ;
#770 = EDGE_LOOP ( 'NONE', ( #600, #1192, #681, #1292 ) ) ;
#771 = CARTESIAN_POINT ( 'NONE',  ( -0.4174999999999999822, -0.4799999999999999822, 0.8119999999999999440 ) ) ;
#772 = DIRECTION ( 'NONE',  ( 0.000000000000000000, 0.000000000000000000, 1.000000000000000000 ) ) ;
#773 = CIRCLE ( 'NONE', #1028, 0.1449999999999999900 ) ;
#774 = CC_DESIGN_PERSON_AND_ORGANIZATION_ASSIGNMENT ( #431, #40, ( #870 ) ) ;
#775 = AXIS2_PLACEMENT_3D ( 'NONE', #1091, #183, #81 ) ;
#776 = VERTEX_POINT ( 'NONE', #702 ) ;
#777 = AXIS2_PLACEMENT_3D ( 'NONE', #805, #279, #393 ) ;
#778 = CIRCLE ( 'NONE', #329, 0.1680000000000000382 ) ;
#779 = VERTEX_POINT ( 'NONE', #491 ) ;
#780 = PLANE ( 'NONE',  #140 ) ;
#781 = LINE ( 'NONE', #1185, #465 ) ;
#782 = FACE_OUTER_BOUND ( 'NONE', #272, .T. ) ;
#783 = EDGE_LOOP ( 'NONE', ( #476, #905, #268, #152 ) ) ;
#784 = EDGE_CURVE ( 'NONE', #48, #553, #951, .T. ) ;
#785 = EDGE_LOOP ( 'NONE', ( #1256, #1114, #1301, #944 ) ) ;
#786 = DIRECTION ( 'NONE',  ( 0.000000000000000000, -1.000000000000000000, -1.368661319471073838E-16 ) ) ;
#787 = CARTESIAN_POINT ( 'NONE',  ( 0.000000000000000000, 0.000000000000000000, -0.1880000000000000282 ) ) ;
#788 = DIRECTION ( 'NONE',  ( 0.000000000000000000, 0.000000000000000000, -1.000000000000000000 ) ) ;
#789 = ORIENTED_EDGE ( 'NONE', *, *, #363, .T. ) ;
#790 = EDGE_CURVE ( 'NONE', #192, #570, #895, .T. ) ;
#791 = DIRECTION ( 'NONE',  ( -1.000000000000000000, -0.000000000000000000, -0.000000000000000000 ) ) ;
#792 = DIRECTION ( 'NONE',  ( 0.000000000000000000, 0.000000000000000000, 1.000000000000000000 ) ) ;
#793 = DIRECTION ( 'NONE',  ( -1.000000000000000000, -0.000000000000000000, -0.000000000000000000 ) ) ;
#794 = AXIS2_PLACEMENT_3D ( 'NONE', #25, #739, #426 ) ;
#795 = TOROIDAL_SURFACE ( 'NONE', #283, 0.1605000000000000038, 0.02000000000000000042 ) ;
#796 = VERTEX_POINT ( 'NONE', #375 ) ;
#797 = CIRCLE ( 'NONE', #588, 0.02000000000000000042 ) ;
#798 = DIRECTION ( 'NONE',  ( 0.000000000000000000, -1.000000000000000000, -1.368661319471073838E-16 ) ) ;
#799 = EDGE_CURVE ( 'NONE', #725, #253, #1284, .T. ) ;
#800 = DIRECTION ( 'NONE',  ( -0.000000000000000000, -0.000000000000000000, 1.000000000000000000 ) ) ;
#801 = CARTESIAN_POINT ( 'NONE',  ( 0.000000000000000000, -0.5000000000000000000, 0.1514999999999999125 ) ) ;
#802 = DIRECTION ( 'NONE',  ( 0.000000000000000000, -1.000000000000000000, 0.000000000000000000 ) ) ;
#803 = ORIENTED_EDGE ( 'NONE', *, *, #413, .F. ) ;
#804 = DESIGN_CONTEXT ( 'detailed design', #271, 'design' ) ;
#805 = CARTESIAN_POINT ( 'NONE',  ( 0.4174999999999999822, -0.3319999999999999618, 0.6239999999999999991 ) ) ;
#806 = CARTESIAN_POINT ( 'NONE',  ( 0.000000000000000000, -0.3319999999999999618, 0.3119999999999999996 ) ) ;
#807 = DIRECTION ( 'NONE',  ( 0.000000000000000000, 0.000000000000000000, -1.000000000000000000 ) ) ;
#808 = CALENDAR_DATE ( 2026, 18, 1 ) ;
#809 = ADVANCED_FACE ( 'NONE', ( #495 ), #1203, .F. ) ;
#810 = ORIENTED_EDGE ( 'NONE', *, *, #422, .T. ) ;
#811 = ORIENTED_EDGE ( 'NONE', *, *, #413, .T. ) ;
#812 = FACE_OUTER_BOUND ( 'NONE', #647, .T. ) ;
#813 = DIRECTION ( 'NONE',  ( 0.000000000000000000, -1.368661319471073838E-16, 1.000000000000000000 ) ) ;
#814 = LINE ( 'NONE', #110, #973 ) ;
#815 = DIRECTION ( 'NONE',  ( 1.000000000000000000, 0.000000000000000000, 0.000000000000000000 ) ) ;
#816 = ADVANCED_FACE ( 'NONE', ( #1194, #689 ), #1303, .T. ) ;
#817 = VERTEX_POINT ( 'NONE', #602 ) ;
#818 = AXIS2_PLACEMENT_3D ( 'NONE', #1055, #145, #961 ) ;
#819 = CIRCLE ( 'NONE', #990, 0.02000000000000000042 ) ;
#820 = FACE_OUTER_BOUND ( 'NONE', #314, .T. ) ;
#821 = VECTOR ( 'NONE', #791, 39.37007874015748143 ) ;
#822 = CYLINDRICAL_SURFACE ( 'NONE', #10, 0.02000000000000005940 ) ;
#823 =( CONVERSION_BASED_UNIT ( 'INCH', #212 ) LENGTH_UNIT ( ) NAMED_UNIT ( #8 ) );
#824 = DIRECTION ( 'NONE',  ( 1.000000000000000000, 0.000000000000000000, 0.000000000000000000 ) ) ;
#825 = EDGE_LOOP ( 'NONE', ( #683, #879, #467, #890 ) ) ;
#826 = ADVANCED_FACE ( 'NONE', ( #486, #1184 ), #1100, .T. ) ;
#827 = CARTESIAN_POINT ( 'NONE',  ( 1.965558112631502167E-17, -0.4799999999999999822, 0.4724999999999999201 ) ) ;
#828 = DIRECTION ( 'NONE',  ( -0.000000000000000000, 6.829619984160661399E-15, -1.000000000000000000 ) ) ;
#829 = CARTESIAN_POINT ( 'NONE',  ( -0.4174999999999999822, -0.4799999999999999822, 0.7908052756959443874 ) ) ;
#830 = DIRECTION ( 'NONE',  ( 0.000000000000000000, -1.368661319471073838E-16, 1.000000000000000000 ) ) ;
#831 = ORIENTED_EDGE ( 'NONE', *, *, #89, .F. ) ;
#832 = CYLINDRICAL_SURFACE ( 'NONE', #843, 0.1405000000000000693 ) ;
#833 = EDGE_CURVE ( 'NONE', #817, #470, #1115, .T. ) ;
#834 = CARTESIAN_POINT ( 'NONE',  ( -0.4174999999999999822, 0.4986630466121281802, -0.1656190476190476379 ) ) ;
#835 = DATE_AND_TIME ( #438, #1116 ) ;
#836 = CARTESIAN_POINT ( 'NONE',  ( -0.4375000000000000000, -0.3119999999999999996, 0.1249999999999999029 ) ) ;
#837 = EDGE_LOOP ( 'NONE', ( #69, #1081, #1227 ) ) ;
#838 = VECTOR ( 'NONE', #639, 39.37007874015748143 ) ;
#839 = CARTESIAN_POINT ( 'NONE',  ( 0.000000000000000000, -0.4799999999999999822, 0.3119999999999998885 ) ) ;
#840 = AXIS2_PLACEMENT_3D ( 'NONE', #542, #649, #39 ) ;
#841 = PLANE ( 'NONE',  #544 ) ;
#842 = EDGE_CURVE ( 'NONE', #1318, #253, #158, .T. ) ;
#843 = AXIS2_PLACEMENT_3D ( 'NONE', #220, #1129, #1235 ) ;
#844 = PERSON_AND_ORGANIZATION_ROLE ( 'classification_officer' ) ;
#845 = AXIS2_PLACEMENT_3D ( 'NONE', #197, #298, #625 ) ;
#846 = DIRECTION ( 'NONE',  ( 1.000000000000000000, 0.000000000000000000, 0.000000000000000000 ) ) ;
#847 = EDGE_CURVE ( 'NONE', #1036, #779, #909, .T. ) ;
#848 = ORIENTED_EDGE ( 'NONE', *, *, #404, .F. ) ;
#849 = DIRECTION ( 'NONE',  ( -1.000000000000000000, -0.000000000000000000, -0.000000000000000000 ) ) ;
#850 = EDGE_LOOP ( 'NONE', ( #926, #983, #657, #360 ) ) ;
#851 = CYLINDRICAL_SURFACE ( 'NONE', #225, 0.02000000000000000042 ) ;
#852 = PERSON_AND_ORGANIZATION ( #1251, #355 ) ;
#853 = CARTESIAN_POINT ( 'NONE',  ( -0.4174999999999999822, -0.5000000000000000000, -0.1409999999999999309 ) ) ;
#854 = ADVANCED_FACE ( 'NONE', ( #981 ), #296, .T. ) ;
#855 = ORIENTED_EDGE ( 'NONE', *, *, #1313, .F. ) ;
#856 = DIRECTION ( 'NONE',  ( 1.000000000000000000, 0.000000000000000000, 0.000000000000000000 ) ) ;
#857 = ORIENTED_EDGE ( 'NONE', *, *, #193, .F. ) ;
#858 = DIRECTION ( 'NONE',  ( 1.000000000000000000, 0.000000000000000000, 0.000000000000000000 ) ) ;
#859 = DATE_AND_TIME ( #339, #1012 ) ;
#860 = DIRECTION ( 'NONE',  ( 1.000000000000000000, 0.000000000000000000, 0.000000000000000000 ) ) ;
#861 = ORIENTED_EDGE ( 'NONE', *, *, #1080, .F. ) ;
#862 = EDGE_CURVE ( 'NONE', #337, #606, #1208, .T. ) ;
#863 = CYLINDRICAL_SURFACE ( 'NONE', #1200, 0.01999999999999999001 ) ;
#864 = VECTOR ( 'NONE', #289, 39.37007874015748143 ) ;
#865 = EDGE_LOOP ( 'NONE', ( #265, #1112, #565, #957, #740 ) ) ;
#866 = DIRECTION ( 'NONE',  ( 0.000000000000000000, 0.000000000000000000, 1.000000000000000000 ) ) ;
#867 = APPROVAL_STATUS ( 'not_yet_approved' ) ;
#868 = VECTOR ( 'NONE', #522, 39.37007874015748143 ) ;
#869 = DIRECTION ( 'NONE',  ( 0.000000000000000000, 0.000000000000000000, -1.000000000000000000 ) ) ;
#870 = PRODUCT_DEFINITION_FORMATION_WITH_SPECIFIED_SOURCE ( 'ANY', '', #105, .NOT_KNOWN. ) ;
#871 = ORIENTED_EDGE ( 'NONE', *, *, #1316, .T. ) ;
#872 = EDGE_CURVE ( 'NONE', #1221, #1146, #907, .T. ) ;
#873 = DIRECTION ( 'NONE',  ( 0.000000000000000000, 0.000000000000000000, -1.000000000000000000 ) ) ;
#874 = ORIENTED_EDGE ( 'NONE', *, *, #790, .F. ) ;
#875 = ORIENTED_EDGE ( 'NONE', *, *, #540, .F. ) ;
#876 = DIRECTION ( 'NONE',  ( 0.000000000000000000, 1.000000000000000000, 0.000000000000000000 ) ) ;
#877 = ADVANCED_FACE ( 'NONE', ( #881 ), #684, .T. ) ;
#878 = DIRECTION ( 'NONE',  ( -0.000000000000000000, 0.000000000000000000, -1.000000000000000000 ) ) ;
#879 = ORIENTED_EDGE ( 'NONE', *, *, #235, .F. ) ;
#880 = ORIENTED_EDGE ( 'NONE', *, *, #224, .F. ) ;
#881 = FACE_OUTER_BOUND ( 'NONE', #783, .T. ) ;
#882 = CIRCLE ( 'NONE', #302, 0.1405000000000000693 ) ;
#883 = CYLINDRICAL_SURFACE ( 'NONE', #613, 0.01999999999999999001 ) ;
#884 = FACE_OUTER_BOUND ( 'NONE', #97, .T. ) ;
#885 = CIRCLE ( 'NONE', #1263, 0.04700000000000000705 ) ;
#886 = VECTOR ( 'NONE', #18, 39.37007874015748143 ) ;
#887 = ORIENTED_EDGE ( 'NONE', *, *, #534, .T. ) ;
#888 = AXIS2_PLACEMENT_3D ( 'NONE', #985, #285, #1087 ) ;
#889 = AXIS2_PLACEMENT_3D ( 'NONE', #829, #723, #405 ) ;
#890 = ORIENTED_EDGE ( 'NONE', *, *, #422, .F. ) ;
#891 = CARTESIAN_POINT ( 'NONE',  ( 0.4174999999999999822, 0.3119999999999999996, -0.02000000000000003511 ) ) ;
#892 = DIRECTION ( 'NONE',  ( 1.000000000000000000, 0.000000000000000000, 0.000000000000000000 ) ) ;
#893 = CARTESIAN_POINT ( 'NONE',  ( 0.4375000000000000000, -0.4799999999999999822, -0.1409999999999999309 ) ) ;
#894 = EDGE_CURVE ( 'NONE', #898, #337, #1293, .T. ) ;
#895 = LINE ( 'NONE', #999, #821 ) ;
#896 = FACE_OUTER_BOUND ( 'NONE', #134, .T. ) ;
#897 = DIRECTION ( 'NONE',  ( 0.000000000000000000, 0.000000000000000000, -1.000000000000000000 ) ) ;
#898 = VERTEX_POINT ( 'NONE', #122 ) ;
#899 = ADVANCED_FACE ( 'NONE', ( #611 ), #832, .F. ) ;
#900 = DIRECTION ( 'NONE',  ( 0.000000000000000000, -1.368661319471073838E-16, 1.000000000000000000 ) ) ;
#901 = DIRECTION ( 'NONE',  ( -0.000000000000000000, -0.000000000000000000, 1.000000000000000000 ) ) ;
#902 = CARTESIAN_POINT ( 'NONE',  ( 1.965558112631502167E-17, -0.3319999999999999618, 0.1514999999999999680 ) ) ;
#903 = DIRECTION ( 'NONE',  ( -6.829619984160661399E-15, -1.000000000000000000, -0.000000000000000000 ) ) ;
#904 = AXIS2_PLACEMENT_3D ( 'NONE', #1210, #297, #709 ) ;
#905 = ORIENTED_EDGE ( 'NONE', *, *, #1065, .F. ) ;
#906 = CIRCLE ( 'NONE', #1030, 0.01999999999999999001 ) ;
#907 = CIRCLE ( 'NONE', #992, 0.02000000000000000042 ) ;
#908 = TOROIDAL_SURFACE ( 'NONE', #207, 0.02700000000000000316, 0.02000000000000000042 ) ;
#909 = LINE ( 'NONE', #1312, #757 ) ;
#910 = ADVANCED_FACE ( 'NONE', ( #812 ), #696, .T. ) ;
#911 = CARTESIAN_POINT ( 'NONE',  ( -0.4375000000000000000, 0.3119999999999999996, -0.1880000000000000282 ) ) ;
#912 = CYLINDRICAL_SURFACE ( 'NONE', #563, 0.1880000000000000282 ) ;
#913 =( NAMED_UNIT ( * ) PLANE_ANGLE_UNIT ( ) SI_UNIT ( $, .RADIAN. ) );
#914 = VERTEX_POINT ( 'NONE', #622 ) ;
#915 = EDGE_LOOP ( 'NONE', ( #654, #861, #299, #621 ) ) ;
#916 = PLANE ( 'NONE',  #182 ) ;
#917 = CARTESIAN_POINT ( 'NONE',  ( 0.000000000000000000, -0.3119999999999999996, 0.3119999999999999996 ) ) ;
#918 = EDGE_CURVE ( 'NONE', #615, #36, #484, .T. ) ;
#919 = VERTEX_POINT ( 'NONE', #1320 ) ;
#920 = EDGE_LOOP ( 'NONE', ( #239, #949, #208, #1062, #688 ) ) ;
#921 = DIRECTION ( 'NONE',  ( 0.000000000000000000, -0.000000000000000000, 1.000000000000000000 ) ) ;
#922 = DIRECTION ( 'NONE',  ( 0.000000000000000000, 0.000000000000000000, -1.000000000000000000 ) ) ;
#923 = DIRECTION ( 'NONE',  ( 0.000000000000000000, 0.000000000000000000, 1.000000000000000000 ) ) ;
#924 = VECTOR ( 'NONE', #1219, 39.37007874015748143 ) ;
#925 = AXIS2_PLACEMENT_3D ( 'NONE', #1072, #1261, #348 ) ;
#926 = ORIENTED_EDGE ( 'NONE', *, *, #363, .F. ) ;
#927 = AXIS2_PLACEMENT_3D ( 'NONE', #1147, #424, #211 ) ;
#928 = VECTOR ( 'NONE', #250, 39.37007874015748143 ) ;
#929 = DIRECTION ( 'NONE',  ( -1.224646799147354933E-16, 0.000000000000000000, -1.000000000000000000 ) ) ;
#930 = VECTOR ( 'NONE', #344, 39.37007874015748143 ) ;
#931 = CARTESIAN_POINT ( 'NONE',  ( -0.4174999999999999822, -0.1869999999999999996, -0.02000000000000010103 ) ) ;
#932 = APPROVAL_STATUS ( 'not_yet_approved' ) ;
#933 = CARTESIAN_POINT ( 'NONE',  ( 0.000000000000000000, 0.000000000000000000, -0.02000000000000005940 ) ) ;
#934 = ORIENTED_EDGE ( 'NONE', *, *, #1172, .F. ) ;
#935 = EDGE_CURVE ( 'NONE', #1280, #919, #936, .T. ) ;
#936 = LINE ( 'NONE', #617, #1178 ) ;
#937 = CARTESIAN_POINT ( 'NONE',  ( 0.4375000000000000000, -0.4999999999999999445, -0.02000000000000019817 ) ) ;
#938 = CARTESIAN_POINT ( 'NONE',  ( -0.4375000000000000000, -0.4530000000000000138, -0.1409999999999999309 ) ) ;
#939 = VERTEX_POINT ( 'NONE', #941 ) ;
#940 = EDGE_CURVE ( 'NONE', #1066, #126, #1222, .T. ) ;
#941 = CARTESIAN_POINT ( 'NONE',  ( 0.000000000000000000, -0.3319999999999999618, 0.4524999999999999578 ) ) ;
#942 = DIRECTION ( 'NONE',  ( 1.000000000000000000, 0.000000000000000000, 0.000000000000000000 ) ) ;
#943 = CARTESIAN_POINT ( 'NONE',  ( 0.4174999999999999822, -0.4799999999999999822, 0.7908052756959443874 ) ) ;
#944 = ORIENTED_EDGE ( 'NONE', *, *, #23, .F. ) ;
#945 = AXIS2_PLACEMENT_3D ( 'NONE', #1121, #646, #545 ) ;
#946 = CIRCLE ( 'NONE', #818, 0.01999999999999999001 ) ;
#947 = DIRECTION ( 'NONE',  ( 0.000000000000000000, -1.368661319471073838E-16, 1.000000000000000000 ) ) ;
#948 = TOROIDAL_SURFACE ( 'NONE', #610, 0.1680000000000000382, 0.02000000000000000042 ) ;
#949 = ORIENTED_EDGE ( 'NONE', *, *, #428, .T. ) ;
#950 = FACE_OUTER_BOUND ( 'NONE', #366, .T. ) ;
#951 = CIRCLE ( 'NONE', #777, 0.01999999999999999001 ) ;
#952 = EDGE_CURVE ( 'NONE', #529, #146, #22, .T. ) ;
#953 = CIRCLE ( 'NONE', #251, 0.1605000000000000593 ) ;
#954 = CARTESIAN_POINT ( 'NONE',  ( 1.965558112631502167E-17, -0.3119999999999999996, 0.1514999999999999680 ) ) ;
#955 = ORIENTED_EDGE ( 'NONE', *, *, #368, .T. ) ;
#956 = DIRECTION ( 'NONE',  ( 1.000000000000000000, 0.000000000000000000, 0.000000000000000000 ) ) ;
#957 = ORIENTED_EDGE ( 'NONE', *, *, #1117, .F. ) ;
#958 = DIRECTION ( 'NONE',  ( -1.000000000000000000, 0.000000000000000000, 0.000000000000000000 ) ) ;
#959 = PERSON_AND_ORGANIZATION_ROLE ( 'creator' ) ;
#960 = EDGE_CURVE ( 'NONE', #779, #1146, #440, .T. ) ;
#961 = DIRECTION ( 'NONE',  ( 0.000000000000000000, 0.000000000000000000, 1.000000000000000000 ) ) ;
#962 = ORIENTED_EDGE ( 'NONE', *, *, #235, .T. ) ;
#963 = DIRECTION ( 'NONE',  ( 0.000000000000000000, -1.000000000000000000, -1.519043590783063737E-16 ) ) ;
#964 = CARTESIAN_POINT ( 'NONE',  ( 0.4175000000000000377, -0.1869999999999999996, 0.1249999999999999029 ) ) ;
#965 = CARTESIAN_POINT ( 'NONE',  ( -0.4174999999999999822, -0.4530000000000000138, -0.1680000000000000382 ) ) ;
#966 = ORIENTED_EDGE ( 'NONE', *, *, #240, .F. ) ;
#967 = EDGE_CURVE ( 'NONE', #112, #381, #1287, .T. ) ;
#968 = AXIS2_PLACEMENT_3D ( 'NONE', #1034, #1226, #318 ) ;
#969 = CIRCLE ( 'NONE', #391, 0.1449999999999999900 ) ;
#970 = CARTESIAN_POINT ( 'NONE',  ( 0.000000000000000000, 0.000000000000000000, -0.1680000000000000382 ) ) ;
#971 = AXIS2_PLACEMENT_3D ( 'NONE', #1018, #1031, #434 ) ;
#972 = CARTESIAN_POINT ( 'NONE',  ( 0.4175000000000000377, 0.3119999999999999996, -3.414809992080329023E-17 ) ) ;
#973 = VECTOR ( 'NONE', #1225, 39.37007874015748143 ) ;
#974 = VERTEX_POINT ( 'NONE', #715 ) ;
#975 = EDGE_CURVE ( 'NONE', #112, #976, #267, .T. ) ;
#976 = VERTEX_POINT ( 'NONE', #215 ) ;
#977 = CARTESIAN_POINT ( 'NONE',  ( 0.4174999999999999822, -0.4999999999999999445, -0.02000000000000019817 ) ) ;
#978 = LINE ( 'NONE', #245, #543 ) ;
#979 = EDGE_LOOP ( 'NONE', ( #1052, #142 ) ) ;
#980 = VERTEX_POINT ( 'NONE', #100 ) ;
#981 = FACE_OUTER_BOUND ( 'NONE', #508, .T. ) ;
#982 = DIRECTION ( 'NONE',  ( -1.000000000000000000, 0.000000000000000000, 0.000000000000000000 ) ) ;
#983 = ORIENTED_EDGE ( 'NONE', *, *, #608, .F. ) ;
#984 = ORIENTED_EDGE ( 'NONE', *, *, #1316, .F. ) ;
#985 = CARTESIAN_POINT ( 'NONE',  ( -0.4375000000000000000, -0.5000000000000000000, -0.1880000000000000282 ) ) ;
#986 = CARTESIAN_POINT ( 'NONE',  ( 0.4375000000000000000, 0.3119999999999999996, -0.01999999999999998307 ) ) ;
#987 = FACE_OUTER_BOUND ( 'NONE', #1029, .T. ) ;
#988 = EDGE_CURVE ( 'NONE', #575, #898, #394, .T. ) ;
#989 = AXIS2_PLACEMENT_3D ( 'NONE', #595, #454, #869 ) ;
#990 = AXIS2_PLACEMENT_3D ( 'NONE', #1069, #1059, #766 ) ;
#991 = VERTEX_POINT ( 'NONE', #1118 ) ;
#992 = AXIS2_PLACEMENT_3D ( 'NONE', #891, #275, #477 ) ;
#993 = CIRCLE ( 'NONE', #737, 0.01999999999999999001 ) ;
#994 = DIRECTION ( 'NONE',  ( 0.000000000000000000, -0.000000000000000000, -1.000000000000000000 ) ) ;
#995 = DIRECTION ( 'NONE',  ( 0.000000000000000000, -1.000000000000000000, 0.000000000000000000 ) ) ;
#996 = DIRECTION ( 'NONE',  ( 0.000000000000000000, 0.000000000000000000, -1.000000000000000000 ) ) ;
#997 = CC_DESIGN_DATE_AND_TIME_ASSIGNMENT ( #605, #506, ( #1188 ) ) ;
#998 = ORIENTED_EDGE ( 'NONE', *, *, #659, .T. ) ;
#999 = CARTESIAN_POINT ( 'NONE',  ( -0.4375000000000000000, -0.4530000000000000138, -0.1880000000000000282 ) ) ;
#1000 = CARTESIAN_POINT ( 'NONE',  ( 0.4375000000000000000, -0.1869999999999999996, -0.02000000000000015307 ) ) ;
#1001 = DIRECTION ( 'NONE',  ( 0.000000000000000000, 0.000000000000000000, -1.000000000000000000 ) ) ;
#1002 = EDGE_LOOP ( 'NONE', ( #406, #1175, #934, #444, #206 ) ) ;
#1003 = DIRECTION ( 'NONE',  ( 0.000000000000000000, -0.1190476190476196516, -0.9928885458091925020 ) ) ;
#1004 = DIRECTION ( 'NONE',  ( 1.000000000000000000, 0.000000000000000000, 0.000000000000000000 ) ) ;
#1005 = CARTESIAN_POINT ( 'NONE',  ( 0.4175000000000000377, -0.5000000000000000000, -0.1880000000000000282 ) ) ;
#1006 = DIRECTION ( 'NONE',  ( -1.000000000000000000, 6.829619984160661399E-15, 0.000000000000000000 ) ) ;
#1007 = CIRCLE ( 'NONE', #1048, 0.01999999999999999001 ) ;
#1008 = ORIENTED_EDGE ( 'NONE', *, *, #200, .F. ) ;
#1009 = CIRCLE ( 'NONE', #927, 0.01999999999999999001 ) ;
#1010 = ORIENTED_EDGE ( 'NONE', *, *, #1323, .T. ) ;
#1011 = AXIS2_PLACEMENT_3D ( 'NONE', #17, #230, #921 ) ;
#1012 = LOCAL_TIME ( 10, 53, 30.00000000000000000, #1269 ) ;
#1013 = EDGE_CURVE ( 'NONE', #64, #1262, #1160, .T. ) ;
#1014 = CARTESIAN_POINT ( 'NONE',  ( -0.4174999999999999822, -0.5000000000000000000, -0.1409999999999999309 ) ) ;
#1015 = CARTESIAN_POINT ( 'NONE',  ( 0.4375000000000000000, -0.3319999999999999618, 0.6239999999999999991 ) ) ;
#1016 = EDGE_LOOP ( 'NONE', ( #848, #547, #494 ) ) ;
#1017 = ORIENTED_EDGE ( 'NONE', *, *, #252, .T. ) ;
#1018 = CARTESIAN_POINT ( 'NONE',  ( 0.4375000000000000000, 0.3119999999999999996, -0.1880000000000000282 ) ) ;
#1019 = CARTESIAN_POINT ( 'NONE',  ( 0.000000000000000000, 0.000000000000000000, -0.02000000000000005940 ) ) ;
#1020 = ADVANCED_FACE ( 'NONE', ( #107 ), #916, .T. ) ;
#1021 = DIRECTION ( 'NONE',  ( 0.000000000000000000, 0.000000000000000000, -1.000000000000000000 ) ) ;
#1022 = EDGE_LOOP ( 'NONE', ( #887, #662, #701, #541, #421, #1128, #677, #276 ) ) ;
#1023 = DIRECTION ( 'NONE',  ( 0.000000000000000000, -1.368661319471073838E-16, 1.000000000000000000 ) ) ;
#1024 = DIRECTION ( 'NONE',  ( 0.000000000000000000, 0.000000000000000000, -1.000000000000000000 ) ) ;
#1025 = ADVANCED_FACE ( 'NONE', ( #509, #820 ), #514, .T. ) ;
#1026 = CARTESIAN_POINT ( 'NONE',  ( 0.4175000000000000377, -0.4530000000000000138, -0.1880000000000000282 ) ) ;
#1027 = AXIS2_PLACEMENT_3D ( 'NONE', #400, #104, #815 ) ;
#1028 = AXIS2_PLACEMENT_3D ( 'NONE', #196, #1315, #1198 ) ;
#1029 = EDGE_LOOP ( 'NONE', ( #673, #1079, #1154, #88 ) ) ;
#1030 = AXIS2_PLACEMENT_3D ( 'NONE', #358, #560, #663 ) ;
#1031 = DIRECTION ( 'NONE',  ( 1.000000000000000000, 0.000000000000000000, 0.000000000000000000 ) ) ;
#1032 = CARTESIAN_POINT ( 'NONE',  ( -0.4375000000000000000, -0.4530000000000000138, -0.1680000000000000382 ) ) ;
#1033 = DATE_AND_TIME ( #550, #633 ) ;
#1034 = CARTESIAN_POINT ( 'NONE',  ( 0.4175000000000000377, 0.3119999999999999996, -0.1880000000000000282 ) ) ;
#1035 = EDGE_CURVE ( 'NONE', #126, #1066, #1071, .T. ) ;
#1036 = VERTEX_POINT ( 'NONE', #320 ) ;
#1037 = EDGE_CURVE ( 'NONE', #106, #779, #464, .T. ) ;
#1038 = CARTESIAN_POINT ( 'NONE',  ( 0.4175000000000000377, 0.4788052756959442768, -0.1680000000000000382 ) ) ;
#1039 = DIRECTION ( 'NONE',  ( 0.000000000000000000, 0.000000000000000000, -1.000000000000000000 ) ) ;
#1040 = DIRECTION ( 'NONE',  ( 1.000000000000000000, 0.000000000000000000, 0.000000000000000000 ) ) ;
#1041 = EDGE_LOOP ( 'NONE', ( #559, #58, #307, #198 ) ) ;
#1042 = ADVANCED_FACE ( 'NONE', ( #202 ), #642, .T. ) ;
#1043 = CARTESIAN_POINT ( 'NONE',  ( 0.1605000000000000593, 1.965558112631502784E-17, -0.1880000000000000282 ) ) ;
#1044 = VERTEX_POINT ( 'NONE', #1049 ) ;
#1045 = FACE_OUTER_BOUND ( 'NONE', #920, .T. ) ;
#1046 = CARTESIAN_POINT ( 'NONE',  ( 0.1405000000000000693, 0.000000000000000000, -0.1680000000000000382 ) ) ;
#1047 = ORIENTED_EDGE ( 'NONE', *, *, #89, .T. ) ;
#1048 = AXIS2_PLACEMENT_3D ( 'NONE', #7, #226, #111 ) ;
#1049 = CARTESIAN_POINT ( 'NONE',  ( 0.4174999999999999822, 0.4788052756959443323, -0.1880000000000000282 ) ) ;
#1050 = CC_DESIGN_DATE_AND_TIME_ASSIGNMENT ( #859, #446, ( #161 ) ) ;
#1051 = CIRCLE ( 'NONE', #205, 0.01999999999999999001 ) ;
#1052 = ORIENTED_EDGE ( 'NONE', *, *, #608, .T. ) ;
#1053 = FACE_OUTER_BOUND ( 'NONE', #694, .T. ) ;
#1054 = VECTOR ( 'NONE', #800, 39.37007874015748143 ) ;
#1055 = CARTESIAN_POINT ( 'NONE',  ( 0.000000000000000000, -0.3319999999999999618, 0.4724999999999999201 ) ) ;
#1056 = VERTEX_POINT ( 'NONE', #1258 ) ;
#1057 = CARTESIAN_POINT ( 'NONE',  ( -0.4174999999999999822, 0.3119999999999999996, -0.02000000000000003511 ) ) ;
#1058 = ORIENTED_EDGE ( 'NONE', *, *, #751, .T. ) ;
#1059 = DIRECTION ( 'NONE',  ( -1.000000000000000000, -0.000000000000000000, 0.000000000000000000 ) ) ;
#1060 = DIRECTION ( 'NONE',  ( 0.000000000000000000, -0.000000000000000000, 1.000000000000000000 ) ) ;
#1061 = APPLICATION_CONTEXT ( 'configuration controlled 3d designs of mechanical parts and assemblies' ) ;
#1062 = ORIENTED_EDGE ( 'NONE', *, *, #1297, .F. ) ;
#1063 = LINE ( 'NONE', #153, #1070 ) ;
#1064 = FACE_OUTER_BOUND ( 'NONE', #710, .T. ) ;
#1065 = EDGE_CURVE ( 'NONE', #374, #776, #1151, .T. ) ;
#1066 = VERTEX_POINT ( 'NONE', #1043 ) ;
#1067 = CIRCLE ( 'NONE', #1134, 0.02000000000000005940 ) ;
#1068 = EDGE_LOOP ( 'NONE', ( #290, #1135 ) ) ;
#1069 = CARTESIAN_POINT ( 'NONE',  ( 0.000000000000000000, -0.1605000000000000593, -0.02000000000000008021 ) ) ;
#1070 = VECTOR ( 'NONE', #473, 39.37007874015748143 ) ;
#1071 = CIRCLE ( 'NONE', #249, 0.1605000000000000593 ) ;
#1072 = CARTESIAN_POINT ( 'NONE',  ( 1.965558112631502784E-17, 0.1605000000000000593, -0.02000000000000003858 ) ) ;
#1073 = AXIS2_PLACEMENT_3D ( 'NONE', #195, #487, #982 ) ;
#1074 = ORIENTED_EDGE ( 'NONE', *, *, #144, .F. ) ;
#1075 = ADVANCED_FACE ( 'NONE', ( #554 ), #236, .F. ) ;
#1076 = ORIENTED_EDGE ( 'NONE', *, *, #326, .F. ) ;
#1077 = CARTESIAN_POINT ( 'NONE',  ( -0.4375000000000000000, -0.1869999999999999996, -0.02000000000000010103 ) ) ;
#1078 = CARTESIAN_POINT ( 'NONE',  ( 0.4175000000000000377, -0.4530000000000000138, -0.1409999999999999309 ) ) ;
#1079 = ORIENTED_EDGE ( 'NONE', *, *, #1035, .F. ) ;
#1080 = EDGE_CURVE ( 'NONE', #470, #553, #567, .T. ) ;
#1081 = ORIENTED_EDGE ( 'NONE', *, *, #842, .T. ) ;
#1082 = DIRECTION ( 'NONE',  ( 0.000000000000000000, -0.1190476190476196516, -0.9928885458091925020 ) ) ;
#1083 = DIRECTION ( 'NONE',  ( 0.000000000000000000, 0.000000000000000000, 1.000000000000000000 ) ) ;
#1084 = DIRECTION ( 'NONE',  ( 0.000000000000000000, 0.000000000000000000, -1.000000000000000000 ) ) ;
#1085 = CARTESIAN_POINT ( 'NONE',  ( 0.1405000000000000693, -3.505288762127752389E-33, -0.02000000000000005940 ) ) ;
#1086 = AXIS2_PLACEMENT_3D ( 'NONE', #118, #213, #923 ) ;
#1087 = DIRECTION ( 'NONE',  ( -1.000000000000000000, 0.000000000000000000, -0.000000000000000000 ) ) ;
#1088 = CC_DESIGN_PERSON_AND_ORGANIZATION_ASSIGNMENT ( #516, #526, ( #105 ) ) ;
#1089 = CIRCLE ( 'NONE', #989, 0.1680000000000000382 ) ;
#1090 = CARTESIAN_POINT ( 'NONE',  ( 0.4174999999999999822, -0.5000000000000000000, -0.1679999999999999549 ) ) ;
#1091 = CARTESIAN_POINT ( 'NONE',  ( 0.4375000000000000000, -0.4530000000000000138, -0.1409999999999999309 ) ) ;
#1092 = TOROIDAL_SURFACE ( 'NONE', #284, 0.1605000000000000038, 0.02000000000000000042 ) ;
#1093 = AXIS2_PLACEMENT_3D ( 'NONE', #1096, #708, #167 ) ;
#1094 = ORIENTED_EDGE ( 'NONE', *, *, #52, .T. ) ;
#1095 = APPROVAL_PERSON_ORGANIZATION ( #1317, #286, #1254 ) ;
#1096 = CARTESIAN_POINT ( 'NONE',  ( 0.4174999999999999822, -0.4799999999999999822, 0.7908052756959442764 ) ) ;
#1097 = SPHERICAL_SURFACE ( 'NONE', #308, 0.02000000000000000042 ) ;
#1098 = DIRECTION ( 'NONE',  ( 1.000000000000000000, 0.000000000000000000, 0.000000000000000000 ) ) ;
#1099 = ORIENTED_EDGE ( 'NONE', *, *, #1228, .F. ) ;
#1100 = PLANE ( 'NONE',  #612 ) ;
#1101 = CARTESIAN_POINT ( 'NONE',  ( -0.4375000000000000000, -0.5000000000000000000, -0.1409999999999999309 ) ) ;
#1102 = CARTESIAN_POINT ( 'NONE',  ( -0.1605000000000000593, 0.000000000000000000, -0.1680000000000000382 ) ) ;
#1103 = COORDINATED_UNIVERSAL_TIME_OFFSET ( 6, 0, .BEHIND. ) ;
#1104 = ORIENTED_EDGE ( 'NONE', *, *, #720, .F. ) ;
#1105 = ADVANCED_FACE ( 'NONE', ( #656 ), #241, .T. ) ;
#1106 = EDGE_LOOP ( 'NONE', ( #82, #234, #451, #43, #880 ) ) ;
#1107 = DIRECTION ( 'NONE',  ( 2.984000728194167068E-15, 0.1190476190476192214, -0.9928885458091926131 ) ) ;
#1108 = CARTESIAN_POINT ( 'NONE',  ( -0.4375000000000000000, -0.5000000000000000000, 0.6239999999999999991 ) ) ;
#1109 = AXIS2_PLACEMENT_3D ( 'NONE', #933, #635, #136 ) ;
#1110 = CARTESIAN_POINT ( 'NONE',  ( -0.4174999999999999822, 0.4788052756959443323, -0.1680000000000000382 ) ) ;
#1111 = AXIS2_PLACEMENT_3D ( 'NONE', #537, #448, #333 ) ;
#1112 = ORIENTED_EDGE ( 'NONE', *, *, #1323, .F. ) ;
#1113 = CIRCLE ( 'NONE', #1220, 0.1405000000000000693 ) ;
#1114 = ORIENTED_EDGE ( 'NONE', *, *, #1124, .F. ) ;
#1115 = CIRCLE ( 'NONE', #119, 0.01999999999999995878 ) ;
#1116 = LOCAL_TIME ( 10, 53, 30.00000000000000000, #1260 ) ;
#1117 = EDGE_CURVE ( 'NONE', #796, #615, #53, .T. ) ;
#1118 = CARTESIAN_POINT ( 'NONE',  ( 0.4375000000000000000, -0.3319999999999999618, 0.1249999999999999029 ) ) ;
#1119 = DIRECTION ( 'NONE',  ( -0.000000000000000000, 0.000000000000000000, 1.000000000000000000 ) ) ;
#1120 = PERSON_AND_ORGANIZATION ( #1251, #355 ) ;
#1121 = CARTESIAN_POINT ( 'NONE',  ( 0.000000000000000000, 0.000000000000000000, -0.1680000000000000382 ) ) ;
#1122 = EDGE_LOOP ( 'NONE', ( #485, #351, #857, #687 ) ) ;
#1123 = DIRECTION ( 'NONE',  ( -1.000000000000000000, 0.000000000000000000, 0.000000000000000000 ) ) ;
#1124 = EDGE_CURVE ( 'NONE', #513, #1044, #1164, .T. ) ;
#1125 = CARTESIAN_POINT ( 'NONE',  ( -0.4174999999999999822, -0.5000000000000000000, 0.7908052756959443874 ) ) ;
#1126 = CARTESIAN_POINT ( 'NONE',  ( -0.4174999999999999822, -0.4776190476190476097, 0.8106630466121281797 ) ) ;
#1127 = DIRECTION ( 'NONE',  ( 0.000000000000000000, 0.000000000000000000, -1.000000000000000000 ) ) ;
#1128 = ORIENTED_EDGE ( 'NONE', *, *, #935, .T. ) ;
#1129 = DIRECTION ( 'NONE',  ( -0.000000000000000000, -0.000000000000000000, 1.000000000000000000 ) ) ;
#1130 = CARTESIAN_POINT ( 'NONE',  ( -0.4375000000000000000, -0.4530000000000000138, -0.1409999999999999309 ) ) ;
#1131 = ADVANCED_FACE ( 'NONE', ( #30 ), #863, .T. ) ;
#1132 = DIRECTION ( 'NONE',  ( 0.000000000000000000, 0.000000000000000000, -1.000000000000000000 ) ) ;
#1133 = ADVANCED_FACE ( 'NONE', ( #1156 ), #354, .T. ) ;
#1134 = AXIS2_PLACEMENT_3D ( 'NONE', #189, #704, #614 ) ;
#1135 = ORIENTED_EDGE ( 'NONE', *, *, #940, .T. ) ;
#1136 = VECTOR ( 'NONE', #305, 39.37007874015748143 ) ;
#1137 = AXIS2_PLACEMENT_3D ( 'NONE', #827, #1243, #929 ) ;
#1138 = DIRECTION ( 'NONE',  ( -0.000000000000000000, -0.000000000000000000, 1.000000000000000000 ) ) ;
#1139 = APPROVAL_PERSON_ORGANIZATION ( #1120, #447, #15 ) ;
#1140 = LINE ( 'NONE', #727, #1241 ) ;
#1141 = SHAPE_DEFINITION_REPRESENTATION ( #510, #1233 ) ;
#1142 = FACE_OUTER_BOUND ( 'NONE', #865, .T. ) ;
#1143 = EDGE_CURVE ( 'NONE', #898, #1221, #450, .T. ) ;
#1144 = EDGE_LOOP ( 'NONE', ( #458, #176, #260, #301 ) ) ;
#1145 = CARTESIAN_POINT ( 'NONE',  ( -0.4375000000000000000, 0.3119999999999999996, -3.414809992080329023E-17 ) ) ;
#1146 = VERTEX_POINT ( 'NONE', #986 ) ;
#1147 = CARTESIAN_POINT ( 'NONE',  ( 0.1605000000000000593, 1.965558112631502784E-17, -0.1680000000000000382 ) ) ;
#1148 = FACE_OUTER_BOUND ( 'NONE', #1144, .T. ) ;
#1149 = ORIENTED_EDGE ( 'NONE', *, *, #316, .F. ) ;
#1150 = EDGE_CURVE ( 'NONE', #337, #379, #1289, .T. ) ;
#1151 = LINE ( 'NONE', #548, #930 ) ;
#1152 = ORIENTED_EDGE ( 'NONE', *, *, #534, .F. ) ;
#1153 = DIRECTION ( 'NONE',  ( 1.000000000000000000, 0.000000000000000000, 0.000000000000000000 ) ) ;
#1154 = ORIENTED_EDGE ( 'NONE', *, *, #343, .T. ) ;
#1155 = AXIS2_PLACEMENT_3D ( 'NONE', #1102, #93, #1001 ) ;
#1156 = FACE_OUTER_BOUND ( 'NONE', #825, .T. ) ;
#1157 = VECTOR ( 'NONE', #748, 39.37007874015748143 ) ;
#1158 = ORIENTED_EDGE ( 'NONE', *, *, #1237, .F. ) ;
#1159 = CARTESIAN_POINT ( 'NONE',  ( -0.4174999999999999822, 0.3119999999999999996, -0.02000000000000003511 ) ) ;
#1160 = CIRCLE ( 'NONE', #1267, 0.1604999999999999760 ) ;
#1161 = AXIS2_PLACEMENT_3D ( 'NONE', #67, #174, #1299 ) ;
#1162 = CARTESIAN_POINT ( 'NONE',  ( 0.4175000000000000377, -0.1869999999999999996, 0.1249999999999999029 ) ) ;
#1163 = ORIENTED_EDGE ( 'NONE', *, *, #83, .F. ) ;
#1164 = LINE ( 'NONE', #457, #928 ) ;
#1165 = ORIENTED_EDGE ( 'NONE', *, *, #1143, .T. ) ;
#1166 = DIRECTION ( 'NONE',  ( -0.000000000000000000, 0.000000000000000000, 1.000000000000000000 ) ) ;
#1167 = ADVANCED_FACE ( 'NONE', ( #1286 ), #1314, .F. ) ;
#1168 = DIRECTION ( 'NONE',  ( 0.000000000000000000, 0.000000000000000000, -1.000000000000000000 ) ) ;
#1169 = EDGE_LOOP ( 'NONE', ( #1245, #586, #874, #455 ) ) ;
#1170 = EDGE_LOOP ( 'NONE', ( #1047, #148 ) ) ;
#1171 = FACE_OUTER_BOUND ( 'NONE', #27, .T. ) ;
#1172 = EDGE_CURVE ( 'NONE', #36, #707, #31, .T. ) ;
#1173 = DIRECTION ( 'NONE',  ( 0.000000000000000000, 1.000000000000000000, 0.000000000000000000 ) ) ;
#1174 = ORIENTED_EDGE ( 'NONE', *, *, #66, .F. ) ;
#1175 = ORIENTED_EDGE ( 'NONE', *, *, #294, .T. ) ;
#1176 = DIRECTION ( 'NONE',  ( 1.000000000000000000, 0.000000000000000000, 0.000000000000000000 ) ) ;
#1177 = AXIS2_PLACEMENT_3D ( 'NONE', #1295, #384, #788 ) ;
#1178 = VECTOR ( 'NONE', #113, 39.37007874015748143 ) ;
#1179 = CARTESIAN_POINT ( 'NONE',  ( 0.000000000000000000, -0.3319999999999999618, 0.3119999999999999996 ) ) ;
#1180 = CC_DESIGN_SECURITY_CLASSIFICATION ( #161, ( #870 ) ) ;
#1181 = ORIENTED_EDGE ( 'NONE', *, *, #1205, .F. ) ;
#1182 = EDGE_CURVE ( 'NONE', #146, #199, #583, .T. ) ;
#1183 = ORIENTED_EDGE ( 'NONE', *, *, #940, .F. ) ;
#1184 = FACE_OUTER_BOUND ( 'NONE', #1310, .T. ) ;
#1185 = CARTESIAN_POINT ( 'NONE',  ( -0.1405000000000000693, 1.720628752802032068E-17, -0.1880000000000000282 ) ) ;
#1186 = DIRECTION ( 'NONE',  ( 3.414809992080330699E-15, 1.000000000000000000, -2.048885995248198499E-14 ) ) ;
#1187 = ORIENTED_EDGE ( 'NONE', *, *, #1205, .T. ) ;
#1188 = PRODUCT_DEFINITION ( 'UNKNOWN', '', #870, #804 ) ;
#1189 = EDGE_LOOP ( 'NONE', ( #1058, #1234, #1104, #1099 ) ) ;
#1190 = DIRECTION ( 'NONE',  ( -1.000000000000000000, -0.000000000000000000, -0.000000000000000000 ) ) ;
#1191 = CARTESIAN_POINT ( 'NONE',  ( 0.000000000000000000, -0.4799999999999999822, 0.3119999999999998885 ) ) ;
#1192 = ORIENTED_EDGE ( 'NONE', *, *, #1150, .T. ) ;
#1193 = AXIS2_PLACEMENT_3D ( 'NONE', #943, #527, #620 ) ;
#1194 = FACE_BOUND ( 'NONE', #1068, .T. ) ;
#1195 = ADVANCED_FACE ( 'NONE', ( #377 ), #1097, .T. ) ;
#1196 = AXIS2_PLACEMENT_3D ( 'NONE', #699, #497, #378 ) ;
#1197 = CARTESIAN_POINT ( 'NONE',  ( 0.4175000000000000377, -0.3119999999999999996, 0.1249999999999999029 ) ) ;
#1198 = DIRECTION ( 'NONE',  ( 0.000000000000000000, 0.000000000000000000, -1.000000000000000000 ) ) ;
#1199 = AXIS2_PLACEMENT_3D ( 'NONE', #468, #1176, #873 ) ;
#1200 = AXIS2_PLACEMENT_3D ( 'NONE', #648, #1266, #141 ) ;
#1201 = ORIENTED_EDGE ( 'NONE', *, *, #872, .F. ) ;
#1202 = TOROIDAL_SURFACE ( 'NONE', #229, 0.1605000000000000038, 0.02000000000000000042 ) ;
#1203 = CYLINDRICAL_SURFACE ( 'NONE', #353, 0.1404999999999999860 ) ;
#1204 = CARTESIAN_POINT ( 'NONE',  ( -0.4375000000000000000, -0.1869999999999999996, 0.1249999999999999029 ) ) ;
#1205 = EDGE_CURVE ( 'NONE', #199, #980, #1305, .T. ) ;
#1206 =( NAMED_UNIT ( * ) SI_UNIT ( $, .STERADIAN. ) SOLID_ANGLE_UNIT ( ) );
#1207 = ORIENTED_EDGE ( 'NONE', *, *, #690, .F. ) ;
#1208 = LINE ( 'NONE', #576, #1309 ) ;
#1209 = DIRECTION ( 'NONE',  ( 0.000000000000000000, 0.000000000000000000, -1.000000000000000000 ) ) ;
#1210 = CARTESIAN_POINT ( 'NONE',  ( 0.4174999999999999822, -0.1869999999999999996, -0.02000000000000015307 ) ) ;
#1211 = DIRECTION ( 'NONE',  ( -0.000000000000000000, 1.368661319471073838E-16, -1.000000000000000000 ) ) ;
#1212 = ORIENTED_EDGE ( 'NONE', *, *, #1290, .F. ) ;
#1213 = ORIENTED_EDGE ( 'NONE', *, *, #1150, .F. ) ;
#1214 = CARTESIAN_POINT ( 'NONE',  ( 0.000000000000000000, 0.000000000000000000, -0.1880000000000000282 ) ) ;
#1215 = DIRECTION ( 'NONE',  ( 0.000000000000000000, -1.000000000000000000, -1.368661319471073838E-16 ) ) ;
#1216 = CIRCLE ( 'NONE', #1086, 0.01999999999999999001 ) ;
#1217 = CARTESIAN_POINT ( 'NONE',  ( 1.720628752802031760E-17, -0.3319999999999999618, 0.1714999999999999580 ) ) ;
#1218 = AXIS2_PLACEMENT_3D ( 'NONE', #965, #660, #41 ) ;
#1219 = DIRECTION ( 'NONE',  ( -1.000000000000000000, -0.000000000000000000, -0.000000000000000000 ) ) ;
#1220 = AXIS2_PLACEMENT_3D ( 'NONE', #970, #55, #958 ) ;
#1221 = VERTEX_POINT ( 'NONE', #92 ) ;
#1222 = CIRCLE ( 'NONE', #546, 0.1605000000000000593 ) ;
#1223 = ADVANCED_FACE ( 'NONE', ( #896 ), #691, .F. ) ;
#1224 = DIRECTION ( 'NONE',  ( 0.000000000000000000, 0.000000000000000000, -1.000000000000000000 ) ) ;
#1225 = DIRECTION ( 'NONE',  ( -0.000000000000000000, 1.000000000000000000, 2.734582576240503775E-16 ) ) ;
#1226 = DIRECTION ( 'NONE',  ( 1.000000000000000000, 0.000000000000000000, 0.000000000000000000 ) ) ;
#1227 = ORIENTED_EDGE ( 'NONE', *, *, #569, .F. ) ;
#1228 = EDGE_CURVE ( 'NONE', #919, #159, #778, .T. ) ;
#1229 = DIRECTION ( 'NONE',  ( 0.000000000000000000, -1.000000000000000000, 0.000000000000000000 ) ) ;
#1230 = CARTESIAN_POINT ( 'NONE',  ( -0.4375000000000000000, -0.4799999999999999822, 0.7908052756959443874 ) ) ;
#1231 = DIRECTION ( 'NONE',  ( -0.000000000000000000, 1.368661319471073838E-16, -1.000000000000000000 ) ) ;
#1232 = FACE_OUTER_BOUND ( 'NONE', #54, .T. ) ;
#1233 = ADVANCED_BREP_SHAPE_REPRESENTATION ( '47065T236_Silver Corner Bracket', ( #634, #845 ), #185 ) ;
#1234 = ORIENTED_EDGE ( 'NONE', *, *, #988, .F. ) ;
#1235 = DIRECTION ( 'NONE',  ( 1.000000000000000000, 0.000000000000000000, 0.000000000000000000 ) ) ;
#1236 = CARTESIAN_POINT ( 'NONE',  ( 0.000000000000000000, -0.3319999999999999618, 0.3119999999999999996 ) ) ;
#1237 = EDGE_CURVE ( 'NONE', #328, #796, #781, .T. ) ;
#1238 = DIRECTION ( 'NONE',  ( 1.000000000000000000, 0.000000000000000000, 0.000000000000000000 ) ) ;
#1239 = VECTOR ( 'NONE', #598, 39.37007874015748143 ) ;
#1240 = VERTEX_POINT ( 'NONE', #1000 ) ;
#1241 = VECTOR ( 'NONE', #332, 39.37007874015748143 ) ;
#1242 = VECTOR ( 'NONE', #74, 39.37007874015748143 ) ;
#1243 = DIRECTION ( 'NONE',  ( 1.000000000000000000, 0.000000000000000000, -1.224646799147353207E-16 ) ) ;
#1244 = VECTOR ( 'NONE', #1004, 39.37007874015748143 ) ;
#1245 = ORIENTED_EDGE ( 'NONE', *, *, #1182, .F. ) ;
#1246 = CARTESIAN_POINT ( 'NONE',  ( -0.4375000000000000000, -0.5000000000000000000, 0.6239999999999999991 ) ) ;
#1247 = ADVANCED_FACE ( 'NONE', ( #592 ), #883, .T. ) ;
#1248 = CARTESIAN_POINT ( 'NONE',  ( 0.000000000000000000, -0.1605000000000000593, -8.995098815561298678E-17 ) ) ;
#1249 = ORIENTED_EDGE ( 'NONE', *, *, #862, .T. ) ;
#1250 = DIRECTION ( 'NONE',  ( 0.000000000000000000, 0.000000000000000000, -1.000000000000000000 ) ) ;
#1251 = PERSON ( 'UNSPECIFIED', 'UNSPECIFIED', 'UNSPECIFIED', ('UNSPECIFIED'), ('UNSPECIFIED'), ('UNSPECIFIED') ) ;
#1252 = VERTEX_POINT ( 'NONE', #1197 ) ;
#1253 = DIRECTION ( 'NONE',  ( 0.000000000000000000, -1.000000000000000000, -1.368661319471073838E-16 ) ) ;
#1254 = APPROVAL_ROLE ( '' ) ;
#1255 = FACE_OUTER_BOUND ( 'NONE', #1169, .T. ) ;
#1256 = ORIENTED_EDGE ( 'NONE', *, *, #675, .T. ) ;
#1257 = ADVANCED_FACE ( 'NONE', ( #703 ), #287, .T. ) ;
#1258 = CARTESIAN_POINT ( 'NONE',  ( -0.4375000000000000000, -0.4530000000000000138, -0.1680000000000000382 ) ) ;
#1259 = DIRECTION ( 'NONE',  ( 0.000000000000000000, 0.000000000000000000, -1.000000000000000000 ) ) ;
#1260 = COORDINATED_UNIVERSAL_TIME_OFFSET ( 6, 0, .BEHIND. ) ;
#1261 = DIRECTION ( 'NONE',  ( 1.000000000000000000, -1.224646799147353207E-16, -1.676126704007043669E-32 ) ) ;
#1262 = VERTEX_POINT ( 'NONE', #383 ) ;
#1263 = AXIS2_PLACEMENT_3D ( 'NONE', #556, #1153, #162 ) ;
#1264 = ADVANCED_FACE ( 'NONE', ( #504 ), #1202, .T. ) ;
#1265 = AXIS2_PLACEMENT_3D ( 'NONE', #452, #858, #1259 ) ;
#1266 = DIRECTION ( 'NONE',  ( 0.000000000000000000, -1.000000000000000000, 0.000000000000000000 ) ) ;
#1267 = AXIS2_PLACEMENT_3D ( 'NONE', #315, #629, #721 ) ;
#1268 = CARTESIAN_POINT ( 'NONE',  ( 0.000000000000000000, -0.3319999999999999618, 0.3119999999999999996 ) ) ;
#1269 = COORDINATED_UNIVERSAL_TIME_OFFSET ( 6, 0, .BEHIND. ) ;
#1270 = CARTESIAN_POINT ( 'NONE',  ( 0.1405000000000000693, 0.000000000000000000, -0.1880000000000000282 ) ) ;
#1271 = ORIENTED_EDGE ( 'NONE', *, *, #582, .F. ) ;
#1272 = EDGE_CURVE ( 'NONE', #1324, #939, #655, .T. ) ;
#1273 = ORIENTED_EDGE ( 'NONE', *, *, #240, .T. ) ;
#1274 = LINE ( 'NONE', #160, #1157 ) ;
#1275 = DIRECTION ( 'NONE',  ( 0.000000000000000000, 1.000000000000000000, 0.000000000000000000 ) ) ;
#1276 = ORIENTED_EDGE ( 'NONE', *, *, #975, .T. ) ;
#1277 = ORIENTED_EDGE ( 'NONE', *, *, #618, .T. ) ;
#1278 = CARTESIAN_POINT ( 'NONE',  ( -0.4174999999999999822, 0.4788052756959443323, -0.1680000000000000382 ) ) ;
#1279 = ADVANCED_FACE ( 'NONE', ( #679 ), #908, .T. ) ;
#1280 = VERTEX_POINT ( 'NONE', #1077 ) ;
#1281 = TOROIDAL_SURFACE ( 'NONE', #1109, 0.1605000000000000593, 0.02000000000000000042 ) ;
#1282 = VECTOR ( 'NONE', #670, 39.37007874015748143 ) ;
#1283 = ORIENTED_EDGE ( 'NONE', *, *, #569, .T. ) ;
#1284 = LINE ( 'NONE', #84, #327 ) ;
#1285 = CIRCLE ( 'NONE', #775, 0.02700000000000001357 ) ;
#1286 = FACE_OUTER_BOUND ( 'NONE', #1106, .T. ) ;
#1287 = CIRCLE ( 'NONE', #525, 0.1605000000000000038 ) ;
#1288 = LINE ( 'NONE', #1015, #1239 ) ;
#1289 = CIRCLE ( 'NONE', #288, 0.1249999999999999861 ) ;
#1290 = EDGE_CURVE ( 'NONE', #976, #750, #568, .T. ) ;
#1291 = EDGE_LOOP ( 'NONE', ( #1017, #580, #427, #1187 ) ) ;
#1292 = ORIENTED_EDGE ( 'NONE', *, *, #300, .T. ) ;
#1293 = LINE ( 'NONE', #382, #503 ) ;
#1294 = DIRECTION ( 'NONE',  ( 0.000000000000000000, 0.000000000000000000, -1.000000000000000000 ) ) ;
#1295 = CARTESIAN_POINT ( 'NONE',  ( 0.4174999999999999822, -0.4530000000000000138, -0.1680000000000000382 ) ) ;
#1296 = ORIENTED_EDGE ( 'NONE', *, *, #618, .F. ) ;
#1297 = EDGE_CURVE ( 'NONE', #529, #1318, #591, .T. ) ;
#1298 = CARTESIAN_POINT ( 'NONE',  ( -0.4375000000000000000, -0.5000000000000000000, 0.8119999999999999440 ) ) ;
#1299 = DIRECTION ( 'NONE',  ( 0.000000000000000000, -4.860939490505807112E-16, 1.000000000000000000 ) ) ;
#1300 = DIRECTION ( 'NONE',  ( -1.000000000000000000, 0.000000000000000000, 0.000000000000000000 ) ) ;
#1301 = ORIENTED_EDGE ( 'NONE', *, *, #59, .F. ) ;
#1302 = EDGE_CURVE ( 'NONE', #668, #131, #953, .T. ) ;
#1303 = PLANE ( 'NONE',  #888 ) ;
#1304 = TOROIDAL_SURFACE ( 'NONE', #156, 0.1449999999999999900, 0.02000000000000000042 ) ;
#1305 = LINE ( 'NONE', #577, #1054 ) ;
#1306 = DIRECTION ( 'NONE',  ( 1.224646799147354933E-16, 0.000000000000000000, -1.000000000000000000 ) ) ;
#1307 = VECTOR ( 'NONE', #1119, 39.37007874015748143 ) ;
#1308 = PERSON_AND_ORGANIZATION ( #1251, #355 ) ;
#1309 = VECTOR ( 'NONE', #65, 39.37007874015748143 ) ;
#1310 = EDGE_LOOP ( 'NONE', ( #719, #745, #1249, #1273 ) ) ;
#1311 = CIRCLE ( 'NONE', #420, 0.1605000000000000593 ) ;
#1312 = CARTESIAN_POINT ( 'NONE',  ( 0.4375000000000000000, -0.5000000000000000000, -0.1679999999999999549 ) ) ;
#1313 = EDGE_CURVE ( 'NONE', #159, #513, #993, .T. ) ;
#1314 = CYLINDRICAL_SURFACE ( 'NONE', #13, 0.1405000000000000693 ) ;
#1315 = DIRECTION ( 'NONE',  ( -1.000000000000000000, -0.000000000000000000, -0.000000000000000000 ) ) ;
#1316 = EDGE_CURVE ( 'NONE', #976, #939, #814, .T. ) ;
#1317 = PERSON_AND_ORGANIZATION ( #1251, #355 ) ;
#1318 = VERTEX_POINT ( 'NONE', #1126 ) ;
#1319 = EDGE_LOOP ( 'NONE', ( #811, #335, #1207, #295 ) ) ;
#1320 = CARTESIAN_POINT ( 'NONE',  ( -0.4375000000000000000, 0.3119999999999999996, -0.02000000000000000042 ) ) ;
#1321 = DIRECTION ( 'NONE',  ( -0.000000000000000000, -1.000000000000000000, -0.000000000000000000 ) ) ;
#1322 = DIRECTION ( 'NONE',  ( 0.000000000000000000, 0.000000000000000000, -1.000000000000000000 ) ) ;
#1323 = EDGE_CURVE ( 'NONE', #131, #668, #1311, .T. ) ;
#1324 = VERTEX_POINT ( 'NONE', #1217 ) ;
ENDSEC;
END-ISO-10303-21;
