ISO-10303-21;
HEADER;
FILE_DESCRIPTION (( 'STEP AP214' ),
    '1' );
FILE_NAME ('housing_left.STEP',
    '2026-05-25T23:22:52',
    ( '' ),
    ( '' ),
    'SwSTEP 2.0',
    'SolidWorks 2025',
    '' );
FILE_SCHEMA (( 'AUTOMOTIVE_DESIGN' ));
ENDSEC;

DATA;
#1 = DIRECTION ( 'NONE',  ( 0.000000000000000000, 0.000000000000000000, 1.000000000000000000 ) ) ;
#2 = AXIS2_PLACEMENT_3D ( 'NONE', #299, #675, #138 ) ;
#3 = VERTEX_POINT ( 'NONE', #746 ) ;
#4 = CARTESIAN_POINT ( 'NONE',  ( 0.000000000000000000, -0.2000000000000069778, 1.000000000000000222 ) ) ;
#5 = CIRCLE ( 'NONE', #57, 0.1023622047244093780 ) ;
#6 = AXIS2_PLACEMENT_3D ( 'NONE', #212, #44, #133 ) ;
#7 = EDGE_CURVE ( 'NONE', #322, #778, #698, .T. ) ;
#8 = VERTEX_POINT ( 'NONE', #271 ) ;
#9 = ORIENTED_EDGE ( 'NONE', *, *, #226, .F. ) ;
#10 = VECTOR ( 'NONE', #571, 39.37007874015748143 ) ;
#11 = FACE_BOUND ( 'NONE', #727, .T. ) ;
#12 = VERTEX_POINT ( 'NONE', #267 ) ;
#13 = CARTESIAN_POINT ( 'NONE',  ( -4.173228346456692606, 0.000000000000000000, -0.4173228346456689386 ) ) ;
#14 = ORIENTED_EDGE ( 'NONE', *, *, #587, .T. ) ;
#15 = ORIENTED_EDGE ( 'NONE', *, *, #877, .T. ) ;
#16 = ADVANCED_FACE ( 'NONE', ( #570 ), #577, .F. ) ;
#17 = LINE ( 'NONE', #172, #962 ) ;
#18 = EDGE_LOOP ( 'NONE', ( #388, #520 ) ) ;
#19 = DIRECTION ( 'NONE',  ( -0.000000000000000000, -1.000000000000000000, -0.000000000000000000 ) ) ;
#20 = ORIENTED_EDGE ( 'NONE', *, *, #761, .F. ) ;
#21 = APPLICATION_PROTOCOL_DEFINITION ( 'draft international standard', 'automotive_design', 1998, #399 ) ;
#22 = ORIENTED_EDGE ( 'NONE', *, *, #164, .T. ) ;
#23 = CARTESIAN_POINT ( 'NONE',  ( 0.000000000000000000, 2.000000000000000000, 0.000000000000000000 ) ) ;
#24 = VERTEX_POINT ( 'NONE', #287 ) ;
#25 = EDGE_CURVE ( 'NONE', #617, #252, #592, .T. ) ;
#26 = FACE_OUTER_BOUND ( 'NONE', #91, .T. ) ;
#27 = EDGE_LOOP ( 'NONE', ( #790, #703, #35, #335, #34, #572, #470, #1001 ) ) ;
#28 = EDGE_LOOP ( 'NONE', ( #691, #20 ) ) ;
#29 = AXIS2_PLACEMENT_3D ( 'NONE', #356, #286, #363 ) ;
#30 = EDGE_CURVE ( 'NONE', #327, #566, #364, .T. ) ;
#31 = PLANE ( 'NONE',  #704 ) ;
#32 = VERTEX_POINT ( 'NONE', #490 ) ;
#33 = CARTESIAN_POINT ( 'NONE',  ( -5.924999999999999822, 2.000000000000000000, 1.499999999999999778 ) ) ;
#34 = ORIENTED_EDGE ( 'NONE', *, *, #739, .T. ) ;
#35 = ORIENTED_EDGE ( 'NONE', *, *, #809, .F. ) ;
#36 = CYLINDRICAL_SURFACE ( 'NONE', #315, 0.1023622047244093780 ) ;
#37 = CARTESIAN_POINT ( 'NONE',  ( -4.173228346456692606, 0.000000000000000000, 0.2952755905511806889 ) ) ;
#38 = VERTEX_POINT ( 'NONE', #983 ) ;
#39 = EDGE_LOOP ( 'NONE', ( #181, #479 ) ) ;
#40 = DIRECTION ( 'NONE',  ( 0.000000000000000000, 0.000000000000000000, -1.000000000000000000 ) ) ;
#41 = CARTESIAN_POINT ( 'NONE',  ( 0.000000000000000000, -0.2000000000000069778, 0.8750000000000001110 ) ) ;
#42 = CARTESIAN_POINT ( 'NONE',  ( -5.825000000000000178, 2.000000000000000000, 1.399999999999999911 ) ) ;
#43 = LINE ( 'NONE', #743, #235 ) ;
#44 = DIRECTION ( 'NONE',  ( -1.000000000000000000, -0.000000000000000000, -0.000000000000000000 ) ) ;
#45 = AXIS2_PLACEMENT_3D ( 'NONE', #752, #455, #672 ) ;
#46 = CIRCLE ( 'NONE', #784, 0.1250000000000000278 ) ;
#47 = CARTESIAN_POINT ( 'NONE',  ( 0.000000000000000000, -0.2000000000000083378, -1.124999999999999778 ) ) ;
#48 = EDGE_CURVE ( 'NONE', #875, #390, #93, .T. ) ;
#49 = DIRECTION ( 'NONE',  ( 0.000000000000000000, 0.000000000000000000, 1.000000000000000000 ) ) ;
#50 = DIRECTION ( 'NONE',  ( -1.000000000000000000, -0.000000000000000000, -0.000000000000000000 ) ) ;
#51 = ADVANCED_FACE ( 'NONE', ( #947 ), #260, .F. ) ;
#52 = DIRECTION ( 'NONE',  ( 0.000000000000000000, 0.000000000000000000, 1.000000000000000000 ) ) ;
#53 = EDGE_CURVE ( 'NONE', #427, #175, #5, .T. ) ;
#54 = ADVANCED_FACE ( 'NONE', ( #697 ), #450, .F. ) ;
#55 = CIRCLE ( 'NONE', #599, 0.1250000000000000000 ) ;
#56 =( NAMED_UNIT ( * ) PLANE_ANGLE_UNIT ( ) SI_UNIT ( $, .RADIAN. ) );
#57 = AXIS2_PLACEMENT_3D ( 'NONE', #764, #458, #754 ) ;
#58 = ADVANCED_FACE ( 'NONE', ( #855 ), #78, .F. ) ;
#59 = DIRECTION ( 'NONE',  ( 0.000000000000000000, -1.000000000000000000, 0.000000000000000000 ) ) ;
#60 = AXIS2_PLACEMENT_3D ( 'NONE', #673, #277, #972 ) ;
#61 = DIRECTION ( 'NONE',  ( -0.000000000000000000, 0.000000000000000000, 1.000000000000000000 ) ) ;
#62 = VECTOR ( 'NONE', #954, 39.37007874015748143 ) ;
#63 = CARTESIAN_POINT ( 'NONE',  ( -6.424999999999998934, -0.4000000000000000222, 1.750000000000002665 ) ) ;
#64 = PLANE ( 'NONE',  #474 ) ;
#65 = DIRECTION ( 'NONE',  ( 0.000000000000000000, 0.000000000000000000, -1.000000000000000000 ) ) ;
#66 = LINE ( 'NONE', #63, #992 ) ;
#67 = DIRECTION ( 'NONE',  ( 0.000000000000000000, 0.000000000000000000, -1.000000000000000000 ) ) ;
#68 = CARTESIAN_POINT ( 'NONE',  ( 0.5000000000000000000, -0.2000000000000069778, 0.8750000000000001110 ) ) ;
#69 = AXIS2_PLACEMENT_3D ( 'NONE', #616, #713, #88 ) ;
#70 = DIRECTION ( 'NONE',  ( 0.000000000000000000, 0.000000000000000000, -1.000000000000000000 ) ) ;
#71 = AXIS2_PLACEMENT_3D ( 'NONE', #92, #642, #488 ) ;
#72 = FACE_OUTER_BOUND ( 'NONE', #708, .T. ) ;
#73 = LINE ( 'NONE', #68, #312 ) ;
#74 = VECTOR ( 'NONE', #305, 39.37007874015748143 ) ;
#75 = CARTESIAN_POINT ( 'NONE',  ( -6.424999999999998934, 1.750000000000000000, -0.8976377952755908440 ) ) ;
#76 = CARTESIAN_POINT ( 'NONE',  ( -6.424999999999998934, 2.000000000000000000, -1.749999999999999334 ) ) ;
#77 = ORIENTED_EDGE ( 'NONE', *, *, #591, .F. ) ;
#78 = CYLINDRICAL_SURFACE ( 'NONE', #668, 0.1220472440944882775 ) ;
#79 = ORIENTED_EDGE ( 'NONE', *, *, #86, .F. ) ;
#80 = CARTESIAN_POINT ( 'NONE',  ( 0.000000000000000000, -0.2000000000000069778, 1.125000000000000222 ) ) ;
#81 = ORIENTED_EDGE ( 'NONE', *, *, #900, .T. ) ;
#82 = DIRECTION ( 'NONE',  ( 1.000000000000000000, 0.000000000000000000, 0.000000000000000000 ) ) ;
#83 = ORIENTED_EDGE ( 'NONE', *, *, #30, .F. ) ;
#84 = EDGE_CURVE ( 'NONE', #763, #693, #757, .T. ) ;
#85 = FACE_BOUND ( 'NONE', #237, .T. ) ;
#86 = EDGE_CURVE ( 'NONE', #849, #561, #216, .T. ) ;
#87 = ORIENTED_EDGE ( 'NONE', *, *, #692, .T. ) ;
#88 = DIRECTION ( 'NONE',  ( 1.000000000000000000, 0.000000000000000000, 0.000000000000000000 ) ) ;
#89 = ORIENTED_EDGE ( 'NONE', *, *, #94, .T. ) ;
#90 = CYLINDRICAL_SURFACE ( 'NONE', #817, 0.1000000000000000194 ) ;
#91 = EDGE_LOOP ( 'NONE', ( #643, #493, #102, #77 ) ) ;
#92 = CARTESIAN_POINT ( 'NONE',  ( 0.5000000000000000000, -0.2000000000000069778, 1.000000000000000222 ) ) ;
#93 = CIRCLE ( 'NONE', #231, 0.1250000000000000278 ) ;
#94 = EDGE_CURVE ( 'NONE', #552, #390, #73, .T. ) ;
#95 = EDGE_LOOP ( 'NONE', ( #942, #442, #249, #568 ) ) ;
#96 = ORIENTED_EDGE ( 'NONE', *, *, #900, .F. ) ;
#97 = VECTOR ( 'NONE', #157, 39.37007874015748143 ) ;
#98 = CARTESIAN_POINT ( 'NONE',  ( 0.000000000000000000, -0.2000000000000083378, -0.9999999999999998890 ) ) ;
#99 = ORIENTED_EDGE ( 'NONE', *, *, #768, .F. ) ;
#100 = CARTESIAN_POINT ( 'NONE',  ( -4.173228346456692606, 0.000000000000000000, 0.4173228346456689386 ) ) ;
#101 = EDGE_LOOP ( 'NONE', ( #467, #484 ) ) ;
#102 = ORIENTED_EDGE ( 'NONE', *, *, #415, .T. ) ;
#103 = EDGE_CURVE ( 'NONE', #405, #262, #241, .T. ) ;
#104 = FILL_AREA_STYLE ('',( #336 ) ) ;
#105 = ORIENTED_EDGE ( 'NONE', *, *, #416, .F. ) ;
#106 = DIRECTION ( 'NONE',  ( -1.000000000000000000, -0.000000000000000000, -0.000000000000000000 ) ) ;
#107 = ORIENTED_EDGE ( 'NONE', *, *, #612, .F. ) ;
#108 = ORIENTED_EDGE ( 'NONE', *, *, #280, .T. ) ;
#109 = DIRECTION ( 'NONE',  ( 1.000000000000000000, 0.000000000000000000, -0.000000000000000000 ) ) ;
#110 = ORIENTED_EDGE ( 'NONE', *, *, #904, .F. ) ;
#111 = VECTOR ( 'NONE', #527, 39.37007874015748143 ) ;
#112 = CARTESIAN_POINT ( 'NONE',  ( -4.173228346456692606, 2.000000000000000000, 0.2952755905511806889 ) ) ;
#113 = AXIS2_PLACEMENT_3D ( 'NONE', #185, #953, #290 ) ;
#114 = CARTESIAN_POINT ( 'NONE',  ( -4.173228346456692606, 2.000000000000000000, 0.2952755905511806889 ) ) ;
#115 = AXIS2_PLACEMENT_3D ( 'NONE', #462, #382, #67 ) ;
#116 = DIRECTION ( 'NONE',  ( -1.000000000000000000, -0.000000000000000000, -0.000000000000000000 ) ) ;
#117 = ORIENTED_EDGE ( 'NONE', *, *, #234, .F. ) ;
#118 = CARTESIAN_POINT ( 'NONE',  ( -6.224999999999999645, 2.000000000000000000, 1.550000000000002487 ) ) ;
#119 = ORIENTED_EDGE ( 'NONE', *, *, #557, .F. ) ;
#120 = DIRECTION ( 'NONE',  ( 0.000000000000000000, 0.000000000000000000, 1.000000000000000000 ) ) ;
#121 = LINE ( 'NONE', #897, #780 ) ;
#122 = VERTEX_POINT ( 'NONE', #307 ) ;
#123 = LINE ( 'NONE', #430, #10 ) ;
#124 = FACE_OUTER_BOUND ( 'NONE', #311, .T. ) ;
#125 = AXIS2_PLACEMENT_3D ( 'NONE', #379, #908, #211 ) ;
#126 = CARTESIAN_POINT ( 'NONE',  ( 6.214524036391342321, 1.750000000000000000, 0.8976377952755908440 ) ) ;
#127 = ORIENTED_EDGE ( 'NONE', *, *, #692, .F. ) ;
#128 = CARTESIAN_POINT ( 'NONE',  ( 0.000000000000000000, 2.000000000000000000, -1.750000000000000222 ) ) ;
#129 = AXIS2_PLACEMENT_3D ( 'NONE', #738, #434, #208 ) ;
#130 = CIRCLE ( 'NONE', #71, 0.1250000000000000278 ) ;
#131 = LENGTH_MEASURE_WITH_UNIT ( LENGTH_MEASURE( 0.02539999999999999897 ), #543 );
#132 = EDGE_CURVE ( 'NONE', #981, #847, #161, .T. ) ;
#133 = DIRECTION ( 'NONE',  ( 0.000000000000000000, 0.000000000000000000, 1.000000000000000000 ) ) ;
#134 = EDGE_CURVE ( 'NONE', #854, #534, #377, .T. ) ;
#135 = DIRECTION ( 'NONE',  ( 0.000000000000000000, -1.000000000000000000, 0.000000000000000000 ) ) ;
#136 = DIRECTION ( 'NONE',  ( -0.000000000000000000, 1.000000000000000000, 0.000000000000000000 ) ) ;
#137 = VERTEX_POINT ( 'NONE', #776 ) ;
#138 = DIRECTION ( 'NONE',  ( -1.000000000000000000, 0.000000000000000000, 1.152678478339351656E-16 ) ) ;
#139 = CARTESIAN_POINT ( 'NONE',  ( -5.924999999999999822, 2.000000000000000000, 1.399999999999999911 ) ) ;
#140 = AXIS2_PLACEMENT_3D ( 'NONE', #659, #961, #582 ) ;
#141 = CARTESIAN_POINT ( 'NONE',  ( 0.000000000000000000, -0.2000000000000069778, 1.000000000000000222 ) ) ;
#142 = VECTOR ( 'NONE', #815, 39.37007874015748143 ) ;
#143 = CARTESIAN_POINT ( 'NONE',  ( -5.924999999999999822, 2.000000000000000000, -1.399999999999995914 ) ) ;
#144 = FACE_OUTER_BOUND ( 'NONE', #183, .T. ) ;
#145 = DIRECTION ( 'NONE',  ( 0.000000000000000000, 0.000000000000000000, -1.000000000000000000 ) ) ;
#146 = DIRECTION ( 'NONE',  ( -0.000000000000000000, 1.000000000000000000, -0.000000000000000000 ) ) ;
#147 = CARTESIAN_POINT ( 'NONE',  ( -4.173228346456692606, 0.000000000000000000, 0.2952755905511806889 ) ) ;
#148 = ORIENTED_EDGE ( 'NONE', *, *, #661, .T. ) ;
#149 = PLANE ( 'NONE',  #276 ) ;
#150 = CIRCLE ( 'NONE', #839, 0.1023622047244093780 ) ;
#151 = EDGE_CURVE ( 'NONE', #137, #329, #604, .T. ) ;
#152 = CARTESIAN_POINT ( 'NONE',  ( -6.424999999999998934, 2.000000000000000000, -1.549999999999998268 ) ) ;
#153 = DIRECTION ( 'NONE',  ( 0.000000000000000000, 0.000000000000000000, -1.000000000000000000 ) ) ;
#154 = DIRECTION ( 'NONE',  ( -0.000000000000000000, -1.000000000000000000, -0.000000000000000000 ) ) ;
#155 = VECTOR ( 'NONE', #348, 39.37007874015748143 ) ;
#156 = ORIENTED_EDGE ( 'NONE', *, *, #589, .F. ) ;
#157 = DIRECTION ( 'NONE',  ( -0.000000000000000000, -0.000000000000000000, 1.000000000000000000 ) ) ;
#158 = ORIENTED_EDGE ( 'NONE', *, *, #690, .F. ) ;
#159 = DIRECTION ( 'NONE',  ( 0.000000000000000000, 0.000000000000000000, 1.000000000000000000 ) ) ;
#160 = ADVANCED_FACE ( 'NONE', ( #371 ), #149, .T. ) ;
#161 = LINE ( 'NONE', #302, #963 ) ;
#162 = EDGE_CURVE ( 'NONE', #324, #875, #600, .T. ) ;
#163 = ORIENTED_EDGE ( 'NONE', *, *, #945, .F. ) ;
#164 = EDGE_CURVE ( 'NONE', #390, #875, #46, .T. ) ;
#165 = ORIENTED_EDGE ( 'NONE', *, *, #273, .F. ) ;
#166 = ADVANCED_BREP_SHAPE_REPRESENTATION ( 'housing_left', ( #730, #69 ), #988 ) ;
#167 = CARTESIAN_POINT ( 'NONE',  ( 0.000000000000000000, -0.2000000000000083378, -0.9999999999999998890 ) ) ;
#168 = EDGE_LOOP ( 'NONE', ( #955, #648, #644, #499 ) ) ;
#169 = DIRECTION ( 'NONE',  ( 1.000000000000000000, 0.000000000000000000, 0.000000000000000000 ) ) ;
#170 = EDGE_LOOP ( 'NONE', ( #638, #751, #596, #110 ) ) ;
#171 = ORIENTED_EDGE ( 'NONE', *, *, #979, .F. ) ;
#172 = CARTESIAN_POINT ( 'NONE',  ( 6.214524036391342321, 1.750000000000000000, -1.102362204724409711 ) ) ;
#173 = ORIENTED_EDGE ( 'NONE', *, *, #162, .F. ) ;
#174 = DIRECTION ( 'NONE',  ( 0.000000000000000000, 0.000000000000000000, 1.000000000000000000 ) ) ;
#175 = VERTEX_POINT ( 'NONE', #225 ) ;
#176 = AXIS2_PLACEMENT_3D ( 'NONE', #608, #991, #222 ) ;
#177 = DIRECTION ( 'NONE',  ( 1.000000000000000000, 0.000000000000000000, 0.000000000000000000 ) ) ;
#178 = ORIENTED_EDGE ( 'NONE', *, *, #585, .F. ) ;
#179 = CARTESIAN_POINT ( 'NONE',  ( 0.5000000000000000000, -0.2000000000000069778, 1.125000000000000222 ) ) ;
#180 = EDGE_LOOP ( 'NONE', ( #928, #547, #15, #319, #264, #862, #321, #165, #958, #935, #397, #476 ) ) ;
#181 = ORIENTED_EDGE ( 'NONE', *, *, #977, .T. ) ;
#182 = CARTESIAN_POINT ( 'NONE',  ( 0.000000000000000000, 0.000000000000000000, 0.000000000000000000 ) ) ;
#183 = EDGE_LOOP ( 'NONE', ( #171, #398, #96, #461 ) ) ;
#184 = CARTESIAN_POINT ( 'NONE',  ( -6.424999999999998934, 2.000000000000000000, -1.749999999999999334 ) ) ;
#185 = CARTESIAN_POINT ( 'NONE',  ( 0.5000000000000000000, -0.2000000000000000111, 1.365923996832131609E-16 ) ) ;
#186 = ADVANCED_FACE ( 'NONE', ( #463, #85, #387 ), #313, .F. ) ;
#187 = SURFACE_STYLE_FILL_AREA ( #104 ) ;
#188 = VERTEX_POINT ( 'NONE', #925 ) ;
#189 = DIRECTION ( 'NONE',  ( 1.000000000000000000, 0.000000000000000000, -1.152678478339351656E-16 ) ) ;
#190 = EDGE_LOOP ( 'NONE', ( #821, #414 ) ) ;
#191 = VECTOR ( 'NONE', #929, 39.37007874015748143 ) ;
#192 = CARTESIAN_POINT ( 'NONE',  ( 0.000000000000000000, -0.4000000000000000222, 1.750000000000001776 ) ) ;
#193 = CIRCLE ( 'NONE', #257, 0.1250000000000000278 ) ;
#194 = EDGE_CURVE ( 'NONE', #938, #188, #218, .T. ) ;
#195 = LINE ( 'NONE', #647, #435 ) ;
#196 = ORIENTED_EDGE ( 'NONE', *, *, #226, .T. ) ;
#197 =( CONVERSION_BASED_UNIT ( 'INCH', #131 ) LENGTH_UNIT ( ) NAMED_UNIT ( #986 ) );
#198 = LINE ( 'NONE', #358, #575 ) ;
#199 = FACE_OUTER_BOUND ( 'NONE', #210, .T. ) ;
#200 = LINE ( 'NONE', #128, #960 ) ;
#201 = AXIS2_PLACEMENT_3D ( 'NONE', #338, #951, #265 ) ;
#202 = ADVANCED_FACE ( 'NONE', ( #910 ), #529, .T. ) ;
#203 = DIRECTION ( 'NONE',  ( 0.000000000000000000, -1.000000000000000000, 0.000000000000000000 ) ) ;
#204 = AXIS2_PLACEMENT_3D ( 'NONE', #610, #917, #159 ) ;
#205 = EDGE_CURVE ( 'NONE', #948, #262, #569, .T. ) ;
#206 = FACE_BOUND ( 'NONE', #933, .T. ) ;
#207 = ADVANCED_FACE ( 'NONE', ( #26 ), #332, .F. ) ;
#208 = DIRECTION ( 'NONE',  ( 0.000000000000000000, 0.000000000000000000, -1.000000000000000000 ) ) ;
#209 = CARTESIAN_POINT ( 'NONE',  ( -4.173228346456692606, 0.000000000000000000, -0.2952755905511806889 ) ) ;
#210 = EDGE_LOOP ( 'NONE', ( #411, #773, #156, #79 ) ) ;
#211 = DIRECTION ( 'NONE',  ( 0.000000000000000000, 0.000000000000000000, -1.000000000000000000 ) ) ;
#212 = CARTESIAN_POINT ( 'NONE',  ( 6.214524036391342321, 1.750000000000000000, -1.000000000000000222 ) ) ;
#213 = ORIENTED_EDGE ( 'NONE', *, *, #904, .T. ) ;
#214 = DIRECTION ( 'NONE',  ( 1.000000000000000000, -0.000000000000000000, -0.000000000000000000 ) ) ;
#215 = LINE ( 'NONE', #525, #350 ) ;
#216 = LINE ( 'NONE', #906, #359 ) ;
#217 = AXIS2_PLACEMENT_3D ( 'NONE', #284, #735, #588 ) ;
#218 = CIRCLE ( 'NONE', #353, 0.1250000000000000000 ) ;
#219 = CARTESIAN_POINT ( 'NONE',  ( 0.000000000000000000, 0.000000000000000000, -1.499999999999997558 ) ) ;
#220 = AXIS2_PLACEMENT_3D ( 'NONE', #402, #247, #551 ) ;
#221 = CARTESIAN_POINT ( 'NONE',  ( -6.424999999999998934, 1.750000000000000000, -1.000000000000000222 ) ) ;
#222 = DIRECTION ( 'NONE',  ( 0.000000000000000000, 0.000000000000000000, 1.000000000000000000 ) ) ;
#223 = DIRECTION ( 'NONE',  ( 0.000000000000000000, -1.000000000000000000, 0.000000000000000000 ) ) ;
#224 = DIRECTION ( 'NONE',  ( 0.000000000000000000, -1.000000000000000000, 0.000000000000000000 ) ) ;
#225 = CARTESIAN_POINT ( 'NONE',  ( -6.424999999999998934, 1.750000000000000000, 1.102362204724409711 ) ) ;
#226 = EDGE_CURVE ( 'NONE', #137, #810, #195, .T. ) ;
#227 = EDGE_CURVE ( 'NONE', #324, #552, #130, .T. ) ;
#228 = EDGE_LOOP ( 'NONE', ( #861, #640, #419, #653, #720, #334 ) ) ;
#229 = LINE ( 'NONE', #601, #111 ) ;
#230 = CARTESIAN_POINT ( 'NONE',  ( -6.424999999999998934, 2.000000000000000000, 1.550000000000002487 ) ) ;
#231 = AXIS2_PLACEMENT_3D ( 'NONE', #141, #447, #65 ) ;
#232 = CARTESIAN_POINT ( 'NONE',  ( 6.424999999999998934, -0.4000000000000000222, 1.750000000000001110 ) ) ;
#233 = CIRCLE ( 'NONE', #204, 0.1250000000000000278 ) ;
#234 = EDGE_CURVE ( 'NONE', #778, #938, #565, .T. ) ;
#235 = VECTOR ( 'NONE', #135, 39.37007874015748143 ) ;
#236 = ORIENTED_EDGE ( 'NONE', *, *, #513, .T. ) ;
#237 = EDGE_LOOP ( 'NONE', ( #14, #650 ) ) ;
#238 = EDGE_CURVE ( 'NONE', #483, #405, #394, .T. ) ;
#239 = CARTESIAN_POINT ( 'NONE',  ( -5.825000000000000178, 2.000000000000000000, -1.399999999999997025 ) ) ;
#240 = ORIENTED_EDGE ( 'NONE', *, *, #84, .T. ) ;
#241 = LINE ( 'NONE', #685, #884 ) ;
#242 = ORIENTED_EDGE ( 'NONE', *, *, #132, .F. ) ;
#243 = PRODUCT_DEFINITION_CONTEXT ( 'detailed design', #399, 'design' ) ;
#244 = VERTEX_POINT ( 'NONE', #880 ) ;
#245 = CARTESIAN_POINT ( 'NONE',  ( -5.825000000000000178, 0.000000000000000000, 1.499999999999999778 ) ) ;
#246 = ORIENTED_EDGE ( 'NONE', *, *, #380, .F. ) ;
#247 = DIRECTION ( 'NONE',  ( -0.000000000000000000, 1.000000000000000000, -0.000000000000000000 ) ) ;
#248 = ORIENTED_EDGE ( 'NONE', *, *, #339, .F. ) ;
#249 = ORIENTED_EDGE ( 'NONE', *, *, #162, .T. ) ;
#250 = VECTOR ( 'NONE', #984, 39.37007874015748143 ) ;
#251 = FACE_BOUND ( 'NONE', #620, .T. ) ;
#252 = VERTEX_POINT ( 'NONE', #480 ) ;
#253 = VECTOR ( 'NONE', #408, 39.37007874015748143 ) ;
#254 = CARTESIAN_POINT ( 'NONE',  ( -4.173228346456692606, -0.4000000000000000222, -0.1732283464566923836 ) ) ;
#255 = EDGE_LOOP ( 'NONE', ( #872, #464, #883, #864 ) ) ;
#256 = ORIENTED_EDGE ( 'NONE', *, *, #365, .F. ) ;
#257 = AXIS2_PLACEMENT_3D ( 'NONE', #98, #109, #549 ) ;
#258 = DIRECTION ( 'NONE',  ( -0.000000000000000000, 0.000000000000000000, 1.000000000000000000 ) ) ;
#259 = DIRECTION ( 'NONE',  ( 0.000000000000000000, 0.000000000000000000, -1.000000000000000000 ) ) ;
#260 = CYLINDRICAL_SURFACE ( 'NONE', #797, 0.1220472440944882775 ) ;
#261 =( NAMED_UNIT ( * ) PLANE_ANGLE_UNIT ( ) SI_UNIT ( $, .RADIAN. ) );
#262 = VERTEX_POINT ( 'NONE', #574 ) ;
#263 = CARTESIAN_POINT ( 'NONE',  ( -5.924999999999999822, 1.750000000000000000, -1.000000000000000222 ) ) ;
#264 = ORIENTED_EDGE ( 'NONE', *, *, #982, .T. ) ;
#265 = DIRECTION ( 'NONE',  ( 0.000000000000000000, 0.000000000000000000, 1.000000000000000000 ) ) ;
#266 = ADVANCED_FACE ( 'NONE', ( #944 ), #718, .F. ) ;
#267 = CARTESIAN_POINT ( 'NONE',  ( -6.424999999999998934, 1.750000000000000000, -1.102362204724409711 ) ) ;
#268 = ADVANCED_FACE ( 'NONE', ( #417 ), #649, .T. ) ;
#269 = DIRECTION ( 'NONE',  ( 0.000000000000000000, 0.000000000000000000, -1.000000000000000000 ) ) ;
#270 = CARTESIAN_POINT ( 'NONE',  ( 0.5000000000000000000, -0.2000000000000083378, -0.8749999999999997780 ) ) ;
#271 = CARTESIAN_POINT ( 'NONE',  ( -6.224999999999999645, -0.4000000000000000222, -1.749999999999999334 ) ) ;
#272 = AXIS2_PLACEMENT_3D ( 'NONE', #841, #995, #770 ) ;
#273 = EDGE_CURVE ( 'NONE', #777, #617, #320, .T. ) ;
#274 = CIRCLE ( 'NONE', #129, 0.1250000000000000000 ) ;
#275 = ORIENTED_EDGE ( 'NONE', *, *, #976, .F. ) ;
#276 = AXIS2_PLACEMENT_3D ( 'NONE', #368, #681, #914 ) ;
#277 = DIRECTION ( 'NONE',  ( 0.000000000000000000, -1.000000000000000000, 0.000000000000000000 ) ) ;
#278 = DIRECTION ( 'NONE',  ( -1.000000000000000000, -0.000000000000000000, -0.000000000000000000 ) ) ;
#279 = DIRECTION ( 'NONE',  ( 1.000000000000000000, 0.000000000000000000, -1.152678478339351656E-16 ) ) ;
#280 = EDGE_CURVE ( 'NONE', #309, #566, #509, .T. ) ;
#281 = DIRECTION ( 'NONE',  ( 0.000000000000000000, -1.000000000000000000, 0.000000000000000000 ) ) ;
#282 = LINE ( 'NONE', #512, #973 ) ;
#283 = CIRCLE ( 'NONE', #813, 0.1023622047244093780 ) ;
#284 = CARTESIAN_POINT ( 'NONE',  ( 0.5000000000000000000, -0.2000000000000069778, 1.000000000000000222 ) ) ;
#285 = VECTOR ( 'NONE', #279, 39.37007874015748143 ) ;
#286 = DIRECTION ( 'NONE',  ( 1.000000000000000000, -0.000000000000000000, 0.000000000000000000 ) ) ;
#287 = CARTESIAN_POINT ( 'NONE',  ( -5.924999999999999822, 1.750000000000000000, 1.102362204724409711 ) ) ;
#288 = CARTESIAN_POINT ( 'NONE',  ( -5.924999999999999822, 0.000000000000000000, 1.399999999999999911 ) ) ;
#289 = CARTESIAN_POINT ( 'NONE',  ( 0.000000000000000000, 2.000000000000000000, -1.499999999999997558 ) ) ;
#290 = DIRECTION ( 'NONE',  ( 0.000000000000000000, 0.000000000000000000, -1.000000000000000000 ) ) ;
#291 = CARTESIAN_POINT ( 'NONE',  ( 0.5000000000000000000, -0.2000000000000000111, 1.365923996832131609E-16 ) ) ;
#292 = DIRECTION ( 'NONE',  ( 0.000000000000000000, 0.000000000000000000, -1.000000000000000000 ) ) ;
#293 = CARTESIAN_POINT ( 'NONE',  ( -5.924999999999999822, 2.000000000000000000, 1.499999999999999778 ) ) ;
#294 = DIRECTION ( 'NONE',  ( -1.000000000000000000, 0.000000000000000000, -0.000000000000000000 ) ) ;
#295 = FACE_OUTER_BOUND ( 'NONE', #345, .T. ) ;
#296 = DIRECTION ( 'NONE',  ( 0.000000000000000000, 0.000000000000000000, -1.000000000000000000 ) ) ;
#297 = AXIS2_PLACEMENT_3D ( 'NONE', #978, #749, #997 ) ;
#298 = VECTOR ( 'NONE', #931, 39.37007874015748143 ) ;
#299 = CARTESIAN_POINT ( 'NONE',  ( -5.924999999999999822, 2.000000000000000000, 1.499999999999999778 ) ) ;
#300 = CARTESIAN_POINT ( 'NONE',  ( -6.424999999999998934, -0.4000000000000000222, -1.549999999999998268 ) ) ;
#301 = ADVANCED_FACE ( 'NONE', ( #473 ), #325, .T. ) ;
#302 = CARTESIAN_POINT ( 'NONE',  ( 6.214524036391342321, 1.750000000000000000, -0.8976377952755908440 ) ) ;
#303 = EDGE_CURVE ( 'NONE', #24, #835, #150, .T. ) ;
#304 = LINE ( 'NONE', #288, #558 ) ;
#305 = DIRECTION ( 'NONE',  ( -1.000000000000000000, -0.000000000000000000, 1.275571047625337126E-16 ) ) ;
#306 = EDGE_CURVE ( 'NONE', #326, #548, #409, .T. ) ;
#307 = CARTESIAN_POINT ( 'NONE',  ( 0.000000000000000000, 0.000000000000000000, 1.499999999999999334 ) ) ;
#308 = ORIENTED_EDGE ( 'NONE', *, *, #666, .F. ) ;
#309 = VERTEX_POINT ( 'NONE', #254 ) ;
#310 = DIRECTION ( 'NONE',  ( 0.000000000000000000, 0.000000000000000000, -1.000000000000000000 ) ) ;
#311 = EDGE_LOOP ( 'NONE', ( #540, #213, #472, #957 ) ) ;
#312 = VECTOR ( 'NONE', #999, 39.37007874015748143 ) ;
#313 = PLANE ( 'NONE',  #737 ) ;
#314 = AXIS2_PLACEMENT_3D ( 'NONE', #515, #812, #52 ) ;
#315 = AXIS2_PLACEMENT_3D ( 'NONE', #892, #278, #355 ) ;
#316 = ORIENTED_EDGE ( 'NONE', *, *, #416, .T. ) ;
#317 = EDGE_LOOP ( 'NONE', ( #930, #926, #700, #429 ) ) ;
#318 = FACE_BOUND ( 'NONE', #788, .T. ) ;
#319 = ORIENTED_EDGE ( 'NONE', *, *, #979, .T. ) ;
#320 = LINE ( 'NONE', #33, #937 ) ;
#321 = ORIENTED_EDGE ( 'NONE', *, *, #25, .F. ) ;
#322 = VERTEX_POINT ( 'NONE', #956 ) ;
#323 = DIRECTION ( 'NONE',  ( 0.000000000000000000, -0.000000000000000000, -1.000000000000000000 ) ) ;
#324 = VERTEX_POINT ( 'NONE', #179 ) ;
#325 = CYLINDRICAL_SURFACE ( 'NONE', #717, 0.2000000000000000389 ) ;
#326 = VERTEX_POINT ( 'NONE', #100 ) ;
#327 = VERTEX_POINT ( 'NONE', #13 ) ;
#328 = DIRECTION ( 'NONE',  ( 0.000000000000000000, -1.000000000000000000, 0.000000000000000000 ) ) ;
#329 = VERTEX_POINT ( 'NONE', #270 ) ;
#330 = AXIS2_PLACEMENT_3D ( 'NONE', #725, #501, #174 ) ;
#331 = EDGE_CURVE ( 'NONE', #262, #498, #381, .T. ) ;
#332 = PLANE ( 'NONE',  #867 ) ;
#333 = AXIS2_PLACEMENT_3D ( 'NONE', #263, #793, #486 ) ;
#334 = ORIENTED_EDGE ( 'NONE', *, *, #344, .T. ) ;
#335 = ORIENTED_EDGE ( 'NONE', *, *, #25, .T. ) ;
#336 = FILL_AREA_STYLE_COLOUR ( '', #352 ) ;
#337 = EDGE_LOOP ( 'NONE', ( #695, #732 ) ) ;
#338 = CARTESIAN_POINT ( 'NONE',  ( -4.173228346456692606, -0.4000000000000000222, -0.2952755905511806889 ) ) ;
#339 = EDGE_CURVE ( 'NONE', #498, #854, #711, .T. ) ;
#340 = EDGE_CURVE ( 'NONE', #175, #427, #726, .T. ) ;
#341 = EDGE_LOOP ( 'NONE', ( #631, #248, #734, #794 ) ) ;
#342 = DIRECTION ( 'NONE',  ( 0.000000000000000000, 0.000000000000000000, -1.000000000000000000 ) ) ;
#343 = ADVANCED_FACE ( 'NONE', ( #594 ), #819, .F. ) ;
#344 = EDGE_CURVE ( 'NONE', #646, #122, #579, .T. ) ;
#345 = EDGE_LOOP ( 'NONE', ( #9, #107, #902, #87 ) ) ;
#346 = FACE_OUTER_BOUND ( 'NONE', #410, .T. ) ;
#347 = EDGE_LOOP ( 'NONE', ( #626, #766, #920, #555 ) ) ;
#348 = DIRECTION ( 'NONE',  ( -0.000000000000000000, -1.000000000000000000, -0.000000000000000000 ) ) ;
#349 = ORIENTED_EDGE ( 'NONE', *, *, #30, .T. ) ;
#350 = VECTOR ( 'NONE', #618, 39.37007874015748143 ) ;
#351 = CARTESIAN_POINT ( 'NONE',  ( -6.224999999999999645, -0.4000000000000000777, 1.550000000000002487 ) ) ;
#352 = COLOUR_RGB ( '',0.7921568627450980005, 0.8196078431372548767, 0.9333333333333333481 ) ;
#353 = AXIS2_PLACEMENT_3D ( 'NONE', #546, #169, #678 ) ;
#354 = CARTESIAN_POINT ( 'NONE',  ( -5.825000000000000178, 2.000000000000000000, -1.499999999999997113 ) ) ;
#355 = DIRECTION ( 'NONE',  ( 0.000000000000000000, 0.000000000000000000, 1.000000000000000000 ) ) ;
#356 = CARTESIAN_POINT ( 'NONE',  ( -5.924999999999999822, 2.000000000000000000, 1.499999999999999778 ) ) ;
#357 = CARTESIAN_POINT ( 'NONE',  ( -5.825000000000000178, 2.000000000000000000, 1.499999999999999778 ) ) ;
#358 = CARTESIAN_POINT ( 'NONE',  ( -6.224999999999999645, 2.000000000000000000, -1.749999999999999334 ) ) ;
#359 = VECTOR ( 'NONE', #689, 39.37007874015748143 ) ;
#360 = CARTESIAN_POINT ( 'NONE',  ( 0.5000000000000000000, -0.2000000000000083378, -0.8749999999999997780 ) ) ;
#361 = CIRCLE ( 'NONE', #586, 0.1023622047244093780 ) ;
#362 = AXIS2_PLACEMENT_3D ( 'NONE', #167, #422, #567 ) ;
#363 = DIRECTION ( 'NONE',  ( 0.000000000000000000, 0.000000000000000000, -1.000000000000000000 ) ) ;
#364 = LINE ( 'NONE', #674, #573 ) ;
#365 = EDGE_CURVE ( 'NONE', #326, #385, #894, .T. ) ;
#366 = LINE ( 'NONE', #606, #250 ) ;
#367 = DIRECTION ( 'NONE',  ( 0.000000000000000000, 0.000000000000000000, -1.000000000000000000 ) ) ;
#368 = CARTESIAN_POINT ( 'NONE',  ( 0.5000000000000000000, -0.2000000000000000111, 1.365923996832131609E-16 ) ) ;
#369 = CARTESIAN_POINT ( 'NONE',  ( 0.000000000000000000, -0.4000000000000000222, -1.750000000000000222 ) ) ;
#370 = CARTESIAN_POINT ( 'NONE',  ( 0.5000000000000000000, -0.2000000000000083378, -0.9999999999999998890 ) ) ;
#371 = FACE_OUTER_BOUND ( 'NONE', #101, .T. ) ;
#372 = CIRCLE ( 'NONE', #881, 0.2000000000000000389 ) ;
#373 = DIRECTION ( 'NONE',  ( 0.000000000000000000, 0.000000000000000000, -1.000000000000000000 ) ) ;
#374 = ADVANCED_FACE ( 'NONE', ( #742 ), #590, .T. ) ;
#375 = DIRECTION ( 'NONE',  ( -1.000000000000000000, 0.000000000000000000, -0.000000000000000000 ) ) ;
#376 = CIRCLE ( 'NONE', #641, 0.1220472440944882775 ) ;
#377 = LINE ( 'NONE', #293, #656 ) ;
#378 = AXIS2_PLACEMENT_3D ( 'NONE', #728, #934, #709 ) ;
#379 = CARTESIAN_POINT ( 'NONE',  ( -5.825000000000000178, 2.000000000000000000, -1.399999999999997025 ) ) ;
#380 = EDGE_CURVE ( 'NONE', #322, #188, #736, .T. ) ;
#381 = CIRCLE ( 'NONE', #220, 0.1000000000000000194 ) ;
#382 = DIRECTION ( 'NONE',  ( 1.000000000000000000, -0.000000000000000000, 0.000000000000000000 ) ) ;
#383 = DIRECTION ( 'NONE',  ( -0.000000000000000000, -1.000000000000000000, -0.000000000000000000 ) ) ;
#384 = ORIENTED_EDGE ( 'NONE', *, *, #760, .T. ) ;
#385 = VERTEX_POINT ( 'NONE', #581 ) ;
#386 = CARTESIAN_POINT ( 'NONE',  ( -4.173228346456692606, -0.4000000000000000222, -0.4173228346456689386 ) ) ;
#387 = FACE_OUTER_BOUND ( 'NONE', #228, .T. ) ;
#388 = ORIENTED_EDGE ( 'NONE', *, *, #451, .F. ) ;
#389 = APPLICATION_PROTOCOL_DEFINITION ( 'draft international standard', 'automotive_design', 1998, #676 ) ;
#390 = VERTEX_POINT ( 'NONE', #41 ) ;
#391 = DIRECTION ( 'NONE',  ( 0.000000000000000000, 0.000000000000000000, 1.000000000000000000 ) ) ;
#392 = ORIENTED_EDGE ( 'NONE', *, *, #612, .T. ) ;
#393 = VECTOR ( 'NONE', #987, 39.37007874015748143 ) ;
#394 = LINE ( 'NONE', #795, #253 ) ;
#395 = AXIS2_PLACEMENT_3D ( 'NONE', #820, #428, #891 ) ;
#396 = VECTOR ( 'NONE', #593, 39.37007874015748143 ) ;
#397 = ORIENTED_EDGE ( 'NONE', *, *, #911, .T. ) ;
#398 = ORIENTED_EDGE ( 'NONE', *, *, #86, .T. ) ;
#399 = APPLICATION_CONTEXT ( 'automotive_design' ) ;
#400 = FACE_BOUND ( 'NONE', #28, .T. ) ;
#401 = EDGE_LOOP ( 'NONE', ( #163, #105, #349, #633 ) ) ;
#402 = CARTESIAN_POINT ( 'NONE',  ( -5.825000000000000178, 0.000000000000000000, -1.399999999999997025 ) ) ;
#403 = ORIENTED_EDGE ( 'NONE', *, *, #824, .F. ) ;
#404 = PRODUCT_CONTEXT ( 'NONE', #676, 'mechanical' ) ;
#405 = VERTEX_POINT ( 'NONE', #354 ) ;
#406 = SURFACE_SIDE_STYLE ('',( #187 ) ) ;
#407 = ORIENTED_EDGE ( 'NONE', *, *, #194, .F. ) ;
#408 = DIRECTION ( 'NONE',  ( -1.000000000000000000, -0.000000000000000000, 1.152678478339351656E-16 ) ) ;
#409 = CIRCLE ( 'NONE', #970, 0.1220472440944882775 ) ;
#410 = EDGE_LOOP ( 'NONE', ( #856, #786, #722, #178 ) ) ;
#411 = ORIENTED_EDGE ( 'NONE', *, *, #877, .F. ) ;
#412 = CARTESIAN_POINT ( 'NONE',  ( 0.000000000000000000, 2.000000000000000000, 0.000000000000000000 ) ) ;
#413 = EDGE_CURVE ( 'NONE', #777, #534, #724, .T. ) ;
#414 = ORIENTED_EDGE ( 'NONE', *, *, #585, .T. ) ;
#415 = EDGE_CURVE ( 'NONE', #8, #3, #198, .T. ) ;
#416 = EDGE_CURVE ( 'NONE', #327, #32, #747, .T. ) ;
#417 = FACE_OUTER_BOUND ( 'NONE', #542, .T. ) ;
#418 = AXIS2_PLACEMENT_3D ( 'NONE', #603, #831, #292 ) ;
#419 = ORIENTED_EDGE ( 'NONE', *, *, #331, .T. ) ;
#420 = ORIENTED_EDGE ( 'NONE', *, *, #151, .F. ) ;
#421 = EDGE_CURVE ( 'NONE', #950, #870, #200, .T. ) ;
#422 = DIRECTION ( 'NONE',  ( 1.000000000000000000, 0.000000000000000000, -0.000000000000000000 ) ) ;
#423 = DIRECTION ( 'NONE',  ( 0.000000000000000000, 0.000000000000000000, -1.000000000000000000 ) ) ;
#424 = ADVANCED_FACE ( 'NONE', ( #745 ), #505, .F. ) ;
#425 = VERTEX_POINT ( 'NONE', #508 ) ;
#426 = LINE ( 'NONE', #664, #497 ) ;
#427 = VERTEX_POINT ( 'NONE', #667 ) ;
#428 = DIRECTION ( 'NONE',  ( 1.152678478339351656E-16, -0.000000000000000000, 1.000000000000000000 ) ) ;
#429 = ORIENTED_EDGE ( 'NONE', *, *, #882, .T. ) ;
#430 = CARTESIAN_POINT ( 'NONE',  ( 0.000000000000000000, 2.000000000000000000, 1.499999999999999334 ) ) ;
#431 = AXIS2_PLACEMENT_3D ( 'NONE', #912, #214, #759 ) ;
#432 = CARTESIAN_POINT ( 'NONE',  ( -5.924999999999999822, 0.000000000000000000, 1.499999999999999778 ) ) ;
#433 = PRODUCT ( 'housing_left', 'housing_left', '', ( #404 ) ) ;
#434 = DIRECTION ( 'NONE',  ( 1.000000000000000000, 0.000000000000000000, 0.000000000000000000 ) ) ;
#435 = VECTOR ( 'NONE', #106, 39.37007874015748143 ) ;
#436 = DIRECTION ( 'NONE',  ( -0.000000000000000000, 0.000000000000000000, 1.000000000000000000 ) ) ;
#437 = DIRECTION ( 'NONE',  ( -1.000000000000000000, -0.000000000000000000, -0.000000000000000000 ) ) ;
#438 = CARTESIAN_POINT ( 'NONE',  ( 0.000000000000000000, 2.000000000000000000, -1.499999999999997558 ) ) ;
#439 = ADVANCED_FACE ( 'NONE', ( #440, #206, #124 ), #816, .T. ) ;
#440 = FACE_BOUND ( 'NONE', #39, .T. ) ;
#441 = EDGE_CURVE ( 'NONE', #950, #763, #121, .T. ) ;
#442 = ORIENTED_EDGE ( 'NONE', *, *, #227, .F. ) ;
#443 = DIRECTION ( 'NONE',  ( -1.000000000000000000, -0.000000000000000000, -0.000000000000000000 ) ) ;
#444 = AXIS2_PLACEMENT_3D ( 'NONE', #23, #715, #492 ) ;
#445 = AXIS2_PLACEMENT_3D ( 'NONE', #807, #657, #120 ) ;
#446 = FACE_OUTER_BOUND ( 'NONE', #869, .T. ) ;
#447 = DIRECTION ( 'NONE',  ( 1.000000000000000000, 0.000000000000000000, 0.000000000000000000 ) ) ;
#448 = CARTESIAN_POINT ( 'NONE',  ( -6.224999999999999645, 2.000000000000000000, 1.750000000000002665 ) ) ;
#449 = CARTESIAN_POINT ( 'NONE',  ( 0.5000000000000000000, -0.2000000000000069778, 1.000000000000000222 ) ) ;
#450 = CYLINDRICAL_SURFACE ( 'NONE', #825, 0.1220472440944882775 ) ;
#451 = EDGE_CURVE ( 'NONE', #566, #309, #801, .T. ) ;
#452 = CARTESIAN_POINT ( 'NONE',  ( -6.224999999999999645, 2.000000000000000000, 1.550000000000002487 ) ) ;
#453 = CARTESIAN_POINT ( 'NONE',  ( -5.924999999999999822, 1.750000000000000000, 1.000000000000000222 ) ) ;
#454 = DIRECTION ( 'NONE',  ( 0.000000000000000000, 0.000000000000000000, -1.000000000000000000 ) ) ;
#455 = DIRECTION ( 'NONE',  ( -1.000000000000000000, -0.000000000000000000, -0.000000000000000000 ) ) ;
#456 = CARTESIAN_POINT ( 'NONE',  ( -5.924999999999999822, 1.750000000000000000, -1.102362204724409711 ) ) ;
#457 = AXIS2_PLACEMENT_3D ( 'NONE', #209, #59, #980 ) ;
#458 = DIRECTION ( 'NONE',  ( 1.000000000000000000, -0.000000000000000000, -0.000000000000000000 ) ) ;
#459 = VERTEX_POINT ( 'NONE', #968 ) ;
#460 = FACE_OUTER_BOUND ( 'NONE', #545, .T. ) ;
#461 = ORIENTED_EDGE ( 'NONE', *, *, #690, .T. ) ;
#462 = CARTESIAN_POINT ( 'NONE',  ( -6.424999999999998934, 2.000000000000000000, 1.750000000000002665 ) ) ;
#463 = FACE_BOUND ( 'NONE', #699, .T. ) ;
#464 = ORIENTED_EDGE ( 'NONE', *, *, #365, .T. ) ;
#465 =( CONVERSION_BASED_UNIT ( 'INCH', #491 ) LENGTH_UNIT ( ) NAMED_UNIT ( #670 ) );
#466 = PLANE ( 'NONE',  #444 ) ;
#467 = ORIENTED_EDGE ( 'NONE', *, *, #969, .T. ) ;
#468 = DIRECTION ( 'NONE',  ( -1.000000000000000000, -0.000000000000000000, -0.000000000000000000 ) ) ;
#469 = ORIENTED_EDGE ( 'NONE', *, *, #380, .T. ) ;
#470 = ORIENTED_EDGE ( 'NONE', *, *, #421, .T. ) ;
#471 = LINE ( 'NONE', #701, #511 ) ;
#472 = ORIENTED_EDGE ( 'NONE', *, *, #868, .F. ) ;
#473 = FACE_OUTER_BOUND ( 'NONE', #637, .T. ) ;
#474 = AXIS2_PLACEMENT_3D ( 'NONE', #449, #82, #677 ) ;
#475 = AXIS2_PLACEMENT_3D ( 'NONE', #686, #443, #767 ) ;
#476 = ORIENTED_EDGE ( 'NONE', *, *, #238, .F. ) ;
#477 = ORIENTED_EDGE ( 'NONE', *, *, #969, .F. ) ;
#478 = DIRECTION ( 'NONE',  ( 0.000000000000000000, 0.000000000000000000, -1.000000000000000000 ) ) ;
#479 = ORIENTED_EDGE ( 'NONE', *, *, #634, .T. ) ;
#480 = CARTESIAN_POINT ( 'NONE',  ( 0.000000000000000000, 2.000000000000000000, 1.750000000000001776 ) ) ;
#481 = PRODUCT_RELATED_PRODUCT_CATEGORY ( 'part', '', ( #433 ) ) ;
#482 = EDGE_CURVE ( 'NONE', #32, #327, #523, .T. ) ;
#483 = VERTEX_POINT ( 'NONE', #289 ) ;
#484 = ORIENTED_EDGE ( 'NONE', *, *, #7, .T. ) ;
#485 = EDGE_CURVE ( 'NONE', #537, #252, #282, .T. ) ;
#486 = DIRECTION ( 'NONE',  ( 0.000000000000000000, 0.000000000000000000, -1.000000000000000000 ) ) ;
#487 = VERTEX_POINT ( 'NONE', #456 ) ;
#488 = DIRECTION ( 'NONE',  ( 0.000000000000000000, 0.000000000000000000, -1.000000000000000000 ) ) ;
#489 = ADVANCED_FACE ( 'NONE', ( #446 ), #848, .T. ) ;
#490 = CARTESIAN_POINT ( 'NONE',  ( -4.173228346456692606, 0.000000000000000000, -0.1732283464566923836 ) ) ;
#491 = LENGTH_MEASURE_WITH_UNIT ( LENGTH_MEASURE( 0.02539999999999999897 ), #927 );
#492 = DIRECTION ( 'NONE',  ( 0.000000000000000000, -0.000000000000000000, -1.000000000000000000 ) ) ;
#493 = ORIENTED_EDGE ( 'NONE', *, *, #661, .F. ) ;
#494 = CLOSED_SHELL ( 'NONE', ( #268, #202, #874, #266, #58, #343, #424, #765, #731, #613, #946, #16, #439, #663, #374, #806, #562, #301, #533, #207, #54, #51, #658, #186, #723, #489, #160, #876, #517, #584, #696 ) ) ;
#495 = DIRECTION ( 'NONE',  ( -1.000000000000000000, -0.000000000000000000, -0.000000000000000000 ) ) ;
#496 = VECTOR ( 'NONE', #258, 39.37007874015748143 ) ;
#497 = VECTOR ( 'NONE', #967, 39.37007874015748143 ) ;
#498 = VERTEX_POINT ( 'NONE', #923 ) ;
#499 = ORIENTED_EDGE ( 'NONE', *, *, #53, .F. ) ;
#500 =( NAMED_UNIT ( * ) SI_UNIT ( $, .STERADIAN. ) SOLID_ANGLE_UNIT ( ) );
#501 = DIRECTION ( 'NONE',  ( -1.000000000000000000, -0.000000000000000000, -0.000000000000000000 ) ) ;
#502 = ORIENTED_EDGE ( 'NONE', *, *, #688, .T. ) ;
#503 = ORIENTED_EDGE ( 'NONE', *, *, #824, .T. ) ;
#504 = CYLINDRICAL_SURFACE ( 'NONE', #828, 0.2000000000000000389 ) ;
#505 = CYLINDRICAL_SURFACE ( 'NONE', #314, 0.1023622047244093780 ) ;
#506 = CARTESIAN_POINT ( 'NONE',  ( -5.924999999999999822, 1.750000000000000000, 0.8976377952755908440 ) ) ;
#507 = EDGE_LOOP ( 'NONE', ( #403, #89, #22, #173 ) ) ;
#508 = CARTESIAN_POINT ( 'NONE',  ( 0.000000000000000000, -0.2000000000000083378, -0.8749999999999997780 ) ) ;
#509 = CIRCLE ( 'NONE', #201, 0.1220472440944882775 ) ;
#510 = CIRCLE ( 'NONE', #886, 0.2000000000000000389 ) ;
#511 = VECTOR ( 'NONE', #871, 39.37007874015748143 ) ;
#512 = CARTESIAN_POINT ( 'NONE',  ( -6.424999999999998934, 2.000000000000000000, 1.750000000000002665 ) ) ;
#513 = EDGE_CURVE ( 'NONE', #244, #385, #940, .T. ) ;
#514 = EDGE_CURVE ( 'NONE', #835, #24, #361, .T. ) ;
#515 = CARTESIAN_POINT ( 'NONE',  ( 6.214524036391342321, 1.750000000000000000, 1.000000000000000222 ) ) ;
#516 = EDGE_LOOP ( 'NONE', ( #845, #503 ) ) ;
#517 = ADVANCED_FACE ( 'NONE', ( #750 ), #64, .T. ) ;
#518 = CARTESIAN_POINT ( 'NONE',  ( 0.000000000000000000, -0.2000000000000000111, 0.1250000000000001388 ) ) ;
#519 = DIRECTION ( 'NONE',  ( -1.000000000000000000, -0.000000000000000000, -0.000000000000000000 ) ) ;
#520 = ORIENTED_EDGE ( 'NONE', *, *, #280, .F. ) ;
#521 = VECTOR ( 'NONE', #61, 39.37007874015748143 ) ;
#522 = CYLINDRICAL_SURFACE ( 'NONE', #45, 0.1250000000000000278 ) ;
#523 = CIRCLE ( 'NONE', #457, 0.1220472440944882775 ) ;
#524 = VECTOR ( 'NONE', #223, 39.37007874015748143 ) ;
#525 = CARTESIAN_POINT ( 'NONE',  ( 6.214524036391342321, 1.750000000000000000, 1.102362204724409711 ) ) ;
#526 = CARTESIAN_POINT ( 'NONE',  ( 0.5000000000000000000, -0.2000000000000069778, 1.125000000000000222 ) ) ;
#527 = DIRECTION ( 'NONE',  ( -0.000000000000000000, -0.000000000000000000, 1.000000000000000000 ) ) ;
#528 = DIRECTION ( 'NONE',  ( 1.000000000000000000, -0.000000000000000000, -0.000000000000000000 ) ) ;
#529 = CYLINDRICAL_SURFACE ( 'NONE', #559, 0.1250000000000000278 ) ;
#530 = LINE ( 'NONE', #682, #97 ) ;
#531 = CARTESIAN_POINT ( 'NONE',  ( -6.224999999999999645, -0.4000000000000000777, -1.549999999999999378 ) ) ;
#532 = CARTESIAN_POINT ( 'NONE',  ( 0.000000000000000000, 0.000000000000000000, 0.000000000000000000 ) ) ;
#533 = ADVANCED_FACE ( 'NONE', ( #72 ), #823, .F. ) ;
#534 = VERTEX_POINT ( 'NONE', #139 ) ;
#535 = CARTESIAN_POINT ( 'NONE',  ( 0.000000000000000000, 2.000000000000000000, -1.750000000000000222 ) ) ;
#536 = DIRECTION ( 'NONE',  ( 0.000000000000000000, -1.000000000000000000, 0.000000000000000000 ) ) ;
#537 = VERTEX_POINT ( 'NONE', #985 ) ;
#538 = VECTOR ( 'NONE', #50, 39.37007874015748143 ) ;
#539 = DIRECTION ( 'NONE',  ( 0.000000000000000000, -1.000000000000000000, 0.000000000000000000 ) ) ;
#540 = ORIENTED_EDGE ( 'NONE', *, *, #134, .T. ) ;
#541 = SHAPE_DEFINITION_REPRESENTATION ( #652, #166 ) ;
#542 = EDGE_LOOP ( 'NONE', ( #420, #196, #921, #99 ) ) ;
#543 =( LENGTH_UNIT ( ) NAMED_UNIT ( * ) SI_UNIT ( $, .METRE. ) );
#544 = EDGE_CURVE ( 'NONE', #459, #646, #844, .T. ) ;
#545 = EDGE_LOOP ( 'NONE', ( #564, #469, #966, #117 ) ) ;
#546 = CARTESIAN_POINT ( 'NONE',  ( 0.000000000000000000, -0.2000000000000000111, 1.365923996832131609E-16 ) ) ;
#547 = ORIENTED_EDGE ( 'NONE', *, *, #591, .T. ) ;
#548 = VERTEX_POINT ( 'NONE', #684 ) ;
#549 = DIRECTION ( 'NONE',  ( 0.000000000000000000, 0.000000000000000000, 1.000000000000000000 ) ) ;
#550 = EDGE_LOOP ( 'NONE', ( #148, #719, #240, #384, #81, #800 ) ) ;
#551 = DIRECTION ( 'NONE',  ( 0.000000000000000000, 0.000000000000000000, -1.000000000000000000 ) ) ;
#552 = VERTEX_POINT ( 'NONE', #905 ) ;
#553 = EDGE_LOOP ( 'NONE', ( #256, #791, #769, #236 ) ) ;
#554 = LINE ( 'NONE', #412, #496 ) ;
#555 = ORIENTED_EDGE ( 'NONE', *, *, #103, .T. ) ;
#556 = DIRECTION ( 'NONE',  ( -0.000000000000000000, 1.000000000000000000, -0.000000000000000000 ) ) ;
#557 = EDGE_CURVE ( 'NONE', #24, #175, #215, .T. ) ;
#558 = VECTOR ( 'NONE', #899, 39.37007874015748143 ) ;
#559 = AXIS2_PLACEMENT_3D ( 'NONE', #836, #495, #789 ) ;
#560 = ORIENTED_EDGE ( 'NONE', *, *, #802, .F. ) ;
#561 = VERTEX_POINT ( 'NONE', #300 ) ;
#562 = ADVANCED_FACE ( 'NONE', ( #913, #909, #144 ), #607, .F. ) ;
#563 = DIRECTION ( 'NONE',  ( 0.000000000000000000, 1.000000000000000000, 0.000000000000000000 ) ) ;
#564 = ORIENTED_EDGE ( 'NONE', *, *, #7, .F. ) ;
#565 = LINE ( 'NONE', #873, #636 ) ;
#566 = VERTEX_POINT ( 'NONE', #386 ) ;
#567 = DIRECTION ( 'NONE',  ( 0.000000000000000000, 0.000000000000000000, 1.000000000000000000 ) ) ;
#568 = ORIENTED_EDGE ( 'NONE', *, *, #48, .T. ) ;
#569 = LINE ( 'NONE', #803, #298 ) ;
#570 = FACE_OUTER_BOUND ( 'NONE', #170, .T. ) ;
#571 = DIRECTION ( 'NONE',  ( 0.000000000000000000, -1.000000000000000000, 0.000000000000000000 ) ) ;
#572 = ORIENTED_EDGE ( 'NONE', *, *, #441, .F. ) ;
#573 = VECTOR ( 'NONE', #826, 39.37007874015748143 ) ;
#574 = CARTESIAN_POINT ( 'NONE',  ( -5.825000000000000178, 0.000000000000000000, -1.499999999999997113 ) ) ;
#575 = VECTOR ( 'NONE', #901, 39.37007874015748143 ) ;
#576 = CIRCLE ( 'NONE', #217, 0.1250000000000000278 ) ;
#577 = CYLINDRICAL_SURFACE ( 'NONE', #614, 0.1000000000000000194 ) ;
#578 = VERTEX_POINT ( 'NONE', #230 ) ;
#579 = LINE ( 'NONE', #432, #285 ) ;
#580 = CARTESIAN_POINT ( 'NONE',  ( 0.5000000000000000000, -0.2000000000000000111, 0.1250000000000001388 ) ) ;
#581 = CARTESIAN_POINT ( 'NONE',  ( -4.173228346456692606, -0.4000000000000000222, 0.4173228346456689386 ) ) ;
#582 = DIRECTION ( 'NONE',  ( 0.000000000000000000, 0.000000000000000000, -1.000000000000000000 ) ) ;
#583 = UNCERTAINTY_MEASURE_WITH_UNIT (LENGTH_MEASURE( 1.000000000000000082E-05 ), #465, 'distance_accuracy_value', 'NONE');
#584 = ADVANCED_FACE ( 'NONE', ( #295 ), #694, .T. ) ;
#585 = EDGE_CURVE ( 'NONE', #12, #847, #671, .T. ) ;
#586 = AXIS2_PLACEMENT_3D ( 'NONE', #453, #375, #367 ) ;
#587 = EDGE_CURVE ( 'NONE', #548, #326, #376, .T. ) ;
#588 = DIRECTION ( 'NONE',  ( 0.000000000000000000, 0.000000000000000000, -1.000000000000000000 ) ) ;
#589 = EDGE_CURVE ( 'NONE', #561, #8, #510, .T. ) ;
#590 = PLANE ( 'NONE',  #395 ) ;
#591 = EDGE_CURVE ( 'NONE', #870, #3, #762, .T. ) ;
#592 = LINE ( 'NONE', #898, #521 ) ;
#593 = DIRECTION ( 'NONE',  ( -1.000000000000000000, -0.000000000000000000, -0.000000000000000000 ) ) ;
#594 = FACE_OUTER_BOUND ( 'NONE', #932, .T. ) ;
#595 = ORIENTED_EDGE ( 'NONE', *, *, #514, .F. ) ;
#596 = ORIENTED_EDGE ( 'NONE', *, *, #544, .F. ) ;
#597 = DIRECTION ( 'NONE',  ( 1.000000000000000000, 0.000000000000000000, 0.000000000000000000 ) ) ;
#598 = CARTESIAN_POINT ( 'NONE',  ( -4.173228346456692606, -0.4000000000000000222, 0.2952755905511806889 ) ) ;
#599 = AXIS2_PLACEMENT_3D ( 'NONE', #291, #597, #903 ) ;
#600 = LINE ( 'NONE', #526, #830 ) ;
#601 = CARTESIAN_POINT ( 'NONE',  ( -6.424999999999998934, 2.000000000000000000, 1.750000000000002665 ) ) ;
#602 = CIRCLE ( 'NONE', #362, 0.1250000000000000278 ) ;
#603 = CARTESIAN_POINT ( 'NONE',  ( -5.825000000000000178, 0.000000000000000000, 1.399999999999999911 ) ) ;
#604 = CIRCLE ( 'NONE', #176, 0.1250000000000000278 ) ;
#605 = DIRECTION ( 'NONE',  ( 0.000000000000000000, -1.000000000000000000, 0.000000000000000000 ) ) ;
#606 = CARTESIAN_POINT ( 'NONE',  ( -4.173228346456692606, 2.000000000000000000, -0.1732283464566924114 ) ) ;
#607 = PLANE ( 'NONE',  #115 ) ;
#608 = CARTESIAN_POINT ( 'NONE',  ( 0.5000000000000000000, -0.2000000000000083378, -0.9999999999999998890 ) ) ;
#609 = FACE_OUTER_BOUND ( 'NONE', #317, .T. ) ;
#610 = CARTESIAN_POINT ( 'NONE',  ( 0.5000000000000000000, -0.2000000000000083378, -0.9999999999999998890 ) ) ;
#611 = DIRECTION ( 'NONE',  ( 1.000000000000000000, 0.000000000000000000, 0.000000000000000000 ) ) ;
#612 = EDGE_CURVE ( 'NONE', #329, #137, #233, .T. ) ;
#613 = ADVANCED_FACE ( 'NONE', ( #774 ), #466, .F. ) ;
#614 = AXIS2_PLACEMENT_3D ( 'NONE', #42, #669, #974 ) ;
#615 = ORIENTED_EDGE ( 'NONE', *, *, #843, .F. ) ;
#616 = CARTESIAN_POINT ( 'NONE',  ( 0.000000000000000000, 0.000000000000000000, 0.000000000000000000 ) ) ;
#617 = VERTEX_POINT ( 'NONE', #787 ) ;
#618 = DIRECTION ( 'NONE',  ( -1.000000000000000000, -0.000000000000000000, -0.000000000000000000 ) ) ;
#619 = CIRCLE ( 'NONE', #333, 0.1023622047244093780 ) ;
#620 = EDGE_LOOP ( 'NONE', ( #407, #560 ) ) ;
#621 = MECHANICAL_DESIGN_GEOMETRIC_PRESENTATION_REPRESENTATION (  '', ( #943 ), #748 ) ;
#622 = DIRECTION ( 'NONE',  ( 0.000000000000000000, -0.000000000000000000, -1.000000000000000000 ) ) ;
#623 = EDGE_CURVE ( 'NONE', #870, #483, #554, .T. ) ;
#624 = ORIENTED_EDGE ( 'NONE', *, *, #945, .T. ) ;
#625 = UNCERTAINTY_MEASURE_WITH_UNIT (LENGTH_MEASURE( 1.000000000000000082E-05 ), #197, 'distance_accuracy_value', 'NONE');
#626 = ORIENTED_EDGE ( 'NONE', *, *, #205, .F. ) ;
#627 = FACE_OUTER_BOUND ( 'NONE', #710, .T. ) ;
#628 = ORIENTED_EDGE ( 'NONE', *, *, #482, .F. ) ;
#629 = DIRECTION ( 'NONE',  ( 1.000000000000000000, 0.000000000000000000, -1.275571047625337126E-16 ) ) ;
#630 = ORIENTED_EDGE ( 'NONE', *, *, #234, .T. ) ;
#631 = ORIENTED_EDGE ( 'NONE', *, *, #911, .F. ) ;
#632 = FACE_OUTER_BOUND ( 'NONE', #550, .T. ) ;
#633 = ORIENTED_EDGE ( 'NONE', *, *, #451, .T. ) ;
#634 = EDGE_CURVE ( 'NONE', #487, #981, #619, .T. ) ;
#635 = CARTESIAN_POINT ( 'NONE',  ( -5.924999999999999822, 2.000000000000000000, -1.399999999999997025 ) ) ;
#636 = VECTOR ( 'NONE', #860, 39.37007874015748143 ) ;
#637 = EDGE_LOOP ( 'NONE', ( #889, #158, #939, #615 ) ) ;
#638 = ORIENTED_EDGE ( 'NONE', *, *, #413, .F. ) ;
#639 = CARTESIAN_POINT ( 'NONE',  ( -6.424999999999998934, -0.4000000000000000222, -1.749999999999999334 ) ) ;
#640 = ORIENTED_EDGE ( 'NONE', *, *, #205, .T. ) ;
#641 = AXIS2_PLACEMENT_3D ( 'NONE', #147, #224, #687 ) ;
#642 = DIRECTION ( 'NONE',  ( 1.000000000000000000, 0.000000000000000000, 0.000000000000000000 ) ) ;
#643 = ORIENTED_EDGE ( 'NONE', *, *, #421, .F. ) ;
#644 = ORIENTED_EDGE ( 'NONE', *, *, #557, .T. ) ;
#645 = SURFACE_STYLE_USAGE ( .BOTH. , #406 ) ;
#646 = VERTEX_POINT ( 'NONE', #245 ) ;
#647 = CARTESIAN_POINT ( 'NONE',  ( 0.5000000000000000000, -0.2000000000000083378, -1.124999999999999778 ) ) ;
#648 = ORIENTED_EDGE ( 'NONE', *, *, #303, .F. ) ;
#649 = CYLINDRICAL_SURFACE ( 'NONE', #330, 0.1250000000000000278 ) ;
#650 = ORIENTED_EDGE ( 'NONE', *, *, #306, .T. ) ;
#651 = LINE ( 'NONE', #959, #62 ) ;
#652 = PRODUCT_DEFINITION_SHAPE ( 'NONE', 'NONE',  #952 ) ;
#653 = ORIENTED_EDGE ( 'NONE', *, *, #868, .T. ) ;
#654 = CARTESIAN_POINT ( 'NONE',  ( 0.5000000000000000000, -0.2000000000000000111, -0.1249999999999998612 ) ) ;
#655 = AXIS2_PLACEMENT_3D ( 'NONE', #598, #998, #310 ) ;
#656 = VECTOR ( 'NONE', #918, 39.37007874015748143 ) ;
#657 = DIRECTION ( 'NONE',  ( -1.000000000000000000, -0.000000000000000000, -0.000000000000000000 ) ) ;
#658 = ADVANCED_FACE ( 'NONE', ( #400, #863, #632 ), #941, .T. ) ;
#659 = CARTESIAN_POINT ( 'NONE',  ( -5.825000000000000178, 2.000000000000000000, 1.399999999999999911 ) ) ;
#660 = LINE ( 'NONE', #126, #396 ) ;
#661 = EDGE_CURVE ( 'NONE', #8, #950, #779, .T. ) ;
#662 = DIRECTION ( 'NONE',  ( 0.000000000000000000, -1.000000000000000000, 0.000000000000000000 ) ) ;
#663 = ADVANCED_FACE ( 'NONE', ( #798 ), #90, .F. ) ;
#664 = CARTESIAN_POINT ( 'NONE',  ( -4.173228346456692606, 2.000000000000000000, 0.1732283464566924114 ) ) ;
#665 = PRODUCT_DEFINITION_FORMATION_WITH_SPECIFIED_SOURCE ( 'ANY', '', #433, .NOT_KNOWN. ) ;
#666 = EDGE_CURVE ( 'NONE', #810, #425, #193, .T. ) ;
#667 = CARTESIAN_POINT ( 'NONE',  ( -6.424999999999998934, 1.750000000000000000, 0.8976377952755908440 ) ) ;
#668 = AXIS2_PLACEMENT_3D ( 'NONE', #850, #383, #454 ) ;
#669 = DIRECTION ( 'NONE',  ( 0.000000000000000000, 1.000000000000000000, 0.000000000000000000 ) ) ;
#670 = DIMENSIONAL_EXPONENTS ( 1.000000000000000000, 0.000000000000000000, 0.000000000000000000, 0.000000000000000000, 0.000000000000000000, 0.000000000000000000, 0.000000000000000000 ) ;
#671 = CIRCLE ( 'NONE', #919, 0.1023622047244093780 ) ;
#672 = DIRECTION ( 'NONE',  ( 0.000000000000000000, 0.000000000000000000, 1.000000000000000000 ) ) ;
#673 = CARTESIAN_POINT ( 'NONE',  ( -4.173228346456692606, 0.000000000000000000, -0.2952755905511806889 ) ) ;
#674 = CARTESIAN_POINT ( 'NONE',  ( -4.173228346456692606, 2.000000000000000000, -0.4173228346456689386 ) ) ;
#675 = DIRECTION ( 'NONE',  ( -1.152678478339351656E-16, 0.000000000000000000, -1.000000000000000000 ) ) ;
#676 = APPLICATION_CONTEXT ( 'automotive_design' ) ;
#677 = DIRECTION ( 'NONE',  ( 0.000000000000000000, 0.000000000000000000, -1.000000000000000000 ) ) ;
#678 = DIRECTION ( 'NONE',  ( 0.000000000000000000, 0.000000000000000000, -1.000000000000000000 ) ) ;
#679 = FACE_OUTER_BOUND ( 'NONE', #95, .T. ) ;
#680 = DIRECTION ( 'NONE',  ( 0.000000000000000000, 0.000000000000000000, 1.000000000000000000 ) ) ;
#681 = DIRECTION ( 'NONE',  ( 1.000000000000000000, 0.000000000000000000, 0.000000000000000000 ) ) ;
#682 = CARTESIAN_POINT ( 'NONE',  ( -5.924999999999999822, 0.000000000000000000, 1.499999999999999778 ) ) ;
#683 = CIRCLE ( 'NONE', #975, 0.1220472440944882775 ) ;
#684 = CARTESIAN_POINT ( 'NONE',  ( -4.173228346456692606, 0.000000000000000000, 0.1732283464566924114 ) ) ;
#685 = CARTESIAN_POINT ( 'NONE',  ( -5.825000000000000178, 0.000000000000000000, -1.499999999999997113 ) ) ;
#686 = CARTESIAN_POINT ( 'NONE',  ( 0.5000000000000000000, -0.2000000000000000111, 1.365923996832131609E-16 ) ) ;
#687 = DIRECTION ( 'NONE',  ( 0.000000000000000000, 0.000000000000000000, -1.000000000000000000 ) ) ;
#688 = EDGE_CURVE ( 'NONE', #487, #12, #17, .T. ) ;
#689 = DIRECTION ( 'NONE',  ( -0.000000000000000000, -1.000000000000000000, 0.000000000000000000 ) ) ;
#690 = EDGE_CURVE ( 'NONE', #38, #578, #471, .T. ) ;
#691 = ORIENTED_EDGE ( 'NONE', *, *, #513, .F. ) ;
#692 = EDGE_CURVE ( 'NONE', #425, #810, #602, .T. ) ;
#693 = VERTEX_POINT ( 'NONE', #858 ) ;
#694 = CYLINDRICAL_SURFACE ( 'NONE', #827, 0.1250000000000000278 ) ;
#695 = ORIENTED_EDGE ( 'NONE', *, *, #340, .T. ) ;
#696 = ADVANCED_FACE ( 'NONE', ( #627 ), #853, .F. ) ;
#697 = FACE_OUTER_BOUND ( 'NONE', #401, .T. ) ;
#698 = CIRCLE ( 'NONE', #113, 0.1250000000000000000 ) ;
#699 = EDGE_LOOP ( 'NONE', ( #316, #714 ) ) ;
#700 = ORIENTED_EDGE ( 'NONE', *, *, #344, .F. ) ;
#701 = CARTESIAN_POINT ( 'NONE',  ( -6.424999999999998934, 2.000000000000000000, 1.550000000000002487 ) ) ;
#702 = AXIS2_PLACEMENT_3D ( 'NONE', #753, #519, #680 ) ;
#703 = ORIENTED_EDGE ( 'NONE', *, *, #799, .T. ) ;
#704 = AXIS2_PLACEMENT_3D ( 'NONE', #182, #177, #478 ) ;
#705 = DIRECTION ( 'NONE',  ( -1.000000000000000000, 0.000000000000000000, -0.000000000000000000 ) ) ;
#706 = ORIENTED_EDGE ( 'NONE', *, *, #340, .F. ) ;
#707 =( NAMED_UNIT ( * ) SI_UNIT ( $, .STERADIAN. ) SOLID_ANGLE_UNIT ( ) );
#708 = EDGE_LOOP ( 'NONE', ( #924, #775, #851, #712 ) ) ;
#709 = DIRECTION ( 'NONE',  ( 0.000000000000000000, 0.000000000000000000, 1.000000000000000000 ) ) ;
#710 = EDGE_LOOP ( 'NONE', ( #392, #781 ) ) ;
#711 = LINE ( 'NONE', #635, #785 ) ;
#712 = ORIENTED_EDGE ( 'NONE', *, *, #84, .F. ) ;
#713 = DIRECTION ( 'NONE',  ( 0.000000000000000000, 0.000000000000000000, 1.000000000000000000 ) ) ;
#714 = ORIENTED_EDGE ( 'NONE', *, *, #482, .T. ) ;
#715 = DIRECTION ( 'NONE',  ( 0.000000000000000000, -1.000000000000000000, 0.000000000000000000 ) ) ;
#716 = EDGE_LOOP ( 'NONE', ( #595, #857, #706, #119 ) ) ;
#717 = AXIS2_PLACEMENT_3D ( 'NONE', #118, #887, #423 ) ;
#718 = CYLINDRICAL_SURFACE ( 'NONE', #814, 0.1220472440944882775 ) ;
#719 = ORIENTED_EDGE ( 'NONE', *, *, #441, .T. ) ;
#720 = ORIENTED_EDGE ( 'NONE', *, *, #544, .T. ) ;
#721 = CARTESIAN_POINT ( 'NONE',  ( 0.000000000000000000, -0.4000000000000000222, 0.000000000000000000 ) ) ;
#722 = ORIENTED_EDGE ( 'NONE', *, *, #132, .T. ) ;
#723 = ADVANCED_FACE ( 'NONE', ( #11, #318, #251, #878 ), #31, .T. ) ;
#724 = CIRCLE ( 'NONE', #140, 0.1000000000000000194 ) ;
#725 = CARTESIAN_POINT ( 'NONE',  ( 0.5000000000000000000, -0.2000000000000083378, -0.9999999999999998890 ) ) ;
#726 = CIRCLE ( 'NONE', #994, 0.1023622047244093780 ) ;
#727 = EDGE_LOOP ( 'NONE', ( #127, #308 ) ) ;
#728 = CARTESIAN_POINT ( 'NONE',  ( 0.5000000000000000000, -0.2000000000000083378, -0.9999999999999998890 ) ) ;
#729 = CARTESIAN_POINT ( 'NONE',  ( -5.924999999999999822, 1.750000000000000000, 1.000000000000000222 ) ) ;
#730 = MANIFOLD_SOLID_BREP ( 'Boss-Extrude1', #494 ) ;
#731 = ADVANCED_FACE ( 'NONE', ( #346 ), #36, .F. ) ;
#732 = ORIENTED_EDGE ( 'NONE', *, *, #53, .T. ) ;
#733 = CARTESIAN_POINT ( 'NONE',  ( -6.424999999999998934, 1.750000000000000000, 1.000000000000000222 ) ) ;
#734 = ORIENTED_EDGE ( 'NONE', *, *, #331, .F. ) ;
#735 = DIRECTION ( 'NONE',  ( 1.000000000000000000, 0.000000000000000000, 0.000000000000000000 ) ) ;
#736 = LINE ( 'NONE', #654, #907 ) ;
#737 = AXIS2_PLACEMENT_3D ( 'NONE', #532, #605, #622 ) ;
#738 = CARTESIAN_POINT ( 'NONE',  ( 0.000000000000000000, -0.2000000000000000111, 1.365923996832131609E-16 ) ) ;
#739 = EDGE_CURVE ( 'NONE', #252, #763, #43, .T. ) ;
#740 = CARTESIAN_POINT ( 'NONE',  ( -4.173228346456692606, -0.4000000000000000222, -0.2952755905511806889 ) ) ;
#741 = DIRECTION ( 'NONE',  ( 0.000000000000000000, 0.000000000000000000, -1.000000000000000000 ) ) ;
#742 = FACE_OUTER_BOUND ( 'NONE', #347, .T. ) ;
#743 = CARTESIAN_POINT ( 'NONE',  ( 0.000000000000000000, 2.000000000000000000, 1.750000000000001776 ) ) ;
#744 = CIRCLE ( 'NONE', #125, 0.1000000000000000194 ) ;
#745 = FACE_OUTER_BOUND ( 'NONE', #716, .T. ) ;
#746 = CARTESIAN_POINT ( 'NONE',  ( -6.224999999999999645, 2.000000000000000000, -1.749999999999999334 ) ) ;
#747 = CIRCLE ( 'NONE', #60, 0.1220472440944882775 ) ;
#748 =( GEOMETRIC_REPRESENTATION_CONTEXT ( 3 ) GLOBAL_UNCERTAINTY_ASSIGNED_CONTEXT ( ( #625 ) ) GLOBAL_UNIT_ASSIGNED_CONTEXT ( ( #197, #56, #500 ) ) REPRESENTATION_CONTEXT ( 'NONE', 'WORKASPACE' ) );
#749 = DIRECTION ( 'NONE',  ( -0.000000000000000000, 1.000000000000000000, -0.000000000000000000 ) ) ;
#750 = FACE_OUTER_BOUND ( 'NONE', #516, .T. ) ;
#751 = ORIENTED_EDGE ( 'NONE', *, *, #882, .F. ) ;
#752 = CARTESIAN_POINT ( 'NONE',  ( 0.5000000000000000000, -0.2000000000000069778, 1.000000000000000222 ) ) ;
#753 = CARTESIAN_POINT ( 'NONE',  ( 0.5000000000000000000, -0.2000000000000000111, 1.365923996832131609E-16 ) ) ;
#754 = DIRECTION ( 'NONE',  ( 0.000000000000000000, 0.000000000000000000, 1.000000000000000000 ) ) ;
#755 = DIRECTION ( 'NONE',  ( -0.000000000000000000, 1.000000000000000000, -0.000000000000000000 ) ) ;
#756 = DIRECTION ( 'NONE',  ( 1.000000000000000000, 0.000000000000000000, -1.275571047625337126E-16 ) ) ;
#757 = LINE ( 'NONE', #232, #393 ) ;
#758 = AXIS2_PLACEMENT_3D ( 'NONE', #721, #328, #323 ) ;
#759 = DIRECTION ( 'NONE',  ( 0.000000000000000000, 0.000000000000000000, -1.000000000000000000 ) ) ;
#760 = EDGE_CURVE ( 'NONE', #693, #38, #804, .T. ) ;
#761 = EDGE_CURVE ( 'NONE', #385, #244, #683, .T. ) ;
#762 = LINE ( 'NONE', #76, #74 ) ;
#763 = VERTEX_POINT ( 'NONE', #192 ) ;
#764 = CARTESIAN_POINT ( 'NONE',  ( -6.424999999999998934, 1.750000000000000000, 1.000000000000000222 ) ) ;
#765 = ADVANCED_FACE ( 'NONE', ( #890 ), #811, .F. ) ;
#766 = ORIENTED_EDGE ( 'NONE', *, *, #837, .T. ) ;
#767 = DIRECTION ( 'NONE',  ( 0.000000000000000000, 0.000000000000000000, 1.000000000000000000 ) ) ;
#768 = EDGE_CURVE ( 'NONE', #329, #425, #964, .T. ) ;
#769 = ORIENTED_EDGE ( 'NONE', *, *, #792, .T. ) ;
#770 = DIRECTION ( 'NONE',  ( -1.000000000000000000, 0.000000000000000000, 1.275571047625337126E-16 ) ) ;
#771 = DIRECTION ( 'NONE',  ( 0.000000000000000000, 0.000000000000000000, -1.000000000000000000 ) ) ;
#772 = ORIENTED_EDGE ( 'NONE', *, *, #634, .F. ) ;
#773 = ORIENTED_EDGE ( 'NONE', *, *, #415, .F. ) ;
#774 = FACE_OUTER_BOUND ( 'NONE', #180, .T. ) ;
#775 = ORIENTED_EDGE ( 'NONE', *, *, #485, .F. ) ;
#776 = CARTESIAN_POINT ( 'NONE',  ( 0.5000000000000000000, -0.2000000000000083378, -1.124999999999999778 ) ) ;
#777 = VERTEX_POINT ( 'NONE', #357 ) ;
#778 = VERTEX_POINT ( 'NONE', #580 ) ;
#779 = LINE ( 'NONE', #639, #191 ) ;
#780 = VECTOR ( 'NONE', #436, 39.37007874015748143 ) ;
#781 = ORIENTED_EDGE ( 'NONE', *, *, #151, .T. ) ;
#782 = CIRCLE ( 'NONE', #297, 0.2000000000000000389 ) ;
#783 = DIRECTION ( 'NONE',  ( 0.000000000000000000, 0.000000000000000000, -1.000000000000000000 ) ) ;
#784 = AXIS2_PLACEMENT_3D ( 'NONE', #4, #611, #296 ) ;
#785 = VECTOR ( 'NONE', #556, 39.37007874015748143 ) ;
#786 = ORIENTED_EDGE ( 'NONE', *, *, #977, .F. ) ;
#787 = CARTESIAN_POINT ( 'NONE',  ( 0.000000000000000000, 2.000000000000000000, 1.499999999999999334 ) ) ;
#788 = EDGE_LOOP ( 'NONE', ( #879, #796 ) ) ;
#789 = DIRECTION ( 'NONE',  ( 0.000000000000000000, 0.000000000000000000, 1.000000000000000000 ) ) ;
#790 = ORIENTED_EDGE ( 'NONE', *, *, #837, .F. ) ;
#791 = ORIENTED_EDGE ( 'NONE', *, *, #587, .F. ) ;
#792 = EDGE_CURVE ( 'NONE', #548, #244, #426, .T. ) ;
#793 = DIRECTION ( 'NONE',  ( -1.000000000000000000, 0.000000000000000000, -0.000000000000000000 ) ) ;
#794 = ORIENTED_EDGE ( 'NONE', *, *, #103, .F. ) ;
#795 = CARTESIAN_POINT ( 'NONE',  ( -5.924999999999999822, 2.000000000000000000, -1.499999999999997113 ) ) ;
#796 = ORIENTED_EDGE ( 'NONE', *, *, #164, .F. ) ;
#797 = AXIS2_PLACEMENT_3D ( 'NONE', #114, #154, #145 ) ;
#798 = FACE_OUTER_BOUND ( 'NONE', #341, .T. ) ;
#799 = EDGE_CURVE ( 'NONE', #948, #122, #651, .T. ) ;
#800 = ORIENTED_EDGE ( 'NONE', *, *, #589, .T. ) ;
#801 = CIRCLE ( 'NONE', #895, 0.1220472440944882775 ) ;
#802 = EDGE_CURVE ( 'NONE', #188, #938, #274, .T. ) ;
#803 = CARTESIAN_POINT ( 'NONE',  ( -5.924999999999999822, 0.000000000000000000, -1.499999999999997113 ) ) ;
#804 = CIRCLE ( 'NONE', #922, 0.2000000000000000389 ) ;
#805 = ORIENTED_EDGE ( 'NONE', *, *, #194, .T. ) ;
#806 = ADVANCED_FACE ( 'NONE', ( #199 ), #504, .T. ) ;
#807 = CARTESIAN_POINT ( 'NONE',  ( 6.214524036391342321, 1.750000000000000000, 1.000000000000000222 ) ) ;
#808 = DIRECTION ( 'NONE',  ( 1.000000000000000000, -0.000000000000000000, -0.000000000000000000 ) ) ;
#809 = EDGE_CURVE ( 'NONE', #617, #122, #123, .T. ) ;
#810 = VERTEX_POINT ( 'NONE', #47 ) ;
#811 = CYLINDRICAL_SURFACE ( 'NONE', #445, 0.1023622047244093780 ) ;
#812 = DIRECTION ( 'NONE',  ( -1.000000000000000000, -0.000000000000000000, -0.000000000000000000 ) ) ;
#813 = AXIS2_PLACEMENT_3D ( 'NONE', #989, #294, #916 ) ;
#814 = AXIS2_PLACEMENT_3D ( 'NONE', #112, #19, #259 ) ;
#815 = DIRECTION ( 'NONE',  ( -0.000000000000000000, 1.000000000000000000, 0.000000000000000000 ) ) ;
#816 = PLANE ( 'NONE',  #29 ) ;
#817 = AXIS2_PLACEMENT_3D ( 'NONE', #239, #563, #391 ) ;
#818 = CARTESIAN_POINT ( 'NONE',  ( -4.173228346456692606, -0.4000000000000000222, 0.2952755905511806889 ) ) ;
#819 = CYLINDRICAL_SURFACE ( 'NONE', #6, 0.1023622047244093780 ) ;
#820 = CARTESIAN_POINT ( 'NONE',  ( -5.924999999999999822, 2.000000000000000000, -1.499999999999997113 ) ) ;
#821 = ORIENTED_EDGE ( 'NONE', *, *, #976, .T. ) ;
#822 = PLANE ( 'NONE',  #2 ) ;
#823 = PLANE ( 'NONE',  #272 ) ;
#824 = EDGE_CURVE ( 'NONE', #552, #324, #576, .T. ) ;
#825 = AXIS2_PLACEMENT_3D ( 'NONE', #842, #996, #771 ) ;
#826 = DIRECTION ( 'NONE',  ( -0.000000000000000000, -1.000000000000000000, -0.000000000000000000 ) ) ;
#827 = AXIS2_PLACEMENT_3D ( 'NONE', #370, #990, #1 ) ;
#828 = AXIS2_PLACEMENT_3D ( 'NONE', #971, #281, #269 ) ;
#829 = CARTESIAN_POINT ( 'NONE',  ( -5.825000000000000178, 2.000000000000000000, 1.499999999999999778 ) ) ;
#830 = VECTOR ( 'NONE', #832, 39.37007874015748143 ) ;
#831 = DIRECTION ( 'NONE',  ( -0.000000000000000000, 1.000000000000000000, -0.000000000000000000 ) ) ;
#832 = DIRECTION ( 'NONE',  ( -1.000000000000000000, -0.000000000000000000, -0.000000000000000000 ) ) ;
#833 = CARTESIAN_POINT ( 'NONE',  ( -5.924999999999999822, 1.750000000000000000, -0.8976377952755908440 ) ) ;
#834 = DIRECTION ( 'NONE',  ( 0.000000000000000000, 0.000000000000000000, -1.000000000000000000 ) ) ;
#835 = VERTEX_POINT ( 'NONE', #506 ) ;
#836 = CARTESIAN_POINT ( 'NONE',  ( 0.5000000000000000000, -0.2000000000000069778, 1.000000000000000222 ) ) ;
#837 = EDGE_CURVE ( 'NONE', #948, #483, #896, .T. ) ;
#838 = EDGE_CURVE ( 'NONE', #835, #427, #660, .T. ) ;
#839 = AXIS2_PLACEMENT_3D ( 'NONE', #729, #705, #783 ) ;
#840 = LINE ( 'NONE', #448, #524 ) ;
#841 = CARTESIAN_POINT ( 'NONE',  ( -6.424999999999998934, 2.000000000000000000, 1.750000000000002665 ) ) ;
#842 = CARTESIAN_POINT ( 'NONE',  ( -4.173228346456692606, 2.000000000000000000, -0.2952755905511806889 ) ) ;
#843 = EDGE_CURVE ( 'NONE', #537, #693, #840, .T. ) ;
#844 = CIRCLE ( 'NONE', #418, 0.1000000000000000194 ) ;
#845 = ORIENTED_EDGE ( 'NONE', *, *, #227, .T. ) ;
#846 = CYLINDRICAL_SURFACE ( 'NONE', #475, 0.1250000000000000000 ) ;
#847 = VERTEX_POINT ( 'NONE', #75 ) ;
#848 = CYLINDRICAL_SURFACE ( 'NONE', #702, 0.1250000000000000000 ) ;
#849 = VERTEX_POINT ( 'NONE', #152 ) ;
#850 = CARTESIAN_POINT ( 'NONE',  ( -4.173228346456692606, 2.000000000000000000, -0.2952755905511806889 ) ) ;
#851 = ORIENTED_EDGE ( 'NONE', *, *, #843, .T. ) ;
#852 = ORIENTED_EDGE ( 'NONE', *, *, #514, .T. ) ;
#853 = PLANE ( 'NONE',  #378 ) ;
#854 = VERTEX_POINT ( 'NONE', #143 ) ;
#855 = FACE_OUTER_BOUND ( 'NONE', #915, .T. ) ;
#856 = ORIENTED_EDGE ( 'NONE', *, *, #688, .F. ) ;
#857 = ORIENTED_EDGE ( 'NONE', *, *, #838, .T. ) ;
#858 = CARTESIAN_POINT ( 'NONE',  ( -6.225000000000000533, -0.4000000000000000222, 1.750000000000002665 ) ) ;
#859 = CIRCLE ( 'NONE', #431, 0.1023622047244093780 ) ;
#860 = DIRECTION ( 'NONE',  ( -1.000000000000000000, -0.000000000000000000, -0.000000000000000000 ) ) ;
#861 = ORIENTED_EDGE ( 'NONE', *, *, #799, .F. ) ;
#862 = ORIENTED_EDGE ( 'NONE', *, *, #485, .T. ) ;
#863 = FACE_BOUND ( 'NONE', #18, .T. ) ;
#864 = ORIENTED_EDGE ( 'NONE', *, *, #792, .F. ) ;
#865 = VECTOR ( 'NONE', #146, 39.37007874015748143 ) ;
#866 = DIRECTION ( 'NONE',  ( 0.000000000000000000, -1.000000000000000000, 0.000000000000000000 ) ) ;
#867 = AXIS2_PLACEMENT_3D ( 'NONE', #184, #936, #629 ) ;
#868 = EDGE_CURVE ( 'NONE', #498, #459, #530, .T. ) ;
#869 = EDGE_LOOP ( 'NONE', ( #246, #477, #630, #805 ) ) ;
#870 = VERTEX_POINT ( 'NONE', #535 ) ;
#871 = DIRECTION ( 'NONE',  ( 0.000000000000000000, 1.000000000000000000, -0.000000000000000000 ) ) ;
#872 = ORIENTED_EDGE ( 'NONE', *, *, #306, .F. ) ;
#873 = CARTESIAN_POINT ( 'NONE',  ( 0.5000000000000000000, -0.2000000000000000111, 0.1250000000000001388 ) ) ;
#874 = ADVANCED_FACE ( 'NONE', ( #460 ), #846, .T. ) ;
#875 = VERTEX_POINT ( 'NONE', #80 ) ;
#876 = ADVANCED_FACE ( 'NONE', ( #679 ), #522, .T. ) ;
#877 = EDGE_CURVE ( 'NONE', #3, #849, #782, .T. ) ;
#878 = FACE_OUTER_BOUND ( 'NONE', #27, .T. ) ;
#879 = ORIENTED_EDGE ( 'NONE', *, *, #48, .F. ) ;
#880 = CARTESIAN_POINT ( 'NONE',  ( -4.173228346456692606, -0.4000000000000000222, 0.1732283464566924114 ) ) ;
#881 = AXIS2_PLACEMENT_3D ( 'NONE', #452, #755, #70 ) ;
#882 = EDGE_CURVE ( 'NONE', #646, #777, #993, .T. ) ;
#883 = ORIENTED_EDGE ( 'NONE', *, *, #761, .T. ) ;
#884 = VECTOR ( 'NONE', #539, 39.37007874015748143 ) ;
#885 = DIRECTION ( 'NONE',  ( 0.000000000000000000, -1.000000000000000000, 0.000000000000000000 ) ) ;
#886 = AXIS2_PLACEMENT_3D ( 'NONE', #531, #536, #153 ) ;
#887 = DIRECTION ( 'NONE',  ( 0.000000000000000000, -1.000000000000000000, 0.000000000000000000 ) ) ;
#888 = PRESENTATION_LAYER_ASSIGNMENT (  '', '', ( #943 ) ) ;
#889 = ORIENTED_EDGE ( 'NONE', *, *, #982, .F. ) ;
#890 = FACE_OUTER_BOUND ( 'NONE', #168, .T. ) ;
#891 = DIRECTION ( 'NONE',  ( 1.000000000000000000, 0.000000000000000000, -1.152678478339351656E-16 ) ) ;
#892 = CARTESIAN_POINT ( 'NONE',  ( 6.214524036391342321, 1.750000000000000000, -1.000000000000000222 ) ) ;
#893 = CARTESIAN_POINT ( 'NONE',  ( -4.173228346456692606, 2.000000000000000000, 0.4173228346456689386 ) ) ;
#894 = LINE ( 'NONE', #893, #155 ) ;
#895 = AXIS2_PLACEMENT_3D ( 'NONE', #740, #662, #49 ) ;
#896 = LINE ( 'NONE', #438, #142 ) ;
#897 = CARTESIAN_POINT ( 'NONE',  ( 0.000000000000000000, -0.4000000000000000222, 0.000000000000000000 ) ) ;
#898 = CARTESIAN_POINT ( 'NONE',  ( 0.000000000000000000, 2.000000000000000000, 0.000000000000000000 ) ) ;
#899 = DIRECTION ( 'NONE',  ( 0.000000000000000000, -1.000000000000000000, 0.000000000000000000 ) ) ;
#900 = EDGE_CURVE ( 'NONE', #38, #561, #66, .T. ) ;
#901 = DIRECTION ( 'NONE',  ( -0.000000000000000000, 1.000000000000000000, -0.000000000000000000 ) ) ;
#902 = ORIENTED_EDGE ( 'NONE', *, *, #768, .T. ) ;
#903 = DIRECTION ( 'NONE',  ( 0.000000000000000000, 0.000000000000000000, -1.000000000000000000 ) ) ;
#904 = EDGE_CURVE ( 'NONE', #534, #459, #304, .T. ) ;
#905 = CARTESIAN_POINT ( 'NONE',  ( 0.5000000000000000000, -0.2000000000000069778, 0.8750000000000001110 ) ) ;
#906 = CARTESIAN_POINT ( 'NONE',  ( -6.424999999999998934, 2.000000000000000000, -1.549999999999999378 ) ) ;
#907 = VECTOR ( 'NONE', #437, 39.37007874015748143 ) ;
#908 = DIRECTION ( 'NONE',  ( 0.000000000000000000, -1.000000000000000000, 0.000000000000000000 ) ) ;
#909 = FACE_BOUND ( 'NONE', #337, .T. ) ;
#910 = FACE_OUTER_BOUND ( 'NONE', #507, .T. ) ;
#911 = EDGE_CURVE ( 'NONE', #854, #405, #744, .T. ) ;
#912 = CARTESIAN_POINT ( 'NONE',  ( -6.424999999999998934, 1.750000000000000000, -1.000000000000000222 ) ) ;
#913 = FACE_BOUND ( 'NONE', #190, .T. ) ;
#914 = DIRECTION ( 'NONE',  ( 0.000000000000000000, 0.000000000000000000, -1.000000000000000000 ) ) ;
#915 = EDGE_LOOP ( 'NONE', ( #628, #624, #108, #83 ) ) ;
#916 = DIRECTION ( 'NONE',  ( 0.000000000000000000, 0.000000000000000000, -1.000000000000000000 ) ) ;
#917 = DIRECTION ( 'NONE',  ( 1.000000000000000000, 0.000000000000000000, -0.000000000000000000 ) ) ;
#918 = DIRECTION ( 'NONE',  ( -0.000000000000000000, -0.000000000000000000, 1.000000000000000000 ) ) ;
#919 = AXIS2_PLACEMENT_3D ( 'NONE', #221, #528, #834 ) ;
#920 = ORIENTED_EDGE ( 'NONE', *, *, #238, .T. ) ;
#921 = ORIENTED_EDGE ( 'NONE', *, *, #666, .T. ) ;
#922 = AXIS2_PLACEMENT_3D ( 'NONE', #351, #203, #741 ) ;
#923 = CARTESIAN_POINT ( 'NONE',  ( -5.924999999999999822, 0.000000000000000000, -1.399999999999995914 ) ) ;
#924 = ORIENTED_EDGE ( 'NONE', *, *, #739, .F. ) ;
#925 = CARTESIAN_POINT ( 'NONE',  ( 0.000000000000000000, -0.2000000000000000111, -0.1249999999999998612 ) ) ;
#926 = ORIENTED_EDGE ( 'NONE', *, *, #809, .T. ) ;
#927 =( LENGTH_UNIT ( ) NAMED_UNIT ( * ) SI_UNIT ( $, .METRE. ) );
#928 = ORIENTED_EDGE ( 'NONE', *, *, #623, .F. ) ;
#929 = DIRECTION ( 'NONE',  ( 1.000000000000000000, 0.000000000000000000, -1.275571047625337126E-16 ) ) ;
#930 = ORIENTED_EDGE ( 'NONE', *, *, #273, .T. ) ;
#931 = DIRECTION ( 'NONE',  ( -1.000000000000000000, -0.000000000000000000, 1.152678478339351656E-16 ) ) ;
#932 = EDGE_LOOP ( 'NONE', ( #772, #502, #275, #242 ) ) ;
#933 = EDGE_LOOP ( 'NONE', ( #1000, #852 ) ) ;
#934 = DIRECTION ( 'NONE',  ( -1.000000000000000000, -0.000000000000000000, 0.000000000000000000 ) ) ;
#935 = ORIENTED_EDGE ( 'NONE', *, *, #134, .F. ) ;
#936 = DIRECTION ( 'NONE',  ( 1.275571047625337126E-16, -0.000000000000000000, 1.000000000000000000 ) ) ;
#937 = VECTOR ( 'NONE', #189, 39.37007874015748143 ) ;
#938 = VERTEX_POINT ( 'NONE', #518 ) ;
#939 = ORIENTED_EDGE ( 'NONE', *, *, #760, .F. ) ;
#940 = CIRCLE ( 'NONE', #655, 0.1220472440944882775 ) ;
#941 = PLANE ( 'NONE',  #758 ) ;
#942 = ORIENTED_EDGE ( 'NONE', *, *, #94, .F. ) ;
#943 = STYLED_ITEM ( 'NONE', ( #949 ), #730 ) ;
#944 = FACE_OUTER_BOUND ( 'NONE', #255, .T. ) ;
#945 = EDGE_CURVE ( 'NONE', #32, #309, #366, .T. ) ;
#946 = ADVANCED_FACE ( 'NONE', ( #609 ), #822, .T. ) ;
#947 = FACE_OUTER_BOUND ( 'NONE', #553, .T. ) ;
#948 = VERTEX_POINT ( 'NONE', #219 ) ;
#949 = PRESENTATION_STYLE_ASSIGNMENT (( #645 ) ) ;
#950 = VERTEX_POINT ( 'NONE', #369 ) ;
#951 = DIRECTION ( 'NONE',  ( 0.000000000000000000, -1.000000000000000000, 0.000000000000000000 ) ) ;
#952 = PRODUCT_DEFINITION ( 'UNKNOWN', '', #665, #243 ) ;
#953 = DIRECTION ( 'NONE',  ( 1.000000000000000000, 0.000000000000000000, 0.000000000000000000 ) ) ;
#954 = DIRECTION ( 'NONE',  ( -0.000000000000000000, 0.000000000000000000, 1.000000000000000000 ) ) ;
#955 = ORIENTED_EDGE ( 'NONE', *, *, #838, .F. ) ;
#956 = CARTESIAN_POINT ( 'NONE',  ( 0.5000000000000000000, -0.2000000000000000111, -0.1249999999999998612 ) ) ;
#957 = ORIENTED_EDGE ( 'NONE', *, *, #339, .T. ) ;
#958 = ORIENTED_EDGE ( 'NONE', *, *, #413, .T. ) ;
#959 = CARTESIAN_POINT ( 'NONE',  ( 0.000000000000000000, 0.000000000000000000, 0.000000000000000000 ) ) ;
#960 = VECTOR ( 'NONE', #136, 39.37007874015748143 ) ;
#961 = DIRECTION ( 'NONE',  ( 0.000000000000000000, -1.000000000000000000, 0.000000000000000000 ) ) ;
#962 = VECTOR ( 'NONE', #116, 39.37007874015748143 ) ;
#963 = VECTOR ( 'NONE', #468, 39.37007874015748143 ) ;
#964 = LINE ( 'NONE', #360, #538 ) ;
#965 = DIRECTION ( 'NONE',  ( 0.000000000000000000, 0.000000000000000000, 1.000000000000000000 ) ) ;
#966 = ORIENTED_EDGE ( 'NONE', *, *, #802, .T. ) ;
#967 = DIRECTION ( 'NONE',  ( -0.000000000000000000, -1.000000000000000000, -0.000000000000000000 ) ) ;
#968 = CARTESIAN_POINT ( 'NONE',  ( -5.924999999999999822, 0.000000000000000000, 1.399999999999999911 ) ) ;
#969 = EDGE_CURVE ( 'NONE', #778, #322, #55, .T. ) ;
#970 = AXIS2_PLACEMENT_3D ( 'NONE', #37, #866, #342 ) ;
#971 = CARTESIAN_POINT ( 'NONE',  ( -6.224999999999999645, 2.000000000000000000, -1.549999999999999378 ) ) ;
#972 = DIRECTION ( 'NONE',  ( 0.000000000000000000, 0.000000000000000000, -1.000000000000000000 ) ) ;
#973 = VECTOR ( 'NONE', #756, 39.37007874015748143 ) ;
#974 = DIRECTION ( 'NONE',  ( 0.000000000000000000, 0.000000000000000000, 1.000000000000000000 ) ) ;
#975 = AXIS2_PLACEMENT_3D ( 'NONE', #818, #885, #40 ) ;
#976 = EDGE_CURVE ( 'NONE', #847, #12, #859, .T. ) ;
#977 = EDGE_CURVE ( 'NONE', #981, #487, #283, .T. ) ;
#978 = CARTESIAN_POINT ( 'NONE',  ( -6.224999999999999645, 2.000000000000000000, -1.549999999999999378 ) ) ;
#979 = EDGE_CURVE ( 'NONE', #849, #578, #229, .T. ) ;
#980 = DIRECTION ( 'NONE',  ( 0.000000000000000000, 0.000000000000000000, -1.000000000000000000 ) ) ;
#981 = VERTEX_POINT ( 'NONE', #833 ) ;
#982 = EDGE_CURVE ( 'NONE', #578, #537, #372, .T. ) ;
#983 = CARTESIAN_POINT ( 'NONE',  ( -6.424999999999998934, -0.4000000000000000222, 1.550000000000002487 ) ) ;
#984 = DIRECTION ( 'NONE',  ( -0.000000000000000000, -1.000000000000000000, -0.000000000000000000 ) ) ;
#985 = CARTESIAN_POINT ( 'NONE',  ( -6.224999999999999645, 2.000000000000000000, 1.750000000000002665 ) ) ;
#986 = DIMENSIONAL_EXPONENTS ( 1.000000000000000000, 0.000000000000000000, 0.000000000000000000, 0.000000000000000000, 0.000000000000000000, 0.000000000000000000, 0.000000000000000000 ) ;
#987 = DIRECTION ( 'NONE',  ( -1.000000000000000000, 0.000000000000000000, 1.275571047625337126E-16 ) ) ;
#988 =( GEOMETRIC_REPRESENTATION_CONTEXT ( 3 ) GLOBAL_UNCERTAINTY_ASSIGNED_CONTEXT ( ( #583 ) ) GLOBAL_UNIT_ASSIGNED_CONTEXT ( ( #465, #261, #707 ) ) REPRESENTATION_CONTEXT ( 'NONE', 'WORKASPACE' ) );
#989 = CARTESIAN_POINT ( 'NONE',  ( -5.924999999999999822, 1.750000000000000000, -1.000000000000000222 ) ) ;
#990 = DIRECTION ( 'NONE',  ( -1.000000000000000000, -0.000000000000000000, -0.000000000000000000 ) ) ;
#991 = DIRECTION ( 'NONE',  ( 1.000000000000000000, 0.000000000000000000, -0.000000000000000000 ) ) ;
#992 = VECTOR ( 'NONE', #373, 39.37007874015748143 ) ;
#993 = LINE ( 'NONE', #829, #865 ) ;
#994 = AXIS2_PLACEMENT_3D ( 'NONE', #733, #808, #965 ) ;
#995 = DIRECTION ( 'NONE',  ( -1.275571047625337126E-16, 0.000000000000000000, -1.000000000000000000 ) ) ;
#996 = DIRECTION ( 'NONE',  ( -0.000000000000000000, -1.000000000000000000, -0.000000000000000000 ) ) ;
#997 = DIRECTION ( 'NONE',  ( 0.000000000000000000, 0.000000000000000000, -1.000000000000000000 ) ) ;
#998 = DIRECTION ( 'NONE',  ( 0.000000000000000000, -1.000000000000000000, 0.000000000000000000 ) ) ;
#999 = DIRECTION ( 'NONE',  ( -1.000000000000000000, -0.000000000000000000, -0.000000000000000000 ) ) ;
#1000 = ORIENTED_EDGE ( 'NONE', *, *, #303, .T. ) ;
#1001 = ORIENTED_EDGE ( 'NONE', *, *, #623, .T. ) ;
ENDSEC;
END-ISO-10303-21;
